<svg width="3775" height="2143" xmlns="http://www.w3.org/2000/svg" xmlns:xlink="http://www.w3.org/1999/xlink" xml:space="preserve" overflow="hidden"><g transform="translate(-87 -52)"><rect x="2563.5" y="1792.5" width="89" height="102" stroke="#000000" stroke-width="6.875" stroke-miterlimit="8" fill="none"/><rect x="2652.5" y="1792.5" width="90" height="102" stroke="#000000" stroke-width="6.875" stroke-miterlimit="8" fill="none"/><rect x="2742.5" y="1792.5" width="90" height="102" stroke="#000000" stroke-width="6.875" stroke-miterlimit="8" fill="none"/><rect x="2832.5" y="1792.5" width="89" height="102" stroke="#000000" stroke-width="6.875" stroke-miterlimit="8" fill="none"/><rect x="2921.5" y="1792.5" width="90" height="102" stroke="#000000" stroke-width="6.875" stroke-miterlimit="8" fill="none"/><rect x="3011.5" y="1792.5" width="90" height="102" stroke="#000000" stroke-width="6.875" stroke-miterlimit="8" fill="none"/><rect x="3101.5" y="1792.5" width="88.9998" height="102" stroke="#000000" stroke-width="6.875" stroke-miterlimit="8" fill="none"/><rect x="3190.5" y="1792.5" width="90" height="102" stroke="#000000" stroke-width="6.875" stroke-miterlimit="8" fill="none"/><text font-family="Cambria,Cambria_MSFontService,sans-serif" font-weight="400" font-size="73" transform="matrix(1 0 0 1 2682.12 1982)">Input sequence</text><path d="M2390.5 1031.83C2390.5 1019.5 2400.5 1009.5 2412.83 1009.5L3427.17 1009.5C3439.5 1009.5 3449.5 1019.5 3449.5 1031.83L3449.5 1121.17C3449.5 1133.5 3439.5 1143.5 3427.17 1143.5L2412.83 1143.5C2400.5 1143.5 2390.5 1133.5 2390.5 1121.17Z" stroke="#13748B" stroke-width="4.58333" stroke-miterlimit="8" fill="#13748B" fill-rule="evenodd" fill-opacity="0.8"/><text font-family="Cambria,Cambria_MSFontService,sans-serif" font-weight="400" font-size="73" transform="matrix(1 0 0 1 2465.68 1103)">Bidirectional</text><text font-family="Cambria,Cambria_MSFontService,sans-serif" font-weight="400" font-size="73" transform="matrix(1 0 0 1 2886.27 1103)">LSTM (20 </text><text font-family="Cambria,Cambria_MSFontService,sans-serif" font-weight="400" font-size="73" transform="matrix(1 0 0 1 3205.71 1103)">cells</text><text font-family="Cambria,Cambria_MSFontService,sans-serif" font-weight="400" font-size="73" transform="matrix(1 0 0 1 3344.93 1103)">)</text><path d="M2390.5 813.834C2390.5 801.499 2400.5 791.5 2412.83 791.5L3427.17 791.5C3439.5 791.5 3449.5 801.499 3449.5 813.834L3449.5 903.166C3449.5 915.501 3439.5 925.5 3427.17 925.5L2412.83 925.5C2400.5 925.5 2390.5 915.501 2390.5 903.166Z" stroke="#70AD47" stroke-width="4.58333" stroke-miterlimit="8" fill="#13B58B" fill-rule="evenodd" fill-opacity="0.8"/><text font-family="Cambria,Cambria_MSFontService,sans-serif" font-weight="400" font-size="73" transform="matrix(1 0 0 1 2557.54 885)">Dropout (0.2) + Flatten</text><path d="M2390.5 608.667C2390.5 596.424 2400.42 586.5 2412.67 586.5L3427.33 586.5C3439.58 586.5 3449.5 596.424 3449.5 608.667L3449.5 697.333C3449.5 709.576 3439.58 719.5 3427.33 719.5L2412.67 719.5C2400.42 719.5 2390.5 709.576 2390.5 697.333Z" stroke="#FFC000" stroke-width="4.58333" stroke-miterlimit="8" fill="#FFE9BB" fill-rule="evenodd"/><text font-family="Cambria,Cambria_MSFontService,sans-serif" font-weight="400" font-size="73" transform="matrix(1 0 0 1 2695.62 680)">Dense</text><text font-family="Cambria,Cambria_MSFontService,sans-serif" font-weight="400" font-size="73" transform="matrix(1 0 0 1 2903.59 680)">(1 </text><text font-family="Cambria,Cambria_MSFontService,sans-serif" font-weight="400" font-size="73" transform="matrix(1 0 0 1 2988.38 680)">unit</text><text font-family="Cambria,Cambria_MSFontService,sans-serif" font-weight="400" font-size="73" transform="matrix(1 0 0 1 3114.99 680)">)</text><rect x="2873.5" y="405.5" width="89" height="101" stroke="#000000" stroke-width="6.875" stroke-miterlimit="8" fill="none"/><text font-family="Cambria,Cambria_MSFontService,sans-serif" font-weight="400" font-size="83" transform="matrix(1 0 0 1 2793.56 357)">Output</text><path d="M2920.83 1790.27 2248.7 1606.85 2250.51 1600.22 2922.64 1783.63ZM2250.41 1618 2227.5 1597.5 2257.65 1591.47Z"/><path d="M3.4375-1.46412e-05 3.43776 61.8144-3.43724 61.8144-3.4375 1.46412e-05ZM13.7502 57.231 0.000360892 84.731-13.7498 57.2311Z" transform="matrix(1 0 0 -1 2919.5 1010.23)"/><path d="M3.4375-1.72376e-05 3.43775 49.0521-3.43725 49.0522-3.4375 1.72376e-05ZM13.7502 44.4687 0.000360892 71.9688-13.7498 44.4689Z" transform="matrix(1 0 0 -1 2919.5 791.469)"/><path d="M2916.09 586.188 2914.65 529.496 2921.52 529.322 2922.96 586.013ZM2904.45 534.341 2917.5 506.5 2931.94 533.641Z"/><text font-family="Cambria,Cambria_MSFontService,sans-serif" font-weight="700" font-size="73" transform="matrix(1 0 0 1 2330.52 2134)">Top</text><text font-family="Cambria,Cambria_MSFontService,sans-serif" font-weight="700" font-size="73" transform="matrix(1 0 0 1 2456.43 2134)">-</text><text font-family="Cambria,Cambria_MSFontService,sans-serif" font-weight="700" font-size="73" transform="matrix(1 0 0 1 2481.06 2134)">2 bidirectional LSTM </text><text font-family="Cambria,Cambria_MSFontService,sans-serif" font-weight="700" font-size="73" transform="matrix(1 0 0 1 3195.31 2134)">MoE</text><text font-family="Cambria,Cambria_MSFontService,sans-serif" font-weight="700" font-size="73" transform="matrix(1 0 0 1 3357.44 2134)">model</text><path d="M2041.5 1414.17C2041.5 1393.92 2057.92 1377.5 2078.17 1377.5L2376.83 1377.5C2397.08 1377.5 2413.5 1393.92 2413.5 1414.17L2413.5 1560.83C2413.5 1581.08 2397.08 1597.5 2376.83 1597.5L2078.17 1597.5C2057.92 1597.5 2041.5 1581.08 2041.5 1560.83Z" stroke="#FFC000" stroke-width="4.58333" stroke-miterlimit="8" fill="#FFE9BB" fill-rule="evenodd"/><text font-family="Cambria,Cambria_MSFontService,sans-serif" font-weight="400" font-size="73" transform="matrix(1 0 0 1 2134.28 1470)">FFN 1 </text><text font-family="Cambria,Cambria_MSFontService,sans-serif" font-weight="400" font-size="73" transform="matrix(1 0 0 1 2091.58 1558)">(8 </text><text font-family="Cambria,Cambria_MSFontService,sans-serif" font-weight="400" font-size="73" transform="matrix(1 0 0 1 2176.38 1558)">units</text><text font-family="Cambria,Cambria_MSFontService,sans-serif" font-weight="400" font-size="73" transform="matrix(1 0 0 1 2334.5 1558)">)</text><path d="M2472.5 1411.17C2472.5 1390.92 2488.92 1374.5 2509.17 1374.5L2807.83 1374.5C2828.08 1374.5 2844.5 1390.92 2844.5 1411.17L2844.5 1557.83C2844.5 1578.08 2828.08 1594.5 2807.83 1594.5L2509.17 1594.5C2488.92 1594.5 2472.5 1578.08 2472.5 1557.83Z" stroke="#FFC000" stroke-width="4.58333" stroke-miterlimit="8" fill="#FFE9BB" fill-rule="evenodd"/><text font-family="Cambria,Cambria_MSFontService,sans-serif" font-weight="400" font-size="73" transform="matrix(1 0 0 1 2565.4 1467)">FFN 2</text><text font-family="Cambria,Cambria_MSFontService,sans-serif" font-weight="400" font-size="73" transform="matrix(1 0 0 1 2522.71 1555)">(8 </text><text font-family="Cambria,Cambria_MSFontService,sans-serif" font-weight="400" font-size="73" transform="matrix(1 0 0 1 2607.5 1555)">units</text><text font-family="Cambria,Cambria_MSFontService,sans-serif" font-weight="400" font-size="73" transform="matrix(1 0 0 1 2765.63 1555)">)</text><path d="M2993.5 1414.17C2993.5 1393.92 3009.92 1377.5 3030.17 1377.5L3327.83 1377.5C3348.08 1377.5 3364.5 1393.92 3364.5 1414.17L3364.5 1560.83C3364.5 1581.08 3348.08 1597.5 3327.83 1597.5L3030.17 1597.5C3009.92 1597.5 2993.5 1581.08 2993.5 1560.83Z" stroke="#FFC000" stroke-width="4.58333" stroke-miterlimit="8" fill="#FFE9BB" fill-rule="evenodd"/><text font-family="Cambria,Cambria_MSFontService,sans-serif" font-weight="400" font-size="73" transform="matrix(1 0 0 1 3085.53 1470)">FFN 4 </text><text font-family="Cambria,Cambria_MSFontService,sans-serif" font-weight="400" font-size="73" transform="matrix(1 0 0 1 3042.84 1558)">(8 </text><text font-family="Cambria,Cambria_MSFontService,sans-serif" font-weight="400" font-size="73" transform="matrix(1 0 0 1 3127.63 1558)">units</text><text font-family="Cambria,Cambria_MSFontService,sans-serif" font-weight="400" font-size="73" transform="matrix(1 0 0 1 3285.75 1558)">)</text><path d="M3424.5 1413.67C3424.5 1393.69 3440.69 1377.5 3460.67 1377.5L3823.33 1377.5C3843.31 1377.5 3859.5 1393.69 3859.5 1413.67L3859.5 1558.33C3859.5 1578.31 3843.31 1594.5 3823.33 1594.5L3460.67 1594.5C3440.69 1594.5 3424.5 1578.31 3424.5 1558.33Z" stroke="#B03A3A" stroke-width="4.58333" stroke-miterlimit="8" fill="#B03A3A" fill-rule="evenodd" fill-opacity="0.8"/><text font-family="Cambria,Cambria_MSFontService,sans-serif" font-weight="400" font-size="73" transform="matrix(1 0 0 1 3571 1468)">Gate</text><text font-family="Cambria,Cambria_MSFontService,sans-serif" font-weight="400" font-size="73" transform="matrix(1 0 0 1 3526.11 1556)">(Top 2)</text><text font-family="Cambria,Cambria_MSFontService,sans-serif" font-weight="400" font-size="110" transform="matrix(1 0 0 1 2883.55 1531)">…</text><path d="M2919.61 1784.11 2675.2 1610.57 2679.18 1604.96 2923.59 1778.51ZM2672.96 1621.63 2658.5 1594.5 2688.88 1599.21Z"/><path d="M2.03957-2.76705 240.616 173.086 236.536 178.62-2.03957 2.76705ZM243.045 162.065 257.023 189.45 226.728 184.202Z" transform="matrix(1 0 0 -1 2921.5 1786.95)"/><path d="M0.886043-3.32135 698.598 182.809 696.826 189.452-0.886043 3.32135ZM696.828 171.664 719.854 192.037 689.739 198.234Z" transform="matrix(1 0 0 -1 2921.5 1786.54)"/><path d="M2881.5 1250C2881.5 1227.63 2898.51 1209.5 2919.5 1209.5 2940.49 1209.5 2957.5 1227.63 2957.5 1250 2957.5 1272.37 2940.49 1290.5 2919.5 1290.5 2898.51 1290.5 2881.5 1272.37 2881.5 1250Z" stroke="#000000" stroke-width="4.58333" stroke-miterlimit="8" fill="none" fill-rule="evenodd"/><text font-family="Cambria,Cambria_MSFontService,sans-serif" font-weight="400" font-size="73" transform="matrix(1 0 0 1 2898.46 1276)">X</text><path d="M1.05545-3.27146 240.412 73.9505 238.301 80.4934-1.05545 3.27146ZM239.216 62.7289 261.166 84.2583 230.773 88.9005Z" transform="matrix(1 0 0 -1 2658.5 1374.76)"/><path d="M3177.37 1380.6 2940.13 1301.05 2942.32 1294.53 3179.55 1374.09ZM2941.2 1312.28 2919.5 1290.5 2949.94 1286.21Z"/><path d="M0-3.4375 130.855-3.4375 130.855 660.767 123.98 660.767 123.98 0 127.417 3.4375 0 3.4375ZM141.167 656.184 127.417 683.684 113.667 656.184Z" transform="matrix(-1.83697e-16 -1 -1 1.83697e-16 3641.18 1376.92)"/><path d="M2916.09 1209.72 2916.07 1166.42 2922.95 1166.42 2922.97 1209.71ZM2905.76 1171.01 2919.5 1143.5 2933.26 1170.99Z"/><rect x="610.5" y="1790.5" width="90.0001" height="102" stroke="#000000" stroke-width="6.875" stroke-miterlimit="8" fill="none"/><rect x="700.5" y="1790.5" width="90.0001" height="102" stroke="#000000" stroke-width="6.875" stroke-miterlimit="8" fill="none"/><rect x="790.5" y="1790.5" width="89" height="102" stroke="#000000" stroke-width="6.875" stroke-miterlimit="8" fill="none"/><rect x="879.5" y="1790.5" width="89.9997" height="102" stroke="#000000" stroke-width="6.875" stroke-miterlimit="8" fill="none"/><rect x="969.5" y="1790.5" width="89" height="102" stroke="#000000" stroke-width="6.875" stroke-miterlimit="8" fill="none"/><rect x="1058.5" y="1790.5" width="90.0001" height="102" stroke="#000000" stroke-width="6.875" stroke-miterlimit="8" fill="none"/><rect x="1148.5" y="1790.5" width="90.0001" height="102" stroke="#000000" stroke-width="6.875" stroke-miterlimit="8" fill="none"/><rect x="1238.5" y="1790.5" width="89" height="102" stroke="#000000" stroke-width="6.875" stroke-miterlimit="8" fill="none"/><text font-family="Cambria,Cambria_MSFontService,sans-serif" font-weight="400" font-size="73" transform="matrix(1 0 0 1 729.601 1979)">Input sequence</text><path d="M435.5 1034.67C435.5 1022.42 445.424 1012.5 457.667 1012.5L1472.33 1012.5C1484.58 1012.5 1494.5 1022.42 1494.5 1034.67L1494.5 1123.33C1494.5 1135.58 1484.58 1145.5 1472.33 1145.5L457.667 1145.5C445.424 1145.5 435.5 1135.58 435.5 1123.33Z" stroke="#FFC000" stroke-width="4.58333" stroke-miterlimit="8" fill="#FFE9BB" fill-rule="evenodd"/><text font-family="Cambria,Cambria_MSFontService,sans-serif" font-weight="400" font-size="73" transform="matrix(1 0 0 1 704.981 1105)">Dense</text><text font-family="Cambria,Cambria_MSFontService,sans-serif" font-weight="400" font-size="73" transform="matrix(1 0 0 1 912.95 1105)">(16 </text><text font-family="Cambria,Cambria_MSFontService,sans-serif" font-weight="400" font-size="73" transform="matrix(1 0 0 1 1038.42 1105)">units</text><text font-family="Cambria,Cambria_MSFontService,sans-serif" font-weight="400" font-size="73" transform="matrix(1 0 0 1 1196.54 1105)">)</text><path d="M435.5 840.667C435.5 828.424 445.424 818.5 457.667 818.5L1472.33 818.5C1484.58 818.5 1494.5 828.424 1494.5 840.667L1494.5 929.333C1494.5 941.576 1484.58 951.5 1472.33 951.5L457.667 951.5C445.424 951.5 435.5 941.576 435.5 929.333Z" stroke="#FFC000" stroke-width="4.58333" stroke-miterlimit="8" fill="#FFE9BB" fill-rule="evenodd"/><text font-family="Cambria,Cambria_MSFontService,sans-serif" font-weight="400" font-size="73" transform="matrix(1 0 0 1 704.982 912)">Dense</text><text font-family="Cambria,Cambria_MSFontService,sans-serif" font-weight="400" font-size="73" transform="matrix(1 0 0 1 912.95 912)">(16 </text><text font-family="Cambria,Cambria_MSFontService,sans-serif" font-weight="400" font-size="73" transform="matrix(1 0 0 1 1038.42 912)">units</text><text font-family="Cambria,Cambria_MSFontService,sans-serif" font-weight="400" font-size="73" transform="matrix(1 0 0 1 1196.54 912)">)</text><path d="M435.5 452.667C435.5 440.424 445.424 430.5 457.667 430.5L1472.33 430.5C1484.58 430.5 1494.5 440.424 1494.5 452.667L1494.5 541.333C1494.5 553.575 1484.58 563.5 1472.33 563.5L457.667 563.5C445.424 563.5 435.5 553.575 435.5 541.333Z" stroke="#FFC000" stroke-width="4.58333" stroke-miterlimit="8" fill="#FFE9BB" fill-rule="evenodd"/><text font-family="Cambria,Cambria_MSFontService,sans-serif" font-weight="400" font-size="73" transform="matrix(1 0 0 1 741.076 524)">Dense</text><text font-family="Cambria,Cambria_MSFontService,sans-serif" font-weight="400" font-size="73" transform="matrix(1 0 0 1 949.044 524)">(1 </text><text font-family="Cambria,Cambria_MSFontService,sans-serif" font-weight="400" font-size="73" transform="matrix(1 0 0 1 1033.84 524)">unit</text><text font-family="Cambria,Cambria_MSFontService,sans-serif" font-weight="400" font-size="73" transform="matrix(1 0 0 1 1160.45 524)">)</text><rect x="920.5" y="225.5" width="90.0001" height="102" stroke="#000000" stroke-width="6.875" stroke-miterlimit="8" fill="none"/><text font-family="Cambria,Cambria_MSFontService,sans-serif" font-weight="400" font-size="83" transform="matrix(1 0 0 1 833.753 158)">Output</text><path d="M963.375 1790.7 296.642 1603.99 298.496 1597.37 965.229 1784.07ZM298.273 1615.16 275.5 1594.5 305.689 1588.68Z"/><path d="M3.4375-2.05454e-05 3.43772 37.4649-3.43728 37.465-3.4375 2.05454e-05ZM13.7502 32.8815 0.000360892 60.3816-13.7498 32.8817Z" transform="matrix(1 0 0 -1 965.5 1011.88)"/><path d="M3.4375-1.99864e-05 3.43773 39.1539-3.43727 39.154-3.4375 1.99864e-05ZM13.7502 34.5705 0.000360892 62.0706-13.7498 34.5707Z" transform="matrix(1 0 0 -1 965.5 818.571)"/><path d="M3.4375-1.2094e-05 3.43778 79.6609-3.43722 79.6609-3.4375 1.2094e-05ZM13.7503 75.0775 0.000360892 102.578-13.7497 75.0776Z" transform="matrix(1 0 0 -1 965.5 430.078)"/><text font-family="Cambria,Cambria_MSFontService,sans-serif" font-weight="700" font-size="73" transform="matrix(1 0 0 1 590.992 2133)">Soft Dense </text><text font-family="Cambria,Cambria_MSFontService,sans-serif" font-weight="700" font-size="73" transform="matrix(1 0 0 1 961.623 2133)">MoE</text><text font-family="Cambria,Cambria_MSFontService,sans-serif" font-weight="700" font-size="73" transform="matrix(1 0 0 1 1123.76 2133)">model</text><path d="M89.4999 1411.17C89.4999 1390.92 105.916 1374.5 126.167 1374.5L423.833 1374.5C444.084 1374.5 460.5 1390.92 460.5 1411.17L460.5 1557.83C460.5 1578.08 444.084 1594.5 423.833 1594.5L126.167 1594.5C105.916 1594.5 89.4999 1578.08 89.4999 1557.83Z" stroke="#FFC000" stroke-width="4.58333" stroke-miterlimit="8" fill="#FFE9BB" fill-rule="evenodd"/><text font-family="Cambria,Cambria_MSFontService,sans-serif" font-weight="400" font-size="73" transform="matrix(1 0 0 1 181.762 1467)">FFN 1 </text><text font-family="Cambria,Cambria_MSFontService,sans-serif" font-weight="400" font-size="73" transform="matrix(1 0 0 1 139.068 1555)">(4 </text><text font-family="Cambria,Cambria_MSFontService,sans-serif" font-weight="400" font-size="73" transform="matrix(1 0 0 1 223.86 1555)">units</text><text font-family="Cambria,Cambria_MSFontService,sans-serif" font-weight="400" font-size="73" transform="matrix(1 0 0 1 381.985 1555)">)</text><path d="M520.5 1409C520.5 1388.84 536.842 1372.5 557.001 1372.5L855.999 1372.5C876.158 1372.5 892.5 1388.84 892.5 1409L892.5 1555C892.5 1575.16 876.158 1591.5 855.999 1591.5L557.001 1591.5C536.842 1591.5 520.5 1575.16 520.5 1555Z" stroke="#FFC000" stroke-width="4.58333" stroke-miterlimit="8" fill="#FFE9BB" fill-rule="evenodd"/><text font-family="Cambria,Cambria_MSFontService,sans-serif" font-weight="400" font-size="73" transform="matrix(1 0 0 1 612.889 1465)">FFN 2</text><text font-family="Cambria,Cambria_MSFontService,sans-serif" font-weight="400" font-size="73" transform="matrix(1 0 0 1 570.195 1553)">(4 </text><text font-family="Cambria,Cambria_MSFontService,sans-serif" font-weight="400" font-size="73" transform="matrix(1 0 0 1 654.987 1553)">units</text><text font-family="Cambria,Cambria_MSFontService,sans-serif" font-weight="400" font-size="73" transform="matrix(1 0 0 1 813.112 1553)">)</text><path d="M1040.5 1411.17C1040.5 1390.92 1056.92 1374.5 1077.17 1374.5L1375.83 1374.5C1396.08 1374.5 1412.5 1390.92 1412.5 1411.17L1412.5 1557.83C1412.5 1578.08 1396.08 1594.5 1375.83 1594.5L1077.17 1594.5C1056.92 1594.5 1040.5 1578.08 1040.5 1557.83Z" stroke="#FFC000" stroke-width="4.58333" stroke-miterlimit="8" fill="#FFE9BB" fill-rule="evenodd"/><text font-family="Cambria,Cambria_MSFontService,sans-serif" font-weight="400" font-size="73" transform="matrix(1 0 0 1 1133.02 1467)">FFN 8 </text><text font-family="Cambria,Cambria_MSFontService,sans-serif" font-weight="400" font-size="73" transform="matrix(1 0 0 1 1090.32 1555)">(4 </text><text font-family="Cambria,Cambria_MSFontService,sans-serif" font-weight="400" font-size="73" transform="matrix(1 0 0 1 1175.11 1555)">units</text><text font-family="Cambria,Cambria_MSFontService,sans-serif" font-weight="400" font-size="73" transform="matrix(1 0 0 1 1333.24 1555)">)</text><path d="M1471.5 1410.67C1471.5 1390.69 1487.69 1374.5 1507.67 1374.5L1870.33 1374.5C1890.31 1374.5 1906.5 1390.69 1906.5 1410.67L1906.5 1555.33C1906.5 1575.31 1890.31 1591.5 1870.33 1591.5L1507.67 1591.5C1487.69 1591.5 1471.5 1575.31 1471.5 1555.33Z" stroke="#B03A3A" stroke-width="4.58333" stroke-miterlimit="8" fill="#B03A3A" fill-rule="evenodd" fill-opacity="0.8"/><text font-family="Cambria,Cambria_MSFontService,sans-serif" font-weight="400" font-size="73" transform="matrix(1 0 0 1 1618.5 1466)">Gate</text><text font-family="Cambria,Cambria_MSFontService,sans-serif" font-weight="400" font-size="73" transform="matrix(1 0 0 1 1532.81 1554)">(</text><text font-family="Cambria,Cambria_MSFontService,sans-serif" font-weight="400" font-size="73" transform="matrix(1 0 0 1 1560.89 1554)">Softmax</text><text font-family="Cambria,Cambria_MSFontService,sans-serif" font-weight="400" font-size="73" transform="matrix(1 0 0 1 1816.41 1554)">)</text><text font-family="Cambria,Cambria_MSFontService,sans-serif" font-weight="400" font-size="110" transform="matrix(1 0 0 1 931.036 1528)">…</text><path d="M962.079 1792.51 722.565 1608.2 726.758 1602.75 966.271 1787.06ZM719.909 1619.17 706.5 1591.5 736.68 1597.37Z"/><path d="M2.0849-2.73306 240.105 178.84 235.936 184.306-2.0849 2.73306ZM242.716 167.861 256.241 195.472 226.037 189.725Z" transform="matrix(1 0 0 -1 970.5 1789.97)"/><path d="M0.909925-3.31488 700.347 188.678 698.527 195.308-0.909925 3.31488ZM698.656 177.52 721.535 198.059 691.376 204.039Z" transform="matrix(1 0 0 -1 967.5 1789.56)"/><path d="M926.5 1247C926.5 1224.63 943.737 1206.5 965 1206.5 986.263 1206.5 1003.5 1224.63 1003.5 1247 1003.5 1269.37 986.263 1287.5 965 1287.5 943.737 1287.5 926.5 1269.37 926.5 1247Z" stroke="#000000" stroke-width="4.58333" stroke-miterlimit="8" fill="none" fill-rule="evenodd"/><text font-family="Cambria,Cambria_MSFontService,sans-serif" font-weight="400" font-size="73" transform="matrix(1 0 0 1 943.482 1274)">X</text><path d="M0.429371-3.41058 667.523 80.5725 666.664 87.3937-0.429371 3.41058ZM664.263 69.7682 689.831 86.8455 660.828 97.0528Z" transform="matrix(1 0 0 -1 275.5 1374.35)"/><path d="M1.06454-3.26851 237.978 73.8929 235.849 80.4299-1.06454 3.26851ZM236.814 62.6679 258.704 84.2583 228.297 88.816Z" transform="matrix(1 0 0 -1 706.5 1371.76)"/><path d="M1224.84 1377.61 985.164 1297.99 987.332 1291.46 1227.01 1371.08ZM986.263 1309.22 964.5 1287.5 994.933 1283.12Z"/><path d="M0-3.4375 130.855-3.4375 130.855 663.229 123.98 663.229 123.98 0 127.417 3.4375 0 3.4375ZM141.167 658.646 127.417 686.146 113.667 658.646Z" transform="matrix(-1.83697e-16 -1 -1 1.83697e-16 1689.65 1374.92)"/><path d="M3.43742-0.0227333 3.69151 38.3969-3.18334 38.4424-3.43742 0.0227333ZM13.9735 33.7455 0.405643 61.3358-13.5259 33.9274Z" transform="matrix(1 0 0 -1 964.5 1206.84)"/><path d="M435.5 645.667C435.5 633.424 445.424 623.5 457.667 623.5L1472.33 623.5C1484.58 623.5 1494.5 633.424 1494.5 645.667L1494.5 734.333C1494.5 746.576 1484.58 756.5 1472.33 756.5L457.667 756.5C445.424 756.5 435.5 746.576 435.5 734.333Z" stroke="#70AD47" stroke-width="4.58333" stroke-miterlimit="8" fill="#13B58B" fill-rule="evenodd" fill-opacity="0.8"/><text font-family="Cambria,Cambria_MSFontService,sans-serif" font-weight="400" font-size="73" transform="matrix(1 0 0 1 603.003 716)">Dropout (0.2) + Flatten</text><path d="M3.4375-2.08942e-05 3.43772 36.457-3.43728 36.457-3.4375 2.08942e-05ZM13.7502 31.8736 0.000360892 59.3737-13.7498 31.8737Z" transform="matrix(1 0 0 -1 965.5 622.874)"/></g></svg>