<svg width="4338" height="2853" xmlns="http://www.w3.org/2000/svg" xmlns:xlink="http://www.w3.org/1999/xlink" xml:space="preserve" overflow="hidden"><g transform="translate(-152 56)"><path d="M1326.5 785.262C1326.5 747.838 1356.84 717.5 1394.26 717.5L2170.74 717.5C2208.16 717.5 2238.5 747.838 2238.5 785.262L2238.5 2179.74C2238.5 2217.16 2208.16 2247.5 2170.74 2247.5L1394.26 2247.5C1356.84 2247.5 1326.5 2217.16 1326.5 2179.74Z" stroke="#7F7F7F" stroke-width="4.58333" stroke-miterlimit="8" fill="#EEEEEE" fill-rule="evenodd"/><path d="M164.5 1016.26C164.5 978.838 194.838 948.5 232.262 948.5L1008.74 948.5C1046.16 948.5 1076.5 978.838 1076.5 1016.26L1076.5 2179.74C1076.5 2217.16 1046.16 2247.5 1008.74 2247.5L232.262 2247.5C194.838 2247.5 164.5 2217.16 164.5 2179.74Z" stroke="#7F7F7F" stroke-width="4.58333" stroke-miterlimit="8" fill="#EEEEEE" fill-rule="evenodd"/><path d="M293.5 1675.92C293.5 1660.23 306.225 1647.5 321.922 1647.5L917.078 1647.5C932.775 1647.5 945.5 1660.23 945.5 1675.92L945.5 2157.08C945.5 2172.77 932.775 2185.5 917.078 2185.5L321.922 2185.5C306.225 2185.5 293.5 2172.77 293.5 2157.08Z" stroke="#7F7F7F" stroke-width="4.58333" stroke-miterlimit="8" fill="#FFF2CC" fill-rule="evenodd"/><path d="M317.5 2088C317.5 2079.99 323.992 2073.5 332 2073.5L907 2073.5C915.008 2073.5 921.5 2079.99 921.5 2088L921.5 2146C921.5 2154.01 915.008 2160.5 907 2160.5L332 2160.5C323.992 2160.5 317.5 2154.01 317.5 2146Z" stroke="#B03A3A" stroke-width="4.58333" stroke-miterlimit="8" fill="#B03A3A" fill-rule="evenodd" fill-opacity="0.8"/><text font-family="Cambria,Cambria_MSFontService,sans-serif" font-weight="400" font-size="55" transform="matrix(1 0 0 1 370.489 2137)">Multi</text><text font-family="Cambria,Cambria_MSFontService,sans-serif" font-weight="400" font-size="55" transform="matrix(1 0 0 1 494.239 2137)">-</text><text font-family="Cambria,Cambria_MSFontService,sans-serif" font-weight="400" font-size="55" transform="matrix(1 0 0 1 512.572 2137)">Head Attention</text><path d="M317.5 1958C317.5 1949.99 323.992 1943.5 332 1943.5L907 1943.5C915.008 1943.5 921.5 1949.99 921.5 1958L921.5 2016C921.5 2024.01 915.008 2030.5 907 2030.5L332 2030.5C323.992 2030.5 317.5 2024.01 317.5 2016Z" stroke="#70AD47" stroke-width="4.58333" stroke-miterlimit="8" fill="#13B58B" fill-rule="evenodd" fill-opacity="0.8"/><text font-family="Cambria,Cambria_MSFontService,sans-serif" font-weight="400" font-size="55" transform="matrix(1 0 0 1 473.476 2007)">Add &amp; Norm</text><path d="M314.5 1822.33C314.5 1814.14 321.141 1807.5 329.334 1807.5L902.666 1807.5C910.859 1807.5 917.5 1814.14 917.5 1822.33L917.5 1881.67C917.5 1889.86 910.859 1896.5 902.666 1896.5L329.334 1896.5C321.141 1896.5 314.5 1889.86 314.5 1881.67Z" stroke="#13748B" stroke-width="4.58333" stroke-miterlimit="8" fill="#13748B" fill-rule="evenodd" fill-opacity="0.8"/><text font-family="Cambria,Cambria_MSFontService,sans-serif" font-weight="400" font-size="55" transform="matrix(1 0 0 1 375.237 1872)">Dense</text><text font-family="Cambria,Cambria_MSFontService,sans-serif" font-weight="400" font-size="55" transform="matrix(1 0 0 1 532.216 1872)">(8) + Dropout</text><path d="M315.5 1686.17C315.5 1677.51 322.514 1670.5 331.167 1670.5L899.833 1670.5C908.486 1670.5 915.5 1677.51 915.5 1686.17L915.5 1748.83C915.5 1757.49 908.486 1764.5 899.833 1764.5L331.167 1764.5C322.514 1764.5 315.5 1757.49 315.5 1748.83Z" stroke="#70AD47" stroke-width="4.58333" stroke-miterlimit="8" fill="#13B58B" fill-rule="evenodd" fill-opacity="0.8"/><text font-family="Cambria,Cambria_MSFontService,sans-serif" font-weight="400" font-size="55" transform="matrix(1 0 0 1 469.124 1737)">Add &amp; Norm</text><path d="M618.671 2300.19 616.55 2182.96 622.279 2182.86 624.399 2300.09ZM605.75 2187.74 619 2160 633.245 2187.25Z"/><path d="M0-2.86458 86.3261-2.86458 86.3261 368.764 83.4615 365.899 313.518 365.899 310.653 368.764 310.653 327.489 316.383 327.489 316.383 371.629 80.5969 371.629 80.5969 0 83.4615 2.86458 0 2.86458ZM299.768 332.072 313.518 304.572 327.268 332.072Z" transform="matrix(-1.83697e-16 -1 -1 1.83697e-16 621.572 2300.52)"/><path d="M616.136 2072.96 616.136 2052.92 621.865 2052.92 621.865 2072.96ZM605.25 2057.5 619 2030 632.75 2057.5Z"/><path d="M616.036 1943.41 614.029 1919.07 619.739 1918.6 621.746 1942.94ZM603.557 1924.54 615 1896 630.964 1922.28Z"/><path d="M614.315 1807.3 614.098 1786.93 616.39 1786.9 616.607 1807.27ZM601.544 1791.65 615 1764 629.042 1791.35Z"/><path d="M0-2.86458 24.5065-2.86458 24.5065 360.695 21.6419 357.83 90.4613 357.83 87.5967 360.695 87.5967 323.378 93.3259 323.378 93.3259 363.559 18.7773 363.559 18.7773 0 21.6419 2.86458 0 2.86458ZM76.7113 327.961 90.4613 300.461 104.211 327.961Z" transform="matrix(-1.83697e-16 -1 -1 1.83697e-16 615.461 1807.46)"/><path d="M0 2.86458-82.4971 2.86458-79.6325 0-79.6325 650.477-82.4971 647.613 915.849 647.613 915.849 822.155 910.12 822.155 910.12 650.477 912.984 653.342-85.3616 653.342-85.3616-2.86458 0-2.86458ZM926.734 817.572 912.984 845.072 899.234 817.572Z" transform="matrix(1.83697e-16 1 1 -1.83697e-16 620 948)"/><text font-family="Cambria,Cambria_MSFontService,sans-serif" font-weight="700" font-size="73" transform="matrix(1 0 0 1 196.749 890)">Encoder</text><text font-family="Cambria,Cambria_MSFontService,sans-serif" font-weight="700" font-size="73" transform="matrix(1 0 0 1 1355.46 683)">Decoder</text><text font-family="Cambria,Cambria_MSFontService,sans-serif" font-weight="700" font-size="55" transform="matrix(-1.83697e-16 -1 1 -1.83697e-16 1002.8 2115)">Encoder Layer 1</text><path d="M296.5 1049.98C296.5 1034.25 309.249 1021.5 324.976 1021.5L919.024 1021.5C934.751 1021.5 947.5 1034.25 947.5 1049.98L947.5 1532.02C947.5 1547.75 934.751 1560.5 919.024 1560.5L324.976 1560.5C309.249 1560.5 296.5 1547.75 296.5 1532.02Z" stroke="#7F7F7F" stroke-width="4.58333" stroke-miterlimit="8" fill="#FFF2CC" fill-rule="evenodd"/><path d="M320.5 1463C320.5 1454.99 326.992 1448.5 335 1448.5L910 1448.5C918.008 1448.5 924.5 1454.99 924.5 1463L924.5 1521C924.5 1529.01 918.008 1535.5 910 1535.5L335 1535.5C326.992 1535.5 320.5 1529.01 320.5 1521Z" stroke="#B03A3A" stroke-width="4.58333" stroke-miterlimit="8" fill="#B03A3A" fill-rule="evenodd" fill-opacity="0.8"/><text font-family="Cambria,Cambria_MSFontService,sans-serif" font-weight="400" font-size="55" transform="matrix(1 0 0 1 372.746 1512)">Multi</text><text font-family="Cambria,Cambria_MSFontService,sans-serif" font-weight="400" font-size="55" transform="matrix(1 0 0 1 496.496 1512)">-</text><text font-family="Cambria,Cambria_MSFontService,sans-serif" font-weight="400" font-size="55" transform="matrix(1 0 0 1 514.83 1512)">Head Attention</text><path d="M320.5 1333C320.5 1324.99 326.992 1318.5 335 1318.5L910 1318.5C918.008 1318.5 924.5 1324.99 924.5 1333L924.5 1391C924.5 1399.01 918.008 1405.5 910 1405.5L335 1405.5C326.992 1405.5 320.5 1399.01 320.5 1391Z" stroke="#70AD47" stroke-width="4.58333" stroke-miterlimit="8" fill="#13B58B" fill-rule="evenodd" fill-opacity="0.8"/><text font-family="Cambria,Cambria_MSFontService,sans-serif" font-weight="400" font-size="55" transform="matrix(1 0 0 1 475.734 1382)">Add &amp; Norm</text><path d="M316.5 1197.33C316.5 1189.14 323.141 1182.5 331.334 1182.5L904.666 1182.5C912.859 1182.5 919.5 1189.14 919.5 1197.33L919.5 1256.67C919.5 1264.86 912.859 1271.5 904.666 1271.5L331.334 1271.5C323.141 1271.5 316.5 1264.86 316.5 1256.67Z" stroke="#13748B" stroke-width="4.58333" stroke-miterlimit="8" fill="#13748B" fill-rule="evenodd" fill-opacity="0.8"/><text font-family="Cambria,Cambria_MSFontService,sans-serif" font-weight="400" font-size="55" transform="matrix(1 0 0 1 377.495 1246)">Dense</text><text font-family="Cambria,Cambria_MSFontService,sans-serif" font-weight="400" font-size="55" transform="matrix(1 0 0 1 534.474 1246)">(8) + Dropout</text><path d="M317.5 1060.33C317.5 1051.59 324.589 1044.5 333.333 1044.5L901.667 1044.5C910.411 1044.5 917.5 1051.59 917.5 1060.33L917.5 1123.67C917.5 1132.41 910.411 1139.5 901.667 1139.5L333.333 1139.5C324.589 1139.5 317.5 1132.41 317.5 1123.67Z" stroke="#70AD47" stroke-width="4.58333" stroke-miterlimit="8" fill="#13B58B" fill-rule="evenodd" fill-opacity="0.8"/><text font-family="Cambria,Cambria_MSFontService,sans-serif" font-weight="400" font-size="55" transform="matrix(1 0 0 1 471.381 1111)">Add &amp; Norm</text><path d="M2.86395-0.0603836 4.73281 88.5784-0.99508 88.6992-2.86395 0.0603836ZM15.5192 83.7667 2.35194 111.55-11.9747 84.3463Z" transform="matrix(1 0 0 -1 619 1646.55)"/><path d="M0-2.86458 56.9244-2.86458 56.9244 362.071 54.0598 359.207 284.93 359.207 282.066 362.071 282.066 322.602 287.795 322.602 287.795 364.936 51.1952 364.936 51.1952 0 54.0598 2.86458 0 2.86458ZM271.18 327.186 284.93 299.686 298.68 327.186Z" transform="matrix(-1.83697e-16 -1 -1 1.83697e-16 619.686 1646.93)"/><path d="M619.136 1447.96 619.135 1427.92 624.865 1427.92 624.865 1447.96ZM608.25 1432.5 622 1405 635.75 1432.5Z"/><path d="M619.036 1318.41 617.029 1294.07 622.739 1293.6 624.746 1317.94ZM606.557 1299.54 618 1271 633.964 1297.28Z"/><path d="M616.315 1182.3 616.098 1161.93 618.39 1161.9 618.607 1182.27ZM603.544 1166.64 617 1139 631.042 1166.35Z"/><path d="M0-2.86458 24.5065-2.86458 24.5065 360.695 21.6419 357.83 90.4613 357.83 87.5967 360.695 87.5967 323.378 93.3259 323.378 93.3259 363.559 18.7773 363.559 18.7773 0 21.6419 2.86458 0 2.86458ZM76.7113 327.961 90.4613 300.461 104.211 327.961Z" transform="matrix(-1.83697e-16 -1 -1 1.83697e-16 617.461 1181.46)"/><text font-family="Cambria,Cambria_MSFontService,sans-serif" font-weight="700" font-size="55" transform="matrix(-1.83697e-16 -1 1 -1.83697e-16 1007.69 1493)">Encoder Layer 2</text><path d="M1441.5 1560.95C1441.5 1541.92 1456.92 1526.5 1475.95 1526.5L2059.05 1526.5C2078.08 1526.5 2093.5 1541.92 2093.5 1560.95L2093.5 2160.05C2093.5 2179.08 2078.08 2194.5 2059.05 2194.5L1475.95 2194.5C1456.92 2194.5 1441.5 2179.08 1441.5 2160.05Z" stroke="#7F7F7F" stroke-width="4.58333" stroke-miterlimit="8" fill="#FFF2CC" fill-rule="evenodd"/><path d="M1468.5 2097C1468.5 2088.99 1474.99 2082.5 1483 2082.5L2058 2082.5C2066.01 2082.5 2072.5 2088.99 2072.5 2097L2072.5 2155C2072.5 2163.01 2066.01 2169.5 2058 2169.5L1483 2169.5C1474.99 2169.5 1468.5 2163.01 1468.5 2155Z" stroke="#B03A3A" stroke-width="4.58333" stroke-miterlimit="8" fill="#B03A3A" fill-rule="evenodd" fill-opacity="0.8"/><text font-family="Cambria,Cambria_MSFontService,sans-serif" font-weight="400" font-size="55" transform="matrix(1 0 0 1 1521.26 2146)">Multi</text><text font-family="Cambria,Cambria_MSFontService,sans-serif" font-weight="400" font-size="55" transform="matrix(1 0 0 1 1645.01 2146)">-</text><text font-family="Cambria,Cambria_MSFontService,sans-serif" font-weight="400" font-size="55" transform="matrix(1 0 0 1 1663.34 2146)">Head Attention</text><path d="M1468.5 1967C1468.5 1958.99 1474.99 1952.5 1483 1952.5L2058 1952.5C2066.01 1952.5 2072.5 1958.99 2072.5 1967L2072.5 2025C2072.5 2033.01 2066.01 2039.5 2058 2039.5L1483 2039.5C1474.99 2039.5 1468.5 2033.01 1468.5 2025Z" stroke="#70AD47" stroke-width="4.58333" stroke-miterlimit="8" fill="#13B58B" fill-rule="evenodd" fill-opacity="0.8"/><text font-family="Cambria,Cambria_MSFontService,sans-serif" font-weight="400" font-size="55" transform="matrix(1 0 0 1 1624.25 2016)">Add &amp; Norm</text><path d="M1465.5 1831.33C1465.5 1823.14 1472.14 1816.5 1480.33 1816.5L2053.67 1816.5C2061.86 1816.5 2068.5 1823.14 2068.5 1831.33L2068.5 1890.67C2068.5 1898.86 2061.86 1905.5 2053.67 1905.5L1480.33 1905.5C1472.14 1905.5 1465.5 1898.86 1465.5 1890.67Z" stroke="#B03A3A" stroke-width="4.58333" stroke-miterlimit="8" fill="#B03A3A" fill-rule="evenodd" fill-opacity="0.8"/><text font-family="Cambria,Cambria_MSFontService,sans-serif" font-weight="400" font-size="55" transform="matrix(1 0 0 1 1517.37 1881)">Multi</text><text font-family="Cambria,Cambria_MSFontService,sans-serif" font-weight="400" font-size="55" transform="matrix(1 0 0 1 1641.12 1881)">-</text><text font-family="Cambria,Cambria_MSFontService,sans-serif" font-weight="400" font-size="55" transform="matrix(1 0 0 1 1659.45 1881)">Head Attention</text><path d="M1466.5 1694.33C1466.5 1685.59 1473.59 1678.5 1482.33 1678.5L2050.67 1678.5C2059.41 1678.5 2066.5 1685.59 2066.5 1694.33L2066.5 1757.67C2066.5 1766.41 2059.41 1773.5 2050.67 1773.5L1482.33 1773.5C1473.59 1773.5 1466.5 1766.41 1466.5 1757.67Z" stroke="#70AD47" stroke-width="4.58333" stroke-miterlimit="8" fill="#13B58B" fill-rule="evenodd" fill-opacity="0.8"/><text font-family="Cambria,Cambria_MSFontService,sans-serif" font-weight="400" font-size="55" transform="matrix(1 0 0 1 1619.89 1746)">Add &amp; Norm</text><path d="M0-2.86458 83.869-2.86458 83.869 376.785 81.0044 373.92 306.312 373.92 303.448 376.785 303.448 337.336 309.177 337.336 309.177 379.649 78.1398 379.649 78.1398 0 81.0044 2.86458 0 2.86458ZM292.562 341.92 306.312 314.42 320.062 341.92Z" transform="matrix(-1.83697e-16 -1 -1 1.83697e-16 1782.42 2302.31)"/><path d="M1767.14 2081.96 1767.14 2061.92 1772.86 2061.92 1772.86 2081.96ZM1756.25 2066.5 1770 2039 1783.75 2066.5Z"/><path d="M1767.04 1952.41 1765.03 1928.07 1770.74 1927.6 1772.75 1951.94ZM1754.56 1933.54 1766 1905 1781.96 1931.28Z"/><path d="M1765.32 1816.3 1765.1 1795.93 1767.39 1795.9 1767.61 1816.27ZM1752.54 1800.65 1766 1773 1780.04 1800.35Z"/><path d="M0-2.86458 24.5065-2.86458 24.5065 360.695 21.6419 357.83 90.4613 357.83 87.5967 360.695 87.5967 323.378 93.3259 323.378 93.3259 363.559 18.7773 363.559 18.7773 0 21.6419 2.86458 0 2.86458ZM76.7113 327.961 90.4613 300.461 104.211 327.961Z" transform="matrix(-1.83697e-16 -1 -1 1.83697e-16 1766.46 1816.46)"/><path d="M1465.5 1570.33C1465.5 1562.14 1472.14 1555.5 1480.33 1555.5L2050.67 1555.5C2058.86 1555.5 2065.5 1562.14 2065.5 1570.33L2065.5 1629.67C2065.5 1637.86 2058.86 1644.5 2050.67 1644.5L1480.33 1644.5C1472.14 1644.5 1465.5 1637.86 1465.5 1629.67Z" stroke="#13748B" stroke-width="4.58333" stroke-miterlimit="8" fill="#13748B" fill-rule="evenodd" fill-opacity="0.8"/><text font-family="Cambria,Cambria_MSFontService,sans-serif" font-weight="400" font-size="55" transform="matrix(1 0 0 1 1524.48 1620)">Dense</text><text font-family="Cambria,Cambria_MSFontService,sans-serif" font-weight="400" font-size="55" transform="matrix(1 0 0 1 1681.46 1620)">(8) + Dropout</text><path d="M1763.2 1678.22 1762.85 1667 1768.58 1666.82 1768.93 1678.04ZM1752.12 1671.92 1765 1644 1779.6 1671.06Z"/><path d="M1438.5 782.945C1438.5 763.922 1453.92 748.5 1472.95 748.5L2056.06 748.5C2075.08 748.5 2090.5 763.922 2090.5 782.945L2090.5 1382.05C2090.5 1401.08 2075.08 1416.5 2056.06 1416.5L1472.95 1416.5C1453.92 1416.5 1438.5 1401.08 1438.5 1382.05Z" stroke="#7F7F7F" stroke-width="4.58333" stroke-miterlimit="8" fill="#FFF2CC" fill-rule="evenodd"/><path d="M1465.5 1319C1465.5 1310.99 1471.99 1304.5 1480 1304.5L2056 1304.5C2064.01 1304.5 2070.5 1310.99 2070.5 1319L2070.5 1377C2070.5 1385.01 2064.01 1391.5 2056 1391.5L1480 1391.5C1471.99 1391.5 1465.5 1385.01 1465.5 1377Z" stroke="#B03A3A" stroke-width="4.58333" stroke-miterlimit="8" fill="#B03A3A" fill-rule="evenodd" fill-opacity="0.8"/><text font-family="Cambria,Cambria_MSFontService,sans-serif" font-weight="400" font-size="55" transform="matrix(1 0 0 1 1518.62 1368)">Multi</text><text font-family="Cambria,Cambria_MSFontService,sans-serif" font-weight="400" font-size="55" transform="matrix(1 0 0 1 1642.37 1368)">-</text><text font-family="Cambria,Cambria_MSFontService,sans-serif" font-weight="400" font-size="55" transform="matrix(1 0 0 1 1660.7 1368)">Head Attention</text><path d="M1465.5 1189C1465.5 1180.99 1471.99 1174.5 1480 1174.5L2056 1174.5C2064.01 1174.5 2070.5 1180.99 2070.5 1189L2070.5 1247C2070.5 1255.01 2064.01 1261.5 2056 1261.5L1480 1261.5C1471.99 1261.5 1465.5 1255.01 1465.5 1247Z" stroke="#70AD47" stroke-width="4.58333" stroke-miterlimit="8" fill="#13B58B" fill-rule="evenodd" fill-opacity="0.8"/><text font-family="Cambria,Cambria_MSFontService,sans-serif" font-weight="400" font-size="55" transform="matrix(1 0 0 1 1621.61 1238)">Add &amp; Norm</text><path d="M1462.5 1053.33C1462.5 1045.14 1469.14 1038.5 1477.33 1038.5L2050.67 1038.5C2058.86 1038.5 2065.5 1045.14 2065.5 1053.33L2065.5 1112.67C2065.5 1120.86 2058.86 1127.5 2050.67 1127.5L1477.33 1127.5C1469.14 1127.5 1462.5 1120.86 1462.5 1112.67Z" stroke="#B03A3A" stroke-width="4.58333" stroke-miterlimit="8" fill="#B03A3A" fill-rule="evenodd" fill-opacity="0.8"/><text font-family="Cambria,Cambria_MSFontService,sans-serif" font-weight="400" font-size="55" transform="matrix(1 0 0 1 1514.73 1103)">Multi</text><text font-family="Cambria,Cambria_MSFontService,sans-serif" font-weight="400" font-size="55" transform="matrix(1 0 0 1 1638.48 1103)">-</text><text font-family="Cambria,Cambria_MSFontService,sans-serif" font-weight="400" font-size="55" transform="matrix(1 0 0 1 1656.81 1103)">Head Attention</text><path d="M1463.5 916.334C1463.5 907.589 1470.59 900.5 1479.33 900.5L2047.67 900.5C2056.41 900.5 2063.5 907.589 2063.5 916.334L2063.5 979.667C2063.5 988.411 2056.41 995.5 2047.67 995.5L1479.33 995.5C1470.59 995.5 1463.5 988.411 1463.5 979.667Z" stroke="#70AD47" stroke-width="4.58333" stroke-miterlimit="8" fill="#13B58B" fill-rule="evenodd" fill-opacity="0.8"/><text font-family="Cambria,Cambria_MSFontService,sans-serif" font-weight="400" font-size="55" transform="matrix(1 0 0 1 1617.26 968)">Add &amp; Norm</text><path d="M2.86452-0.0190258 3.60552 111.546-2.12352 111.584-2.86452 0.0190258ZM14.4603 106.89 0.893209 134.481-13.0391 107.073Z" transform="matrix(1 0 0 -1 1767 1525.48)"/><path d="M0-2.86458 76.622-2.86458 76.622 360.301 73.7574 357.437 307.861 357.437 304.996 360.301 304.996 324.061 310.726 324.061 310.726 363.166 70.8928 363.166 70.8928 0 73.7574 2.86458 0 2.86458ZM294.111 328.645 307.861 301.145 321.611 328.645Z" transform="matrix(-1.83697e-16 -1 -1 1.83697e-16 1766.14 1525.86)"/><path d="M1764.14 1303.96 1764.14 1283.92 1769.86 1283.92 1769.86 1303.96ZM1753.25 1288.5 1767 1261 1780.75 1288.5Z"/><path d="M1765.04 1174.41 1763.03 1150.07 1768.74 1149.6 1770.75 1173.94ZM1752.56 1155.54 1764 1127 1779.96 1153.28Z"/><path d="M1762.32 1038.3 1762.1 1017.93 1764.39 1017.9 1764.61 1038.27ZM1749.54 1022.65 1763 995 1777.04 1022.35Z"/><path d="M0-2.86458 24.5065-2.86458 24.5065 360.695 21.6419 357.83 90.4613 357.83 87.5967 360.695 87.5967 323.378 93.3259 323.378 93.3259 363.559 18.7773 363.559 18.7773 0 21.6419 2.86458 0 2.86458ZM76.7113 327.961 90.4613 300.461 104.211 327.961Z" transform="matrix(-1.83697e-16 -1 -1 1.83697e-16 1763.46 1038.46)"/><path d="M1462.5 792.333C1462.5 784.141 1469.14 777.5 1477.33 777.5L2047.67 777.5C2055.86 777.5 2062.5 784.141 2062.5 792.333L2062.5 851.667C2062.5 859.859 2055.86 866.5 2047.67 866.5L1477.33 866.5C1469.14 866.5 1462.5 859.859 1462.5 851.667Z" stroke="#13748B" stroke-width="4.58333" stroke-miterlimit="8" fill="#13748B" fill-rule="evenodd" fill-opacity="0.8"/><text font-family="Cambria,Cambria_MSFontService,sans-serif" font-weight="400" font-size="55" transform="matrix(1 0 0 1 1521.84 842)">Dense</text><text font-family="Cambria,Cambria_MSFontService,sans-serif" font-weight="400" font-size="55" transform="matrix(1 0 0 1 1678.82 842)">(8) + Dropout</text><path d="M1760.2 900.222 1759.85 888.995 1765.58 888.816 1765.93 900.043ZM1749.12 893.916 1762 866 1776.6 893.057Z"/><path d="M0 2.86458-82.4985 2.86458-79.6339 0-79.6339 650.846-82.4985 647.982 273.095 647.982 273.095 822.898 267.366 822.898 267.366 650.846 270.231 653.711-85.363 653.711-85.363-2.86458 0-2.86458ZM283.981 818.315 270.231 845.815 256.481 818.315Z" transform="matrix(1.83697e-16 1 1 -1.83697e-16 620 948)"/><path d="M1435.5 528.334C1435.5 520.141 1442.14 513.5 1450.33 513.5L2078.67 513.5C2086.86 513.5 2093.5 520.141 2093.5 528.334L2093.5 587.666C2093.5 595.859 2086.86 602.5 2078.67 602.5L1450.33 602.5C1442.14 602.5 1435.5 595.859 1435.5 587.666Z" stroke="#13748B" stroke-width="4.58333" stroke-miterlimit="8" fill="#13748B" fill-rule="evenodd" fill-opacity="0.8"/><text font-family="Cambria,Cambria_MSFontService,sans-serif" font-weight="400" font-size="55" transform="matrix(1 0 0 1 1497.77 578)">Global </text><text font-family="Cambria,Cambria_MSFontService,sans-serif" font-weight="400" font-size="55" transform="matrix(1 0 0 1 1659.91 578)">average</text><text font-family="Cambria,Cambria_MSFontService,sans-serif" font-weight="400" font-size="55" transform="matrix(1 0 0 1 1853.9 578)">pooling</text><path d="M1438.5 396.334C1438.5 388.141 1445.14 381.5 1453.33 381.5L2078.67 381.5C2086.86 381.5 2093.5 388.141 2093.5 396.334L2093.5 455.667C2093.5 463.859 2086.86 470.5 2078.67 470.5L1453.33 470.5C1445.14 470.5 1438.5 463.859 1438.5 455.667Z" stroke="#13748B" stroke-width="4.58333" stroke-miterlimit="8" fill="#13748B" fill-rule="evenodd" fill-opacity="0.8"/><text font-family="Cambria,Cambria_MSFontService,sans-serif" font-weight="400" font-size="55" transform="matrix(1 0 0 1 1569.91 445)">Dense</text><text font-family="Cambria,Cambria_MSFontService,sans-serif" font-weight="400" font-size="55" transform="matrix(1 0 0 1 1726.89 445)">(16 </text><text font-family="Cambria,Cambria_MSFontService,sans-serif" font-weight="400" font-size="55" transform="matrix(1 0 0 1 1820.84 445)">units</text><text font-family="Cambria,Cambria_MSFontService,sans-serif" font-weight="400" font-size="55" transform="matrix(1 0 0 1 1939.44 445)">)</text><path d="M2.86455-0.0131703 3.51021 140.418-2.2189 140.444-2.86455 0.0131703ZM14.3744 135.784 0.751017 163.347-13.1253 135.911Z" transform="matrix(1 0 0 -1 1764 747.347)"/><path d="M2.86393-0.0609724 3.29607 20.2368-2.4318 20.3588-2.86393 0.0609724ZM14.0815 15.4228 0.919915 43.2093-13.4123 16.0082Z" transform="matrix(1 0 0 -1 1764 513.209)"/><path d="M1763.45 248.947 1763.26 212.932 1768.99 212.901 1769.18 248.917ZM1752.4 217.572 1766 190 1779.89 217.427Z"/><text font-family="Cambria,Cambria_MSFontService,sans-serif" font-weight="700" font-size="55" transform="matrix(-1.83697e-16 -1 1 -1.83697e-16 2150.92 2187)">Decoder Layer 1</text><text font-family="Cambria,Cambria_MSFontService,sans-serif" font-weight="700" font-size="55" transform="matrix(-1.83697e-16 -1 1 -1.83697e-16 2150.92 1417)">Decoder Layer 2</text><path d="M1782.67 2298.19 1780.55 2180.96 1786.28 2180.86 1788.4 2298.09ZM1769.75 2185.74 1783 2158 1797.24 2185.25Z"/><path d="M2.86372-0.0703024 4.67561 73.7358-1.05183 73.8764-2.86372 0.0703024ZM15.4453 68.8867 2.37431 96.7159-12.0465 69.5616Z" transform="matrix(1 0 0 -1 617 1044.72)"/><path d="M1439.5 264.334C1439.5 256.141 1446.14 249.5 1454.33 249.5L2078.67 249.5C2086.86 249.5 2093.5 256.141 2093.5 264.334L2093.5 323.666C2093.5 331.859 2086.86 338.5 2078.67 338.5L1454.33 338.5C1446.14 338.5 1439.5 331.859 1439.5 323.666Z" stroke="#13748B" stroke-width="4.58333" stroke-miterlimit="8" fill="#13748B" fill-rule="evenodd" fill-opacity="0.8"/><text font-family="Cambria,Cambria_MSFontService,sans-serif" font-weight="400" font-size="55" transform="matrix(1 0 0 1 1651.19 313)">Dense</text><text font-family="Cambria,Cambria_MSFontService,sans-serif" font-weight="400" font-size="55" transform="matrix(1 0 0 1 1808.17 313)">(1)</text><path d="M2.86411-0.0522296 3.23157 20.0984-2.49664 20.2029-2.86411 0.0522296ZM14.0316 15.3174 0.785302 43.0635-13.4638 15.8188Z" transform="matrix(1 0 0 -1 1765 381.063)"/><rect x="2487.5" y="2312.5" width="90" height="102" stroke="#000000" stroke-width="6.875" stroke-miterlimit="8" fill="none"/><rect x="2577.5" y="2312.5" width="90" height="102" stroke="#000000" stroke-width="6.875" stroke-miterlimit="8" fill="none"/><rect x="2667.5" y="2312.5" width="89" height="102" stroke="#000000" stroke-width="6.875" stroke-miterlimit="8" fill="none"/><rect x="2756.5" y="2312.5" width="90" height="102" stroke="#000000" stroke-width="6.875" stroke-miterlimit="8" fill="none"/><rect x="2846.5" y="2312.5" width="90" height="102" stroke="#000000" stroke-width="6.875" stroke-miterlimit="8" fill="none"/><rect x="2936.5" y="2312.5" width="88.9998" height="102" stroke="#000000" stroke-width="6.875" stroke-miterlimit="8" fill="none"/><rect x="3025.5" y="2312.5" width="90" height="102" stroke="#000000" stroke-width="6.875" stroke-miterlimit="8" fill="none"/><rect x="3115.5" y="2312.5" width="90" height="102" stroke="#000000" stroke-width="6.875" stroke-miterlimit="8" fill="none"/><text font-family="Cambria,Cambria_MSFontService,sans-serif" font-weight="400" font-size="73" transform="matrix(1 0 0 1 2606.81 2501)">Input sequence</text><path d="M2428.5 1900.83C2428.5 1888.5 2438.5 1878.5 2450.83 1878.5L3246.17 1878.5C3258.5 1878.5 3268.5 1888.5 3268.5 1900.83L3268.5 1990.17C3268.5 2002.5 3258.5 2012.5 3246.17 2012.5L2450.83 2012.5C2438.5 2012.5 2428.5 2002.5 2428.5 1990.17Z" stroke="#13748B" stroke-width="4.58333" stroke-miterlimit="8" fill="#13748B" fill-rule="evenodd" fill-opacity="0.8"/><text font-family="Cambria,Cambria_MSFontService,sans-serif" font-weight="400" font-size="73" transform="matrix(1 0 0 1 2471.62 1972)">Bidirectional</text><text font-family="Cambria,Cambria_MSFontService,sans-serif" font-weight="400" font-size="73" transform="matrix(1 0 0 1 2892.21 1972)">LSTM (20)</text><path d="M2428.5 1446.67C2428.5 1434.42 2438.42 1424.5 2450.67 1424.5L3246.33 1424.5C3258.58 1424.5 3268.5 1434.42 3268.5 1446.67L3268.5 1535.33C3268.5 1547.57 3258.58 1557.5 3246.33 1557.5L2450.67 1557.5C2438.42 1557.5 2428.5 1547.57 2428.5 1535.33Z" stroke="#FFC000" stroke-width="4.58333" stroke-miterlimit="8" fill="#FFE9BB" fill-rule="evenodd"/><text font-family="Cambria,Cambria_MSFontService,sans-serif" font-weight="400" font-size="73" transform="matrix(1 0 0 1 2623.92 1518)">Dense</text><text font-family="Cambria,Cambria_MSFontService,sans-serif" font-weight="400" font-size="73" transform="matrix(1 0 0 1 2831.89 1518)">(1 </text><text font-family="Cambria,Cambria_MSFontService,sans-serif" font-weight="400" font-size="73" transform="matrix(1 0 0 1 2916.68 1518)">unit</text><text font-family="Cambria,Cambria_MSFontService,sans-serif" font-weight="400" font-size="73" transform="matrix(1 0 0 1 3043.3 1518)">)</text><rect x="2801.5" y="1252.5" width="90" height="102" stroke="#000000" stroke-width="6.875" stroke-miterlimit="8" fill="none"/><text font-family="Cambria,Cambria_MSFontService,sans-serif" font-weight="400" font-size="83" transform="matrix(1 0 0 1 1642.84 49)">Output</text><path d="M3.4375-1.36649e-05 3.43777 67.8683-3.43723 67.8683-3.4375 1.36649e-05ZM13.7503 63.285 0.000360892 90.785-13.7497 63.2851Z" transform="matrix(1 0 0 -1 2846.5 2312.29)"/><path d="M3.4375-1.65945e-05 3.43775 51.8411-3.43725 51.8411-3.4375 1.65945e-05ZM13.7502 47.2577 0.000360892 74.7578-13.7498 47.2578Z" transform="matrix(1 0 0 -1 2848.5 2087.26)"/><path d="M3.43729-0.0376376 3.93775 45.6675-2.93683 45.7428-3.43729 0.0376376ZM14.1995 40.9715 0.751378 68.6204-13.2989 41.2726Z" transform="matrix(1 0 0 -1 2848.5 1879.12)"/><path d="M2844.71 1424.41 2843.6 1377.49 2850.48 1377.33 2851.58 1424.25ZM2833.4 1382.32 2846.5 1354.5 2860.89 1381.67Z"/><rect x="1719.5" y="82.5" width="90.0001" height="102" stroke="#000000" stroke-width="6.875" stroke-miterlimit="8" fill="none"/><rect x="256.5" y="2312.5" width="90.0001" height="102" stroke="#000000" stroke-width="6.875" stroke-miterlimit="8" fill="none"/><rect x="346.5" y="2312.5" width="90.0001" height="102" stroke="#000000" stroke-width="6.875" stroke-miterlimit="8" fill="none"/><rect x="436.5" y="2312.5" width="89.0001" height="102" stroke="#000000" stroke-width="6.875" stroke-miterlimit="8" fill="none"/><rect x="525.5" y="2312.5" width="90.0001" height="102" stroke="#000000" stroke-width="6.875" stroke-miterlimit="8" fill="none"/><rect x="615.5" y="2312.5" width="89.9997" height="102" stroke="#000000" stroke-width="6.875" stroke-miterlimit="8" fill="none"/><rect x="705.5" y="2312.5" width="89" height="102" stroke="#000000" stroke-width="6.875" stroke-miterlimit="8" fill="none"/><rect x="794.5" y="2312.5" width="90.0001" height="102" stroke="#000000" stroke-width="6.875" stroke-miterlimit="8" fill="none"/><rect x="884.5" y="2312.5" width="90.0001" height="102" stroke="#000000" stroke-width="6.875" stroke-miterlimit="8" fill="none"/><text font-family="Cambria,Cambria_MSFontService,sans-serif" font-weight="400" font-size="73" transform="matrix(1 0 0 1 391.276 2501)">Encoder Input </text><text font-family="Cambria,Cambria_MSFontService,sans-serif" font-weight="400" font-size="73" transform="matrix(1 0 0 1 469.193 2589)">sequence</text><rect x="1426.5" y="2310.5" width="90.0001" height="102" stroke="#000000" stroke-width="6.875" stroke-miterlimit="8" fill="none"/><rect x="1516.5" y="2310.5" width="89" height="102" stroke="#000000" stroke-width="6.875" stroke-miterlimit="8" fill="none"/><rect x="1605.5" y="2310.5" width="89.9998" height="102" stroke="#000000" stroke-width="6.875" stroke-miterlimit="8" fill="none"/><rect x="1695.5" y="2310.5" width="90.0001" height="102" stroke="#000000" stroke-width="6.875" stroke-miterlimit="8" fill="none"/><rect x="1785.5" y="2310.5" width="89" height="102" stroke="#000000" stroke-width="6.875" stroke-miterlimit="8" fill="none"/><rect x="1874.5" y="2310.5" width="90.0001" height="102" stroke="#000000" stroke-width="6.875" stroke-miterlimit="8" fill="none"/><rect x="1964.5" y="2310.5" width="89" height="102" stroke="#000000" stroke-width="6.875" stroke-miterlimit="8" fill="none"/><rect x="2053.5" y="2310.5" width="90" height="102" stroke="#000000" stroke-width="6.875" stroke-miterlimit="8" fill="none"/><text font-family="Cambria,Cambria_MSFontService,sans-serif" font-weight="400" font-size="73" transform="matrix(1 0 0 1 1558.21 2500)">Decoder Input </text><text font-family="Cambria,Cambria_MSFontService,sans-serif" font-weight="400" font-size="73" transform="matrix(1 0 0 1 1636.7 2588)">sequence</text><path d="M2428.5 1656.33C2428.5 1639.31 2442.3 1625.5 2459.33 1625.5L3237.67 1625.5C3254.69 1625.5 3268.5 1639.31 3268.5 1656.33L3268.5 1779.67C3268.5 1796.7 3254.69 1810.5 3237.67 1810.5L2459.33 1810.5C2442.3 1810.5 2428.5 1796.7 2428.5 1779.67Z" stroke="#70AD47" stroke-width="4.58333" stroke-miterlimit="8" fill="#13B58B" fill-rule="evenodd" fill-opacity="0.8"/><text font-family="Cambria,Cambria_MSFontService,sans-serif" font-weight="400" font-size="73" transform="matrix(1 0 0 1 2492.97 1701)">Global </text><text font-family="Cambria,Cambria_MSFontService,sans-serif" font-weight="400" font-size="73" transform="matrix(1 0 0 1 2708.96 1701)">average</text><text font-family="Cambria,Cambria_MSFontService,sans-serif" font-weight="400" font-size="73" transform="matrix(1 0 0 1 2967.78 1701)">pooling</text><text font-family="Cambria,Cambria_MSFontService,sans-serif" font-weight="400" font-size="73" transform="matrix(1 0 0 1 2689.09 1789)">+ Dropout</text><text font-family="Cambria,Cambria_MSFontService,sans-serif" font-weight="400" font-size="83" transform="matrix(1 0 0 1 2825.62 1216)">Output</text><path d="M2845.81 1625.63 2845.32 1580.45 2852.19 1580.38 2852.69 1625.55ZM2835.05 1585.15 2848.5 1557.5 2862.55 1584.85Z"/><path d="M2428.5 2108.83C2428.5 2096.5 2438.5 2086.5 2450.83 2086.5L3246.17 2086.5C3258.5 2086.5 3268.5 2096.5 3268.5 2108.83L3268.5 2198.17C3268.5 2210.5 3258.5 2220.5 3246.17 2220.5L2450.83 2220.5C2438.5 2220.5 2428.5 2210.5 2428.5 2198.17Z" stroke="#13748B" stroke-width="4.58333" stroke-miterlimit="8" fill="#13748B" fill-rule="evenodd" fill-opacity="0.8"/><text font-family="Cambria,Cambria_MSFontService,sans-serif" font-weight="400" font-size="73" transform="matrix(1 0 0 1 2471.62 2180)">Bidirectional</text><text font-family="Cambria,Cambria_MSFontService,sans-serif" font-weight="400" font-size="73" transform="matrix(1 0 0 1 2892.21 2180)">LSTM (20)</text><rect x="3516.5" y="2299.5" width="89" height="102" stroke="#000000" stroke-width="6.875" stroke-miterlimit="8" fill="none"/><rect x="3605.5" y="2299.5" width="90" height="102" stroke="#000000" stroke-width="6.875" stroke-miterlimit="8" fill="none"/><rect x="3695.5" y="2299.5" width="88.9998" height="102" stroke="#000000" stroke-width="6.875" stroke-miterlimit="8" fill="none"/><rect x="3784.5" y="2299.5" width="90" height="102" stroke="#000000" stroke-width="6.875" stroke-miterlimit="8" fill="none"/><rect x="3874.5" y="2299.5" width="90" height="102" stroke="#000000" stroke-width="6.875" stroke-miterlimit="8" fill="none"/><rect x="3964.5" y="2299.5" width="89" height="102" stroke="#000000" stroke-width="6.875" stroke-miterlimit="8" fill="none"/><rect x="4053.5" y="2299.5" width="90" height="102" stroke="#000000" stroke-width="6.875" stroke-miterlimit="8" fill="none"/><rect x="4143.5" y="2299.5" width="90" height="102" stroke="#000000" stroke-width="6.875" stroke-miterlimit="8" fill="none"/><text font-family="Cambria,Cambria_MSFontService,sans-serif" font-weight="400" font-size="73" transform="matrix(1 0 0 1 3634.91 2488)">Input sequence</text><path d="M3436.5 931.667C3436.5 919.424 3446.42 909.5 3458.67 909.5L4330.33 909.5C4342.58 909.5 4352.5 919.424 4352.5 931.667L4352.5 1020.33C4352.5 1032.58 4342.58 1042.5 4330.33 1042.5L3458.67 1042.5C3446.42 1042.5 3436.5 1032.58 3436.5 1020.33Z" stroke="#FFC000" stroke-width="4.58333" stroke-miterlimit="8" fill="#FFE9BB" fill-rule="evenodd"/><text font-family="Cambria,Cambria_MSFontService,sans-serif" font-weight="400" font-size="73" transform="matrix(1 0 0 1 3670.27 1002)">Dense</text><text font-family="Cambria,Cambria_MSFontService,sans-serif" font-weight="400" font-size="73" transform="matrix(1 0 0 1 3878.24 1002)">(1 </text><text font-family="Cambria,Cambria_MSFontService,sans-serif" font-weight="400" font-size="73" transform="matrix(1 0 0 1 3963.03 1002)">unit</text><text font-family="Cambria,Cambria_MSFontService,sans-serif" font-weight="400" font-size="73" transform="matrix(1 0 0 1 4089.64 1002)">)</text><rect x="3847.5" y="737.5" width="90" height="102" stroke="#000000" stroke-width="6.875" stroke-miterlimit="8" fill="none"/><path d="M3.4375-1.36649e-05 3.43777 67.8683-3.43723 67.8683-3.4375 1.36649e-05ZM13.7503 63.285 0.000360892 90.785-13.7497 63.2851Z" transform="matrix(1 0 0 -1 3874.5 2299.29)"/><path d="M3890.9 909.424 3889.67 862.499 3896.54 862.318 3897.77 909.244ZM3879.48 867.352 3892.5 839.5 3906.97 866.629Z"/><path d="M3434.5 1300.83C3434.5 1288.5 3444.5 1278.5 3456.83 1278.5L4330.17 1278.5C4342.5 1278.5 4352.5 1288.5 4352.5 1300.83L4352.5 1390.17C4352.5 1402.5 4342.5 1412.5 4330.17 1412.5L3456.83 1412.5C3444.5 1412.5 3434.5 1402.5 3434.5 1390.17Z" stroke="#70AD47" stroke-width="4.58333" stroke-miterlimit="8" fill="#13B58B" fill-rule="evenodd" fill-opacity="0.8"/><text font-family="Cambria,Cambria_MSFontService,sans-serif" font-weight="400" font-size="73" transform="matrix(1 0 0 1 3762.19 1372)">Dropout</text><path d="M3434.5 2108.67C3434.5 2096.42 3444.42 2086.5 3456.67 2086.5L4327.33 2086.5C4339.58 2086.5 4349.5 2096.42 4349.5 2108.67L4349.5 2197.33C4349.5 2209.58 4339.58 2219.5 4327.33 2219.5L3456.67 2219.5C3444.42 2219.5 3434.5 2209.58 3434.5 2197.33Z" stroke="#B03A3A" stroke-width="4.58333" stroke-miterlimit="8" fill="#B03A3A" fill-rule="evenodd" fill-opacity="0.8"/><text font-family="Cambria,Cambria_MSFontService,sans-serif" font-weight="400" font-size="73" transform="matrix(1 0 0 1 3484.14 2180)">Conv1D (</text><text font-family="Cambria,Cambria_MSFontService,sans-serif" font-weight="400" font-size="73" transform="matrix(1 0 0 1 3774.31 2180)">filter</text><text font-family="Cambria,Cambria_MSFontService,sans-serif" font-weight="400" font-size="73" transform="matrix(1 0 0 1 3943.25 2180)">8, </text><text font-family="Cambria,Cambria_MSFontService,sans-serif" font-weight="400" font-size="73" transform="matrix(1 0 0 1 4014.87 2180)">kernel</text><text font-family="Cambria,Cambria_MSFontService,sans-serif" font-weight="400" font-size="73" transform="matrix(1 0 0 1 4230.17 2180)">1)</text><text font-family="Cambria,Cambria_MSFontService,sans-serif" font-weight="400" font-size="83" transform="matrix(1 0 0 1 3795.17 685)">Output</text><path d="M3434.5 1900.83C3434.5 1888.5 3444.5 1878.5 3456.83 1878.5L4328.17 1878.5C4340.5 1878.5 4350.5 1888.5 4350.5 1900.83L4350.5 1990.17C4350.5 2002.5 4340.5 2012.5 4328.17 2012.5L3456.83 2012.5C3444.5 2012.5 3434.5 2002.5 3434.5 1990.17Z" stroke="#B03A3A" stroke-width="4.58333" stroke-miterlimit="8" fill="#B03A3A" fill-rule="evenodd" fill-opacity="0.8"/><text font-family="Cambria,Cambria_MSFontService,sans-serif" font-weight="400" font-size="73" transform="matrix(1 0 0 1 3484.77 1972)">Conv1D (</text><text font-family="Cambria,Cambria_MSFontService,sans-serif" font-weight="400" font-size="73" transform="matrix(1 0 0 1 3774.94 1972)">filter</text><text font-family="Cambria,Cambria_MSFontService,sans-serif" font-weight="400" font-size="73" transform="matrix(1 0 0 1 3943.88 1972)">8, </text><text font-family="Cambria,Cambria_MSFontService,sans-serif" font-weight="400" font-size="73" transform="matrix(1 0 0 1 4015.49 1972)">kernel</text><text font-family="Cambria,Cambria_MSFontService,sans-serif" font-weight="400" font-size="73" transform="matrix(1 0 0 1 4230.8 1972)">1)</text><path d="M3434.5 1699.67C3434.5 1687.42 3444.42 1677.5 3456.67 1677.5L4328.33 1677.5C4340.58 1677.5 4350.5 1687.42 4350.5 1699.67L4350.5 1788.33C4350.5 1800.58 4340.58 1810.5 4328.33 1810.5L3456.67 1810.5C3444.42 1810.5 3434.5 1800.58 3434.5 1788.33Z" stroke="#B03A3A" stroke-width="4.58333" stroke-miterlimit="8" fill="#B03A3A" fill-rule="evenodd" fill-opacity="0.8"/><text font-family="Cambria,Cambria_MSFontService,sans-serif" font-weight="400" font-size="73" transform="matrix(1 0 0 1 3484.81 1770)">Conv1D (</text><text font-family="Cambria,Cambria_MSFontService,sans-serif" font-weight="400" font-size="73" transform="matrix(1 0 0 1 3774.98 1770)">filter</text><text font-family="Cambria,Cambria_MSFontService,sans-serif" font-weight="400" font-size="73" transform="matrix(1 0 0 1 3943.92 1770)">8, </text><text font-family="Cambria,Cambria_MSFontService,sans-serif" font-weight="400" font-size="73" transform="matrix(1 0 0 1 4015.54 1770)">kernel</text><text font-family="Cambria,Cambria_MSFontService,sans-serif" font-weight="400" font-size="73" transform="matrix(1 0 0 1 4230.84 1770)">1)</text><path d="M3434.5 1499.67C3434.5 1487.42 3444.42 1477.5 3456.67 1477.5L4328.33 1477.5C4340.58 1477.5 4350.5 1487.42 4350.5 1499.67L4350.5 1588.33C4350.5 1600.58 4340.58 1610.5 4328.33 1610.5L3456.67 1610.5C3444.42 1610.5 3434.5 1600.58 3434.5 1588.33Z" stroke="#B03A3A" stroke-width="4.58333" stroke-miterlimit="8" fill="#B03A3A" fill-rule="evenodd" fill-opacity="0.8"/><text font-family="Cambria,Cambria_MSFontService,sans-serif" font-weight="400" font-size="73" transform="matrix(1 0 0 1 3484.77 1571)">Conv1D (</text><text font-family="Cambria,Cambria_MSFontService,sans-serif" font-weight="400" font-size="73" transform="matrix(1 0 0 1 3774.94 1571)">filter</text><text font-family="Cambria,Cambria_MSFontService,sans-serif" font-weight="400" font-size="73" transform="matrix(1 0 0 1 3943.88 1571)">8, </text><text font-family="Cambria,Cambria_MSFontService,sans-serif" font-weight="400" font-size="73" transform="matrix(1 0 0 1 4015.49 1571)">kernel</text><text font-family="Cambria,Cambria_MSFontService,sans-serif" font-weight="400" font-size="73" transform="matrix(1 0 0 1 4230.8 1571)">1)</text><path d="M3437.5 1116.67C3437.5 1104.42 3447.42 1094.5 3459.67 1094.5L4330.33 1094.5C4342.58 1094.5 4352.5 1104.42 4352.5 1116.67L4352.5 1205.33C4352.5 1217.58 4342.58 1227.5 4330.33 1227.5L3459.67 1227.5C3447.42 1227.5 3437.5 1217.58 3437.5 1205.33Z" stroke="#FFC000" stroke-width="4.58333" stroke-miterlimit="8" fill="#FFE9BB" fill-rule="evenodd"/><text font-family="Cambria,Cambria_MSFontService,sans-serif" font-weight="400" font-size="73" transform="matrix(1 0 0 1 3650.6 1188)">Dense</text><text font-family="Cambria,Cambria_MSFontService,sans-serif" font-weight="400" font-size="73" transform="matrix(1 0 0 1 3858.57 1188)">(16 </text><text font-family="Cambria,Cambria_MSFontService,sans-serif" font-weight="400" font-size="73" transform="matrix(1 0 0 1 3984.04 1188)">unit</text><text font-family="Cambria,Cambria_MSFontService,sans-serif" font-weight="400" font-size="73" transform="matrix(1 0 0 1 4110.65 1188)">)</text><path d="M3891.73 1094.51 3891.36 1065.46 3898.23 1065.37 3898.61 1094.42ZM3881.1 1070.17 3894.5 1042.5 3908.6 1069.82Z"/><path d="M3.43598-0.102355 4.28091 28.2613-2.59105 28.466-3.43598 0.102355ZM14.4524 23.373 1.5273 51.2702-13.0354 24.1918Z" transform="matrix(1 0 0 -1 3893.5 1278.77)"/><path d="M3.43738-0.0289477 3.8709 51.4496-3.00385 51.5075-3.43738 0.0289477ZM14.1444 46.7795 0.626509 74.3944-13.3546 47.0111Z" transform="matrix(1 0 0 -1 3892.5 2086.89)"/><path d="M3.4375-0.00212223 3.46558 45.4746-3.40942 45.4789-3.4375 0.00212223ZM13.7752 40.885 0.0422244 68.3934-13.7248 40.9019Z" transform="matrix(1 0 0 -1 3892.5 1878.89)"/><path d="M3889.11 1676.81 3889.08 1633.42 3895.95 1633.41 3895.98 1676.81ZM3878.77 1638.01 3892.5 1610.5 3906.27 1637.99Z"/><path d="M3.43711-0.051513 4.07171 42.291-2.80252 42.394-3.43711 0.051513ZM14.3144 37.5536 0.978018 65.2566-13.1825 37.9657Z" transform="matrix(1 0 0 -1 3892.5 1477.76)"/><text font-family="Cambria,Cambria_MSFontService,sans-serif" font-weight="700" font-size="92" transform="matrix(1 0 0 1 930.901 2720)">Transformer</text><text font-family="Cambria,Cambria_MSFontService,sans-serif" font-weight="700" font-size="92" transform="matrix(1 0 0 1 2433.97 2720)">Bidircetional</text><text font-family="Cambria,Cambria_MSFontService,sans-serif" font-weight="700" font-size="92" transform="matrix(1 0 0 1 3004.96 2720)">LSTM</text><text font-family="Cambria,Cambria_MSFontService,sans-serif" font-weight="700" font-size="92" transform="matrix(1 0 0 1 3806.42 2720)">CNN</text></g></svg>