<svg width="1609" height="950" xmlns="http://www.w3.org/2000/svg" xmlns:xlink="http://www.w3.org/1999/xlink" xml:space="preserve" overflow="hidden"><g transform="translate(-925 -266)"><rect x="1758.5" y="269.5" width="773" height="283" stroke="#000000" stroke-width="4.58333" stroke-linejoin="round" stroke-miterlimit="10" fill="#13748B" fill-opacity="0.4"/><text font-family="Times New Roman,Times New Roman_MSFontService,sans-serif" font-weight="400" font-size="41" transform="matrix(1 0 0 1 1791.29 325)">II. Methodology </text><text font-family="Times New Roman,Times New Roman_MSFontService,sans-serif" font-weight="400" font-size="41" transform="matrix(1 0 0 1 2072.02 325)">–</text><text font-family="Times New Roman,Times New Roman_MSFontService,sans-serif" font-weight="400" font-size="41" transform="matrix(1 0 0 1 2102.96 325)">Model training</text><rect x="927.5" y="971.5" width="1604" height="83.0002" stroke="#000000" stroke-width="4.58333" stroke-linejoin="round" stroke-miterlimit="10" fill="#A0A7BC" fill-opacity="0.6"/><text font-family="Times New Roman,Times New Roman_MSFontService,sans-serif" font-weight="400" font-size="41" transform="matrix(1 0 0 1 959.501 1027)">V. Discussion and limitations</text><path d="M1282.08 901.5 1282.08 948.767 1272.92 948.767 1272.92 901.5ZM1291.25 944.184 1277.5 971.684 1263.75 944.184Z"/><rect x="927.5" y="268.5" width="772" height="283" stroke="#000000" stroke-width="4.58333" stroke-linejoin="round" stroke-miterlimit="10" fill="#13748B" fill-opacity="0.4"/><text font-family="Times New Roman,Times New Roman_MSFontService,sans-serif" font-weight="400" font-size="41" transform="matrix(1 0 0 1 959.501 324)">II. Methodology </text><text font-family="Times New Roman,Times New Roman_MSFontService,sans-serif" font-weight="400" font-size="41" transform="matrix(1 0 0 1 1240.23 324)">-</text><text font-family="Times New Roman,Times New Roman_MSFontService,sans-serif" font-weight="400" font-size="41" transform="matrix(1 0 0 1 1264.29 324)">Model building</text><rect x="1793.5" y="343.5" width="703" height="83.0002" stroke="#000000" stroke-width="4.58333" stroke-linejoin="round" stroke-miterlimit="10" fill="#FFFFFF"/><text font-family="Times New Roman,Times New Roman_MSFontService,sans-serif" font-weight="400" font-size="41" transform="matrix(1 0 0 1 1826.32 399)">Local  learning</text><rect x="1795.5" y="442.5" width="700" height="83.0002" stroke="#000000" stroke-width="4.58333" stroke-linejoin="round" stroke-miterlimit="10" fill="#FFFFFF"/><text font-family="Times New Roman,Times New Roman_MSFontService,sans-serif" font-weight="400" font-size="41" transform="matrix(1 0 0 1 1827.87 499)">Federated learning</text><rect x="956.5" y="342.5" width="703" height="83.0002" stroke="#000000" stroke-width="4.58333" stroke-linejoin="round" stroke-miterlimit="10" fill="#FFFFFF"/><text font-family="Times New Roman,Times New Roman_MSFontService,sans-serif" font-weight="400" font-size="41" transform="matrix(1 0 0 1 989.39 398)">Soft</text><text font-family="Times New Roman,Times New Roman_MSFontService,sans-serif" font-weight="400" font-size="41" transform="matrix(1 0 0 1 1058.14 398)">-</text><text font-family="Times New Roman,Times New Roman_MSFontService,sans-serif" font-weight="400" font-size="41" transform="matrix(1 0 0 1 1082.2 398)">and top</text><text font-family="Times New Roman,Times New Roman_MSFontService,sans-serif" font-weight="400" font-size="41" transform="matrix(1 0 0 1 1204.81 398)">-</text><text font-family="Times New Roman,Times New Roman_MSFontService,sans-serif" font-weight="400" font-size="41" transform="matrix(1 0 0 1 1218.56 398)">k gated MoE models</text><rect x="959.5" y="442.5" width="700" height="83.0002" stroke="#000000" stroke-width="4.58333" stroke-linejoin="round" stroke-miterlimit="10" fill="#FFFFFF"/><text font-family="Times New Roman,Times New Roman_MSFontService,sans-serif" font-weight="400" font-size="41" transform="matrix(1 0 0 1 991.688 499)">Benchmark models</text><rect x="927.5" y="617.5" width="772" height="284" stroke="#000000" stroke-width="4.58333" stroke-linejoin="round" stroke-miterlimit="10" fill="#FEC756" fill-opacity="0.4"/><text font-family="Times New Roman,Times New Roman_MSFontService,sans-serif" font-weight="400" font-size="41" transform="matrix(1 0 0 1 959.501 674)">IV. Results</text><path d="M1699.58 404.917 1735.87 405.582 1735.7 414.747 1699.42 414.082ZM1731.45 396.333 1758.7 410.584 1730.95 423.828Z"/><path d="M1758.61 765.166 1722.33 764.502 1722.5 755.337 1758.78 756.001ZM1726.74 773.751 1699.5 759.5 1727.25 746.256Z"/><rect x="961.5" y="692.5" width="702" height="82.9998" stroke="#000000" stroke-width="4.58333" stroke-linejoin="round" stroke-miterlimit="10" fill="#FFFFFF"/><text font-family="Times New Roman,Times New Roman_MSFontService,sans-serif" font-weight="400" font-size="41" transform="matrix(1 0 0 1 993.764 748)">Forecasting accuracy</text><rect x="962.5" y="791.5" width="701" height="82.9998" stroke="#000000" stroke-width="4.58333" stroke-linejoin="round" stroke-miterlimit="10" fill="#FFFFFF"/><text font-family="Times New Roman,Times New Roman_MSFontService,sans-serif" font-weight="400" font-size="41" transform="matrix(1 0 0 1 995.316 847)">Training time</text><rect x="927.5" y="1124.5" width="1604" height="83.0002" stroke="#000000" stroke-width="4.58333" stroke-linejoin="round" stroke-miterlimit="10" fill="#DA3933" fill-opacity="0.4"/><text font-family="Times New Roman,Times New Roman_MSFontService,sans-serif" font-weight="400" font-size="41" transform="matrix(1 0 0 1 959.501 1181)">VI. Conclusion and future work</text><path d="M1282.08 1054.5 1282.08 1101.62 1272.92 1101.62 1272.92 1054.5ZM1291.25 1097.03 1277.5 1124.53 1263.75 1097.03Z"/><rect x="1758.5" y="618.5" width="773" height="284" stroke="#000000" stroke-width="4.58333" stroke-linejoin="round" stroke-miterlimit="10" fill="#FEC756" fill-opacity="0.4"/><text font-family="Times New Roman,Times New Roman_MSFontService,sans-serif" font-weight="400" font-size="41" transform="matrix(1 0 0 1 1791.29 675)">III. </text><text font-family="Times New Roman,Times New Roman_MSFontService,sans-serif" font-weight="400" font-size="41" transform="matrix(1 0 0 1 1853.17 675)">Experimental setup</text><rect x="1793.5" y="692.5" width="701" height="82.9998" stroke="#000000" stroke-width="4.58333" stroke-linejoin="round" stroke-miterlimit="10" fill="#FFFFFF"/><text font-family="Times New Roman,Times New Roman_MSFontService,sans-serif" font-weight="400" font-size="41" transform="matrix(1 0 0 1 1825.55 748)">Data analysis + </text><text font-family="Times New Roman,Times New Roman_MSFontService,sans-serif" font-weight="400" font-size="41" transform="matrix(1 0 0 1 2090.81 748)">metrics and hardware</text><rect x="1794.5" y="792.5" width="700" height="83.0002" stroke="#000000" stroke-width="4.58333" stroke-linejoin="round" stroke-miterlimit="10" fill="#FFFFFF"/><text font-family="Times New Roman,Times New Roman_MSFontService,sans-serif" font-weight="400" font-size="41" transform="matrix(1 0 0 1 1827.11 848)">Model + training architecture</text><path d="M4.58333-4.98722e-05 4.58381 43.4164-4.58286 43.4165-4.58333 4.98722e-05ZM13.7504 38.833 0.000721785 66.3331-13.7496 38.8333Z" transform="matrix(-1 0 0 1 2145.5 552.5)"/></g></svg>