<?xml version="1.0" encoding="utf-8" standalone="no"?>
<!DOCTYPE svg PUBLIC "-//W3C//DTD SVG 1.1//EN"
  "http://www.w3.org/Graphics/SVG/1.1/DTD/svg11.dtd">
<svg xmlns:xlink="http://www.w3.org/1999/xlink" width="618.276197pt" height="216.883125pt" viewBox="0 0 618.276197 216.883125" xmlns="http://www.w3.org/2000/svg" version="1.1">
 <metadata>
  <rdf:RDF xmlns:dc="http://purl.org/dc/elements/1.1/" xmlns:cc="http://creativecommons.org/ns#" xmlns:rdf="http://www.w3.org/1999/02/22-rdf-syntax-ns#">
   <cc:Work>
    <dc:type rdf:resource="http://purl.org/dc/dcmitype/StillImage"/>
    <dc:date>2023-09-29T17:07:58.009991</dc:date>
    <dc:format>image/svg+xml</dc:format>
    <dc:creator>
     <cc:Agent>
      <dc:title>Matplotlib v3.7.2, https://matplotlib.org/</dc:title>
     </cc:Agent>
    </dc:creator>
   </cc:Work>
  </rdf:RDF>
 </metadata>
 <defs>
  <style type="text/css">*{stroke-linejoin: round; stroke-linecap: butt}</style>
 </defs>
 <g id="figure_1">
  <g id="patch_1">
   <path d="M 0 216.883125 
L 618.276197 216.883125 
L 618.276197 0 
L 0 0 
z
" style="fill: #ffffff"/>
  </g>
  <g id="axes_1">
   <g id="patch_2">
    <path d="M 49.588125 173.52 
L 607.588125 173.52 
L 607.588125 7.2 
L 49.588125 7.2 
z
" style="fill: #ffffff"/>
   </g>
   <g id="matplotlib.axis_1">
    <g id="xtick_1">
     <g id="line2d_1">
      <defs>
       <path id="m5f2a778717" d="M 0 0 
L 0 3.5 
" style="stroke: #000000; stroke-width: 0.8"/>
      </defs>
      <g>
       <use xlink:href="#m5f2a778717" x="74.951761" y="173.52" style="stroke: #000000; stroke-width: 0.8"/>
      </g>
     </g>
     <g id="text_1">
      <!-- 0 -->
      <g transform="translate(71.770511 188.118438) scale(0.1 -0.1)">
       <defs>
        <path id="DejaVuSans-30" d="M 2034 4250 
Q 1547 4250 1301 3770 
Q 1056 3291 1056 2328 
Q 1056 1369 1301 889 
Q 1547 409 2034 409 
Q 2525 409 2770 889 
Q 3016 1369 3016 2328 
Q 3016 3291 2770 3770 
Q 2525 4250 2034 4250 
z
M 2034 4750 
Q 2819 4750 3233 4129 
Q 3647 3509 3647 2328 
Q 3647 1150 3233 529 
Q 2819 -91 2034 -91 
Q 1250 -91 836 529 
Q 422 1150 422 2328 
Q 422 3509 836 4129 
Q 1250 4750 2034 4750 
z
" transform="scale(0.015625)"/>
       </defs>
       <use xlink:href="#DejaVuSans-30"/>
      </g>
     </g>
    </g>
    <g id="xtick_2">
     <g id="line2d_2">
      <g>
       <use xlink:href="#m5f2a778717" x="162.715209" y="173.52" style="stroke: #000000; stroke-width: 0.8"/>
      </g>
     </g>
     <g id="text_2">
      <!-- 50 -->
      <g transform="translate(156.352709 188.118438) scale(0.1 -0.1)">
       <defs>
        <path id="DejaVuSans-35" d="M 691 4666 
L 3169 4666 
L 3169 4134 
L 1269 4134 
L 1269 2991 
Q 1406 3038 1543 3061 
Q 1681 3084 1819 3084 
Q 2600 3084 3056 2656 
Q 3513 2228 3513 1497 
Q 3513 744 3044 326 
Q 2575 -91 1722 -91 
Q 1428 -91 1123 -41 
Q 819 9 494 109 
L 494 744 
Q 775 591 1075 516 
Q 1375 441 1709 441 
Q 2250 441 2565 725 
Q 2881 1009 2881 1497 
Q 2881 1984 2565 2268 
Q 2250 2553 1709 2553 
Q 1456 2553 1204 2497 
Q 953 2441 691 2322 
L 691 4666 
z
" transform="scale(0.015625)"/>
       </defs>
       <use xlink:href="#DejaVuSans-35"/>
       <use xlink:href="#DejaVuSans-30" x="63.623047"/>
      </g>
     </g>
    </g>
    <g id="xtick_3">
     <g id="line2d_3">
      <g>
       <use xlink:href="#m5f2a778717" x="250.478657" y="173.52" style="stroke: #000000; stroke-width: 0.8"/>
      </g>
     </g>
     <g id="text_3">
      <!-- 100 -->
      <g transform="translate(240.934907 188.118438) scale(0.1 -0.1)">
       <defs>
        <path id="DejaVuSans-31" d="M 794 531 
L 1825 531 
L 1825 4091 
L 703 3866 
L 703 4441 
L 1819 4666 
L 2450 4666 
L 2450 531 
L 3481 531 
L 3481 0 
L 794 0 
L 794 531 
z
" transform="scale(0.015625)"/>
       </defs>
       <use xlink:href="#DejaVuSans-31"/>
       <use xlink:href="#DejaVuSans-30" x="63.623047"/>
       <use xlink:href="#DejaVuSans-30" x="127.246094"/>
      </g>
     </g>
    </g>
    <g id="xtick_4">
     <g id="line2d_4">
      <g>
       <use xlink:href="#m5f2a778717" x="338.242104" y="173.52" style="stroke: #000000; stroke-width: 0.8"/>
      </g>
     </g>
     <g id="text_4">
      <!-- 150 -->
      <g transform="translate(328.698354 188.118438) scale(0.1 -0.1)">
       <use xlink:href="#DejaVuSans-31"/>
       <use xlink:href="#DejaVuSans-35" x="63.623047"/>
       <use xlink:href="#DejaVuSans-30" x="127.246094"/>
      </g>
     </g>
    </g>
    <g id="xtick_5">
     <g id="line2d_5">
      <g>
       <use xlink:href="#m5f2a778717" x="426.005552" y="173.52" style="stroke: #000000; stroke-width: 0.8"/>
      </g>
     </g>
     <g id="text_5">
      <!-- 200 -->
      <g transform="translate(416.461802 188.118438) scale(0.1 -0.1)">
       <defs>
        <path id="DejaVuSans-32" d="M 1228 531 
L 3431 531 
L 3431 0 
L 469 0 
L 469 531 
Q 828 903 1448 1529 
Q 2069 2156 2228 2338 
Q 2531 2678 2651 2914 
Q 2772 3150 2772 3378 
Q 2772 3750 2511 3984 
Q 2250 4219 1831 4219 
Q 1534 4219 1204 4116 
Q 875 4013 500 3803 
L 500 4441 
Q 881 4594 1212 4672 
Q 1544 4750 1819 4750 
Q 2544 4750 2975 4387 
Q 3406 4025 3406 3419 
Q 3406 3131 3298 2873 
Q 3191 2616 2906 2266 
Q 2828 2175 2409 1742 
Q 1991 1309 1228 531 
z
" transform="scale(0.015625)"/>
       </defs>
       <use xlink:href="#DejaVuSans-32"/>
       <use xlink:href="#DejaVuSans-30" x="63.623047"/>
       <use xlink:href="#DejaVuSans-30" x="127.246094"/>
      </g>
     </g>
    </g>
    <g id="xtick_6">
     <g id="line2d_6">
      <g>
       <use xlink:href="#m5f2a778717" x="513.768999" y="173.52" style="stroke: #000000; stroke-width: 0.8"/>
      </g>
     </g>
     <g id="text_6">
      <!-- 250 -->
      <g transform="translate(504.225249 188.118438) scale(0.1 -0.1)">
       <use xlink:href="#DejaVuSans-32"/>
       <use xlink:href="#DejaVuSans-35" x="63.623047"/>
       <use xlink:href="#DejaVuSans-30" x="127.246094"/>
      </g>
     </g>
    </g>
    <g id="xtick_7">
     <g id="line2d_7">
      <g>
       <use xlink:href="#m5f2a778717" x="601.532447" y="173.52" style="stroke: #000000; stroke-width: 0.8"/>
      </g>
     </g>
     <g id="text_7">
      <!-- 300 -->
      <g transform="translate(591.988697 188.118438) scale(0.1 -0.1)">
       <defs>
        <path id="DejaVuSans-33" d="M 2597 2516 
Q 3050 2419 3304 2112 
Q 3559 1806 3559 1356 
Q 3559 666 3084 287 
Q 2609 -91 1734 -91 
Q 1441 -91 1130 -33 
Q 819 25 488 141 
L 488 750 
Q 750 597 1062 519 
Q 1375 441 1716 441 
Q 2309 441 2620 675 
Q 2931 909 2931 1356 
Q 2931 1769 2642 2001 
Q 2353 2234 1838 2234 
L 1294 2234 
L 1294 2753 
L 1863 2753 
Q 2328 2753 2575 2939 
Q 2822 3125 2822 3475 
Q 2822 3834 2567 4026 
Q 2313 4219 1838 4219 
Q 1578 4219 1281 4162 
Q 984 4106 628 3988 
L 628 4550 
Q 988 4650 1302 4700 
Q 1616 4750 1894 4750 
Q 2613 4750 3031 4423 
Q 3450 4097 3450 3541 
Q 3450 3153 3228 2886 
Q 3006 2619 2597 2516 
z
" transform="scale(0.015625)"/>
       </defs>
       <use xlink:href="#DejaVuSans-33"/>
       <use xlink:href="#DejaVuSans-30" x="63.623047"/>
       <use xlink:href="#DejaVuSans-30" x="127.246094"/>
      </g>
     </g>
    </g>
    <g id="text_8">
     <!-- Time -->
     <g transform="translate(309.014375 206.355625) scale(0.16 -0.16)">
      <defs>
       <path id="DejaVuSans-54" d="M -19 4666 
L 3928 4666 
L 3928 4134 
L 2272 4134 
L 2272 0 
L 1638 0 
L 1638 4134 
L -19 4134 
L -19 4666 
z
" transform="scale(0.015625)"/>
       <path id="DejaVuSans-69" d="M 603 3500 
L 1178 3500 
L 1178 0 
L 603 0 
L 603 3500 
z
M 603 4863 
L 1178 4863 
L 1178 4134 
L 603 4134 
L 603 4863 
z
" transform="scale(0.015625)"/>
       <path id="DejaVuSans-6d" d="M 3328 2828 
Q 3544 3216 3844 3400 
Q 4144 3584 4550 3584 
Q 5097 3584 5394 3201 
Q 5691 2819 5691 2113 
L 5691 0 
L 5113 0 
L 5113 2094 
Q 5113 2597 4934 2840 
Q 4756 3084 4391 3084 
Q 3944 3084 3684 2787 
Q 3425 2491 3425 1978 
L 3425 0 
L 2847 0 
L 2847 2094 
Q 2847 2600 2669 2842 
Q 2491 3084 2119 3084 
Q 1678 3084 1418 2786 
Q 1159 2488 1159 1978 
L 1159 0 
L 581 0 
L 581 3500 
L 1159 3500 
L 1159 2956 
Q 1356 3278 1631 3431 
Q 1906 3584 2284 3584 
Q 2666 3584 2933 3390 
Q 3200 3197 3328 2828 
z
" transform="scale(0.015625)"/>
       <path id="DejaVuSans-65" d="M 3597 1894 
L 3597 1613 
L 953 1613 
Q 991 1019 1311 708 
Q 1631 397 2203 397 
Q 2534 397 2845 478 
Q 3156 559 3463 722 
L 3463 178 
Q 3153 47 2828 -22 
Q 2503 -91 2169 -91 
Q 1331 -91 842 396 
Q 353 884 353 1716 
Q 353 2575 817 3079 
Q 1281 3584 2069 3584 
Q 2775 3584 3186 3129 
Q 3597 2675 3597 1894 
z
M 3022 2063 
Q 3016 2534 2758 2815 
Q 2500 3097 2075 3097 
Q 1594 3097 1305 2825 
Q 1016 2553 972 2059 
L 3022 2063 
z
" transform="scale(0.015625)"/>
      </defs>
      <use xlink:href="#DejaVuSans-54"/>
      <use xlink:href="#DejaVuSans-69" x="57.958984"/>
      <use xlink:href="#DejaVuSans-6d" x="85.742188"/>
      <use xlink:href="#DejaVuSans-65" x="183.154297"/>
     </g>
    </g>
   </g>
   <g id="matplotlib.axis_2">
    <g id="ytick_1">
     <g id="line2d_8">
      <defs>
       <path id="mc7fd61a692" d="M 0 0 
L -3.5 0 
" style="stroke: #000000; stroke-width: 0.8"/>
      </defs>
      <g>
       <use xlink:href="#mc7fd61a692" x="49.588125" y="165.96" style="stroke: #000000; stroke-width: 0.8"/>
      </g>
     </g>
     <g id="text_9">
      <!-- 0.0 -->
      <g transform="translate(26.685 169.759219) scale(0.1 -0.1)">
       <defs>
        <path id="DejaVuSans-2e" d="M 684 794 
L 1344 794 
L 1344 0 
L 684 0 
L 684 794 
z
" transform="scale(0.015625)"/>
       </defs>
       <use xlink:href="#DejaVuSans-30"/>
       <use xlink:href="#DejaVuSans-2e" x="63.623047"/>
       <use xlink:href="#DejaVuSans-30" x="95.410156"/>
      </g>
     </g>
    </g>
    <g id="ytick_2">
     <g id="line2d_9">
      <g>
       <use xlink:href="#mc7fd61a692" x="49.588125" y="135.72" style="stroke: #000000; stroke-width: 0.8"/>
      </g>
     </g>
     <g id="text_10">
      <!-- 0.2 -->
      <g transform="translate(26.685 139.519219) scale(0.1 -0.1)">
       <use xlink:href="#DejaVuSans-30"/>
       <use xlink:href="#DejaVuSans-2e" x="63.623047"/>
       <use xlink:href="#DejaVuSans-32" x="95.410156"/>
      </g>
     </g>
    </g>
    <g id="ytick_3">
     <g id="line2d_10">
      <g>
       <use xlink:href="#mc7fd61a692" x="49.588125" y="105.48" style="stroke: #000000; stroke-width: 0.8"/>
      </g>
     </g>
     <g id="text_11">
      <!-- 0.4 -->
      <g transform="translate(26.685 109.279219) scale(0.1 -0.1)">
       <defs>
        <path id="DejaVuSans-34" d="M 2419 4116 
L 825 1625 
L 2419 1625 
L 2419 4116 
z
M 2253 4666 
L 3047 4666 
L 3047 1625 
L 3713 1625 
L 3713 1100 
L 3047 1100 
L 3047 0 
L 2419 0 
L 2419 1100 
L 313 1100 
L 313 1709 
L 2253 4666 
z
" transform="scale(0.015625)"/>
       </defs>
       <use xlink:href="#DejaVuSans-30"/>
       <use xlink:href="#DejaVuSans-2e" x="63.623047"/>
       <use xlink:href="#DejaVuSans-34" x="95.410156"/>
      </g>
     </g>
    </g>
    <g id="ytick_4">
     <g id="line2d_11">
      <g>
       <use xlink:href="#mc7fd61a692" x="49.588125" y="75.24" style="stroke: #000000; stroke-width: 0.8"/>
      </g>
     </g>
     <g id="text_12">
      <!-- 0.6 -->
      <g transform="translate(26.685 79.039219) scale(0.1 -0.1)">
       <defs>
        <path id="DejaVuSans-36" d="M 2113 2584 
Q 1688 2584 1439 2293 
Q 1191 2003 1191 1497 
Q 1191 994 1439 701 
Q 1688 409 2113 409 
Q 2538 409 2786 701 
Q 3034 994 3034 1497 
Q 3034 2003 2786 2293 
Q 2538 2584 2113 2584 
z
M 3366 4563 
L 3366 3988 
Q 3128 4100 2886 4159 
Q 2644 4219 2406 4219 
Q 1781 4219 1451 3797 
Q 1122 3375 1075 2522 
Q 1259 2794 1537 2939 
Q 1816 3084 2150 3084 
Q 2853 3084 3261 2657 
Q 3669 2231 3669 1497 
Q 3669 778 3244 343 
Q 2819 -91 2113 -91 
Q 1303 -91 875 529 
Q 447 1150 447 2328 
Q 447 3434 972 4092 
Q 1497 4750 2381 4750 
Q 2619 4750 2861 4703 
Q 3103 4656 3366 4563 
z
" transform="scale(0.015625)"/>
       </defs>
       <use xlink:href="#DejaVuSans-30"/>
       <use xlink:href="#DejaVuSans-2e" x="63.623047"/>
       <use xlink:href="#DejaVuSans-36" x="95.410156"/>
      </g>
     </g>
    </g>
    <g id="ytick_5">
     <g id="line2d_12">
      <g>
       <use xlink:href="#mc7fd61a692" x="49.588125" y="45" style="stroke: #000000; stroke-width: 0.8"/>
      </g>
     </g>
     <g id="text_13">
      <!-- 0.8 -->
      <g transform="translate(26.685 48.799219) scale(0.1 -0.1)">
       <defs>
        <path id="DejaVuSans-38" d="M 2034 2216 
Q 1584 2216 1326 1975 
Q 1069 1734 1069 1313 
Q 1069 891 1326 650 
Q 1584 409 2034 409 
Q 2484 409 2743 651 
Q 3003 894 3003 1313 
Q 3003 1734 2745 1975 
Q 2488 2216 2034 2216 
z
M 1403 2484 
Q 997 2584 770 2862 
Q 544 3141 544 3541 
Q 544 4100 942 4425 
Q 1341 4750 2034 4750 
Q 2731 4750 3128 4425 
Q 3525 4100 3525 3541 
Q 3525 3141 3298 2862 
Q 3072 2584 2669 2484 
Q 3125 2378 3379 2068 
Q 3634 1759 3634 1313 
Q 3634 634 3220 271 
Q 2806 -91 2034 -91 
Q 1263 -91 848 271 
Q 434 634 434 1313 
Q 434 1759 690 2068 
Q 947 2378 1403 2484 
z
M 1172 3481 
Q 1172 3119 1398 2916 
Q 1625 2713 2034 2713 
Q 2441 2713 2670 2916 
Q 2900 3119 2900 3481 
Q 2900 3844 2670 4047 
Q 2441 4250 2034 4250 
Q 1625 4250 1398 4047 
Q 1172 3844 1172 3481 
z
" transform="scale(0.015625)"/>
       </defs>
       <use xlink:href="#DejaVuSans-30"/>
       <use xlink:href="#DejaVuSans-2e" x="63.623047"/>
       <use xlink:href="#DejaVuSans-38" x="95.410156"/>
      </g>
     </g>
    </g>
    <g id="ytick_6">
     <g id="line2d_13">
      <g>
       <use xlink:href="#mc7fd61a692" x="49.588125" y="14.76" style="stroke: #000000; stroke-width: 0.8"/>
      </g>
     </g>
     <g id="text_14">
      <!-- 1.0 -->
      <g transform="translate(26.685 18.559219) scale(0.1 -0.1)">
       <use xlink:href="#DejaVuSans-31"/>
       <use xlink:href="#DejaVuSans-2e" x="63.623047"/>
       <use xlink:href="#DejaVuSans-30" x="95.410156"/>
      </g>
     </g>
    </g>
    <g id="text_15">
     <!-- Load  [kW] -->
     <g transform="translate(19.3575 133.42375) rotate(-90) scale(0.16 -0.16)">
      <defs>
       <path id="DejaVuSans-4c" d="M 628 4666 
L 1259 4666 
L 1259 531 
L 3531 531 
L 3531 0 
L 628 0 
L 628 4666 
z
" transform="scale(0.015625)"/>
       <path id="DejaVuSans-6f" d="M 1959 3097 
Q 1497 3097 1228 2736 
Q 959 2375 959 1747 
Q 959 1119 1226 758 
Q 1494 397 1959 397 
Q 2419 397 2687 759 
Q 2956 1122 2956 1747 
Q 2956 2369 2687 2733 
Q 2419 3097 1959 3097 
z
M 1959 3584 
Q 2709 3584 3137 3096 
Q 3566 2609 3566 1747 
Q 3566 888 3137 398 
Q 2709 -91 1959 -91 
Q 1206 -91 779 398 
Q 353 888 353 1747 
Q 353 2609 779 3096 
Q 1206 3584 1959 3584 
z
" transform="scale(0.015625)"/>
       <path id="DejaVuSans-61" d="M 2194 1759 
Q 1497 1759 1228 1600 
Q 959 1441 959 1056 
Q 959 750 1161 570 
Q 1363 391 1709 391 
Q 2188 391 2477 730 
Q 2766 1069 2766 1631 
L 2766 1759 
L 2194 1759 
z
M 3341 1997 
L 3341 0 
L 2766 0 
L 2766 531 
Q 2569 213 2275 61 
Q 1981 -91 1556 -91 
Q 1019 -91 701 211 
Q 384 513 384 1019 
Q 384 1609 779 1909 
Q 1175 2209 1959 2209 
L 2766 2209 
L 2766 2266 
Q 2766 2663 2505 2880 
Q 2244 3097 1772 3097 
Q 1472 3097 1187 3025 
Q 903 2953 641 2809 
L 641 3341 
Q 956 3463 1253 3523 
Q 1550 3584 1831 3584 
Q 2591 3584 2966 3190 
Q 3341 2797 3341 1997 
z
" transform="scale(0.015625)"/>
       <path id="DejaVuSans-64" d="M 2906 2969 
L 2906 4863 
L 3481 4863 
L 3481 0 
L 2906 0 
L 2906 525 
Q 2725 213 2448 61 
Q 2172 -91 1784 -91 
Q 1150 -91 751 415 
Q 353 922 353 1747 
Q 353 2572 751 3078 
Q 1150 3584 1784 3584 
Q 2172 3584 2448 3432 
Q 2725 3281 2906 2969 
z
M 947 1747 
Q 947 1113 1208 752 
Q 1469 391 1925 391 
Q 2381 391 2643 752 
Q 2906 1113 2906 1747 
Q 2906 2381 2643 2742 
Q 2381 3103 1925 3103 
Q 1469 3103 1208 2742 
Q 947 2381 947 1747 
z
" transform="scale(0.015625)"/>
       <path id="DejaVuSans-20" transform="scale(0.015625)"/>
       <path id="DejaVuSans-5b" d="M 550 4863 
L 1875 4863 
L 1875 4416 
L 1125 4416 
L 1125 -397 
L 1875 -397 
L 1875 -844 
L 550 -844 
L 550 4863 
z
" transform="scale(0.015625)"/>
       <path id="DejaVuSans-6b" d="M 581 4863 
L 1159 4863 
L 1159 1991 
L 2875 3500 
L 3609 3500 
L 1753 1863 
L 3688 0 
L 2938 0 
L 1159 1709 
L 1159 0 
L 581 0 
L 581 4863 
z
" transform="scale(0.015625)"/>
       <path id="DejaVuSans-57" d="M 213 4666 
L 850 4666 
L 1831 722 
L 2809 4666 
L 3519 4666 
L 4500 722 
L 5478 4666 
L 6119 4666 
L 4947 0 
L 4153 0 
L 3169 4050 
L 2175 0 
L 1381 0 
L 213 4666 
z
" transform="scale(0.015625)"/>
       <path id="DejaVuSans-5d" d="M 1947 4863 
L 1947 -844 
L 622 -844 
L 622 -397 
L 1369 -397 
L 1369 4416 
L 622 4416 
L 622 4863 
L 1947 4863 
z
" transform="scale(0.015625)"/>
      </defs>
      <use xlink:href="#DejaVuSans-4c"/>
      <use xlink:href="#DejaVuSans-6f" x="53.962891"/>
      <use xlink:href="#DejaVuSans-61" x="115.144531"/>
      <use xlink:href="#DejaVuSans-64" x="176.423828"/>
      <use xlink:href="#DejaVuSans-20" x="239.900391"/>
      <use xlink:href="#DejaVuSans-20" x="271.6875"/>
      <use xlink:href="#DejaVuSans-5b" x="303.474609"/>
      <use xlink:href="#DejaVuSans-6b" x="342.488281"/>
      <use xlink:href="#DejaVuSans-57" x="400.398438"/>
      <use xlink:href="#DejaVuSans-5d" x="499.275391"/>
     </g>
    </g>
   </g>
   <g id="line2d_14">
    <path d="M 74.951761 157.714257 
L 76.70703 161.584708 
L 78.462299 152.329282 
L 80.217568 105.968015 
L 81.972837 112.194389 
L 83.728106 163.183372 
L 85.483375 160.322604 
L 87.238644 102.938967 
L 88.993913 98.479535 
L 90.749182 106.809415 
L 92.504451 112.783373 
L 94.25972 109.922606 
L 96.014989 126.834793 
L 97.770258 158.134958 
L 99.525527 156.872855 
L 101.280796 163.183372 
L 103.036065 162.34197 
L 104.791334 162.51025 
L 106.546603 163.856494 
L 110.05714 165.96 
L 111.812409 165.707579 
L 115.322947 164.361336 
L 117.078216 156.452154 
L 118.833485 162.34197 
L 120.588754 164.108915 
L 122.344023 165.539299 
L 124.099292 165.96 
L 125.854561 129.863839 
L 127.60983 128.685877 
L 129.365099 115.391718 
L 131.120368 99.236796 
L 132.875637 99.152653 
L 134.630906 105.968015 
L 136.386175 161.416427 
L 138.141444 159.901903 
L 139.896713 160.154324 
L 141.651982 160.238464 
L 143.407251 160.827446 
L 145.162519 164.866177 
L 150.428326 165.96 
L 153.938864 165.96 
L 155.694133 165.455159 
L 157.449402 165.96 
L 159.204671 165.539299 
L 160.95994 164.445476 
L 162.715209 164.866177 
L 164.470478 164.613756 
L 166.225747 158.050818 
L 167.981016 154.516928 
L 169.736285 159.060501 
L 171.491554 151.908581 
L 173.246823 87.877863 
L 175.002092 114.045477 
L 176.757361 108.492222 
L 178.51263 108.323941 
L 180.267899 158.471519 
L 183.778436 159.986043 
L 185.533705 164.108915 
L 187.288974 165.623439 
L 189.044243 165.96 
L 192.554781 165.707579 
L 194.31005 158.387379 
L 196.065319 162.51025 
L 197.820588 155.694892 
L 199.575857 154.601068 
L 201.331126 162.762671 
L 203.086395 157.882538 
L 204.841664 154.769349 
L 206.596933 163.099232 
L 208.352202 152.665843 
L 210.107471 163.856494 
L 211.86274 163.183372 
L 213.618009 163.099232 
L 215.373278 141.054492 
L 217.128547 37.814427 
L 218.883815 103.275524 
L 220.639084 110.764005 
L 222.394353 153.002404 
L 224.149622 160.070184 
L 225.904891 159.397062 
L 227.66016 161.248147 
L 229.415429 164.613756 
L 231.170698 163.772354 
L 232.925967 165.371018 
L 234.681236 163.856494 
L 236.436505 163.772354 
L 238.191774 164.866177 
L 239.947043 165.623439 
L 241.702312 148.879533 
L 243.457581 163.267512 
L 245.21285 165.286878 
L 246.968119 164.193055 
L 248.723388 155.10591 
L 250.478657 126.16167 
L 252.233926 158.72394 
L 253.989195 161.248147 
L 255.744463 163.435793 
L 257.499732 158.976361 
L 259.255001 157.545976 
L 261.01027 14.76 
L 262.765539 107.819099 
L 264.520808 99.909919 
L 266.276077 123.553321 
L 268.031346 157.041135 
L 269.786615 161.248147 
L 271.541884 159.312922 
L 273.297153 161.079866 
L 275.052422 162.51025 
L 276.807691 164.108915 
L 278.56296 164.529616 
L 280.318229 163.772354 
L 282.073498 162.173689 
L 283.828767 149.300233 
L 285.584036 155.19005 
L 287.339305 161.500568 
L 289.094574 165.623439 
L 290.849843 164.193055 
L 292.605111 160.827446 
L 294.36038 160.070184 
L 296.115649 110.679867 
L 297.870918 94.52494 
L 299.626187 98.900234 
L 301.381456 90.822773 
L 303.136725 158.72394 
L 304.891994 111.016428 
L 306.647263 157.377696 
L 308.402532 157.966678 
L 310.157801 160.995726 
L 311.91307 163.772354 
L 313.668339 162.594391 
L 315.423608 161.668848 
L 317.178877 163.183372 
L 318.934146 164.866177 
L 320.689415 164.782037 
L 322.444684 163.351653 
L 324.199953 162.42611 
L 325.955222 163.604073 
L 327.710491 156.956995 
L 329.465759 159.565342 
L 331.221028 160.659165 
L 332.976297 156.031452 
L 334.731566 89.98137 
L 338.242104 122.122938 
L 339.997373 85.101233 
L 341.752642 106.472853 
L 343.507911 84.932957 
L 345.26318 108.15566 
L 347.018449 104.537632 
L 348.773718 144.16768 
L 350.528987 160.995726 
L 352.284256 164.361336 
L 354.039525 164.613756 
L 355.794794 163.267512 
L 357.550063 161.248147 
L 359.305332 165.623439 
L 362.81587 165.202738 
L 366.326407 165.539299 
L 368.081676 144.67252 
L 369.836945 159.060501 
L 371.592214 160.743306 
L 373.347483 154.93763 
L 375.102752 165.202738 
L 378.61329 163.604073 
L 380.368559 161.921269 
L 382.123828 155.526611 
L 383.879097 107.482537 
L 385.634366 93.767679 
L 387.389635 98.227111 
L 389.144904 106.977695 
L 390.900173 111.52127 
L 392.655442 159.060501 
L 394.410711 160.911586 
L 396.16598 165.87586 
L 397.921249 165.539299 
L 399.676518 165.96 
L 401.431787 165.87586 
L 403.187055 165.623439 
L 404.942324 164.782037 
L 406.697593 164.950317 
L 408.452862 153.002404 
L 410.208131 159.481202 
L 411.9634 162.51025 
L 413.718669 165.96 
L 415.473938 156.788715 
L 417.229207 163.604073 
L 418.984476 163.351653 
L 420.739745 162.173689 
L 422.495014 163.772354 
L 424.250283 80.221106 
L 426.005552 106.388715 
L 427.760821 105.799735 
L 429.51609 117.411086 
L 431.271359 140.297228 
L 433.026628 159.228781 
L 434.781897 160.154324 
L 436.537166 163.688214 
L 438.292435 165.87586 
L 440.047703 165.87586 
L 441.802972 165.707579 
L 445.31351 164.866177 
L 450.579317 164.529616 
L 452.334586 156.788715 
L 454.089855 154.516928 
L 455.845124 162.25783 
L 457.600393 162.762671 
L 459.355662 163.435793 
L 461.110931 164.782037 
L 462.8662 165.96 
L 464.621469 140.970351 
L 466.376738 61.45783 
L 468.132007 106.641134 
L 469.887276 113.372354 
L 471.642545 107.650818 
L 473.397814 108.323941 
L 475.153083 107.650818 
L 476.908351 108.912921 
L 478.66362 164.697896 
L 480.418889 165.79172 
L 482.174158 165.87586 
L 483.929427 165.623439 
L 485.684696 165.202738 
L 489.195234 164.950317 
L 490.950503 160.911586 
L 492.705772 163.856494 
L 494.461041 163.435793 
L 496.21631 163.267512 
L 508.503193 163.267512 
L 510.258462 105.21075 
L 512.013731 103.864509 
L 513.768999 105.294893 
L 515.524268 105.463173 
L 517.279537 112.278531 
L 519.034806 161.164007 
L 520.790075 165.87586 
L 522.545344 163.351653 
L 524.300613 165.202738 
L 531.321689 163.183372 
L 533.076958 163.267512 
L 534.832227 163.519933 
L 536.587496 152.581703 
L 538.342765 161.837129 
L 540.098034 157.293556 
L 541.853303 105.379031 
L 543.608572 159.312922 
L 545.363841 161.164007 
L 547.11911 126.16167 
L 548.874379 156.536294 
L 550.629647 114.88688 
L 552.384916 82.156327 
L 554.140185 105.126612 
L 555.895454 40.170348 
L 557.650723 111.268847 
L 559.405992 107.98738 
L 561.161261 135.248816 
L 562.91653 160.659165 
L 564.671799 160.743306 
L 566.427068 164.866177 
L 568.182337 164.193055 
L 569.937606 162.678531 
L 571.692875 163.015092 
L 575.203413 165.79172 
L 576.958682 164.529616 
L 578.713951 152.497563 
L 580.46922 158.387379 
L 582.224489 153.423105 
L 582.224489 153.423105 
" clip-path="url(#p32623030a2)" style="fill: none; stroke: #13748b; stroke-width: 1.5; stroke-linecap: square"/>
   </g>
   <g id="line2d_15">
    <path d="M 74.951761 155.999089 
L 78.462299 157.018453 
L 80.217568 157.317957 
L 81.972837 141.377253 
L 83.728106 140.584876 
L 85.483375 152.488434 
L 87.238644 153.290562 
L 88.993913 136.946277 
L 90.749182 131.243216 
L 92.504451 135.431016 
L 94.25972 137.876516 
L 97.770258 148.63647 
L 99.525527 155.040571 
L 101.280796 157.06015 
L 103.036065 158.531494 
L 104.791334 159.132767 
L 106.546603 159.539513 
L 108.301871 159.557009 
L 110.05714 158.620777 
L 111.812409 157.044956 
L 113.567678 155.644415 
L 115.322947 155.668138 
L 117.078216 156.127852 
L 118.833485 156.199782 
L 120.588754 156.773886 
L 122.344023 156.211817 
L 124.099292 155.799743 
L 125.854561 156.443319 
L 127.60983 151.099689 
L 129.365099 146.526238 
L 132.875637 131.815197 
L 134.630906 134.529217 
L 136.386175 138.058975 
L 138.141444 149.949446 
L 139.896713 154.173479 
L 141.651982 156.36626 
L 143.407251 157.968607 
L 145.162519 159.41745 
L 146.917788 159.793506 
L 148.673057 159.612162 
L 150.428326 159.103055 
L 153.938864 157.463177 
L 155.694133 157.136298 
L 157.449402 156.975716 
L 160.95994 157.545103 
L 162.715209 157.457853 
L 164.470478 157.056006 
L 169.736285 156.422127 
L 173.246823 151.153365 
L 175.002092 131.047162 
L 176.757361 139.362828 
L 178.51263 143.787714 
L 180.267899 145.579819 
L 182.023167 154.749964 
L 183.778436 156.862614 
L 185.533705 157.829574 
L 187.288974 159.601214 
L 189.044243 160.005969 
L 190.799512 159.451904 
L 192.554781 159.13132 
L 194.31005 158.247238 
L 196.065319 157.155319 
L 197.820588 157.081225 
L 199.575857 156.629071 
L 201.331126 156.827479 
L 203.086395 157.634274 
L 204.841664 157.671273 
L 206.596933 157.467388 
L 208.352202 156.535913 
L 210.107471 155.760807 
L 211.86274 156.267483 
L 213.618009 155.804435 
L 217.128547 147.73846 
L 218.883815 127.031417 
L 220.639084 138.909916 
L 222.394353 144.871197 
L 224.149622 153.501407 
L 225.904891 156.386842 
L 227.66016 158.095991 
L 229.415429 159.16784 
L 231.170698 160.104285 
L 232.925967 159.67786 
L 234.681236 158.716151 
L 236.436505 157.944683 
L 238.191774 157.005452 
L 239.947043 155.691198 
L 241.702312 155.9675 
L 243.457581 155.525506 
L 245.21285 157.171298 
L 246.968119 157.691785 
L 248.723388 157.774396 
L 250.478657 156.460228 
L 252.233926 149.058192 
L 253.989195 154.858985 
L 255.744463 154.887659 
L 257.499732 153.089524 
L 259.255001 148.780306 
L 261.01027 149.864637 
L 262.765539 127.000884 
L 264.520808 143.620778 
L 266.276077 147.7218 
L 268.031346 150.536557 
L 269.786615 156.929829 
L 271.541884 158.458191 
L 273.297153 158.454496 
L 275.052422 159.430656 
L 276.807691 159.418494 
L 278.56296 158.642514 
L 282.073498 156.479478 
L 283.828767 154.962861 
L 285.584036 154.845765 
L 287.339305 155.733046 
L 289.094574 156.469083 
L 290.849843 156.98899 
L 292.605111 156.935343 
L 294.36038 156.626882 
L 296.115649 156.56569 
L 297.870918 146.056514 
L 299.626187 139.910505 
L 301.381456 137.251863 
L 303.136725 124.87555 
L 304.891994 146.261477 
L 306.647263 142.208185 
L 308.402532 151.008567 
L 310.157801 155.824529 
L 311.91307 157.759714 
L 313.668339 158.327517 
L 315.423608 159.409456 
L 317.178877 159.246916 
L 318.934146 158.469271 
L 320.689415 158.124148 
L 322.444684 157.167469 
L 324.199953 155.934541 
L 325.955222 156.45293 
L 329.465759 156.970757 
L 334.731566 155.647768 
L 336.486835 136.59421 
L 338.242104 137.42424 
L 339.997373 141.991648 
L 341.752642 124.839303 
L 343.507911 130.097842 
L 345.26318 127.629126 
L 347.018449 131.798212 
L 348.773718 140.796731 
L 350.528987 151.960652 
L 354.039525 157.471811 
L 355.794794 158.588074 
L 357.550063 158.610799 
L 359.305332 158.770818 
L 361.060601 157.704989 
L 366.326407 155.818774 
L 368.081676 156.388741 
L 369.836945 155.370015 
L 371.592214 156.617062 
L 373.347483 156.826462 
L 376.858021 155.54205 
L 378.61329 155.604114 
L 380.368559 154.658022 
L 382.123828 151.688867 
L 383.879097 150.763452 
L 385.634366 134.800118 
L 387.389635 132.677602 
L 389.144904 136.16423 
L 390.900173 145.632861 
L 392.655442 150.112764 
L 394.410711 156.812473 
L 396.16598 158.099749 
L 397.921249 158.683074 
L 399.676518 159.019858 
L 401.431787 158.957501 
L 403.187055 158.330802 
L 404.942324 157.445655 
L 406.697593 155.994706 
L 410.208131 154.079146 
L 411.9634 155.476856 
L 413.718669 156.721266 
L 415.473938 157.186887 
L 417.229207 157.053394 
L 418.984476 156.322476 
L 420.739745 156.383046 
L 424.250283 155.897699 
L 426.005552 134.995358 
L 429.51609 135.748976 
L 431.271359 138.126905 
L 434.781897 154.616922 
L 438.292435 158.126223 
L 440.047703 159.195212 
L 443.558241 159.561909 
L 445.31351 158.668117 
L 448.824048 156.390261 
L 450.579317 155.644342 
L 452.334586 156.191847 
L 454.089855 156.478667 
L 455.845124 156.937037 
L 457.600393 157.237703 
L 459.355662 157.006656 
L 461.110931 157.32253 
L 462.8662 157.447587 
L 464.621469 156.827409 
L 466.376738 151.914844 
L 468.132007 120.217727 
L 469.887276 131.298531 
L 471.642545 137.758979 
L 473.397814 139.702706 
L 476.908351 148.879489 
L 478.66362 150.032142 
L 480.418889 157.594956 
L 482.174158 158.805731 
L 483.929427 158.752963 
L 485.684696 159.370541 
L 487.439965 159.174066 
L 489.195234 157.843888 
L 490.950503 157.271266 
L 492.705772 156.104042 
L 494.461041 156.313853 
L 496.21631 156.269489 
L 497.971579 156.640589 
L 499.726848 156.610451 
L 501.482117 156.352482 
L 504.992655 157.988436 
L 506.747924 157.317882 
L 508.503193 151.23553 
L 510.258462 151.550928 
L 512.013731 138.973117 
L 515.524268 140.178803 
L 517.279537 141.08626 
L 519.034806 145.262866 
L 520.790075 155.950806 
L 522.545344 158.314986 
L 526.055882 160.072583 
L 527.811151 160.176324 
L 529.56642 159.699337 
L 531.321689 158.860371 
L 533.076958 157.590549 
L 534.832227 156.648097 
L 536.587496 156.36429 
L 538.342765 156.379822 
L 540.098034 156.812997 
L 541.853303 157.021092 
L 543.608572 146.018931 
L 545.363841 154.595119 
L 547.11911 155.868311 
L 548.874379 149.080581 
L 550.629647 153.843394 
L 554.140185 125.113963 
L 555.895454 131.532065 
L 557.650723 117.12156 
L 559.405992 137.385704 
L 561.161261 146.715947 
L 562.91653 152.495997 
L 564.671799 156.785131 
L 566.427068 158.677611 
L 568.182337 158.409543 
L 569.937606 159.451843 
L 571.692875 159.280443 
L 573.448144 157.789995 
L 575.203413 157.060247 
L 576.958682 155.506969 
L 578.713951 155.299936 
L 582.224489 156.245003 
L 582.224489 156.245003 
" clip-path="url(#p32623030a2)" style="fill: none; stroke: #a0a7bc; stroke-width: 1.5; stroke-linecap: square"/>
   </g>
   <g id="line2d_16">
    <path d="M 74.951761 155.142874 
L 76.70703 155.179361 
L 78.462299 154.738543 
L 80.217568 154.808034 
L 81.972837 137.191986 
L 83.728106 137.133555 
L 85.483375 150.842393 
L 87.238644 152.034098 
L 88.993913 134.831604 
L 90.749182 130.935553 
L 92.504451 135.646476 
L 94.25972 139.316554 
L 96.014989 143.69608 
L 97.770258 148.434363 
L 99.525527 153.728188 
L 101.280796 155.465711 
L 103.036065 155.258556 
L 104.791334 155.466708 
L 106.546603 156.254241 
L 108.301871 156.596195 
L 110.05714 155.877638 
L 111.812409 154.318096 
L 113.567678 153.701558 
L 115.322947 153.929176 
L 118.833485 154.569483 
L 120.588754 153.596136 
L 122.344023 152.129571 
L 124.099292 153.147504 
L 125.854561 154.5015 
L 127.60983 149.197367 
L 129.365099 145.930057 
L 131.120368 138.514178 
L 132.875637 133.94262 
L 134.630906 135.640978 
L 136.386175 138.684198 
L 138.141444 150.467095 
L 139.896713 154.074162 
L 141.651982 155.158818 
L 143.407251 155.592109 
L 145.162519 155.606711 
L 146.917788 155.174337 
L 148.673057 155.453594 
L 150.428326 155.235083 
L 152.183595 154.874532 
L 153.938864 154.677662 
L 155.694133 154.929837 
L 157.449402 154.811704 
L 159.204671 154.885773 
L 160.95994 154.59165 
L 164.470478 154.578407 
L 166.225747 155.054487 
L 167.981016 154.481466 
L 169.736285 153.546125 
L 173.246823 149.80378 
L 175.002092 131.754286 
L 176.757361 139.964743 
L 178.51263 144.171098 
L 180.267899 144.928785 
L 182.023167 153.668471 
L 183.778436 155.64322 
L 185.533705 155.876798 
L 187.288974 156.493947 
L 189.044243 156.334116 
L 190.799512 156.410911 
L 192.554781 156.325023 
L 194.31005 155.414369 
L 196.065319 154.242239 
L 197.820588 155.052465 
L 199.575857 154.349241 
L 203.086395 155.204283 
L 204.841664 155.043269 
L 208.352202 155.812712 
L 210.107471 155.551049 
L 211.86274 155.847815 
L 213.618009 154.171538 
L 215.373278 151.044794 
L 217.128547 146.299224 
L 218.883815 125.589124 
L 220.639084 139.800173 
L 222.394353 146.103301 
L 224.149622 153.760862 
L 225.904891 156.074923 
L 227.66016 157.033669 
L 229.415429 156.492043 
L 231.170698 156.936775 
L 232.925967 156.678063 
L 234.681236 156.289677 
L 236.436505 156.159314 
L 238.191774 155.501351 
L 239.947043 153.818501 
L 241.702312 154.074086 
L 243.457581 153.073958 
L 245.21285 155.530779 
L 246.968119 154.329322 
L 248.723388 155.615235 
L 250.478657 155.934539 
L 252.233926 148.839074 
L 253.989195 155.107668 
L 255.744463 154.958806 
L 257.499732 151.776183 
L 259.255001 146.631931 
L 261.01027 145.766336 
L 262.765539 122.029341 
L 264.520808 144.017174 
L 266.276077 145.88927 
L 268.031346 149.569263 
L 269.786615 156.333676 
L 271.541884 157.30779 
L 273.297153 155.949333 
L 275.052422 156.56544 
L 276.807691 156.204049 
L 278.56296 154.888216 
L 280.318229 155.550268 
L 282.073498 155.049972 
L 283.828767 152.191158 
L 285.584036 152.86213 
L 287.339305 154.41644 
L 289.094574 155.194961 
L 290.849843 154.933901 
L 292.605111 154.468519 
L 294.36038 155.528532 
L 296.115649 156.285628 
L 297.870918 142.47596 
L 299.626187 136.441034 
L 301.381456 132.930791 
L 303.136725 125.188801 
L 304.891994 142.474464 
L 306.647263 139.809735 
L 308.402532 151.277717 
L 310.157801 155.16412 
L 311.91307 156.016793 
L 313.668339 156.076107 
L 315.423608 156.833399 
L 317.178877 155.873229 
L 318.934146 155.895414 
L 322.444684 154.446086 
L 325.955222 153.539665 
L 329.465759 154.708056 
L 331.221028 154.384882 
L 332.976297 155.532777 
L 334.731566 154.424931 
L 336.486835 132.859531 
L 338.242104 132.348692 
L 339.997373 136.933047 
L 341.752642 127.919968 
L 343.507911 133.352437 
L 345.26318 131.331879 
L 347.018449 133.758041 
L 348.773718 139.086112 
L 350.528987 150.888513 
L 352.284256 153.595702 
L 354.039525 154.639056 
L 355.794794 156.402927 
L 357.550063 156.461942 
L 359.305332 155.540107 
L 361.060601 156.56514 
L 362.81587 156.036692 
L 364.571139 155.888099 
L 366.326407 154.85856 
L 368.081676 155.337793 
L 369.836945 153.780252 
L 371.592214 155.214373 
L 373.347483 155.351722 
L 375.102752 153.115601 
L 376.858021 151.913523 
L 378.61329 152.921899 
L 380.368559 153.151733 
L 382.123828 152.494809 
L 383.879097 150.982048 
L 385.634366 138.192897 
L 387.389635 139.510953 
L 389.144904 139.924456 
L 390.900173 144.645121 
L 392.655442 148.651287 
L 394.410711 155.585557 
L 396.16598 156.350404 
L 397.921249 156.394408 
L 399.676518 155.905912 
L 401.431787 156.169081 
L 404.942324 155.645761 
L 406.697593 154.435202 
L 408.452862 154.546887 
L 410.208131 154.389834 
L 411.9634 155.268606 
L 413.718669 155.710529 
L 415.473938 155.279096 
L 417.229207 155.738168 
L 418.984476 155.849346 
L 420.739745 155.596237 
L 422.495014 155.470358 
L 424.250283 153.980119 
L 426.005552 130.954366 
L 427.760821 133.197445 
L 431.271359 141.474247 
L 433.026628 148.576297 
L 434.781897 154.810152 
L 436.537166 155.416673 
L 438.292435 156.393416 
L 440.047703 156.097852 
L 443.558241 157.047579 
L 445.31351 156.980725 
L 447.068779 155.305014 
L 448.824048 154.501517 
L 452.334586 154.631118 
L 457.600393 155.478123 
L 459.355662 155.959166 
L 461.110931 156.798836 
L 462.8662 156.077728 
L 464.621469 155.986014 
L 466.376738 151.579337 
L 468.132007 125.535195 
L 469.887276 131.880299 
L 471.642545 136.996123 
L 473.397814 139.863484 
L 475.153083 144.052283 
L 476.908351 147.465356 
L 478.66362 149.314459 
L 480.418889 155.614552 
L 482.174158 156.021774 
L 483.929427 155.942271 
L 487.439965 157.068333 
L 489.195234 155.345164 
L 490.950503 154.620788 
L 492.705772 154.089852 
L 496.21631 153.631274 
L 497.971579 153.680499 
L 499.726848 153.928978 
L 501.482117 155.206084 
L 503.237386 155.53954 
L 504.992655 156.17404 
L 506.747924 154.642778 
L 508.503193 150.539584 
L 510.258462 150.55569 
L 512.013731 137.815312 
L 513.768999 138.659951 
L 515.524268 140.2682 
L 517.279537 142.793772 
L 519.034806 146.996216 
L 520.790075 155.70425 
L 522.545344 156.523766 
L 524.300613 156.754709 
L 526.055882 156.795988 
L 529.56642 156.535705 
L 531.321689 155.47138 
L 533.076958 154.269264 
L 536.587496 153.510309 
L 538.342765 154.491314 
L 540.098034 155.220192 
L 541.853303 155.468273 
L 543.608572 141.431317 
L 545.363841 154.161452 
L 547.11911 155.228697 
L 548.874379 147.354785 
L 550.629647 152.499291 
L 554.140185 127.289167 
L 555.895454 132.738569 
L 557.650723 119.090546 
L 559.405992 135.393228 
L 561.161261 144.678741 
L 562.91653 150.249078 
L 564.671799 155.015527 
L 566.427068 156.061134 
L 568.182337 154.826952 
L 569.937606 155.626296 
L 571.692875 155.85565 
L 575.203413 155.050027 
L 576.958682 155.248947 
L 578.713951 154.193294 
L 580.46922 154.181754 
L 582.224489 154.004178 
L 582.224489 154.004178 
" clip-path="url(#p32623030a2)" style="fill: none; stroke: #13b58b; stroke-width: 1.5; stroke-linecap: square"/>
   </g>
   <g id="line2d_17">
    <path d="M 74.951761 155.392836 
L 76.70703 156.488869 
L 78.462299 156.981394 
L 80.217568 156.271365 
L 81.972837 139.879221 
L 83.728106 137.819552 
L 85.483375 149.717183 
L 87.238644 151.210054 
L 88.993913 136.056676 
L 90.749182 128.370246 
L 94.25972 137.940248 
L 96.014989 144.617758 
L 97.770258 150.482522 
L 99.525527 152.737934 
L 101.280796 154.189362 
L 103.036065 155.176385 
L 104.791334 155.88632 
L 106.546603 156.905563 
L 108.301871 157.438685 
L 110.05714 156.631575 
L 111.812409 155.996139 
L 113.567678 155.932261 
L 117.078216 156.328782 
L 118.833485 156.939506 
L 120.588754 157.177345 
L 122.344023 156.515759 
L 124.099292 156.618306 
L 125.854561 158.46909 
L 127.60983 150.739608 
L 129.365099 146.377437 
L 131.120368 140.981243 
L 132.875637 134.139776 
L 134.630906 134.525671 
L 136.386175 138.556225 
L 138.141444 150.290069 
L 139.896713 153.493764 
L 143.407251 155.688863 
L 145.162519 156.696293 
L 146.917788 157.464726 
L 148.673057 157.896136 
L 150.428326 157.517853 
L 153.938864 156.566601 
L 155.694133 156.289097 
L 157.449402 156.524409 
L 159.204671 157.015391 
L 160.95994 156.960394 
L 162.715209 156.766684 
L 164.470478 156.913996 
L 166.225747 157.58403 
L 167.981016 157.19589 
L 171.491554 153.809698 
L 173.246823 150.811437 
L 175.002092 130.594846 
L 178.51263 144.585845 
L 180.267899 148.196404 
L 182.023167 153.882976 
L 183.778436 155.635469 
L 185.533705 156.264325 
L 187.288974 157.813874 
L 189.044243 158.235019 
L 190.799512 158.466586 
L 192.554781 158.182932 
L 194.31005 157.44411 
L 196.065319 156.099983 
L 197.820588 156.277338 
L 199.575857 156.288525 
L 201.331126 156.597724 
L 203.086395 157.116387 
L 206.596933 156.322287 
L 208.352202 155.59448 
L 210.107471 153.161418 
L 211.86274 155.738689 
L 213.618009 155.164118 
L 215.373278 150.70772 
L 217.128547 147.032105 
L 218.883815 127.578757 
L 220.639084 140.572484 
L 222.394353 146.167781 
L 224.149622 152.3843 
L 225.904891 155.167428 
L 227.66016 156.811728 
L 229.415429 157.075296 
L 231.170698 158.032214 
L 234.681236 157.572192 
L 236.436505 156.743714 
L 238.191774 156.352234 
L 239.947043 155.421097 
L 241.702312 155.82334 
L 243.457581 154.549917 
L 245.21285 156.864732 
L 246.968119 157.072989 
L 248.723388 156.724662 
L 250.478657 152.562969 
L 252.233926 144.987126 
L 253.989195 149.613565 
L 255.744463 152.111642 
L 257.499732 150.389827 
L 259.255001 144.07102 
L 261.01027 146.881159 
L 262.765539 124.796999 
L 264.520808 143.888387 
L 266.276077 147.150735 
L 268.031346 151.316719 
L 269.786615 154.857878 
L 271.541884 156.780416 
L 273.297153 156.351553 
L 275.052422 157.367878 
L 278.56296 156.695793 
L 280.318229 155.994565 
L 282.073498 155.777159 
L 283.828767 154.913606 
L 285.584036 153.717959 
L 287.339305 155.836562 
L 289.094574 157.285805 
L 290.849843 157.399088 
L 292.605111 156.095201 
L 296.115649 156.078967 
L 297.870918 145.744743 
L 299.626187 138.735356 
L 301.381456 133.978768 
L 303.136725 123.985376 
L 304.891994 141.949196 
L 306.647263 139.954102 
L 308.402532 150.459299 
L 310.157801 154.4943 
L 311.91307 155.791253 
L 313.668339 156.363885 
L 315.423608 157.512181 
L 317.178877 157.296117 
L 318.934146 157.397114 
L 320.689415 156.748619 
L 324.199953 155.994424 
L 325.955222 156.114258 
L 329.465759 155.850024 
L 332.976297 156.051216 
L 334.731566 156.441864 
L 336.486835 136.524847 
L 338.242104 137.571748 
L 339.997373 142.119387 
L 341.752642 130.876599 
L 343.507911 136.632787 
L 345.26318 131.925068 
L 347.018449 136.007647 
L 348.773718 141.215182 
L 350.528987 149.829406 
L 352.284256 153.220408 
L 354.039525 155.280665 
L 355.794794 156.089528 
L 357.550063 156.596826 
L 359.305332 156.457912 
L 361.060601 156.679457 
L 362.81587 155.785866 
L 364.571139 155.603288 
L 366.326407 155.220263 
L 368.081676 155.862767 
L 369.836945 154.635641 
L 373.347483 156.209789 
L 375.102752 155.278873 
L 376.858021 153.83768 
L 378.61329 155.437639 
L 380.368559 153.194216 
L 382.123828 150.068631 
L 383.879097 149.584051 
L 385.634366 137.874054 
L 387.389635 135.477118 
L 389.144904 137.439272 
L 390.900173 145.503215 
L 392.655442 149.795086 
L 394.410711 155.670794 
L 396.16598 157.180942 
L 397.921249 157.776164 
L 399.676518 158.107053 
L 401.431787 158.012285 
L 403.187055 157.365339 
L 406.697593 155.411399 
L 410.208131 154.410462 
L 411.9634 154.086449 
L 413.718669 156.121688 
L 415.473938 156.589417 
L 417.229207 156.370121 
L 418.984476 155.296468 
L 420.739745 155.133019 
L 422.495014 155.508706 
L 424.250283 153.348772 
L 426.005552 134.642431 
L 427.760821 129.778735 
L 429.51609 131.101797 
L 431.271359 136.013167 
L 434.781897 153.759475 
L 436.537166 154.746112 
L 438.292435 155.938921 
L 440.047703 156.785287 
L 441.802972 157.38523 
L 443.558241 157.852318 
L 445.31351 157.556679 
L 447.068779 156.652301 
L 448.824048 156.389881 
L 452.334586 156.306372 
L 454.089855 155.975485 
L 455.845124 155.857673 
L 457.600393 156.791386 
L 459.355662 156.818824 
L 461.110931 157.527368 
L 462.8662 158.726972 
L 464.621469 159.000018 
L 466.376738 152.751083 
L 468.132007 126.209584 
L 469.887276 132.083065 
L 471.642545 136.495123 
L 473.397814 140.115537 
L 475.153083 144.981948 
L 476.908351 147.533317 
L 478.66362 148.830133 
L 480.418889 155.078609 
L 482.174158 156.630034 
L 483.929427 157.305708 
L 485.684696 157.462003 
L 487.439965 157.391893 
L 489.195234 156.071021 
L 494.461041 157.153223 
L 497.971579 156.08199 
L 499.726848 156.278046 
L 501.482117 156.760888 
L 504.992655 158.706653 
L 506.747924 156.275882 
L 508.503193 149.384178 
L 510.258462 151.17257 
L 512.013731 139.534263 
L 513.768999 138.252562 
L 515.524268 140.458709 
L 517.279537 142.006529 
L 519.034806 146.156417 
L 520.790075 155.444106 
L 522.545344 157.06995 
L 524.300613 157.848285 
L 526.055882 158.346239 
L 527.811151 158.372299 
L 531.321689 157.377601 
L 533.076958 156.447523 
L 534.832227 156.178618 
L 538.342765 156.455731 
L 540.098034 156.775902 
L 541.853303 156.903696 
L 543.608572 145.336286 
L 545.363841 152.916676 
L 547.11911 155.448144 
L 548.874379 148.132032 
L 550.629647 151.815955 
L 552.384916 136.24203 
L 554.140185 125.022039 
L 555.895454 131.964969 
L 557.650723 119.343217 
L 559.405992 136.164809 
L 561.161261 145.585673 
L 562.91653 150.933261 
L 564.671799 153.842479 
L 566.427068 156.39503 
L 568.182337 156.76445 
L 569.937606 157.60491 
L 571.692875 156.914905 
L 573.448144 155.897004 
L 575.203413 155.031406 
L 576.958682 155.330826 
L 578.713951 155.358754 
L 580.46922 154.843595 
L 582.224489 155.082532 
L 582.224489 155.082532 
" clip-path="url(#p32623030a2)" style="fill: none; stroke: #ffe699; stroke-width: 1.5; stroke-linecap: square"/>
   </g>
   <g id="line2d_18">
    <path d="M 74.951761 154.689681 
L 76.70703 156.482752 
L 78.462299 156.084328 
L 80.217568 152.021146 
L 81.972837 138.785527 
L 83.728106 138.495947 
L 85.483375 152.875682 
L 87.238644 152.067819 
L 88.993913 132.459848 
L 90.749182 126.555315 
L 92.504451 130.211358 
L 94.25972 134.619695 
L 96.014989 139.930692 
L 97.770258 147.450141 
L 99.525527 153.750726 
L 101.280796 155.011693 
L 103.036065 156.562978 
L 104.791334 157.129381 
L 106.546603 157.948323 
L 108.301871 158.066523 
L 110.05714 156.953815 
L 111.812409 155.44188 
L 113.567678 154.931509 
L 115.322947 156.799164 
L 117.078216 157.82471 
L 118.833485 157.528719 
L 120.588754 156.491534 
L 122.344023 153.40041 
L 124.099292 156.487361 
L 125.854561 160.426351 
L 127.60983 149.388233 
L 132.875637 128.996523 
L 134.630906 128.611602 
L 136.386175 131.933508 
L 138.141444 150.818002 
L 139.896713 154.470491 
L 141.651982 156.52603 
L 143.407251 157.53665 
L 145.162519 157.725331 
L 146.917788 158.429914 
L 148.673057 158.8929 
L 150.428326 158.933982 
L 152.183595 158.464409 
L 153.938864 157.354084 
L 155.694133 156.031836 
L 157.449402 156.315588 
L 159.204671 157.159633 
L 160.95994 158.561208 
L 162.715209 158.015673 
L 164.470478 156.510246 
L 166.225747 157.526362 
L 167.981016 154.973617 
L 169.736285 153.911136 
L 171.491554 153.29014 
L 173.246823 150.344554 
L 175.002092 129.972863 
L 176.757361 135.158743 
L 178.51263 138.222601 
L 180.267899 143.472446 
L 182.023167 153.6134 
L 183.778436 156.260375 
L 185.533705 157.4459 
L 187.288974 158.933988 
L 189.044243 159.917864 
L 190.799512 159.866957 
L 192.554781 159.230309 
L 194.31005 158.203981 
L 196.065319 155.640456 
L 197.820588 155.550988 
L 199.575857 154.606099 
L 201.331126 154.753128 
L 203.086395 157.299912 
L 204.841664 157.190564 
L 206.596933 156.150772 
L 208.352202 157.602422 
L 210.107471 154.058308 
L 211.86274 156.627229 
L 213.618009 154.096581 
L 215.373278 149.439864 
L 217.128547 145.939441 
L 218.883815 124.257352 
L 220.639084 136.161704 
L 222.394353 140.742554 
L 224.149622 151.651817 
L 225.904891 155.654217 
L 227.66016 157.312231 
L 229.415429 158.183707 
L 231.170698 159.617982 
L 232.925967 159.571178 
L 234.681236 158.745144 
L 236.436505 156.984193 
L 238.191774 156.036153 
L 239.947043 154.311395 
L 241.702312 154.59367 
L 243.457581 153.393982 
L 245.21285 157.512238 
L 246.968119 158.087382 
L 248.723388 157.826685 
L 250.478657 154.73038 
L 252.233926 147.901094 
L 253.989195 154.034481 
L 255.744463 154.139831 
L 257.499732 150.703441 
L 259.255001 145.000667 
L 261.01027 148.290389 
L 262.765539 122.711301 
L 264.520808 139.645627 
L 266.276077 142.752284 
L 268.031346 147.823136 
L 269.786615 154.913077 
L 271.541884 157.446632 
L 273.297153 157.672469 
L 275.052422 158.936368 
L 276.807691 158.48142 
L 278.56296 157.103893 
L 282.073498 154.14114 
L 283.828767 152.127869 
L 285.584036 152.578368 
L 287.339305 155.462434 
L 289.094574 157.582379 
L 290.849843 156.712736 
L 292.605111 155.680046 
L 294.36038 158.647276 
L 296.115649 158.199085 
L 297.870918 145.354541 
L 299.626187 135.586454 
L 301.381456 130.336474 
L 303.136725 120.419168 
L 304.891994 145.757765 
L 306.647263 137.752785 
L 308.402532 150.807987 
L 310.157801 154.205562 
L 311.91307 156.005135 
L 313.668339 156.442465 
L 315.423608 157.285493 
L 317.178877 157.222313 
L 318.934146 157.428799 
L 320.689415 157.100711 
L 324.199953 155.777606 
L 325.955222 155.405825 
L 327.710491 157.50156 
L 331.221028 158.116888 
L 332.976297 157.231587 
L 334.731566 154.709591 
L 336.486835 136.29192 
L 338.242104 133.57343 
L 339.997373 136.222672 
L 341.752642 124.85433 
L 343.507911 127.932477 
L 345.26318 124.519409 
L 347.018449 131.189769 
L 348.773718 133.219349 
L 350.528987 145.342135 
L 352.284256 152.850682 
L 354.039525 155.055533 
L 355.794794 156.032483 
L 357.550063 155.988006 
L 359.305332 156.167227 
L 361.060601 157.364253 
L 362.81587 157.406503 
L 364.571139 157.190143 
L 366.326407 155.787408 
L 368.081676 155.710954 
L 369.836945 151.537519 
L 371.592214 155.804078 
L 373.347483 157.367341 
L 376.858021 153.465416 
L 378.61329 156.41371 
L 380.368559 155.62961 
L 382.123828 150.312512 
L 383.879097 149.296711 
L 385.634366 133.297399 
L 387.389635 131.50481 
L 389.144904 131.211106 
L 390.900173 136.754326 
L 392.655442 143.072317 
L 394.410711 154.367139 
L 396.16598 156.604335 
L 397.921249 158.143395 
L 401.431787 159.296275 
L 403.187055 158.572263 
L 404.942324 157.378753 
L 406.697593 155.816212 
L 408.452862 154.860572 
L 410.208131 152.778746 
L 411.9634 155.029508 
L 413.718669 158.858444 
L 415.473938 159.9845 
L 417.229207 157.959004 
L 418.984476 156.340434 
L 420.739745 156.500575 
L 422.495014 155.151761 
L 424.250283 152.551001 
L 426.005552 128.604172 
L 427.760821 130.174655 
L 429.51609 131.501682 
L 431.271359 134.338343 
L 433.026628 144.368653 
L 434.781897 153.456804 
L 436.537166 155.454903 
L 438.292435 156.923858 
L 441.802972 158.476566 
L 443.558241 158.87969 
L 445.31351 158.372933 
L 447.068779 157.014234 
L 450.579317 155.273824 
L 455.845124 154.820666 
L 457.600393 155.439921 
L 459.355662 156.5213 
L 461.110931 158.251266 
L 462.8662 158.758901 
L 464.621469 157.68749 
L 466.376738 146.878611 
L 468.132007 121.86202 
L 469.887276 127.556762 
L 471.642545 132.059228 
L 473.397814 134.997233 
L 475.153083 140.630241 
L 476.908351 143.854826 
L 478.66362 145.768226 
L 480.418889 156.556686 
L 482.174158 157.881098 
L 483.929427 158.322127 
L 485.684696 158.419048 
L 487.439965 158.178142 
L 489.195234 156.798178 
L 490.950503 155.983206 
L 492.705772 154.198169 
L 494.461041 154.016175 
L 496.21631 154.377774 
L 497.971579 157.21971 
L 499.726848 158.067213 
L 501.482117 158.477512 
L 503.237386 159.547923 
L 504.992655 159.564795 
L 506.747924 155.865493 
L 508.503193 149.007616 
L 510.258462 153.253067 
L 512.013731 137.721918 
L 513.768999 135.1881 
L 515.524268 136.022028 
L 517.279537 136.646535 
L 519.034806 140.434741 
L 520.790075 154.86953 
L 522.545344 158.1846 
L 524.300613 158.024996 
L 526.055882 158.409073 
L 529.56642 157.778577 
L 531.321689 157.24001 
L 533.076958 155.704032 
L 534.832227 155.060775 
L 536.587496 155.259487 
L 538.342765 154.822935 
L 540.098034 157.858295 
L 541.853303 157.98986 
L 543.608572 146.055939 
L 545.363841 156.177769 
L 547.11911 157.480974 
L 548.874379 146.155858 
L 550.629647 149.555818 
L 554.140185 119.511966 
L 555.895454 125.033876 
L 557.650723 115.2318 
L 559.405992 129.471729 
L 561.161261 138.367324 
L 562.91653 149.360473 
L 564.671799 154.782759 
L 566.427068 156.254658 
L 568.182337 157.476568 
L 569.937606 157.970081 
L 571.692875 157.552849 
L 573.448144 156.53149 
L 575.203413 155.303599 
L 576.958682 155.086207 
L 578.713951 154.261515 
L 580.46922 154.229299 
L 582.224489 155.163209 
L 582.224489 155.163209 
" clip-path="url(#p32623030a2)" style="fill: none; stroke: #b03a3a; stroke-width: 1.5; stroke-linecap: square"/>
   </g>
   <g id="patch_3">
    <path d="M 49.588125 173.52 
L 49.588125 7.2 
" style="fill: none; stroke: #000000; stroke-width: 0.8; stroke-linejoin: miter; stroke-linecap: square"/>
   </g>
   <g id="patch_4">
    <path d="M 607.588125 173.52 
L 607.588125 7.2 
" style="fill: none; stroke: #000000; stroke-width: 0.8; stroke-linejoin: miter; stroke-linecap: square"/>
   </g>
   <g id="patch_5">
    <path d="M 49.588125 173.52 
L 607.588125 173.52 
" style="fill: none; stroke: #000000; stroke-width: 0.8; stroke-linejoin: miter; stroke-linecap: square"/>
   </g>
   <g id="patch_6">
    <path d="M 49.588125 7.2 
L 607.588125 7.2 
" style="fill: none; stroke: #000000; stroke-width: 0.8; stroke-linejoin: miter; stroke-linecap: square"/>
   </g>
   <g id="legend_1">
    <g id="patch_7">
     <path d="M 59.388125 121.146875 
L 192.256875 121.146875 
Q 195.056875 121.146875 195.056875 118.346875 
L 195.056875 17 
Q 195.056875 14.2 192.256875 14.2 
L 59.388125 14.2 
Q 56.588125 14.2 56.588125 17 
L 56.588125 118.346875 
Q 56.588125 121.146875 59.388125 121.146875 
z
" style="fill: #ffffff; opacity: 0.8; stroke: #cccccc; stroke-linejoin: miter"/>
    </g>
    <g id="line2d_19">
     <path d="M 62.188125 25.537813 
L 76.188125 25.537813 
L 90.188125 25.537813 
" style="fill: none; stroke: #13748b; stroke-width: 1.5; stroke-linecap: square"/>
    </g>
    <g id="text_16">
     <!-- True -->
     <g transform="translate(101.388125 30.437813) scale(0.14 -0.14)">
      <defs>
       <path id="DejaVuSans-72" d="M 2631 2963 
Q 2534 3019 2420 3045 
Q 2306 3072 2169 3072 
Q 1681 3072 1420 2755 
Q 1159 2438 1159 1844 
L 1159 0 
L 581 0 
L 581 3500 
L 1159 3500 
L 1159 2956 
Q 1341 3275 1631 3429 
Q 1922 3584 2338 3584 
Q 2397 3584 2469 3576 
Q 2541 3569 2628 3553 
L 2631 2963 
z
" transform="scale(0.015625)"/>
       <path id="DejaVuSans-75" d="M 544 1381 
L 544 3500 
L 1119 3500 
L 1119 1403 
Q 1119 906 1312 657 
Q 1506 409 1894 409 
Q 2359 409 2629 706 
Q 2900 1003 2900 1516 
L 2900 3500 
L 3475 3500 
L 3475 0 
L 2900 0 
L 2900 538 
Q 2691 219 2414 64 
Q 2138 -91 1772 -91 
Q 1169 -91 856 284 
Q 544 659 544 1381 
z
M 1991 3584 
L 1991 3584 
z
" transform="scale(0.015625)"/>
      </defs>
      <use xlink:href="#DejaVuSans-54"/>
      <use xlink:href="#DejaVuSans-72" x="46.333984"/>
      <use xlink:href="#DejaVuSans-75" x="87.447266"/>
      <use xlink:href="#DejaVuSans-65" x="150.826172"/>
     </g>
    </g>
    <g id="line2d_20">
     <path d="M 62.188125 46.087188 
L 76.188125 46.087188 
L 90.188125 46.087188 
" style="fill: none; stroke: #a0a7bc; stroke-width: 1.5; stroke-linecap: square"/>
    </g>
    <g id="text_17">
     <!-- Soft Dense -->
     <g transform="translate(101.388125 50.987188) scale(0.14 -0.14)">
      <defs>
       <path id="DejaVuSans-53" d="M 3425 4513 
L 3425 3897 
Q 3066 4069 2747 4153 
Q 2428 4238 2131 4238 
Q 1616 4238 1336 4038 
Q 1056 3838 1056 3469 
Q 1056 3159 1242 3001 
Q 1428 2844 1947 2747 
L 2328 2669 
Q 3034 2534 3370 2195 
Q 3706 1856 3706 1288 
Q 3706 609 3251 259 
Q 2797 -91 1919 -91 
Q 1588 -91 1214 -16 
Q 841 59 441 206 
L 441 856 
Q 825 641 1194 531 
Q 1563 422 1919 422 
Q 2459 422 2753 634 
Q 3047 847 3047 1241 
Q 3047 1584 2836 1778 
Q 2625 1972 2144 2069 
L 1759 2144 
Q 1053 2284 737 2584 
Q 422 2884 422 3419 
Q 422 4038 858 4394 
Q 1294 4750 2059 4750 
Q 2388 4750 2728 4690 
Q 3069 4631 3425 4513 
z
" transform="scale(0.015625)"/>
       <path id="DejaVuSans-66" d="M 2375 4863 
L 2375 4384 
L 1825 4384 
Q 1516 4384 1395 4259 
Q 1275 4134 1275 3809 
L 1275 3500 
L 2222 3500 
L 2222 3053 
L 1275 3053 
L 1275 0 
L 697 0 
L 697 3053 
L 147 3053 
L 147 3500 
L 697 3500 
L 697 3744 
Q 697 4328 969 4595 
Q 1241 4863 1831 4863 
L 2375 4863 
z
" transform="scale(0.015625)"/>
       <path id="DejaVuSans-74" d="M 1172 4494 
L 1172 3500 
L 2356 3500 
L 2356 3053 
L 1172 3053 
L 1172 1153 
Q 1172 725 1289 603 
Q 1406 481 1766 481 
L 2356 481 
L 2356 0 
L 1766 0 
Q 1100 0 847 248 
Q 594 497 594 1153 
L 594 3053 
L 172 3053 
L 172 3500 
L 594 3500 
L 594 4494 
L 1172 4494 
z
" transform="scale(0.015625)"/>
       <path id="DejaVuSans-44" d="M 1259 4147 
L 1259 519 
L 2022 519 
Q 2988 519 3436 956 
Q 3884 1394 3884 2338 
Q 3884 3275 3436 3711 
Q 2988 4147 2022 4147 
L 1259 4147 
z
M 628 4666 
L 1925 4666 
Q 3281 4666 3915 4102 
Q 4550 3538 4550 2338 
Q 4550 1131 3912 565 
Q 3275 0 1925 0 
L 628 0 
L 628 4666 
z
" transform="scale(0.015625)"/>
       <path id="DejaVuSans-6e" d="M 3513 2113 
L 3513 0 
L 2938 0 
L 2938 2094 
Q 2938 2591 2744 2837 
Q 2550 3084 2163 3084 
Q 1697 3084 1428 2787 
Q 1159 2491 1159 1978 
L 1159 0 
L 581 0 
L 581 3500 
L 1159 3500 
L 1159 2956 
Q 1366 3272 1645 3428 
Q 1925 3584 2291 3584 
Q 2894 3584 3203 3211 
Q 3513 2838 3513 2113 
z
" transform="scale(0.015625)"/>
       <path id="DejaVuSans-73" d="M 2834 3397 
L 2834 2853 
Q 2591 2978 2328 3040 
Q 2066 3103 1784 3103 
Q 1356 3103 1142 2972 
Q 928 2841 928 2578 
Q 928 2378 1081 2264 
Q 1234 2150 1697 2047 
L 1894 2003 
Q 2506 1872 2764 1633 
Q 3022 1394 3022 966 
Q 3022 478 2636 193 
Q 2250 -91 1575 -91 
Q 1294 -91 989 -36 
Q 684 19 347 128 
L 347 722 
Q 666 556 975 473 
Q 1284 391 1588 391 
Q 1994 391 2212 530 
Q 2431 669 2431 922 
Q 2431 1156 2273 1281 
Q 2116 1406 1581 1522 
L 1381 1569 
Q 847 1681 609 1914 
Q 372 2147 372 2553 
Q 372 3047 722 3315 
Q 1072 3584 1716 3584 
Q 2034 3584 2315 3537 
Q 2597 3491 2834 3397 
z
" transform="scale(0.015625)"/>
      </defs>
      <use xlink:href="#DejaVuSans-53"/>
      <use xlink:href="#DejaVuSans-6f" x="63.476562"/>
      <use xlink:href="#DejaVuSans-66" x="124.658203"/>
      <use xlink:href="#DejaVuSans-74" x="158.113281"/>
      <use xlink:href="#DejaVuSans-20" x="197.322266"/>
      <use xlink:href="#DejaVuSans-44" x="229.109375"/>
      <use xlink:href="#DejaVuSans-65" x="306.111328"/>
      <use xlink:href="#DejaVuSans-6e" x="367.634766"/>
      <use xlink:href="#DejaVuSans-73" x="431.013672"/>
      <use xlink:href="#DejaVuSans-65" x="483.113281"/>
     </g>
    </g>
    <g id="line2d_21">
     <path d="M 62.188125 66.636563 
L 76.188125 66.636563 
L 90.188125 66.636563 
" style="fill: none; stroke: #13b58b; stroke-width: 1.5; stroke-linecap: square"/>
    </g>
    <g id="text_18">
     <!-- TopK Dense -->
     <g transform="translate(101.388125 71.536563) scale(0.14 -0.14)">
      <defs>
       <path id="DejaVuSans-70" d="M 1159 525 
L 1159 -1331 
L 581 -1331 
L 581 3500 
L 1159 3500 
L 1159 2969 
Q 1341 3281 1617 3432 
Q 1894 3584 2278 3584 
Q 2916 3584 3314 3078 
Q 3713 2572 3713 1747 
Q 3713 922 3314 415 
Q 2916 -91 2278 -91 
Q 1894 -91 1617 61 
Q 1341 213 1159 525 
z
M 3116 1747 
Q 3116 2381 2855 2742 
Q 2594 3103 2138 3103 
Q 1681 3103 1420 2742 
Q 1159 2381 1159 1747 
Q 1159 1113 1420 752 
Q 1681 391 2138 391 
Q 2594 391 2855 752 
Q 3116 1113 3116 1747 
z
" transform="scale(0.015625)"/>
       <path id="DejaVuSans-4b" d="M 628 4666 
L 1259 4666 
L 1259 2694 
L 3353 4666 
L 4166 4666 
L 1850 2491 
L 4331 0 
L 3500 0 
L 1259 2247 
L 1259 0 
L 628 0 
L 628 4666 
z
" transform="scale(0.015625)"/>
      </defs>
      <use xlink:href="#DejaVuSans-54"/>
      <use xlink:href="#DejaVuSans-6f" x="44.083984"/>
      <use xlink:href="#DejaVuSans-70" x="105.265625"/>
      <use xlink:href="#DejaVuSans-4b" x="168.742188"/>
      <use xlink:href="#DejaVuSans-20" x="234.318359"/>
      <use xlink:href="#DejaVuSans-44" x="266.105469"/>
      <use xlink:href="#DejaVuSans-65" x="343.107422"/>
      <use xlink:href="#DejaVuSans-6e" x="404.630859"/>
      <use xlink:href="#DejaVuSans-73" x="468.009766"/>
      <use xlink:href="#DejaVuSans-65" x="520.109375"/>
     </g>
    </g>
    <g id="line2d_22">
     <path d="M 62.188125 87.185938 
L 76.188125 87.185938 
L 90.188125 87.185938 
" style="fill: none; stroke: #ffe699; stroke-width: 1.5; stroke-linecap: square"/>
    </g>
    <g id="text_19">
     <!-- TopK BiLSTM -->
     <g transform="translate(101.388125 92.085938) scale(0.14 -0.14)">
      <defs>
       <path id="DejaVuSans-42" d="M 1259 2228 
L 1259 519 
L 2272 519 
Q 2781 519 3026 730 
Q 3272 941 3272 1375 
Q 3272 1813 3026 2020 
Q 2781 2228 2272 2228 
L 1259 2228 
z
M 1259 4147 
L 1259 2741 
L 2194 2741 
Q 2656 2741 2882 2914 
Q 3109 3088 3109 3444 
Q 3109 3797 2882 3972 
Q 2656 4147 2194 4147 
L 1259 4147 
z
M 628 4666 
L 2241 4666 
Q 2963 4666 3353 4366 
Q 3744 4066 3744 3513 
Q 3744 3084 3544 2831 
Q 3344 2578 2956 2516 
Q 3422 2416 3680 2098 
Q 3938 1781 3938 1306 
Q 3938 681 3513 340 
Q 3088 0 2303 0 
L 628 0 
L 628 4666 
z
" transform="scale(0.015625)"/>
       <path id="DejaVuSans-4d" d="M 628 4666 
L 1569 4666 
L 2759 1491 
L 3956 4666 
L 4897 4666 
L 4897 0 
L 4281 0 
L 4281 4097 
L 3078 897 
L 2444 897 
L 1241 4097 
L 1241 0 
L 628 0 
L 628 4666 
z
" transform="scale(0.015625)"/>
      </defs>
      <use xlink:href="#DejaVuSans-54"/>
      <use xlink:href="#DejaVuSans-6f" x="44.083984"/>
      <use xlink:href="#DejaVuSans-70" x="105.265625"/>
      <use xlink:href="#DejaVuSans-4b" x="168.742188"/>
      <use xlink:href="#DejaVuSans-20" x="234.318359"/>
      <use xlink:href="#DejaVuSans-42" x="266.105469"/>
      <use xlink:href="#DejaVuSans-69" x="334.708984"/>
      <use xlink:href="#DejaVuSans-4c" x="362.492188"/>
      <use xlink:href="#DejaVuSans-53" x="418.205078"/>
      <use xlink:href="#DejaVuSans-54" x="481.681641"/>
      <use xlink:href="#DejaVuSans-4d" x="542.765625"/>
     </g>
    </g>
    <g id="line2d_23">
     <path d="M 62.188125 107.735313 
L 76.188125 107.735313 
L 90.188125 107.735313 
" style="fill: none; stroke: #b03a3a; stroke-width: 1.5; stroke-linecap: square"/>
    </g>
    <g id="text_20">
     <!-- Soft BiLSTM -->
     <g transform="translate(101.388125 112.635313) scale(0.14 -0.14)">
      <use xlink:href="#DejaVuSans-53"/>
      <use xlink:href="#DejaVuSans-6f" x="63.476562"/>
      <use xlink:href="#DejaVuSans-66" x="124.658203"/>
      <use xlink:href="#DejaVuSans-74" x="158.113281"/>
      <use xlink:href="#DejaVuSans-20" x="197.322266"/>
      <use xlink:href="#DejaVuSans-42" x="229.109375"/>
      <use xlink:href="#DejaVuSans-69" x="297.712891"/>
      <use xlink:href="#DejaVuSans-4c" x="325.496094"/>
      <use xlink:href="#DejaVuSans-53" x="381.208984"/>
      <use xlink:href="#DejaVuSans-54" x="444.685547"/>
      <use xlink:href="#DejaVuSans-4d" x="505.769531"/>
     </g>
    </g>
   </g>
  </g>
 </g>
 <defs>
  <clipPath id="p32623030a2">
   <rect x="49.588125" y="7.2" width="558" height="166.32"/>
  </clipPath>
 </defs>
</svg>
