<?xml version="1.0" encoding="utf-8" standalone="no"?>
<!DOCTYPE svg PUBLIC "-//W3C//DTD SVG 1.1//EN"
  "http://www.w3.org/Graphics/SVG/1.1/DTD/svg11.dtd">
<svg xmlns:xlink="http://www.w3.org/1999/xlink" width="711.176341pt" height="207.594375pt" viewBox="0 0 711.176341 207.594375" xmlns="http://www.w3.org/2000/svg" version="1.1">
 <metadata>
  <rdf:RDF xmlns:dc="http://purl.org/dc/elements/1.1/" xmlns:cc="http://creativecommons.org/ns#" xmlns:rdf="http://www.w3.org/1999/02/22-rdf-syntax-ns#">
   <cc:Work>
    <dc:type rdf:resource="http://purl.org/dc/dcmitype/StillImage"/>
    <dc:date>2023-09-29T17:03:09.041009</dc:date>
    <dc:format>image/svg+xml</dc:format>
    <dc:creator>
     <cc:Agent>
      <dc:title>Matplotlib v3.7.2, https://matplotlib.org/</dc:title>
     </cc:Agent>
    </dc:creator>
   </cc:Work>
  </rdf:RDF>
 </metadata>
 <defs>
  <style type="text/css">*{stroke-linejoin: round; stroke-linecap: butt}</style>
 </defs>
 <g id="figure_1">
  <g id="patch_1">
   <path d="M 0 207.594375 
L 711.176341 207.594375 
L 711.176341 0 
L 0 0 
z
" style="fill: #ffffff"/>
  </g>
  <g id="axes_1">
   <g id="patch_2">
    <path d="M 53.459375 160.36 
L 701.465053 160.36 
L 701.465053 7.2 
L 53.459375 7.2 
z
" style="fill: #ffffff"/>
   </g>
   <g id="matplotlib.axis_1">
    <g id="xtick_1">
     <g id="line2d_1">
      <defs>
       <path id="m2622a186b3" d="M 0 0 
L 0 3.5 
" style="stroke: #000000; stroke-width: 0.8"/>
      </defs>
      <g>
       <use xlink:href="#m2622a186b3" x="82.914179" y="160.36" style="stroke: #000000; stroke-width: 0.8"/>
      </g>
     </g>
     <g id="text_1">
      <!-- 0 -->
      <g transform="translate(79.732929 174.958437) scale(0.1 -0.1)">
       <defs>
        <path id="DejaVuSans-30" d="M 2034 4250 
Q 1547 4250 1301 3770 
Q 1056 3291 1056 2328 
Q 1056 1369 1301 889 
Q 1547 409 2034 409 
Q 2525 409 2770 889 
Q 3016 1369 3016 2328 
Q 3016 3291 2770 3770 
Q 2525 4250 2034 4250 
z
M 2034 4750 
Q 2819 4750 3233 4129 
Q 3647 3509 3647 2328 
Q 3647 1150 3233 529 
Q 2819 -91 2034 -91 
Q 1250 -91 836 529 
Q 422 1150 422 2328 
Q 422 3509 836 4129 
Q 1250 4750 2034 4750 
z
" transform="scale(0.015625)"/>
       </defs>
       <use xlink:href="#DejaVuSans-30"/>
      </g>
     </g>
    </g>
    <g id="xtick_2">
     <g id="line2d_2">
      <g>
       <use xlink:href="#m2622a186b3" x="184.833914" y="160.36" style="stroke: #000000; stroke-width: 0.8"/>
      </g>
     </g>
     <g id="text_2">
      <!-- 50 -->
      <g transform="translate(178.471414 174.958437) scale(0.1 -0.1)">
       <defs>
        <path id="DejaVuSans-35" d="M 691 4666 
L 3169 4666 
L 3169 4134 
L 1269 4134 
L 1269 2991 
Q 1406 3038 1543 3061 
Q 1681 3084 1819 3084 
Q 2600 3084 3056 2656 
Q 3513 2228 3513 1497 
Q 3513 744 3044 326 
Q 2575 -91 1722 -91 
Q 1428 -91 1123 -41 
Q 819 9 494 109 
L 494 744 
Q 775 591 1075 516 
Q 1375 441 1709 441 
Q 2250 441 2565 725 
Q 2881 1009 2881 1497 
Q 2881 1984 2565 2268 
Q 2250 2553 1709 2553 
Q 1456 2553 1204 2497 
Q 953 2441 691 2322 
L 691 4666 
z
" transform="scale(0.015625)"/>
       </defs>
       <use xlink:href="#DejaVuSans-35"/>
       <use xlink:href="#DejaVuSans-30" x="63.623047"/>
      </g>
     </g>
    </g>
    <g id="xtick_3">
     <g id="line2d_3">
      <g>
       <use xlink:href="#m2622a186b3" x="286.753649" y="160.36" style="stroke: #000000; stroke-width: 0.8"/>
      </g>
     </g>
     <g id="text_3">
      <!-- 100 -->
      <g transform="translate(277.209899 174.958437) scale(0.1 -0.1)">
       <defs>
        <path id="DejaVuSans-31" d="M 794 531 
L 1825 531 
L 1825 4091 
L 703 3866 
L 703 4441 
L 1819 4666 
L 2450 4666 
L 2450 531 
L 3481 531 
L 3481 0 
L 794 0 
L 794 531 
z
" transform="scale(0.015625)"/>
       </defs>
       <use xlink:href="#DejaVuSans-31"/>
       <use xlink:href="#DejaVuSans-30" x="63.623047"/>
       <use xlink:href="#DejaVuSans-30" x="127.246094"/>
      </g>
     </g>
    </g>
    <g id="xtick_4">
     <g id="line2d_4">
      <g>
       <use xlink:href="#m2622a186b3" x="388.673385" y="160.36" style="stroke: #000000; stroke-width: 0.8"/>
      </g>
     </g>
     <g id="text_4">
      <!-- 150 -->
      <g transform="translate(379.129635 174.958437) scale(0.1 -0.1)">
       <use xlink:href="#DejaVuSans-31"/>
       <use xlink:href="#DejaVuSans-35" x="63.623047"/>
       <use xlink:href="#DejaVuSans-30" x="127.246094"/>
      </g>
     </g>
    </g>
    <g id="xtick_5">
     <g id="line2d_5">
      <g>
       <use xlink:href="#m2622a186b3" x="490.59312" y="160.36" style="stroke: #000000; stroke-width: 0.8"/>
      </g>
     </g>
     <g id="text_5">
      <!-- 200 -->
      <g transform="translate(481.04937 174.958437) scale(0.1 -0.1)">
       <defs>
        <path id="DejaVuSans-32" d="M 1228 531 
L 3431 531 
L 3431 0 
L 469 0 
L 469 531 
Q 828 903 1448 1529 
Q 2069 2156 2228 2338 
Q 2531 2678 2651 2914 
Q 2772 3150 2772 3378 
Q 2772 3750 2511 3984 
Q 2250 4219 1831 4219 
Q 1534 4219 1204 4116 
Q 875 4013 500 3803 
L 500 4441 
Q 881 4594 1212 4672 
Q 1544 4750 1819 4750 
Q 2544 4750 2975 4387 
Q 3406 4025 3406 3419 
Q 3406 3131 3298 2873 
Q 3191 2616 2906 2266 
Q 2828 2175 2409 1742 
Q 1991 1309 1228 531 
z
" transform="scale(0.015625)"/>
       </defs>
       <use xlink:href="#DejaVuSans-32"/>
       <use xlink:href="#DejaVuSans-30" x="63.623047"/>
       <use xlink:href="#DejaVuSans-30" x="127.246094"/>
      </g>
     </g>
    </g>
    <g id="xtick_6">
     <g id="line2d_6">
      <g>
       <use xlink:href="#m2622a186b3" x="592.512856" y="160.36" style="stroke: #000000; stroke-width: 0.8"/>
      </g>
     </g>
     <g id="text_6">
      <!-- 250 -->
      <g transform="translate(582.969106 174.958437) scale(0.1 -0.1)">
       <use xlink:href="#DejaVuSans-32"/>
       <use xlink:href="#DejaVuSans-35" x="63.623047"/>
       <use xlink:href="#DejaVuSans-30" x="127.246094"/>
      </g>
     </g>
    </g>
    <g id="xtick_7">
     <g id="line2d_7">
      <g>
       <use xlink:href="#m2622a186b3" x="694.432591" y="160.36" style="stroke: #000000; stroke-width: 0.8"/>
      </g>
     </g>
     <g id="text_7">
      <!-- 300 -->
      <g transform="translate(684.888841 174.958437) scale(0.1 -0.1)">
       <defs>
        <path id="DejaVuSans-33" d="M 2597 2516 
Q 3050 2419 3304 2112 
Q 3559 1806 3559 1356 
Q 3559 666 3084 287 
Q 2609 -91 1734 -91 
Q 1441 -91 1130 -33 
Q 819 25 488 141 
L 488 750 
Q 750 597 1062 519 
Q 1375 441 1716 441 
Q 2309 441 2620 675 
Q 2931 909 2931 1356 
Q 2931 1769 2642 2001 
Q 2353 2234 1838 2234 
L 1294 2234 
L 1294 2753 
L 1863 2753 
Q 2328 2753 2575 2939 
Q 2822 3125 2822 3475 
Q 2822 3834 2567 4026 
Q 2313 4219 1838 4219 
Q 1578 4219 1281 4162 
Q 984 4106 628 3988 
L 628 4550 
Q 988 4650 1302 4700 
Q 1616 4750 1894 4750 
Q 2613 4750 3031 4423 
Q 3450 4097 3450 3541 
Q 3450 3153 3228 2886 
Q 3006 2619 2597 2516 
z
" transform="scale(0.015625)"/>
       </defs>
       <use xlink:href="#DejaVuSans-33"/>
       <use xlink:href="#DejaVuSans-30" x="63.623047"/>
       <use xlink:href="#DejaVuSans-30" x="127.246094"/>
      </g>
     </g>
    </g>
    <g id="text_8">
     <!-- Time -->
     <g transform="translate(352.995026 196.235) scale(0.2 -0.2)">
      <defs>
       <path id="DejaVuSans-54" d="M -19 4666 
L 3928 4666 
L 3928 4134 
L 2272 4134 
L 2272 0 
L 1638 0 
L 1638 4134 
L -19 4134 
L -19 4666 
z
" transform="scale(0.015625)"/>
       <path id="DejaVuSans-69" d="M 603 3500 
L 1178 3500 
L 1178 0 
L 603 0 
L 603 3500 
z
M 603 4863 
L 1178 4863 
L 1178 4134 
L 603 4134 
L 603 4863 
z
" transform="scale(0.015625)"/>
       <path id="DejaVuSans-6d" d="M 3328 2828 
Q 3544 3216 3844 3400 
Q 4144 3584 4550 3584 
Q 5097 3584 5394 3201 
Q 5691 2819 5691 2113 
L 5691 0 
L 5113 0 
L 5113 2094 
Q 5113 2597 4934 2840 
Q 4756 3084 4391 3084 
Q 3944 3084 3684 2787 
Q 3425 2491 3425 1978 
L 3425 0 
L 2847 0 
L 2847 2094 
Q 2847 2600 2669 2842 
Q 2491 3084 2119 3084 
Q 1678 3084 1418 2786 
Q 1159 2488 1159 1978 
L 1159 0 
L 581 0 
L 581 3500 
L 1159 3500 
L 1159 2956 
Q 1356 3278 1631 3431 
Q 1906 3584 2284 3584 
Q 2666 3584 2933 3390 
Q 3200 3197 3328 2828 
z
" transform="scale(0.015625)"/>
       <path id="DejaVuSans-65" d="M 3597 1894 
L 3597 1613 
L 953 1613 
Q 991 1019 1311 708 
Q 1631 397 2203 397 
Q 2534 397 2845 478 
Q 3156 559 3463 722 
L 3463 178 
Q 3153 47 2828 -22 
Q 2503 -91 2169 -91 
Q 1331 -91 842 396 
Q 353 884 353 1716 
Q 353 2575 817 3079 
Q 1281 3584 2069 3584 
Q 2775 3584 3186 3129 
Q 3597 2675 3597 1894 
z
M 3022 2063 
Q 3016 2534 2758 2815 
Q 2500 3097 2075 3097 
Q 1594 3097 1305 2825 
Q 1016 2553 972 2059 
L 3022 2063 
z
" transform="scale(0.015625)"/>
      </defs>
      <use xlink:href="#DejaVuSans-54"/>
      <use xlink:href="#DejaVuSans-69" x="57.958984"/>
      <use xlink:href="#DejaVuSans-6d" x="85.742188"/>
      <use xlink:href="#DejaVuSans-65" x="183.154297"/>
     </g>
    </g>
   </g>
   <g id="matplotlib.axis_2">
    <g id="ytick_1">
     <g id="line2d_8">
      <defs>
       <path id="m4816f10571" d="M 0 0 
L -3.5 0 
" style="stroke: #000000; stroke-width: 0.8"/>
      </defs>
      <g>
       <use xlink:href="#m4816f10571" x="53.459375" y="151.123849" style="stroke: #000000; stroke-width: 0.8"/>
      </g>
     </g>
     <g id="text_9">
      <!-- 0.0 -->
      <g transform="translate(30.55625 154.923067) scale(0.1 -0.1)">
       <defs>
        <path id="DejaVuSans-2e" d="M 684 794 
L 1344 794 
L 1344 0 
L 684 0 
L 684 794 
z
" transform="scale(0.015625)"/>
       </defs>
       <use xlink:href="#DejaVuSans-30"/>
       <use xlink:href="#DejaVuSans-2e" x="63.623047"/>
       <use xlink:href="#DejaVuSans-30" x="95.410156"/>
      </g>
     </g>
    </g>
    <g id="ytick_2">
     <g id="line2d_9">
      <g>
       <use xlink:href="#m4816f10571" x="53.459375" y="123.731443" style="stroke: #000000; stroke-width: 0.8"/>
      </g>
     </g>
     <g id="text_10">
      <!-- 0.2 -->
      <g transform="translate(30.55625 127.530661) scale(0.1 -0.1)">
       <use xlink:href="#DejaVuSans-30"/>
       <use xlink:href="#DejaVuSans-2e" x="63.623047"/>
       <use xlink:href="#DejaVuSans-32" x="95.410156"/>
      </g>
     </g>
    </g>
    <g id="ytick_3">
     <g id="line2d_10">
      <g>
       <use xlink:href="#m4816f10571" x="53.459375" y="96.339036" style="stroke: #000000; stroke-width: 0.8"/>
      </g>
     </g>
     <g id="text_11">
      <!-- 0.4 -->
      <g transform="translate(30.55625 100.138255) scale(0.1 -0.1)">
       <defs>
        <path id="DejaVuSans-34" d="M 2419 4116 
L 825 1625 
L 2419 1625 
L 2419 4116 
z
M 2253 4666 
L 3047 4666 
L 3047 1625 
L 3713 1625 
L 3713 1100 
L 3047 1100 
L 3047 0 
L 2419 0 
L 2419 1100 
L 313 1100 
L 313 1709 
L 2253 4666 
z
" transform="scale(0.015625)"/>
       </defs>
       <use xlink:href="#DejaVuSans-30"/>
       <use xlink:href="#DejaVuSans-2e" x="63.623047"/>
       <use xlink:href="#DejaVuSans-34" x="95.410156"/>
      </g>
     </g>
    </g>
    <g id="ytick_4">
     <g id="line2d_11">
      <g>
       <use xlink:href="#m4816f10571" x="53.459375" y="68.94663" style="stroke: #000000; stroke-width: 0.8"/>
      </g>
     </g>
     <g id="text_12">
      <!-- 0.6 -->
      <g transform="translate(30.55625 72.745849) scale(0.1 -0.1)">
       <defs>
        <path id="DejaVuSans-36" d="M 2113 2584 
Q 1688 2584 1439 2293 
Q 1191 2003 1191 1497 
Q 1191 994 1439 701 
Q 1688 409 2113 409 
Q 2538 409 2786 701 
Q 3034 994 3034 1497 
Q 3034 2003 2786 2293 
Q 2538 2584 2113 2584 
z
M 3366 4563 
L 3366 3988 
Q 3128 4100 2886 4159 
Q 2644 4219 2406 4219 
Q 1781 4219 1451 3797 
Q 1122 3375 1075 2522 
Q 1259 2794 1537 2939 
Q 1816 3084 2150 3084 
Q 2853 3084 3261 2657 
Q 3669 2231 3669 1497 
Q 3669 778 3244 343 
Q 2819 -91 2113 -91 
Q 1303 -91 875 529 
Q 447 1150 447 2328 
Q 447 3434 972 4092 
Q 1497 4750 2381 4750 
Q 2619 4750 2861 4703 
Q 3103 4656 3366 4563 
z
" transform="scale(0.015625)"/>
       </defs>
       <use xlink:href="#DejaVuSans-30"/>
       <use xlink:href="#DejaVuSans-2e" x="63.623047"/>
       <use xlink:href="#DejaVuSans-36" x="95.410156"/>
      </g>
     </g>
    </g>
    <g id="ytick_5">
     <g id="line2d_12">
      <g>
       <use xlink:href="#m4816f10571" x="53.459375" y="41.554224" style="stroke: #000000; stroke-width: 0.8"/>
      </g>
     </g>
     <g id="text_13">
      <!-- 0.8 -->
      <g transform="translate(30.55625 45.353443) scale(0.1 -0.1)">
       <defs>
        <path id="DejaVuSans-38" d="M 2034 2216 
Q 1584 2216 1326 1975 
Q 1069 1734 1069 1313 
Q 1069 891 1326 650 
Q 1584 409 2034 409 
Q 2484 409 2743 651 
Q 3003 894 3003 1313 
Q 3003 1734 2745 1975 
Q 2488 2216 2034 2216 
z
M 1403 2484 
Q 997 2584 770 2862 
Q 544 3141 544 3541 
Q 544 4100 942 4425 
Q 1341 4750 2034 4750 
Q 2731 4750 3128 4425 
Q 3525 4100 3525 3541 
Q 3525 3141 3298 2862 
Q 3072 2584 2669 2484 
Q 3125 2378 3379 2068 
Q 3634 1759 3634 1313 
Q 3634 634 3220 271 
Q 2806 -91 2034 -91 
Q 1263 -91 848 271 
Q 434 634 434 1313 
Q 434 1759 690 2068 
Q 947 2378 1403 2484 
z
M 1172 3481 
Q 1172 3119 1398 2916 
Q 1625 2713 2034 2713 
Q 2441 2713 2670 2916 
Q 2900 3119 2900 3481 
Q 2900 3844 2670 4047 
Q 2441 4250 2034 4250 
Q 1625 4250 1398 4047 
Q 1172 3844 1172 3481 
z
" transform="scale(0.015625)"/>
       </defs>
       <use xlink:href="#DejaVuSans-30"/>
       <use xlink:href="#DejaVuSans-2e" x="63.623047"/>
       <use xlink:href="#DejaVuSans-38" x="95.410156"/>
      </g>
     </g>
    </g>
    <g id="ytick_6">
     <g id="line2d_13">
      <g>
       <use xlink:href="#m4816f10571" x="53.459375" y="14.161818" style="stroke: #000000; stroke-width: 0.8"/>
      </g>
     </g>
     <g id="text_14">
      <!-- 1.0 -->
      <g transform="translate(30.55625 17.961037) scale(0.1 -0.1)">
       <use xlink:href="#DejaVuSans-31"/>
       <use xlink:href="#DejaVuSans-2e" x="63.623047"/>
       <use xlink:href="#DejaVuSans-30" x="95.410156"/>
      </g>
     </g>
    </g>
    <g id="text_15">
     <!-- Load [kW] -->
     <g transform="translate(22.396875 134.431562) rotate(-90) scale(0.2 -0.2)">
      <defs>
       <path id="DejaVuSans-4c" d="M 628 4666 
L 1259 4666 
L 1259 531 
L 3531 531 
L 3531 0 
L 628 0 
L 628 4666 
z
" transform="scale(0.015625)"/>
       <path id="DejaVuSans-6f" d="M 1959 3097 
Q 1497 3097 1228 2736 
Q 959 2375 959 1747 
Q 959 1119 1226 758 
Q 1494 397 1959 397 
Q 2419 397 2687 759 
Q 2956 1122 2956 1747 
Q 2956 2369 2687 2733 
Q 2419 3097 1959 3097 
z
M 1959 3584 
Q 2709 3584 3137 3096 
Q 3566 2609 3566 1747 
Q 3566 888 3137 398 
Q 2709 -91 1959 -91 
Q 1206 -91 779 398 
Q 353 888 353 1747 
Q 353 2609 779 3096 
Q 1206 3584 1959 3584 
z
" transform="scale(0.015625)"/>
       <path id="DejaVuSans-61" d="M 2194 1759 
Q 1497 1759 1228 1600 
Q 959 1441 959 1056 
Q 959 750 1161 570 
Q 1363 391 1709 391 
Q 2188 391 2477 730 
Q 2766 1069 2766 1631 
L 2766 1759 
L 2194 1759 
z
M 3341 1997 
L 3341 0 
L 2766 0 
L 2766 531 
Q 2569 213 2275 61 
Q 1981 -91 1556 -91 
Q 1019 -91 701 211 
Q 384 513 384 1019 
Q 384 1609 779 1909 
Q 1175 2209 1959 2209 
L 2766 2209 
L 2766 2266 
Q 2766 2663 2505 2880 
Q 2244 3097 1772 3097 
Q 1472 3097 1187 3025 
Q 903 2953 641 2809 
L 641 3341 
Q 956 3463 1253 3523 
Q 1550 3584 1831 3584 
Q 2591 3584 2966 3190 
Q 3341 2797 3341 1997 
z
" transform="scale(0.015625)"/>
       <path id="DejaVuSans-64" d="M 2906 2969 
L 2906 4863 
L 3481 4863 
L 3481 0 
L 2906 0 
L 2906 525 
Q 2725 213 2448 61 
Q 2172 -91 1784 -91 
Q 1150 -91 751 415 
Q 353 922 353 1747 
Q 353 2572 751 3078 
Q 1150 3584 1784 3584 
Q 2172 3584 2448 3432 
Q 2725 3281 2906 2969 
z
M 947 1747 
Q 947 1113 1208 752 
Q 1469 391 1925 391 
Q 2381 391 2643 752 
Q 2906 1113 2906 1747 
Q 2906 2381 2643 2742 
Q 2381 3103 1925 3103 
Q 1469 3103 1208 2742 
Q 947 2381 947 1747 
z
" transform="scale(0.015625)"/>
       <path id="DejaVuSans-20" transform="scale(0.015625)"/>
       <path id="DejaVuSans-5b" d="M 550 4863 
L 1875 4863 
L 1875 4416 
L 1125 4416 
L 1125 -397 
L 1875 -397 
L 1875 -844 
L 550 -844 
L 550 4863 
z
" transform="scale(0.015625)"/>
       <path id="DejaVuSans-6b" d="M 581 4863 
L 1159 4863 
L 1159 1991 
L 2875 3500 
L 3609 3500 
L 1753 1863 
L 3688 0 
L 2938 0 
L 1159 1709 
L 1159 0 
L 581 0 
L 581 4863 
z
" transform="scale(0.015625)"/>
       <path id="DejaVuSans-57" d="M 213 4666 
L 850 4666 
L 1831 722 
L 2809 4666 
L 3519 4666 
L 4500 722 
L 5478 4666 
L 6119 4666 
L 4947 0 
L 4153 0 
L 3169 4050 
L 2175 0 
L 1381 0 
L 213 4666 
z
" transform="scale(0.015625)"/>
       <path id="DejaVuSans-5d" d="M 1947 4863 
L 1947 -844 
L 622 -844 
L 622 -397 
L 1369 -397 
L 1369 4416 
L 622 4416 
L 622 4863 
L 1947 4863 
z
" transform="scale(0.015625)"/>
      </defs>
      <use xlink:href="#DejaVuSans-4c"/>
      <use xlink:href="#DejaVuSans-6f" x="53.962891"/>
      <use xlink:href="#DejaVuSans-61" x="115.144531"/>
      <use xlink:href="#DejaVuSans-64" x="176.423828"/>
      <use xlink:href="#DejaVuSans-20" x="239.900391"/>
      <use xlink:href="#DejaVuSans-5b" x="271.6875"/>
      <use xlink:href="#DejaVuSans-6b" x="310.701172"/>
      <use xlink:href="#DejaVuSans-57" x="368.611328"/>
      <use xlink:href="#DejaVuSans-5d" x="467.488281"/>
     </g>
    </g>
   </g>
   <g id="line2d_14">
    <path d="M 82.914179 143.654578 
L 84.952573 147.160562 
L 86.990968 138.776687 
L 89.029363 96.781097 
L 91.067757 102.421155 
L 93.106152 148.608686 
L 95.144547 146.017307 
L 97.182942 94.037284 
L 99.221336 89.99778 
L 101.259731 97.543265 
L 103.298126 102.954677 
L 105.33652 100.363298 
L 107.374915 115.682924 
L 109.41331 144.035663 
L 111.451704 142.892408 
L 113.490099 148.608686 
L 115.528494 147.846516 
L 117.566889 147.99895 
L 119.605283 149.218422 
L 123.682073 151.123849 
L 125.720467 150.895197 
L 129.797257 149.675725 
L 131.835652 142.511323 
L 133.874046 147.846516 
L 135.912441 149.447074 
L 137.950836 150.742763 
L 139.98923 151.123849 
L 142.027625 118.426736 
L 144.06602 117.359698 
L 146.104415 105.317403 
L 148.142809 90.683733 
L 150.181204 90.607513 
L 152.219599 96.781097 
L 154.257993 147.008128 
L 156.296388 145.636221 
L 158.334783 145.864873 
L 160.373177 145.941089 
L 162.411572 146.474609 
L 164.449967 150.133027 
L 170.565151 151.123849 
L 174.64194 151.123849 
L 176.680335 150.666546 
L 178.71873 151.123849 
L 180.757125 150.742763 
L 182.795519 149.751942 
L 184.833914 150.133027 
L 186.872309 149.904376 
L 188.910703 143.959446 
L 190.949098 140.75833 
L 192.987493 144.874051 
L 195.025888 138.395602 
L 197.064282 80.39443 
L 199.102677 104.097932 
L 201.141072 99.067608 
L 203.179466 98.915174 
L 205.217861 144.340532 
L 209.29465 145.712438 
L 211.333045 149.447074 
L 213.37144 150.81898 
L 215.409835 151.123849 
L 219.486624 150.895197 
L 221.525019 144.264314 
L 223.563413 147.99895 
L 225.601808 141.825369 
L 227.640203 140.834547 
L 229.678598 148.227601 
L 231.716992 143.807012 
L 233.755387 140.986982 
L 235.793782 148.532469 
L 237.832176 139.081556 
L 239.870571 149.218422 
L 241.908966 148.608686 
L 243.947361 148.532469 
L 245.985755 128.563604 
L 248.02415 35.045291 
L 250.062545 94.342148 
L 252.100939 101.125465 
L 254.139334 139.386423 
L 256.177729 145.788656 
L 258.216123 145.178919 
L 260.254518 146.855694 
L 262.292913 149.904376 
L 264.331308 149.142205 
L 266.369702 150.590329 
L 268.408097 149.218422 
L 270.446492 149.142205 
L 272.484886 150.133027 
L 274.523281 150.81898 
L 276.561676 135.651789 
L 278.600071 148.684903 
L 280.638465 150.514112 
L 282.67686 149.523291 
L 284.715255 141.29185 
L 286.753649 115.073187 
L 288.792044 144.569183 
L 290.830439 146.855694 
L 292.868834 148.837337 
L 294.907228 144.797834 
L 296.945623 143.502144 
L 298.984018 14.161818 
L 301.022412 98.457871 
L 303.060807 91.29347 
L 305.099202 112.710457 
L 307.137596 143.044842 
L 309.175991 146.855694 
L 311.214386 145.102702 
L 313.252781 146.70326 
L 315.291175 147.99895 
L 317.32957 149.447074 
L 319.367965 149.828159 
L 321.406359 149.142205 
L 323.444754 147.694082 
L 325.483149 136.032873 
L 327.521544 141.368066 
L 329.559938 147.084345 
L 331.598333 150.81898 
L 333.636728 149.523291 
L 335.675122 146.474609 
L 337.713517 145.788656 
L 339.751912 101.04925 
L 341.790307 86.415576 
L 343.828701 90.378864 
L 345.867096 83.062029 
L 347.905491 144.569183 
L 349.943885 101.354119 
L 351.98228 143.34971 
L 354.020675 143.883229 
L 356.05907 146.627043 
L 358.097464 149.142205 
L 360.135859 148.075167 
L 362.174254 147.236779 
L 364.212648 148.608686 
L 366.251043 150.133027 
L 368.289438 150.05681 
L 370.327832 148.76112 
L 372.366227 147.922733 
L 374.404622 148.989771 
L 376.443017 142.968625 
L 378.481411 145.331353 
L 380.519806 146.322175 
L 382.558201 142.130237 
L 384.596595 82.299857 
L 388.673385 111.414767 
L 390.71178 77.879266 
L 392.750174 97.238396 
L 394.788569 77.726836 
L 396.826964 98.762739 
L 398.865358 95.485408 
L 400.903753 131.383635 
L 402.942148 146.627043 
L 404.980543 149.675725 
L 407.018937 149.904376 
L 409.057332 148.684903 
L 411.095727 146.855694 
L 413.134121 150.81898 
L 417.210911 150.437895 
L 421.2877 150.742763 
L 423.326095 131.840936 
L 425.36449 144.874051 
L 427.402884 146.398392 
L 429.441279 141.139416 
L 431.479674 150.437895 
L 435.556463 148.989771 
L 437.594858 147.465431 
L 439.633253 141.672935 
L 441.671647 98.153002 
L 443.710042 85.729623 
L 445.748437 89.769127 
L 447.786831 97.695699 
L 449.825226 101.811422 
L 451.863621 144.874051 
L 453.902016 146.550826 
L 455.94041 151.047632 
L 457.978805 150.742763 
L 460.0172 151.123849 
L 462.055594 151.047632 
L 464.093989 150.81898 
L 466.132384 150.05681 
L 468.170778 150.209244 
L 470.209173 139.386423 
L 472.247568 145.255136 
L 474.285963 147.99895 
L 476.324357 151.123849 
L 478.362752 142.816191 
L 480.401147 148.989771 
L 482.439541 148.76112 
L 484.477936 147.694082 
L 486.516331 149.142205 
L 488.554726 73.458683 
L 490.59312 97.162181 
L 492.631515 96.628663 
L 494.66991 107.146615 
L 496.708304 127.877649 
L 498.746699 145.026485 
L 500.785094 145.864873 
L 502.823489 149.065988 
L 504.861883 151.047632 
L 506.900278 151.047632 
L 508.938673 150.895197 
L 513.015462 150.133027 
L 519.130646 149.828159 
L 521.169041 142.816191 
L 523.207436 140.75833 
L 525.24583 147.770299 
L 527.284225 148.227601 
L 529.32262 148.837337 
L 531.361014 150.05681 
L 533.399409 151.123849 
L 535.437804 128.487387 
L 537.476199 56.462279 
L 539.514593 97.39083 
L 541.552988 103.488195 
L 543.591383 98.305436 
L 545.629777 98.915174 
L 547.668172 98.305436 
L 549.706567 99.448692 
L 551.744962 149.980593 
L 553.783356 150.971415 
L 555.821751 151.047632 
L 557.860146 150.81898 
L 559.89854 150.437895 
L 563.97533 150.209244 
L 566.013724 146.550826 
L 568.052119 149.218422 
L 570.090514 148.837337 
L 572.128909 148.684903 
L 586.397672 148.684903 
L 588.436066 96.095141 
L 590.474461 94.87567 
L 592.512856 96.17136 
L 594.55125 96.323794 
L 596.589645 102.497374 
L 598.62804 146.779477 
L 600.666435 151.047632 
L 602.704829 148.76112 
L 604.743224 150.437895 
L 612.896803 148.608686 
L 614.935198 148.684903 
L 616.973592 148.913554 
L 619.011987 139.005339 
L 621.050382 147.389213 
L 623.088776 143.273493 
L 625.127171 96.247575 
L 627.165566 145.102702 
L 629.20396 146.779477 
L 631.242355 115.073187 
L 633.28075 142.587539 
L 635.319145 104.860104 
L 637.357539 75.211672 
L 639.395934 96.018926 
L 641.434329 37.179364 
L 643.472723 101.582768 
L 645.511118 98.610305 
L 647.549513 123.304628 
L 649.587908 146.322175 
L 651.626302 146.398392 
L 653.664697 150.133027 
L 655.703092 149.523291 
L 657.741486 148.151384 
L 659.779881 148.456252 
L 663.856671 150.971415 
L 665.895065 149.828159 
L 667.93346 138.929121 
L 669.971855 144.264314 
L 672.010249 139.767509 
L 672.010249 139.767509 
" clip-path="url(#pbe1c3cc179)" style="fill: none; stroke: #13748b; stroke-width: 1.5; stroke-linecap: square"/>
   </g>
   <g id="line2d_15">
    <path d="M 82.914179 140.659644 
L 84.952573 140.370276 
L 86.990968 140.652001 
L 89.029363 140.812829 
L 91.067757 137.218624 
L 93.106152 132.415276 
L 95.144547 136.782561 
L 97.182942 138.294687 
L 99.221336 117.03031 
L 101.259731 101.900596 
L 103.298126 109.920927 
L 105.33652 116.180906 
L 107.374915 120.466292 
L 109.41331 123.646245 
L 111.451704 128.510833 
L 115.528494 139.852893 
L 117.566889 143.928326 
L 119.605283 145.474442 
L 121.643678 145.455224 
L 123.682073 144.669772 
L 129.797257 141.025855 
L 131.835652 140.084877 
L 133.874046 139.660384 
L 135.912441 139.793593 
L 137.950836 140.309834 
L 139.98923 141.664155 
L 142.027625 142.694959 
L 144.06602 140.711971 
L 146.104415 137.422136 
L 148.142809 130.088602 
L 150.181204 114.086766 
L 152.219599 112.491433 
L 154.257993 116.541426 
L 156.296388 121.854092 
L 160.373177 129.995301 
L 162.411572 134.738698 
L 164.449967 140.057207 
L 166.488362 143.896657 
L 168.526756 145.06859 
L 170.565151 145.014153 
L 172.603546 144.382936 
L 180.757125 140.750635 
L 182.795519 140.380894 
L 184.833914 140.205202 
L 186.872309 140.28726 
L 188.910703 141.020117 
L 195.025888 141.899246 
L 197.064282 141.599152 
L 199.102677 122.479111 
L 201.141072 115.116136 
L 203.179466 118.043381 
L 205.217861 120.653581 
L 207.256256 124.738156 
L 209.29465 129.345395 
L 211.333045 135.133417 
L 213.37144 141.944704 
L 215.409835 145.111422 
L 217.448229 145.738848 
L 219.486624 145.42663 
L 221.525019 144.665537 
L 229.678598 140.227674 
L 231.716992 139.86102 
L 235.793782 139.424809 
L 237.832176 140.795721 
L 239.870571 141.323177 
L 241.908966 142.60538 
L 243.947361 142.987527 
L 245.985755 142.382149 
L 248.02415 138.408028 
L 250.062545 113.043849 
L 252.100939 117.277931 
L 254.139334 120.282188 
L 256.177729 123.618379 
L 258.216123 127.880784 
L 260.254518 133.049138 
L 262.292913 139.183817 
L 264.331308 143.835151 
L 266.369702 145.156811 
L 268.408097 145.046268 
L 270.446492 144.283156 
L 272.484886 143.267482 
L 274.523281 142.126471 
L 276.561676 141.115118 
L 278.600071 139.89108 
L 280.638465 139.534436 
L 282.67686 139.737296 
L 284.715255 140.280553 
L 286.753649 141.048707 
L 288.792044 139.429473 
L 292.868834 141.143805 
L 294.907228 141.046238 
L 296.945623 139.317154 
L 298.984018 138.380335 
L 301.022412 116.236247 
L 303.060807 119.962057 
L 305.099202 121.87968 
L 307.137596 125.023395 
L 309.175991 130.392779 
L 311.214386 136.730572 
L 313.252781 142.279907 
L 315.291175 144.667601 
L 317.32957 144.944756 
L 319.367965 144.349195 
L 321.406359 143.364733 
L 327.521544 139.708716 
L 329.559938 139.001226 
L 331.598333 138.867078 
L 333.636728 139.27652 
L 335.675122 140.536447 
L 337.713517 141.976986 
L 339.751912 142.522159 
L 341.790307 136.583071 
L 343.828701 122.084145 
L 345.867096 110.154434 
L 347.905491 105.777824 
L 349.943885 115.587937 
L 351.98228 119.704627 
L 354.020675 124.371264 
L 360.135859 136.921527 
L 362.174254 140.774344 
L 364.212648 143.183218 
L 366.251043 143.855347 
L 368.289438 143.644386 
L 370.327832 143.055634 
L 374.404622 141.347381 
L 376.443017 140.840562 
L 378.481411 140.186534 
L 380.519806 139.870396 
L 384.596595 139.537823 
L 388.673385 125.480759 
L 390.71178 122.378136 
L 392.750174 112.677938 
L 394.788569 106.433061 
L 396.826964 101.504977 
L 398.865358 106.648922 
L 400.903753 111.132336 
L 402.942148 116.68637 
L 407.018937 130.491846 
L 409.057332 135.712738 
L 411.095727 139.054387 
L 413.134121 140.710956 
L 415.172516 141.504809 
L 417.210911 142.095998 
L 419.249305 143.405542 
L 421.2877 145.302912 
L 423.326095 146.958869 
L 425.36449 145.982807 
L 427.402884 147.235426 
L 429.441279 148.249614 
L 431.479674 148.222149 
L 433.518068 148.667163 
L 435.556463 149.233069 
L 437.594858 148.099548 
L 439.633253 147.551477 
L 441.671647 147.448365 
L 443.710042 138.002135 
L 445.748437 116.744593 
L 447.786831 113.834957 
L 449.825226 118.044422 
L 451.863621 120.950829 
L 453.902016 127.326914 
L 455.94041 135.214359 
L 457.978805 143.607682 
L 460.0172 147.037357 
L 462.055594 147.690477 
L 464.093989 147.150282 
L 466.132384 146.032458 
L 468.170778 144.65738 
L 470.209173 143.023973 
L 472.247568 141.010064 
L 474.285963 139.697665 
L 476.324357 140.141308 
L 478.362752 141.418192 
L 480.401147 142.304637 
L 482.439541 143.707986 
L 484.477936 144.65696 
L 486.516331 144.829027 
L 488.554726 144.327039 
L 492.631515 106.452229 
L 494.66991 106.663364 
L 496.708304 114.120653 
L 498.746699 120.255684 
L 500.785094 125.185736 
L 502.823489 129.525965 
L 504.861883 134.900941 
L 506.900278 141.222324 
L 508.938673 144.97023 
L 510.977067 145.783383 
L 513.015462 145.423633 
L 515.053857 144.490729 
L 519.130646 141.93726 
L 521.169041 140.914262 
L 523.207436 140.062242 
L 525.24583 139.482735 
L 527.284225 139.521304 
L 529.32262 139.941355 
L 531.361014 141.228727 
L 533.399409 142.271905 
L 535.437804 142.733409 
L 537.476199 140.249586 
L 539.514593 113.235873 
L 541.552988 105.05743 
L 545.629777 116.326002 
L 547.668172 120.05773 
L 551.744962 126.382397 
L 555.821751 138.244487 
L 557.860146 143.077239 
L 559.89854 145.12295 
L 561.936935 145.295244 
L 563.97533 144.668315 
L 566.013724 143.687106 
L 568.052119 142.526629 
L 570.090514 141.499403 
L 572.128909 140.715844 
L 574.167303 140.378482 
L 576.205698 140.355077 
L 578.244093 140.652592 
L 580.282487 141.529625 
L 582.320882 142.254512 
L 584.359277 142.537234 
L 586.397672 142.352981 
L 588.436066 143.075678 
L 592.512856 111.351487 
L 594.55125 114.887482 
L 596.589645 118.718692 
L 598.62804 121.985558 
L 600.666435 126.713916 
L 602.704829 131.876688 
L 604.743224 138.617863 
L 606.781619 143.987465 
L 608.820013 145.261419 
L 610.858408 145.134081 
L 612.896803 144.410555 
L 616.973592 142.191183 
L 621.050382 139.968461 
L 623.088776 139.527137 
L 625.127171 139.35904 
L 627.165566 137.048759 
L 631.242355 138.557544 
L 633.28075 135.390386 
L 635.319145 135.838482 
L 637.357539 125.94696 
L 639.395934 109.520949 
L 641.434329 109.927054 
L 643.472723 112.381624 
L 645.511118 116.569219 
L 647.549513 120.126088 
L 649.587908 125.045775 
L 651.626302 131.545792 
L 653.664697 137.37166 
L 655.703092 141.294392 
L 657.741486 142.901259 
L 659.779881 142.986335 
L 661.818276 142.334725 
L 667.93346 139.258732 
L 669.971855 138.209131 
L 672.010249 137.922959 
L 672.010249 137.922959 
" clip-path="url(#pbe1c3cc179)" style="fill: none; stroke: #13b58b; stroke-width: 1.5; stroke-linecap: square"/>
   </g>
   <g id="line2d_16">
    <path d="M 82.914179 143.212863 
L 84.952573 140.250404 
L 86.990968 143.783725 
L 89.029363 145.425369 
L 91.067757 138.621278 
L 93.106152 129.475214 
L 95.144547 128.779661 
L 97.182942 135.524258 
L 99.221336 123.123284 
L 101.259731 109.125004 
L 103.298126 93.213661 
L 105.33652 111.857943 
L 107.374915 119.356687 
L 109.41331 124.265242 
L 111.451704 126.52 
L 113.490099 140.631426 
L 115.528494 145.435199 
L 117.566889 147.561352 
L 119.605283 149.416934 
L 123.682073 149.67735 
L 125.720467 148.295079 
L 127.758862 137.391645 
L 129.797257 133.628803 
L 131.835652 141.600481 
L 133.874046 145.423736 
L 135.912441 140.599267 
L 137.950836 136.544058 
L 139.98923 137.857585 
L 142.027625 140.789148 
L 144.06602 134.853366 
L 146.104415 132.080281 
L 148.142809 134.092966 
L 150.181204 127.603527 
L 152.219599 124.215869 
L 154.257993 126.190259 
L 156.296388 127.135805 
L 158.334783 133.996905 
L 160.373177 135.133705 
L 162.411572 139.062269 
L 164.449967 142.466475 
L 166.488362 146.101 
L 168.526756 147.300591 
L 170.565151 145.822674 
L 172.603546 145.275548 
L 174.64194 146.385245 
L 176.680335 142.767327 
L 178.71873 138.461973 
L 180.757125 141.911833 
L 182.795519 143.403272 
L 184.833914 143.220514 
L 186.872309 143.812966 
L 188.910703 140.858744 
L 190.949098 140.489048 
L 192.987493 140.808341 
L 195.025888 139.620309 
L 197.064282 137.87678 
L 199.102677 133.919818 
L 201.141072 116.875365 
L 203.179466 124.063444 
L 205.217861 124.214707 
L 207.256256 129.70248 
L 209.29465 130.594436 
L 211.333045 140.597552 
L 213.37144 147.436887 
L 215.409835 148.445529 
L 217.448229 150.013069 
L 219.486624 149.180071 
L 221.525019 146.937922 
L 223.563413 149.258374 
L 225.601808 149.101594 
L 227.640203 145.949418 
L 229.678598 146.779109 
L 231.716992 145.009302 
L 233.755387 145.182527 
L 235.793782 145.864271 
L 237.832176 145.822585 
L 239.870571 143.67647 
L 241.908966 144.63364 
L 243.947361 144.079245 
L 245.985755 142.118905 
L 248.02415 130.805097 
L 250.062545 107.865483 
L 252.100939 116.253844 
L 254.139334 126.335965 
L 256.177729 130.79919 
L 258.216123 124.044509 
L 260.254518 140.24254 
L 262.292913 147.654529 
L 264.331308 148.846278 
L 268.408097 150.025775 
L 270.446492 149.836184 
L 272.484886 148.726054 
L 274.523281 145.199713 
L 276.561676 146.892594 
L 278.600071 148.352225 
L 282.67686 145.45082 
L 284.715255 146.017999 
L 286.753649 148.670135 
L 288.792044 147.990047 
L 290.830439 146.821446 
L 292.868834 144.661149 
L 294.907228 147.288038 
L 296.945623 141.569188 
L 298.984018 131.840893 
L 301.022412 128.940224 
L 303.060807 135.910016 
L 305.099202 135.427746 
L 307.137596 137.412193 
L 309.175991 139.914979 
L 311.214386 147.588448 
L 313.252781 150.149113 
L 315.291175 150.839733 
L 317.32957 149.558709 
L 319.367965 150.455886 
L 321.406359 150.553959 
L 323.444754 147.863088 
L 325.483149 142.879676 
L 327.521544 144.3764 
L 331.598333 140.095598 
L 333.636728 145.217197 
L 335.675122 145.209852 
L 337.713517 145.765956 
L 339.751912 142.297193 
L 341.790307 142.238779 
L 343.828701 132.767589 
L 345.867096 112.568072 
L 347.905491 97.371597 
L 349.943885 113.632582 
L 354.020675 135.350484 
L 356.05907 132.60815 
L 358.097464 142.611924 
L 360.135859 146.842362 
L 362.174254 148.149787 
L 364.212648 149.225165 
L 366.251043 149.131287 
L 368.289438 149.789192 
L 370.327832 149.148634 
L 372.366227 140.710687 
L 374.404622 133.735685 
L 376.443017 139.04202 
L 378.481411 145.014652 
L 380.519806 144.951114 
L 382.558201 135.359889 
L 384.596595 122.32493 
L 386.63499 128.83989 
L 388.673385 121.438915 
L 390.71178 116.585113 
L 392.750174 118.9844 
L 394.788569 123.370757 
L 396.826964 110.396721 
L 398.865358 107.867928 
L 400.903753 111.528127 
L 402.942148 124.431401 
L 404.980543 135.398372 
L 407.018937 133.9365 
L 409.057332 140.570138 
L 411.095727 145.768811 
L 413.134121 146.993667 
L 415.172516 147.400133 
L 417.210911 147.974948 
L 419.249305 147.315504 
L 421.2877 144.718097 
L 423.326095 146.983317 
L 425.36449 141.686309 
L 427.402884 139.572682 
L 429.441279 133.783289 
L 431.479674 140.534631 
L 435.556463 145.182468 
L 437.594858 146.135795 
L 439.633253 145.105895 
L 441.671647 142.853905 
L 443.710042 132.578437 
L 445.748437 110.942648 
L 447.786831 121.284736 
L 449.825226 130.927138 
L 451.863621 124.329281 
L 453.902016 121.564105 
L 455.94041 144.436446 
L 457.978805 148.408688 
L 460.0172 148.751569 
L 462.055594 150.114861 
L 464.093989 150.366848 
L 466.132384 148.918617 
L 468.170778 149.886469 
L 470.209173 144.759573 
L 472.247568 129.206455 
L 474.285963 145.71673 
L 476.324357 148.413309 
L 478.362752 147.819282 
L 480.401147 143.558751 
L 482.439541 140.735618 
L 484.477936 146.715436 
L 486.516331 140.826489 
L 488.554726 143.341798 
L 490.59312 136.392009 
L 492.631515 138.075485 
L 494.66991 103.596256 
L 496.708304 103.213123 
L 498.746699 116.315124 
L 500.785094 123.352583 
L 502.823489 125.511132 
L 504.861883 139.301152 
L 506.900278 145.959142 
L 508.938673 151.05312 
L 510.977067 152.445319 
L 513.015462 152.671583 
L 515.053857 152.146789 
L 517.092251 152.385464 
L 519.130646 151.578176 
L 521.169041 148.811504 
L 523.207436 147.998378 
L 525.24583 149.018234 
L 527.284225 150.402509 
L 529.32262 150.44585 
L 531.361014 149.471942 
L 533.399409 146.878594 
L 535.437804 146.583789 
L 537.476199 147.771676 
L 539.514593 142.42261 
L 541.552988 127.309732 
L 543.591383 102.509844 
L 545.629777 123.343381 
L 547.668172 129.349223 
L 549.706567 133.761453 
L 551.744962 134.705042 
L 553.783356 145.139247 
L 555.821751 148.379795 
L 559.89854 149.905367 
L 561.936935 150.172712 
L 563.97533 149.694298 
L 566.013724 149.580569 
L 568.052119 145.983981 
L 570.090514 143.830138 
L 572.128909 146.920159 
L 574.167303 146.071934 
L 576.205698 144.959462 
L 578.244093 146.679466 
L 580.282487 146.405236 
L 582.320882 144.35808 
L 584.359277 141.853444 
L 586.397672 143.156002 
L 588.436066 141.92628 
L 590.474461 132.160821 
L 592.512856 104.575636 
L 594.55125 118.673672 
L 596.589645 125.108314 
L 598.62804 128.761081 
L 600.666435 126.103823 
L 602.704829 144.244501 
L 604.743224 151.591686 
L 606.781619 152.288486 
L 608.820013 153.398182 
L 610.858408 153.345502 
L 612.896803 152.968265 
L 614.935198 152.883548 
L 616.973592 149.92969 
L 619.011987 146.176388 
L 621.050382 148.682649 
L 623.088776 148.605336 
L 625.127171 145.508027 
L 627.165566 145.94551 
L 629.20396 143.845548 
L 631.242355 141.246387 
L 633.28075 140.466722 
L 635.319145 133.882984 
L 637.357539 121.558297 
L 639.395934 112.542826 
L 641.434329 106.958942 
L 645.511118 117.589917 
L 647.549513 127.15122 
L 649.587908 132.518794 
L 651.626302 140.480678 
L 653.664697 142.574651 
L 657.741486 145.142875 
L 659.779881 139.750089 
L 661.818276 143.896195 
L 663.856671 144.769487 
L 665.895065 134.931891 
L 667.93346 111.128442 
L 669.971855 143.86353 
L 672.010249 145.632651 
L 672.010249 145.632651 
" clip-path="url(#pbe1c3cc179)" style="fill: none; stroke: #b03a3a; stroke-width: 1.5; stroke-linecap: square"/>
   </g>
   <g id="patch_3">
    <path d="M 53.459375 160.36 
L 53.459375 7.2 
" style="fill: none; stroke: #000000; stroke-width: 0.8; stroke-linejoin: miter; stroke-linecap: square"/>
   </g>
   <g id="patch_4">
    <path d="M 701.465053 160.36 
L 701.465053 7.2 
" style="fill: none; stroke: #000000; stroke-width: 0.8; stroke-linejoin: miter; stroke-linecap: square"/>
   </g>
   <g id="patch_5">
    <path d="M 53.459375 160.36 
L 701.465053 160.36 
" style="fill: none; stroke: #000000; stroke-width: 0.8; stroke-linejoin: miter; stroke-linecap: square"/>
   </g>
   <g id="patch_6">
    <path d="M 53.459375 7.2 
L 701.465053 7.2 
" style="fill: none; stroke: #000000; stroke-width: 0.8; stroke-linejoin: miter; stroke-linecap: square"/>
   </g>
   <g id="legend_1">
    <g id="patch_7">
     <path d="M 543.067553 90.455 
L 690.265053 90.455 
Q 693.465053 90.455 693.465053 87.255 
L 693.465053 18.4 
Q 693.465053 15.2 690.265053 15.2 
L 543.067553 15.2 
Q 539.867553 15.2 539.867553 18.4 
L 539.867553 87.255 
Q 539.867553 90.455 543.067553 90.455 
z
" style="fill: #ffffff; opacity: 0.8; stroke: #cccccc; stroke-linejoin: miter"/>
    </g>
    <g id="line2d_17">
     <path d="M 546.267553 28.1575 
L 562.267553 28.1575 
L 578.267553 28.1575 
" style="fill: none; stroke: #13748b; stroke-width: 1.5; stroke-linecap: square"/>
    </g>
    <g id="text_16">
     <!-- True -->
     <g transform="translate(591.067553 33.7575) scale(0.16 -0.16)">
      <defs>
       <path id="DejaVuSans-72" d="M 2631 2963 
Q 2534 3019 2420 3045 
Q 2306 3072 2169 3072 
Q 1681 3072 1420 2755 
Q 1159 2438 1159 1844 
L 1159 0 
L 581 0 
L 581 3500 
L 1159 3500 
L 1159 2956 
Q 1341 3275 1631 3429 
Q 1922 3584 2338 3584 
Q 2397 3584 2469 3576 
Q 2541 3569 2628 3553 
L 2631 2963 
z
" transform="scale(0.015625)"/>
       <path id="DejaVuSans-75" d="M 544 1381 
L 544 3500 
L 1119 3500 
L 1119 1403 
Q 1119 906 1312 657 
Q 1506 409 1894 409 
Q 2359 409 2629 706 
Q 2900 1003 2900 1516 
L 2900 3500 
L 3475 3500 
L 3475 0 
L 2900 0 
L 2900 538 
Q 2691 219 2414 64 
Q 2138 -91 1772 -91 
Q 1169 -91 856 284 
Q 544 659 544 1381 
z
M 1991 3584 
L 1991 3584 
z
" transform="scale(0.015625)"/>
      </defs>
      <use xlink:href="#DejaVuSans-54"/>
      <use xlink:href="#DejaVuSans-72" x="46.333984"/>
      <use xlink:href="#DejaVuSans-75" x="87.447266"/>
      <use xlink:href="#DejaVuSans-65" x="150.826172"/>
     </g>
    </g>
    <g id="line2d_18">
     <path d="M 546.267553 51.6425 
L 562.267553 51.6425 
L 578.267553 51.6425 
" style="fill: none; stroke: #13b58b; stroke-width: 1.5; stroke-linecap: square"/>
    </g>
    <g id="text_17">
     <!-- BiLSTM -->
     <g transform="translate(591.067553 57.2425) scale(0.16 -0.16)">
      <defs>
       <path id="DejaVuSans-42" d="M 1259 2228 
L 1259 519 
L 2272 519 
Q 2781 519 3026 730 
Q 3272 941 3272 1375 
Q 3272 1813 3026 2020 
Q 2781 2228 2272 2228 
L 1259 2228 
z
M 1259 4147 
L 1259 2741 
L 2194 2741 
Q 2656 2741 2882 2914 
Q 3109 3088 3109 3444 
Q 3109 3797 2882 3972 
Q 2656 4147 2194 4147 
L 1259 4147 
z
M 628 4666 
L 2241 4666 
Q 2963 4666 3353 4366 
Q 3744 4066 3744 3513 
Q 3744 3084 3544 2831 
Q 3344 2578 2956 2516 
Q 3422 2416 3680 2098 
Q 3938 1781 3938 1306 
Q 3938 681 3513 340 
Q 3088 0 2303 0 
L 628 0 
L 628 4666 
z
" transform="scale(0.015625)"/>
       <path id="DejaVuSans-53" d="M 3425 4513 
L 3425 3897 
Q 3066 4069 2747 4153 
Q 2428 4238 2131 4238 
Q 1616 4238 1336 4038 
Q 1056 3838 1056 3469 
Q 1056 3159 1242 3001 
Q 1428 2844 1947 2747 
L 2328 2669 
Q 3034 2534 3370 2195 
Q 3706 1856 3706 1288 
Q 3706 609 3251 259 
Q 2797 -91 1919 -91 
Q 1588 -91 1214 -16 
Q 841 59 441 206 
L 441 856 
Q 825 641 1194 531 
Q 1563 422 1919 422 
Q 2459 422 2753 634 
Q 3047 847 3047 1241 
Q 3047 1584 2836 1778 
Q 2625 1972 2144 2069 
L 1759 2144 
Q 1053 2284 737 2584 
Q 422 2884 422 3419 
Q 422 4038 858 4394 
Q 1294 4750 2059 4750 
Q 2388 4750 2728 4690 
Q 3069 4631 3425 4513 
z
" transform="scale(0.015625)"/>
       <path id="DejaVuSans-4d" d="M 628 4666 
L 1569 4666 
L 2759 1491 
L 3956 4666 
L 4897 4666 
L 4897 0 
L 4281 0 
L 4281 4097 
L 3078 897 
L 2444 897 
L 1241 4097 
L 1241 0 
L 628 0 
L 628 4666 
z
" transform="scale(0.015625)"/>
      </defs>
      <use xlink:href="#DejaVuSans-42"/>
      <use xlink:href="#DejaVuSans-69" x="68.603516"/>
      <use xlink:href="#DejaVuSans-4c" x="96.386719"/>
      <use xlink:href="#DejaVuSans-53" x="152.099609"/>
      <use xlink:href="#DejaVuSans-54" x="215.576172"/>
      <use xlink:href="#DejaVuSans-4d" x="276.660156"/>
     </g>
    </g>
    <g id="line2d_19">
     <path d="M 546.267553 75.1275 
L 562.267553 75.1275 
L 578.267553 75.1275 
" style="fill: none; stroke: #b03a3a; stroke-width: 1.5; stroke-linecap: square"/>
    </g>
    <g id="text_18">
     <!-- Transformer -->
     <g transform="translate(591.067553 80.7275) scale(0.16 -0.16)">
      <defs>
       <path id="DejaVuSans-6e" d="M 3513 2113 
L 3513 0 
L 2938 0 
L 2938 2094 
Q 2938 2591 2744 2837 
Q 2550 3084 2163 3084 
Q 1697 3084 1428 2787 
Q 1159 2491 1159 1978 
L 1159 0 
L 581 0 
L 581 3500 
L 1159 3500 
L 1159 2956 
Q 1366 3272 1645 3428 
Q 1925 3584 2291 3584 
Q 2894 3584 3203 3211 
Q 3513 2838 3513 2113 
z
" transform="scale(0.015625)"/>
       <path id="DejaVuSans-73" d="M 2834 3397 
L 2834 2853 
Q 2591 2978 2328 3040 
Q 2066 3103 1784 3103 
Q 1356 3103 1142 2972 
Q 928 2841 928 2578 
Q 928 2378 1081 2264 
Q 1234 2150 1697 2047 
L 1894 2003 
Q 2506 1872 2764 1633 
Q 3022 1394 3022 966 
Q 3022 478 2636 193 
Q 2250 -91 1575 -91 
Q 1294 -91 989 -36 
Q 684 19 347 128 
L 347 722 
Q 666 556 975 473 
Q 1284 391 1588 391 
Q 1994 391 2212 530 
Q 2431 669 2431 922 
Q 2431 1156 2273 1281 
Q 2116 1406 1581 1522 
L 1381 1569 
Q 847 1681 609 1914 
Q 372 2147 372 2553 
Q 372 3047 722 3315 
Q 1072 3584 1716 3584 
Q 2034 3584 2315 3537 
Q 2597 3491 2834 3397 
z
" transform="scale(0.015625)"/>
       <path id="DejaVuSans-66" d="M 2375 4863 
L 2375 4384 
L 1825 4384 
Q 1516 4384 1395 4259 
Q 1275 4134 1275 3809 
L 1275 3500 
L 2222 3500 
L 2222 3053 
L 1275 3053 
L 1275 0 
L 697 0 
L 697 3053 
L 147 3053 
L 147 3500 
L 697 3500 
L 697 3744 
Q 697 4328 969 4595 
Q 1241 4863 1831 4863 
L 2375 4863 
z
" transform="scale(0.015625)"/>
      </defs>
      <use xlink:href="#DejaVuSans-54"/>
      <use xlink:href="#DejaVuSans-72" x="46.333984"/>
      <use xlink:href="#DejaVuSans-61" x="87.447266"/>
      <use xlink:href="#DejaVuSans-6e" x="148.726562"/>
      <use xlink:href="#DejaVuSans-73" x="212.105469"/>
      <use xlink:href="#DejaVuSans-66" x="264.205078"/>
      <use xlink:href="#DejaVuSans-6f" x="299.410156"/>
      <use xlink:href="#DejaVuSans-72" x="360.591797"/>
      <use xlink:href="#DejaVuSans-6d" x="399.955078"/>
      <use xlink:href="#DejaVuSans-65" x="497.367188"/>
      <use xlink:href="#DejaVuSans-72" x="558.890625"/>
     </g>
    </g>
   </g>
  </g>
 </g>
 <defs>
  <clipPath id="pbe1c3cc179">
   <rect x="53.459375" y="7.2" width="648.005678" height="153.16"/>
  </clipPath>
 </defs>
</svg>
