<?xml version="1.0" encoding="utf-8" standalone="no"?>
<!DOCTYPE svg PUBLIC "-//W3C//DTD SVG 1.1//EN"
  "http://www.w3.org/Graphics/SVG/1.1/DTD/svg11.dtd">
<svg xmlns:xlink="http://www.w3.org/1999/xlink" width="937.351373pt" height="267.802188pt" viewBox="0 0 937.351373 267.802188" xmlns="http://www.w3.org/2000/svg" version="1.1">
 <metadata>
  <rdf:RDF xmlns:dc="http://purl.org/dc/elements/1.1/" xmlns:cc="http://creativecommons.org/ns#" xmlns:rdf="http://www.w3.org/1999/02/22-rdf-syntax-ns#">
   <cc:Work>
    <dc:type rdf:resource="http://purl.org/dc/dcmitype/StillImage"/>
    <dc:date>2023-09-29T16:37:52.102127</dc:date>
    <dc:format>image/svg+xml</dc:format>
    <dc:creator>
     <cc:Agent>
      <dc:title>Matplotlib v3.7.2, https://matplotlib.org/</dc:title>
     </cc:Agent>
    </dc:creator>
   </cc:Work>
  </rdf:RDF>
 </metadata>
 <defs>
  <style type="text/css">*{stroke-linejoin: round; stroke-linecap: butt}</style>
 </defs>
 <g id="figure_1">
  <g id="patch_1">
   <path d="M 0 267.802188 
L 937.351373 267.802188 
L 937.351373 0 
L 0 0 
z
" style="fill: #ffffff"/>
  </g>
  <g id="axes_1">
   <g id="patch_2">
    <path d="M 81.692813 199.275937 
L 918.692813 199.275937 
L 918.692813 32.955938 
L 81.692813 32.955938 
z
" style="fill: #ffffff"/>
   </g>
   <g id="PolyCollection_1">
    <path d="M 121.982837 113.80502 
L 121.982837 118.426855 
L 128.716545 119.430915 
L 133.205685 119.921358 
L 137.694824 120.18372 
L 142.183963 120.314769 
L 146.673102 120.373287 
L 151.162241 120.394871 
L 155.65138 120.397604 
L 160.14052 120.39772 
L 164.629659 120.402387 
L 169.118798 120.412782 
L 173.607937 120.42661 
L 178.097076 120.440245 
L 182.586216 120.456875 
L 187.075355 120.46947 
L 191.564494 120.474959 
L 196.053633 120.475685 
L 200.542772 120.477491 
L 205.031911 120.495382 
L 209.521051 120.544299 
L 214.01019 120.644508 
L 218.499329 120.819604 
L 222.988468 121.061849 
L 227.477607 121.353918 
L 231.966747 121.652904 
L 236.455886 121.907657 
L 240.945025 122.095492 
L 245.434164 122.209419 
L 249.923303 122.276237 
L 254.412442 122.304386 
L 258.901582 122.310775 
L 263.390721 122.310992 
L 267.87986 122.311908 
L 272.368999 122.317847 
L 276.858138 122.329337 
L 281.347278 122.346055 
L 285.836417 122.366697 
L 290.325556 122.387691 
L 294.814695 122.40375 
L 299.303834 122.4121 
L 303.792973 122.414192 
L 308.282113 122.414193 
L 312.771252 122.417773 
L 317.260391 122.434127 
L 321.74953 122.475079 
L 326.238669 122.553865 
L 330.727808 122.675818 
L 335.216948 122.83246 
L 339.706087 122.995333 
L 344.195226 123.137154 
L 348.684365 123.244154 
L 353.173504 123.313349 
L 357.662644 123.351477 
L 362.151783 123.365539 
L 366.640922 123.368544 
L 371.130061 123.368658 
L 375.6192 123.372702 
L 380.108339 123.38248 
L 384.597479 123.400521 
L 389.086618 123.423263 
L 393.575757 123.446483 
L 398.064896 123.46872 
L 402.554035 123.487444 
L 407.043175 123.498225 
L 411.532314 123.503303 
L 416.021453 123.504094 
L 420.510592 123.504759 
L 424.999731 123.513175 
L 429.48887 123.53981 
L 433.97801 123.593134 
L 438.467149 123.669797 
L 442.956288 123.774826 
L 447.445427 123.885554 
L 451.934566 123.986086 
L 456.423706 124.061342 
L 460.912845 124.106901 
L 465.401984 124.127962 
L 469.891123 124.133234 
L 474.380262 124.133397 
L 478.869401 124.135044 
L 483.358541 124.141262 
L 487.84768 124.155807 
L 492.336819 124.179459 
L 496.825958 124.204964 
L 501.315097 124.231791 
L 505.804236 124.254843 
L 510.293376 124.27357 
L 514.782515 124.285725 
L 519.271654 124.291006 
L 523.760793 124.292159 
L 528.249932 124.292405 
L 532.739072 124.297747 
L 537.228211 124.313324 
L 541.71735 124.348633 
L 546.206489 124.404744 
L 550.695628 124.481251 
L 555.184767 124.561661 
L 559.673907 124.629874 
L 564.163046 124.678956 
L 568.652185 124.711284 
L 573.141324 124.725065 
L 577.630463 124.728327 
L 582.119603 124.728328 
L 586.608742 124.730708 
L 591.097881 124.737726 
L 595.58702 124.750891 
L 600.076159 124.770789 
L 604.565298 124.793388 
L 609.054438 124.815042 
L 613.543577 124.835154 
L 618.032716 124.850487 
L 622.521855 124.858601 
L 627.010994 124.862225 
L 631.500133 124.862973 
L 635.989273 124.863226 
L 640.478412 124.867441 
L 644.967551 124.88425 
L 649.45669 124.91964 
L 653.945829 124.973639 
L 658.434969 125.047107 
L 662.924108 125.127467 
L 667.413247 125.196773 
L 671.902386 125.246935 
L 676.391525 125.276503 
L 680.880664 125.287553 
L 685.369804 125.290354 
L 689.858943 125.290375 
L 694.348082 125.293436 
L 698.837221 125.30124 
L 703.32636 125.314087 
L 707.8155 125.331665 
L 712.304639 125.351325 
L 716.793778 125.36927 
L 721.282917 125.385889 
L 725.772056 125.398467 
L 730.261195 125.405875 
L 734.750335 125.409798 
L 739.239474 125.410823 
L 743.728613 125.410901 
L 748.217752 125.414612 
L 752.706891 125.429605 
L 757.196031 125.460767 
L 761.68517 125.5107 
L 766.174309 125.580531 
L 770.663448 125.660682 
L 775.152587 125.729962 
L 779.641726 125.779196 
L 784.130866 125.805842 
L 788.620005 125.815554 
L 793.109144 125.817317 
L 797.598283 125.817333 
L 802.087422 125.819622 
L 806.576561 125.826905 
L 811.065701 125.839708 
L 815.55484 125.856866 
L 820.043979 125.876345 
L 824.533118 125.893946 
L 829.022257 125.909497 
L 833.511397 125.922432 
L 838.000536 125.930709 
L 842.489675 125.935289 
L 846.978814 125.936878 
L 851.467953 125.936878 
L 855.957092 125.93947 
L 860.446232 125.951497 
L 864.935371 125.977442 
L 869.42451 126.022745 
L 873.913649 126.088847 
L 880.647358 126.164955 
L 880.647358 106.06692 
L 880.647358 106.06692 
L 873.913649 106.143028 
L 869.42451 106.20913 
L 864.935371 106.254433 
L 860.446232 106.280378 
L 855.957092 106.292405 
L 851.467953 106.294997 
L 846.978814 106.294997 
L 842.489675 106.296586 
L 838.000536 106.301166 
L 833.511397 106.309443 
L 829.022257 106.322378 
L 824.533118 106.337929 
L 820.043979 106.35553 
L 815.55484 106.375009 
L 811.065701 106.392167 
L 806.576561 106.40497 
L 802.087422 106.412253 
L 797.598283 106.414542 
L 793.109144 106.414558 
L 788.620005 106.416321 
L 784.130866 106.426033 
L 779.641726 106.452679 
L 775.152587 106.501913 
L 770.663448 106.571193 
L 766.174309 106.651344 
L 761.68517 106.721175 
L 757.196031 106.771108 
L 752.706891 106.80227 
L 748.217752 106.817263 
L 743.728613 106.820974 
L 739.239474 106.821052 
L 734.750335 106.822077 
L 730.261195 106.826 
L 725.772056 106.833408 
L 721.282917 106.845986 
L 716.793778 106.862605 
L 712.304639 106.88055 
L 707.8155 106.90021 
L 703.32636 106.917788 
L 698.837221 106.930635 
L 694.348082 106.938439 
L 689.858943 106.9415 
L 685.369804 106.941521 
L 680.880664 106.944322 
L 676.391525 106.955372 
L 671.902386 106.98494 
L 667.413247 107.035102 
L 662.924108 107.104408 
L 658.434969 107.184768 
L 653.945829 107.258236 
L 649.45669 107.312235 
L 644.967551 107.347625 
L 640.478412 107.364434 
L 635.989273 107.368649 
L 631.500133 107.368902 
L 627.010994 107.36965 
L 622.521855 107.373274 
L 618.032716 107.381388 
L 613.543577 107.396721 
L 609.054438 107.416833 
L 604.565298 107.438487 
L 600.076159 107.461086 
L 595.58702 107.480984 
L 591.097881 107.494149 
L 586.608742 107.501167 
L 582.119603 107.503547 
L 577.630463 107.503548 
L 573.141324 107.50681 
L 568.652185 107.520591 
L 564.163046 107.552919 
L 559.673907 107.602001 
L 555.184767 107.670214 
L 550.695628 107.750624 
L 546.206489 107.827131 
L 541.71735 107.883242 
L 537.228211 107.918551 
L 532.739072 107.934128 
L 528.249932 107.93947 
L 523.760793 107.939716 
L 519.271654 107.940869 
L 514.782515 107.94615 
L 510.293376 107.958305 
L 505.804236 107.977032 
L 501.315097 108.000084 
L 496.825958 108.026911 
L 492.336819 108.052416 
L 487.84768 108.076068 
L 483.358541 108.090613 
L 478.869401 108.096831 
L 474.380262 108.098478 
L 469.891123 108.098641 
L 465.401984 108.103913 
L 460.912845 108.124974 
L 456.423706 108.170533 
L 451.934566 108.245789 
L 447.445427 108.346321 
L 442.956288 108.457049 
L 438.467149 108.562078 
L 433.97801 108.638741 
L 429.48887 108.692065 
L 424.999731 108.7187 
L 420.510592 108.727116 
L 416.021453 108.727781 
L 411.532314 108.728572 
L 407.043175 108.73365 
L 402.554035 108.744431 
L 398.064896 108.763155 
L 393.575757 108.785392 
L 389.086618 108.808612 
L 384.597479 108.831354 
L 380.108339 108.849395 
L 375.6192 108.859173 
L 371.130061 108.863217 
L 366.640922 108.863331 
L 362.151783 108.866336 
L 357.662644 108.880398 
L 353.173504 108.918526 
L 348.684365 108.987721 
L 344.195226 109.094721 
L 339.706087 109.236542 
L 335.216948 109.399415 
L 330.727808 109.556057 
L 326.238669 109.67801 
L 321.74953 109.756796 
L 317.260391 109.797748 
L 312.771252 109.814102 
L 308.282113 109.817682 
L 303.792973 109.817683 
L 299.303834 109.819775 
L 294.814695 109.828125 
L 290.325556 109.844184 
L 285.836417 109.865178 
L 281.347278 109.88582 
L 276.858138 109.902538 
L 272.368999 109.914028 
L 267.87986 109.919967 
L 263.390721 109.920883 
L 258.901582 109.9211 
L 254.412442 109.927489 
L 249.923303 109.955638 
L 245.434164 110.022456 
L 240.945025 110.136383 
L 236.455886 110.324218 
L 231.966747 110.578971 
L 227.477607 110.877957 
L 222.988468 111.170026 
L 218.499329 111.412271 
L 214.01019 111.587367 
L 209.521051 111.687576 
L 205.031911 111.736493 
L 200.542772 111.754384 
L 196.053633 111.75619 
L 191.564494 111.756916 
L 187.075355 111.762405 
L 182.586216 111.775 
L 178.097076 111.79163 
L 173.607937 111.805265 
L 169.118798 111.819093 
L 164.629659 111.829488 
L 160.14052 111.834155 
L 155.65138 111.834271 
L 151.162241 111.837004 
L 146.673102 111.858588 
L 142.183963 111.917106 
L 137.694824 112.048155 
L 133.205685 112.310517 
L 128.716545 112.80096 
L 121.982837 113.80502 
z
" clip-path="url(#pa9589490e6)" style="fill: #c0c0c0; fill-opacity: 0.25"/>
   </g>
   <g id="matplotlib.axis_1">
    <g id="xtick_1">
     <g id="line2d_1">
      <defs>
       <path id="m8dae78f518" d="M 0 0 
L 0 3.5 
" style="stroke: #000000; stroke-width: 0.8"/>
      </defs>
      <g>
       <use xlink:href="#m8dae78f518" x="119.738267" y="199.275937" style="stroke: #000000; stroke-width: 0.8"/>
      </g>
     </g>
     <g id="text_1">
      <!-- 0 -->
      <g transform="translate(111.467017 226.031875) scale(0.26 -0.26)">
       <defs>
        <path id="DejaVuSans-30" d="M 2034 4250 
Q 1547 4250 1301 3770 
Q 1056 3291 1056 2328 
Q 1056 1369 1301 889 
Q 1547 409 2034 409 
Q 2525 409 2770 889 
Q 3016 1369 3016 2328 
Q 3016 3291 2770 3770 
Q 2525 4250 2034 4250 
z
M 2034 4750 
Q 2819 4750 3233 4129 
Q 3647 3509 3647 2328 
Q 3647 1150 3233 529 
Q 2819 -91 2034 -91 
Q 1250 -91 836 529 
Q 422 1150 422 2328 
Q 422 3509 836 4129 
Q 1250 4750 2034 4750 
z
" transform="scale(0.015625)"/>
       </defs>
       <use xlink:href="#DejaVuSans-30"/>
      </g>
     </g>
    </g>
    <g id="xtick_2">
     <g id="line2d_2">
      <g>
       <use xlink:href="#m8dae78f518" x="231.966747" y="199.275937" style="stroke: #000000; stroke-width: 0.8"/>
      </g>
     </g>
     <g id="text_2">
      <!-- 25 -->
      <g transform="translate(215.424247 226.031875) scale(0.26 -0.26)">
       <defs>
        <path id="DejaVuSans-32" d="M 1228 531 
L 3431 531 
L 3431 0 
L 469 0 
L 469 531 
Q 828 903 1448 1529 
Q 2069 2156 2228 2338 
Q 2531 2678 2651 2914 
Q 2772 3150 2772 3378 
Q 2772 3750 2511 3984 
Q 2250 4219 1831 4219 
Q 1534 4219 1204 4116 
Q 875 4013 500 3803 
L 500 4441 
Q 881 4594 1212 4672 
Q 1544 4750 1819 4750 
Q 2544 4750 2975 4387 
Q 3406 4025 3406 3419 
Q 3406 3131 3298 2873 
Q 3191 2616 2906 2266 
Q 2828 2175 2409 1742 
Q 1991 1309 1228 531 
z
" transform="scale(0.015625)"/>
        <path id="DejaVuSans-35" d="M 691 4666 
L 3169 4666 
L 3169 4134 
L 1269 4134 
L 1269 2991 
Q 1406 3038 1543 3061 
Q 1681 3084 1819 3084 
Q 2600 3084 3056 2656 
Q 3513 2228 3513 1497 
Q 3513 744 3044 326 
Q 2575 -91 1722 -91 
Q 1428 -91 1123 -41 
Q 819 9 494 109 
L 494 744 
Q 775 591 1075 516 
Q 1375 441 1709 441 
Q 2250 441 2565 725 
Q 2881 1009 2881 1497 
Q 2881 1984 2565 2268 
Q 2250 2553 1709 2553 
Q 1456 2553 1204 2497 
Q 953 2441 691 2322 
L 691 4666 
z
" transform="scale(0.015625)"/>
       </defs>
       <use xlink:href="#DejaVuSans-32"/>
       <use xlink:href="#DejaVuSans-35" x="63.623047"/>
      </g>
     </g>
    </g>
    <g id="xtick_3">
     <g id="line2d_3">
      <g>
       <use xlink:href="#m8dae78f518" x="344.195226" y="199.275937" style="stroke: #000000; stroke-width: 0.8"/>
      </g>
     </g>
     <g id="text_3">
      <!-- 50 -->
      <g transform="translate(327.652726 226.031875) scale(0.26 -0.26)">
       <use xlink:href="#DejaVuSans-35"/>
       <use xlink:href="#DejaVuSans-30" x="63.623047"/>
      </g>
     </g>
    </g>
    <g id="xtick_4">
     <g id="line2d_4">
      <g>
       <use xlink:href="#m8dae78f518" x="456.423706" y="199.275937" style="stroke: #000000; stroke-width: 0.8"/>
      </g>
     </g>
     <g id="text_4">
      <!-- 75 -->
      <g transform="translate(439.881206 226.031875) scale(0.26 -0.26)">
       <defs>
        <path id="DejaVuSans-37" d="M 525 4666 
L 3525 4666 
L 3525 4397 
L 1831 0 
L 1172 0 
L 2766 4134 
L 525 4134 
L 525 4666 
z
" transform="scale(0.015625)"/>
       </defs>
       <use xlink:href="#DejaVuSans-37"/>
       <use xlink:href="#DejaVuSans-35" x="63.623047"/>
      </g>
     </g>
    </g>
    <g id="xtick_5">
     <g id="line2d_5">
      <g>
       <use xlink:href="#m8dae78f518" x="568.652185" y="199.275937" style="stroke: #000000; stroke-width: 0.8"/>
      </g>
     </g>
     <g id="text_5">
      <!-- 100 -->
      <g transform="translate(543.838435 226.031875) scale(0.26 -0.26)">
       <defs>
        <path id="DejaVuSans-31" d="M 794 531 
L 1825 531 
L 1825 4091 
L 703 3866 
L 703 4441 
L 1819 4666 
L 2450 4666 
L 2450 531 
L 3481 531 
L 3481 0 
L 794 0 
L 794 531 
z
" transform="scale(0.015625)"/>
       </defs>
       <use xlink:href="#DejaVuSans-31"/>
       <use xlink:href="#DejaVuSans-30" x="63.623047"/>
       <use xlink:href="#DejaVuSans-30" x="127.246094"/>
      </g>
     </g>
    </g>
    <g id="xtick_6">
     <g id="line2d_6">
      <g>
       <use xlink:href="#m8dae78f518" x="680.880664" y="199.275937" style="stroke: #000000; stroke-width: 0.8"/>
      </g>
     </g>
     <g id="text_6">
      <!-- 125 -->
      <g transform="translate(656.066914 226.031875) scale(0.26 -0.26)">
       <use xlink:href="#DejaVuSans-31"/>
       <use xlink:href="#DejaVuSans-32" x="63.623047"/>
       <use xlink:href="#DejaVuSans-35" x="127.246094"/>
      </g>
     </g>
    </g>
    <g id="xtick_7">
     <g id="line2d_7">
      <g>
       <use xlink:href="#m8dae78f518" x="793.109144" y="199.275937" style="stroke: #000000; stroke-width: 0.8"/>
      </g>
     </g>
     <g id="text_7">
      <!-- 150 -->
      <g transform="translate(768.295394 226.031875) scale(0.26 -0.26)">
       <use xlink:href="#DejaVuSans-31"/>
       <use xlink:href="#DejaVuSans-35" x="63.623047"/>
       <use xlink:href="#DejaVuSans-30" x="127.246094"/>
      </g>
     </g>
    </g>
    <g id="xtick_8">
     <g id="line2d_8">
      <g>
       <use xlink:href="#m8dae78f518" x="905.337623" y="199.275937" style="stroke: #000000; stroke-width: 0.8"/>
      </g>
     </g>
     <g id="text_8">
      <!-- 175 -->
      <g transform="translate(880.523873 226.031875) scale(0.26 -0.26)">
       <use xlink:href="#DejaVuSans-31"/>
       <use xlink:href="#DejaVuSans-37" x="63.623047"/>
       <use xlink:href="#DejaVuSans-35" x="127.246094"/>
      </g>
     </g>
    </g>
    <g id="text_9">
     <!-- Lags -->
     <g transform="translate(469.957656 255.195) scale(0.26 -0.26)">
      <defs>
       <path id="DejaVuSans-4c" d="M 628 4666 
L 1259 4666 
L 1259 531 
L 3531 531 
L 3531 0 
L 628 0 
L 628 4666 
z
" transform="scale(0.015625)"/>
       <path id="DejaVuSans-61" d="M 2194 1759 
Q 1497 1759 1228 1600 
Q 959 1441 959 1056 
Q 959 750 1161 570 
Q 1363 391 1709 391 
Q 2188 391 2477 730 
Q 2766 1069 2766 1631 
L 2766 1759 
L 2194 1759 
z
M 3341 1997 
L 3341 0 
L 2766 0 
L 2766 531 
Q 2569 213 2275 61 
Q 1981 -91 1556 -91 
Q 1019 -91 701 211 
Q 384 513 384 1019 
Q 384 1609 779 1909 
Q 1175 2209 1959 2209 
L 2766 2209 
L 2766 2266 
Q 2766 2663 2505 2880 
Q 2244 3097 1772 3097 
Q 1472 3097 1187 3025 
Q 903 2953 641 2809 
L 641 3341 
Q 956 3463 1253 3523 
Q 1550 3584 1831 3584 
Q 2591 3584 2966 3190 
Q 3341 2797 3341 1997 
z
" transform="scale(0.015625)"/>
       <path id="DejaVuSans-67" d="M 2906 1791 
Q 2906 2416 2648 2759 
Q 2391 3103 1925 3103 
Q 1463 3103 1205 2759 
Q 947 2416 947 1791 
Q 947 1169 1205 825 
Q 1463 481 1925 481 
Q 2391 481 2648 825 
Q 2906 1169 2906 1791 
z
M 3481 434 
Q 3481 -459 3084 -895 
Q 2688 -1331 1869 -1331 
Q 1566 -1331 1297 -1286 
Q 1028 -1241 775 -1147 
L 775 -588 
Q 1028 -725 1275 -790 
Q 1522 -856 1778 -856 
Q 2344 -856 2625 -561 
Q 2906 -266 2906 331 
L 2906 616 
Q 2728 306 2450 153 
Q 2172 0 1784 0 
Q 1141 0 747 490 
Q 353 981 353 1791 
Q 353 2603 747 3093 
Q 1141 3584 1784 3584 
Q 2172 3584 2450 3431 
Q 2728 3278 2906 2969 
L 2906 3500 
L 3481 3500 
L 3481 434 
z
" transform="scale(0.015625)"/>
       <path id="DejaVuSans-73" d="M 2834 3397 
L 2834 2853 
Q 2591 2978 2328 3040 
Q 2066 3103 1784 3103 
Q 1356 3103 1142 2972 
Q 928 2841 928 2578 
Q 928 2378 1081 2264 
Q 1234 2150 1697 2047 
L 1894 2003 
Q 2506 1872 2764 1633 
Q 3022 1394 3022 966 
Q 3022 478 2636 193 
Q 2250 -91 1575 -91 
Q 1294 -91 989 -36 
Q 684 19 347 128 
L 347 722 
Q 666 556 975 473 
Q 1284 391 1588 391 
Q 1994 391 2212 530 
Q 2431 669 2431 922 
Q 2431 1156 2273 1281 
Q 2116 1406 1581 1522 
L 1381 1569 
Q 847 1681 609 1914 
Q 372 2147 372 2553 
Q 372 3047 722 3315 
Q 1072 3584 1716 3584 
Q 2034 3584 2315 3537 
Q 2597 3491 2834 3397 
z
" transform="scale(0.015625)"/>
      </defs>
      <use xlink:href="#DejaVuSans-4c"/>
      <use xlink:href="#DejaVuSans-61" x="55.712891"/>
      <use xlink:href="#DejaVuSans-67" x="116.992188"/>
      <use xlink:href="#DejaVuSans-73" x="180.46875"/>
     </g>
    </g>
   </g>
   <g id="matplotlib.axis_2">
    <g id="ytick_1">
     <g id="line2d_9">
      <defs>
       <path id="mb445f2319b" d="M 0 0 
L -3.5 0 
" style="stroke: #000000; stroke-width: 0.8"/>
      </defs>
      <g>
       <use xlink:href="#mb445f2319b" x="81.692813" y="199.275937" style="stroke: #000000; stroke-width: 0.8"/>
      </g>
     </g>
     <g id="text_10">
      <!-- −1 -->
      <g transform="translate(36.363125 209.153906) scale(0.26 -0.26)">
       <defs>
        <path id="DejaVuSans-2212" d="M 678 2272 
L 4684 2272 
L 4684 1741 
L 678 1741 
L 678 2272 
z
" transform="scale(0.015625)"/>
       </defs>
       <use xlink:href="#DejaVuSans-2212"/>
       <use xlink:href="#DejaVuSans-31" x="83.789062"/>
      </g>
     </g>
    </g>
    <g id="ytick_2">
     <g id="line2d_10">
      <g>
       <use xlink:href="#mb445f2319b" x="81.692813" y="116.115938" style="stroke: #000000; stroke-width: 0.8"/>
      </g>
     </g>
     <g id="text_11">
      <!-- 0 -->
      <g transform="translate(58.150313 125.993906) scale(0.26 -0.26)">
       <use xlink:href="#DejaVuSans-30"/>
      </g>
     </g>
    </g>
    <g id="ytick_3">
     <g id="line2d_11">
      <g>
       <use xlink:href="#mb445f2319b" x="81.692813" y="32.955938" style="stroke: #000000; stroke-width: 0.8"/>
      </g>
     </g>
     <g id="text_12">
      <!-- 1 -->
      <g transform="translate(58.150313 42.833906) scale(0.26 -0.26)">
       <use xlink:href="#DejaVuSans-31"/>
      </g>
     </g>
    </g>
    <g id="text_13">
     <!-- Autocorrelation -->
     <g transform="translate(26.955938 216.047344) rotate(-90) scale(0.26 -0.26)">
      <defs>
       <path id="DejaVuSans-41" d="M 2188 4044 
L 1331 1722 
L 3047 1722 
L 2188 4044 
z
M 1831 4666 
L 2547 4666 
L 4325 0 
L 3669 0 
L 3244 1197 
L 1141 1197 
L 716 0 
L 50 0 
L 1831 4666 
z
" transform="scale(0.015625)"/>
       <path id="DejaVuSans-75" d="M 544 1381 
L 544 3500 
L 1119 3500 
L 1119 1403 
Q 1119 906 1312 657 
Q 1506 409 1894 409 
Q 2359 409 2629 706 
Q 2900 1003 2900 1516 
L 2900 3500 
L 3475 3500 
L 3475 0 
L 2900 0 
L 2900 538 
Q 2691 219 2414 64 
Q 2138 -91 1772 -91 
Q 1169 -91 856 284 
Q 544 659 544 1381 
z
M 1991 3584 
L 1991 3584 
z
" transform="scale(0.015625)"/>
       <path id="DejaVuSans-74" d="M 1172 4494 
L 1172 3500 
L 2356 3500 
L 2356 3053 
L 1172 3053 
L 1172 1153 
Q 1172 725 1289 603 
Q 1406 481 1766 481 
L 2356 481 
L 2356 0 
L 1766 0 
Q 1100 0 847 248 
Q 594 497 594 1153 
L 594 3053 
L 172 3053 
L 172 3500 
L 594 3500 
L 594 4494 
L 1172 4494 
z
" transform="scale(0.015625)"/>
       <path id="DejaVuSans-6f" d="M 1959 3097 
Q 1497 3097 1228 2736 
Q 959 2375 959 1747 
Q 959 1119 1226 758 
Q 1494 397 1959 397 
Q 2419 397 2687 759 
Q 2956 1122 2956 1747 
Q 2956 2369 2687 2733 
Q 2419 3097 1959 3097 
z
M 1959 3584 
Q 2709 3584 3137 3096 
Q 3566 2609 3566 1747 
Q 3566 888 3137 398 
Q 2709 -91 1959 -91 
Q 1206 -91 779 398 
Q 353 888 353 1747 
Q 353 2609 779 3096 
Q 1206 3584 1959 3584 
z
" transform="scale(0.015625)"/>
       <path id="DejaVuSans-63" d="M 3122 3366 
L 3122 2828 
Q 2878 2963 2633 3030 
Q 2388 3097 2138 3097 
Q 1578 3097 1268 2742 
Q 959 2388 959 1747 
Q 959 1106 1268 751 
Q 1578 397 2138 397 
Q 2388 397 2633 464 
Q 2878 531 3122 666 
L 3122 134 
Q 2881 22 2623 -34 
Q 2366 -91 2075 -91 
Q 1284 -91 818 406 
Q 353 903 353 1747 
Q 353 2603 823 3093 
Q 1294 3584 2113 3584 
Q 2378 3584 2631 3529 
Q 2884 3475 3122 3366 
z
" transform="scale(0.015625)"/>
       <path id="DejaVuSans-72" d="M 2631 2963 
Q 2534 3019 2420 3045 
Q 2306 3072 2169 3072 
Q 1681 3072 1420 2755 
Q 1159 2438 1159 1844 
L 1159 0 
L 581 0 
L 581 3500 
L 1159 3500 
L 1159 2956 
Q 1341 3275 1631 3429 
Q 1922 3584 2338 3584 
Q 2397 3584 2469 3576 
Q 2541 3569 2628 3553 
L 2631 2963 
z
" transform="scale(0.015625)"/>
       <path id="DejaVuSans-65" d="M 3597 1894 
L 3597 1613 
L 953 1613 
Q 991 1019 1311 708 
Q 1631 397 2203 397 
Q 2534 397 2845 478 
Q 3156 559 3463 722 
L 3463 178 
Q 3153 47 2828 -22 
Q 2503 -91 2169 -91 
Q 1331 -91 842 396 
Q 353 884 353 1716 
Q 353 2575 817 3079 
Q 1281 3584 2069 3584 
Q 2775 3584 3186 3129 
Q 3597 2675 3597 1894 
z
M 3022 2063 
Q 3016 2534 2758 2815 
Q 2500 3097 2075 3097 
Q 1594 3097 1305 2825 
Q 1016 2553 972 2059 
L 3022 2063 
z
" transform="scale(0.015625)"/>
       <path id="DejaVuSans-6c" d="M 603 4863 
L 1178 4863 
L 1178 0 
L 603 0 
L 603 4863 
z
" transform="scale(0.015625)"/>
       <path id="DejaVuSans-69" d="M 603 3500 
L 1178 3500 
L 1178 0 
L 603 0 
L 603 3500 
z
M 603 4863 
L 1178 4863 
L 1178 4134 
L 603 4134 
L 603 4863 
z
" transform="scale(0.015625)"/>
       <path id="DejaVuSans-6e" d="M 3513 2113 
L 3513 0 
L 2938 0 
L 2938 2094 
Q 2938 2591 2744 2837 
Q 2550 3084 2163 3084 
Q 1697 3084 1428 2787 
Q 1159 2491 1159 1978 
L 1159 0 
L 581 0 
L 581 3500 
L 1159 3500 
L 1159 2956 
Q 1366 3272 1645 3428 
Q 1925 3584 2291 3584 
Q 2894 3584 3203 3211 
Q 3513 2838 3513 2113 
z
" transform="scale(0.015625)"/>
      </defs>
      <use xlink:href="#DejaVuSans-41"/>
      <use xlink:href="#DejaVuSans-75" x="68.408203"/>
      <use xlink:href="#DejaVuSans-74" x="131.787109"/>
      <use xlink:href="#DejaVuSans-6f" x="170.996094"/>
      <use xlink:href="#DejaVuSans-63" x="232.177734"/>
      <use xlink:href="#DejaVuSans-6f" x="287.158203"/>
      <use xlink:href="#DejaVuSans-72" x="348.339844"/>
      <use xlink:href="#DejaVuSans-72" x="387.703125"/>
      <use xlink:href="#DejaVuSans-65" x="426.566406"/>
      <use xlink:href="#DejaVuSans-6c" x="488.089844"/>
      <use xlink:href="#DejaVuSans-61" x="515.873047"/>
      <use xlink:href="#DejaVuSans-74" x="577.152344"/>
      <use xlink:href="#DejaVuSans-69" x="616.361328"/>
      <use xlink:href="#DejaVuSans-6f" x="644.144531"/>
      <use xlink:href="#DejaVuSans-6e" x="705.326172"/>
     </g>
    </g>
   </g>
   <g id="LineCollection_1">
    <path d="M 119.738267 116.115938 
L 119.738267 32.955938 
" clip-path="url(#pa9589490e6)" style="fill: none; stroke: #13748b; stroke-width: 1.5"/>
    <path d="M 124.227406 116.115938 
L 124.227406 55.638877 
" clip-path="url(#pa9589490e6)" style="fill: none; stroke: #13748b; stroke-width: 1.5"/>
    <path d="M 128.716545 116.115938 
L 128.716545 68.564724 
" clip-path="url(#pa9589490e6)" style="fill: none; stroke: #13748b; stroke-width: 1.5"/>
    <path d="M 133.205685 116.115938 
L 133.205685 79.544582 
" clip-path="url(#pa9589490e6)" style="fill: none; stroke: #13748b; stroke-width: 1.5"/>
    <path d="M 137.694824 116.115938 
L 137.694824 89.631147 
" clip-path="url(#pa9589490e6)" style="fill: none; stroke: #13748b; stroke-width: 1.5"/>
    <path d="M 142.183963 116.115938 
L 142.183963 98.216238 
" clip-path="url(#pa9589490e6)" style="fill: none; stroke: #13748b; stroke-width: 1.5"/>
    <path d="M 146.673102 116.115938 
L 146.673102 105.193742 
" clip-path="url(#pa9589490e6)" style="fill: none; stroke: #13748b; stroke-width: 1.5"/>
    <path d="M 151.162241 116.115938 
L 151.162241 112.223383 
" clip-path="url(#pa9589490e6)" style="fill: none; stroke: #13748b; stroke-width: 1.5"/>
    <path d="M 155.65138 116.115938 
L 155.65138 116.915761 
" clip-path="url(#pa9589490e6)" style="fill: none; stroke: #13748b; stroke-width: 1.5"/>
    <path d="M 160.14052 116.115938 
L 160.14052 121.20455 
" clip-path="url(#pa9589490e6)" style="fill: none; stroke: #13748b; stroke-width: 1.5"/>
    <path d="M 164.629659 116.115938 
L 164.629659 123.716816 
" clip-path="url(#pa9589490e6)" style="fill: none; stroke: #13748b; stroke-width: 1.5"/>
    <path d="M 169.118798 116.115938 
L 169.118798 124.894624 
" clip-path="url(#pa9589490e6)" style="fill: none; stroke: #13748b; stroke-width: 1.5"/>
    <path d="M 173.607937 116.115938 
L 173.607937 124.847138 
" clip-path="url(#pa9589490e6)" style="fill: none; stroke: #13748b; stroke-width: 1.5"/>
    <path d="M 178.097076 116.115938 
L 178.097076 125.775195 
" clip-path="url(#pa9589490e6)" style="fill: none; stroke: #13748b; stroke-width: 1.5"/>
    <path d="M 182.586216 116.115938 
L 182.586216 124.536629 
" clip-path="url(#pa9589490e6)" style="fill: none; stroke: #13748b; stroke-width: 1.5"/>
    <path d="M 187.075355 116.115938 
L 187.075355 121.680353 
" clip-path="url(#pa9589490e6)" style="fill: none; stroke: #13748b; stroke-width: 1.5"/>
    <path d="M 191.564494 116.115938 
L 191.564494 118.139873 
" clip-path="url(#pa9589490e6)" style="fill: none; stroke: #13748b; stroke-width: 1.5"/>
    <path d="M 196.053633 116.115938 
L 196.053633 112.922078 
" clip-path="url(#pa9589490e6)" style="fill: none; stroke: #13748b; stroke-width: 1.5"/>
    <path d="M 200.542772 116.115938 
L 200.542772 106.053205 
" clip-path="url(#pa9589490e6)" style="fill: none; stroke: #13748b; stroke-width: 1.5"/>
    <path d="M 205.031911 116.115938 
L 205.031911 99.413503 
" clip-path="url(#pa9589490e6)" style="fill: none; stroke: #13748b; stroke-width: 1.5"/>
    <path d="M 209.521051 116.115938 
L 209.521051 92.008692 
" clip-path="url(#pa9589490e6)" style="fill: none; stroke: #13748b; stroke-width: 1.5"/>
    <path d="M 214.01019 116.115938 
L 214.01019 83.763541 
" clip-path="url(#pa9589490e6)" style="fill: none; stroke: #13748b; stroke-width: 1.5"/>
    <path d="M 218.499329 116.115938 
L 218.499329 77.21169 
" clip-path="url(#pa9589490e6)" style="fill: none; stroke: #13748b; stroke-width: 1.5"/>
    <path d="M 222.988468 116.115938 
L 222.988468 72.231122 
" clip-path="url(#pa9589490e6)" style="fill: none; stroke: #13748b; stroke-width: 1.5"/>
    <path d="M 227.477607 116.115938 
L 227.477607 70.444131 
" clip-path="url(#pa9589490e6)" style="fill: none; stroke: #13748b; stroke-width: 1.5"/>
    <path d="M 231.966747 116.115938 
L 231.966747 72.888053 
" clip-path="url(#pa9589490e6)" style="fill: none; stroke: #13748b; stroke-width: 1.5"/>
    <path d="M 236.455886 116.115938 
L 236.455886 78.279004 
" clip-path="url(#pa9589490e6)" style="fill: none; stroke: #13748b; stroke-width: 1.5"/>
    <path d="M 240.945025 116.115938 
L 240.945025 86.273405 
" clip-path="url(#pa9589490e6)" style="fill: none; stroke: #13748b; stroke-width: 1.5"/>
    <path d="M 245.434164 116.115938 
L 245.434164 93.091038 
" clip-path="url(#pa9589490e6)" style="fill: none; stroke: #13748b; stroke-width: 1.5"/>
    <path d="M 249.923303 116.115938 
L 249.923303 101.113727 
" clip-path="url(#pa9589490e6)" style="fill: none; stroke: #13748b; stroke-width: 1.5"/>
    <path d="M 254.412442 116.115938 
L 254.412442 108.958642 
" clip-path="url(#pa9589490e6)" style="fill: none; stroke: #13748b; stroke-width: 1.5"/>
    <path d="M 258.901582 116.115938 
L 258.901582 114.797055 
" clip-path="url(#pa9589490e6)" style="fill: none; stroke: #13748b; stroke-width: 1.5"/>
    <path d="M 263.390721 116.115938 
L 263.390721 118.828204 
" clip-path="url(#pa9589490e6)" style="fill: none; stroke: #13748b; stroke-width: 1.5"/>
    <path d="M 267.87986 116.115938 
L 267.87986 123.020274 
" clip-path="url(#pa9589490e6)" style="fill: none; stroke: #13748b; stroke-width: 1.5"/>
    <path d="M 272.368999 116.115938 
L 272.368999 125.726851 
" clip-path="url(#pa9589490e6)" style="fill: none; stroke: #13748b; stroke-width: 1.5"/>
    <path d="M 276.858138 116.115938 
L 276.858138 127.721809 
" clip-path="url(#pa9589490e6)" style="fill: none; stroke: #13748b; stroke-width: 1.5"/>
    <path d="M 281.347278 116.115938 
L 281.347278 129.031272 
" clip-path="url(#pa9589490e6)" style="fill: none; stroke: #13748b; stroke-width: 1.5"/>
    <path d="M 285.836417 116.115938 
L 285.836417 129.162998 
" clip-path="url(#pa9589490e6)" style="fill: none; stroke: #13748b; stroke-width: 1.5"/>
    <path d="M 290.325556 116.115938 
L 290.325556 127.543664 
" clip-path="url(#pa9589490e6)" style="fill: none; stroke: #13748b; stroke-width: 1.5"/>
    <path d="M 294.814695 116.115938 
L 294.814695 124.364222 
" clip-path="url(#pa9589490e6)" style="fill: none; stroke: #13748b; stroke-width: 1.5"/>
    <path d="M 299.303834 116.115938 
L 299.303834 120.246662 
" clip-path="url(#pa9589490e6)" style="fill: none; stroke: #13748b; stroke-width: 1.5"/>
    <path d="M 303.792973 116.115938 
L 303.792973 116.199399 
" clip-path="url(#pa9589490e6)" style="fill: none; stroke: #13748b; stroke-width: 1.5"/>
    <path d="M 308.282113 116.115938 
L 308.282113 110.711423 
" clip-path="url(#pa9589490e6)" style="fill: none; stroke: #13748b; stroke-width: 1.5"/>
    <path d="M 312.771252 116.115938 
L 312.771252 104.556005 
" clip-path="url(#pa9589490e6)" style="fill: none; stroke: #13748b; stroke-width: 1.5"/>
    <path d="M 317.260391 116.115938 
L 317.260391 97.781532 
" clip-path="url(#pa9589490e6)" style="fill: none; stroke: #13748b; stroke-width: 1.5"/>
    <path d="M 321.74953 116.115938 
L 321.74953 90.565668 
" clip-path="url(#pa9589490e6)" style="fill: none; stroke: #13748b; stroke-width: 1.5"/>
    <path d="M 326.238669 116.115938 
L 326.238669 84.079396 
" clip-path="url(#pa9589490e6)" style="fill: none; stroke: #13748b; stroke-width: 1.5"/>
    <path d="M 330.727808 116.115938 
L 330.727808 79.420733 
" clip-path="url(#pa9589490e6)" style="fill: none; stroke: #13748b; stroke-width: 1.5"/>
    <path d="M 335.216948 116.115938 
L 335.216948 78.250356 
" clip-path="url(#pa9589490e6)" style="fill: none; stroke: #13748b; stroke-width: 1.5"/>
    <path d="M 339.706087 116.115938 
L 339.706087 80.388559 
" clip-path="url(#pa9589490e6)" style="fill: none; stroke: #13748b; stroke-width: 1.5"/>
    <path d="M 344.195226 116.115938 
L 344.195226 84.806401 
" clip-path="url(#pa9589490e6)" style="fill: none; stroke: #13748b; stroke-width: 1.5"/>
    <path d="M 348.684365 116.115938 
L 348.684365 90.781597 
" clip-path="url(#pa9589490e6)" style="fill: none; stroke: #13748b; stroke-width: 1.5"/>
    <path d="M 353.173504 116.115938 
L 353.173504 97.239643 
" clip-path="url(#pa9589490e6)" style="fill: none; stroke: #13748b; stroke-width: 1.5"/>
    <path d="M 357.662644 116.115938 
L 357.662644 104.631688 
" clip-path="url(#pa9589490e6)" style="fill: none; stroke: #13748b; stroke-width: 1.5"/>
    <path d="M 362.151783 116.115938 
L 362.151783 110.804425 
" clip-path="url(#pa9589490e6)" style="fill: none; stroke: #13748b; stroke-width: 1.5"/>
    <path d="M 366.640922 116.115938 
L 366.640922 117.151415 
" clip-path="url(#pa9589490e6)" style="fill: none; stroke: #13748b; stroke-width: 1.5"/>
    <path d="M 371.130061 116.115938 
L 371.130061 122.279937 
" clip-path="url(#pa9589490e6)" style="fill: none; stroke: #13748b; stroke-width: 1.5"/>
    <path d="M 375.6192 116.115938 
L 375.6192 125.704821 
" clip-path="url(#pa9589490e6)" style="fill: none; stroke: #13748b; stroke-width: 1.5"/>
    <path d="M 380.108339 116.115938 
L 380.108339 129.153334 
" clip-path="url(#pa9589490e6)" style="fill: none; stroke: #13748b; stroke-width: 1.5"/>
    <path d="M 384.597479 116.115938 
L 384.597479 130.774384 
" clip-path="url(#pa9589490e6)" style="fill: none; stroke: #13748b; stroke-width: 1.5"/>
    <path d="M 389.086618 116.115938 
L 389.086618 130.950659 
" clip-path="url(#pa9589490e6)" style="fill: none; stroke: #13748b; stroke-width: 1.5"/>
    <path d="M 393.575757 116.115938 
L 393.575757 130.656208 
" clip-path="url(#pa9589490e6)" style="fill: none; stroke: #13748b; stroke-width: 1.5"/>
    <path d="M 398.064896 116.115938 
L 398.064896 129.476696 
" clip-path="url(#pa9589490e6)" style="fill: none; stroke: #13748b; stroke-width: 1.5"/>
    <path d="M 402.554035 116.115938 
L 402.554035 126.264289 
" clip-path="url(#pa9589490e6)" style="fill: none; stroke: #13748b; stroke-width: 1.5"/>
    <path d="M 407.043175 116.115938 
L 407.043175 123.084483 
" clip-path="url(#pa9589490e6)" style="fill: none; stroke: #13748b; stroke-width: 1.5"/>
    <path d="M 411.532314 116.115938 
L 411.532314 118.866179 
" clip-path="url(#pa9589490e6)" style="fill: none; stroke: #13748b; stroke-width: 1.5"/>
    <path d="M 416.021453 116.115938 
L 416.021453 113.59376 
" clip-path="url(#pa9589490e6)" style="fill: none; stroke: #13748b; stroke-width: 1.5"/>
    <path d="M 420.510592 116.115938 
L 420.510592 107.139643 
" clip-path="url(#pa9589490e6)" style="fill: none; stroke: #13748b; stroke-width: 1.5"/>
    <path d="M 424.999731 116.115938 
L 424.999731 100.128287 
" clip-path="url(#pa9589490e6)" style="fill: none; stroke: #13748b; stroke-width: 1.5"/>
    <path d="M 429.48887 116.115938 
L 429.48887 93.433763 
" clip-path="url(#pa9589490e6)" style="fill: none; stroke: #13748b; stroke-width: 1.5"/>
    <path d="M 433.97801 116.115938 
L 433.97801 88.80092 
" clip-path="url(#pa9589490e6)" style="fill: none; stroke: #13748b; stroke-width: 1.5"/>
    <path d="M 438.467149 116.115938 
L 438.467149 83.951612 
" clip-path="url(#pa9589490e6)" style="fill: none; stroke: #13748b; stroke-width: 1.5"/>
    <path d="M 442.956288 116.115938 
L 442.956288 82.857236 
" clip-path="url(#pa9589490e6)" style="fill: none; stroke: #13748b; stroke-width: 1.5"/>
    <path d="M 447.445427 116.115938 
L 447.445427 84.209153 
" clip-path="url(#pa9589490e6)" style="fill: none; stroke: #13748b; stroke-width: 1.5"/>
    <path d="M 451.934566 116.115938 
L 451.934566 88.35537 
" clip-path="url(#pa9589490e6)" style="fill: none; stroke: #13748b; stroke-width: 1.5"/>
    <path d="M 456.423706 116.115938 
L 456.423706 94.434168 
" clip-path="url(#pa9589490e6)" style="fill: none; stroke: #13748b; stroke-width: 1.5"/>
    <path d="M 460.912845 116.115938 
L 460.912845 101.343362 
" clip-path="url(#pa9589490e6)" style="fill: none; stroke: #13748b; stroke-width: 1.5"/>
    <path d="M 465.401984 116.115938 
L 465.401984 108.71871 
" clip-path="url(#pa9589490e6)" style="fill: none; stroke: #13748b; stroke-width: 1.5"/>
    <path d="M 469.891123 116.115938 
L 469.891123 114.817043 
" clip-path="url(#pa9589490e6)" style="fill: none; stroke: #13748b; stroke-width: 1.5"/>
    <path d="M 474.380262 116.115938 
L 474.380262 120.251768 
" clip-path="url(#pa9589490e6)" style="fill: none; stroke: #13748b; stroke-width: 1.5"/>
    <path d="M 478.869401 116.115938 
L 478.869401 124.152976 
" clip-path="url(#pa9589490e6)" style="fill: none; stroke: #13748b; stroke-width: 1.5"/>
    <path d="M 483.358541 116.115938 
L 483.358541 128.416336 
" clip-path="url(#pa9589490e6)" style="fill: none; stroke: #13748b; stroke-width: 1.5"/>
    <path d="M 487.84768 116.115938 
L 487.84768 131.819651 
" clip-path="url(#pa9589490e6)" style="fill: none; stroke: #13748b; stroke-width: 1.5"/>
    <path d="M 492.336819 116.115938 
L 492.336819 132.448471 
" clip-path="url(#pa9589490e6)" style="fill: none; stroke: #13748b; stroke-width: 1.5"/>
    <path d="M 496.825958 116.115938 
L 496.825958 132.893124 
" clip-path="url(#pa9589490e6)" style="fill: none; stroke: #13748b; stroke-width: 1.5"/>
    <path d="M 501.315097 116.115938 
L 501.315097 131.692213 
" clip-path="url(#pa9589490e6)" style="fill: none; stroke: #13748b; stroke-width: 1.5"/>
    <path d="M 505.804236 116.115938 
L 505.804236 130.173031 
" clip-path="url(#pa9589490e6)" style="fill: none; stroke: #13748b; stroke-width: 1.5"/>
    <path d="M 510.293376 116.115938 
L 510.293376 127.451763 
" clip-path="url(#pa9589490e6)" style="fill: none; stroke: #13748b; stroke-width: 1.5"/>
    <path d="M 514.782515 116.115938 
L 514.782515 123.592069 
" clip-path="url(#pa9589490e6)" style="fill: none; stroke: #13748b; stroke-width: 1.5"/>
    <path d="M 519.271654 116.115938 
L 519.271654 119.610103 
" clip-path="url(#pa9589490e6)" style="fill: none; stroke: #13748b; stroke-width: 1.5"/>
    <path d="M 523.760793 116.115938 
L 523.760793 114.504462 
" clip-path="url(#pa9589490e6)" style="fill: none; stroke: #13748b; stroke-width: 1.5"/>
    <path d="M 528.249932 116.115938 
L 528.249932 108.593363 
" clip-path="url(#pa9589490e6)" style="fill: none; stroke: #13748b; stroke-width: 1.5"/>
    <path d="M 532.739072 116.115938 
L 532.739072 103.263186 
" clip-path="url(#pa9589490e6)" style="fill: none; stroke: #13748b; stroke-width: 1.5"/>
    <path d="M 537.228211 116.115938 
L 537.228211 96.734889 
" clip-path="url(#pa9589490e6)" style="fill: none; stroke: #13748b; stroke-width: 1.5"/>
    <path d="M 541.71735 116.115938 
L 541.71735 91.616151 
" clip-path="url(#pa9589490e6)" style="fill: none; stroke: #13748b; stroke-width: 1.5"/>
    <path d="M 546.206489 116.115938 
L 546.206489 87.393021 
" clip-path="url(#pa9589490e6)" style="fill: none; stroke: #13748b; stroke-width: 1.5"/>
    <path d="M 550.695628 116.115938 
L 550.695628 86.531208 
" clip-path="url(#pa9589490e6)" style="fill: none; stroke: #13748b; stroke-width: 1.5"/>
    <path d="M 555.184767 116.115938 
L 555.184767 88.747014 
" clip-path="url(#pa9589490e6)" style="fill: none; stroke: #13748b; stroke-width: 1.5"/>
    <path d="M 559.673907 116.115938 
L 559.673907 92.819967 
" clip-path="url(#pa9589490e6)" style="fill: none; stroke: #13748b; stroke-width: 1.5"/>
    <path d="M 564.163046 116.115938 
L 564.163046 97.164585 
" clip-path="url(#pa9589490e6)" style="fill: none; stroke: #13748b; stroke-width: 1.5"/>
    <path d="M 568.652185 116.115938 
L 568.652185 103.725654 
" clip-path="url(#pa9589490e6)" style="fill: none; stroke: #13748b; stroke-width: 1.5"/>
    <path d="M 573.141324 116.115938 
L 573.141324 110.085352 
" clip-path="url(#pa9589490e6)" style="fill: none; stroke: #13748b; stroke-width: 1.5"/>
    <path d="M 577.630463 116.115938 
L 577.630463 116.23303 
" clip-path="url(#pa9589490e6)" style="fill: none; stroke: #13748b; stroke-width: 1.5"/>
    <path d="M 582.119603 116.115938 
L 582.119603 121.268303 
" clip-path="url(#pa9589490e6)" style="fill: none; stroke: #13748b; stroke-width: 1.5"/>
    <path d="M 586.608742 116.115938 
L 586.608742 124.965795 
" clip-path="url(#pa9589490e6)" style="fill: none; stroke: #13748b; stroke-width: 1.5"/>
    <path d="M 591.097881 116.115938 
L 591.097881 128.244426 
" clip-path="url(#pa9589490e6)" style="fill: none; stroke: #13748b; stroke-width: 1.5"/>
    <path d="M 595.58702 116.115938 
L 595.58702 131.041105 
" clip-path="url(#pa9589490e6)" style="fill: none; stroke: #13748b; stroke-width: 1.5"/>
    <path d="M 600.076159 116.115938 
L 600.076159 132.041187 
" clip-path="url(#pa9589490e6)" style="fill: none; stroke: #13748b; stroke-width: 1.5"/>
    <path d="M 604.565298 116.115938 
L 604.565298 131.724684 
" clip-path="url(#pa9589490e6)" style="fill: none; stroke: #13748b; stroke-width: 1.5"/>
    <path d="M 609.054438 116.115938 
L 609.054438 131.17661 
" clip-path="url(#pa9589490e6)" style="fill: none; stroke: #13748b; stroke-width: 1.5"/>
    <path d="M 613.543577 116.115938 
L 613.543577 129.279331 
" clip-path="url(#pa9589490e6)" style="fill: none; stroke: #13748b; stroke-width: 1.5"/>
    <path d="M 618.032716 116.115938 
L 618.032716 125.698279 
" clip-path="url(#pa9589490e6)" style="fill: none; stroke: #13748b; stroke-width: 1.5"/>
    <path d="M 622.521855 116.115938 
L 622.521855 122.522405 
" clip-path="url(#pa9589490e6)" style="fill: none; stroke: #13748b; stroke-width: 1.5"/>
    <path d="M 627.010994 116.115938 
L 627.010994 119.026285 
" clip-path="url(#pa9589490e6)" style="fill: none; stroke: #13748b; stroke-width: 1.5"/>
    <path d="M 631.500133 116.115938 
L 631.500133 114.42309 
" clip-path="url(#pa9589490e6)" style="fill: none; stroke: #13748b; stroke-width: 1.5"/>
    <path d="M 635.989273 116.115938 
L 635.989273 109.205204 
" clip-path="url(#pa9589490e6)" style="fill: none; stroke: #13748b; stroke-width: 1.5"/>
    <path d="M 640.478412 116.115938 
L 640.478412 102.307217 
" clip-path="url(#pa9589490e6)" style="fill: none; stroke: #13748b; stroke-width: 1.5"/>
    <path d="M 644.967551 116.115938 
L 644.967551 96.0497 
" clip-path="url(#pa9589490e6)" style="fill: none; stroke: #13748b; stroke-width: 1.5"/>
    <path d="M 649.45669 116.115938 
L 649.45669 91.266344 
" clip-path="url(#pa9589490e6)" style="fill: none; stroke: #13748b; stroke-width: 1.5"/>
    <path d="M 653.945829 116.115938 
L 653.945829 87.026312 
" clip-path="url(#pa9589490e6)" style="fill: none; stroke: #13748b; stroke-width: 1.5"/>
    <path d="M 658.434969 116.115938 
L 658.434969 85.561125 
" clip-path="url(#pa9589490e6)" style="fill: none; stroke: #13748b; stroke-width: 1.5"/>
    <path d="M 662.924108 116.115938 
L 662.924108 87.622431 
" clip-path="url(#pa9589490e6)" style="fill: none; stroke: #13748b; stroke-width: 1.5"/>
    <path d="M 667.413247 116.115938 
L 667.413247 91.795065 
" clip-path="url(#pa9589490e6)" style="fill: none; stroke: #13748b; stroke-width: 1.5"/>
    <path d="M 671.902386 116.115938 
L 671.902386 97.402563 
" clip-path="url(#pa9589490e6)" style="fill: none; stroke: #13748b; stroke-width: 1.5"/>
    <path d="M 676.391525 116.115938 
L 676.391525 104.662966 
" clip-path="url(#pa9589490e6)" style="fill: none; stroke: #13748b; stroke-width: 1.5"/>
    <path d="M 680.880664 116.115938 
L 680.880664 110.348056 
" clip-path="url(#pa9589490e6)" style="fill: none; stroke: #13748b; stroke-width: 1.5"/>
    <path d="M 685.369804 116.115938 
L 685.369804 116.618324 
" clip-path="url(#pa9589490e6)" style="fill: none; stroke: #13748b; stroke-width: 1.5"/>
    <path d="M 689.858943 116.115938 
L 689.858943 122.146797 
" clip-path="url(#pa9589490e6)" style="fill: none; stroke: #13748b; stroke-width: 1.5"/>
    <path d="M 694.348082 116.115938 
L 694.348082 125.748499 
" clip-path="url(#pa9589490e6)" style="fill: none; stroke: #13748b; stroke-width: 1.5"/>
    <path d="M 698.837221 116.115938 
L 698.837221 128.482021 
" clip-path="url(#pa9589490e6)" style="fill: none; stroke: #13748b; stroke-width: 1.5"/>
    <path d="M 703.32636 116.115938 
L 703.32636 130.592522 
" clip-path="url(#pa9589490e6)" style="fill: none; stroke: #13748b; stroke-width: 1.5"/>
    <path d="M 707.8155 116.115938 
L 707.8155 131.441809 
" clip-path="url(#pa9589490e6)" style="fill: none; stroke: #13748b; stroke-width: 1.5"/>
    <path d="M 712.304639 116.115938 
L 712.304639 130.772759 
" clip-path="url(#pa9589490e6)" style="fill: none; stroke: #13748b; stroke-width: 1.5"/>
    <path d="M 716.793778 116.115938 
L 716.793778 130.233995 
" clip-path="url(#pa9589490e6)" style="fill: none; stroke: #13748b; stroke-width: 1.5"/>
    <path d="M 721.282917 116.115938 
L 721.282917 128.407584 
" clip-path="url(#pa9589490e6)" style="fill: none; stroke: #13748b; stroke-width: 1.5"/>
    <path d="M 725.772056 116.115938 
L 725.772056 125.554827 
" clip-path="url(#pa9589490e6)" style="fill: none; stroke: #13748b; stroke-width: 1.5"/>
    <path d="M 730.261195 116.115938 
L 730.261195 122.986318 
" clip-path="url(#pa9589490e6)" style="fill: none; stroke: #13748b; stroke-width: 1.5"/>
    <path d="M 734.750335 116.115938 
L 734.750335 119.627573 
" clip-path="url(#pa9589490e6)" style="fill: none; stroke: #13748b; stroke-width: 1.5"/>
    <path d="M 739.239474 116.115938 
L 739.239474 115.145798 
" clip-path="url(#pa9589490e6)" style="fill: none; stroke: #13748b; stroke-width: 1.5"/>
    <path d="M 743.728613 116.115938 
L 743.728613 109.431706 
" clip-path="url(#pa9589490e6)" style="fill: none; stroke: #13748b; stroke-width: 1.5"/>
    <path d="M 748.217752 116.115938 
L 748.217752 102.674198 
" clip-path="url(#pa9589490e6)" style="fill: none; stroke: #13748b; stroke-width: 1.5"/>
    <path d="M 752.706891 116.115938 
L 752.706891 96.713044 
" clip-path="url(#pa9589490e6)" style="fill: none; stroke: #13748b; stroke-width: 1.5"/>
    <path d="M 757.196031 116.115938 
L 757.196031 91.501518 
" clip-path="url(#pa9589490e6)" style="fill: none; stroke: #13748b; stroke-width: 1.5"/>
    <path d="M 761.68517 116.115938 
L 761.68517 86.914562 
" clip-path="url(#pa9589490e6)" style="fill: none; stroke: #13748b; stroke-width: 1.5"/>
    <path d="M 766.174309 116.115938 
L 766.174309 84.707082 
" clip-path="url(#pa9589490e6)" style="fill: none; stroke: #13748b; stroke-width: 1.5"/>
    <path d="M 770.663448 116.115938 
L 770.663448 86.800109 
" clip-path="url(#pa9589490e6)" style="fill: none; stroke: #13748b; stroke-width: 1.5"/>
    <path d="M 775.152587 116.115938 
L 775.152587 91.32608 
" clip-path="url(#pa9589490e6)" style="fill: none; stroke: #13748b; stroke-width: 1.5"/>
    <path d="M 779.641726 116.115938 
L 779.641726 97.84331 
" clip-path="url(#pa9589490e6)" style="fill: none; stroke: #13748b; stroke-width: 1.5"/>
    <path d="M 784.130866 116.115938 
L 784.130866 105.073518 
" clip-path="url(#pa9589490e6)" style="fill: none; stroke: #13748b; stroke-width: 1.5"/>
    <path d="M 788.620005 116.115938 
L 788.620005 111.40965 
" clip-path="url(#pa9589490e6)" style="fill: none; stroke: #13748b; stroke-width: 1.5"/>
    <path d="M 793.109144 116.115938 
L 793.109144 116.559118 
" clip-path="url(#pa9589490e6)" style="fill: none; stroke: #13748b; stroke-width: 1.5"/>
    <path d="M 797.598283 116.115938 
L 797.598283 121.478427 
" clip-path="url(#pa9589490e6)" style="fill: none; stroke: #13748b; stroke-width: 1.5"/>
    <path d="M 802.087422 116.115938 
L 802.087422 125.684244 
" clip-path="url(#pa9589490e6)" style="fill: none; stroke: #13748b; stroke-width: 1.5"/>
    <path d="M 806.576561 116.115938 
L 806.576561 128.809169 
" clip-path="url(#pa9589490e6)" style="fill: none; stroke: #13748b; stroke-width: 1.5"/>
    <path d="M 811.065701 116.115938 
L 811.065701 130.821113 
" clip-path="url(#pa9589490e6)" style="fill: none; stroke: #13748b; stroke-width: 1.5"/>
    <path d="M 815.55484 116.115938 
L 815.55484 131.798948 
" clip-path="url(#pa9589490e6)" style="fill: none; stroke: #13748b; stroke-width: 1.5"/>
    <path d="M 820.043979 116.115938 
L 820.043979 131.037868 
" clip-path="url(#pa9589490e6)" style="fill: none; stroke: #13748b; stroke-width: 1.5"/>
    <path d="M 824.533118 116.115938 
L 824.533118 130.154027 
" clip-path="url(#pa9589490e6)" style="fill: none; stroke: #13748b; stroke-width: 1.5"/>
    <path d="M 829.022257 116.115938 
L 829.022257 128.928514 
" clip-path="url(#pa9589490e6)" style="fill: none; stroke: #13748b; stroke-width: 1.5"/>
    <path d="M 833.511397 116.115938 
L 833.511397 126.370216 
" clip-path="url(#pa9589490e6)" style="fill: none; stroke: #13748b; stroke-width: 1.5"/>
    <path d="M 838.000536 116.115938 
L 838.000536 123.746571 
" clip-path="url(#pa9589490e6)" style="fill: none; stroke: #13748b; stroke-width: 1.5"/>
    <path d="M 842.489675 116.115938 
L 842.489675 120.611234 
" clip-path="url(#pa9589490e6)" style="fill: none; stroke: #13748b; stroke-width: 1.5"/>
    <path d="M 846.978814 116.115938 
L 846.978814 116.078669 
" clip-path="url(#pa9589490e6)" style="fill: none; stroke: #13748b; stroke-width: 1.5"/>
    <path d="M 851.467953 116.115938 
L 851.467953 110.374807 
" clip-path="url(#pa9589490e6)" style="fill: none; stroke: #13748b; stroke-width: 1.5"/>
    <path d="M 855.957092 116.115938 
L 855.957092 103.74299 
" clip-path="url(#pa9589490e6)" style="fill: none; stroke: #13748b; stroke-width: 1.5"/>
    <path d="M 860.446232 116.115938 
L 860.446232 97.925227 
" clip-path="url(#pa9589490e6)" style="fill: none; stroke: #13748b; stroke-width: 1.5"/>
    <path d="M 864.935371 116.115938 
L 864.935371 92.035562 
" clip-path="url(#pa9589490e6)" style="fill: none; stroke: #13748b; stroke-width: 1.5"/>
    <path d="M 869.42451 116.115938 
L 869.42451 86.946559 
" clip-path="url(#pa9589490e6)" style="fill: none; stroke: #13748b; stroke-width: 1.5"/>
    <path d="M 873.913649 116.115938 
L 873.913649 84.704995 
" clip-path="url(#pa9589490e6)" style="fill: none; stroke: #13748b; stroke-width: 1.5"/>
    <path d="M 878.402788 116.115938 
L 878.402788 87.469709 
" clip-path="url(#pa9589490e6)" style="fill: none; stroke: #13748b; stroke-width: 1.5"/>
   </g>
   <g id="line2d_12">
    <path d="M 81.692813 116.115938 
L 918.692813 116.115938 
" clip-path="url(#pa9589490e6)" style="fill: none; stroke: #000000; stroke-linecap: square"/>
   </g>
   <g id="line2d_13">
    <defs>
     <path id="mbf45fad73c" d="M 0 2.5 
C 0.663008 2.5 1.29895 2.236584 1.767767 1.767767 
C 2.236584 1.29895 2.5 0.663008 2.5 0 
C 2.5 -0.663008 2.236584 -1.29895 1.767767 -1.767767 
C 1.29895 -2.236584 0.663008 -2.5 0 -2.5 
C -0.663008 -2.5 -1.29895 -2.236584 -1.767767 -1.767767 
C -2.236584 -1.29895 -2.5 -0.663008 -2.5 0 
C -2.5 0.663008 -2.236584 1.29895 -1.767767 1.767767 
C -1.29895 2.236584 -0.663008 2.5 0 2.5 
z
" style="stroke: #13748b"/>
    </defs>
    <g clip-path="url(#pa9589490e6)">
     <use xlink:href="#mbf45fad73c" x="119.738267" y="32.955938" style="fill: #13748b; stroke: #13748b"/>
     <use xlink:href="#mbf45fad73c" x="124.227406" y="55.638877" style="fill: #13748b; stroke: #13748b"/>
     <use xlink:href="#mbf45fad73c" x="128.716545" y="68.564724" style="fill: #13748b; stroke: #13748b"/>
     <use xlink:href="#mbf45fad73c" x="133.205685" y="79.544582" style="fill: #13748b; stroke: #13748b"/>
     <use xlink:href="#mbf45fad73c" x="137.694824" y="89.631147" style="fill: #13748b; stroke: #13748b"/>
     <use xlink:href="#mbf45fad73c" x="142.183963" y="98.216238" style="fill: #13748b; stroke: #13748b"/>
     <use xlink:href="#mbf45fad73c" x="146.673102" y="105.193742" style="fill: #13748b; stroke: #13748b"/>
     <use xlink:href="#mbf45fad73c" x="151.162241" y="112.223383" style="fill: #13748b; stroke: #13748b"/>
     <use xlink:href="#mbf45fad73c" x="155.65138" y="116.915761" style="fill: #13748b; stroke: #13748b"/>
     <use xlink:href="#mbf45fad73c" x="160.14052" y="121.20455" style="fill: #13748b; stroke: #13748b"/>
     <use xlink:href="#mbf45fad73c" x="164.629659" y="123.716816" style="fill: #13748b; stroke: #13748b"/>
     <use xlink:href="#mbf45fad73c" x="169.118798" y="124.894624" style="fill: #13748b; stroke: #13748b"/>
     <use xlink:href="#mbf45fad73c" x="173.607937" y="124.847138" style="fill: #13748b; stroke: #13748b"/>
     <use xlink:href="#mbf45fad73c" x="178.097076" y="125.775195" style="fill: #13748b; stroke: #13748b"/>
     <use xlink:href="#mbf45fad73c" x="182.586216" y="124.536629" style="fill: #13748b; stroke: #13748b"/>
     <use xlink:href="#mbf45fad73c" x="187.075355" y="121.680353" style="fill: #13748b; stroke: #13748b"/>
     <use xlink:href="#mbf45fad73c" x="191.564494" y="118.139873" style="fill: #13748b; stroke: #13748b"/>
     <use xlink:href="#mbf45fad73c" x="196.053633" y="112.922078" style="fill: #13748b; stroke: #13748b"/>
     <use xlink:href="#mbf45fad73c" x="200.542772" y="106.053205" style="fill: #13748b; stroke: #13748b"/>
     <use xlink:href="#mbf45fad73c" x="205.031911" y="99.413503" style="fill: #13748b; stroke: #13748b"/>
     <use xlink:href="#mbf45fad73c" x="209.521051" y="92.008692" style="fill: #13748b; stroke: #13748b"/>
     <use xlink:href="#mbf45fad73c" x="214.01019" y="83.763541" style="fill: #13748b; stroke: #13748b"/>
     <use xlink:href="#mbf45fad73c" x="218.499329" y="77.21169" style="fill: #13748b; stroke: #13748b"/>
     <use xlink:href="#mbf45fad73c" x="222.988468" y="72.231122" style="fill: #13748b; stroke: #13748b"/>
     <use xlink:href="#mbf45fad73c" x="227.477607" y="70.444131" style="fill: #13748b; stroke: #13748b"/>
     <use xlink:href="#mbf45fad73c" x="231.966747" y="72.888053" style="fill: #13748b; stroke: #13748b"/>
     <use xlink:href="#mbf45fad73c" x="236.455886" y="78.279004" style="fill: #13748b; stroke: #13748b"/>
     <use xlink:href="#mbf45fad73c" x="240.945025" y="86.273405" style="fill: #13748b; stroke: #13748b"/>
     <use xlink:href="#mbf45fad73c" x="245.434164" y="93.091038" style="fill: #13748b; stroke: #13748b"/>
     <use xlink:href="#mbf45fad73c" x="249.923303" y="101.113727" style="fill: #13748b; stroke: #13748b"/>
     <use xlink:href="#mbf45fad73c" x="254.412442" y="108.958642" style="fill: #13748b; stroke: #13748b"/>
     <use xlink:href="#mbf45fad73c" x="258.901582" y="114.797055" style="fill: #13748b; stroke: #13748b"/>
     <use xlink:href="#mbf45fad73c" x="263.390721" y="118.828204" style="fill: #13748b; stroke: #13748b"/>
     <use xlink:href="#mbf45fad73c" x="267.87986" y="123.020274" style="fill: #13748b; stroke: #13748b"/>
     <use xlink:href="#mbf45fad73c" x="272.368999" y="125.726851" style="fill: #13748b; stroke: #13748b"/>
     <use xlink:href="#mbf45fad73c" x="276.858138" y="127.721809" style="fill: #13748b; stroke: #13748b"/>
     <use xlink:href="#mbf45fad73c" x="281.347278" y="129.031272" style="fill: #13748b; stroke: #13748b"/>
     <use xlink:href="#mbf45fad73c" x="285.836417" y="129.162998" style="fill: #13748b; stroke: #13748b"/>
     <use xlink:href="#mbf45fad73c" x="290.325556" y="127.543664" style="fill: #13748b; stroke: #13748b"/>
     <use xlink:href="#mbf45fad73c" x="294.814695" y="124.364222" style="fill: #13748b; stroke: #13748b"/>
     <use xlink:href="#mbf45fad73c" x="299.303834" y="120.246662" style="fill: #13748b; stroke: #13748b"/>
     <use xlink:href="#mbf45fad73c" x="303.792973" y="116.199399" style="fill: #13748b; stroke: #13748b"/>
     <use xlink:href="#mbf45fad73c" x="308.282113" y="110.711423" style="fill: #13748b; stroke: #13748b"/>
     <use xlink:href="#mbf45fad73c" x="312.771252" y="104.556005" style="fill: #13748b; stroke: #13748b"/>
     <use xlink:href="#mbf45fad73c" x="317.260391" y="97.781532" style="fill: #13748b; stroke: #13748b"/>
     <use xlink:href="#mbf45fad73c" x="321.74953" y="90.565668" style="fill: #13748b; stroke: #13748b"/>
     <use xlink:href="#mbf45fad73c" x="326.238669" y="84.079396" style="fill: #13748b; stroke: #13748b"/>
     <use xlink:href="#mbf45fad73c" x="330.727808" y="79.420733" style="fill: #13748b; stroke: #13748b"/>
     <use xlink:href="#mbf45fad73c" x="335.216948" y="78.250356" style="fill: #13748b; stroke: #13748b"/>
     <use xlink:href="#mbf45fad73c" x="339.706087" y="80.388559" style="fill: #13748b; stroke: #13748b"/>
     <use xlink:href="#mbf45fad73c" x="344.195226" y="84.806401" style="fill: #13748b; stroke: #13748b"/>
     <use xlink:href="#mbf45fad73c" x="348.684365" y="90.781597" style="fill: #13748b; stroke: #13748b"/>
     <use xlink:href="#mbf45fad73c" x="353.173504" y="97.239643" style="fill: #13748b; stroke: #13748b"/>
     <use xlink:href="#mbf45fad73c" x="357.662644" y="104.631688" style="fill: #13748b; stroke: #13748b"/>
     <use xlink:href="#mbf45fad73c" x="362.151783" y="110.804425" style="fill: #13748b; stroke: #13748b"/>
     <use xlink:href="#mbf45fad73c" x="366.640922" y="117.151415" style="fill: #13748b; stroke: #13748b"/>
     <use xlink:href="#mbf45fad73c" x="371.130061" y="122.279937" style="fill: #13748b; stroke: #13748b"/>
     <use xlink:href="#mbf45fad73c" x="375.6192" y="125.704821" style="fill: #13748b; stroke: #13748b"/>
     <use xlink:href="#mbf45fad73c" x="380.108339" y="129.153334" style="fill: #13748b; stroke: #13748b"/>
     <use xlink:href="#mbf45fad73c" x="384.597479" y="130.774384" style="fill: #13748b; stroke: #13748b"/>
     <use xlink:href="#mbf45fad73c" x="389.086618" y="130.950659" style="fill: #13748b; stroke: #13748b"/>
     <use xlink:href="#mbf45fad73c" x="393.575757" y="130.656208" style="fill: #13748b; stroke: #13748b"/>
     <use xlink:href="#mbf45fad73c" x="398.064896" y="129.476696" style="fill: #13748b; stroke: #13748b"/>
     <use xlink:href="#mbf45fad73c" x="402.554035" y="126.264289" style="fill: #13748b; stroke: #13748b"/>
     <use xlink:href="#mbf45fad73c" x="407.043175" y="123.084483" style="fill: #13748b; stroke: #13748b"/>
     <use xlink:href="#mbf45fad73c" x="411.532314" y="118.866179" style="fill: #13748b; stroke: #13748b"/>
     <use xlink:href="#mbf45fad73c" x="416.021453" y="113.59376" style="fill: #13748b; stroke: #13748b"/>
     <use xlink:href="#mbf45fad73c" x="420.510592" y="107.139643" style="fill: #13748b; stroke: #13748b"/>
     <use xlink:href="#mbf45fad73c" x="424.999731" y="100.128287" style="fill: #13748b; stroke: #13748b"/>
     <use xlink:href="#mbf45fad73c" x="429.48887" y="93.433763" style="fill: #13748b; stroke: #13748b"/>
     <use xlink:href="#mbf45fad73c" x="433.97801" y="88.80092" style="fill: #13748b; stroke: #13748b"/>
     <use xlink:href="#mbf45fad73c" x="438.467149" y="83.951612" style="fill: #13748b; stroke: #13748b"/>
     <use xlink:href="#mbf45fad73c" x="442.956288" y="82.857236" style="fill: #13748b; stroke: #13748b"/>
     <use xlink:href="#mbf45fad73c" x="447.445427" y="84.209153" style="fill: #13748b; stroke: #13748b"/>
     <use xlink:href="#mbf45fad73c" x="451.934566" y="88.35537" style="fill: #13748b; stroke: #13748b"/>
     <use xlink:href="#mbf45fad73c" x="456.423706" y="94.434168" style="fill: #13748b; stroke: #13748b"/>
     <use xlink:href="#mbf45fad73c" x="460.912845" y="101.343362" style="fill: #13748b; stroke: #13748b"/>
     <use xlink:href="#mbf45fad73c" x="465.401984" y="108.71871" style="fill: #13748b; stroke: #13748b"/>
     <use xlink:href="#mbf45fad73c" x="469.891123" y="114.817043" style="fill: #13748b; stroke: #13748b"/>
     <use xlink:href="#mbf45fad73c" x="474.380262" y="120.251768" style="fill: #13748b; stroke: #13748b"/>
     <use xlink:href="#mbf45fad73c" x="478.869401" y="124.152976" style="fill: #13748b; stroke: #13748b"/>
     <use xlink:href="#mbf45fad73c" x="483.358541" y="128.416336" style="fill: #13748b; stroke: #13748b"/>
     <use xlink:href="#mbf45fad73c" x="487.84768" y="131.819651" style="fill: #13748b; stroke: #13748b"/>
     <use xlink:href="#mbf45fad73c" x="492.336819" y="132.448471" style="fill: #13748b; stroke: #13748b"/>
     <use xlink:href="#mbf45fad73c" x="496.825958" y="132.893124" style="fill: #13748b; stroke: #13748b"/>
     <use xlink:href="#mbf45fad73c" x="501.315097" y="131.692213" style="fill: #13748b; stroke: #13748b"/>
     <use xlink:href="#mbf45fad73c" x="505.804236" y="130.173031" style="fill: #13748b; stroke: #13748b"/>
     <use xlink:href="#mbf45fad73c" x="510.293376" y="127.451763" style="fill: #13748b; stroke: #13748b"/>
     <use xlink:href="#mbf45fad73c" x="514.782515" y="123.592069" style="fill: #13748b; stroke: #13748b"/>
     <use xlink:href="#mbf45fad73c" x="519.271654" y="119.610103" style="fill: #13748b; stroke: #13748b"/>
     <use xlink:href="#mbf45fad73c" x="523.760793" y="114.504462" style="fill: #13748b; stroke: #13748b"/>
     <use xlink:href="#mbf45fad73c" x="528.249932" y="108.593363" style="fill: #13748b; stroke: #13748b"/>
     <use xlink:href="#mbf45fad73c" x="532.739072" y="103.263186" style="fill: #13748b; stroke: #13748b"/>
     <use xlink:href="#mbf45fad73c" x="537.228211" y="96.734889" style="fill: #13748b; stroke: #13748b"/>
     <use xlink:href="#mbf45fad73c" x="541.71735" y="91.616151" style="fill: #13748b; stroke: #13748b"/>
     <use xlink:href="#mbf45fad73c" x="546.206489" y="87.393021" style="fill: #13748b; stroke: #13748b"/>
     <use xlink:href="#mbf45fad73c" x="550.695628" y="86.531208" style="fill: #13748b; stroke: #13748b"/>
     <use xlink:href="#mbf45fad73c" x="555.184767" y="88.747014" style="fill: #13748b; stroke: #13748b"/>
     <use xlink:href="#mbf45fad73c" x="559.673907" y="92.819967" style="fill: #13748b; stroke: #13748b"/>
     <use xlink:href="#mbf45fad73c" x="564.163046" y="97.164585" style="fill: #13748b; stroke: #13748b"/>
     <use xlink:href="#mbf45fad73c" x="568.652185" y="103.725654" style="fill: #13748b; stroke: #13748b"/>
     <use xlink:href="#mbf45fad73c" x="573.141324" y="110.085352" style="fill: #13748b; stroke: #13748b"/>
     <use xlink:href="#mbf45fad73c" x="577.630463" y="116.23303" style="fill: #13748b; stroke: #13748b"/>
     <use xlink:href="#mbf45fad73c" x="582.119603" y="121.268303" style="fill: #13748b; stroke: #13748b"/>
     <use xlink:href="#mbf45fad73c" x="586.608742" y="124.965795" style="fill: #13748b; stroke: #13748b"/>
     <use xlink:href="#mbf45fad73c" x="591.097881" y="128.244426" style="fill: #13748b; stroke: #13748b"/>
     <use xlink:href="#mbf45fad73c" x="595.58702" y="131.041105" style="fill: #13748b; stroke: #13748b"/>
     <use xlink:href="#mbf45fad73c" x="600.076159" y="132.041187" style="fill: #13748b; stroke: #13748b"/>
     <use xlink:href="#mbf45fad73c" x="604.565298" y="131.724684" style="fill: #13748b; stroke: #13748b"/>
     <use xlink:href="#mbf45fad73c" x="609.054438" y="131.17661" style="fill: #13748b; stroke: #13748b"/>
     <use xlink:href="#mbf45fad73c" x="613.543577" y="129.279331" style="fill: #13748b; stroke: #13748b"/>
     <use xlink:href="#mbf45fad73c" x="618.032716" y="125.698279" style="fill: #13748b; stroke: #13748b"/>
     <use xlink:href="#mbf45fad73c" x="622.521855" y="122.522405" style="fill: #13748b; stroke: #13748b"/>
     <use xlink:href="#mbf45fad73c" x="627.010994" y="119.026285" style="fill: #13748b; stroke: #13748b"/>
     <use xlink:href="#mbf45fad73c" x="631.500133" y="114.42309" style="fill: #13748b; stroke: #13748b"/>
     <use xlink:href="#mbf45fad73c" x="635.989273" y="109.205204" style="fill: #13748b; stroke: #13748b"/>
     <use xlink:href="#mbf45fad73c" x="640.478412" y="102.307217" style="fill: #13748b; stroke: #13748b"/>
     <use xlink:href="#mbf45fad73c" x="644.967551" y="96.0497" style="fill: #13748b; stroke: #13748b"/>
     <use xlink:href="#mbf45fad73c" x="649.45669" y="91.266344" style="fill: #13748b; stroke: #13748b"/>
     <use xlink:href="#mbf45fad73c" x="653.945829" y="87.026312" style="fill: #13748b; stroke: #13748b"/>
     <use xlink:href="#mbf45fad73c" x="658.434969" y="85.561125" style="fill: #13748b; stroke: #13748b"/>
     <use xlink:href="#mbf45fad73c" x="662.924108" y="87.622431" style="fill: #13748b; stroke: #13748b"/>
     <use xlink:href="#mbf45fad73c" x="667.413247" y="91.795065" style="fill: #13748b; stroke: #13748b"/>
     <use xlink:href="#mbf45fad73c" x="671.902386" y="97.402563" style="fill: #13748b; stroke: #13748b"/>
     <use xlink:href="#mbf45fad73c" x="676.391525" y="104.662966" style="fill: #13748b; stroke: #13748b"/>
     <use xlink:href="#mbf45fad73c" x="680.880664" y="110.348056" style="fill: #13748b; stroke: #13748b"/>
     <use xlink:href="#mbf45fad73c" x="685.369804" y="116.618324" style="fill: #13748b; stroke: #13748b"/>
     <use xlink:href="#mbf45fad73c" x="689.858943" y="122.146797" style="fill: #13748b; stroke: #13748b"/>
     <use xlink:href="#mbf45fad73c" x="694.348082" y="125.748499" style="fill: #13748b; stroke: #13748b"/>
     <use xlink:href="#mbf45fad73c" x="698.837221" y="128.482021" style="fill: #13748b; stroke: #13748b"/>
     <use xlink:href="#mbf45fad73c" x="703.32636" y="130.592522" style="fill: #13748b; stroke: #13748b"/>
     <use xlink:href="#mbf45fad73c" x="707.8155" y="131.441809" style="fill: #13748b; stroke: #13748b"/>
     <use xlink:href="#mbf45fad73c" x="712.304639" y="130.772759" style="fill: #13748b; stroke: #13748b"/>
     <use xlink:href="#mbf45fad73c" x="716.793778" y="130.233995" style="fill: #13748b; stroke: #13748b"/>
     <use xlink:href="#mbf45fad73c" x="721.282917" y="128.407584" style="fill: #13748b; stroke: #13748b"/>
     <use xlink:href="#mbf45fad73c" x="725.772056" y="125.554827" style="fill: #13748b; stroke: #13748b"/>
     <use xlink:href="#mbf45fad73c" x="730.261195" y="122.986318" style="fill: #13748b; stroke: #13748b"/>
     <use xlink:href="#mbf45fad73c" x="734.750335" y="119.627573" style="fill: #13748b; stroke: #13748b"/>
     <use xlink:href="#mbf45fad73c" x="739.239474" y="115.145798" style="fill: #13748b; stroke: #13748b"/>
     <use xlink:href="#mbf45fad73c" x="743.728613" y="109.431706" style="fill: #13748b; stroke: #13748b"/>
     <use xlink:href="#mbf45fad73c" x="748.217752" y="102.674198" style="fill: #13748b; stroke: #13748b"/>
     <use xlink:href="#mbf45fad73c" x="752.706891" y="96.713044" style="fill: #13748b; stroke: #13748b"/>
     <use xlink:href="#mbf45fad73c" x="757.196031" y="91.501518" style="fill: #13748b; stroke: #13748b"/>
     <use xlink:href="#mbf45fad73c" x="761.68517" y="86.914562" style="fill: #13748b; stroke: #13748b"/>
     <use xlink:href="#mbf45fad73c" x="766.174309" y="84.707082" style="fill: #13748b; stroke: #13748b"/>
     <use xlink:href="#mbf45fad73c" x="770.663448" y="86.800109" style="fill: #13748b; stroke: #13748b"/>
     <use xlink:href="#mbf45fad73c" x="775.152587" y="91.32608" style="fill: #13748b; stroke: #13748b"/>
     <use xlink:href="#mbf45fad73c" x="779.641726" y="97.84331" style="fill: #13748b; stroke: #13748b"/>
     <use xlink:href="#mbf45fad73c" x="784.130866" y="105.073518" style="fill: #13748b; stroke: #13748b"/>
     <use xlink:href="#mbf45fad73c" x="788.620005" y="111.40965" style="fill: #13748b; stroke: #13748b"/>
     <use xlink:href="#mbf45fad73c" x="793.109144" y="116.559118" style="fill: #13748b; stroke: #13748b"/>
     <use xlink:href="#mbf45fad73c" x="797.598283" y="121.478427" style="fill: #13748b; stroke: #13748b"/>
     <use xlink:href="#mbf45fad73c" x="802.087422" y="125.684244" style="fill: #13748b; stroke: #13748b"/>
     <use xlink:href="#mbf45fad73c" x="806.576561" y="128.809169" style="fill: #13748b; stroke: #13748b"/>
     <use xlink:href="#mbf45fad73c" x="811.065701" y="130.821113" style="fill: #13748b; stroke: #13748b"/>
     <use xlink:href="#mbf45fad73c" x="815.55484" y="131.798948" style="fill: #13748b; stroke: #13748b"/>
     <use xlink:href="#mbf45fad73c" x="820.043979" y="131.037868" style="fill: #13748b; stroke: #13748b"/>
     <use xlink:href="#mbf45fad73c" x="824.533118" y="130.154027" style="fill: #13748b; stroke: #13748b"/>
     <use xlink:href="#mbf45fad73c" x="829.022257" y="128.928514" style="fill: #13748b; stroke: #13748b"/>
     <use xlink:href="#mbf45fad73c" x="833.511397" y="126.370216" style="fill: #13748b; stroke: #13748b"/>
     <use xlink:href="#mbf45fad73c" x="838.000536" y="123.746571" style="fill: #13748b; stroke: #13748b"/>
     <use xlink:href="#mbf45fad73c" x="842.489675" y="120.611234" style="fill: #13748b; stroke: #13748b"/>
     <use xlink:href="#mbf45fad73c" x="846.978814" y="116.078669" style="fill: #13748b; stroke: #13748b"/>
     <use xlink:href="#mbf45fad73c" x="851.467953" y="110.374807" style="fill: #13748b; stroke: #13748b"/>
     <use xlink:href="#mbf45fad73c" x="855.957092" y="103.74299" style="fill: #13748b; stroke: #13748b"/>
     <use xlink:href="#mbf45fad73c" x="860.446232" y="97.925227" style="fill: #13748b; stroke: #13748b"/>
     <use xlink:href="#mbf45fad73c" x="864.935371" y="92.035562" style="fill: #13748b; stroke: #13748b"/>
     <use xlink:href="#mbf45fad73c" x="869.42451" y="86.946559" style="fill: #13748b; stroke: #13748b"/>
     <use xlink:href="#mbf45fad73c" x="873.913649" y="84.704995" style="fill: #13748b; stroke: #13748b"/>
     <use xlink:href="#mbf45fad73c" x="878.402788" y="87.469709" style="fill: #13748b; stroke: #13748b"/>
    </g>
   </g>
   <g id="patch_3">
    <path d="M 81.692813 199.275937 
L 81.692813 32.955938 
" style="fill: none; stroke: #000000; stroke-width: 0.8; stroke-linejoin: miter; stroke-linecap: square"/>
   </g>
   <g id="patch_4">
    <path d="M 918.692813 199.275937 
L 918.692813 32.955938 
" style="fill: none; stroke: #000000; stroke-width: 0.8; stroke-linejoin: miter; stroke-linecap: square"/>
   </g>
   <g id="patch_5">
    <path d="M 81.692813 199.275937 
L 918.692812 199.275937 
" style="fill: none; stroke: #000000; stroke-width: 0.8; stroke-linejoin: miter; stroke-linecap: square"/>
   </g>
   <g id="patch_6">
    <path d="M 81.692813 32.955938 
L 918.692812 32.955938 
" style="fill: none; stroke: #000000; stroke-width: 0.8; stroke-linejoin: miter; stroke-linecap: square"/>
   </g>
   <g id="text_14">
    <!-- Autocorrelation Plot -->
    <g transform="translate(371.628906 26.955938) scale(0.26 -0.26)">
     <defs>
      <path id="DejaVuSans-20" transform="scale(0.015625)"/>
      <path id="DejaVuSans-50" d="M 1259 4147 
L 1259 2394 
L 2053 2394 
Q 2494 2394 2734 2622 
Q 2975 2850 2975 3272 
Q 2975 3691 2734 3919 
Q 2494 4147 2053 4147 
L 1259 4147 
z
M 628 4666 
L 2053 4666 
Q 2838 4666 3239 4311 
Q 3641 3956 3641 3272 
Q 3641 2581 3239 2228 
Q 2838 1875 2053 1875 
L 1259 1875 
L 1259 0 
L 628 0 
L 628 4666 
z
" transform="scale(0.015625)"/>
     </defs>
     <use xlink:href="#DejaVuSans-41"/>
     <use xlink:href="#DejaVuSans-75" x="68.408203"/>
     <use xlink:href="#DejaVuSans-74" x="131.787109"/>
     <use xlink:href="#DejaVuSans-6f" x="170.996094"/>
     <use xlink:href="#DejaVuSans-63" x="232.177734"/>
     <use xlink:href="#DejaVuSans-6f" x="287.158203"/>
     <use xlink:href="#DejaVuSans-72" x="348.339844"/>
     <use xlink:href="#DejaVuSans-72" x="387.703125"/>
     <use xlink:href="#DejaVuSans-65" x="426.566406"/>
     <use xlink:href="#DejaVuSans-6c" x="488.089844"/>
     <use xlink:href="#DejaVuSans-61" x="515.873047"/>
     <use xlink:href="#DejaVuSans-74" x="577.152344"/>
     <use xlink:href="#DejaVuSans-69" x="616.361328"/>
     <use xlink:href="#DejaVuSans-6f" x="644.144531"/>
     <use xlink:href="#DejaVuSans-6e" x="705.326172"/>
     <use xlink:href="#DejaVuSans-20" x="768.705078"/>
     <use xlink:href="#DejaVuSans-50" x="800.492188"/>
     <use xlink:href="#DejaVuSans-6c" x="860.794922"/>
     <use xlink:href="#DejaVuSans-6f" x="888.578125"/>
     <use xlink:href="#DejaVuSans-74" x="949.759766"/>
    </g>
   </g>
  </g>
 </g>
 <defs>
  <clipPath id="pa9589490e6">
   <rect x="81.692813" y="32.955938" width="837" height="166.32"/>
  </clipPath>
 </defs>
</svg>
