<svg width="4329" height="2740" xmlns="http://www.w3.org/2000/svg" xmlns:xlink="http://www.w3.org/1999/xlink" xml:space="preserve" overflow="hidden"><g transform="translate(-141 89)"><path d="M1326.5 785.262C1326.5 747.838 1356.84 717.5 1394.26 717.5L2170.74 717.5C2208.16 717.5 2238.5 747.838 2238.5 785.262L2238.5 2179.74C2238.5 2217.16 2208.16 2247.5 2170.74 2247.5L1394.26 2247.5C1356.84 2247.5 1326.5 2217.16 1326.5 2179.74Z" stroke="#7F7F7F" stroke-width="4.58333" stroke-miterlimit="8" fill="#EEEEEE" fill-rule="evenodd"/><path d="M164.5 785.262C164.5 747.838 194.838 717.5 232.263 717.5L1008.74 717.5C1046.16 717.5 1076.5 747.838 1076.5 785.262L1076.5 2179.74C1076.5 2217.16 1046.16 2247.5 1008.74 2247.5L232.263 2247.5C194.838 2247.5 164.5 2217.16 164.5 2179.74Z" stroke="#7F7F7F" stroke-width="4.58333" stroke-miterlimit="8" fill="#EEEEEE" fill-rule="evenodd"/><path d="M293.5 1541.94C293.5 1522.92 308.922 1507.5 327.945 1507.5L911.055 1507.5C930.079 1507.5 945.5 1522.92 945.5 1541.94L945.5 2151.06C945.5 2170.08 930.079 2185.5 911.055 2185.5L327.945 2185.5C308.922 2185.5 293.5 2170.08 293.5 2151.06Z" stroke="#7F7F7F" stroke-width="4.58333" stroke-miterlimit="8" fill="#FFF2CC" fill-rule="evenodd"/><path d="M314.5 2019.67C314.5 2004.11 327.111 1991.5 342.668 1991.5L890.333 1991.5C905.889 1991.5 918.5 2004.11 918.5 2019.67L918.5 2132.33C918.5 2147.89 905.889 2160.5 890.333 2160.5L342.668 2160.5C327.111 2160.5 314.5 2147.89 314.5 2132.33Z" stroke="#B03A3A" stroke-width="4.58333" stroke-miterlimit="8" fill="#B03A3A" fill-rule="evenodd" fill-opacity="0.8"/><text font-family="Cambria,Cambria_MSFontService,sans-serif" font-weight="400" font-size="73" transform="matrix(1 0 0 1 439.751 2058)">Multi</text><text font-family="Cambria,Cambria_MSFontService,sans-serif" font-weight="400" font-size="73" transform="matrix(1 0 0 1 605.324 2058)">-</text><text font-family="Cambria,Cambria_MSFontService,sans-serif" font-weight="400" font-size="73" transform="matrix(1 0 0 1 629.959 2058)">Head </text><text font-family="Cambria,Cambria_MSFontService,sans-serif" font-weight="400" font-size="73" transform="matrix(1 0 0 1 377.876 2146)">(MH) </text><text font-family="Cambria,Cambria_MSFontService,sans-serif" font-weight="400" font-size="73" transform="matrix(1 0 0 1 560.063 2146)">Attention</text><path d="M314.5 1883C314.5 1874.99 320.992 1868.5 329 1868.5L904 1868.5C912.008 1868.5 918.5 1874.99 918.5 1883L918.5 1941C918.5 1949.01 912.008 1955.5 904 1955.5L329 1955.5C320.992 1955.5 314.5 1949.01 314.5 1941Z" stroke="#70AD47" stroke-width="4.58333" stroke-miterlimit="8" fill="#13B58B" fill-rule="evenodd" fill-opacity="0.8"/><text font-family="Cambria,Cambria_MSFontService,sans-serif" font-weight="400" font-size="73" transform="matrix(1 0 0 1 421.418 1938)">Add &amp; Norm</text><path d="M314.5 1739.17C314.5 1729.96 321.962 1722.5 331.167 1722.5L900.833 1722.5C910.038 1722.5 917.5 1729.96 917.5 1739.17L917.5 1805.83C917.5 1815.04 910.038 1822.5 900.833 1822.5L331.167 1822.5C321.962 1822.5 314.5 1815.04 314.5 1805.83Z" stroke="#13748B" stroke-width="4.58333" stroke-miterlimit="8" fill="#13748B" fill-rule="evenodd" fill-opacity="0.8"/><text font-family="Cambria,Cambria_MSFontService,sans-serif" font-weight="400" font-size="73" transform="matrix(1 0 0 1 463.065 1799)">Dense</text><text font-family="Cambria,Cambria_MSFontService,sans-serif" font-weight="400" font-size="73" transform="matrix(1 0 0 1 671.034 1799)">(8</text><text font-family="Cambria,Cambria_MSFontService,sans-serif" font-weight="400" font-size="73" transform="matrix(1 0 0 1 739.784 1799)">)</text><path d="M315.5 1585.17C315.5 1576.51 322.514 1569.5 331.167 1569.5L899.833 1569.5C908.486 1569.5 915.5 1576.51 915.5 1585.17L915.5 1647.83C915.5 1656.49 908.486 1663.5 899.833 1663.5L331.167 1663.5C322.514 1663.5 315.5 1656.49 315.5 1647.83Z" stroke="#70AD47" stroke-width="4.58333" stroke-miterlimit="8" fill="#13B58B" fill-rule="evenodd" fill-opacity="0.8"/><text font-family="Cambria,Cambria_MSFontService,sans-serif" font-weight="400" font-size="73" transform="matrix(1 0 0 1 420.208 1643)">Add &amp; Norm</text><path d="M615.67 2300.19 613.55 2182.96 619.279 2182.86 621.399 2300.09ZM602.75 2187.74 616 2160 630.245 2187.25Z"/><path d="M0-2.86458 17.1831-2.86458 17.1831 368.764 14.3185 365.899 313.518 365.899 310.653 368.764 310.653 327.489 316.383 327.489 316.383 371.629 11.4539 371.629 11.4539 0 14.3185 2.86458 0 2.86458ZM299.768 332.072 313.518 304.572 327.268 332.072Z" transform="matrix(-1.83697e-16 -1 -1 1.83697e-16 618.572 2224.52)"/><path d="M613.136 1990.66 613.136 1977.92 618.865 1977.92 618.865 1990.66ZM602.25 1982.5 616 1955 629.75 1982.5Z"/><path d="M612.884 1868.15 612.508 1844.96 618.236 1844.87 618.612 1868.06ZM601.698 1849.72 615 1822 629.194 1849.27Z"/><path d="M614.315 1721.69 614.034 1685.92 616.326 1685.91 616.607 1721.67ZM601.467 1690.61 615 1663 628.966 1690.39Z"/><path d="M0-2.86458 22.7761-2.86458 22.7761 384.029 19.9115 381.164 105.856 381.164 102.991 384.029 102.991 323.378 108.72 323.378 108.72 386.893 17.0469 386.893 17.0469 0 19.9115 2.86458 0 2.86458ZM92.1055 327.961 105.856 300.461 119.606 327.961Z" transform="matrix(-1.83697e-16 -1 -1 1.83697e-16 615.461 1721.86)"/><path d="M0 2.86458-82.5013 2.86458-79.6367 0-79.6367 650.477-82.5013 647.613 1146.18 647.613 1146.18 822.155 1140.45 822.155 1140.45 650.477 1143.31 653.342-85.3659 653.342-85.3659-2.86458 0-2.86458ZM1157.06 817.572 1143.31 845.072 1129.56 817.572Z" transform="matrix(1.83697e-16 1 1 -1.83697e-16 620 717)"/><text font-family="Cambria,Cambria_MSFontService,sans-serif" font-weight="700" font-size="92" transform="matrix(1 0 0 1 196.749 685)">Encoder</text><text font-family="Cambria,Cambria_MSFontService,sans-serif" font-weight="700" font-size="92" transform="matrix(1 0 0 1 1355.46 701)">Decoder</text><text font-family="Cambria,Cambria_MSFontService,sans-serif" font-weight="700" font-size="73" transform="matrix(-1.83697e-16 -1 1 -1.83697e-16 1009.68 2181)">Encoder Layer 1</text><path d="M293.5 807.945C293.5 788.921 308.922 773.5 327.945 773.5L911.055 773.5C930.079 773.5 945.5 788.921 945.5 807.945L945.5 1412.06C945.5 1431.08 930.079 1446.5 911.055 1446.5L327.945 1446.5C308.922 1446.5 293.5 1431.08 293.5 1412.06Z" stroke="#7F7F7F" stroke-width="4.58333" stroke-miterlimit="8" fill="#FFF2CC" fill-rule="evenodd"/><path d="M314.5 1256.17C314.5 1239.23 328.23 1225.5 345.167 1225.5L893.832 1225.5C910.77 1225.5 924.5 1239.23 924.5 1256.17L924.5 1378.83C924.5 1395.77 910.77 1409.5 893.832 1409.5L345.167 1409.5C328.23 1409.5 314.5 1395.77 314.5 1378.83Z" stroke="#B03A3A" stroke-width="4.58333" stroke-miterlimit="8" fill="#B03A3A" fill-rule="evenodd" fill-opacity="0.8"/><text font-family="Cambria,Cambria_MSFontService,sans-serif" font-weight="400" font-size="73" transform="matrix(1 0 0 1 442.508 1300)">Multi</text><text font-family="Cambria,Cambria_MSFontService,sans-serif" font-weight="400" font-size="73" transform="matrix(1 0 0 1 608.081 1300)">-</text><text font-family="Cambria,Cambria_MSFontService,sans-serif" font-weight="400" font-size="73" transform="matrix(1 0 0 1 632.716 1300)">Head </text><text font-family="Cambria,Cambria_MSFontService,sans-serif" font-weight="400" font-size="73" transform="matrix(1 0 0 1 380.633 1388)">(MH) </text><text font-family="Cambria,Cambria_MSFontService,sans-serif" font-weight="400" font-size="73" transform="matrix(1 0 0 1 562.821 1388)">Attention</text><path d="M321.5 1097C321.5 1088.99 327.992 1082.5 336 1082.5L907 1082.5C915.008 1082.5 921.5 1088.99 921.5 1097L921.5 1155C921.5 1163.01 915.008 1169.5 907 1169.5L336 1169.5C327.992 1169.5 321.5 1163.01 321.5 1155Z" stroke="#70AD47" stroke-width="4.58333" stroke-miterlimit="8" fill="#13B58B" fill-rule="evenodd" fill-opacity="0.8"/><text font-family="Cambria,Cambria_MSFontService,sans-serif" font-weight="400" font-size="73" transform="matrix(1 0 0 1 426.203 1153)">Add &amp; Norm</text><path d="M316.5 949.834C316.5 941.365 323.365 934.5 331.834 934.5L904.167 934.5C912.635 934.5 919.5 941.365 919.5 949.834L919.5 1011.17C919.5 1019.63 912.635 1026.5 904.167 1026.5L331.834 1026.5C323.365 1026.5 316.5 1019.63 316.5 1011.17Z" stroke="#13748B" stroke-width="4.58333" stroke-miterlimit="8" fill="#13748B" fill-rule="evenodd" fill-opacity="0.8"/><text font-family="Cambria,Cambria_MSFontService,sans-serif" font-weight="400" font-size="73" transform="matrix(1 0 0 1 465.323 1007)">Dense</text><text font-family="Cambria,Cambria_MSFontService,sans-serif" font-weight="400" font-size="73" transform="matrix(1 0 0 1 673.291 1007)">(8</text><text font-family="Cambria,Cambria_MSFontService,sans-serif" font-weight="400" font-size="73" transform="matrix(1 0 0 1 742.041 1007)">)</text><path d="M320.5 812.167C320.5 803.514 327.514 796.5 336.167 796.5L904.833 796.5C913.486 796.5 920.5 803.514 920.5 812.167L920.5 874.833C920.5 883.485 913.486 890.499 904.833 890.499L336.167 890.499C327.514 890.499 320.5 883.485 320.5 874.833Z" stroke="#70AD47" stroke-width="4.58333" stroke-miterlimit="8" fill="#13B58B" fill-rule="evenodd" fill-opacity="0.8"/><text font-family="Cambria,Cambria_MSFontService,sans-serif" font-weight="400" font-size="73" transform="matrix(1 0 0 1 425.608 870)">Add &amp; Norm</text><path d="M616.427 1507.3 616.203 1431.93 621.933 1431.91 622.156 1507.28ZM605.332 1436.54 619 1409 632.832 1436.46Z"/><path d="M0-2.86458 30.2463-2.86458 30.2463 408.426 27.3818 405.561 381.094 405.561 378.229 408.426 378.229 320.69 383.959 320.69 383.959 411.29 24.5172 411.29 24.5172 0 27.3818 2.86458 0 2.86458ZM367.344 325.273 381.094 297.773 394.844 325.273Z" transform="matrix(-1.83697e-16 -1 -1 1.83697e-16 618.773 1507.09)"/><path d="M2.86268-0.104533 4.05427 32.5278-1.67108 32.7369-2.86268 0.104533ZM14.7652 27.5503 2.02785 55.5338-12.7165 28.5538Z" transform="matrix(1 0 0 -1 619 1224.53)"/><path d="M618.416 1082.96 616.46 1049.04 622.18 1048.71 624.136 1082.63ZM605.856 1054.25 618 1026 633.311 1052.66Z"/><path d="M1.14364-0.0708559 2.40831 20.3414 0.121032 20.4831-1.14364 0.0708559ZM14.7049 14.9874 2.68179 43.2851-12.7424 16.688Z" transform="matrix(1 0 0 -1 618 933.285)"/><path d="M0-2.86458 24.5064-2.86458 24.5064 384.028 21.6418 381.164 90.4613 381.164 87.5967 384.028 87.5967 320.235 93.3259 320.235 93.3259 386.893 18.7772 386.893 18.7772 0 21.6418 2.86458 0 2.86458ZM76.7113 324.818 90.4613 297.318 104.211 324.818Z" transform="matrix(-1.83697e-16 -1 -1 1.83697e-16 617.318 933.461)"/><text font-family="Cambria,Cambria_MSFontService,sans-serif" font-weight="700" font-size="73" transform="matrix(-1.83697e-16 -1 1 -1.83697e-16 1014.57 1313)">Encoder Layer 2</text><path d="M1441.5 1560.95C1441.5 1541.92 1456.92 1526.5 1475.95 1526.5L2059.05 1526.5C2078.08 1526.5 2093.5 1541.92 2093.5 1560.95L2093.5 2160.05C2093.5 2179.08 2078.08 2194.5 2059.05 2194.5L1475.95 2194.5C1456.92 2194.5 1441.5 2179.08 1441.5 2160.05Z" stroke="#7F7F7F" stroke-width="4.58333" stroke-miterlimit="8" fill="#FFF2CC" fill-rule="evenodd"/><path d="M1468.5 2097C1468.5 2088.99 1474.99 2082.5 1483 2082.5L2058 2082.5C2066.01 2082.5 2072.5 2088.99 2072.5 2097L2072.5 2155C2072.5 2163.01 2066.01 2169.5 2058 2169.5L1483 2169.5C1474.99 2169.5 1468.5 2163.01 1468.5 2155Z" stroke="#B03A3A" stroke-width="4.58333" stroke-miterlimit="8" fill="#B03A3A" fill-rule="evenodd" fill-opacity="0.8"/><text font-family="Cambria,Cambria_MSFontService,sans-serif" font-weight="400" font-size="73" transform="matrix(1 0 0 1 1559.86 2153)">MH Attention</text><path d="M1468.5 1967C1468.5 1958.99 1474.99 1952.5 1483 1952.5L2058 1952.5C2066.01 1952.5 2072.5 1958.99 2072.5 1967L2072.5 2025C2072.5 2033.01 2066.01 2039.5 2058 2039.5L1483 2039.5C1474.99 2039.5 1468.5 2033.01 1468.5 2025Z" stroke="#70AD47" stroke-width="4.58333" stroke-miterlimit="8" fill="#13B58B" fill-rule="evenodd" fill-opacity="0.8"/><text font-family="Cambria,Cambria_MSFontService,sans-serif" font-weight="400" font-size="73" transform="matrix(1 0 0 1 1575.33 2023)">Add &amp; Norm</text><path d="M1465.5 1831.33C1465.5 1823.14 1472.14 1816.5 1480.33 1816.5L2053.67 1816.5C2061.86 1816.5 2068.5 1823.14 2068.5 1831.33L2068.5 1890.67C2068.5 1898.86 2061.86 1905.5 2053.67 1905.5L1480.33 1905.5C1472.14 1905.5 1465.5 1898.86 1465.5 1890.67Z" stroke="#B03A3A" stroke-width="4.58333" stroke-miterlimit="8" fill="#B03A3A" fill-rule="evenodd" fill-opacity="0.8"/><text font-family="Cambria,Cambria_MSFontService,sans-serif" font-weight="400" font-size="73" transform="matrix(1 0 0 1 1551.67 1888)">MH</text><text font-family="Cambria,Cambria_MSFontService,sans-serif" font-weight="400" font-size="73" transform="matrix(1 0 0 1 1661.67 1888)">-</text><text font-family="Cambria,Cambria_MSFontService,sans-serif" font-weight="400" font-size="73" transform="matrix(1 0 0 1 1686.31 1888)">Attention</text><path d="M1466.5 1694.33C1466.5 1685.59 1473.59 1678.5 1482.33 1678.5L2050.67 1678.5C2059.41 1678.5 2066.5 1685.59 2066.5 1694.33L2066.5 1757.67C2066.5 1766.41 2059.41 1773.5 2050.67 1773.5L1482.33 1773.5C1473.59 1773.5 1466.5 1766.41 1466.5 1757.67Z" stroke="#70AD47" stroke-width="4.58333" stroke-miterlimit="8" fill="#13B58B" fill-rule="evenodd" fill-opacity="0.8"/><text font-family="Cambria,Cambria_MSFontService,sans-serif" font-weight="400" font-size="73" transform="matrix(1 0 0 1 1570.98 1753)">Add &amp; Norm</text><path d="M0-2.86458 83.869-2.86458 83.869 376.785 81.0044 373.92 306.312 373.92 303.448 376.785 303.448 337.336 309.177 337.336 309.177 379.649 78.1398 379.649 78.1398 0 81.0044 2.86458 0 2.86458ZM292.562 341.92 306.312 314.42 320.062 341.92Z" transform="matrix(-1.83697e-16 -1 -1 1.83697e-16 1782.42 2302.31)"/><path d="M1767.14 2081.96 1767.14 2061.92 1772.86 2061.92 1772.86 2081.96ZM1756.25 2066.5 1770 2039 1783.75 2066.5Z"/><path d="M1767.04 1952.41 1765.03 1928.07 1770.74 1927.6 1772.75 1951.94ZM1754.56 1933.54 1766 1905 1781.96 1931.28Z"/><path d="M1765.32 1816.3 1765.1 1795.93 1767.39 1795.9 1767.61 1816.27ZM1752.54 1800.65 1766 1773 1780.04 1800.35Z"/><path d="M0-2.86458 24.5065-2.86458 24.5065 360.695 21.6419 357.83 90.4613 357.83 87.5967 360.695 87.5967 323.378 93.3259 323.378 93.3259 363.559 18.7773 363.559 18.7773 0 21.6419 2.86458 0 2.86458ZM76.7113 327.961 90.4613 300.461 104.211 327.961Z" transform="matrix(-1.83697e-16 -1 -1 1.83697e-16 1766.46 1816.46)"/><path d="M1465.5 1570.33C1465.5 1562.14 1472.14 1555.5 1480.33 1555.5L2050.67 1555.5C2058.86 1555.5 2065.5 1562.14 2065.5 1570.33L2065.5 1629.67C2065.5 1637.86 2058.86 1644.5 2050.67 1644.5L1480.33 1644.5C1472.14 1644.5 1465.5 1637.86 1465.5 1629.67Z" stroke="#13748B" stroke-width="4.58333" stroke-miterlimit="8" fill="#13748B" fill-rule="evenodd" fill-opacity="0.8"/><text font-family="Cambria,Cambria_MSFontService,sans-serif" font-weight="400" font-size="73" transform="matrix(1 0 0 1 1612.31 1627)">Dense</text><text font-family="Cambria,Cambria_MSFontService,sans-serif" font-weight="400" font-size="73" transform="matrix(1 0 0 1 1820.28 1627)">(8</text><text font-family="Cambria,Cambria_MSFontService,sans-serif" font-weight="400" font-size="73" transform="matrix(1 0 0 1 1889.03 1627)">)</text><path d="M1763.2 1678.22 1762.85 1667 1768.58 1666.82 1768.93 1678.04ZM1752.12 1671.92 1765 1644 1779.6 1671.06Z"/><path d="M1438.5 782.945C1438.5 763.922 1453.92 748.5 1472.95 748.5L2056.06 748.5C2075.08 748.5 2090.5 763.922 2090.5 782.945L2090.5 1382.05C2090.5 1401.08 2075.08 1416.5 2056.06 1416.5L1472.95 1416.5C1453.92 1416.5 1438.5 1401.08 1438.5 1382.05Z" stroke="#7F7F7F" stroke-width="4.58333" stroke-miterlimit="8" fill="#FFF2CC" fill-rule="evenodd"/><path d="M1465.5 1319C1465.5 1310.99 1471.99 1304.5 1480 1304.5L2056 1304.5C2064.01 1304.5 2070.5 1310.99 2070.5 1319L2070.5 1377C2070.5 1385.01 2064.01 1391.5 2056 1391.5L1480 1391.5C1471.99 1391.5 1465.5 1385.01 1465.5 1377Z" stroke="#B03A3A" stroke-width="4.58333" stroke-miterlimit="8" fill="#B03A3A" fill-rule="evenodd" fill-opacity="0.8"/><text font-family="Cambria,Cambria_MSFontService,sans-serif" font-weight="400" font-size="73" transform="matrix(1 0 0 1 1557.22 1375)">MH </text><text font-family="Cambria,Cambria_MSFontService,sans-serif" font-weight="400" font-size="73" transform="matrix(1 0 0 1 1683.27 1375)">Attention</text><path d="M1465.5 1189C1465.5 1180.99 1471.99 1174.5 1480 1174.5L2056 1174.5C2064.01 1174.5 2070.5 1180.99 2070.5 1189L2070.5 1247C2070.5 1255.01 2064.01 1261.5 2056 1261.5L1480 1261.5C1471.99 1261.5 1465.5 1255.01 1465.5 1247Z" stroke="#70AD47" stroke-width="4.58333" stroke-miterlimit="8" fill="#13B58B" fill-rule="evenodd" fill-opacity="0.8"/><text font-family="Cambria,Cambria_MSFontService,sans-serif" font-weight="400" font-size="73" transform="matrix(1 0 0 1 1572.69 1245)">Add &amp; Norm</text><path d="M1462.5 1053.33C1462.5 1045.14 1469.14 1038.5 1477.33 1038.5L2050.67 1038.5C2058.86 1038.5 2065.5 1045.14 2065.5 1053.33L2065.5 1112.67C2065.5 1120.86 2058.86 1127.5 2050.67 1127.5L1477.33 1127.5C1469.14 1127.5 1462.5 1120.86 1462.5 1112.67Z" stroke="#B03A3A" stroke-width="4.58333" stroke-miterlimit="8" fill="#B03A3A" fill-rule="evenodd" fill-opacity="0.8"/><text font-family="Cambria,Cambria_MSFontService,sans-serif" font-weight="400" font-size="73" transform="matrix(1 0 0 1 1553.33 1110)">MH Attention</text><path d="M1463.5 916.334C1463.5 907.589 1470.59 900.5 1479.33 900.5L2047.67 900.5C2056.41 900.5 2063.5 907.589 2063.5 916.334L2063.5 979.667C2063.5 988.411 2056.41 995.5 2047.67 995.5L1479.33 995.5C1470.59 995.5 1463.5 988.411 1463.5 979.667Z" stroke="#70AD47" stroke-width="4.58333" stroke-miterlimit="8" fill="#13B58B" fill-rule="evenodd" fill-opacity="0.8"/><text font-family="Cambria,Cambria_MSFontService,sans-serif" font-weight="400" font-size="73" transform="matrix(1 0 0 1 1568.34 975)">Add &amp; Norm</text><path d="M2.86452-0.0190258 3.60552 111.546-2.12352 111.584-2.86452 0.0190258ZM14.4603 106.89 0.893209 134.481-13.0391 107.073Z" transform="matrix(1 0 0 -1 1767 1525.48)"/><path d="M0-2.86458 76.622-2.86458 76.622 360.301 73.7574 357.437 307.861 357.437 304.996 360.301 304.996 324.061 310.726 324.061 310.726 363.166 70.8928 363.166 70.8928 0 73.7574 2.86458 0 2.86458ZM294.111 328.645 307.861 301.145 321.611 328.645Z" transform="matrix(-1.83697e-16 -1 -1 1.83697e-16 1766.14 1525.86)"/><path d="M1764.14 1303.96 1764.14 1283.92 1769.86 1283.92 1769.86 1303.96ZM1753.25 1288.5 1767 1261 1780.75 1288.5Z"/><path d="M1765.04 1174.41 1763.03 1150.07 1768.74 1149.6 1770.75 1173.94ZM1752.56 1155.54 1764 1127 1779.96 1153.28Z"/><path d="M1762.32 1038.3 1762.1 1017.93 1764.39 1017.9 1764.61 1038.27ZM1749.54 1022.65 1763 995 1777.04 1022.35Z"/><path d="M0-2.86458 24.5065-2.86458 24.5065 360.695 21.6419 357.83 90.4613 357.83 87.5967 360.695 87.5967 323.378 93.3259 323.378 93.3259 363.559 18.7773 363.559 18.7773 0 21.6419 2.86458 0 2.86458ZM76.7113 327.961 90.4613 300.461 104.211 327.961Z" transform="matrix(-1.83697e-16 -1 -1 1.83697e-16 1763.46 1038.46)"/><path d="M1462.5 792.333C1462.5 784.141 1469.14 777.5 1477.33 777.5L2047.67 777.5C2055.86 777.5 2062.5 784.141 2062.5 792.333L2062.5 851.667C2062.5 859.859 2055.86 866.5 2047.67 866.5L1477.33 866.5C1469.14 866.5 1462.5 859.859 1462.5 851.667Z" stroke="#13748B" stroke-width="4.58333" stroke-miterlimit="8" fill="#13748B" fill-rule="evenodd" fill-opacity="0.8"/><text font-family="Cambria,Cambria_MSFontService,sans-serif" font-weight="400" font-size="73" transform="matrix(1 0 0 1 1609.67 849)">Dense</text><text font-family="Cambria,Cambria_MSFontService,sans-serif" font-weight="400" font-size="73" transform="matrix(1 0 0 1 1817.64 849)">(8</text><text font-family="Cambria,Cambria_MSFontService,sans-serif" font-weight="400" font-size="73" transform="matrix(1 0 0 1 1886.39 849)">)</text><path d="M1760.2 900.222 1759.85 888.995 1765.58 888.816 1765.93 900.043ZM1749.12 893.916 1762 866 1776.6 893.057Z"/><path d="M0 2.86458-82.5021 2.86458-79.6375 0-79.6375 650.846-82.5021 647.982 503.423 647.982 503.423 822.898 497.694 822.898 497.694 650.846 500.559 653.711-85.3667 653.711-85.3667-2.86458 0-2.86458ZM514.309 818.315 500.559 845.815 486.809 818.315Z" transform="matrix(1.83697e-16 1 1 -1.83697e-16 620 717)"/><path d="M1424.5 506.334C1424.5 498.141 1431.14 491.5 1439.33 491.5L2098.67 491.5C2106.86 491.5 2113.5 498.141 2113.5 506.334L2113.5 565.667C2113.5 573.859 2106.86 580.5 2098.67 580.5L1439.33 580.5C1431.14 580.5 1424.5 573.859 1424.5 565.667Z" stroke="#13748B" stroke-width="4.58333" stroke-miterlimit="8" fill="#13748B" fill-rule="evenodd" fill-opacity="0.8"/><text font-family="Cambria,Cambria_MSFontService,sans-serif" font-weight="400" font-size="73" transform="matrix(1 0 0 1 1473.65 563)">Global </text><text font-family="Cambria,Cambria_MSFontService,sans-serif" font-weight="400" font-size="73" transform="matrix(1 0 0 1 1689.64 563)">avg</text><text font-family="Cambria,Cambria_MSFontService,sans-serif" font-weight="400" font-size="73" transform="matrix(1 0 0 1 1796.37 563)">. </text><text font-family="Cambria,Cambria_MSFontService,sans-serif" font-weight="400" font-size="73" transform="matrix(1 0 0 1 1827.3 563)">pooling</text><path d="M1426.5 374.333C1426.5 366.141 1433.14 359.5 1441.33 359.5L2097.67 359.5C2105.86 359.5 2112.5 366.141 2112.5 374.333L2112.5 433.667C2112.5 441.859 2105.86 448.5 2097.67 448.5L1441.33 448.5C1433.14 448.5 1426.5 441.859 1426.5 433.667Z" stroke="#13748B" stroke-width="4.58333" stroke-miterlimit="8" fill="#13748B" fill-rule="evenodd" fill-opacity="0.8"/><text font-family="Cambria,Cambria_MSFontService,sans-serif" font-weight="400" font-size="73" transform="matrix(1 0 0 1 1509.52 430)">Dense</text><text font-family="Cambria,Cambria_MSFontService,sans-serif" font-weight="400" font-size="73" transform="matrix(1 0 0 1 1717.49 430)">(16 </text><text font-family="Cambria,Cambria_MSFontService,sans-serif" font-weight="400" font-size="73" transform="matrix(1 0 0 1 1842.96 430)">units</text><text font-family="Cambria,Cambria_MSFontService,sans-serif" font-weight="400" font-size="73" transform="matrix(1 0 0 1 2001.08 430)">)</text><path d="M2.86455-0.0131703 3.51021 140.418-2.2189 140.444-2.86455 0.0131703ZM14.3744 135.784 0.751017 163.347-13.1253 135.911Z" transform="matrix(1 0 0 -1 1764 747.347)"/><path d="M2.86405-0.055473 3.25717 20.2414-2.47092 20.3524-2.86405 0.055473ZM14.0518 15.4482 0.836909 43.2093-13.4431 15.9807Z" transform="matrix(1 0 0 -1 1769 491.209)"/><path d="M2.86457-0.00769982 2.91846 20.04-2.81069 20.0554-2.86457 0.00769982ZM13.7915 15.4274 0.115486 42.9642-13.7084 15.5013Z" transform="matrix(1 0 0 -1 1770 226.964)"/><text font-family="Cambria,Cambria_MSFontService,sans-serif" font-weight="700" font-size="73" transform="matrix(-1.83697e-16 -1 1 -1.83697e-16 2157.81 2187)">Decoder Layer 1</text><text font-family="Cambria,Cambria_MSFontService,sans-serif" font-weight="700" font-size="73" transform="matrix(-1.83697e-16 -1 1 -1.83697e-16 2157.81 1417)">Decoder Layer 2</text><path d="M1782.67 2298.19 1780.55 2180.96 1786.28 2180.86 1788.4 2298.09ZM1769.75 2185.74 1783 2158 1797.24 2185.25Z"/><path d="M617.904 795.785 617.359 739.944 623.088 739.888 623.633 795.729ZM606.519 744.633 620 717 634.018 744.365Z"/><path d="M1427.5 242.333C1427.5 234.141 1434.14 227.5 1442.33 227.5L2098.67 227.5C2106.86 227.5 2113.5 234.141 2113.5 242.333L2113.5 301.667C2113.5 309.859 2106.86 316.5 2098.67 316.5L1442.33 316.5C1434.14 316.5 1427.5 309.859 1427.5 301.667Z" stroke="#13748B" stroke-width="4.58333" stroke-miterlimit="8" fill="#13748B" fill-rule="evenodd" fill-opacity="0.8"/><text font-family="Cambria,Cambria_MSFontService,sans-serif" font-weight="400" font-size="73" transform="matrix(1 0 0 1 1617.73 298)">Dense</text><text font-family="Cambria,Cambria_MSFontService,sans-serif" font-weight="400" font-size="73" transform="matrix(1 0 0 1 1825.7 298)">(1)</text><path d="M2.86411-0.0522296 3.23157 20.0984-2.49664 20.2029-2.86411 0.0522296ZM14.0316 15.3174 0.785302 43.0635-13.4638 15.8188Z" transform="matrix(1 0 0 -1 1769 359.063)"/><rect x="2487.5" y="2312.5" width="90" height="102" stroke="#000000" stroke-width="6.875" stroke-miterlimit="8" fill="none"/><rect x="2577.5" y="2312.5" width="90" height="102" stroke="#000000" stroke-width="6.875" stroke-miterlimit="8" fill="none"/><rect x="2667.5" y="2312.5" width="89" height="102" stroke="#000000" stroke-width="6.875" stroke-miterlimit="8" fill="none"/><rect x="2756.5" y="2312.5" width="90" height="102" stroke="#000000" stroke-width="6.875" stroke-miterlimit="8" fill="none"/><rect x="2846.5" y="2312.5" width="90" height="102" stroke="#000000" stroke-width="6.875" stroke-miterlimit="8" fill="none"/><rect x="2936.5" y="2312.5" width="88.9998" height="102" stroke="#000000" stroke-width="6.875" stroke-miterlimit="8" fill="none"/><rect x="3025.5" y="2312.5" width="90" height="102" stroke="#000000" stroke-width="6.875" stroke-miterlimit="8" fill="none"/><rect x="3115.5" y="2312.5" width="90" height="102" stroke="#000000" stroke-width="6.875" stroke-miterlimit="8" fill="none"/><text font-family="Cambria,Cambria_MSFontService,sans-serif" font-weight="400" font-size="92" transform="matrix(1 0 0 1 2546.37 2519)">Input sequence</text><path d="M2428.5 1688.83C2428.5 1666.01 2447.01 1647.5 2469.83 1647.5L3227.17 1647.5C3249.99 1647.5 3268.5 1666.01 3268.5 1688.83L3268.5 1854.17C3268.5 1876.99 3249.99 1895.5 3227.17 1895.5L2469.83 1895.5C2447.01 1895.5 2428.5 1876.99 2428.5 1854.17Z" stroke="#13748B" stroke-width="4.58333" stroke-miterlimit="8" fill="#13748B" fill-rule="evenodd" fill-opacity="0.8"/><text font-family="Cambria,Cambria_MSFontService,sans-serif" font-weight="400" font-size="92" transform="matrix(1 0 0 1 2595.38 1750)">Bidirectional</text><text font-family="Cambria,Cambria_MSFontService,sans-serif" font-weight="400" font-size="92" transform="matrix(1 0 0 1 2640.82 1860)">LSTM </text><text font-family="Cambria,Cambria_MSFontService,sans-serif" font-weight="400" font-size="92" transform="matrix(1 0 0 1 2882.57 1860)">(20)</text><path d="M2428.5 1126.67C2428.5 1114.42 2438.42 1104.5 2450.67 1104.5L3246.33 1104.5C3258.58 1104.5 3268.5 1114.42 3268.5 1126.67L3268.5 1215.33C3268.5 1227.58 3258.58 1237.5 3246.33 1237.5L2450.67 1237.5C2438.42 1237.5 2428.5 1227.58 2428.5 1215.33Z" stroke="#FFC000" stroke-width="4.58333" stroke-miterlimit="8" fill="#FFE9BB" fill-rule="evenodd"/><text font-family="Cambria,Cambria_MSFontService,sans-serif" font-weight="400" font-size="92" transform="matrix(1 0 0 1 2568.06 1204)">Dense</text><text font-family="Cambria,Cambria_MSFontService,sans-serif" font-weight="400" font-size="92" transform="matrix(1 0 0 1 2828.74 1204)">(1 </text><text font-family="Cambria,Cambria_MSFontService,sans-serif" font-weight="400" font-size="92" transform="matrix(1 0 0 1 2934.73 1204)">unit</text><text font-family="Cambria,Cambria_MSFontService,sans-serif" font-weight="400" font-size="92" transform="matrix(1 0 0 1 3092.28 1204)">)</text><rect x="2801.5" y="932.5" width="90" height="102" stroke="#000000" stroke-width="6.875" stroke-miterlimit="8" fill="none"/><text font-family="Cambria,Cambria_MSFontService,sans-serif" font-weight="400" font-size="110" transform="matrix(1 0 0 1 1602.16 51)">Output</text><path d="M3.4375-1.36649e-05 3.43777 67.8683-3.43723 67.8683-3.4375 1.36649e-05ZM13.7503 63.285 0.000360892 90.785-13.7497 63.2851Z" transform="matrix(1 0 0 -1 2846.5 2312.29)"/><path d="M3.4375-1.66357e-05 3.43775 51.656-3.43725 51.656-3.4375 1.66357e-05ZM13.7502 47.0726 0.000360892 74.5726-13.7498 47.0727Z" transform="matrix(1 0 0 -1 2848.5 1970.07)"/><path d="M2845.06 1646.68 2845.06 1593.42 2851.94 1593.42 2851.94 1646.68ZM2834.75 1598 2848.5 1570.5 2862.25 1598Z"/><path d="M2844.71 1104.41 2843.6 1057.49 2850.48 1057.33 2851.58 1104.25ZM2833.4 1062.32 2846.5 1034.5 2860.89 1061.67Z"/><rect x="1725.5" y="82.5" width="89.9998" height="102" stroke="#000000" stroke-width="6.875" stroke-miterlimit="8" fill="none"/><rect x="256.5" y="2312.5" width="90.0001" height="102" stroke="#000000" stroke-width="6.875" stroke-miterlimit="8" fill="none"/><rect x="346.5" y="2312.5" width="90.0001" height="102" stroke="#000000" stroke-width="6.875" stroke-miterlimit="8" fill="none"/><rect x="436.5" y="2312.5" width="89.0001" height="102" stroke="#000000" stroke-width="6.875" stroke-miterlimit="8" fill="none"/><rect x="525.5" y="2312.5" width="90.0001" height="102" stroke="#000000" stroke-width="6.875" stroke-miterlimit="8" fill="none"/><rect x="615.5" y="2312.5" width="89.9997" height="102" stroke="#000000" stroke-width="6.875" stroke-miterlimit="8" fill="none"/><rect x="705.5" y="2312.5" width="89" height="102" stroke="#000000" stroke-width="6.875" stroke-miterlimit="8" fill="none"/><rect x="794.5" y="2312.5" width="90.0001" height="102" stroke="#000000" stroke-width="6.875" stroke-miterlimit="8" fill="none"/><rect x="884.5" y="2312.5" width="90.0001" height="102" stroke="#000000" stroke-width="6.875" stroke-miterlimit="8" fill="none"/><text font-family="Cambria,Cambria_MSFontService,sans-serif" font-weight="400" font-size="73" transform="matrix(1 0 0 1 391.276 2501)">Encoder Input </text><text font-family="Cambria,Cambria_MSFontService,sans-serif" font-weight="400" font-size="73" transform="matrix(1 0 0 1 469.193 2589)">sequence</text><rect x="1426.5" y="2310.5" width="90.0001" height="102" stroke="#000000" stroke-width="6.875" stroke-miterlimit="8" fill="none"/><rect x="1516.5" y="2310.5" width="89" height="102" stroke="#000000" stroke-width="6.875" stroke-miterlimit="8" fill="none"/><rect x="1605.5" y="2310.5" width="89.9998" height="102" stroke="#000000" stroke-width="6.875" stroke-miterlimit="8" fill="none"/><rect x="1695.5" y="2310.5" width="90.0001" height="102" stroke="#000000" stroke-width="6.875" stroke-miterlimit="8" fill="none"/><rect x="1785.5" y="2310.5" width="89" height="102" stroke="#000000" stroke-width="6.875" stroke-miterlimit="8" fill="none"/><rect x="1874.5" y="2310.5" width="90.0001" height="102" stroke="#000000" stroke-width="6.875" stroke-miterlimit="8" fill="none"/><rect x="1964.5" y="2310.5" width="89" height="102" stroke="#000000" stroke-width="6.875" stroke-miterlimit="8" fill="none"/><rect x="2053.5" y="2310.5" width="90" height="102" stroke="#000000" stroke-width="6.875" stroke-miterlimit="8" fill="none"/><text font-family="Cambria,Cambria_MSFontService,sans-serif" font-weight="400" font-size="73" transform="matrix(1 0 0 1 1558.21 2500)">Decoder Input </text><text font-family="Cambria,Cambria_MSFontService,sans-serif" font-weight="400" font-size="73" transform="matrix(1 0 0 1 1636.7 2588)">sequence</text><path d="M2428.5 1360.5C2428.5 1337.3 2447.3 1318.5 2470.5 1318.5L3226.5 1318.5C3249.7 1318.5 3268.5 1337.3 3268.5 1360.5L3268.5 1528.5C3268.5 1551.7 3249.7 1570.5 3226.5 1570.5L2470.5 1570.5C2447.3 1570.5 2428.5 1551.7 2428.5 1528.5Z" stroke="#70AD47" stroke-width="4.58333" stroke-miterlimit="8" fill="#13B58B" fill-rule="evenodd" fill-opacity="0.8"/><text font-family="Cambria,Cambria_MSFontService,sans-serif" font-weight="400" font-size="92" transform="matrix(1 0 0 1 2479.79 1423)">Global </text><text font-family="Cambria,Cambria_MSFontService,sans-serif" font-weight="400" font-size="92" transform="matrix(1 0 0 1 2749.06 1423)">avg</text><text font-family="Cambria,Cambria_MSFontService,sans-serif" font-weight="400" font-size="92" transform="matrix(1 0 0 1 2882.07 1423)">. </text><text font-family="Cambria,Cambria_MSFontService,sans-serif" font-weight="400" font-size="92" transform="matrix(1 0 0 1 2921.03 1423)">pooling</text><text font-family="Cambria,Cambria_MSFontService,sans-serif" font-weight="400" font-size="92" transform="matrix(1 0 0 1 2648.66 1533)">+ Dropout</text><text font-family="Cambria,Cambria_MSFontService,sans-serif" font-weight="400" font-size="110" transform="matrix(1 0 0 1 2681.43 894)">Output</text><path d="M3.4375-1.5304e-05 3.43776 58.1448-3.43724 58.1448-3.4375 1.5304e-05ZM13.7502 53.5614 0.000360892 81.0615-13.7498 53.5615Z" transform="matrix(1 0 0 -1 2848.5 1318.56)"/><path d="M2428.5 2012.33C2428.5 1989.23 2447.23 1970.5 2470.33 1970.5L3226.67 1970.5C3249.77 1970.5 3268.5 1989.23 3268.5 2012.33L3268.5 2179.67C3268.5 2202.77 3249.77 2221.5 3226.67 2221.5L2470.33 2221.5C2447.23 2221.5 2428.5 2202.77 2428.5 2179.67Z" stroke="#13748B" stroke-width="4.58333" stroke-miterlimit="8" fill="#13748B" fill-rule="evenodd" fill-opacity="0.8"/><text font-family="Cambria,Cambria_MSFontService,sans-serif" font-weight="400" font-size="92" transform="matrix(1 0 0 1 2595.38 2075)">Bidirectional</text><text font-family="Cambria,Cambria_MSFontService,sans-serif" font-weight="400" font-size="92" transform="matrix(1 0 0 1 2640.85 2185)">LSTM </text><text font-family="Cambria,Cambria_MSFontService,sans-serif" font-weight="400" font-size="92" transform="matrix(1 0 0 1 2882.59 2185)">(20)</text><rect x="3516.5" y="2299.5" width="89" height="102" stroke="#000000" stroke-width="6.875" stroke-miterlimit="8" fill="none"/><rect x="3605.5" y="2299.5" width="90" height="102" stroke="#000000" stroke-width="6.875" stroke-miterlimit="8" fill="none"/><rect x="3695.5" y="2299.5" width="88.9998" height="102" stroke="#000000" stroke-width="6.875" stroke-miterlimit="8" fill="none"/><rect x="3784.5" y="2299.5" width="90" height="102" stroke="#000000" stroke-width="6.875" stroke-miterlimit="8" fill="none"/><rect x="3874.5" y="2299.5" width="90" height="102" stroke="#000000" stroke-width="6.875" stroke-miterlimit="8" fill="none"/><rect x="3964.5" y="2299.5" width="89" height="102" stroke="#000000" stroke-width="6.875" stroke-miterlimit="8" fill="none"/><rect x="4053.5" y="2299.5" width="90" height="102" stroke="#000000" stroke-width="6.875" stroke-miterlimit="8" fill="none"/><rect x="4143.5" y="2299.5" width="90" height="102" stroke="#000000" stroke-width="6.875" stroke-miterlimit="8" fill="none"/><text font-family="Cambria,Cambria_MSFontService,sans-serif" font-weight="400" font-size="92" transform="matrix(1 0 0 1 3574.47 2506)">Input sequence</text><path d="M3436.5 473.667C3436.5 461.424 3446.42 451.5 3458.67 451.5L4330.33 451.5C4342.58 451.5 4352.5 461.424 4352.5 473.667L4352.5 562.333C4352.5 574.575 4342.58 584.5 4330.33 584.5L3458.67 584.5C3446.42 584.5 3436.5 574.575 3436.5 562.333Z" stroke="#FFC000" stroke-width="4.58333" stroke-miterlimit="8" fill="#FFE9BB" fill-rule="evenodd"/><text font-family="Cambria,Cambria_MSFontService,sans-serif" font-weight="400" font-size="92" transform="matrix(1 0 0 1 3614.41 551)">Dense</text><text font-family="Cambria,Cambria_MSFontService,sans-serif" font-weight="400" font-size="92" transform="matrix(1 0 0 1 3875.09 551)">(1 </text><text font-family="Cambria,Cambria_MSFontService,sans-serif" font-weight="400" font-size="92" transform="matrix(1 0 0 1 3981.08 551)">unit</text><text font-family="Cambria,Cambria_MSFontService,sans-serif" font-weight="400" font-size="92" transform="matrix(1 0 0 1 4138.63 551)">)</text><rect x="3847.5" y="279.5" width="90" height="102" stroke="#000000" stroke-width="6.875" stroke-miterlimit="8" fill="none"/><path d="M3.4375-1.36649e-05 3.43777 67.8683-3.43723 67.8683-3.4375 1.36649e-05ZM13.7503 63.285 0.000360892 90.785-13.7497 63.2851Z" transform="matrix(1 0 0 -1 3874.5 2299.29)"/><path d="M3890.9 451.425 3889.67 404.499 3896.54 404.318 3897.77 451.244ZM3879.48 409.352 3892.5 381.5 3906.97 408.629Z"/><path d="M3434.5 842.834C3434.5 830.499 3444.5 820.5 3456.83 820.5L4330.17 820.5C4342.5 820.5 4352.5 830.499 4352.5 842.834L4352.5 932.166C4352.5 944.501 4342.5 954.5 4330.17 954.5L3456.83 954.5C3444.5 954.5 3434.5 944.501 3434.5 932.166Z" stroke="#70AD47" stroke-width="4.58333" stroke-miterlimit="8" fill="#13B58B" fill-rule="evenodd" fill-opacity="0.8"/><text font-family="Cambria,Cambria_MSFontService,sans-serif" font-weight="400" font-size="92" transform="matrix(1 0 0 1 3729.67 921)">Dropout</text><path d="M3434.5 2012.5C3434.5 1989.3 3453.3 1970.5 3476.5 1970.5L4307.5 1970.5C4330.7 1970.5 4349.5 1989.3 4349.5 2012.5L4349.5 2180.5C4349.5 2203.7 4330.7 2222.5 4307.5 2222.5L3476.5 2222.5C3453.3 2222.5 3434.5 2203.7 3434.5 2180.5Z" stroke="#B03A3A" stroke-width="4.58333" stroke-miterlimit="8" fill="#B03A3A" fill-rule="evenodd" fill-opacity="0.8"/><text font-family="Cambria,Cambria_MSFontService,sans-serif" font-weight="400" font-size="92" transform="matrix(1 0 0 1 3737.74 2075)">Conv1D </text><text font-family="Cambria,Cambria_MSFontService,sans-serif" font-weight="400" font-size="92" transform="matrix(1 0 0 1 3546.38 2185)">(</text><text font-family="Cambria,Cambria_MSFontService,sans-serif" font-weight="400" font-size="92" transform="matrix(1 0 0 1 3581.33 2185)">filter</text><text font-family="Cambria,Cambria_MSFontService,sans-serif" font-weight="400" font-size="92" transform="matrix(1 0 0 1 3791.36 2185)">8, </text><text font-family="Cambria,Cambria_MSFontService,sans-serif" font-weight="400" font-size="92" transform="matrix(1 0 0 1 3881.31 2185)">kernel</text><text font-family="Cambria,Cambria_MSFontService,sans-serif" font-weight="400" font-size="92" transform="matrix(1 0 0 1 4150.74 2185)">1)</text><text font-family="Cambria,Cambria_MSFontService,sans-serif" font-weight="400" font-size="110" transform="matrix(1 0 0 1 3734.79 246)">Output</text><path d="M3434.5 1685.5C3434.5 1662.3 3453.3 1643.5 3476.5 1643.5L4310.5 1643.5C4333.7 1643.5 4352.5 1662.3 4352.5 1685.5L4352.5 1853.5C4352.5 1876.7 4333.7 1895.5 4310.5 1895.5L3476.5 1895.5C3453.3 1895.5 3434.5 1876.7 3434.5 1853.5Z" stroke="#B03A3A" stroke-width="4.58333" stroke-miterlimit="8" fill="#B03A3A" fill-rule="evenodd" fill-opacity="0.8"/><text font-family="Cambria,Cambria_MSFontService,sans-serif" font-weight="400" font-size="92" transform="matrix(1 0 0 1 3738.97 1748)">Conv1D </text><text font-family="Cambria,Cambria_MSFontService,sans-serif" font-weight="400" font-size="92" transform="matrix(1 0 0 1 3547.61 1858)">(</text><text font-family="Cambria,Cambria_MSFontService,sans-serif" font-weight="400" font-size="92" transform="matrix(1 0 0 1 3582.56 1858)">filter</text><text font-family="Cambria,Cambria_MSFontService,sans-serif" font-weight="400" font-size="92" transform="matrix(1 0 0 1 3792.59 1858)">8, </text><text font-family="Cambria,Cambria_MSFontService,sans-serif" font-weight="400" font-size="92" transform="matrix(1 0 0 1 3882.54 1858)">kernel</text><text font-family="Cambria,Cambria_MSFontService,sans-serif" font-weight="400" font-size="92" transform="matrix(1 0 0 1 4151.97 1858)">1)</text><path d="M3434.5 1361.5C3434.5 1338.3 3453.3 1319.5 3476.5 1319.5L4310.5 1319.5C4333.7 1319.5 4352.5 1338.3 4352.5 1361.5L4352.5 1529.5C4352.5 1552.7 4333.7 1571.5 4310.5 1571.5L3476.5 1571.5C3453.3 1571.5 3434.5 1552.7 3434.5 1529.5Z" stroke="#B03A3A" stroke-width="4.58333" stroke-miterlimit="8" fill="#B03A3A" fill-rule="evenodd" fill-opacity="0.8"/><text font-family="Cambria,Cambria_MSFontService,sans-serif" font-weight="400" font-size="92" transform="matrix(1 0 0 1 3738.97 1424)">Conv1D </text><text font-family="Cambria,Cambria_MSFontService,sans-serif" font-weight="400" font-size="92" transform="matrix(1 0 0 1 3547.61 1534)">(</text><text font-family="Cambria,Cambria_MSFontService,sans-serif" font-weight="400" font-size="92" transform="matrix(1 0 0 1 3582.56 1534)">filter</text><text font-family="Cambria,Cambria_MSFontService,sans-serif" font-weight="400" font-size="92" transform="matrix(1 0 0 1 3792.59 1534)">8, </text><text font-family="Cambria,Cambria_MSFontService,sans-serif" font-weight="400" font-size="92" transform="matrix(1 0 0 1 3882.54 1534)">kernel</text><text font-family="Cambria,Cambria_MSFontService,sans-serif" font-weight="400" font-size="92" transform="matrix(1 0 0 1 4151.97 1534)">1)</text><path d="M3434.5 1048.5C3434.5 1025.3 3453.3 1006.5 3476.5 1006.5L4308.5 1006.5C4331.7 1006.5 4350.5 1025.3 4350.5 1048.5L4350.5 1216.5C4350.5 1239.7 4331.7 1258.5 4308.5 1258.5L3476.5 1258.5C3453.3 1258.5 3434.5 1239.7 3434.5 1216.5Z" stroke="#B03A3A" stroke-width="4.58333" stroke-miterlimit="8" fill="#B03A3A" fill-rule="evenodd" fill-opacity="0.8"/><text font-family="Cambria,Cambria_MSFontService,sans-serif" font-weight="400" font-size="92" transform="matrix(1 0 0 1 3738.36 1111)">Conv1D </text><text font-family="Cambria,Cambria_MSFontService,sans-serif" font-weight="400" font-size="92" transform="matrix(1 0 0 1 3547.01 1221)">(</text><text font-family="Cambria,Cambria_MSFontService,sans-serif" font-weight="400" font-size="92" transform="matrix(1 0 0 1 3581.96 1221)">filter</text><text font-family="Cambria,Cambria_MSFontService,sans-serif" font-weight="400" font-size="92" transform="matrix(1 0 0 1 3791.99 1221)">8, </text><text font-family="Cambria,Cambria_MSFontService,sans-serif" font-weight="400" font-size="92" transform="matrix(1 0 0 1 3881.94 1221)">kernel</text><text font-family="Cambria,Cambria_MSFontService,sans-serif" font-weight="400" font-size="92" transform="matrix(1 0 0 1 4151.37 1221)">1)</text><path d="M3437.5 658.667C3437.5 646.424 3447.42 636.5 3459.67 636.5L4330.33 636.5C4342.58 636.5 4352.5 646.424 4352.5 658.667L4352.5 747.333C4352.5 759.576 4342.58 769.5 4330.33 769.5L3459.67 769.5C3447.42 769.5 3437.5 759.576 3437.5 747.333Z" stroke="#FFC000" stroke-width="4.58333" stroke-miterlimit="8" fill="#FFE9BB" fill-rule="evenodd"/><text font-family="Cambria,Cambria_MSFontService,sans-serif" font-weight="400" font-size="92" transform="matrix(1 0 0 1 3589.58 736)">Dense</text><text font-family="Cambria,Cambria_MSFontService,sans-serif" font-weight="400" font-size="92" transform="matrix(1 0 0 1 3850.26 736)">(16 </text><text font-family="Cambria,Cambria_MSFontService,sans-serif" font-weight="400" font-size="92" transform="matrix(1 0 0 1 4007.24 736)">unit</text><text font-family="Cambria,Cambria_MSFontService,sans-serif" font-weight="400" font-size="92" transform="matrix(1 0 0 1 4164.79 736)">)</text><path d="M3891.73 636.51 3891.36 607.459 3898.23 607.37 3898.61 636.421ZM3881.1 612.175 3894.5 584.5 3908.6 611.821Z"/><path d="M3.43598-0.102355 4.28091 28.2613-2.59105 28.466-3.43598 0.102355ZM14.4524 23.373 1.5273 51.2702-13.0354 24.1918Z" transform="matrix(1 0 0 -1 3893.5 820.77)"/><path d="M3.43703-0.0567865 4.29054 51.6023-2.58352 51.7159-3.43703 0.0567865ZM14.5259 46.8492 1.23209 74.5726-12.9703 47.3035Z" transform="matrix(1 0 0 -1 3892.5 1970.07)"/><path d="M3.4375-1.72094e-05 3.43775 49.1698-3.43725 49.1698-3.4375 1.72094e-05ZM13.7502 44.5864 0.000360892 72.0864-13.7498 44.5865Z" transform="matrix(1 0 0 -1 3893.5 1643.59)"/><path d="M3889.67 1318.81 3889.29 1281.45 3896.17 1281.38 3896.54 1318.74ZM3879.03 1286.14 3892.5 1258.5 3906.53 1285.86Z"/><path d="M3.4369-0.0640125 3.98817 29.5342-2.88564 29.6622-3.4369 0.0640125ZM14.2135 24.7596 0.978018 52.5109-13.2817 25.2717Z" transform="matrix(1 0 0 -1 3892.5 1007.01)"/></g></svg>