<?xml version="1.0" encoding="utf-8" standalone="no"?>
<!DOCTYPE svg PUBLIC "-//W3C//DTD SVG 1.1//EN"
  "http://www.w3.org/Graphics/SVG/1.1/DTD/svg11.dtd">
<svg xmlns:xlink="http://www.w3.org/1999/xlink" width="1072.330625pt" height="494.497554pt" viewBox="0 0 1072.330625 494.497554" xmlns="http://www.w3.org/2000/svg" version="1.1">
 <metadata>
  <rdf:RDF xmlns:dc="http://purl.org/dc/elements/1.1/" xmlns:cc="http://creativecommons.org/ns#" xmlns:rdf="http://www.w3.org/1999/02/22-rdf-syntax-ns#">
   <cc:Work>
    <dc:type rdf:resource="http://purl.org/dc/dcmitype/StillImage"/>
    <dc:date>2023-09-29T16:35:15.598506</dc:date>
    <dc:format>image/svg+xml</dc:format>
    <dc:creator>
     <cc:Agent>
      <dc:title>Matplotlib v3.7.2, https://matplotlib.org/</dc:title>
     </cc:Agent>
    </dc:creator>
   </cc:Work>
  </rdf:RDF>
 </metadata>
 <defs>
  <style type="text/css">*{stroke-linejoin: round; stroke-linecap: butt}</style>
 </defs>
 <g id="figure_1">
  <g id="patch_1">
   <path d="M 0 494.497554 
L 1072.330625 494.497554 
L 1072.330625 0 
L 0 0 
z
" style="fill: #ffffff"/>
  </g>
  <g id="axes_1">
   <g id="patch_2">
    <path d="M 57.330625 418.66423 
L 1065.130625 418.66423 
L 1065.130625 31.43625 
L 57.330625 31.43625 
z
" style="fill: #ffffff"/>
   </g>
   <g id="matplotlib.axis_1">
    <g id="xtick_1">
     <g id="line2d_1">
      <defs>
       <path id="m83fddf80e5" d="M 0 0 
L 0 3.5 
" style="stroke: #000000; stroke-width: 0.8"/>
      </defs>
      <g>
       <use xlink:href="#m83fddf80e5" x="57.330625" y="418.66423" style="stroke: #000000; stroke-width: 0.8"/>
      </g>
     </g>
    </g>
    <g id="xtick_2">
     <g id="line2d_2">
      <g>
       <use xlink:href="#m83fddf80e5" x="1065.130625" y="418.66423" style="stroke: #000000; stroke-width: 0.8"/>
      </g>
     </g>
    </g>
    <g id="xtick_3">
     <g id="line2d_3">
      <defs>
       <path id="m594ed29335" d="M 0 0 
L 0 2 
" style="stroke: #000000; stroke-width: 0.6"/>
      </defs>
      <g>
       <use xlink:href="#m594ed29335" x="123.587372" y="418.66423" style="stroke: #000000; stroke-width: 0.6"/>
      </g>
     </g>
     <g id="text_1">
      <!-- 09 -->
      <g transform="translate(115.856214 434.86174) rotate(-10) scale(0.1 -0.1)">
       <defs>
        <path id="DejaVuSans-30" d="M 2034 4250 
Q 1547 4250 1301 3770 
Q 1056 3291 1056 2328 
Q 1056 1369 1301 889 
Q 1547 409 2034 409 
Q 2525 409 2770 889 
Q 3016 1369 3016 2328 
Q 3016 3291 2770 3770 
Q 2525 4250 2034 4250 
z
M 2034 4750 
Q 2819 4750 3233 4129 
Q 3647 3509 3647 2328 
Q 3647 1150 3233 529 
Q 2819 -91 2034 -91 
Q 1250 -91 836 529 
Q 422 1150 422 2328 
Q 422 3509 836 4129 
Q 1250 4750 2034 4750 
z
" transform="scale(0.015625)"/>
        <path id="DejaVuSans-39" d="M 703 97 
L 703 672 
Q 941 559 1184 500 
Q 1428 441 1663 441 
Q 2288 441 2617 861 
Q 2947 1281 2994 2138 
Q 2813 1869 2534 1725 
Q 2256 1581 1919 1581 
Q 1219 1581 811 2004 
Q 403 2428 403 3163 
Q 403 3881 828 4315 
Q 1253 4750 1959 4750 
Q 2769 4750 3195 4129 
Q 3622 3509 3622 2328 
Q 3622 1225 3098 567 
Q 2575 -91 1691 -91 
Q 1453 -91 1209 -44 
Q 966 3 703 97 
z
M 1959 2075 
Q 2384 2075 2632 2365 
Q 2881 2656 2881 3163 
Q 2881 3666 2632 3958 
Q 2384 4250 1959 4250 
Q 1534 4250 1286 3958 
Q 1038 3666 1038 3163 
Q 1038 2656 1286 2365 
Q 1534 2075 1959 2075 
z
" transform="scale(0.015625)"/>
       </defs>
       <use xlink:href="#DejaVuSans-30"/>
       <use xlink:href="#DejaVuSans-39" x="63.623047"/>
      </g>
      <!-- Jul -->
      <g transform="translate(118.125372 445.832183) rotate(-10) scale(0.1 -0.1)">
       <defs>
        <path id="DejaVuSans-4a" d="M 628 4666 
L 1259 4666 
L 1259 325 
Q 1259 -519 939 -900 
Q 619 -1281 -91 -1281 
L -331 -1281 
L -331 -750 
L -134 -750 
Q 284 -750 456 -515 
Q 628 -281 628 325 
L 628 4666 
z
" transform="scale(0.015625)"/>
        <path id="DejaVuSans-75" d="M 544 1381 
L 544 3500 
L 1119 3500 
L 1119 1403 
Q 1119 906 1312 657 
Q 1506 409 1894 409 
Q 2359 409 2629 706 
Q 2900 1003 2900 1516 
L 2900 3500 
L 3475 3500 
L 3475 0 
L 2900 0 
L 2900 538 
Q 2691 219 2414 64 
Q 2138 -91 1772 -91 
Q 1169 -91 856 284 
Q 544 659 544 1381 
z
M 1991 3584 
L 1991 3584 
z
" transform="scale(0.015625)"/>
        <path id="DejaVuSans-6c" d="M 603 4863 
L 1178 4863 
L 1178 0 
L 603 0 
L 603 4863 
z
" transform="scale(0.015625)"/>
       </defs>
       <use xlink:href="#DejaVuSans-4a"/>
       <use xlink:href="#DejaVuSans-75" x="29.492188"/>
       <use xlink:href="#DejaVuSans-6c" x="92.871094"/>
      </g>
      <!-- 2012 -->
      <g transform="translate(113.479334 458.021962) rotate(-10) scale(0.1 -0.1)">
       <defs>
        <path id="DejaVuSans-32" d="M 1228 531 
L 3431 531 
L 3431 0 
L 469 0 
L 469 531 
Q 828 903 1448 1529 
Q 2069 2156 2228 2338 
Q 2531 2678 2651 2914 
Q 2772 3150 2772 3378 
Q 2772 3750 2511 3984 
Q 2250 4219 1831 4219 
Q 1534 4219 1204 4116 
Q 875 4013 500 3803 
L 500 4441 
Q 881 4594 1212 4672 
Q 1544 4750 1819 4750 
Q 2544 4750 2975 4387 
Q 3406 4025 3406 3419 
Q 3406 3131 3298 2873 
Q 3191 2616 2906 2266 
Q 2828 2175 2409 1742 
Q 1991 1309 1228 531 
z
" transform="scale(0.015625)"/>
        <path id="DejaVuSans-31" d="M 794 531 
L 1825 531 
L 1825 4091 
L 703 3866 
L 703 4441 
L 1819 4666 
L 2450 4666 
L 2450 531 
L 3481 531 
L 3481 0 
L 794 0 
L 794 531 
z
" transform="scale(0.015625)"/>
       </defs>
       <use xlink:href="#DejaVuSans-32"/>
       <use xlink:href="#DejaVuSans-30" x="63.623047"/>
       <use xlink:href="#DejaVuSans-31" x="127.246094"/>
       <use xlink:href="#DejaVuSans-32" x="190.869141"/>
      </g>
     </g>
    </g>
    <g id="xtick_4">
     <g id="line2d_4">
      <g>
       <use xlink:href="#m594ed29335" x="207.280106" y="418.66423" style="stroke: #000000; stroke-width: 0.6"/>
      </g>
     </g>
     <g id="text_2">
      <!-- 10 -->
      <g transform="translate(201.493427 433.756903) rotate(-10) scale(0.1 -0.1)">
       <use xlink:href="#DejaVuSans-31"/>
       <use xlink:href="#DejaVuSans-30" x="63.623047"/>
      </g>
     </g>
    </g>
    <g id="xtick_5">
     <g id="line2d_5">
      <g>
       <use xlink:href="#m594ed29335" x="290.97284" y="418.66423" style="stroke: #000000; stroke-width: 0.6"/>
      </g>
     </g>
     <g id="text_3">
      <!-- 11 -->
      <g transform="translate(285.186161 433.756903) rotate(-10) scale(0.1 -0.1)">
       <use xlink:href="#DejaVuSans-31"/>
       <use xlink:href="#DejaVuSans-31" x="63.623047"/>
      </g>
     </g>
    </g>
    <g id="xtick_6">
     <g id="line2d_6">
      <g>
       <use xlink:href="#m594ed29335" x="374.665573" y="418.66423" style="stroke: #000000; stroke-width: 0.6"/>
      </g>
     </g>
     <g id="text_4">
      <!-- 12 -->
      <g transform="translate(368.878894 433.756903) rotate(-10) scale(0.1 -0.1)">
       <use xlink:href="#DejaVuSans-31"/>
       <use xlink:href="#DejaVuSans-32" x="63.623047"/>
      </g>
     </g>
    </g>
    <g id="xtick_7">
     <g id="line2d_7">
      <g>
       <use xlink:href="#m594ed29335" x="458.358307" y="418.66423" style="stroke: #000000; stroke-width: 0.6"/>
      </g>
     </g>
     <g id="text_5">
      <!-- 13 -->
      <g transform="translate(452.571628 433.756903) rotate(-10) scale(0.1 -0.1)">
       <defs>
        <path id="DejaVuSans-33" d="M 2597 2516 
Q 3050 2419 3304 2112 
Q 3559 1806 3559 1356 
Q 3559 666 3084 287 
Q 2609 -91 1734 -91 
Q 1441 -91 1130 -33 
Q 819 25 488 141 
L 488 750 
Q 750 597 1062 519 
Q 1375 441 1716 441 
Q 2309 441 2620 675 
Q 2931 909 2931 1356 
Q 2931 1769 2642 2001 
Q 2353 2234 1838 2234 
L 1294 2234 
L 1294 2753 
L 1863 2753 
Q 2328 2753 2575 2939 
Q 2822 3125 2822 3475 
Q 2822 3834 2567 4026 
Q 2313 4219 1838 4219 
Q 1578 4219 1281 4162 
Q 984 4106 628 3988 
L 628 4550 
Q 988 4650 1302 4700 
Q 1616 4750 1894 4750 
Q 2613 4750 3031 4423 
Q 3450 4097 3450 3541 
Q 3450 3153 3228 2886 
Q 3006 2619 2597 2516 
z
" transform="scale(0.015625)"/>
       </defs>
       <use xlink:href="#DejaVuSans-31"/>
       <use xlink:href="#DejaVuSans-33" x="63.623047"/>
      </g>
     </g>
    </g>
    <g id="xtick_8">
     <g id="line2d_8">
      <g>
       <use xlink:href="#m594ed29335" x="542.05104" y="418.66423" style="stroke: #000000; stroke-width: 0.6"/>
      </g>
     </g>
     <g id="text_6">
      <!-- 14 -->
      <g transform="translate(536.264361 433.756903) rotate(-10) scale(0.1 -0.1)">
       <defs>
        <path id="DejaVuSans-34" d="M 2419 4116 
L 825 1625 
L 2419 1625 
L 2419 4116 
z
M 2253 4666 
L 3047 4666 
L 3047 1625 
L 3713 1625 
L 3713 1100 
L 3047 1100 
L 3047 0 
L 2419 0 
L 2419 1100 
L 313 1100 
L 313 1709 
L 2253 4666 
z
" transform="scale(0.015625)"/>
       </defs>
       <use xlink:href="#DejaVuSans-31"/>
       <use xlink:href="#DejaVuSans-34" x="63.623047"/>
      </g>
     </g>
    </g>
    <g id="xtick_9">
     <g id="line2d_9">
      <g>
       <use xlink:href="#m594ed29335" x="625.743774" y="418.66423" style="stroke: #000000; stroke-width: 0.6"/>
      </g>
     </g>
     <g id="text_7">
      <!-- 15 -->
      <g transform="translate(619.957095 433.756903) rotate(-10) scale(0.1 -0.1)">
       <defs>
        <path id="DejaVuSans-35" d="M 691 4666 
L 3169 4666 
L 3169 4134 
L 1269 4134 
L 1269 2991 
Q 1406 3038 1543 3061 
Q 1681 3084 1819 3084 
Q 2600 3084 3056 2656 
Q 3513 2228 3513 1497 
Q 3513 744 3044 326 
Q 2575 -91 1722 -91 
Q 1428 -91 1123 -41 
Q 819 9 494 109 
L 494 744 
Q 775 591 1075 516 
Q 1375 441 1709 441 
Q 2250 441 2565 725 
Q 2881 1009 2881 1497 
Q 2881 1984 2565 2268 
Q 2250 2553 1709 2553 
Q 1456 2553 1204 2497 
Q 953 2441 691 2322 
L 691 4666 
z
" transform="scale(0.015625)"/>
       </defs>
       <use xlink:href="#DejaVuSans-31"/>
       <use xlink:href="#DejaVuSans-35" x="63.623047"/>
      </g>
     </g>
    </g>
    <g id="xtick_10">
     <g id="line2d_10">
      <g>
       <use xlink:href="#m594ed29335" x="709.436507" y="418.66423" style="stroke: #000000; stroke-width: 0.6"/>
      </g>
     </g>
     <g id="text_8">
      <!-- 16 -->
      <g transform="translate(703.649828 433.756903) rotate(-10) scale(0.1 -0.1)">
       <defs>
        <path id="DejaVuSans-36" d="M 2113 2584 
Q 1688 2584 1439 2293 
Q 1191 2003 1191 1497 
Q 1191 994 1439 701 
Q 1688 409 2113 409 
Q 2538 409 2786 701 
Q 3034 994 3034 1497 
Q 3034 2003 2786 2293 
Q 2538 2584 2113 2584 
z
M 3366 4563 
L 3366 3988 
Q 3128 4100 2886 4159 
Q 2644 4219 2406 4219 
Q 1781 4219 1451 3797 
Q 1122 3375 1075 2522 
Q 1259 2794 1537 2939 
Q 1816 3084 2150 3084 
Q 2853 3084 3261 2657 
Q 3669 2231 3669 1497 
Q 3669 778 3244 343 
Q 2819 -91 2113 -91 
Q 1303 -91 875 529 
Q 447 1150 447 2328 
Q 447 3434 972 4092 
Q 1497 4750 2381 4750 
Q 2619 4750 2861 4703 
Q 3103 4656 3366 4563 
z
" transform="scale(0.015625)"/>
       </defs>
       <use xlink:href="#DejaVuSans-31"/>
       <use xlink:href="#DejaVuSans-36" x="63.623047"/>
      </g>
     </g>
    </g>
    <g id="xtick_11">
     <g id="line2d_11">
      <g>
       <use xlink:href="#m594ed29335" x="793.129241" y="418.66423" style="stroke: #000000; stroke-width: 0.6"/>
      </g>
     </g>
     <g id="text_9">
      <!-- 17 -->
      <g transform="translate(787.342562 433.756903) rotate(-10) scale(0.1 -0.1)">
       <defs>
        <path id="DejaVuSans-37" d="M 525 4666 
L 3525 4666 
L 3525 4397 
L 1831 0 
L 1172 0 
L 2766 4134 
L 525 4134 
L 525 4666 
z
" transform="scale(0.015625)"/>
       </defs>
       <use xlink:href="#DejaVuSans-31"/>
       <use xlink:href="#DejaVuSans-37" x="63.623047"/>
      </g>
     </g>
    </g>
    <g id="xtick_12">
     <g id="line2d_12">
      <g>
       <use xlink:href="#m594ed29335" x="876.821974" y="418.66423" style="stroke: #000000; stroke-width: 0.6"/>
      </g>
     </g>
     <g id="text_10">
      <!-- 18 -->
      <g transform="translate(871.035296 433.756903) rotate(-10) scale(0.1 -0.1)">
       <defs>
        <path id="DejaVuSans-38" d="M 2034 2216 
Q 1584 2216 1326 1975 
Q 1069 1734 1069 1313 
Q 1069 891 1326 650 
Q 1584 409 2034 409 
Q 2484 409 2743 651 
Q 3003 894 3003 1313 
Q 3003 1734 2745 1975 
Q 2488 2216 2034 2216 
z
M 1403 2484 
Q 997 2584 770 2862 
Q 544 3141 544 3541 
Q 544 4100 942 4425 
Q 1341 4750 2034 4750 
Q 2731 4750 3128 4425 
Q 3525 4100 3525 3541 
Q 3525 3141 3298 2862 
Q 3072 2584 2669 2484 
Q 3125 2378 3379 2068 
Q 3634 1759 3634 1313 
Q 3634 634 3220 271 
Q 2806 -91 2034 -91 
Q 1263 -91 848 271 
Q 434 634 434 1313 
Q 434 1759 690 2068 
Q 947 2378 1403 2484 
z
M 1172 3481 
Q 1172 3119 1398 2916 
Q 1625 2713 2034 2713 
Q 2441 2713 2670 2916 
Q 2900 3119 2900 3481 
Q 2900 3844 2670 4047 
Q 2441 4250 2034 4250 
Q 1625 4250 1398 4047 
Q 1172 3844 1172 3481 
z
" transform="scale(0.015625)"/>
       </defs>
       <use xlink:href="#DejaVuSans-31"/>
       <use xlink:href="#DejaVuSans-38" x="63.623047"/>
      </g>
     </g>
    </g>
    <g id="xtick_13">
     <g id="line2d_13">
      <g>
       <use xlink:href="#m594ed29335" x="960.514708" y="418.66423" style="stroke: #000000; stroke-width: 0.6"/>
      </g>
     </g>
     <g id="text_11">
      <!-- 19 -->
      <g transform="translate(954.728029 433.756903) rotate(-10) scale(0.1 -0.1)">
       <use xlink:href="#DejaVuSans-31"/>
       <use xlink:href="#DejaVuSans-39" x="63.623047"/>
      </g>
     </g>
    </g>
    <g id="xtick_14">
     <g id="line2d_14">
      <g>
       <use xlink:href="#m594ed29335" x="1044.207442" y="418.66423" style="stroke: #000000; stroke-width: 0.6"/>
      </g>
     </g>
     <g id="text_12">
      <!-- 20 -->
      <g transform="translate(1038.420763 433.756903) rotate(-10) scale(0.1 -0.1)">
       <use xlink:href="#DejaVuSans-32"/>
       <use xlink:href="#DejaVuSans-30" x="63.623047"/>
      </g>
     </g>
    </g>
    <g id="text_13">
     <!-- Time [hours] -->
     <g transform="translate(484.955625 482.306304) scale(0.24 -0.24)">
      <defs>
       <path id="DejaVuSans-54" d="M -19 4666 
L 3928 4666 
L 3928 4134 
L 2272 4134 
L 2272 0 
L 1638 0 
L 1638 4134 
L -19 4134 
L -19 4666 
z
" transform="scale(0.015625)"/>
       <path id="DejaVuSans-69" d="M 603 3500 
L 1178 3500 
L 1178 0 
L 603 0 
L 603 3500 
z
M 603 4863 
L 1178 4863 
L 1178 4134 
L 603 4134 
L 603 4863 
z
" transform="scale(0.015625)"/>
       <path id="DejaVuSans-6d" d="M 3328 2828 
Q 3544 3216 3844 3400 
Q 4144 3584 4550 3584 
Q 5097 3584 5394 3201 
Q 5691 2819 5691 2113 
L 5691 0 
L 5113 0 
L 5113 2094 
Q 5113 2597 4934 2840 
Q 4756 3084 4391 3084 
Q 3944 3084 3684 2787 
Q 3425 2491 3425 1978 
L 3425 0 
L 2847 0 
L 2847 2094 
Q 2847 2600 2669 2842 
Q 2491 3084 2119 3084 
Q 1678 3084 1418 2786 
Q 1159 2488 1159 1978 
L 1159 0 
L 581 0 
L 581 3500 
L 1159 3500 
L 1159 2956 
Q 1356 3278 1631 3431 
Q 1906 3584 2284 3584 
Q 2666 3584 2933 3390 
Q 3200 3197 3328 2828 
z
" transform="scale(0.015625)"/>
       <path id="DejaVuSans-65" d="M 3597 1894 
L 3597 1613 
L 953 1613 
Q 991 1019 1311 708 
Q 1631 397 2203 397 
Q 2534 397 2845 478 
Q 3156 559 3463 722 
L 3463 178 
Q 3153 47 2828 -22 
Q 2503 -91 2169 -91 
Q 1331 -91 842 396 
Q 353 884 353 1716 
Q 353 2575 817 3079 
Q 1281 3584 2069 3584 
Q 2775 3584 3186 3129 
Q 3597 2675 3597 1894 
z
M 3022 2063 
Q 3016 2534 2758 2815 
Q 2500 3097 2075 3097 
Q 1594 3097 1305 2825 
Q 1016 2553 972 2059 
L 3022 2063 
z
" transform="scale(0.015625)"/>
       <path id="DejaVuSans-20" transform="scale(0.015625)"/>
       <path id="DejaVuSans-5b" d="M 550 4863 
L 1875 4863 
L 1875 4416 
L 1125 4416 
L 1125 -397 
L 1875 -397 
L 1875 -844 
L 550 -844 
L 550 4863 
z
" transform="scale(0.015625)"/>
       <path id="DejaVuSans-68" d="M 3513 2113 
L 3513 0 
L 2938 0 
L 2938 2094 
Q 2938 2591 2744 2837 
Q 2550 3084 2163 3084 
Q 1697 3084 1428 2787 
Q 1159 2491 1159 1978 
L 1159 0 
L 581 0 
L 581 4863 
L 1159 4863 
L 1159 2956 
Q 1366 3272 1645 3428 
Q 1925 3584 2291 3584 
Q 2894 3584 3203 3211 
Q 3513 2838 3513 2113 
z
" transform="scale(0.015625)"/>
       <path id="DejaVuSans-6f" d="M 1959 3097 
Q 1497 3097 1228 2736 
Q 959 2375 959 1747 
Q 959 1119 1226 758 
Q 1494 397 1959 397 
Q 2419 397 2687 759 
Q 2956 1122 2956 1747 
Q 2956 2369 2687 2733 
Q 2419 3097 1959 3097 
z
M 1959 3584 
Q 2709 3584 3137 3096 
Q 3566 2609 3566 1747 
Q 3566 888 3137 398 
Q 2709 -91 1959 -91 
Q 1206 -91 779 398 
Q 353 888 353 1747 
Q 353 2609 779 3096 
Q 1206 3584 1959 3584 
z
" transform="scale(0.015625)"/>
       <path id="DejaVuSans-72" d="M 2631 2963 
Q 2534 3019 2420 3045 
Q 2306 3072 2169 3072 
Q 1681 3072 1420 2755 
Q 1159 2438 1159 1844 
L 1159 0 
L 581 0 
L 581 3500 
L 1159 3500 
L 1159 2956 
Q 1341 3275 1631 3429 
Q 1922 3584 2338 3584 
Q 2397 3584 2469 3576 
Q 2541 3569 2628 3553 
L 2631 2963 
z
" transform="scale(0.015625)"/>
       <path id="DejaVuSans-73" d="M 2834 3397 
L 2834 2853 
Q 2591 2978 2328 3040 
Q 2066 3103 1784 3103 
Q 1356 3103 1142 2972 
Q 928 2841 928 2578 
Q 928 2378 1081 2264 
Q 1234 2150 1697 2047 
L 1894 2003 
Q 2506 1872 2764 1633 
Q 3022 1394 3022 966 
Q 3022 478 2636 193 
Q 2250 -91 1575 -91 
Q 1294 -91 989 -36 
Q 684 19 347 128 
L 347 722 
Q 666 556 975 473 
Q 1284 391 1588 391 
Q 1994 391 2212 530 
Q 2431 669 2431 922 
Q 2431 1156 2273 1281 
Q 2116 1406 1581 1522 
L 1381 1569 
Q 847 1681 609 1914 
Q 372 2147 372 2553 
Q 372 3047 722 3315 
Q 1072 3584 1716 3584 
Q 2034 3584 2315 3537 
Q 2597 3491 2834 3397 
z
" transform="scale(0.015625)"/>
       <path id="DejaVuSans-5d" d="M 1947 4863 
L 1947 -844 
L 622 -844 
L 622 -397 
L 1369 -397 
L 1369 4416 
L 622 4416 
L 622 4863 
L 1947 4863 
z
" transform="scale(0.015625)"/>
      </defs>
      <use xlink:href="#DejaVuSans-54"/>
      <use xlink:href="#DejaVuSans-69" x="57.958984"/>
      <use xlink:href="#DejaVuSans-6d" x="85.742188"/>
      <use xlink:href="#DejaVuSans-65" x="183.154297"/>
      <use xlink:href="#DejaVuSans-20" x="244.677734"/>
      <use xlink:href="#DejaVuSans-5b" x="276.464844"/>
      <use xlink:href="#DejaVuSans-68" x="315.478516"/>
      <use xlink:href="#DejaVuSans-6f" x="378.857422"/>
      <use xlink:href="#DejaVuSans-75" x="440.039062"/>
      <use xlink:href="#DejaVuSans-72" x="503.417969"/>
      <use xlink:href="#DejaVuSans-73" x="544.53125"/>
      <use xlink:href="#DejaVuSans-5d" x="596.630859"/>
     </g>
    </g>
   </g>
   <g id="matplotlib.axis_2">
    <g id="ytick_1">
     <g id="line2d_15">
      <defs>
       <path id="m6acc77db9d" d="M 0 0 
L -3.5 0 
" style="stroke: #000000; stroke-width: 0.8"/>
      </defs>
      <g>
       <use xlink:href="#m6acc77db9d" x="57.330625" y="412.363386" style="stroke: #000000; stroke-width: 0.8"/>
      </g>
     </g>
     <g id="text_14">
      <!-- 0.0 -->
      <g transform="translate(34.4275 416.162605) scale(0.1 -0.1)">
       <defs>
        <path id="DejaVuSans-2e" d="M 684 794 
L 1344 794 
L 1344 0 
L 684 0 
L 684 794 
z
" transform="scale(0.015625)"/>
       </defs>
       <use xlink:href="#DejaVuSans-30"/>
       <use xlink:href="#DejaVuSans-2e" x="63.623047"/>
       <use xlink:href="#DejaVuSans-30" x="95.410156"/>
      </g>
     </g>
    </g>
    <g id="ytick_2">
     <g id="line2d_16">
      <g>
       <use xlink:href="#m6acc77db9d" x="57.330625" y="326.754087" style="stroke: #000000; stroke-width: 0.8"/>
      </g>
     </g>
     <g id="text_15">
      <!-- 0.5 -->
      <g transform="translate(34.4275 330.553306) scale(0.1 -0.1)">
       <use xlink:href="#DejaVuSans-30"/>
       <use xlink:href="#DejaVuSans-2e" x="63.623047"/>
       <use xlink:href="#DejaVuSans-35" x="95.410156"/>
      </g>
     </g>
    </g>
    <g id="ytick_3">
     <g id="line2d_17">
      <g>
       <use xlink:href="#m6acc77db9d" x="57.330625" y="241.144788" style="stroke: #000000; stroke-width: 0.8"/>
      </g>
     </g>
     <g id="text_16">
      <!-- 1.0 -->
      <g transform="translate(34.4275 244.944007) scale(0.1 -0.1)">
       <use xlink:href="#DejaVuSans-31"/>
       <use xlink:href="#DejaVuSans-2e" x="63.623047"/>
       <use xlink:href="#DejaVuSans-30" x="95.410156"/>
      </g>
     </g>
    </g>
    <g id="ytick_4">
     <g id="line2d_18">
      <g>
       <use xlink:href="#m6acc77db9d" x="57.330625" y="155.535489" style="stroke: #000000; stroke-width: 0.8"/>
      </g>
     </g>
     <g id="text_17">
      <!-- 1.5 -->
      <g transform="translate(34.4275 159.334708) scale(0.1 -0.1)">
       <use xlink:href="#DejaVuSans-31"/>
       <use xlink:href="#DejaVuSans-2e" x="63.623047"/>
       <use xlink:href="#DejaVuSans-35" x="95.410156"/>
      </g>
     </g>
    </g>
    <g id="ytick_5">
     <g id="line2d_19">
      <g>
       <use xlink:href="#m6acc77db9d" x="57.330625" y="69.926191" style="stroke: #000000; stroke-width: 0.8"/>
      </g>
     </g>
     <g id="text_18">
      <!-- 2.0 -->
      <g transform="translate(34.4275 73.725409) scale(0.1 -0.1)">
       <use xlink:href="#DejaVuSans-32"/>
       <use xlink:href="#DejaVuSans-2e" x="63.623047"/>
       <use xlink:href="#DejaVuSans-30" x="95.410156"/>
      </g>
     </g>
    </g>
    <g id="text_19">
     <!-- Load [kW] -->
     <g transform="translate(25.43625 285.832115) rotate(-90) scale(0.24 -0.24)">
      <defs>
       <path id="DejaVuSans-4c" d="M 628 4666 
L 1259 4666 
L 1259 531 
L 3531 531 
L 3531 0 
L 628 0 
L 628 4666 
z
" transform="scale(0.015625)"/>
       <path id="DejaVuSans-61" d="M 2194 1759 
Q 1497 1759 1228 1600 
Q 959 1441 959 1056 
Q 959 750 1161 570 
Q 1363 391 1709 391 
Q 2188 391 2477 730 
Q 2766 1069 2766 1631 
L 2766 1759 
L 2194 1759 
z
M 3341 1997 
L 3341 0 
L 2766 0 
L 2766 531 
Q 2569 213 2275 61 
Q 1981 -91 1556 -91 
Q 1019 -91 701 211 
Q 384 513 384 1019 
Q 384 1609 779 1909 
Q 1175 2209 1959 2209 
L 2766 2209 
L 2766 2266 
Q 2766 2663 2505 2880 
Q 2244 3097 1772 3097 
Q 1472 3097 1187 3025 
Q 903 2953 641 2809 
L 641 3341 
Q 956 3463 1253 3523 
Q 1550 3584 1831 3584 
Q 2591 3584 2966 3190 
Q 3341 2797 3341 1997 
z
" transform="scale(0.015625)"/>
       <path id="DejaVuSans-64" d="M 2906 2969 
L 2906 4863 
L 3481 4863 
L 3481 0 
L 2906 0 
L 2906 525 
Q 2725 213 2448 61 
Q 2172 -91 1784 -91 
Q 1150 -91 751 415 
Q 353 922 353 1747 
Q 353 2572 751 3078 
Q 1150 3584 1784 3584 
Q 2172 3584 2448 3432 
Q 2725 3281 2906 2969 
z
M 947 1747 
Q 947 1113 1208 752 
Q 1469 391 1925 391 
Q 2381 391 2643 752 
Q 2906 1113 2906 1747 
Q 2906 2381 2643 2742 
Q 2381 3103 1925 3103 
Q 1469 3103 1208 2742 
Q 947 2381 947 1747 
z
" transform="scale(0.015625)"/>
       <path id="DejaVuSans-6b" d="M 581 4863 
L 1159 4863 
L 1159 1991 
L 2875 3500 
L 3609 3500 
L 1753 1863 
L 3688 0 
L 2938 0 
L 1159 1709 
L 1159 0 
L 581 0 
L 581 4863 
z
" transform="scale(0.015625)"/>
       <path id="DejaVuSans-57" d="M 213 4666 
L 850 4666 
L 1831 722 
L 2809 4666 
L 3519 4666 
L 4500 722 
L 5478 4666 
L 6119 4666 
L 4947 0 
L 4153 0 
L 3169 4050 
L 2175 0 
L 1381 0 
L 213 4666 
z
" transform="scale(0.015625)"/>
      </defs>
      <use xlink:href="#DejaVuSans-4c"/>
      <use xlink:href="#DejaVuSans-6f" x="53.962891"/>
      <use xlink:href="#DejaVuSans-61" x="115.144531"/>
      <use xlink:href="#DejaVuSans-64" x="176.423828"/>
      <use xlink:href="#DejaVuSans-20" x="239.900391"/>
      <use xlink:href="#DejaVuSans-5b" x="271.6875"/>
      <use xlink:href="#DejaVuSans-6b" x="310.701172"/>
      <use xlink:href="#DejaVuSans-57" x="368.611328"/>
      <use xlink:href="#DejaVuSans-5d" x="467.488281"/>
     </g>
    </g>
   </g>
   <g id="line2d_20">
    <path d="M 57.330625 388.906438 
L 60.817822 388.392782 
L 64.305019 353.121751 
L 67.792217 361.340244 
L 71.279414 388.221564 
L 74.766611 377.434792 
L 78.253808 383.085006 
L 81.741006 339.595482 
L 85.228203 392.673247 
L 88.7154 350.724691 
L 92.202597 355.69003 
L 95.689795 342.677417 
L 99.176992 353.806625 
L 102.664189 348.498849 
L 106.151386 335.143798 
L 109.638583 337.540859 
L 113.125781 370.928485 
L 116.612978 367.161676 
L 120.100175 368.702643 
L 123.587372 369.045081 
L 127.07457 388.735219 
L 130.561767 381.544038 
L 134.048964 374.01042 
L 137.536161 379.660634 
L 141.023359 389.762531 
L 144.510556 357.059779 
L 147.997753 391.988373 
L 151.48495 384.112317 
L 154.972147 326.754087 
L 158.459345 331.890645 
L 161.946542 377.434792 
L 165.433739 378.975759 
L 168.920936 373.667983 
L 172.408134 340.451575 
L 175.895331 341.650105 
L 179.382528 356.88856 
L 182.869725 324.185808 
L 186.356923 169.917852 
L 189.84412 188.067023 
L 193.331317 342.334979 
L 196.818514 334.97258 
L 200.305712 352.094439 
L 203.792909 378.975759 
L 207.280106 368.873862 
L 210.767303 380.516727 
L 214.2545 375.893825 
L 217.741698 380.516727 
L 221.228895 385.824503 
L 224.716092 381.201601 
L 228.203289 369.045081 
L 231.690487 373.154327 
L 235.177684 390.447405 
L 238.664881 379.831852 
L 242.152078 392.159591 
L 245.639276 343.019854 
L 249.126473 382.913787 
L 252.61367 352.608095 
L 256.100867 280.353847 
L 259.588064 344.218384 
L 263.075262 303.297139 
L 266.562459 317.679501 
L 270.049656 303.125921 
L 273.536853 310.317102 
L 277.024051 313.570255 
L 280.511248 304.666888 
L 283.998445 317.337064 
L 287.485642 337.027203 
L 290.97284 367.332895 
L 294.460037 354.149063 
L 297.947234 351.923221 
L 301.434431 368.188988 
L 304.921628 379.660634 
L 308.408826 351.238346 
L 311.896023 357.915872 
L 315.38322 375.037732 
L 318.870417 389.93375 
L 322.357615 379.489415 
L 325.844812 388.906438 
L 329.332009 387.879126 
L 332.819206 310.830757 
L 336.306404 343.704728 
L 339.793601 328.466273 
L 343.280798 346.444226 
L 346.767995 356.203686 
L 350.255192 349.183723 
L 353.74239 317.165846 
L 357.229587 317.508283 
L 360.716784 333.77405 
L 364.203981 332.404301 
L 367.691179 338.054514 
L 371.178376 362.025118 
L 374.665573 379.318196 
L 378.15277 364.422178 
L 381.639968 388.392782 
L 385.127165 387.536689 
L 388.614362 385.139629 
L 392.101559 391.474717 
L 395.588756 374.524076 
L 399.075954 367.504113 
L 402.563151 372.81189 
L 406.050348 387.365471 
L 409.537545 377.60601 
L 413.024743 392.673247 
L 416.51194 390.961061 
L 419.999137 354.833937 
L 423.486334 335.999891 
L 426.973532 254.842276 
L 430.460729 335.999891 
L 433.947926 334.630143 
L 437.435123 334.116487 
L 440.922321 337.027203 
L 444.409518 327.952617 
L 447.896715 335.143798 
L 451.383912 331.376989 
L 454.871109 383.941099 
L 458.358307 322.987278 
L 461.845504 382.400131 
L 465.332701 376.749917 
L 468.819898 385.139629 
L 472.307096 384.797192 
L 475.794293 381.030382 
L 479.28149 364.593397 
L 482.768687 388.392782 
L 486.255885 375.037732 
L 489.743082 378.804541 
L 493.230279 363.566085 
L 496.717476 387.194252 
L 500.204673 395.755182 
L 503.691871 354.320281 
L 507.179068 336.855984 
L 510.666265 348.670068 
L 514.153462 371.784578 
L 517.64066 320.076562 
L 521.127857 276.587038 
L 524.615054 319.562906 
L 528.102251 323.500934 
L 531.589449 309.28979 
L 535.076646 345.588133 
L 538.563843 333.260394 
L 542.05104 376.40748 
L 545.538237 377.434792 
L 549.025435 384.454754 
L 552.512632 392.502028 
L 555.999829 388.564001 
L 562.974224 385.824503 
L 566.461421 396.782493 
L 569.948618 318.364376 
L 573.435815 275.388508 
L 576.923013 328.80871 
L 580.41021 316.823408 
L 583.897407 299.53033 
L 587.384604 327.781399 
L 590.871801 308.262478 
L 594.358999 369.216299 
L 597.846196 368.360206 
L 601.333393 346.444226 
L 604.82059 320.076562 
L 608.307788 326.925306 
L 611.794985 318.193157 
L 615.282182 334.458924 
L 618.769379 330.520896 
L 622.256577 355.69003 
L 625.743774 379.831852 
L 629.230971 364.593397 
L 632.718168 378.462103 
L 636.205365 384.625973 
L 639.692563 386.680596 
L 643.17976 395.583963 
L 646.666957 391.474717 
L 650.154154 389.248875 
L 653.641352 359.114402 
L 657.128549 352.094439 
L 660.615746 332.404301 
L 664.102943 357.744653 
L 667.590141 361.682681 
L 671.077338 341.136449 
L 674.564535 327.61018 
L 678.051732 330.692115 
L 681.538929 335.315017 
L 685.026127 320.418999 
L 688.513324 339.7667 
L 692.000521 327.781399 
L 695.487718 334.287705 
L 698.974916 338.396952 
L 702.462113 338.739389 
L 705.94931 357.230997 
L 709.436507 359.285621 
L 712.923705 386.338159 
L 716.410902 375.20895 
L 719.898099 372.81189 
L 723.385296 377.434792 
L 726.872494 396.268838 
L 730.359691 372.469453 
L 733.846888 376.065043 
L 737.334085 401.062958 
L 740.821282 388.392782 
L 744.30848 376.749917 
L 747.795677 383.256224 
L 751.282874 349.354942 
L 754.770071 324.699464 
L 758.257269 338.739389 
L 761.744466 330.520896 
L 765.231663 364.764616 
L 768.71886 340.451575 
L 772.206058 287.716247 
L 775.693255 315.796097 
L 779.180452 321.103873 
L 782.667649 322.987278 
L 786.154846 341.136449 
L 789.642044 364.935834 
L 793.129241 375.551387 
L 796.616438 377.60601 
L 800.103635 387.707908 
L 803.590833 388.906438 
L 807.07803 383.76988 
L 810.565227 377.777229 
L 814.052424 350.039816 
L 817.539622 366.134364 
L 821.026819 389.077657 
L 824.514016 397.638586 
L 828.001213 395.583963 
L 831.48841 383.76988 
L 834.975608 385.310847 
L 838.462805 380.687945 
L 841.950002 389.93375 
L 845.437199 385.310847 
L 848.924397 375.20895 
L 852.411594 341.478886 
L 855.898791 328.123836 
L 859.385988 332.404301 
L 862.873186 342.163761 
L 866.360383 316.309753 
L 869.84758 327.61018 
L 873.334777 374.524076 
L 876.821974 387.365471 
L 880.309172 382.400131 
L 883.796369 391.303498 
L 887.283566 386.338159 
L 890.770763 398.152242 
L 894.257961 381.37282 
L 897.745158 395.583963 
L 901.232355 393.871777 
L 904.719552 354.833937 
L 908.20675 369.901174 
L 911.693947 388.221564 
L 915.181144 383.76988 
L 918.668341 389.248875 
L 922.155538 372.298234 
L 925.642736 363.394867 
L 932.61713 375.893825 
L 936.104327 350.724691 
L 939.591525 331.376989 
L 943.078722 325.21312 
L 946.565919 329.151147 
L 950.053116 332.917957 
L 953.540314 343.191072 
L 957.027511 378.290885 
L 960.514708 384.454754 
L 964.001905 388.392782 
L 967.489103 383.598661 
L 970.9763 389.248875 
L 974.463497 384.96841 
L 977.950694 383.598661 
L 981.437891 344.047165 
L 984.925089 344.047165 
L 988.412286 346.444226 
L 991.899483 347.471537 
L 995.38668 396.097619 
L 998.873878 380.687945 
L 1002.361075 391.645935 
L 1005.848272 399.350772 
L 1009.335469 374.181639 
L 1012.822667 383.941099 
L 1016.309864 373.839201 
L 1019.797061 346.615444 
L 1026.771455 315.111222 
L 1030.258653 322.302403 
L 1033.74585 331.719426 
L 1037.233047 324.357027 
L 1040.720244 380.345508 
L 1044.207442 389.591312 
L 1047.694639 392.33081 
L 1051.181836 386.16694 
L 1054.669033 398.837117 
L 1058.156231 381.886475 
L 1061.643428 356.88856 
L 1065.130625 353.977844 
L 1065.130625 353.977844 
" clip-path="url(#p17ac5290f1)" style="fill: none; stroke: #a0a7bc; stroke-width: 2; stroke-linecap: square"/>
   </g>
   <g id="line2d_21">
    <path d="M 57.330625 383.941099 
L 60.817822 388.221564 
L 64.305019 390.104968 
L 67.792217 393.52934 
L 71.279414 388.392782 
L 74.766611 390.618624 
L 78.253808 292.510368 
L 81.741006 308.604916 
L 85.228203 260.834927 
L 88.7154 337.712077 
L 92.202597 333.089175 
L 95.689795 78.144683 
L 99.176992 185.156307 
L 102.664189 137.899974 
L 106.151386 245.938909 
L 109.638583 230.358017 
L 113.125781 345.416914 
L 116.612978 213.236157 
L 120.100175 304.666888 
L 123.587372 301.92739 
L 127.07457 347.642756 
L 130.561767 382.57135 
L 134.048964 389.077657 
L 137.536161 390.618624 
L 141.023359 391.988373 
L 144.510556 393.871777 
L 147.997753 388.221564 
L 151.48495 362.709993 
L 154.972147 390.789842 
L 158.459345 291.140619 
L 161.946542 376.749917 
L 165.433739 370.586048 
L 168.920936 149.885276 
L 172.408134 248.164751 
L 175.895331 363.394867 
L 179.382528 331.719426 
L 182.869725 334.97258 
L 186.356923 329.322366 
L 189.84412 226.933645 
L 193.331317 252.445216 
L 196.818514 246.966221 
L 200.305712 326.754087 
L 203.792909 252.787653 
L 207.280106 230.358017 
L 210.767303 394.214214 
L 214.2545 391.474717 
L 217.741698 392.159591 
L 221.228895 390.618624 
L 224.716092 384.283536 
L 228.203289 389.248875 
L 231.690487 389.077657 
L 235.177684 320.761436 
L 238.664881 280.867503 
L 242.152078 364.935834 
L 245.639276 368.873862 
L 249.126473 366.134364 
L 252.61367 325.726775 
L 256.100867 355.861249 
L 259.588064 362.196337 
L 263.075262 369.729955 
L 266.562459 369.216299 
L 270.049656 255.355932 
L 273.536853 151.939899 
L 277.024051 240.802351 
L 280.511248 271.621699 
L 283.998445 301.242516 
L 287.485642 303.125921 
L 290.97284 225.563896 
L 294.460037 387.194252 
L 297.947234 387.707908 
L 301.434431 389.077657 
L 304.921628 381.886475 
L 308.408826 390.447405 
L 311.896023 393.015684 
L 315.38322 395.070307 
L 318.870417 357.915872 
L 322.357615 384.283536 
L 325.844812 391.988373 
L 329.332009 357.915872 
L 332.819206 367.332895 
L 336.306404 360.141714 
L 339.793601 368.017769 
L 343.280798 362.196337 
L 346.767995 353.29297 
L 350.255192 352.608095 
L 353.74239 272.477792 
L 357.229587 173.513442 
L 360.716784 318.878032 
L 364.203981 346.444226 
L 367.691179 343.704728 
L 371.178376 333.089175 
L 374.665573 336.684766 
L 378.15277 363.223648 
L 381.639968 395.070307 
L 385.127165 389.762531 
L 388.614362 376.921136 
L 392.101559 383.256224 
L 395.588756 388.564001 
L 399.075954 388.564001 
L 402.563151 355.518811 
L 406.050348 390.104968 
L 409.537545 386.509378 
L 413.024743 328.637492 
L 416.51194 377.092355 
L 419.999137 361.340244 
L 423.486334 370.414829 
L 426.973532 351.409565 
L 430.460729 354.149063 
L 433.947926 351.238346 
L 437.435123 319.562906 
L 440.922321 212.89372 
L 444.409518 309.118571 
L 447.896715 296.448395 
L 451.383912 340.622793 
L 454.871109 240.631132 
L 458.358307 352.779314 
L 461.845504 366.990457 
L 465.332701 388.735219 
L 468.819898 390.276187 
L 472.307096 390.961061 
L 475.794293 387.194252 
L 479.28149 395.583963 
L 482.768687 392.673247 
L 486.255885 375.20895 
L 489.743082 389.591312 
L 493.230279 378.119666 
L 496.717476 345.759351 
L 500.204673 374.01042 
L 503.691871 380.003071 
L 507.179068 382.57135 
L 510.666265 382.057694 
L 514.153462 384.797192 
L 517.64066 363.566085 
L 521.127857 313.227818 
L 524.615054 299.872767 
L 528.102251 323.672152 
L 531.589449 290.113307 
L 535.076646 326.41165 
L 538.563843 329.493585 
L 542.05104 300.386423 
L 545.538237 385.482066 
L 549.025435 393.358121 
L 552.512632 391.13228 
L 555.999829 388.221564 
L 559.487026 390.104968 
L 562.974224 385.653285 
L 566.461421 395.070307 
L 569.948618 394.385433 
L 573.435815 376.236262 
L 576.923013 371.270922 
L 580.41021 360.484151 
L 583.897407 333.089175 
L 587.384604 310.830757 
L 590.871801 217.516622 
L 594.358999 136.187788 
L 597.846196 247.308658 
L 601.333393 287.202591 
L 604.82059 259.978834 
L 608.307788 169.061759 
L 611.794985 318.364376 
L 615.282182 308.09126 
L 618.769379 310.659539 
L 622.256577 338.396952 
L 625.743774 310.830757 
L 629.230971 386.680596 
L 632.718168 389.93375 
L 636.205365 389.077657 
L 639.692563 390.447405 
L 643.17976 379.318196 
L 646.666957 384.283536 
L 650.154154 384.454754 
L 653.641352 385.824503 
L 657.128549 354.4915 
L 660.615746 359.285621 
L 664.102943 356.032467 
L 667.590141 363.908523 
L 671.077338 334.458924 
L 674.564535 335.486235 
L 678.051732 349.697379 
L 681.538929 341.478886 
L 685.026127 346.786663 
L 688.513324 329.836022 
L 692.000521 120.264458 
L 695.487718 294.051335 
L 698.974916 326.754087 
L 702.462113 345.588133 
L 705.94931 269.567075 
L 709.436507 343.019854 
L 712.923705 387.879126 
L 716.410902 387.365471 
L 719.898099 383.941099 
L 723.385296 390.961061 
L 726.872494 389.762531 
L 730.359691 389.591312 
L 733.846888 387.879126 
L 737.334085 327.267743 
L 740.821282 363.223648 
L 744.30848 331.719426 
L 747.795677 363.394867 
L 751.282874 367.161676 
L 754.770071 364.935834 
L 758.257269 364.422178 
L 761.744466 366.134364 
L 765.231663 360.997807 
L 768.71886 320.761436 
L 772.206058 281.894814 
L 775.693255 206.044976 
L 779.180452 327.952617 
L 782.667649 275.388508 
L 786.154846 327.096524 
L 789.642044 268.026108 
L 793.129241 296.619614 
L 796.616438 387.536689 
L 800.103635 385.482066 
L 803.590833 391.474717 
L 807.07803 392.159591 
L 810.565227 389.420094 
L 814.052424 387.879126 
L 817.539622 381.201601 
L 821.026819 325.897994 
L 824.514016 382.742568 
L 828.001213 378.975759 
L 831.48841 390.276187 
L 834.975608 391.13228 
L 838.462805 385.139629 
L 841.950002 387.365471 
L 845.437199 389.420094 
L 848.924397 371.270922 
L 852.411594 372.81189 
L 855.898791 252.102778 
L 859.385988 154.336959 
L 862.873186 263.060769 
L 866.360383 338.56817 
L 869.84758 364.764616 
L 873.334777 299.872767 
L 876.821974 214.777124 
L 880.309172 384.454754 
L 883.796369 390.618624 
L 887.283566 389.93375 
L 890.770763 394.556652 
L 894.257961 393.871777 
L 897.745158 385.653285 
L 901.232355 389.420094 
L 904.719552 266.998796 
L 908.20675 377.092355 
L 911.693947 384.625973 
L 915.181144 384.112317 
L 918.668341 395.070307 
L 922.155538 392.33081 
L 925.642736 387.194252 
L 929.129933 386.16694 
L 932.61713 376.749917 
L 936.104327 339.595482 
L 939.591525 49.037522 
L 943.078722 106.909408 
L 946.565919 210.325441 
L 950.053116 248.507188 
L 953.540314 266.485141 
L 957.027511 257.924211 
L 960.514708 236.521886 
L 964.001905 327.952617 
L 967.489103 332.061864 
L 970.9763 341.478886 
L 974.463497 344.73204 
L 977.950694 342.848635 
L 981.437891 350.895909 
L 984.925089 345.074477 
L 988.412286 242.685756 
L 991.899483 302.269828 
L 995.38668 313.741474 
L 998.873878 330.863333 
L 1002.361075 338.396952 
L 1005.848272 339.424263 
L 1009.335469 341.821324 
L 1012.822667 349.697379 
L 1016.309864 253.13009 
L 1019.797061 290.9694 
L 1023.284258 189.950428 
L 1026.771455 109.991343 
L 1030.258653 246.795002 
L 1033.74585 233.61117 
L 1037.233047 270.080731 
L 1040.720244 298.845456 
L 1044.207442 381.715257 
L 1047.694639 391.303498 
L 1051.181836 392.673247 
L 1054.669033 390.789842 
L 1058.156231 382.057694 
L 1061.643428 388.906438 
L 1065.130625 378.633322 
L 1065.130625 378.633322 
" clip-path="url(#p17ac5290f1)" style="fill: none; stroke: #13748b; stroke-width: 2; stroke-linecap: square"/>
   </g>
   <g id="patch_3">
    <path d="M 57.330625 418.66423 
L 57.330625 31.43625 
" style="fill: none; stroke: #000000; stroke-width: 0.8; stroke-linejoin: miter; stroke-linecap: square"/>
   </g>
   <g id="patch_4">
    <path d="M 1065.130625 418.66423 
L 1065.130625 31.43625 
" style="fill: none; stroke: #000000; stroke-width: 0.8; stroke-linejoin: miter; stroke-linecap: square"/>
   </g>
   <g id="patch_5">
    <path d="M 57.330625 418.66423 
L 1065.130625 418.66423 
" style="fill: none; stroke: #000000; stroke-width: 0.8; stroke-linejoin: miter; stroke-linecap: square"/>
   </g>
   <g id="patch_6">
    <path d="M 57.330625 31.43625 
L 1065.130625 31.43625 
" style="fill: none; stroke: #000000; stroke-width: 0.8; stroke-linejoin: miter; stroke-linecap: square"/>
   </g>
   <g id="text_20">
    <!-- Load profile [kW] -->
    <g transform="translate(458.735625 25.43625) scale(0.24 -0.24)">
     <defs>
      <path id="DejaVuSans-70" d="M 1159 525 
L 1159 -1331 
L 581 -1331 
L 581 3500 
L 1159 3500 
L 1159 2969 
Q 1341 3281 1617 3432 
Q 1894 3584 2278 3584 
Q 2916 3584 3314 3078 
Q 3713 2572 3713 1747 
Q 3713 922 3314 415 
Q 2916 -91 2278 -91 
Q 1894 -91 1617 61 
Q 1341 213 1159 525 
z
M 3116 1747 
Q 3116 2381 2855 2742 
Q 2594 3103 2138 3103 
Q 1681 3103 1420 2742 
Q 1159 2381 1159 1747 
Q 1159 1113 1420 752 
Q 1681 391 2138 391 
Q 2594 391 2855 752 
Q 3116 1113 3116 1747 
z
" transform="scale(0.015625)"/>
      <path id="DejaVuSans-66" d="M 2375 4863 
L 2375 4384 
L 1825 4384 
Q 1516 4384 1395 4259 
Q 1275 4134 1275 3809 
L 1275 3500 
L 2222 3500 
L 2222 3053 
L 1275 3053 
L 1275 0 
L 697 0 
L 697 3053 
L 147 3053 
L 147 3500 
L 697 3500 
L 697 3744 
Q 697 4328 969 4595 
Q 1241 4863 1831 4863 
L 2375 4863 
z
" transform="scale(0.015625)"/>
     </defs>
     <use xlink:href="#DejaVuSans-4c"/>
     <use xlink:href="#DejaVuSans-6f" x="53.962891"/>
     <use xlink:href="#DejaVuSans-61" x="115.144531"/>
     <use xlink:href="#DejaVuSans-64" x="176.423828"/>
     <use xlink:href="#DejaVuSans-20" x="239.900391"/>
     <use xlink:href="#DejaVuSans-70" x="271.6875"/>
     <use xlink:href="#DejaVuSans-72" x="335.164062"/>
     <use xlink:href="#DejaVuSans-6f" x="374.027344"/>
     <use xlink:href="#DejaVuSans-66" x="435.208984"/>
     <use xlink:href="#DejaVuSans-69" x="470.414062"/>
     <use xlink:href="#DejaVuSans-6c" x="498.197266"/>
     <use xlink:href="#DejaVuSans-65" x="525.980469"/>
     <use xlink:href="#DejaVuSans-20" x="587.503906"/>
     <use xlink:href="#DejaVuSans-5b" x="619.291016"/>
     <use xlink:href="#DejaVuSans-6b" x="658.304688"/>
     <use xlink:href="#DejaVuSans-57" x="716.214844"/>
     <use xlink:href="#DejaVuSans-5d" x="815.091797"/>
    </g>
   </g>
   <g id="legend_1">
    <g id="patch_7">
     <path d="M 75.530625 128.5625 
L 348.648437 128.5625 
Q 353.848437 128.5625 353.848437 123.3625 
L 353.848437 49.63625 
Q 353.848437 44.43625 348.648437 44.43625 
L 75.530625 44.43625 
Q 70.330625 44.43625 70.330625 49.63625 
L 70.330625 123.3625 
Q 70.330625 128.5625 75.530625 128.5625 
z
" style="fill: #ffffff; opacity: 0.8; stroke: #cccccc; stroke-linejoin: miter"/>
    </g>
    <g id="line2d_22">
     <path d="M 80.730625 65.492187 
L 106.730625 65.492187 
L 132.730625 65.492187 
" style="fill: none; stroke: #a0a7bc; stroke-width: 2; stroke-linecap: square"/>
    </g>
    <g id="text_21">
     <!-- Smart meter 1 -->
     <g transform="translate(153.530625 74.592187) scale(0.26 -0.26)">
      <defs>
       <path id="DejaVuSans-53" d="M 3425 4513 
L 3425 3897 
Q 3066 4069 2747 4153 
Q 2428 4238 2131 4238 
Q 1616 4238 1336 4038 
Q 1056 3838 1056 3469 
Q 1056 3159 1242 3001 
Q 1428 2844 1947 2747 
L 2328 2669 
Q 3034 2534 3370 2195 
Q 3706 1856 3706 1288 
Q 3706 609 3251 259 
Q 2797 -91 1919 -91 
Q 1588 -91 1214 -16 
Q 841 59 441 206 
L 441 856 
Q 825 641 1194 531 
Q 1563 422 1919 422 
Q 2459 422 2753 634 
Q 3047 847 3047 1241 
Q 3047 1584 2836 1778 
Q 2625 1972 2144 2069 
L 1759 2144 
Q 1053 2284 737 2584 
Q 422 2884 422 3419 
Q 422 4038 858 4394 
Q 1294 4750 2059 4750 
Q 2388 4750 2728 4690 
Q 3069 4631 3425 4513 
z
" transform="scale(0.015625)"/>
       <path id="DejaVuSans-74" d="M 1172 4494 
L 1172 3500 
L 2356 3500 
L 2356 3053 
L 1172 3053 
L 1172 1153 
Q 1172 725 1289 603 
Q 1406 481 1766 481 
L 2356 481 
L 2356 0 
L 1766 0 
Q 1100 0 847 248 
Q 594 497 594 1153 
L 594 3053 
L 172 3053 
L 172 3500 
L 594 3500 
L 594 4494 
L 1172 4494 
z
" transform="scale(0.015625)"/>
      </defs>
      <use xlink:href="#DejaVuSans-53"/>
      <use xlink:href="#DejaVuSans-6d" x="63.476562"/>
      <use xlink:href="#DejaVuSans-61" x="160.888672"/>
      <use xlink:href="#DejaVuSans-72" x="222.167969"/>
      <use xlink:href="#DejaVuSans-74" x="263.28125"/>
      <use xlink:href="#DejaVuSans-20" x="302.490234"/>
      <use xlink:href="#DejaVuSans-6d" x="334.277344"/>
      <use xlink:href="#DejaVuSans-65" x="431.689453"/>
      <use xlink:href="#DejaVuSans-74" x="493.212891"/>
      <use xlink:href="#DejaVuSans-65" x="532.421875"/>
      <use xlink:href="#DejaVuSans-72" x="593.945312"/>
      <use xlink:href="#DejaVuSans-20" x="635.058594"/>
      <use xlink:href="#DejaVuSans-31" x="666.845703"/>
     </g>
    </g>
    <g id="line2d_23">
     <path d="M 80.730625 103.655312 
L 106.730625 103.655312 
L 132.730625 103.655312 
" style="fill: none; stroke: #13748b; stroke-width: 2; stroke-linecap: square"/>
    </g>
    <g id="text_22">
     <!-- Smart meter 2 -->
     <g transform="translate(153.530625 112.755312) scale(0.26 -0.26)">
      <use xlink:href="#DejaVuSans-53"/>
      <use xlink:href="#DejaVuSans-6d" x="63.476562"/>
      <use xlink:href="#DejaVuSans-61" x="160.888672"/>
      <use xlink:href="#DejaVuSans-72" x="222.167969"/>
      <use xlink:href="#DejaVuSans-74" x="263.28125"/>
      <use xlink:href="#DejaVuSans-20" x="302.490234"/>
      <use xlink:href="#DejaVuSans-6d" x="334.277344"/>
      <use xlink:href="#DejaVuSans-65" x="431.689453"/>
      <use xlink:href="#DejaVuSans-74" x="493.212891"/>
      <use xlink:href="#DejaVuSans-65" x="532.421875"/>
      <use xlink:href="#DejaVuSans-72" x="593.945312"/>
      <use xlink:href="#DejaVuSans-20" x="635.058594"/>
      <use xlink:href="#DejaVuSans-32" x="666.845703"/>
     </g>
    </g>
   </g>
  </g>
 </g>
 <defs>
  <clipPath id="p17ac5290f1">
   <rect x="57.330625" y="31.43625" width="1007.8" height="387.22798"/>
  </clipPath>
 </defs>
</svg>
