<svg width="2081" height="1357" xmlns="http://www.w3.org/2000/svg" xmlns:xlink="http://www.w3.org/1999/xlink" xml:space="preserve" overflow="hidden"><g transform="translate(-145 -530)"><rect x="725.5" y="1634.5" width="88.9997" height="102" stroke="#000000" stroke-width="6.875" stroke-miterlimit="8" fill="none"/><rect x="814.5" y="1634.5" width="90.0001" height="102" stroke="#000000" stroke-width="6.875" stroke-miterlimit="8" fill="none"/><rect x="904.5" y="1634.5" width="89" height="102" stroke="#000000" stroke-width="6.875" stroke-miterlimit="8" fill="none"/><rect x="993.5" y="1634.5" width="90.0001" height="102" stroke="#000000" stroke-width="6.875" stroke-miterlimit="8" fill="none"/><rect x="1083.5" y="1634.5" width="90.0001" height="102" stroke="#000000" stroke-width="6.875" stroke-miterlimit="8" fill="none"/><rect x="1173.5" y="1634.5" width="89" height="102" stroke="#000000" stroke-width="6.875" stroke-miterlimit="8" fill="none"/><rect x="1262.5" y="1634.5" width="90.0001" height="102" stroke="#000000" stroke-width="6.875" stroke-miterlimit="8" fill="none"/><rect x="1352.5" y="1634.5" width="89.9998" height="102" stroke="#000000" stroke-width="6.875" stroke-miterlimit="8" fill="none"/><text font-family="Cambria,Cambria_MSFontService,sans-serif" font-weight="400" font-size="73" transform="matrix(1 0 0 1 843.847 1826)">Input sequence</text><path d="M725.5 554.667C725.5 542.425 735.425 532.5 747.667 532.5L1420.33 532.5C1432.58 532.5 1442.5 542.425 1442.5 554.667L1442.5 643.333C1442.5 655.575 1432.58 665.5 1420.33 665.5L747.667 665.5C735.425 665.5 725.5 655.575 725.5 643.333Z" stroke="#13748B" stroke-width="4.58333" stroke-miterlimit="8" fill="#13748B" fill-rule="evenodd" fill-opacity="0.8"/><text font-family="Cambria,Cambria_MSFontService,sans-serif" font-weight="400" font-size="73" transform="matrix(1 0 0 1 994.078 626)">LSTM</text><path d="M147.5 1217.83C147.5 1199.42 162.424 1184.5 180.834 1184.5L500.166 1184.5C518.576 1184.5 533.5 1199.42 533.5 1217.83L533.5 1351.17C533.5 1369.58 518.576 1384.5 500.166 1384.5L180.834 1384.5C162.424 1384.5 147.5 1369.58 147.5 1351.17Z" stroke="#FFC000" stroke-width="4.58333" stroke-miterlimit="8" fill="#FFE9BB" fill-rule="evenodd"/><text font-family="Cambria,Cambria_MSFontService,sans-serif" font-weight="400" font-size="73" transform="matrix(1 0 0 1 206.967 1311)">Expert 1</text><path d="M576.5 1215.83C576.5 1197.42 591.424 1182.5 609.834 1182.5L929.166 1182.5C947.576 1182.5 962.5 1197.42 962.5 1215.83L962.5 1349.17C962.5 1367.58 947.576 1382.5 929.166 1382.5L609.834 1382.5C591.424 1382.5 576.5 1367.58 576.5 1349.17Z" stroke="#FFC000" stroke-width="4.58333" stroke-miterlimit="8" fill="#FFE9BB" fill-rule="evenodd"/><text font-family="Cambria,Cambria_MSFontService,sans-serif" font-weight="400" font-size="73" transform="matrix(1 0 0 1 635.951 1309)">Expert 2</text><path d="M1301.5 1213.83C1301.5 1195.42 1316.42 1180.5 1334.83 1180.5L1653.17 1180.5C1671.58 1180.5 1686.5 1195.42 1686.5 1213.83L1686.5 1347.17C1686.5 1365.58 1671.58 1380.5 1653.17 1380.5L1334.83 1380.5C1316.42 1380.5 1301.5 1365.58 1301.5 1347.17Z" stroke="#FFC000" stroke-width="4.58333" stroke-miterlimit="8" fill="#FFE9BB" fill-rule="evenodd"/><text font-family="Cambria,Cambria_MSFontService,sans-serif" font-weight="400" font-size="73" transform="matrix(1 0 0 1 1360.34 1307)">Expert n</text><path d="M1754.5 1217.17C1754.5 1199.13 1769.13 1184.5 1787.17 1184.5L2190.83 1184.5C2208.87 1184.5 2223.5 1199.13 2223.5 1217.17L2223.5 1347.83C2223.5 1365.87 2208.87 1380.5 2190.83 1380.5L1787.17 1380.5C1769.13 1380.5 1754.5 1365.87 1754.5 1347.83Z" stroke="#B03A3A" stroke-width="4.58333" stroke-miterlimit="8" fill="#B03A3A" fill-rule="evenodd" fill-opacity="0.8"/><text font-family="Cambria,Cambria_MSFontService,sans-serif" font-weight="400" font-size="73" transform="matrix(1 0 0 1 1887.33 1265)">Gating</text><text font-family="Cambria,Cambria_MSFontService,sans-serif" font-weight="400" font-size="73" transform="matrix(1 0 0 1 1873.7 1353)">(Top 2)</text><path d="M1044.5 786C1044.5 763.633 1061.51 745.5 1082.5 745.5 1103.49 745.5 1120.5 763.633 1120.5 786 1120.5 808.367 1103.49 826.5 1082.5 826.5 1061.51 826.5 1044.5 808.367 1044.5 786Z" stroke="#000000" stroke-width="4.58333" stroke-miterlimit="8" fill="none" fill-rule="evenodd"/><text font-family="Cambria,Cambria_MSFontService,sans-serif" font-weight="400" font-size="55" transform="matrix(1 0 0 1 1062.25 805)">∑</text><path d="M0-3.4375 274.929-3.4375 274.929 1111.17 268.054 1111.17 268.054 0 271.491 3.4375 0 3.4375ZM285.241 1106.58 271.491 1134.08 257.741 1106.58Z" transform="matrix(-1.83697e-16 -1 -1 1.83697e-16 1989.58 1184.99)"/><path d="M3.43703-0.0566958 4.36621 56.2724-2.50785 56.3857-3.43703 0.0566958ZM14.6017 51.5195 1.30715 79.2426-12.8945 51.9731Z" transform="matrix(1 0 0 -1 1082.5 744.743)"/><text font-family="Cambria,Cambria_MSFontService,sans-serif" font-weight="700" font-size="128" transform="matrix(1 0 0 1 1062.69 1294)">…</text><path d="M1.58101-3.05235 696.135 356.702 692.973 362.807-1.58101 3.05235ZM696.808 345.437 714.903 370.294 684.16 369.856Z" transform="matrix(1 0 0 -1 340.5 1184.79)"/><path d="M2.58272-2.26847 300.325 336.72 295.159 341.256-2.58272 2.26847ZM305.049 326.471 312.866 356.207 284.387 344.619Z" transform="matrix(1 0 0 -1 769.5 1182.71)"/><path d="M0-3.4375 173.896-3.4375 173.896 1062.05 167.021 1062.05 167.021 0 170.458 3.4375 0 3.4375ZM184.208 1057.47 170.458 1084.97 156.708 1057.47Z" transform="matrix(-1.83697e-16 -1 -1 1.83697e-16 1989.47 1184.96)"/><text font-family="Cambria,Cambria_MSFontService,sans-serif" font-weight="400" font-size="83" transform="matrix(1 0 0 1 394.288 1471)">x</text><path d="M1074.22 1626.17 361.238 1394.84 363.359 1388.3 1076.35 1619.63ZM362.415 1406.07 340.5 1384.5 370.901 1379.91Z"/><path d="M1077.47 1625.82 785.498 1399.26 789.713 1393.83 1081.69 1620.39ZM782.798 1410.22 769.5 1382.5 799.656 1388.5Z"/><path d="M1.70946-2.98231 390.976 220.145 387.557 226.11-1.70946 2.98231ZM392.129 208.92 409.15 234.524 378.454 232.778Z" transform="matrix(1 0 0 -1 1084.5 1615.02)"/><path d="M0.883091-3.32213 892.817 233.772 891.051 240.416-0.883091 3.32213ZM891.037 222.628 914.081 242.982 883.972 249.205Z" transform="matrix(1 0 0 -1 1075.5 1623.48)"/><text font-family="Cambria,Cambria_MSFontService,sans-serif" font-weight="400" font-size="83" transform="matrix(1 0 0 1 797.107 1474)">x</text><text font-family="Cambria,Cambria_MSFontService,sans-serif" font-weight="400" font-size="83" transform="matrix(1 0 0 1 1230.69 1467)">x</text><text font-family="Cambria,Cambria_MSFontService,sans-serif" font-weight="400" font-size="83" transform="matrix(1 0 0 1 1696 1438)">x</text><text font-family="Cambria,Cambria_MSFontService,sans-serif" font-weight="400" font-size="83" transform="matrix(1 0 0 1 1354.55 886)">p</text><text font-family="Cambria,Cambria_MSFontService,sans-serif" font-weight="400" font-size="55" transform="matrix(1 0 0 1 1400.38 906)">1</text><text font-family="Cambria,Cambria_MSFontService,sans-serif" font-weight="400" font-size="83" transform="matrix(1 0 0 1 1469.01 994)">p</text><text font-family="Cambria,Cambria_MSFontService,sans-serif" font-weight="400" font-size="55" transform="matrix(1 0 0 1 1514.85 1014)">2</text><text fill="#040C28" font-family="Calibri,Calibri_MSFontService,sans-serif" font-weight="400" font-size="83" transform="matrix(1 0 0 1 257.332 1149)">µ</text><text font-family="Cambria,Cambria_MSFontService,sans-serif" font-weight="400" font-size="55" transform="matrix(1 0 0 1 302.593 1169)">1</text><text fill="#040C28" font-family="Calibri,Calibri_MSFontService,sans-serif" font-weight="400" font-size="83" transform="matrix(1 0 0 1 661.393 1154)">µ</text><text fill="#040C28" font-family="Cambria,Cambria_MSFontService,sans-serif" font-weight="400" font-size="55" transform="matrix(1 0 0 1 706.654 1174)">2</text><path d="M821.5 918C821.5 895.633 838.513 877.5 859.5 877.5 880.487 877.5 897.5 895.633 897.5 918 897.5 940.367 880.487 958.5 859.5 958.5 838.513 958.5 821.5 940.367 821.5 918Z" stroke="#000000" stroke-width="4.58333" stroke-miterlimit="8" fill="none" fill-rule="evenodd"/><path d="M878.5 1017C878.5 994.633 895.513 976.5 916.5 976.5 937.487 976.5 954.5 994.633 954.5 1017 954.5 1039.37 937.487 1057.5 916.5 1057.5 895.513 1057.5 878.5 1039.37 878.5 1017Z" stroke="#000000" stroke-width="4.58333" stroke-miterlimit="8" fill="none" fill-rule="evenodd"/><path d="M1491.78 1183.11 1097.63 844.051 1102.12 838.839 1496.26 1177.9ZM1094.38 854.858 1082.5 826.5 1112.31 834.01Z"/><path d="M0-3.4375 72.2867-3.4375 72.2867 547.545 65.4117 547.545 65.4117 0 68.8492 3.4375 0 3.4375ZM82.5992 542.962 68.8492 570.462 55.0992 542.962Z" transform="matrix(-1.83697e-16 -1 -1 1.83697e-16 1988.96 1184.35)"/><text font-family="Cambria,Cambria_MSFontService,sans-serif" font-weight="400" font-size="83" transform="matrix(1 0 0 1 1557.38 1094)">p</text><text font-family="Cambria,Cambria_MSFontService,sans-serif" font-weight="400" font-size="55" transform="matrix(1 0 0 1 1603.21 1114)">n</text><text fill="#040C28" font-family="Calibri,Calibri_MSFontService,sans-serif" font-weight="400" font-size="83" transform="matrix(1 0 0 1 1289.07 1142)">µ</text><text fill="#040C28" font-family="Cambria,Cambria_MSFontService,sans-serif" font-weight="400" font-size="55" transform="matrix(1 0 0 1 1334.33 1162)">n</text><path d="M1389.5 1123C1389.5 1100.63 1406.51 1082.5 1427.5 1082.5 1448.49 1082.5 1465.5 1100.63 1465.5 1123 1465.5 1145.37 1448.49 1163.5 1427.5 1163.5 1406.51 1163.5 1389.5 1145.37 1389.5 1123Z" stroke="#000000" stroke-width="4.58333" stroke-miterlimit="8" fill="none" fill-rule="evenodd"/></g></svg>