<?xml version="1.0" encoding="utf-8" standalone="no"?>
<!DOCTYPE svg PUBLIC "-//W3C//DTD SVG 1.1//EN"
  "http://www.w3.org/Graphics/SVG/1.1/DTD/svg11.dtd">
<svg xmlns:xlink="http://www.w3.org/1999/xlink" width="1072.249687pt" height="494.981304pt" viewBox="0 0 1072.249687 494.981304" xmlns="http://www.w3.org/2000/svg" version="1.1">
 <metadata>
  <rdf:RDF xmlns:dc="http://purl.org/dc/elements/1.1/" xmlns:cc="http://creativecommons.org/ns#" xmlns:rdf="http://www.w3.org/1999/02/22-rdf-syntax-ns#">
   <cc:Work>
    <dc:type rdf:resource="http://purl.org/dc/dcmitype/StillImage"/>
    <dc:date>2024-01-24T17:25:22.748685</dc:date>
    <dc:format>image/svg+xml</dc:format>
    <dc:creator>
     <cc:Agent>
      <dc:title>Matplotlib v3.8.2, https://matplotlib.org/</dc:title>
     </cc:Agent>
    </dc:creator>
   </cc:Work>
  </rdf:RDF>
 </metadata>
 <defs>
  <style type="text/css">*{stroke-linejoin: round; stroke-linecap: butt}</style>
 </defs>
 <g id="figure_1">
  <g id="patch_1">
   <path d="M 0 494.981304 
L 1072.249687 494.981304 
L 1072.249687 0 
L 0 0 
z
" style="fill: #ffffff"/>
  </g>
  <g id="axes_1">
   <g id="patch_2">
    <path d="M 56.169688 419.14798 
L 1065.049688 419.14798 
L 1065.049688 7.2 
L 56.169688 7.2 
z
" style="fill: #ffffff"/>
   </g>
   <g id="matplotlib.axis_1">
    <g id="xtick_1">
     <g id="line2d_1">
      <defs>
       <path id="md821ca6695" d="M 0 0 
L 0 3.5 
" style="stroke: #000000; stroke-width: 0.8"/>
      </defs>
      <g>
       <use xlink:href="#md821ca6695" x="56.169687" y="419.14798" style="stroke: #000000; stroke-width: 0.8"/>
      </g>
     </g>
    </g>
    <g id="xtick_2">
     <g id="line2d_2">
      <g>
       <use xlink:href="#md821ca6695" x="1065.049687" y="419.14798" style="stroke: #000000; stroke-width: 0.8"/>
      </g>
     </g>
    </g>
    <g id="xtick_3">
     <g id="line2d_3">
      <defs>
       <path id="mb5baed9916" d="M 0 0 
L 0 2 
" style="stroke: #000000; stroke-width: 0.6"/>
      </defs>
      <g>
       <use xlink:href="#mb5baed9916" x="122.497438" y="419.14798" style="stroke: #000000; stroke-width: 0.6"/>
      </g>
     </g>
     <g id="text_1">
      <!-- 03 -->
      <g transform="translate(114.76628 435.34549) rotate(-10) scale(0.1 -0.1)">
       <defs>
        <path id="DejaVuSans-30" d="M 2034 4250 
Q 1547 4250 1301 3770 
Q 1056 3291 1056 2328 
Q 1056 1369 1301 889 
Q 1547 409 2034 409 
Q 2525 409 2770 889 
Q 3016 1369 3016 2328 
Q 3016 3291 2770 3770 
Q 2525 4250 2034 4250 
z
M 2034 4750 
Q 2819 4750 3233 4129 
Q 3647 3509 3647 2328 
Q 3647 1150 3233 529 
Q 2819 -91 2034 -91 
Q 1250 -91 836 529 
Q 422 1150 422 2328 
Q 422 3509 836 4129 
Q 1250 4750 2034 4750 
z
" transform="scale(0.015625)"/>
        <path id="DejaVuSans-33" d="M 2597 2516 
Q 3050 2419 3304 2112 
Q 3559 1806 3559 1356 
Q 3559 666 3084 287 
Q 2609 -91 1734 -91 
Q 1441 -91 1130 -33 
Q 819 25 488 141 
L 488 750 
Q 750 597 1062 519 
Q 1375 441 1716 441 
Q 2309 441 2620 675 
Q 2931 909 2931 1356 
Q 2931 1769 2642 2001 
Q 2353 2234 1838 2234 
L 1294 2234 
L 1294 2753 
L 1863 2753 
Q 2328 2753 2575 2939 
Q 2822 3125 2822 3475 
Q 2822 3834 2567 4026 
Q 2313 4219 1838 4219 
Q 1578 4219 1281 4162 
Q 984 4106 628 3988 
L 628 4550 
Q 988 4650 1302 4700 
Q 1616 4750 1894 4750 
Q 2613 4750 3031 4423 
Q 3450 4097 3450 3541 
Q 3450 3153 3228 2886 
Q 3006 2619 2597 2516 
z
" transform="scale(0.015625)"/>
       </defs>
       <use xlink:href="#DejaVuSans-30"/>
       <use xlink:href="#DejaVuSans-33" x="63.623047"/>
      </g>
      <!-- Jul -->
      <g transform="translate(117.035438 446.315933) rotate(-10) scale(0.1 -0.1)">
       <defs>
        <path id="DejaVuSans-4a" d="M 628 4666 
L 1259 4666 
L 1259 325 
Q 1259 -519 939 -900 
Q 619 -1281 -91 -1281 
L -331 -1281 
L -331 -750 
L -134 -750 
Q 284 -750 456 -515 
Q 628 -281 628 325 
L 628 4666 
z
" transform="scale(0.015625)"/>
        <path id="DejaVuSans-75" d="M 544 1381 
L 544 3500 
L 1119 3500 
L 1119 1403 
Q 1119 906 1312 657 
Q 1506 409 1894 409 
Q 2359 409 2629 706 
Q 2900 1003 2900 1516 
L 2900 3500 
L 3475 3500 
L 3475 0 
L 2900 0 
L 2900 538 
Q 2691 219 2414 64 
Q 2138 -91 1772 -91 
Q 1169 -91 856 284 
Q 544 659 544 1381 
z
M 1991 3584 
L 1991 3584 
z
" transform="scale(0.015625)"/>
        <path id="DejaVuSans-6c" d="M 603 4863 
L 1178 4863 
L 1178 0 
L 603 0 
L 603 4863 
z
" transform="scale(0.015625)"/>
       </defs>
       <use xlink:href="#DejaVuSans-4a"/>
       <use xlink:href="#DejaVuSans-75" x="29.492188"/>
       <use xlink:href="#DejaVuSans-6c" x="92.871094"/>
      </g>
      <!-- 2010 -->
      <g transform="translate(112.3894 458.505712) rotate(-10) scale(0.1 -0.1)">
       <defs>
        <path id="DejaVuSans-32" d="M 1228 531 
L 3431 531 
L 3431 0 
L 469 0 
L 469 531 
Q 828 903 1448 1529 
Q 2069 2156 2228 2338 
Q 2531 2678 2651 2914 
Q 2772 3150 2772 3378 
Q 2772 3750 2511 3984 
Q 2250 4219 1831 4219 
Q 1534 4219 1204 4116 
Q 875 4013 500 3803 
L 500 4441 
Q 881 4594 1212 4672 
Q 1544 4750 1819 4750 
Q 2544 4750 2975 4387 
Q 3406 4025 3406 3419 
Q 3406 3131 3298 2873 
Q 3191 2616 2906 2266 
Q 2828 2175 2409 1742 
Q 1991 1309 1228 531 
z
" transform="scale(0.015625)"/>
        <path id="DejaVuSans-31" d="M 794 531 
L 1825 531 
L 1825 4091 
L 703 3866 
L 703 4441 
L 1819 4666 
L 2450 4666 
L 2450 531 
L 3481 531 
L 3481 0 
L 794 0 
L 794 531 
z
" transform="scale(0.015625)"/>
       </defs>
       <use xlink:href="#DejaVuSans-32"/>
       <use xlink:href="#DejaVuSans-30" x="63.623047"/>
       <use xlink:href="#DejaVuSans-31" x="127.246094"/>
       <use xlink:href="#DejaVuSans-30" x="190.869141"/>
      </g>
     </g>
    </g>
    <g id="xtick_4">
     <g id="line2d_4">
      <g>
       <use xlink:href="#mb5baed9916" x="206.279861" y="419.14798" style="stroke: #000000; stroke-width: 0.6"/>
      </g>
     </g>
     <g id="text_2">
      <!-- 04 -->
      <g transform="translate(200.493182 434.240653) rotate(-10) scale(0.1 -0.1)">
       <defs>
        <path id="DejaVuSans-34" d="M 2419 4116 
L 825 1625 
L 2419 1625 
L 2419 4116 
z
M 2253 4666 
L 3047 4666 
L 3047 1625 
L 3713 1625 
L 3713 1100 
L 3047 1100 
L 3047 0 
L 2419 0 
L 2419 1100 
L 313 1100 
L 313 1709 
L 2253 4666 
z
" transform="scale(0.015625)"/>
       </defs>
       <use xlink:href="#DejaVuSans-30"/>
       <use xlink:href="#DejaVuSans-34" x="63.623047"/>
      </g>
     </g>
    </g>
    <g id="xtick_5">
     <g id="line2d_5">
      <g>
       <use xlink:href="#mb5baed9916" x="290.062283" y="419.14798" style="stroke: #000000; stroke-width: 0.6"/>
      </g>
     </g>
     <g id="text_3">
      <!-- 05 -->
      <g transform="translate(284.275604 434.240653) rotate(-10) scale(0.1 -0.1)">
       <defs>
        <path id="DejaVuSans-35" d="M 691 4666 
L 3169 4666 
L 3169 4134 
L 1269 4134 
L 1269 2991 
Q 1406 3038 1543 3061 
Q 1681 3084 1819 3084 
Q 2600 3084 3056 2656 
Q 3513 2228 3513 1497 
Q 3513 744 3044 326 
Q 2575 -91 1722 -91 
Q 1428 -91 1123 -41 
Q 819 9 494 109 
L 494 744 
Q 775 591 1075 516 
Q 1375 441 1709 441 
Q 2250 441 2565 725 
Q 2881 1009 2881 1497 
Q 2881 1984 2565 2268 
Q 2250 2553 1709 2553 
Q 1456 2553 1204 2497 
Q 953 2441 691 2322 
L 691 4666 
z
" transform="scale(0.015625)"/>
       </defs>
       <use xlink:href="#DejaVuSans-30"/>
       <use xlink:href="#DejaVuSans-35" x="63.623047"/>
      </g>
     </g>
    </g>
    <g id="xtick_6">
     <g id="line2d_6">
      <g>
       <use xlink:href="#mb5baed9916" x="373.844705" y="419.14798" style="stroke: #000000; stroke-width: 0.6"/>
      </g>
     </g>
     <g id="text_4">
      <!-- 06 -->
      <g transform="translate(368.058026 434.240653) rotate(-10) scale(0.1 -0.1)">
       <defs>
        <path id="DejaVuSans-36" d="M 2113 2584 
Q 1688 2584 1439 2293 
Q 1191 2003 1191 1497 
Q 1191 994 1439 701 
Q 1688 409 2113 409 
Q 2538 409 2786 701 
Q 3034 994 3034 1497 
Q 3034 2003 2786 2293 
Q 2538 2584 2113 2584 
z
M 3366 4563 
L 3366 3988 
Q 3128 4100 2886 4159 
Q 2644 4219 2406 4219 
Q 1781 4219 1451 3797 
Q 1122 3375 1075 2522 
Q 1259 2794 1537 2939 
Q 1816 3084 2150 3084 
Q 2853 3084 3261 2657 
Q 3669 2231 3669 1497 
Q 3669 778 3244 343 
Q 2819 -91 2113 -91 
Q 1303 -91 875 529 
Q 447 1150 447 2328 
Q 447 3434 972 4092 
Q 1497 4750 2381 4750 
Q 2619 4750 2861 4703 
Q 3103 4656 3366 4563 
z
" transform="scale(0.015625)"/>
       </defs>
       <use xlink:href="#DejaVuSans-30"/>
       <use xlink:href="#DejaVuSans-36" x="63.623047"/>
      </g>
     </g>
    </g>
    <g id="xtick_7">
     <g id="line2d_7">
      <g>
       <use xlink:href="#mb5baed9916" x="457.627127" y="419.14798" style="stroke: #000000; stroke-width: 0.6"/>
      </g>
     </g>
     <g id="text_5">
      <!-- 07 -->
      <g transform="translate(451.840448 434.240653) rotate(-10) scale(0.1 -0.1)">
       <defs>
        <path id="DejaVuSans-37" d="M 525 4666 
L 3525 4666 
L 3525 4397 
L 1831 0 
L 1172 0 
L 2766 4134 
L 525 4134 
L 525 4666 
z
" transform="scale(0.015625)"/>
       </defs>
       <use xlink:href="#DejaVuSans-30"/>
       <use xlink:href="#DejaVuSans-37" x="63.623047"/>
      </g>
     </g>
    </g>
    <g id="xtick_8">
     <g id="line2d_8">
      <g>
       <use xlink:href="#mb5baed9916" x="541.409549" y="419.14798" style="stroke: #000000; stroke-width: 0.6"/>
      </g>
     </g>
     <g id="text_6">
      <!-- 08 -->
      <g transform="translate(535.62287 434.240653) rotate(-10) scale(0.1 -0.1)">
       <defs>
        <path id="DejaVuSans-38" d="M 2034 2216 
Q 1584 2216 1326 1975 
Q 1069 1734 1069 1313 
Q 1069 891 1326 650 
Q 1584 409 2034 409 
Q 2484 409 2743 651 
Q 3003 894 3003 1313 
Q 3003 1734 2745 1975 
Q 2488 2216 2034 2216 
z
M 1403 2484 
Q 997 2584 770 2862 
Q 544 3141 544 3541 
Q 544 4100 942 4425 
Q 1341 4750 2034 4750 
Q 2731 4750 3128 4425 
Q 3525 4100 3525 3541 
Q 3525 3141 3298 2862 
Q 3072 2584 2669 2484 
Q 3125 2378 3379 2068 
Q 3634 1759 3634 1313 
Q 3634 634 3220 271 
Q 2806 -91 2034 -91 
Q 1263 -91 848 271 
Q 434 634 434 1313 
Q 434 1759 690 2068 
Q 947 2378 1403 2484 
z
M 1172 3481 
Q 1172 3119 1398 2916 
Q 1625 2713 2034 2713 
Q 2441 2713 2670 2916 
Q 2900 3119 2900 3481 
Q 2900 3844 2670 4047 
Q 2441 4250 2034 4250 
Q 1625 4250 1398 4047 
Q 1172 3844 1172 3481 
z
" transform="scale(0.015625)"/>
       </defs>
       <use xlink:href="#DejaVuSans-30"/>
       <use xlink:href="#DejaVuSans-38" x="63.623047"/>
      </g>
     </g>
    </g>
    <g id="xtick_9">
     <g id="line2d_9">
      <g>
       <use xlink:href="#mb5baed9916" x="625.191971" y="419.14798" style="stroke: #000000; stroke-width: 0.6"/>
      </g>
     </g>
     <g id="text_7">
      <!-- 09 -->
      <g transform="translate(619.405292 434.240653) rotate(-10) scale(0.1 -0.1)">
       <defs>
        <path id="DejaVuSans-39" d="M 703 97 
L 703 672 
Q 941 559 1184 500 
Q 1428 441 1663 441 
Q 2288 441 2617 861 
Q 2947 1281 2994 2138 
Q 2813 1869 2534 1725 
Q 2256 1581 1919 1581 
Q 1219 1581 811 2004 
Q 403 2428 403 3163 
Q 403 3881 828 4315 
Q 1253 4750 1959 4750 
Q 2769 4750 3195 4129 
Q 3622 3509 3622 2328 
Q 3622 1225 3098 567 
Q 2575 -91 1691 -91 
Q 1453 -91 1209 -44 
Q 966 3 703 97 
z
M 1959 2075 
Q 2384 2075 2632 2365 
Q 2881 2656 2881 3163 
Q 2881 3666 2632 3958 
Q 2384 4250 1959 4250 
Q 1534 4250 1286 3958 
Q 1038 3666 1038 3163 
Q 1038 2656 1286 2365 
Q 1534 2075 1959 2075 
z
" transform="scale(0.015625)"/>
       </defs>
       <use xlink:href="#DejaVuSans-30"/>
       <use xlink:href="#DejaVuSans-39" x="63.623047"/>
      </g>
     </g>
    </g>
    <g id="xtick_10">
     <g id="line2d_10">
      <g>
       <use xlink:href="#mb5baed9916" x="708.974393" y="419.14798" style="stroke: #000000; stroke-width: 0.6"/>
      </g>
     </g>
     <g id="text_8">
      <!-- 10 -->
      <g transform="translate(703.187714 434.240653) rotate(-10) scale(0.1 -0.1)">
       <use xlink:href="#DejaVuSans-31"/>
       <use xlink:href="#DejaVuSans-30" x="63.623047"/>
      </g>
     </g>
    </g>
    <g id="xtick_11">
     <g id="line2d_11">
      <g>
       <use xlink:href="#mb5baed9916" x="792.756816" y="419.14798" style="stroke: #000000; stroke-width: 0.6"/>
      </g>
     </g>
     <g id="text_9">
      <!-- 11 -->
      <g transform="translate(786.970137 434.240653) rotate(-10) scale(0.1 -0.1)">
       <use xlink:href="#DejaVuSans-31"/>
       <use xlink:href="#DejaVuSans-31" x="63.623047"/>
      </g>
     </g>
    </g>
    <g id="xtick_12">
     <g id="line2d_12">
      <g>
       <use xlink:href="#mb5baed9916" x="876.539238" y="419.14798" style="stroke: #000000; stroke-width: 0.6"/>
      </g>
     </g>
     <g id="text_10">
      <!-- 12 -->
      <g transform="translate(870.752559 434.240653) rotate(-10) scale(0.1 -0.1)">
       <use xlink:href="#DejaVuSans-31"/>
       <use xlink:href="#DejaVuSans-32" x="63.623047"/>
      </g>
     </g>
    </g>
    <g id="xtick_13">
     <g id="line2d_13">
      <g>
       <use xlink:href="#mb5baed9916" x="960.32166" y="419.14798" style="stroke: #000000; stroke-width: 0.6"/>
      </g>
     </g>
     <g id="text_11">
      <!-- 13 -->
      <g transform="translate(954.534981 434.240653) rotate(-10) scale(0.1 -0.1)">
       <use xlink:href="#DejaVuSans-31"/>
       <use xlink:href="#DejaVuSans-33" x="63.623047"/>
      </g>
     </g>
    </g>
    <g id="xtick_14">
     <g id="line2d_14">
      <g>
       <use xlink:href="#mb5baed9916" x="1044.104082" y="419.14798" style="stroke: #000000; stroke-width: 0.6"/>
      </g>
     </g>
     <g id="text_12">
      <!-- 14 -->
      <g transform="translate(1038.317403 434.240653) rotate(-10) scale(0.1 -0.1)">
       <use xlink:href="#DejaVuSans-31"/>
       <use xlink:href="#DejaVuSans-34" x="63.623047"/>
      </g>
     </g>
    </g>
    <g id="text_13">
     <!-- Time [hours] -->
     <g transform="translate(484.334688 482.790054) scale(0.24 -0.24)">
      <defs>
       <path id="DejaVuSans-54" d="M -19 4666 
L 3928 4666 
L 3928 4134 
L 2272 4134 
L 2272 0 
L 1638 0 
L 1638 4134 
L -19 4134 
L -19 4666 
z
" transform="scale(0.015625)"/>
       <path id="DejaVuSans-69" d="M 603 3500 
L 1178 3500 
L 1178 0 
L 603 0 
L 603 3500 
z
M 603 4863 
L 1178 4863 
L 1178 4134 
L 603 4134 
L 603 4863 
z
" transform="scale(0.015625)"/>
       <path id="DejaVuSans-6d" d="M 3328 2828 
Q 3544 3216 3844 3400 
Q 4144 3584 4550 3584 
Q 5097 3584 5394 3201 
Q 5691 2819 5691 2113 
L 5691 0 
L 5113 0 
L 5113 2094 
Q 5113 2597 4934 2840 
Q 4756 3084 4391 3084 
Q 3944 3084 3684 2787 
Q 3425 2491 3425 1978 
L 3425 0 
L 2847 0 
L 2847 2094 
Q 2847 2600 2669 2842 
Q 2491 3084 2119 3084 
Q 1678 3084 1418 2786 
Q 1159 2488 1159 1978 
L 1159 0 
L 581 0 
L 581 3500 
L 1159 3500 
L 1159 2956 
Q 1356 3278 1631 3431 
Q 1906 3584 2284 3584 
Q 2666 3584 2933 3390 
Q 3200 3197 3328 2828 
z
" transform="scale(0.015625)"/>
       <path id="DejaVuSans-65" d="M 3597 1894 
L 3597 1613 
L 953 1613 
Q 991 1019 1311 708 
Q 1631 397 2203 397 
Q 2534 397 2845 478 
Q 3156 559 3463 722 
L 3463 178 
Q 3153 47 2828 -22 
Q 2503 -91 2169 -91 
Q 1331 -91 842 396 
Q 353 884 353 1716 
Q 353 2575 817 3079 
Q 1281 3584 2069 3584 
Q 2775 3584 3186 3129 
Q 3597 2675 3597 1894 
z
M 3022 2063 
Q 3016 2534 2758 2815 
Q 2500 3097 2075 3097 
Q 1594 3097 1305 2825 
Q 1016 2553 972 2059 
L 3022 2063 
z
" transform="scale(0.015625)"/>
       <path id="DejaVuSans-20" transform="scale(0.015625)"/>
       <path id="DejaVuSans-5b" d="M 550 4863 
L 1875 4863 
L 1875 4416 
L 1125 4416 
L 1125 -397 
L 1875 -397 
L 1875 -844 
L 550 -844 
L 550 4863 
z
" transform="scale(0.015625)"/>
       <path id="DejaVuSans-68" d="M 3513 2113 
L 3513 0 
L 2938 0 
L 2938 2094 
Q 2938 2591 2744 2837 
Q 2550 3084 2163 3084 
Q 1697 3084 1428 2787 
Q 1159 2491 1159 1978 
L 1159 0 
L 581 0 
L 581 4863 
L 1159 4863 
L 1159 2956 
Q 1366 3272 1645 3428 
Q 1925 3584 2291 3584 
Q 2894 3584 3203 3211 
Q 3513 2838 3513 2113 
z
" transform="scale(0.015625)"/>
       <path id="DejaVuSans-6f" d="M 1959 3097 
Q 1497 3097 1228 2736 
Q 959 2375 959 1747 
Q 959 1119 1226 758 
Q 1494 397 1959 397 
Q 2419 397 2687 759 
Q 2956 1122 2956 1747 
Q 2956 2369 2687 2733 
Q 2419 3097 1959 3097 
z
M 1959 3584 
Q 2709 3584 3137 3096 
Q 3566 2609 3566 1747 
Q 3566 888 3137 398 
Q 2709 -91 1959 -91 
Q 1206 -91 779 398 
Q 353 888 353 1747 
Q 353 2609 779 3096 
Q 1206 3584 1959 3584 
z
" transform="scale(0.015625)"/>
       <path id="DejaVuSans-72" d="M 2631 2963 
Q 2534 3019 2420 3045 
Q 2306 3072 2169 3072 
Q 1681 3072 1420 2755 
Q 1159 2438 1159 1844 
L 1159 0 
L 581 0 
L 581 3500 
L 1159 3500 
L 1159 2956 
Q 1341 3275 1631 3429 
Q 1922 3584 2338 3584 
Q 2397 3584 2469 3576 
Q 2541 3569 2628 3553 
L 2631 2963 
z
" transform="scale(0.015625)"/>
       <path id="DejaVuSans-73" d="M 2834 3397 
L 2834 2853 
Q 2591 2978 2328 3040 
Q 2066 3103 1784 3103 
Q 1356 3103 1142 2972 
Q 928 2841 928 2578 
Q 928 2378 1081 2264 
Q 1234 2150 1697 2047 
L 1894 2003 
Q 2506 1872 2764 1633 
Q 3022 1394 3022 966 
Q 3022 478 2636 193 
Q 2250 -91 1575 -91 
Q 1294 -91 989 -36 
Q 684 19 347 128 
L 347 722 
Q 666 556 975 473 
Q 1284 391 1588 391 
Q 1994 391 2212 530 
Q 2431 669 2431 922 
Q 2431 1156 2273 1281 
Q 2116 1406 1581 1522 
L 1381 1569 
Q 847 1681 609 1914 
Q 372 2147 372 2553 
Q 372 3047 722 3315 
Q 1072 3584 1716 3584 
Q 2034 3584 2315 3537 
Q 2597 3491 2834 3397 
z
" transform="scale(0.015625)"/>
       <path id="DejaVuSans-5d" d="M 1947 4863 
L 1947 -844 
L 622 -844 
L 622 -397 
L 1369 -397 
L 1369 4416 
L 622 4416 
L 622 4863 
L 1947 4863 
z
" transform="scale(0.015625)"/>
      </defs>
      <use xlink:href="#DejaVuSans-54"/>
      <use xlink:href="#DejaVuSans-69" x="57.958984"/>
      <use xlink:href="#DejaVuSans-6d" x="85.742188"/>
      <use xlink:href="#DejaVuSans-65" x="183.154297"/>
      <use xlink:href="#DejaVuSans-20" x="244.677734"/>
      <use xlink:href="#DejaVuSans-5b" x="276.464844"/>
      <use xlink:href="#DejaVuSans-68" x="315.478516"/>
      <use xlink:href="#DejaVuSans-6f" x="378.857422"/>
      <use xlink:href="#DejaVuSans-75" x="440.039062"/>
      <use xlink:href="#DejaVuSans-72" x="503.417969"/>
      <use xlink:href="#DejaVuSans-73" x="544.53125"/>
      <use xlink:href="#DejaVuSans-5d" x="596.630859"/>
     </g>
    </g>
   </g>
   <g id="matplotlib.axis_2">
    <g id="ytick_1">
     <g id="line2d_15">
      <defs>
       <path id="m056f5512c0" d="M 0 0 
L -3.5 0 
" style="stroke: #000000; stroke-width: 0.8"/>
      </defs>
      <g>
       <use xlink:href="#m056f5512c0" x="56.169688" y="405.771061" style="stroke: #000000; stroke-width: 0.8"/>
      </g>
     </g>
     <g id="text_14">
      <!-- −1 -->
      <g transform="translate(34.4275 409.57028) scale(0.1 -0.1)">
       <defs>
        <path id="DejaVuSans-2212" d="M 678 2272 
L 4684 2272 
L 4684 1741 
L 678 1741 
L 678 2272 
z
" transform="scale(0.015625)"/>
       </defs>
       <use xlink:href="#DejaVuSans-2212"/>
       <use xlink:href="#DejaVuSans-31" x="83.789062"/>
      </g>
     </g>
    </g>
    <g id="ytick_2">
     <g id="line2d_16">
      <g>
       <use xlink:href="#m056f5512c0" x="56.169688" y="336.316654" style="stroke: #000000; stroke-width: 0.8"/>
      </g>
     </g>
     <g id="text_15">
      <!-- 0 -->
      <g transform="translate(42.807188 340.115873) scale(0.1 -0.1)">
       <use xlink:href="#DejaVuSans-30"/>
      </g>
     </g>
    </g>
    <g id="ytick_3">
     <g id="line2d_17">
      <g>
       <use xlink:href="#m056f5512c0" x="56.169688" y="266.862247" style="stroke: #000000; stroke-width: 0.8"/>
      </g>
     </g>
     <g id="text_16">
      <!-- 1 -->
      <g transform="translate(42.807188 270.661466) scale(0.1 -0.1)">
       <use xlink:href="#DejaVuSans-31"/>
      </g>
     </g>
    </g>
    <g id="ytick_4">
     <g id="line2d_18">
      <g>
       <use xlink:href="#m056f5512c0" x="56.169688" y="197.40784" style="stroke: #000000; stroke-width: 0.8"/>
      </g>
     </g>
     <g id="text_17">
      <!-- 2 -->
      <g transform="translate(42.807188 201.207058) scale(0.1 -0.1)">
       <use xlink:href="#DejaVuSans-32"/>
      </g>
     </g>
    </g>
    <g id="ytick_5">
     <g id="line2d_19">
      <g>
       <use xlink:href="#m056f5512c0" x="56.169688" y="127.953432" style="stroke: #000000; stroke-width: 0.8"/>
      </g>
     </g>
     <g id="text_18">
      <!-- 3 -->
      <g transform="translate(42.807188 131.752651) scale(0.1 -0.1)">
       <use xlink:href="#DejaVuSans-33"/>
      </g>
     </g>
    </g>
    <g id="ytick_6">
     <g id="line2d_20">
      <g>
       <use xlink:href="#m056f5512c0" x="56.169688" y="58.499025" style="stroke: #000000; stroke-width: 0.8"/>
      </g>
     </g>
     <g id="text_19">
      <!-- 4 -->
      <g transform="translate(42.807188 62.298244) scale(0.1 -0.1)">
       <use xlink:href="#DejaVuSans-34"/>
      </g>
     </g>
    </g>
    <g id="text_20">
     <!-- Prosumption [kW] -->
     <g transform="translate(25.43625 320.34524) rotate(-90) scale(0.24 -0.24)">
      <defs>
       <path id="DejaVuSans-50" d="M 1259 4147 
L 1259 2394 
L 2053 2394 
Q 2494 2394 2734 2622 
Q 2975 2850 2975 3272 
Q 2975 3691 2734 3919 
Q 2494 4147 2053 4147 
L 1259 4147 
z
M 628 4666 
L 2053 4666 
Q 2838 4666 3239 4311 
Q 3641 3956 3641 3272 
Q 3641 2581 3239 2228 
Q 2838 1875 2053 1875 
L 1259 1875 
L 1259 0 
L 628 0 
L 628 4666 
z
" transform="scale(0.015625)"/>
       <path id="DejaVuSans-70" d="M 1159 525 
L 1159 -1331 
L 581 -1331 
L 581 3500 
L 1159 3500 
L 1159 2969 
Q 1341 3281 1617 3432 
Q 1894 3584 2278 3584 
Q 2916 3584 3314 3078 
Q 3713 2572 3713 1747 
Q 3713 922 3314 415 
Q 2916 -91 2278 -91 
Q 1894 -91 1617 61 
Q 1341 213 1159 525 
z
M 3116 1747 
Q 3116 2381 2855 2742 
Q 2594 3103 2138 3103 
Q 1681 3103 1420 2742 
Q 1159 2381 1159 1747 
Q 1159 1113 1420 752 
Q 1681 391 2138 391 
Q 2594 391 2855 752 
Q 3116 1113 3116 1747 
z
" transform="scale(0.015625)"/>
       <path id="DejaVuSans-74" d="M 1172 4494 
L 1172 3500 
L 2356 3500 
L 2356 3053 
L 1172 3053 
L 1172 1153 
Q 1172 725 1289 603 
Q 1406 481 1766 481 
L 2356 481 
L 2356 0 
L 1766 0 
Q 1100 0 847 248 
Q 594 497 594 1153 
L 594 3053 
L 172 3053 
L 172 3500 
L 594 3500 
L 594 4494 
L 1172 4494 
z
" transform="scale(0.015625)"/>
       <path id="DejaVuSans-6e" d="M 3513 2113 
L 3513 0 
L 2938 0 
L 2938 2094 
Q 2938 2591 2744 2837 
Q 2550 3084 2163 3084 
Q 1697 3084 1428 2787 
Q 1159 2491 1159 1978 
L 1159 0 
L 581 0 
L 581 3500 
L 1159 3500 
L 1159 2956 
Q 1366 3272 1645 3428 
Q 1925 3584 2291 3584 
Q 2894 3584 3203 3211 
Q 3513 2838 3513 2113 
z
" transform="scale(0.015625)"/>
       <path id="DejaVuSans-6b" d="M 581 4863 
L 1159 4863 
L 1159 1991 
L 2875 3500 
L 3609 3500 
L 1753 1863 
L 3688 0 
L 2938 0 
L 1159 1709 
L 1159 0 
L 581 0 
L 581 4863 
z
" transform="scale(0.015625)"/>
       <path id="DejaVuSans-57" d="M 213 4666 
L 850 4666 
L 1831 722 
L 2809 4666 
L 3519 4666 
L 4500 722 
L 5478 4666 
L 6119 4666 
L 4947 0 
L 4153 0 
L 3169 4050 
L 2175 0 
L 1381 0 
L 213 4666 
z
" transform="scale(0.015625)"/>
      </defs>
      <use xlink:href="#DejaVuSans-50"/>
      <use xlink:href="#DejaVuSans-72" x="58.552734"/>
      <use xlink:href="#DejaVuSans-6f" x="97.416016"/>
      <use xlink:href="#DejaVuSans-73" x="158.597656"/>
      <use xlink:href="#DejaVuSans-75" x="210.697266"/>
      <use xlink:href="#DejaVuSans-6d" x="274.076172"/>
      <use xlink:href="#DejaVuSans-70" x="371.488281"/>
      <use xlink:href="#DejaVuSans-74" x="434.964844"/>
      <use xlink:href="#DejaVuSans-69" x="474.173828"/>
      <use xlink:href="#DejaVuSans-6f" x="501.957031"/>
      <use xlink:href="#DejaVuSans-6e" x="563.138672"/>
      <use xlink:href="#DejaVuSans-20" x="626.517578"/>
      <use xlink:href="#DejaVuSans-5b" x="658.304688"/>
      <use xlink:href="#DejaVuSans-6b" x="697.318359"/>
      <use xlink:href="#DejaVuSans-57" x="755.228516"/>
      <use xlink:href="#DejaVuSans-5d" x="854.105469"/>
     </g>
    </g>
   </g>
   <g id="line2d_21">
    <path d="M 56.169687 296.172007 
L 59.660622 330.482484 
L 63.151556 330.760302 
L 66.64249 264.848069 
L 70.133425 330.482484 
L 73.624359 304.228718 
L 77.115293 256.235723 
L 80.606227 274.849504 
L 84.097162 246.720469 
L 87.588096 276.238592 
L 91.07903 269.223697 
L 94.569964 331.593754 
L 98.060899 305.826169 
L 101.551833 253.66591 
L 105.042767 308.187619 
L 108.533701 259.916806 
L 112.024636 279.572403 
L 115.51557 313.049428 
L 119.006504 326.454128 
L 122.497438 252.624093 
L 125.988373 153.4432 
L 129.479307 205.256188 
L 132.970241 220.049976 
L 136.461175 327.218127 
L 139.95211 263.389527 
L 143.443044 312.007612 
L 146.933978 329.510122 
L 150.424912 270.821148 
L 153.915847 331.802118 
L 157.406781 361.389695 
L 160.897715 378.058753 
L 164.388649 400.423072 
L 167.879584 377.155846 
L 171.370518 370.349314 
L 174.861452 338.400286 
L 178.352386 271.79351 
L 181.843321 278.600042 
L 185.334255 267.487337 
L 188.825189 259.638989 
L 192.316123 309.437799 
L 195.807058 282.003308 
L 199.297992 320.689412 
L 202.788926 325.412312 
L 206.279861 245.123017 
L 209.770795 243.733929 
L 213.261729 244.567382 
L 216.752663 246.025925 
L 220.243598 326.037402 
L 223.734532 256.096814 
L 227.225466 329.718485 
L 230.7164 327.079218 
L 234.207335 225.884147 
L 237.698269 275.613502 
L 241.189203 363.751145 
L 244.680137 323.95377 
L 248.171072 346.17918 
L 251.662006 352.499531 
L 255.15294 370.488222 
L 258.643874 264.917523 
L 262.134809 224.495058 
L 265.625743 233.107405 
L 269.116677 201.297286 
L 272.607611 242.831022 
L 276.098546 267.417882 
L 279.58948 309.993434 
L 283.080414 295.616371 
L 286.571348 318.814143 
L 290.062283 235.3994 
L 293.553217 216.507802 
L 297.044151 244.914654 
L 300.535085 252.763002 
L 304.02602 326.870855 
L 307.516954 269.779332 
L 311.007888 311.868703 
L 314.498822 329.510122 
L 317.989757 282.281125 
L 321.480691 334.371931 
L 324.971625 338.330832 
L 328.462559 324.578859 
L 331.953494 274.016051 
L 335.444428 315.75815 
L 338.935362 224.217241 
L 342.426296 209.562361 
L 345.917231 208.173273 
L 349.408165 268.737516 
L 352.899099 277.072045 
L 356.390034 283.045124 
L 359.880968 270.682239 
L 363.371902 315.827604 
L 366.862836 324.578859 
L 370.353771 326.940309 
L 373.844705 250.748824 
L 377.335639 242.692113 
L 380.826573 226.300873 
L 384.317508 241.580843 
L 387.808442 288.323659 
L 391.299376 284.71203 
L 394.79031 329.16285 
L 398.281245 329.440668 
L 401.772179 284.503666 
L 405.263113 335.761019 
L 408.754047 323.398134 
L 412.244982 336.177745 
L 415.735916 301.172724 
L 422.717784 360.625697 
L 429.699653 205.186733 
L 433.190587 250.748824 
L 436.681521 203.24201 
L 440.172456 290.5462 
L 443.66339 309.368344 
L 447.154324 303.256356 
L 450.645258 298.186185 
L 454.136193 323.814861 
L 457.627127 253.943727 
L 461.118061 243.456112 
L 464.608995 226.09251 
L 468.09993 269.362606 
L 471.590864 250.332098 
L 475.081798 329.579577 
L 478.572732 336.316654 
L 489.045535 336.316654 
L 492.53647 361.806422 
L 496.027404 359.653335 
L 499.518338 327.42649 
L 503.009272 288.601476 
L 506.500207 199.422017 
L 509.991141 249.359736 
L 513.482075 296.102552 
L 516.973009 309.993434 
L 520.463944 273.599324 
L 523.954878 297.769458 
L 527.445812 294.296738 
L 530.936746 292.352014 
L 537.918615 330.551938 
L 541.409549 255.957905 
L 544.900483 241.580843 
L 548.391418 284.295303 
L 551.882352 313.049428 
L 555.373286 287.768023 
L 558.86422 327.982125 
L 562.355155 322.773045 
L 565.846089 327.148672 
L 569.337023 274.571686 
L 572.827957 304.714899 
L 576.318892 224.495058 
L 579.809826 214.354715 
L 583.30076 256.51354 
L 586.791694 218.244162 
L 590.282629 363.473327 
L 593.773563 260.194624 
L 597.264497 244.706291 
L 600.755431 324.301042 
L 604.246366 256.930267 
L 607.7373 319.369779 
L 611.228234 316.938874 
L 614.719168 316.105422 
L 618.210103 316.035967 
L 621.701037 310.062888 
L 625.191971 187.823131 
L 632.17384 299.366909 
L 635.664774 267.556791 
L 639.155708 311.521431 
L 642.646643 299.297455 
L 646.137577 328.815578 
L 649.628511 325.203949 
L 653.119445 221.230701 
L 656.61038 280.683674 
L 660.101314 295.269099 
L 663.592248 383.406742 
L 667.083182 388.129642 
L 670.574117 333.330115 
L 674.065051 353.263529 
L 677.555985 386.323827 
L 681.046919 220.605612 
L 684.537854 220.25834 
L 688.028788 273.182598 
L 691.519722 309.437799 
L 695.010656 319.369779 
L 698.501591 320.064323 
L 701.992525 300.408726 
L 705.483459 326.940309 
L 708.974393 252.346276 
L 712.465328 203.033647 
L 715.956262 216.091075 
L 719.447196 240.469572 
L 722.93813 327.565399 
L 726.429065 318.466871 
L 729.919999 328.468306 
L 733.410933 330.482484 
L 736.901867 264.639706 
L 740.392802 339.928283 
L 743.883736 353.541347 
L 747.37467 311.799248 
L 750.865604 360.20897 
L 754.356539 372.224583 
L 757.847473 381.462019 
L 761.338407 324.578859 
L 764.829341 324.301042 
L 768.320276 320.550504 
L 771.81121 241.441934 
L 775.302144 320.619958 
L 778.793079 274.224414 
L 782.284013 303.047993 
L 785.774947 303.673083 
L 789.265881 328.398852 
L 792.756816 236.927397 
L 796.24775 191.920941 
L 799.738684 234.079767 
L 803.229618 288.462568 
L 806.720553 298.950183 
L 810.211487 310.340706 
L 813.702421 327.357036 
L 817.193355 324.717768 
L 820.68429 279.641858 
L 824.175224 337.427925 
L 827.666158 357.500248 
L 831.157092 351.179897 
L 834.648027 380.975838 
L 838.138961 317.216692 
L 841.629895 330.551938 
L 845.120829 319.23087 
L 848.611764 221.9947 
L 852.102698 221.855791 
L 855.593632 223.383788 
L 859.084566 272.626963 
L 862.575501 313.813426 
L 866.066435 315.75815 
L 869.557369 292.560378 
L 873.048303 330.274121 
L 876.539238 148.859209 
L 880.030172 239.983391 
L 883.521106 294.852373 
L 887.01204 253.388092 
L 890.502975 330.621393 
L 893.993909 258.666627 
L 897.484843 327.704308 
L 900.975777 326.384674 
L 904.466712 260.61135 
L 907.957646 295.616371 
L 911.44858 289.365475 
L 914.939514 335.899928 
L 918.430449 267.278973 
L 921.921383 253.110274 
L 925.412317 267.626245 
L 928.903252 332.705025 
L 932.394186 329.78794 
L 935.88512 327.843216 
L 939.376054 268.459698 
L 942.866989 305.478897 
L 946.357923 251.165551 
L 949.848857 203.8671 
L 953.339791 277.072045 
L 956.830726 265.195341 
L 960.32166 234.149221 
L 963.812594 176.432609 
L 967.303528 285.753846 
L 970.794463 231.162682 
L 974.285397 292.004742 
L 977.776331 300.200362 
L 981.267265 327.42649 
L 984.7582 325.829039 
L 988.249134 274.016051 
L 991.740068 333.191206 
L 995.231002 331.107574 
L 998.721937 297.630549 
L 1002.212871 329.093396 
L 1005.703805 279.780767 
L 1009.194739 286.101118 
L 1012.685674 278.738951 
L 1016.176608 254.499362 
L 1019.667542 247.484467 
L 1023.158476 209.07618 
L 1026.649411 315.480332 
L 1030.140345 320.064323 
L 1033.631279 276.169137 
L 1037.122213 249.915372 
L 1040.613148 293.39383 
L 1044.104082 238.38594 
L 1047.595016 240.677935 
L 1051.08595 322.286864 
L 1054.576885 299.783636 
L 1058.067819 326.384674 
L 1061.558753 309.646162 
L 1065.049687 326.870855 
L 1065.049687 326.870855 
" clip-path="url(#p443f8e02df)" style="fill: none; stroke: #a0a7bc; stroke-width: 2; stroke-linecap: square"/>
   </g>
   <g id="line2d_22">
    <path d="M 56.169687 326.662492 
L 59.660622 325.759584 
L 63.151556 251.30446 
L 66.64249 332.566116 
L 70.133425 237.483033 
L 73.624359 233.66304 
L 77.115293 238.872121 
L 80.606227 235.3994 
L 84.097162 201.575104 
L 87.588096 328.259943 
L 91.07903 327.357036 
L 94.569964 82.113524 
L 98.060899 236.64958 
L 101.551833 202.408557 
L 105.042767 217.480163 
L 108.533701 207.200911 
L 112.024636 232.273952 
L 115.51557 236.441217 
L 119.006504 229.704139 
L 122.497438 264.431343 
L 125.988373 332.14939 
L 129.479307 332.566116 
L 132.970241 332.496662 
L 136.461175 330.551938 
L 139.95211 327.982125 
L 143.443044 286.934571 
L 146.933978 329.996303 
L 150.424912 236.371762 
L 153.915847 241.511388 
L 157.406781 258.944444 
L 160.897715 364.445689 
L 164.388649 366.529321 
L 167.879584 153.998835 
L 171.370518 359.653335 
L 174.861452 349.512991 
L 178.352386 198.102384 
L 181.843321 321.661774 
L 185.334255 328.259943 
L 188.825189 329.718485 
L 192.316123 329.996303 
L 195.807058 329.301759 
L 199.297992 223.036516 
L 202.788926 230.329229 
L 206.279861 299.297455 
L 209.770795 213.79908 
L 213.261729 322.425773 
L 216.752663 327.009764 
L 220.243598 325.759584 
L 223.734532 326.8014 
L 227.225466 328.607215 
L 230.7164 329.301759 
L 234.207335 327.634853 
L 237.698269 145.872669 
L 241.189203 228.731777 
L 244.680137 253.66591 
L 248.171072 244.289565 
L 251.662006 345.415181 
L 255.15294 332.566116 
L 258.643874 270.890602 
L 262.134809 227.759416 
L 265.625743 317.911236 
L 269.116677 215.813258 
L 272.607611 290.893472 
L 276.098546 311.243613 
L 279.58948 223.036516 
L 283.080414 245.95647 
L 286.571348 241.303025 
L 290.062283 315.480332 
L 293.553217 315.827604 
L 297.044151 319.439233 
L 300.535085 318.397417 
L 304.02602 317.772327 
L 307.516954 321.245048 
L 311.007888 321.939592 
L 314.498822 319.022507 
L 317.989757 300.200362 
L 321.480691 211.854356 
L 324.971625 238.663758 
L 328.462559 229.009595 
L 331.953494 235.746672 
L 335.444428 239.983391 
L 338.935362 313.257791 
L 342.426296 316.661057 
L 345.917231 328.398852 
L 349.408165 312.841064 
L 352.899099 183.378049 
L 356.390034 305.687261 
L 359.880968 319.369779 
L 363.371902 181.780598 
L 366.862836 317.563964 
L 370.353771 313.674517 
L 373.844705 328.259943 
L 377.335639 331.315937 
L 380.826573 331.593754 
L 384.317508 329.16285 
L 387.808442 326.245765 
L 391.299376 328.259943 
L 394.79031 331.732663 
L 398.281245 329.301759 
L 401.772179 199.908198 
L 405.263113 230.398683 
L 408.754047 236.371762 
L 412.244982 189.073311 
L 415.735916 302.700721 
L 419.22685 361.528604 
L 422.717784 335.066475 
L 426.208719 348.193358 
L 429.699653 336.038836 
L 433.190587 319.161416 
L 436.681521 218.869251 
L 440.172456 216.229984 
L 443.66339 251.790641 
L 447.154324 329.510122 
L 450.645258 328.885033 
L 454.136193 324.162133 
L 457.627127 315.549786 
L 461.118061 329.857394 
L 464.608995 332.079935 
L 468.09993 329.093396 
L 471.590864 327.704308 
L 475.081798 330.621393 
L 478.572732 330.760302 
L 482.063667 328.190488 
L 485.554601 247.901194 
L 489.045535 236.996852 
L 492.53647 241.997569 
L 496.027404 332.010481 
L 499.518338 329.857394 
L 503.009272 306.103987 
L 506.500207 322.981408 
L 509.991141 311.938157 
L 513.482075 320.064323 
L 516.973009 316.383239 
L 520.463944 308.04871 
L 523.954878 311.03525 
L 527.445812 310.826887 
L 530.936746 222.480881 
L 534.427681 317.841782 
L 541.409549 318.60578 
L 544.900483 319.161416 
L 548.391418 326.315219 
L 551.882352 324.231587 
L 555.373286 326.245765 
L 558.86422 329.649031 
L 562.355155 328.53776 
L 565.846089 324.926131 
L 569.337023 327.42649 
L 572.827957 327.218127 
L 576.318892 309.993434 
L 579.809826 244.150656 
L 583.30076 313.188337 
L 586.791694 329.16285 
L 590.282629 159.763551 
L 593.773563 266.514975 
L 597.264497 271.585147 
L 600.755431 279.155677 
L 604.246366 266.723338 
L 607.7373 279.572403 
L 611.228234 305.20108 
L 614.719168 177.613334 
L 618.210103 303.117447 
L 621.701037 307.770893 
L 625.191971 317.633419 
L 628.682905 319.369779 
L 632.17384 319.647596 
L 635.664774 316.452694 
L 639.155708 319.091961 
L 642.646643 319.23087 
L 649.628511 332.705025 
L 653.119445 332.982843 
L 656.61038 304.506536 
L 660.101314 343.81773 
L 663.592248 334.788657 
L 667.083182 317.911236 
L 670.574117 353.680256 
L 674.065051 337.844651 
L 677.555985 327.009764 
L 681.046919 331.941026 
L 684.537854 325.412312 
L 688.028788 260.472441 
L 691.519722 242.275387 
L 695.010656 301.936723 
L 698.501591 314.021789 
L 701.992525 312.215975 
L 705.483459 315.688695 
L 708.974393 324.370496 
L 712.465328 324.648314 
L 715.956262 331.593754 
L 719.447196 332.843934 
L 722.93813 331.454846 
L 726.429065 328.329397 
L 729.919999 330.135212 
L 733.410933 333.26066 
L 736.901867 186.086771 
L 740.392802 219.285978 
L 743.883736 253.66591 
L 747.37467 257.555356 
L 750.865604 256.999721 
L 754.356539 264.986978 
L 757.847473 268.390244 
L 761.338407 319.369779 
L 764.829341 324.231587 
L 768.320276 319.439233 
L 771.81121 320.203232 
L 775.302144 293.39383 
L 778.793079 319.022507 
L 782.284013 247.415013 
L 785.774947 320.411595 
L 789.265881 324.578859 
L 792.756816 329.926849 
L 796.24775 328.329397 
L 799.738684 328.468306 
L 803.229618 331.663209 
L 806.720553 329.301759 
L 810.211487 327.704308 
L 813.702421 331.732663 
L 817.193355 329.023941 
L 820.68429 230.468137 
L 824.175224 25.924908 
L 827.666158 157.679919 
L 831.157092 230.884864 
L 834.648027 217.132891 
L 838.138961 246.651014 
L 841.629895 242.622659 
L 845.120829 324.509405 
L 848.611764 168.862078 
L 852.102698 319.786505 
L 855.593632 306.798531 
L 859.084566 284.017485 
L 862.575501 289.018203 
L 866.066435 280.753128 
L 869.557369 311.104704 
L 873.048303 321.522865 
L 876.539238 329.232305 
L 880.030172 330.274121 
L 883.521106 326.384674 
L 887.01204 328.746124 
L 890.502975 329.232305 
L 893.993909 326.8014 
L 897.484843 330.343575 
L 900.975777 323.675952 
L 904.466712 178.585695 
L 907.957646 334.441385 
L 911.44858 332.427207 
L 914.939514 338.053014 
L 918.430449 336.316654 
L 921.921383 332.496662 
L 925.412317 332.218844 
L 928.903252 337.844651 
L 932.394186 329.440668 
L 935.88512 330.829756 
L 939.376054 327.495944 
L 942.866989 185.461682 
L 946.357923 236.232853 
L 949.848857 136.149052 
L 953.339791 219.702704 
L 956.830726 231.093227 
L 960.32166 327.634853 
L 963.812594 330.89921 
L 967.303528 328.05158 
L 970.794463 328.190488 
L 974.285397 330.274121 
L 977.776331 327.912671 
L 981.267265 331.177028 
L 984.7582 328.468306 
L 988.249134 278.044406 
L 991.740068 190.045672 
L 995.231002 250.05428 
L 998.721937 134.759964 
L 1002.212871 320.828321 
L 1005.703805 303.9509 
L 1009.194739 333.399569 
L 1012.685674 330.482484 
L 1016.176608 326.245765 
L 1019.667542 235.955036 
L 1023.158476 273.738233 
L 1026.649411 310.062888 
L 1030.140345 316.105422 
L 1033.631279 315.619241 
L 1037.122213 318.050145 
L 1040.613148 316.522148 
L 1044.104082 319.578142 
L 1047.595016 330.343575 
L 1051.08595 327.634853 
L 1054.576885 327.287581 
L 1058.067819 330.413029 
L 1061.558753 327.287581 
L 1065.049687 330.135212 
L 1065.049687 330.135212 
" clip-path="url(#p443f8e02df)" style="fill: none; stroke: #13748b; stroke-width: 2; stroke-linecap: square"/>
   </g>
   <g id="patch_3">
    <path d="M 56.169688 419.14798 
L 56.169688 7.2 
" style="fill: none; stroke: #000000; stroke-width: 0.8; stroke-linejoin: miter; stroke-linecap: square"/>
   </g>
   <g id="patch_4">
    <path d="M 1065.049688 419.14798 
L 1065.049688 7.2 
" style="fill: none; stroke: #000000; stroke-width: 0.8; stroke-linejoin: miter; stroke-linecap: square"/>
   </g>
   <g id="patch_5">
    <path d="M 56.169687 419.14798 
L 1065.049687 419.14798 
" style="fill: none; stroke: #000000; stroke-width: 0.8; stroke-linejoin: miter; stroke-linecap: square"/>
   </g>
   <g id="patch_6">
    <path d="M 56.169687 7.2 
L 1065.049687 7.2 
" style="fill: none; stroke: #000000; stroke-width: 0.8; stroke-linejoin: miter; stroke-linecap: square"/>
   </g>
   <g id="legend_1">
    <g id="patch_7">
     <path d="M 424.050781 104.32625 
L 697.168594 104.32625 
Q 702.368594 104.32625 702.368594 99.12625 
L 702.368594 25.4 
Q 702.368594 20.2 697.168594 20.2 
L 424.050781 20.2 
Q 418.850781 20.2 418.850781 25.4 
L 418.850781 99.12625 
Q 418.850781 104.32625 424.050781 104.32625 
z
" style="fill: #ffffff; opacity: 0.8; stroke: #cccccc; stroke-linejoin: miter"/>
    </g>
    <g id="line2d_23">
     <path d="M 429.250781 41.255937 
L 455.250781 41.255937 
L 481.250781 41.255937 
" style="fill: none; stroke: #a0a7bc; stroke-width: 2; stroke-linecap: square"/>
    </g>
    <g id="text_21">
     <!-- Smart meter 1 -->
     <g transform="translate(502.050781 50.355937) scale(0.26 -0.26)">
      <defs>
       <path id="DejaVuSans-53" d="M 3425 4513 
L 3425 3897 
Q 3066 4069 2747 4153 
Q 2428 4238 2131 4238 
Q 1616 4238 1336 4038 
Q 1056 3838 1056 3469 
Q 1056 3159 1242 3001 
Q 1428 2844 1947 2747 
L 2328 2669 
Q 3034 2534 3370 2195 
Q 3706 1856 3706 1288 
Q 3706 609 3251 259 
Q 2797 -91 1919 -91 
Q 1588 -91 1214 -16 
Q 841 59 441 206 
L 441 856 
Q 825 641 1194 531 
Q 1563 422 1919 422 
Q 2459 422 2753 634 
Q 3047 847 3047 1241 
Q 3047 1584 2836 1778 
Q 2625 1972 2144 2069 
L 1759 2144 
Q 1053 2284 737 2584 
Q 422 2884 422 3419 
Q 422 4038 858 4394 
Q 1294 4750 2059 4750 
Q 2388 4750 2728 4690 
Q 3069 4631 3425 4513 
z
" transform="scale(0.015625)"/>
       <path id="DejaVuSans-61" d="M 2194 1759 
Q 1497 1759 1228 1600 
Q 959 1441 959 1056 
Q 959 750 1161 570 
Q 1363 391 1709 391 
Q 2188 391 2477 730 
Q 2766 1069 2766 1631 
L 2766 1759 
L 2194 1759 
z
M 3341 1997 
L 3341 0 
L 2766 0 
L 2766 531 
Q 2569 213 2275 61 
Q 1981 -91 1556 -91 
Q 1019 -91 701 211 
Q 384 513 384 1019 
Q 384 1609 779 1909 
Q 1175 2209 1959 2209 
L 2766 2209 
L 2766 2266 
Q 2766 2663 2505 2880 
Q 2244 3097 1772 3097 
Q 1472 3097 1187 3025 
Q 903 2953 641 2809 
L 641 3341 
Q 956 3463 1253 3523 
Q 1550 3584 1831 3584 
Q 2591 3584 2966 3190 
Q 3341 2797 3341 1997 
z
" transform="scale(0.015625)"/>
      </defs>
      <use xlink:href="#DejaVuSans-53"/>
      <use xlink:href="#DejaVuSans-6d" x="63.476562"/>
      <use xlink:href="#DejaVuSans-61" x="160.888672"/>
      <use xlink:href="#DejaVuSans-72" x="222.167969"/>
      <use xlink:href="#DejaVuSans-74" x="263.28125"/>
      <use xlink:href="#DejaVuSans-20" x="302.490234"/>
      <use xlink:href="#DejaVuSans-6d" x="334.277344"/>
      <use xlink:href="#DejaVuSans-65" x="431.689453"/>
      <use xlink:href="#DejaVuSans-74" x="493.212891"/>
      <use xlink:href="#DejaVuSans-65" x="532.421875"/>
      <use xlink:href="#DejaVuSans-72" x="593.945312"/>
      <use xlink:href="#DejaVuSans-20" x="635.058594"/>
      <use xlink:href="#DejaVuSans-31" x="666.845703"/>
     </g>
    </g>
    <g id="line2d_24">
     <path d="M 429.250781 79.419062 
L 455.250781 79.419062 
L 481.250781 79.419062 
" style="fill: none; stroke: #13748b; stroke-width: 2; stroke-linecap: square"/>
    </g>
    <g id="text_22">
     <!-- Smart meter 2 -->
     <g transform="translate(502.050781 88.519062) scale(0.26 -0.26)">
      <use xlink:href="#DejaVuSans-53"/>
      <use xlink:href="#DejaVuSans-6d" x="63.476562"/>
      <use xlink:href="#DejaVuSans-61" x="160.888672"/>
      <use xlink:href="#DejaVuSans-72" x="222.167969"/>
      <use xlink:href="#DejaVuSans-74" x="263.28125"/>
      <use xlink:href="#DejaVuSans-20" x="302.490234"/>
      <use xlink:href="#DejaVuSans-6d" x="334.277344"/>
      <use xlink:href="#DejaVuSans-65" x="431.689453"/>
      <use xlink:href="#DejaVuSans-74" x="493.212891"/>
      <use xlink:href="#DejaVuSans-65" x="532.421875"/>
      <use xlink:href="#DejaVuSans-72" x="593.945312"/>
      <use xlink:href="#DejaVuSans-20" x="635.058594"/>
      <use xlink:href="#DejaVuSans-32" x="666.845703"/>
     </g>
    </g>
   </g>
  </g>
 </g>
 <defs>
  <clipPath id="p443f8e02df">
   <rect x="56.169688" y="7.2" width="1008.88" height="411.94798"/>
  </clipPath>
 </defs>
</svg>
