<?xml version="1.0" encoding="utf-8" standalone="no"?>
<!DOCTYPE svg PUBLIC "-//W3C//DTD SVG 1.1//EN"
  "http://www.w3.org/Graphics/SVG/1.1/DTD/svg11.dtd">
<svg xmlns:xlink="http://www.w3.org/1999/xlink" width="1072.393125pt" height="494.497554pt" viewBox="0 0 1072.393125 494.497554" xmlns="http://www.w3.org/2000/svg" version="1.1">
 <metadata>
  <rdf:RDF xmlns:dc="http://purl.org/dc/elements/1.1/" xmlns:cc="http://creativecommons.org/ns#" xmlns:rdf="http://www.w3.org/1999/02/22-rdf-syntax-ns#">
   <cc:Work>
    <dc:type rdf:resource="http://purl.org/dc/dcmitype/StillImage"/>
    <dc:date>2024-01-24T17:20:43.533851</dc:date>
    <dc:format>image/svg+xml</dc:format>
    <dc:creator>
     <cc:Agent>
      <dc:title>Matplotlib v3.8.2, https://matplotlib.org/</dc:title>
     </cc:Agent>
    </dc:creator>
   </cc:Work>
  </rdf:RDF>
 </metadata>
 <defs>
  <style type="text/css">*{stroke-linejoin: round; stroke-linecap: butt}</style>
 </defs>
 <g id="figure_1">
  <g id="patch_1">
   <path d="M 0 494.497554 
L 1072.393125 494.497554 
L 1072.393125 0 
L 0 0 
z
" style="fill: #ffffff"/>
  </g>
  <g id="axes_1">
   <g id="patch_2">
    <path d="M 63.693125 418.66423 
L 1065.193125 418.66423 
L 1065.193125 31.43625 
L 63.693125 31.43625 
z
" style="fill: #ffffff"/>
   </g>
   <g id="matplotlib.axis_1">
    <g id="xtick_1">
     <g id="line2d_1">
      <defs>
       <path id="m219dc40da8" d="M 0 0 
L 0 3.5 
" style="stroke: #000000; stroke-width: 0.8"/>
      </defs>
      <g>
       <use xlink:href="#m219dc40da8" x="63.693125" y="418.66423" style="stroke: #000000; stroke-width: 0.8"/>
      </g>
     </g>
    </g>
    <g id="xtick_2">
     <g id="line2d_2">
      <g>
       <use xlink:href="#m219dc40da8" x="1065.193125" y="418.66423" style="stroke: #000000; stroke-width: 0.8"/>
      </g>
     </g>
    </g>
    <g id="xtick_3">
     <g id="line2d_3">
      <defs>
       <path id="m2c9aaaabd2" d="M 0 0 
L 0 2 
" style="stroke: #000000; stroke-width: 0.6"/>
      </defs>
      <g>
       <use xlink:href="#m2c9aaaabd2" x="128.415914" y="418.66423" style="stroke: #000000; stroke-width: 0.6"/>
      </g>
     </g>
     <g id="text_1">
      <!-- 03 -->
      <g transform="translate(120.684755 434.86174) rotate(-10) scale(0.1 -0.1)">
       <defs>
        <path id="DejaVuSans-30" d="M 2034 4250 
Q 1547 4250 1301 3770 
Q 1056 3291 1056 2328 
Q 1056 1369 1301 889 
Q 1547 409 2034 409 
Q 2525 409 2770 889 
Q 3016 1369 3016 2328 
Q 3016 3291 2770 3770 
Q 2525 4250 2034 4250 
z
M 2034 4750 
Q 2819 4750 3233 4129 
Q 3647 3509 3647 2328 
Q 3647 1150 3233 529 
Q 2819 -91 2034 -91 
Q 1250 -91 836 529 
Q 422 1150 422 2328 
Q 422 3509 836 4129 
Q 1250 4750 2034 4750 
z
" transform="scale(0.015625)"/>
        <path id="DejaVuSans-33" d="M 2597 2516 
Q 3050 2419 3304 2112 
Q 3559 1806 3559 1356 
Q 3559 666 3084 287 
Q 2609 -91 1734 -91 
Q 1441 -91 1130 -33 
Q 819 25 488 141 
L 488 750 
Q 750 597 1062 519 
Q 1375 441 1716 441 
Q 2309 441 2620 675 
Q 2931 909 2931 1356 
Q 2931 1769 2642 2001 
Q 2353 2234 1838 2234 
L 1294 2234 
L 1294 2753 
L 1863 2753 
Q 2328 2753 2575 2939 
Q 2822 3125 2822 3475 
Q 2822 3834 2567 4026 
Q 2313 4219 1838 4219 
Q 1578 4219 1281 4162 
Q 984 4106 628 3988 
L 628 4550 
Q 988 4650 1302 4700 
Q 1616 4750 1894 4750 
Q 2613 4750 3031 4423 
Q 3450 4097 3450 3541 
Q 3450 3153 3228 2886 
Q 3006 2619 2597 2516 
z
" transform="scale(0.015625)"/>
       </defs>
       <use xlink:href="#DejaVuSans-30"/>
       <use xlink:href="#DejaVuSans-33" x="63.623047"/>
      </g>
      <!-- Jul -->
      <g transform="translate(122.953914 445.832183) rotate(-10) scale(0.1 -0.1)">
       <defs>
        <path id="DejaVuSans-4a" d="M 628 4666 
L 1259 4666 
L 1259 325 
Q 1259 -519 939 -900 
Q 619 -1281 -91 -1281 
L -331 -1281 
L -331 -750 
L -134 -750 
Q 284 -750 456 -515 
Q 628 -281 628 325 
L 628 4666 
z
" transform="scale(0.015625)"/>
        <path id="DejaVuSans-75" d="M 544 1381 
L 544 3500 
L 1119 3500 
L 1119 1403 
Q 1119 906 1312 657 
Q 1506 409 1894 409 
Q 2359 409 2629 706 
Q 2900 1003 2900 1516 
L 2900 3500 
L 3475 3500 
L 3475 0 
L 2900 0 
L 2900 538 
Q 2691 219 2414 64 
Q 2138 -91 1772 -91 
Q 1169 -91 856 284 
Q 544 659 544 1381 
z
M 1991 3584 
L 1991 3584 
z
" transform="scale(0.015625)"/>
        <path id="DejaVuSans-6c" d="M 603 4863 
L 1178 4863 
L 1178 0 
L 603 0 
L 603 4863 
z
" transform="scale(0.015625)"/>
       </defs>
       <use xlink:href="#DejaVuSans-4a"/>
       <use xlink:href="#DejaVuSans-75" x="29.492188"/>
       <use xlink:href="#DejaVuSans-6c" x="92.871094"/>
      </g>
      <!-- 2010 -->
      <g transform="translate(118.307876 458.021962) rotate(-10) scale(0.1 -0.1)">
       <defs>
        <path id="DejaVuSans-32" d="M 1228 531 
L 3431 531 
L 3431 0 
L 469 0 
L 469 531 
Q 828 903 1448 1529 
Q 2069 2156 2228 2338 
Q 2531 2678 2651 2914 
Q 2772 3150 2772 3378 
Q 2772 3750 2511 3984 
Q 2250 4219 1831 4219 
Q 1534 4219 1204 4116 
Q 875 4013 500 3803 
L 500 4441 
Q 881 4594 1212 4672 
Q 1544 4750 1819 4750 
Q 2544 4750 2975 4387 
Q 3406 4025 3406 3419 
Q 3406 3131 3298 2873 
Q 3191 2616 2906 2266 
Q 2828 2175 2409 1742 
Q 1991 1309 1228 531 
z
" transform="scale(0.015625)"/>
        <path id="DejaVuSans-31" d="M 794 531 
L 1825 531 
L 1825 4091 
L 703 3866 
L 703 4441 
L 1819 4666 
L 2450 4666 
L 2450 531 
L 3481 531 
L 3481 0 
L 794 0 
L 794 531 
z
" transform="scale(0.015625)"/>
       </defs>
       <use xlink:href="#DejaVuSans-32"/>
       <use xlink:href="#DejaVuSans-30" x="63.623047"/>
       <use xlink:href="#DejaVuSans-31" x="127.246094"/>
       <use xlink:href="#DejaVuSans-30" x="190.869141"/>
      </g>
     </g>
    </g>
    <g id="xtick_4">
     <g id="line2d_4">
      <g>
       <use xlink:href="#m2c9aaaabd2" x="210.171016" y="418.66423" style="stroke: #000000; stroke-width: 0.6"/>
      </g>
     </g>
     <g id="text_2">
      <!-- 04 -->
      <g transform="translate(204.384337 433.756903) rotate(-10) scale(0.1 -0.1)">
       <defs>
        <path id="DejaVuSans-34" d="M 2419 4116 
L 825 1625 
L 2419 1625 
L 2419 4116 
z
M 2253 4666 
L 3047 4666 
L 3047 1625 
L 3713 1625 
L 3713 1100 
L 3047 1100 
L 3047 0 
L 2419 0 
L 2419 1100 
L 313 1100 
L 313 1709 
L 2253 4666 
z
" transform="scale(0.015625)"/>
       </defs>
       <use xlink:href="#DejaVuSans-30"/>
       <use xlink:href="#DejaVuSans-34" x="63.623047"/>
      </g>
     </g>
    </g>
    <g id="xtick_5">
     <g id="line2d_5">
      <g>
       <use xlink:href="#m2c9aaaabd2" x="291.926118" y="418.66423" style="stroke: #000000; stroke-width: 0.6"/>
      </g>
     </g>
     <g id="text_3">
      <!-- 05 -->
      <g transform="translate(286.139439 433.756903) rotate(-10) scale(0.1 -0.1)">
       <defs>
        <path id="DejaVuSans-35" d="M 691 4666 
L 3169 4666 
L 3169 4134 
L 1269 4134 
L 1269 2991 
Q 1406 3038 1543 3061 
Q 1681 3084 1819 3084 
Q 2600 3084 3056 2656 
Q 3513 2228 3513 1497 
Q 3513 744 3044 326 
Q 2575 -91 1722 -91 
Q 1428 -91 1123 -41 
Q 819 9 494 109 
L 494 744 
Q 775 591 1075 516 
Q 1375 441 1709 441 
Q 2250 441 2565 725 
Q 2881 1009 2881 1497 
Q 2881 1984 2565 2268 
Q 2250 2553 1709 2553 
Q 1456 2553 1204 2497 
Q 953 2441 691 2322 
L 691 4666 
z
" transform="scale(0.015625)"/>
       </defs>
       <use xlink:href="#DejaVuSans-30"/>
       <use xlink:href="#DejaVuSans-35" x="63.623047"/>
      </g>
     </g>
    </g>
    <g id="xtick_6">
     <g id="line2d_6">
      <g>
       <use xlink:href="#m2c9aaaabd2" x="373.68122" y="418.66423" style="stroke: #000000; stroke-width: 0.6"/>
      </g>
     </g>
     <g id="text_4">
      <!-- 06 -->
      <g transform="translate(367.894541 433.756903) rotate(-10) scale(0.1 -0.1)">
       <defs>
        <path id="DejaVuSans-36" d="M 2113 2584 
Q 1688 2584 1439 2293 
Q 1191 2003 1191 1497 
Q 1191 994 1439 701 
Q 1688 409 2113 409 
Q 2538 409 2786 701 
Q 3034 994 3034 1497 
Q 3034 2003 2786 2293 
Q 2538 2584 2113 2584 
z
M 3366 4563 
L 3366 3988 
Q 3128 4100 2886 4159 
Q 2644 4219 2406 4219 
Q 1781 4219 1451 3797 
Q 1122 3375 1075 2522 
Q 1259 2794 1537 2939 
Q 1816 3084 2150 3084 
Q 2853 3084 3261 2657 
Q 3669 2231 3669 1497 
Q 3669 778 3244 343 
Q 2819 -91 2113 -91 
Q 1303 -91 875 529 
Q 447 1150 447 2328 
Q 447 3434 972 4092 
Q 1497 4750 2381 4750 
Q 2619 4750 2861 4703 
Q 3103 4656 3366 4563 
z
" transform="scale(0.015625)"/>
       </defs>
       <use xlink:href="#DejaVuSans-30"/>
       <use xlink:href="#DejaVuSans-36" x="63.623047"/>
      </g>
     </g>
    </g>
    <g id="xtick_7">
     <g id="line2d_7">
      <g>
       <use xlink:href="#m2c9aaaabd2" x="455.436322" y="418.66423" style="stroke: #000000; stroke-width: 0.6"/>
      </g>
     </g>
     <g id="text_5">
      <!-- 07 -->
      <g transform="translate(449.649643 433.756903) rotate(-10) scale(0.1 -0.1)">
       <defs>
        <path id="DejaVuSans-37" d="M 525 4666 
L 3525 4666 
L 3525 4397 
L 1831 0 
L 1172 0 
L 2766 4134 
L 525 4134 
L 525 4666 
z
" transform="scale(0.015625)"/>
       </defs>
       <use xlink:href="#DejaVuSans-30"/>
       <use xlink:href="#DejaVuSans-37" x="63.623047"/>
      </g>
     </g>
    </g>
    <g id="xtick_8">
     <g id="line2d_8">
      <g>
       <use xlink:href="#m2c9aaaabd2" x="537.191424" y="418.66423" style="stroke: #000000; stroke-width: 0.6"/>
      </g>
     </g>
     <g id="text_6">
      <!-- 08 -->
      <g transform="translate(531.404745 433.756903) rotate(-10) scale(0.1 -0.1)">
       <defs>
        <path id="DejaVuSans-38" d="M 2034 2216 
Q 1584 2216 1326 1975 
Q 1069 1734 1069 1313 
Q 1069 891 1326 650 
Q 1584 409 2034 409 
Q 2484 409 2743 651 
Q 3003 894 3003 1313 
Q 3003 1734 2745 1975 
Q 2488 2216 2034 2216 
z
M 1403 2484 
Q 997 2584 770 2862 
Q 544 3141 544 3541 
Q 544 4100 942 4425 
Q 1341 4750 2034 4750 
Q 2731 4750 3128 4425 
Q 3525 4100 3525 3541 
Q 3525 3141 3298 2862 
Q 3072 2584 2669 2484 
Q 3125 2378 3379 2068 
Q 3634 1759 3634 1313 
Q 3634 634 3220 271 
Q 2806 -91 2034 -91 
Q 1263 -91 848 271 
Q 434 634 434 1313 
Q 434 1759 690 2068 
Q 947 2378 1403 2484 
z
M 1172 3481 
Q 1172 3119 1398 2916 
Q 1625 2713 2034 2713 
Q 2441 2713 2670 2916 
Q 2900 3119 2900 3481 
Q 2900 3844 2670 4047 
Q 2441 4250 2034 4250 
Q 1625 4250 1398 4047 
Q 1172 3844 1172 3481 
z
" transform="scale(0.015625)"/>
       </defs>
       <use xlink:href="#DejaVuSans-30"/>
       <use xlink:href="#DejaVuSans-38" x="63.623047"/>
      </g>
     </g>
    </g>
    <g id="xtick_9">
     <g id="line2d_9">
      <g>
       <use xlink:href="#m2c9aaaabd2" x="618.946526" y="418.66423" style="stroke: #000000; stroke-width: 0.6"/>
      </g>
     </g>
     <g id="text_7">
      <!-- 09 -->
      <g transform="translate(613.159847 433.756903) rotate(-10) scale(0.1 -0.1)">
       <defs>
        <path id="DejaVuSans-39" d="M 703 97 
L 703 672 
Q 941 559 1184 500 
Q 1428 441 1663 441 
Q 2288 441 2617 861 
Q 2947 1281 2994 2138 
Q 2813 1869 2534 1725 
Q 2256 1581 1919 1581 
Q 1219 1581 811 2004 
Q 403 2428 403 3163 
Q 403 3881 828 4315 
Q 1253 4750 1959 4750 
Q 2769 4750 3195 4129 
Q 3622 3509 3622 2328 
Q 3622 1225 3098 567 
Q 2575 -91 1691 -91 
Q 1453 -91 1209 -44 
Q 966 3 703 97 
z
M 1959 2075 
Q 2384 2075 2632 2365 
Q 2881 2656 2881 3163 
Q 2881 3666 2632 3958 
Q 2384 4250 1959 4250 
Q 1534 4250 1286 3958 
Q 1038 3666 1038 3163 
Q 1038 2656 1286 2365 
Q 1534 2075 1959 2075 
z
" transform="scale(0.015625)"/>
       </defs>
       <use xlink:href="#DejaVuSans-30"/>
       <use xlink:href="#DejaVuSans-39" x="63.623047"/>
      </g>
     </g>
    </g>
    <g id="xtick_10">
     <g id="line2d_10">
      <g>
       <use xlink:href="#m2c9aaaabd2" x="700.701628" y="418.66423" style="stroke: #000000; stroke-width: 0.6"/>
      </g>
     </g>
     <g id="text_8">
      <!-- 10 -->
      <g transform="translate(694.91495 433.756903) rotate(-10) scale(0.1 -0.1)">
       <use xlink:href="#DejaVuSans-31"/>
       <use xlink:href="#DejaVuSans-30" x="63.623047"/>
      </g>
     </g>
    </g>
    <g id="xtick_11">
     <g id="line2d_11">
      <g>
       <use xlink:href="#m2c9aaaabd2" x="782.45673" y="418.66423" style="stroke: #000000; stroke-width: 0.6"/>
      </g>
     </g>
     <g id="text_9">
      <!-- 11 -->
      <g transform="translate(776.670052 433.756903) rotate(-10) scale(0.1 -0.1)">
       <use xlink:href="#DejaVuSans-31"/>
       <use xlink:href="#DejaVuSans-31" x="63.623047"/>
      </g>
     </g>
    </g>
    <g id="xtick_12">
     <g id="line2d_12">
      <g>
       <use xlink:href="#m2c9aaaabd2" x="864.211832" y="418.66423" style="stroke: #000000; stroke-width: 0.6"/>
      </g>
     </g>
     <g id="text_10">
      <!-- 12 -->
      <g transform="translate(858.425154 433.756903) rotate(-10) scale(0.1 -0.1)">
       <use xlink:href="#DejaVuSans-31"/>
       <use xlink:href="#DejaVuSans-32" x="63.623047"/>
      </g>
     </g>
    </g>
    <g id="xtick_13">
     <g id="line2d_13">
      <g>
       <use xlink:href="#m2c9aaaabd2" x="945.966935" y="418.66423" style="stroke: #000000; stroke-width: 0.6"/>
      </g>
     </g>
     <g id="text_11">
      <!-- 13 -->
      <g transform="translate(940.180256 433.756903) rotate(-10) scale(0.1 -0.1)">
       <use xlink:href="#DejaVuSans-31"/>
       <use xlink:href="#DejaVuSans-33" x="63.623047"/>
      </g>
     </g>
    </g>
    <g id="xtick_14">
     <g id="line2d_14">
      <g>
       <use xlink:href="#m2c9aaaabd2" x="1027.722037" y="418.66423" style="stroke: #000000; stroke-width: 0.6"/>
      </g>
     </g>
     <g id="text_12">
      <!-- 14 -->
      <g transform="translate(1021.935358 433.756903) rotate(-10) scale(0.1 -0.1)">
       <use xlink:href="#DejaVuSans-31"/>
       <use xlink:href="#DejaVuSans-34" x="63.623047"/>
      </g>
     </g>
    </g>
    <g id="text_13">
     <!-- Time [hours] -->
     <g transform="translate(488.168125 482.306304) scale(0.24 -0.24)">
      <defs>
       <path id="DejaVuSans-54" d="M -19 4666 
L 3928 4666 
L 3928 4134 
L 2272 4134 
L 2272 0 
L 1638 0 
L 1638 4134 
L -19 4134 
L -19 4666 
z
" transform="scale(0.015625)"/>
       <path id="DejaVuSans-69" d="M 603 3500 
L 1178 3500 
L 1178 0 
L 603 0 
L 603 3500 
z
M 603 4863 
L 1178 4863 
L 1178 4134 
L 603 4134 
L 603 4863 
z
" transform="scale(0.015625)"/>
       <path id="DejaVuSans-6d" d="M 3328 2828 
Q 3544 3216 3844 3400 
Q 4144 3584 4550 3584 
Q 5097 3584 5394 3201 
Q 5691 2819 5691 2113 
L 5691 0 
L 5113 0 
L 5113 2094 
Q 5113 2597 4934 2840 
Q 4756 3084 4391 3084 
Q 3944 3084 3684 2787 
Q 3425 2491 3425 1978 
L 3425 0 
L 2847 0 
L 2847 2094 
Q 2847 2600 2669 2842 
Q 2491 3084 2119 3084 
Q 1678 3084 1418 2786 
Q 1159 2488 1159 1978 
L 1159 0 
L 581 0 
L 581 3500 
L 1159 3500 
L 1159 2956 
Q 1356 3278 1631 3431 
Q 1906 3584 2284 3584 
Q 2666 3584 2933 3390 
Q 3200 3197 3328 2828 
z
" transform="scale(0.015625)"/>
       <path id="DejaVuSans-65" d="M 3597 1894 
L 3597 1613 
L 953 1613 
Q 991 1019 1311 708 
Q 1631 397 2203 397 
Q 2534 397 2845 478 
Q 3156 559 3463 722 
L 3463 178 
Q 3153 47 2828 -22 
Q 2503 -91 2169 -91 
Q 1331 -91 842 396 
Q 353 884 353 1716 
Q 353 2575 817 3079 
Q 1281 3584 2069 3584 
Q 2775 3584 3186 3129 
Q 3597 2675 3597 1894 
z
M 3022 2063 
Q 3016 2534 2758 2815 
Q 2500 3097 2075 3097 
Q 1594 3097 1305 2825 
Q 1016 2553 972 2059 
L 3022 2063 
z
" transform="scale(0.015625)"/>
       <path id="DejaVuSans-20" transform="scale(0.015625)"/>
       <path id="DejaVuSans-5b" d="M 550 4863 
L 1875 4863 
L 1875 4416 
L 1125 4416 
L 1125 -397 
L 1875 -397 
L 1875 -844 
L 550 -844 
L 550 4863 
z
" transform="scale(0.015625)"/>
       <path id="DejaVuSans-68" d="M 3513 2113 
L 3513 0 
L 2938 0 
L 2938 2094 
Q 2938 2591 2744 2837 
Q 2550 3084 2163 3084 
Q 1697 3084 1428 2787 
Q 1159 2491 1159 1978 
L 1159 0 
L 581 0 
L 581 4863 
L 1159 4863 
L 1159 2956 
Q 1366 3272 1645 3428 
Q 1925 3584 2291 3584 
Q 2894 3584 3203 3211 
Q 3513 2838 3513 2113 
z
" transform="scale(0.015625)"/>
       <path id="DejaVuSans-6f" d="M 1959 3097 
Q 1497 3097 1228 2736 
Q 959 2375 959 1747 
Q 959 1119 1226 758 
Q 1494 397 1959 397 
Q 2419 397 2687 759 
Q 2956 1122 2956 1747 
Q 2956 2369 2687 2733 
Q 2419 3097 1959 3097 
z
M 1959 3584 
Q 2709 3584 3137 3096 
Q 3566 2609 3566 1747 
Q 3566 888 3137 398 
Q 2709 -91 1959 -91 
Q 1206 -91 779 398 
Q 353 888 353 1747 
Q 353 2609 779 3096 
Q 1206 3584 1959 3584 
z
" transform="scale(0.015625)"/>
       <path id="DejaVuSans-72" d="M 2631 2963 
Q 2534 3019 2420 3045 
Q 2306 3072 2169 3072 
Q 1681 3072 1420 2755 
Q 1159 2438 1159 1844 
L 1159 0 
L 581 0 
L 581 3500 
L 1159 3500 
L 1159 2956 
Q 1341 3275 1631 3429 
Q 1922 3584 2338 3584 
Q 2397 3584 2469 3576 
Q 2541 3569 2628 3553 
L 2631 2963 
z
" transform="scale(0.015625)"/>
       <path id="DejaVuSans-73" d="M 2834 3397 
L 2834 2853 
Q 2591 2978 2328 3040 
Q 2066 3103 1784 3103 
Q 1356 3103 1142 2972 
Q 928 2841 928 2578 
Q 928 2378 1081 2264 
Q 1234 2150 1697 2047 
L 1894 2003 
Q 2506 1872 2764 1633 
Q 3022 1394 3022 966 
Q 3022 478 2636 193 
Q 2250 -91 1575 -91 
Q 1294 -91 989 -36 
Q 684 19 347 128 
L 347 722 
Q 666 556 975 473 
Q 1284 391 1588 391 
Q 1994 391 2212 530 
Q 2431 669 2431 922 
Q 2431 1156 2273 1281 
Q 2116 1406 1581 1522 
L 1381 1569 
Q 847 1681 609 1914 
Q 372 2147 372 2553 
Q 372 3047 722 3315 
Q 1072 3584 1716 3584 
Q 2034 3584 2315 3537 
Q 2597 3491 2834 3397 
z
" transform="scale(0.015625)"/>
       <path id="DejaVuSans-5d" d="M 1947 4863 
L 1947 -844 
L 622 -844 
L 622 -397 
L 1369 -397 
L 1369 4416 
L 622 4416 
L 622 4863 
L 1947 4863 
z
" transform="scale(0.015625)"/>
      </defs>
      <use xlink:href="#DejaVuSans-54"/>
      <use xlink:href="#DejaVuSans-69" x="57.958984"/>
      <use xlink:href="#DejaVuSans-6d" x="85.742188"/>
      <use xlink:href="#DejaVuSans-65" x="183.154297"/>
      <use xlink:href="#DejaVuSans-20" x="244.677734"/>
      <use xlink:href="#DejaVuSans-5b" x="276.464844"/>
      <use xlink:href="#DejaVuSans-68" x="315.478516"/>
      <use xlink:href="#DejaVuSans-6f" x="378.857422"/>
      <use xlink:href="#DejaVuSans-75" x="440.039062"/>
      <use xlink:href="#DejaVuSans-72" x="503.417969"/>
      <use xlink:href="#DejaVuSans-73" x="544.53125"/>
      <use xlink:href="#DejaVuSans-5d" x="596.630859"/>
     </g>
    </g>
   </g>
   <g id="matplotlib.axis_2">
    <g id="ytick_1">
     <g id="line2d_15">
      <defs>
       <path id="m8b537c9145" d="M 0 0 
L -3.5 0 
" style="stroke: #000000; stroke-width: 0.8"/>
      </defs>
      <g>
       <use xlink:href="#m8b537c9145" x="63.693125" y="416.712531" style="stroke: #000000; stroke-width: 0.8"/>
      </g>
     </g>
     <g id="text_14">
      <!-- 0.00 -->
      <g transform="translate(34.4275 420.511749) scale(0.1 -0.1)">
       <defs>
        <path id="DejaVuSans-2e" d="M 684 794 
L 1344 794 
L 1344 0 
L 684 0 
L 684 794 
z
" transform="scale(0.015625)"/>
       </defs>
       <use xlink:href="#DejaVuSans-30"/>
       <use xlink:href="#DejaVuSans-2e" x="63.623047"/>
       <use xlink:href="#DejaVuSans-30" x="95.410156"/>
       <use xlink:href="#DejaVuSans-30" x="159.033203"/>
      </g>
     </g>
    </g>
    <g id="ytick_2">
     <g id="line2d_16">
      <g>
       <use xlink:href="#m8b537c9145" x="63.693125" y="371.742495" style="stroke: #000000; stroke-width: 0.8"/>
      </g>
     </g>
     <g id="text_15">
      <!-- 0.25 -->
      <g transform="translate(34.4275 375.541714) scale(0.1 -0.1)">
       <use xlink:href="#DejaVuSans-30"/>
       <use xlink:href="#DejaVuSans-2e" x="63.623047"/>
       <use xlink:href="#DejaVuSans-32" x="95.410156"/>
       <use xlink:href="#DejaVuSans-35" x="159.033203"/>
      </g>
     </g>
    </g>
    <g id="ytick_3">
     <g id="line2d_17">
      <g>
       <use xlink:href="#m8b537c9145" x="63.693125" y="326.77246" style="stroke: #000000; stroke-width: 0.8"/>
      </g>
     </g>
     <g id="text_16">
      <!-- 0.50 -->
      <g transform="translate(34.4275 330.571679) scale(0.1 -0.1)">
       <use xlink:href="#DejaVuSans-30"/>
       <use xlink:href="#DejaVuSans-2e" x="63.623047"/>
       <use xlink:href="#DejaVuSans-35" x="95.410156"/>
       <use xlink:href="#DejaVuSans-30" x="159.033203"/>
      </g>
     </g>
    </g>
    <g id="ytick_4">
     <g id="line2d_18">
      <g>
       <use xlink:href="#m8b537c9145" x="63.693125" y="281.802425" style="stroke: #000000; stroke-width: 0.8"/>
      </g>
     </g>
     <g id="text_17">
      <!-- 0.75 -->
      <g transform="translate(34.4275 285.601643) scale(0.1 -0.1)">
       <use xlink:href="#DejaVuSans-30"/>
       <use xlink:href="#DejaVuSans-2e" x="63.623047"/>
       <use xlink:href="#DejaVuSans-37" x="95.410156"/>
       <use xlink:href="#DejaVuSans-35" x="159.033203"/>
      </g>
     </g>
    </g>
    <g id="ytick_5">
     <g id="line2d_19">
      <g>
       <use xlink:href="#m8b537c9145" x="63.693125" y="236.832389" style="stroke: #000000; stroke-width: 0.8"/>
      </g>
     </g>
     <g id="text_18">
      <!-- 1.00 -->
      <g transform="translate(34.4275 240.631608) scale(0.1 -0.1)">
       <use xlink:href="#DejaVuSans-31"/>
       <use xlink:href="#DejaVuSans-2e" x="63.623047"/>
       <use xlink:href="#DejaVuSans-30" x="95.410156"/>
       <use xlink:href="#DejaVuSans-30" x="159.033203"/>
      </g>
     </g>
    </g>
    <g id="ytick_6">
     <g id="line2d_20">
      <g>
       <use xlink:href="#m8b537c9145" x="63.693125" y="191.862354" style="stroke: #000000; stroke-width: 0.8"/>
      </g>
     </g>
     <g id="text_19">
      <!-- 1.25 -->
      <g transform="translate(34.4275 195.661573) scale(0.1 -0.1)">
       <use xlink:href="#DejaVuSans-31"/>
       <use xlink:href="#DejaVuSans-2e" x="63.623047"/>
       <use xlink:href="#DejaVuSans-32" x="95.410156"/>
       <use xlink:href="#DejaVuSans-35" x="159.033203"/>
      </g>
     </g>
    </g>
    <g id="ytick_7">
     <g id="line2d_21">
      <g>
       <use xlink:href="#m8b537c9145" x="63.693125" y="146.892319" style="stroke: #000000; stroke-width: 0.8"/>
      </g>
     </g>
     <g id="text_20">
      <!-- 1.50 -->
      <g transform="translate(34.4275 150.691537) scale(0.1 -0.1)">
       <use xlink:href="#DejaVuSans-31"/>
       <use xlink:href="#DejaVuSans-2e" x="63.623047"/>
       <use xlink:href="#DejaVuSans-35" x="95.410156"/>
       <use xlink:href="#DejaVuSans-30" x="159.033203"/>
      </g>
     </g>
    </g>
    <g id="ytick_8">
     <g id="line2d_22">
      <g>
       <use xlink:href="#m8b537c9145" x="63.693125" y="101.922283" style="stroke: #000000; stroke-width: 0.8"/>
      </g>
     </g>
     <g id="text_21">
      <!-- 1.75 -->
      <g transform="translate(34.4275 105.721502) scale(0.1 -0.1)">
       <use xlink:href="#DejaVuSans-31"/>
       <use xlink:href="#DejaVuSans-2e" x="63.623047"/>
       <use xlink:href="#DejaVuSans-37" x="95.410156"/>
       <use xlink:href="#DejaVuSans-35" x="159.033203"/>
      </g>
     </g>
    </g>
    <g id="ytick_9">
     <g id="line2d_23">
      <g>
       <use xlink:href="#m8b537c9145" x="63.693125" y="56.952248" style="stroke: #000000; stroke-width: 0.8"/>
      </g>
     </g>
     <g id="text_22">
      <!-- 2.00 -->
      <g transform="translate(34.4275 60.751467) scale(0.1 -0.1)">
       <use xlink:href="#DejaVuSans-32"/>
       <use xlink:href="#DejaVuSans-2e" x="63.623047"/>
       <use xlink:href="#DejaVuSans-30" x="95.410156"/>
       <use xlink:href="#DejaVuSans-30" x="159.033203"/>
      </g>
     </g>
    </g>
    <g id="text_23">
     <!-- Load [kW] -->
     <g transform="translate(25.43625 285.832115) rotate(-90) scale(0.24 -0.24)">
      <defs>
       <path id="DejaVuSans-4c" d="M 628 4666 
L 1259 4666 
L 1259 531 
L 3531 531 
L 3531 0 
L 628 0 
L 628 4666 
z
" transform="scale(0.015625)"/>
       <path id="DejaVuSans-61" d="M 2194 1759 
Q 1497 1759 1228 1600 
Q 959 1441 959 1056 
Q 959 750 1161 570 
Q 1363 391 1709 391 
Q 2188 391 2477 730 
Q 2766 1069 2766 1631 
L 2766 1759 
L 2194 1759 
z
M 3341 1997 
L 3341 0 
L 2766 0 
L 2766 531 
Q 2569 213 2275 61 
Q 1981 -91 1556 -91 
Q 1019 -91 701 211 
Q 384 513 384 1019 
Q 384 1609 779 1909 
Q 1175 2209 1959 2209 
L 2766 2209 
L 2766 2266 
Q 2766 2663 2505 2880 
Q 2244 3097 1772 3097 
Q 1472 3097 1187 3025 
Q 903 2953 641 2809 
L 641 3341 
Q 956 3463 1253 3523 
Q 1550 3584 1831 3584 
Q 2591 3584 2966 3190 
Q 3341 2797 3341 1997 
z
" transform="scale(0.015625)"/>
       <path id="DejaVuSans-64" d="M 2906 2969 
L 2906 4863 
L 3481 4863 
L 3481 0 
L 2906 0 
L 2906 525 
Q 2725 213 2448 61 
Q 2172 -91 1784 -91 
Q 1150 -91 751 415 
Q 353 922 353 1747 
Q 353 2572 751 3078 
Q 1150 3584 1784 3584 
Q 2172 3584 2448 3432 
Q 2725 3281 2906 2969 
z
M 947 1747 
Q 947 1113 1208 752 
Q 1469 391 1925 391 
Q 2381 391 2643 752 
Q 2906 1113 2906 1747 
Q 2906 2381 2643 2742 
Q 2381 3103 1925 3103 
Q 1469 3103 1208 2742 
Q 947 2381 947 1747 
z
" transform="scale(0.015625)"/>
       <path id="DejaVuSans-6b" d="M 581 4863 
L 1159 4863 
L 1159 1991 
L 2875 3500 
L 3609 3500 
L 1753 1863 
L 3688 0 
L 2938 0 
L 1159 1709 
L 1159 0 
L 581 0 
L 581 4863 
z
" transform="scale(0.015625)"/>
       <path id="DejaVuSans-57" d="M 213 4666 
L 850 4666 
L 1831 722 
L 2809 4666 
L 3519 4666 
L 4500 722 
L 5478 4666 
L 6119 4666 
L 4947 0 
L 4153 0 
L 3169 4050 
L 2175 0 
L 1381 0 
L 213 4666 
z
" transform="scale(0.015625)"/>
      </defs>
      <use xlink:href="#DejaVuSans-4c"/>
      <use xlink:href="#DejaVuSans-6f" x="53.962891"/>
      <use xlink:href="#DejaVuSans-61" x="115.144531"/>
      <use xlink:href="#DejaVuSans-64" x="176.423828"/>
      <use xlink:href="#DejaVuSans-20" x="239.900391"/>
      <use xlink:href="#DejaVuSans-5b" x="271.6875"/>
      <use xlink:href="#DejaVuSans-6b" x="310.701172"/>
      <use xlink:href="#DejaVuSans-57" x="368.611328"/>
      <use xlink:href="#DejaVuSans-5d" x="467.488281"/>
     </g>
    </g>
   </g>
   <g id="line2d_24">
    <path d="M 63.693125 395.126914 
L 67.099588 401.062958 
L 70.50605 378.21818 
L 73.912513 382.895064 
L 77.318975 380.556622 
L 80.725438 398.184876 
L 84.131901 351.595919 
L 87.538363 359.150885 
L 90.944826 373.541297 
L 94.351288 347.818437 
L 101.164213 399.264157 
L 104.570676 385.233506 
L 107.977139 375.879739 
L 111.383601 333.787786 
L 114.790064 350.336759 
L 118.196526 333.787786 
L 121.602989 347.278796 
L 125.009452 350.336759 
L 128.415914 380.556622 
L 131.822377 389.010989 
L 135.228839 390.98967 
L 138.635302 369.583934 
L 142.041764 382.175544 
L 145.448227 390.62991 
L 148.85469 364.72717 
L 152.261152 373.001656 
L 155.667615 389.010989 
L 159.074077 371.022975 
L 162.48054 376.599259 
L 165.887003 375.160218 
L 169.293465 365.806451 
L 172.699928 183.767748 
L 176.10639 248.344718 
L 179.512853 358.431365 
L 182.919315 364.72717 
L 186.325778 372.282136 
L 189.732241 371.742495 
L 193.138703 336.845748 
L 196.545166 336.485988 
L 199.951628 340.803111 
L 203.358091 370.663214 
L 206.764554 370.303454 
L 210.171016 385.593266 
L 213.577479 369.763814 
L 216.983941 378.577941 
L 220.390404 399.444037 
L 223.796866 389.370749 
L 227.203329 387.931708 
L 230.609792 383.074944 
L 234.016254 395.126914 
L 237.422717 382.895064 
L 240.829179 267.591894 
L 244.235642 350.516639 
L 247.642105 362.928368 
L 251.048567 334.507306 
L 254.45503 303.927682 
L 257.861492 305.186843 
L 261.267955 175.673141 
L 264.674418 279.284103 
L 268.08088 335.046946 
L 271.487343 358.071605 
L 274.893805 335.766467 
L 278.300268 348.178197 
L 281.70673 337.925029 
L 285.113193 366.525971 
L 288.519656 372.462016 
L 291.926118 392.968352 
L 295.332581 388.291468 
L 298.739043 374.620578 
L 302.145506 389.370749 
L 305.551969 377.85842 
L 308.958431 359.870406 
L 312.364894 386.132907 
L 315.771356 370.663214 
L 319.177819 381.276143 
L 322.584281 375.699858 
L 325.990744 374.800458 
L 329.397207 381.815783 
L 336.210132 349.437358 
L 339.616594 325.153539 
L 343.023057 349.077598 
L 346.42952 348.897717 
L 349.835982 343.861073 
L 353.242445 333.967666 
L 356.648907 346.739156 
L 360.05537 322.275456 
L 363.461832 342.422032 
L 366.868295 345.300115 
L 370.274758 371.202855 
L 373.68122 374.260817 
L 377.087683 394.947034 
L 380.494145 396.206195 
L 383.900608 400.343438 
L 387.307071 399.264157 
L 390.713533 384.873746 
L 394.119996 379.837102 
L 397.526458 381.276143 
L 400.932921 389.91039 
L 404.339384 383.074944 
L 407.745846 377.49866 
L 411.152309 329.830422 
L 414.558771 373.181536 
L 417.965234 381.096263 
L 421.371696 312.202169 
L 424.778159 344.220834 
L 428.184622 346.919036 
L 431.591084 200.676481 
L 434.997547 331.988984 
L 438.404009 342.601912 
L 441.810472 336.126227 
L 445.216935 323.894378 
L 448.623397 322.815097 
L 452.02986 347.098916 
L 455.436322 365.08693 
L 458.842785 379.477341 
L 462.249247 379.297461 
L 465.65571 394.407393 
L 469.062173 381.815783 
L 472.468635 382.175544 
L 475.875098 381.815783 
L 479.28156 377.1389 
L 482.688023 357.352084 
L 486.094486 388.471348 
L 489.500948 383.074944 
L 492.907411 361.129567 
L 496.313873 348.717837 
L 499.720336 342.961673 
L 503.126798 344.400714 
L 506.533261 347.638556 
L 509.939724 342.422032 
L 513.346186 361.669207 
L 516.752649 355.013642 
L 520.159111 320.836415 
L 523.565574 332.708505 
L 526.972037 342.422032 
L 530.378499 351.236159 
L 533.784962 343.141553 
L 537.191424 367.065612 
L 540.597887 383.254824 
L 544.004349 390.98967 
L 547.410812 387.571948 
L 550.817275 378.577941 
L 554.223737 393.867753 
L 557.6302 392.788472 
L 561.036662 399.983678 
L 564.443125 400.343438 
L 567.849588 366.705851 
L 571.25605 383.614585 
L 574.662513 386.492667 
L 578.068975 385.233506 
L 581.475438 372.462016 
L 584.881901 374.980338 
L 588.288363 372.282136 
L 591.694826 379.297461 
L 595.101288 367.425372 
L 598.507751 364.007649 
L 601.914213 345.300115 
L 605.320676 327.851741 
L 608.727139 331.269464 
L 612.133601 287.198829 
L 615.540064 285.579908 
L 618.946526 372.282136 
L 622.352989 392.248831 
L 625.759452 391.529311 
L 629.165914 380.376742 
L 632.572377 381.276143 
L 635.978839 394.587273 
L 639.385302 388.651229 
L 642.791764 390.09027 
L 646.198227 388.111588 
L 649.60469 381.456023 
L 653.011152 238.811071 
L 656.417615 346.019635 
L 659.824077 384.513985 
L 663.23054 389.010989 
L 666.637003 391.169551 
L 670.043465 380.376742 
L 673.449928 378.757821 
L 676.85639 366.705851 
L 680.262853 365.626571 
L 683.669315 340.803111 
L 687.075778 334.147546 
L 690.482241 345.120234 
L 693.888703 347.098916 
L 697.295166 368.864413 
L 700.701628 387.931708 
L 704.108091 370.843095 
L 707.514554 374.800458 
L 710.921016 380.016982 
L 714.327479 368.684533 
L 717.733941 385.593266 
L 721.140404 388.291468 
L 724.546866 384.154225 
L 727.953329 379.657222 
L 731.359792 330.549943 
L 734.766254 383.794465 
L 738.172717 300.509959 
L 741.579179 369.763814 
L 744.985642 369.943694 
L 748.392105 179.270744 
L 751.798567 183.947628 
L 755.20503 326.4127 
L 758.611492 338.284789 
L 762.017955 359.150885 
L 765.424418 366.346091 
L 768.83088 357.531964 
L 772.237343 358.251485 
L 775.643805 361.129567 
L 779.050268 350.156878 
L 782.45673 378.577941 
L 785.863193 391.169551 
L 789.269656 391.529311 
L 792.676118 393.507992 
L 796.082581 388.651229 
L 799.489043 391.709191 
L 802.895506 394.407393 
L 806.301969 392.968352 
L 809.708431 391.889071 
L 813.114894 369.583934 
L 816.521356 356.272803 
L 819.927819 364.54729 
L 823.334281 363.468009 
L 826.740744 357.531964 
L 830.147207 363.468009 
L 833.553669 333.068265 
L 836.960132 350.516639 
L 840.366594 368.684533 
L 843.773057 367.425372 
L 847.17952 336.306107 
L 850.585982 338.824429 
L 853.992445 354.653882 
L 857.398907 374.620578 
L 860.80537 385.773146 
L 864.211832 380.736502 
L 867.618295 383.614585 
L 871.024758 398.004996 
L 874.43122 393.328112 
L 877.837683 386.492667 
L 881.244145 378.577941 
L 884.650608 384.873746 
L 888.057071 370.483334 
L 891.463533 369.044293 
L 894.869996 379.297461 
L 898.276458 387.392068 
L 901.682921 390.62991 
L 905.089384 389.010989 
L 908.495846 341.162871 
L 911.902309 356.812444 
L 915.308771 366.705851 
L 918.715234 372.641896 
L 922.121696 368.144892 
L 925.528159 351.416039 
L 928.934622 309.144206 
L 932.341084 355.913043 
L 935.747547 349.617238 
L 939.154009 345.659875 
L 942.560472 385.413386 
L 945.966935 209.310728 
L 949.373397 393.328112 
L 952.77986 382.715184 
L 956.186322 393.328112 
L 959.592785 393.867753 
L 962.999247 392.788472 
L 966.40571 395.486674 
L 969.812173 387.571948 
L 973.218635 389.550629 
L 976.625098 389.550629 
L 980.03156 388.831109 
L 983.438023 394.407393 
L 986.844486 389.190869 
L 990.250948 385.773146 
L 993.657411 352.49532 
L 997.063873 373.001656 
L 1000.470336 363.827769 
L 1003.876798 358.971005 
L 1007.283261 356.092923 
L 1010.689724 351.416039 
L 1014.096186 364.72717 
L 1017.502649 337.925029 
L 1020.909111 341.162871 
L 1024.315574 316.339412 
L 1027.722037 375.699858 
L 1031.128499 272.088897 
L 1034.534962 378.757821 
L 1037.941424 397.465356 
L 1041.347887 389.010989 
L 1044.754349 380.196862 
L 1048.160812 387.751828 
L 1051.567275 362.028968 
L 1054.973737 385.053626 
L 1058.3802 389.730509 
L 1061.786662 378.937701 
L 1065.193125 391.349431 
L 1065.193125 391.349431 
" clip-path="url(#p4be3d9cc71)" style="fill: none; stroke: #a0a7bc; stroke-width: 2; stroke-linecap: square"/>
   </g>
   <g id="line2d_25">
    <path d="M 63.693125 399.444037 
L 67.099588 394.947034 
L 70.50605 394.227513 
L 73.912513 292.235473 
L 77.318975 355.193522 
L 80.725438 321.016295 
L 84.131901 328.931022 
L 87.538363 351.595919 
L 90.944826 332.888385 
L 94.351288 348.717837 
L 97.757751 330.010303 
L 101.164213 336.845748 
L 104.570676 326.59258 
L 107.977139 335.946347 
L 111.383601 267.951654 
L 114.790064 216.146173 
L 118.196526 328.391381 
L 121.602989 327.671861 
L 125.009452 280.003623 
L 128.415914 394.587273 
L 131.822377 398.904397 
L 135.228839 396.026314 
L 138.635302 390.09027 
L 142.041764 396.206195 
L 145.448227 398.904397 
L 148.85469 399.803797 
L 152.261152 393.328112 
L 155.667615 322.635217 
L 159.074077 307.885045 
L 162.48054 286.659188 
L 165.887003 263.994291 
L 169.293465 99.224081 
L 172.699928 163.801052 
L 176.10639 118.111496 
L 179.512853 295.113555 
L 182.919315 283.421346 
L 186.325778 265.972972 
L 189.732241 192.401994 
L 193.138703 63.967574 
L 196.545166 226.219461 
L 199.951628 221.002937 
L 203.358091 231.256105 
L 206.764554 286.839069 
L 210.171016 393.867753 
L 213.577479 395.666554 
L 216.983941 389.190869 
L 220.390404 399.803797 
L 223.796866 398.364756 
L 227.203329 387.392068 
L 230.609792 397.465356 
L 234.016254 399.264157 
L 237.422717 391.889071 
L 240.829179 328.751142 
L 244.235642 290.436671 
L 247.642105 276.945661 
L 251.048567 278.204822 
L 254.45503 298.171518 
L 257.861492 294.214154 
L 261.267955 294.034274 
L 264.674418 222.082218 
L 268.08088 242.588554 
L 271.487343 195.280077 
L 274.893805 49.037522 
L 278.300268 199.23744 
L 281.70673 212.908331 
L 285.113193 215.966293 
L 288.519656 220.823057 
L 291.926118 304.107562 
L 295.332581 395.306794 
L 298.739043 395.486674 
L 302.145506 392.248831 
L 305.551969 398.904397 
L 308.958431 388.111588 
L 312.364894 387.751828 
L 315.771356 398.724517 
L 319.177819 316.879052 
L 322.584281 220.283416 
L 325.990744 252.122201 
L 329.397207 266.872373 
L 332.803669 263.814411 
L 336.210132 267.052253 
L 339.616594 280.543264 
L 343.023057 276.04626 
L 346.42952 265.073572 
L 349.835982 250.3234 
L 353.242445 194.740436 
L 356.648907 91.309355 
L 360.05537 173.87434 
L 363.461832 202.475282 
L 366.868295 208.591207 
L 370.274758 185.926309 
L 373.68122 396.925715 
L 377.087683 393.867753 
L 380.494145 395.306794 
L 383.900608 400.343438 
L 387.307071 389.370749 
L 390.713533 395.846434 
L 394.119996 396.026314 
L 397.526458 394.407393 
L 400.932921 391.529311 
L 404.339384 360.050286 
L 407.745846 238.27143 
L 411.152309 257.338725 
L 414.558771 299.250798 
L 417.965234 289.717151 
L 421.371696 286.659188 
L 424.778159 266.512613 
L 428.184622 249.96364 
L 431.591084 240.429992 
L 434.997547 207.332046 
L 438.404009 204.633844 
L 441.810472 267.052253 
L 445.216935 275.50662 
L 448.623397 291.515952 
L 452.02986 205.713125 
L 455.436322 398.004996 
L 458.842785 393.687873 
L 462.249247 390.45003 
L 465.65571 395.486674 
L 469.062173 388.831109 
L 472.468635 395.486674 
L 475.875098 398.544636 
L 479.28156 400.523318 
L 482.688023 352.31544 
L 486.094486 282.162185 
L 489.500948 298.891038 
L 492.907411 301.22948 
L 496.313873 218.124855 
L 499.720336 100.483242 
L 503.126798 243.847715 
L 506.533261 296.912357 
L 509.939724 234.673828 
L 513.346186 163.261412 
L 516.752649 153.547884 
L 520.159111 266.692493 
L 523.565574 296.732476 
L 526.972037 288.27811 
L 530.378499 166.319374 
L 533.784962 203.014923 
L 537.191424 275.146859 
L 540.597887 398.904397 
L 544.004349 395.846434 
L 547.410812 390.45003 
L 550.817275 395.486674 
L 554.223737 393.328112 
L 557.6302 386.312787 
L 561.036662 398.184876 
L 564.443125 368.684533 
L 567.849588 309.683847 
L 571.25605 283.960986 
L 574.662513 272.808418 
L 578.068975 282.881706 
L 581.475438 280.363384 
L 584.881901 259.137527 
L 588.288363 279.463983 
L 591.694826 281.802425 
L 595.101288 70.982899 
L 598.507751 193.661155 
L 601.914213 151.209442 
L 605.320676 231.795745 
L 608.727139 266.512613 
L 612.133601 252.122201 
L 615.540064 255.360044 
L 618.946526 258.777767 
L 622.352989 394.047633 
L 625.759452 395.486674 
L 629.165914 396.745835 
L 632.572377 399.623917 
L 635.978839 400.343438 
L 639.385302 396.925715 
L 642.791764 395.666554 
L 646.198227 392.428712 
L 649.60469 302.308761 
L 653.011152 289.537271 
L 656.417615 303.208161 
L 659.824077 290.076911 
L 663.23054 253.201482 
L 666.637003 265.793092 
L 670.043465 268.671174 
L 673.449928 265.613212 
L 676.85639 246.366037 
L 680.262853 192.042234 
L 683.669315 215.966293 
L 687.075778 190.423313 
L 690.482241 263.27477 
L 693.888703 316.519292 
L 697.295166 288.45799 
L 700.701628 333.068265 
L 704.108091 394.047633 
L 707.514554 397.825116 
L 710.921016 395.486674 
L 714.327479 395.306794 
L 717.733941 396.026314 
L 721.140404 399.623917 
L 724.546866 398.004996 
L 727.953329 389.550629 
L 731.359792 354.474002 
L 734.766254 281.082904 
L 738.172717 279.643863 
L 741.579179 286.659188 
L 744.985642 300.86972 
L 748.392105 247.625198 
L 751.798567 113.254732 
L 755.20503 223.881019 
L 758.611492 242.048913 
L 762.017955 206.432645 
L 765.424418 299.430679 
L 768.83088 354.653882 
L 772.237343 355.553283 
L 775.643805 350.156878 
L 779.050268 358.971005 
L 782.45673 387.751828 
L 785.863193 391.529311 
L 789.269656 395.846434 
L 792.676118 395.666554 
L 796.082581 395.306794 
L 799.489043 399.983678 
L 802.895506 400.163558 
L 806.301969 398.364756 
L 809.708431 394.047633 
L 813.114894 386.672547 
L 816.521356 234.314067 
L 819.927819 287.018949 
L 823.334281 283.241466 
L 826.740744 290.976312 
L 830.147207 281.982305 
L 833.553669 145.633158 
L 836.960132 280.903024 
L 840.366594 163.441292 
L 843.773057 231.975626 
L 847.17952 209.130848 
L 850.585982 125.666462 
L 853.992445 297.451997 
L 857.398907 271.009616 
L 860.80537 185.566549 
L 864.211832 391.169551 
L 867.618295 397.825116 
L 871.024758 394.227513 
L 874.43122 390.80979 
L 877.837683 394.947034 
L 881.244145 384.334105 
L 884.650608 384.334105 
L 888.057071 360.949687 
L 891.463533 382.535304 
L 894.869996 392.608592 
L 898.276458 365.26681 
L 901.682921 393.148232 
L 905.089384 397.465356 
L 908.495846 394.047633 
L 911.902309 376.059619 
L 915.308771 373.541297 
L 918.715234 337.025628 
L 922.121696 343.681193 
L 925.528159 211.109529 
L 928.934622 203.014923 
L 932.341084 350.336759 
L 935.747547 314.900371 
L 939.154009 366.166211 
L 942.560472 264.713811 
L 945.966935 396.925715 
L 949.373397 392.068951 
L 952.77986 385.413386 
L 956.186322 396.026314 
L 959.592785 397.285475 
L 962.999247 393.687873 
L 966.40571 395.486674 
L 969.812173 382.715184 
L 973.218635 398.004996 
L 976.625098 352.6752 
L 980.03156 363.468009 
L 983.438023 382.895064 
L 986.844486 385.413386 
L 990.250948 350.516639 
L 993.657411 149.590521 
L 997.063873 333.428025 
L 1000.470336 306.086244 
L 1003.876798 223.881019 
L 1007.283261 180.709785 
L 1010.689724 153.008243 
L 1014.096186 216.146173 
L 1017.502649 281.622545 
L 1020.909111 344.040954 
L 1024.315574 367.605252 
L 1027.722037 352.6752 
L 1031.128499 396.206195 
L 1034.534962 393.687873 
L 1037.941424 399.623917 
L 1041.347887 395.486674 
L 1044.754349 396.745835 
L 1048.160812 396.925715 
L 1051.567275 373.901057 
L 1054.973737 353.754481 
L 1058.3802 370.123574 
L 1061.786662 374.440697 
L 1065.193125 395.846434 
L 1065.193125 395.846434 
" clip-path="url(#p4be3d9cc71)" style="fill: none; stroke: #13748b; stroke-width: 2; stroke-linecap: square"/>
   </g>
   <g id="patch_3">
    <path d="M 63.693125 418.66423 
L 63.693125 31.43625 
" style="fill: none; stroke: #000000; stroke-width: 0.8; stroke-linejoin: miter; stroke-linecap: square"/>
   </g>
   <g id="patch_4">
    <path d="M 1065.193125 418.66423 
L 1065.193125 31.43625 
" style="fill: none; stroke: #000000; stroke-width: 0.8; stroke-linejoin: miter; stroke-linecap: square"/>
   </g>
   <g id="patch_5">
    <path d="M 63.693125 418.66423 
L 1065.193125 418.66423 
" style="fill: none; stroke: #000000; stroke-width: 0.8; stroke-linejoin: miter; stroke-linecap: square"/>
   </g>
   <g id="patch_6">
    <path d="M 63.693125 31.43625 
L 1065.193125 31.43625 
" style="fill: none; stroke: #000000; stroke-width: 0.8; stroke-linejoin: miter; stroke-linecap: square"/>
   </g>
   <g id="text_24">
    <!-- Load profile [kW] -->
    <g transform="translate(461.948125 25.43625) scale(0.24 -0.24)">
     <defs>
      <path id="DejaVuSans-70" d="M 1159 525 
L 1159 -1331 
L 581 -1331 
L 581 3500 
L 1159 3500 
L 1159 2969 
Q 1341 3281 1617 3432 
Q 1894 3584 2278 3584 
Q 2916 3584 3314 3078 
Q 3713 2572 3713 1747 
Q 3713 922 3314 415 
Q 2916 -91 2278 -91 
Q 1894 -91 1617 61 
Q 1341 213 1159 525 
z
M 3116 1747 
Q 3116 2381 2855 2742 
Q 2594 3103 2138 3103 
Q 1681 3103 1420 2742 
Q 1159 2381 1159 1747 
Q 1159 1113 1420 752 
Q 1681 391 2138 391 
Q 2594 391 2855 752 
Q 3116 1113 3116 1747 
z
" transform="scale(0.015625)"/>
      <path id="DejaVuSans-66" d="M 2375 4863 
L 2375 4384 
L 1825 4384 
Q 1516 4384 1395 4259 
Q 1275 4134 1275 3809 
L 1275 3500 
L 2222 3500 
L 2222 3053 
L 1275 3053 
L 1275 0 
L 697 0 
L 697 3053 
L 147 3053 
L 147 3500 
L 697 3500 
L 697 3744 
Q 697 4328 969 4595 
Q 1241 4863 1831 4863 
L 2375 4863 
z
" transform="scale(0.015625)"/>
     </defs>
     <use xlink:href="#DejaVuSans-4c"/>
     <use xlink:href="#DejaVuSans-6f" x="53.962891"/>
     <use xlink:href="#DejaVuSans-61" x="115.144531"/>
     <use xlink:href="#DejaVuSans-64" x="176.423828"/>
     <use xlink:href="#DejaVuSans-20" x="239.900391"/>
     <use xlink:href="#DejaVuSans-70" x="271.6875"/>
     <use xlink:href="#DejaVuSans-72" x="335.164062"/>
     <use xlink:href="#DejaVuSans-6f" x="374.027344"/>
     <use xlink:href="#DejaVuSans-66" x="435.208984"/>
     <use xlink:href="#DejaVuSans-69" x="470.414062"/>
     <use xlink:href="#DejaVuSans-6c" x="498.197266"/>
     <use xlink:href="#DejaVuSans-65" x="525.980469"/>
     <use xlink:href="#DejaVuSans-20" x="587.503906"/>
     <use xlink:href="#DejaVuSans-5b" x="619.291016"/>
     <use xlink:href="#DejaVuSans-6b" x="658.304688"/>
     <use xlink:href="#DejaVuSans-57" x="716.214844"/>
     <use xlink:href="#DejaVuSans-5d" x="815.091797"/>
    </g>
   </g>
   <g id="legend_1">
    <g id="patch_7">
     <path d="M 773.875313 128.5625 
L 1046.993125 128.5625 
Q 1052.193125 128.5625 1052.193125 123.3625 
L 1052.193125 49.63625 
Q 1052.193125 44.43625 1046.993125 44.43625 
L 773.875313 44.43625 
Q 768.675313 44.43625 768.675313 49.63625 
L 768.675313 123.3625 
Q 768.675313 128.5625 773.875313 128.5625 
z
" style="fill: #ffffff; opacity: 0.8; stroke: #cccccc; stroke-linejoin: miter"/>
    </g>
    <g id="line2d_26">
     <path d="M 779.075312 65.492187 
L 805.075312 65.492187 
L 831.075312 65.492187 
" style="fill: none; stroke: #a0a7bc; stroke-width: 2; stroke-linecap: square"/>
    </g>
    <g id="text_25">
     <!-- Smart meter 1 -->
     <g transform="translate(851.875312 74.592187) scale(0.26 -0.26)">
      <defs>
       <path id="DejaVuSans-53" d="M 3425 4513 
L 3425 3897 
Q 3066 4069 2747 4153 
Q 2428 4238 2131 4238 
Q 1616 4238 1336 4038 
Q 1056 3838 1056 3469 
Q 1056 3159 1242 3001 
Q 1428 2844 1947 2747 
L 2328 2669 
Q 3034 2534 3370 2195 
Q 3706 1856 3706 1288 
Q 3706 609 3251 259 
Q 2797 -91 1919 -91 
Q 1588 -91 1214 -16 
Q 841 59 441 206 
L 441 856 
Q 825 641 1194 531 
Q 1563 422 1919 422 
Q 2459 422 2753 634 
Q 3047 847 3047 1241 
Q 3047 1584 2836 1778 
Q 2625 1972 2144 2069 
L 1759 2144 
Q 1053 2284 737 2584 
Q 422 2884 422 3419 
Q 422 4038 858 4394 
Q 1294 4750 2059 4750 
Q 2388 4750 2728 4690 
Q 3069 4631 3425 4513 
z
" transform="scale(0.015625)"/>
       <path id="DejaVuSans-74" d="M 1172 4494 
L 1172 3500 
L 2356 3500 
L 2356 3053 
L 1172 3053 
L 1172 1153 
Q 1172 725 1289 603 
Q 1406 481 1766 481 
L 2356 481 
L 2356 0 
L 1766 0 
Q 1100 0 847 248 
Q 594 497 594 1153 
L 594 3053 
L 172 3053 
L 172 3500 
L 594 3500 
L 594 4494 
L 1172 4494 
z
" transform="scale(0.015625)"/>
      </defs>
      <use xlink:href="#DejaVuSans-53"/>
      <use xlink:href="#DejaVuSans-6d" x="63.476562"/>
      <use xlink:href="#DejaVuSans-61" x="160.888672"/>
      <use xlink:href="#DejaVuSans-72" x="222.167969"/>
      <use xlink:href="#DejaVuSans-74" x="263.28125"/>
      <use xlink:href="#DejaVuSans-20" x="302.490234"/>
      <use xlink:href="#DejaVuSans-6d" x="334.277344"/>
      <use xlink:href="#DejaVuSans-65" x="431.689453"/>
      <use xlink:href="#DejaVuSans-74" x="493.212891"/>
      <use xlink:href="#DejaVuSans-65" x="532.421875"/>
      <use xlink:href="#DejaVuSans-72" x="593.945312"/>
      <use xlink:href="#DejaVuSans-20" x="635.058594"/>
      <use xlink:href="#DejaVuSans-31" x="666.845703"/>
     </g>
    </g>
    <g id="line2d_27">
     <path d="M 779.075312 103.655312 
L 805.075312 103.655312 
L 831.075312 103.655312 
" style="fill: none; stroke: #13748b; stroke-width: 2; stroke-linecap: square"/>
    </g>
    <g id="text_26">
     <!-- Smart meter 2 -->
     <g transform="translate(851.875312 112.755312) scale(0.26 -0.26)">
      <use xlink:href="#DejaVuSans-53"/>
      <use xlink:href="#DejaVuSans-6d" x="63.476562"/>
      <use xlink:href="#DejaVuSans-61" x="160.888672"/>
      <use xlink:href="#DejaVuSans-72" x="222.167969"/>
      <use xlink:href="#DejaVuSans-74" x="263.28125"/>
      <use xlink:href="#DejaVuSans-20" x="302.490234"/>
      <use xlink:href="#DejaVuSans-6d" x="334.277344"/>
      <use xlink:href="#DejaVuSans-65" x="431.689453"/>
      <use xlink:href="#DejaVuSans-74" x="493.212891"/>
      <use xlink:href="#DejaVuSans-65" x="532.421875"/>
      <use xlink:href="#DejaVuSans-72" x="593.945312"/>
      <use xlink:href="#DejaVuSans-20" x="635.058594"/>
      <use xlink:href="#DejaVuSans-32" x="666.845703"/>
     </g>
    </g>
   </g>
  </g>
 </g>
 <defs>
  <clipPath id="p4be3d9cc71">
   <rect x="63.693125" y="31.43625" width="1001.5" height="387.22798"/>
  </clipPath>
 </defs>
</svg>
