<?xml version="1.0" encoding="utf-8" standalone="no"?>
<!DOCTYPE svg PUBLIC "-//W3C//DTD SVG 1.1//EN"
  "http://www.w3.org/Graphics/SVG/1.1/DTD/svg11.dtd">
<svg xmlns:xlink="http://www.w3.org/1999/xlink" width="1072.330625pt" height="494.981304pt" viewBox="0 0 1072.330625 494.981304" xmlns="http://www.w3.org/2000/svg" version="1.1">
 <metadata>
  <rdf:RDF xmlns:dc="http://purl.org/dc/elements/1.1/" xmlns:cc="http://creativecommons.org/ns#" xmlns:rdf="http://www.w3.org/1999/02/22-rdf-syntax-ns#">
   <cc:Work>
    <dc:type rdf:resource="http://purl.org/dc/dcmitype/StillImage"/>
    <dc:date>2024-01-24T17:16:16.482155</dc:date>
    <dc:format>image/svg+xml</dc:format>
    <dc:creator>
     <cc:Agent>
      <dc:title>Matplotlib v3.8.2, https://matplotlib.org/</dc:title>
     </cc:Agent>
    </dc:creator>
   </cc:Work>
  </rdf:RDF>
 </metadata>
 <defs>
  <style type="text/css">*{stroke-linejoin: round; stroke-linecap: butt}</style>
 </defs>
 <g id="figure_1">
  <g id="patch_1">
   <path d="M 0 494.981304 
L 1072.330625 494.981304 
L 1072.330625 0 
L 0 0 
z
" style="fill: #ffffff"/>
  </g>
  <g id="axes_1">
   <g id="patch_2">
    <path d="M 57.330625 419.14798 
L 1065.130625 419.14798 
L 1065.130625 7.2 
L 57.330625 7.2 
z
" style="fill: #ffffff"/>
   </g>
   <g id="matplotlib.axis_1">
    <g id="xtick_1">
     <g id="line2d_1">
      <defs>
       <path id="mad47ce32d7" d="M 0 0 
L 0 3.5 
" style="stroke: #000000; stroke-width: 0.8"/>
      </defs>
      <g>
       <use xlink:href="#mad47ce32d7" x="57.330625" y="419.14798" style="stroke: #000000; stroke-width: 0.8"/>
      </g>
     </g>
    </g>
    <g id="xtick_2">
     <g id="line2d_2">
      <g>
       <use xlink:href="#mad47ce32d7" x="1065.130625" y="419.14798" style="stroke: #000000; stroke-width: 0.8"/>
      </g>
     </g>
    </g>
    <g id="xtick_3">
     <g id="line2d_3">
      <defs>
       <path id="mfd0d61c9c4" d="M 0 0 
L 0 2 
" style="stroke: #000000; stroke-width: 0.6"/>
      </defs>
      <g>
       <use xlink:href="#mfd0d61c9c4" x="123.587372" y="419.14798" style="stroke: #000000; stroke-width: 0.6"/>
      </g>
     </g>
     <g id="text_1">
      <!-- 03 -->
      <g transform="translate(115.856214 435.34549) rotate(-10) scale(0.1 -0.1)">
       <defs>
        <path id="DejaVuSans-30" d="M 2034 4250 
Q 1547 4250 1301 3770 
Q 1056 3291 1056 2328 
Q 1056 1369 1301 889 
Q 1547 409 2034 409 
Q 2525 409 2770 889 
Q 3016 1369 3016 2328 
Q 3016 3291 2770 3770 
Q 2525 4250 2034 4250 
z
M 2034 4750 
Q 2819 4750 3233 4129 
Q 3647 3509 3647 2328 
Q 3647 1150 3233 529 
Q 2819 -91 2034 -91 
Q 1250 -91 836 529 
Q 422 1150 422 2328 
Q 422 3509 836 4129 
Q 1250 4750 2034 4750 
z
" transform="scale(0.015625)"/>
        <path id="DejaVuSans-33" d="M 2597 2516 
Q 3050 2419 3304 2112 
Q 3559 1806 3559 1356 
Q 3559 666 3084 287 
Q 2609 -91 1734 -91 
Q 1441 -91 1130 -33 
Q 819 25 488 141 
L 488 750 
Q 750 597 1062 519 
Q 1375 441 1716 441 
Q 2309 441 2620 675 
Q 2931 909 2931 1356 
Q 2931 1769 2642 2001 
Q 2353 2234 1838 2234 
L 1294 2234 
L 1294 2753 
L 1863 2753 
Q 2328 2753 2575 2939 
Q 2822 3125 2822 3475 
Q 2822 3834 2567 4026 
Q 2313 4219 1838 4219 
Q 1578 4219 1281 4162 
Q 984 4106 628 3988 
L 628 4550 
Q 988 4650 1302 4700 
Q 1616 4750 1894 4750 
Q 2613 4750 3031 4423 
Q 3450 4097 3450 3541 
Q 3450 3153 3228 2886 
Q 3006 2619 2597 2516 
z
" transform="scale(0.015625)"/>
       </defs>
       <use xlink:href="#DejaVuSans-30"/>
       <use xlink:href="#DejaVuSans-33" x="63.623047"/>
      </g>
      <!-- Jul -->
      <g transform="translate(118.125372 446.315933) rotate(-10) scale(0.1 -0.1)">
       <defs>
        <path id="DejaVuSans-4a" d="M 628 4666 
L 1259 4666 
L 1259 325 
Q 1259 -519 939 -900 
Q 619 -1281 -91 -1281 
L -331 -1281 
L -331 -750 
L -134 -750 
Q 284 -750 456 -515 
Q 628 -281 628 325 
L 628 4666 
z
" transform="scale(0.015625)"/>
        <path id="DejaVuSans-75" d="M 544 1381 
L 544 3500 
L 1119 3500 
L 1119 1403 
Q 1119 906 1312 657 
Q 1506 409 1894 409 
Q 2359 409 2629 706 
Q 2900 1003 2900 1516 
L 2900 3500 
L 3475 3500 
L 3475 0 
L 2900 0 
L 2900 538 
Q 2691 219 2414 64 
Q 2138 -91 1772 -91 
Q 1169 -91 856 284 
Q 544 659 544 1381 
z
M 1991 3584 
L 1991 3584 
z
" transform="scale(0.015625)"/>
        <path id="DejaVuSans-6c" d="M 603 4863 
L 1178 4863 
L 1178 0 
L 603 0 
L 603 4863 
z
" transform="scale(0.015625)"/>
       </defs>
       <use xlink:href="#DejaVuSans-4a"/>
       <use xlink:href="#DejaVuSans-75" x="29.492188"/>
       <use xlink:href="#DejaVuSans-6c" x="92.871094"/>
      </g>
      <!-- 2010 -->
      <g transform="translate(113.479334 458.505712) rotate(-10) scale(0.1 -0.1)">
       <defs>
        <path id="DejaVuSans-32" d="M 1228 531 
L 3431 531 
L 3431 0 
L 469 0 
L 469 531 
Q 828 903 1448 1529 
Q 2069 2156 2228 2338 
Q 2531 2678 2651 2914 
Q 2772 3150 2772 3378 
Q 2772 3750 2511 3984 
Q 2250 4219 1831 4219 
Q 1534 4219 1204 4116 
Q 875 4013 500 3803 
L 500 4441 
Q 881 4594 1212 4672 
Q 1544 4750 1819 4750 
Q 2544 4750 2975 4387 
Q 3406 4025 3406 3419 
Q 3406 3131 3298 2873 
Q 3191 2616 2906 2266 
Q 2828 2175 2409 1742 
Q 1991 1309 1228 531 
z
" transform="scale(0.015625)"/>
        <path id="DejaVuSans-31" d="M 794 531 
L 1825 531 
L 1825 4091 
L 703 3866 
L 703 4441 
L 1819 4666 
L 2450 4666 
L 2450 531 
L 3481 531 
L 3481 0 
L 794 0 
L 794 531 
z
" transform="scale(0.015625)"/>
       </defs>
       <use xlink:href="#DejaVuSans-32"/>
       <use xlink:href="#DejaVuSans-30" x="63.623047"/>
       <use xlink:href="#DejaVuSans-31" x="127.246094"/>
       <use xlink:href="#DejaVuSans-30" x="190.869141"/>
      </g>
     </g>
    </g>
    <g id="xtick_4">
     <g id="line2d_4">
      <g>
       <use xlink:href="#mfd0d61c9c4" x="207.280106" y="419.14798" style="stroke: #000000; stroke-width: 0.6"/>
      </g>
     </g>
     <g id="text_2">
      <!-- 04 -->
      <g transform="translate(201.493427 434.240653) rotate(-10) scale(0.1 -0.1)">
       <defs>
        <path id="DejaVuSans-34" d="M 2419 4116 
L 825 1625 
L 2419 1625 
L 2419 4116 
z
M 2253 4666 
L 3047 4666 
L 3047 1625 
L 3713 1625 
L 3713 1100 
L 3047 1100 
L 3047 0 
L 2419 0 
L 2419 1100 
L 313 1100 
L 313 1709 
L 2253 4666 
z
" transform="scale(0.015625)"/>
       </defs>
       <use xlink:href="#DejaVuSans-30"/>
       <use xlink:href="#DejaVuSans-34" x="63.623047"/>
      </g>
     </g>
    </g>
    <g id="xtick_5">
     <g id="line2d_5">
      <g>
       <use xlink:href="#mfd0d61c9c4" x="290.97284" y="419.14798" style="stroke: #000000; stroke-width: 0.6"/>
      </g>
     </g>
     <g id="text_3">
      <!-- 05 -->
      <g transform="translate(285.186161 434.240653) rotate(-10) scale(0.1 -0.1)">
       <defs>
        <path id="DejaVuSans-35" d="M 691 4666 
L 3169 4666 
L 3169 4134 
L 1269 4134 
L 1269 2991 
Q 1406 3038 1543 3061 
Q 1681 3084 1819 3084 
Q 2600 3084 3056 2656 
Q 3513 2228 3513 1497 
Q 3513 744 3044 326 
Q 2575 -91 1722 -91 
Q 1428 -91 1123 -41 
Q 819 9 494 109 
L 494 744 
Q 775 591 1075 516 
Q 1375 441 1709 441 
Q 2250 441 2565 725 
Q 2881 1009 2881 1497 
Q 2881 1984 2565 2268 
Q 2250 2553 1709 2553 
Q 1456 2553 1204 2497 
Q 953 2441 691 2322 
L 691 4666 
z
" transform="scale(0.015625)"/>
       </defs>
       <use xlink:href="#DejaVuSans-30"/>
       <use xlink:href="#DejaVuSans-35" x="63.623047"/>
      </g>
     </g>
    </g>
    <g id="xtick_6">
     <g id="line2d_6">
      <g>
       <use xlink:href="#mfd0d61c9c4" x="374.665573" y="419.14798" style="stroke: #000000; stroke-width: 0.6"/>
      </g>
     </g>
     <g id="text_4">
      <!-- 06 -->
      <g transform="translate(368.878894 434.240653) rotate(-10) scale(0.1 -0.1)">
       <defs>
        <path id="DejaVuSans-36" d="M 2113 2584 
Q 1688 2584 1439 2293 
Q 1191 2003 1191 1497 
Q 1191 994 1439 701 
Q 1688 409 2113 409 
Q 2538 409 2786 701 
Q 3034 994 3034 1497 
Q 3034 2003 2786 2293 
Q 2538 2584 2113 2584 
z
M 3366 4563 
L 3366 3988 
Q 3128 4100 2886 4159 
Q 2644 4219 2406 4219 
Q 1781 4219 1451 3797 
Q 1122 3375 1075 2522 
Q 1259 2794 1537 2939 
Q 1816 3084 2150 3084 
Q 2853 3084 3261 2657 
Q 3669 2231 3669 1497 
Q 3669 778 3244 343 
Q 2819 -91 2113 -91 
Q 1303 -91 875 529 
Q 447 1150 447 2328 
Q 447 3434 972 4092 
Q 1497 4750 2381 4750 
Q 2619 4750 2861 4703 
Q 3103 4656 3366 4563 
z
" transform="scale(0.015625)"/>
       </defs>
       <use xlink:href="#DejaVuSans-30"/>
       <use xlink:href="#DejaVuSans-36" x="63.623047"/>
      </g>
     </g>
    </g>
    <g id="xtick_7">
     <g id="line2d_7">
      <g>
       <use xlink:href="#mfd0d61c9c4" x="458.358307" y="419.14798" style="stroke: #000000; stroke-width: 0.6"/>
      </g>
     </g>
     <g id="text_5">
      <!-- 07 -->
      <g transform="translate(452.571628 434.240653) rotate(-10) scale(0.1 -0.1)">
       <defs>
        <path id="DejaVuSans-37" d="M 525 4666 
L 3525 4666 
L 3525 4397 
L 1831 0 
L 1172 0 
L 2766 4134 
L 525 4134 
L 525 4666 
z
" transform="scale(0.015625)"/>
       </defs>
       <use xlink:href="#DejaVuSans-30"/>
       <use xlink:href="#DejaVuSans-37" x="63.623047"/>
      </g>
     </g>
    </g>
    <g id="xtick_8">
     <g id="line2d_8">
      <g>
       <use xlink:href="#mfd0d61c9c4" x="542.05104" y="419.14798" style="stroke: #000000; stroke-width: 0.6"/>
      </g>
     </g>
     <g id="text_6">
      <!-- 08 -->
      <g transform="translate(536.264361 434.240653) rotate(-10) scale(0.1 -0.1)">
       <defs>
        <path id="DejaVuSans-38" d="M 2034 2216 
Q 1584 2216 1326 1975 
Q 1069 1734 1069 1313 
Q 1069 891 1326 650 
Q 1584 409 2034 409 
Q 2484 409 2743 651 
Q 3003 894 3003 1313 
Q 3003 1734 2745 1975 
Q 2488 2216 2034 2216 
z
M 1403 2484 
Q 997 2584 770 2862 
Q 544 3141 544 3541 
Q 544 4100 942 4425 
Q 1341 4750 2034 4750 
Q 2731 4750 3128 4425 
Q 3525 4100 3525 3541 
Q 3525 3141 3298 2862 
Q 3072 2584 2669 2484 
Q 3125 2378 3379 2068 
Q 3634 1759 3634 1313 
Q 3634 634 3220 271 
Q 2806 -91 2034 -91 
Q 1263 -91 848 271 
Q 434 634 434 1313 
Q 434 1759 690 2068 
Q 947 2378 1403 2484 
z
M 1172 3481 
Q 1172 3119 1398 2916 
Q 1625 2713 2034 2713 
Q 2441 2713 2670 2916 
Q 2900 3119 2900 3481 
Q 2900 3844 2670 4047 
Q 2441 4250 2034 4250 
Q 1625 4250 1398 4047 
Q 1172 3844 1172 3481 
z
" transform="scale(0.015625)"/>
       </defs>
       <use xlink:href="#DejaVuSans-30"/>
       <use xlink:href="#DejaVuSans-38" x="63.623047"/>
      </g>
     </g>
    </g>
    <g id="xtick_9">
     <g id="line2d_9">
      <g>
       <use xlink:href="#mfd0d61c9c4" x="625.743774" y="419.14798" style="stroke: #000000; stroke-width: 0.6"/>
      </g>
     </g>
     <g id="text_7">
      <!-- 09 -->
      <g transform="translate(619.957095 434.240653) rotate(-10) scale(0.1 -0.1)">
       <defs>
        <path id="DejaVuSans-39" d="M 703 97 
L 703 672 
Q 941 559 1184 500 
Q 1428 441 1663 441 
Q 2288 441 2617 861 
Q 2947 1281 2994 2138 
Q 2813 1869 2534 1725 
Q 2256 1581 1919 1581 
Q 1219 1581 811 2004 
Q 403 2428 403 3163 
Q 403 3881 828 4315 
Q 1253 4750 1959 4750 
Q 2769 4750 3195 4129 
Q 3622 3509 3622 2328 
Q 3622 1225 3098 567 
Q 2575 -91 1691 -91 
Q 1453 -91 1209 -44 
Q 966 3 703 97 
z
M 1959 2075 
Q 2384 2075 2632 2365 
Q 2881 2656 2881 3163 
Q 2881 3666 2632 3958 
Q 2384 4250 1959 4250 
Q 1534 4250 1286 3958 
Q 1038 3666 1038 3163 
Q 1038 2656 1286 2365 
Q 1534 2075 1959 2075 
z
" transform="scale(0.015625)"/>
       </defs>
       <use xlink:href="#DejaVuSans-30"/>
       <use xlink:href="#DejaVuSans-39" x="63.623047"/>
      </g>
     </g>
    </g>
    <g id="xtick_10">
     <g id="line2d_10">
      <g>
       <use xlink:href="#mfd0d61c9c4" x="709.436507" y="419.14798" style="stroke: #000000; stroke-width: 0.6"/>
      </g>
     </g>
     <g id="text_8">
      <!-- 10 -->
      <g transform="translate(703.649828 434.240653) rotate(-10) scale(0.1 -0.1)">
       <use xlink:href="#DejaVuSans-31"/>
       <use xlink:href="#DejaVuSans-30" x="63.623047"/>
      </g>
     </g>
    </g>
    <g id="xtick_11">
     <g id="line2d_11">
      <g>
       <use xlink:href="#mfd0d61c9c4" x="793.129241" y="419.14798" style="stroke: #000000; stroke-width: 0.6"/>
      </g>
     </g>
     <g id="text_9">
      <!-- 11 -->
      <g transform="translate(787.342562 434.240653) rotate(-10) scale(0.1 -0.1)">
       <use xlink:href="#DejaVuSans-31"/>
       <use xlink:href="#DejaVuSans-31" x="63.623047"/>
      </g>
     </g>
    </g>
    <g id="xtick_12">
     <g id="line2d_12">
      <g>
       <use xlink:href="#mfd0d61c9c4" x="876.821974" y="419.14798" style="stroke: #000000; stroke-width: 0.6"/>
      </g>
     </g>
     <g id="text_10">
      <!-- 12 -->
      <g transform="translate(871.035296 434.240653) rotate(-10) scale(0.1 -0.1)">
       <use xlink:href="#DejaVuSans-31"/>
       <use xlink:href="#DejaVuSans-32" x="63.623047"/>
      </g>
     </g>
    </g>
    <g id="xtick_13">
     <g id="line2d_13">
      <g>
       <use xlink:href="#mfd0d61c9c4" x="960.514708" y="419.14798" style="stroke: #000000; stroke-width: 0.6"/>
      </g>
     </g>
     <g id="text_11">
      <!-- 13 -->
      <g transform="translate(954.728029 434.240653) rotate(-10) scale(0.1 -0.1)">
       <use xlink:href="#DejaVuSans-31"/>
       <use xlink:href="#DejaVuSans-33" x="63.623047"/>
      </g>
     </g>
    </g>
    <g id="xtick_14">
     <g id="line2d_14">
      <g>
       <use xlink:href="#mfd0d61c9c4" x="1044.207442" y="419.14798" style="stroke: #000000; stroke-width: 0.6"/>
      </g>
     </g>
     <g id="text_12">
      <!-- 14 -->
      <g transform="translate(1038.420763 434.240653) rotate(-10) scale(0.1 -0.1)">
       <use xlink:href="#DejaVuSans-31"/>
       <use xlink:href="#DejaVuSans-34" x="63.623047"/>
      </g>
     </g>
    </g>
    <g id="text_13">
     <!-- Time [hours] -->
     <g transform="translate(484.955625 482.790054) scale(0.24 -0.24)">
      <defs>
       <path id="DejaVuSans-54" d="M -19 4666 
L 3928 4666 
L 3928 4134 
L 2272 4134 
L 2272 0 
L 1638 0 
L 1638 4134 
L -19 4134 
L -19 4666 
z
" transform="scale(0.015625)"/>
       <path id="DejaVuSans-69" d="M 603 3500 
L 1178 3500 
L 1178 0 
L 603 0 
L 603 3500 
z
M 603 4863 
L 1178 4863 
L 1178 4134 
L 603 4134 
L 603 4863 
z
" transform="scale(0.015625)"/>
       <path id="DejaVuSans-6d" d="M 3328 2828 
Q 3544 3216 3844 3400 
Q 4144 3584 4550 3584 
Q 5097 3584 5394 3201 
Q 5691 2819 5691 2113 
L 5691 0 
L 5113 0 
L 5113 2094 
Q 5113 2597 4934 2840 
Q 4756 3084 4391 3084 
Q 3944 3084 3684 2787 
Q 3425 2491 3425 1978 
L 3425 0 
L 2847 0 
L 2847 2094 
Q 2847 2600 2669 2842 
Q 2491 3084 2119 3084 
Q 1678 3084 1418 2786 
Q 1159 2488 1159 1978 
L 1159 0 
L 581 0 
L 581 3500 
L 1159 3500 
L 1159 2956 
Q 1356 3278 1631 3431 
Q 1906 3584 2284 3584 
Q 2666 3584 2933 3390 
Q 3200 3197 3328 2828 
z
" transform="scale(0.015625)"/>
       <path id="DejaVuSans-65" d="M 3597 1894 
L 3597 1613 
L 953 1613 
Q 991 1019 1311 708 
Q 1631 397 2203 397 
Q 2534 397 2845 478 
Q 3156 559 3463 722 
L 3463 178 
Q 3153 47 2828 -22 
Q 2503 -91 2169 -91 
Q 1331 -91 842 396 
Q 353 884 353 1716 
Q 353 2575 817 3079 
Q 1281 3584 2069 3584 
Q 2775 3584 3186 3129 
Q 3597 2675 3597 1894 
z
M 3022 2063 
Q 3016 2534 2758 2815 
Q 2500 3097 2075 3097 
Q 1594 3097 1305 2825 
Q 1016 2553 972 2059 
L 3022 2063 
z
" transform="scale(0.015625)"/>
       <path id="DejaVuSans-20" transform="scale(0.015625)"/>
       <path id="DejaVuSans-5b" d="M 550 4863 
L 1875 4863 
L 1875 4416 
L 1125 4416 
L 1125 -397 
L 1875 -397 
L 1875 -844 
L 550 -844 
L 550 4863 
z
" transform="scale(0.015625)"/>
       <path id="DejaVuSans-68" d="M 3513 2113 
L 3513 0 
L 2938 0 
L 2938 2094 
Q 2938 2591 2744 2837 
Q 2550 3084 2163 3084 
Q 1697 3084 1428 2787 
Q 1159 2491 1159 1978 
L 1159 0 
L 581 0 
L 581 4863 
L 1159 4863 
L 1159 2956 
Q 1366 3272 1645 3428 
Q 1925 3584 2291 3584 
Q 2894 3584 3203 3211 
Q 3513 2838 3513 2113 
z
" transform="scale(0.015625)"/>
       <path id="DejaVuSans-6f" d="M 1959 3097 
Q 1497 3097 1228 2736 
Q 959 2375 959 1747 
Q 959 1119 1226 758 
Q 1494 397 1959 397 
Q 2419 397 2687 759 
Q 2956 1122 2956 1747 
Q 2956 2369 2687 2733 
Q 2419 3097 1959 3097 
z
M 1959 3584 
Q 2709 3584 3137 3096 
Q 3566 2609 3566 1747 
Q 3566 888 3137 398 
Q 2709 -91 1959 -91 
Q 1206 -91 779 398 
Q 353 888 353 1747 
Q 353 2609 779 3096 
Q 1206 3584 1959 3584 
z
" transform="scale(0.015625)"/>
       <path id="DejaVuSans-72" d="M 2631 2963 
Q 2534 3019 2420 3045 
Q 2306 3072 2169 3072 
Q 1681 3072 1420 2755 
Q 1159 2438 1159 1844 
L 1159 0 
L 581 0 
L 581 3500 
L 1159 3500 
L 1159 2956 
Q 1341 3275 1631 3429 
Q 1922 3584 2338 3584 
Q 2397 3584 2469 3576 
Q 2541 3569 2628 3553 
L 2631 2963 
z
" transform="scale(0.015625)"/>
       <path id="DejaVuSans-73" d="M 2834 3397 
L 2834 2853 
Q 2591 2978 2328 3040 
Q 2066 3103 1784 3103 
Q 1356 3103 1142 2972 
Q 928 2841 928 2578 
Q 928 2378 1081 2264 
Q 1234 2150 1697 2047 
L 1894 2003 
Q 2506 1872 2764 1633 
Q 3022 1394 3022 966 
Q 3022 478 2636 193 
Q 2250 -91 1575 -91 
Q 1294 -91 989 -36 
Q 684 19 347 128 
L 347 722 
Q 666 556 975 473 
Q 1284 391 1588 391 
Q 1994 391 2212 530 
Q 2431 669 2431 922 
Q 2431 1156 2273 1281 
Q 2116 1406 1581 1522 
L 1381 1569 
Q 847 1681 609 1914 
Q 372 2147 372 2553 
Q 372 3047 722 3315 
Q 1072 3584 1716 3584 
Q 2034 3584 2315 3537 
Q 2597 3491 2834 3397 
z
" transform="scale(0.015625)"/>
       <path id="DejaVuSans-5d" d="M 1947 4863 
L 1947 -844 
L 622 -844 
L 622 -397 
L 1369 -397 
L 1369 4416 
L 622 4416 
L 622 4863 
L 1947 4863 
z
" transform="scale(0.015625)"/>
      </defs>
      <use xlink:href="#DejaVuSans-54"/>
      <use xlink:href="#DejaVuSans-69" x="57.958984"/>
      <use xlink:href="#DejaVuSans-6d" x="85.742188"/>
      <use xlink:href="#DejaVuSans-65" x="183.154297"/>
      <use xlink:href="#DejaVuSans-20" x="244.677734"/>
      <use xlink:href="#DejaVuSans-5b" x="276.464844"/>
      <use xlink:href="#DejaVuSans-68" x="315.478516"/>
      <use xlink:href="#DejaVuSans-6f" x="378.857422"/>
      <use xlink:href="#DejaVuSans-75" x="440.039062"/>
      <use xlink:href="#DejaVuSans-72" x="503.417969"/>
      <use xlink:href="#DejaVuSans-73" x="544.53125"/>
      <use xlink:href="#DejaVuSans-5d" x="596.630859"/>
     </g>
    </g>
   </g>
   <g id="matplotlib.axis_2">
    <g id="ytick_1">
     <g id="line2d_15">
      <defs>
       <path id="me3d42019c0" d="M 0 0 
L -3.5 0 
" style="stroke: #000000; stroke-width: 0.8"/>
      </defs>
      <g>
       <use xlink:href="#me3d42019c0" x="57.330625" y="400.423072" style="stroke: #000000; stroke-width: 0.8"/>
      </g>
     </g>
     <g id="text_14">
      <!-- 0.0 -->
      <g transform="translate(34.4275 404.222291) scale(0.1 -0.1)">
       <defs>
        <path id="DejaVuSans-2e" d="M 684 794 
L 1344 794 
L 1344 0 
L 684 0 
L 684 794 
z
" transform="scale(0.015625)"/>
       </defs>
       <use xlink:href="#DejaVuSans-30"/>
       <use xlink:href="#DejaVuSans-2e" x="63.623047"/>
       <use xlink:href="#DejaVuSans-30" x="95.410156"/>
      </g>
     </g>
    </g>
    <g id="ytick_2">
     <g id="line2d_16">
      <g>
       <use xlink:href="#me3d42019c0" x="57.330625" y="338.929121" style="stroke: #000000; stroke-width: 0.8"/>
      </g>
     </g>
     <g id="text_15">
      <!-- 0.1 -->
      <g transform="translate(34.4275 342.728339) scale(0.1 -0.1)">
       <use xlink:href="#DejaVuSans-30"/>
       <use xlink:href="#DejaVuSans-2e" x="63.623047"/>
       <use xlink:href="#DejaVuSans-31" x="95.410156"/>
      </g>
     </g>
    </g>
    <g id="ytick_3">
     <g id="line2d_17">
      <g>
       <use xlink:href="#me3d42019c0" x="57.330625" y="277.435169" style="stroke: #000000; stroke-width: 0.8"/>
      </g>
     </g>
     <g id="text_16">
      <!-- 0.2 -->
      <g transform="translate(34.4275 281.234388) scale(0.1 -0.1)">
       <use xlink:href="#DejaVuSans-30"/>
       <use xlink:href="#DejaVuSans-2e" x="63.623047"/>
       <use xlink:href="#DejaVuSans-32" x="95.410156"/>
      </g>
     </g>
    </g>
    <g id="ytick_4">
     <g id="line2d_18">
      <g>
       <use xlink:href="#me3d42019c0" x="57.330625" y="215.941218" style="stroke: #000000; stroke-width: 0.8"/>
      </g>
     </g>
     <g id="text_17">
      <!-- 0.3 -->
      <g transform="translate(34.4275 219.740437) scale(0.1 -0.1)">
       <use xlink:href="#DejaVuSans-30"/>
       <use xlink:href="#DejaVuSans-2e" x="63.623047"/>
       <use xlink:href="#DejaVuSans-33" x="95.410156"/>
      </g>
     </g>
    </g>
    <g id="ytick_5">
     <g id="line2d_19">
      <g>
       <use xlink:href="#me3d42019c0" x="57.330625" y="154.447267" style="stroke: #000000; stroke-width: 0.8"/>
      </g>
     </g>
     <g id="text_18">
      <!-- 0.4 -->
      <g transform="translate(34.4275 158.246485) scale(0.1 -0.1)">
       <use xlink:href="#DejaVuSans-30"/>
       <use xlink:href="#DejaVuSans-2e" x="63.623047"/>
       <use xlink:href="#DejaVuSans-34" x="95.410156"/>
      </g>
     </g>
    </g>
    <g id="ytick_6">
     <g id="line2d_20">
      <g>
       <use xlink:href="#me3d42019c0" x="57.330625" y="92.953315" style="stroke: #000000; stroke-width: 0.8"/>
      </g>
     </g>
     <g id="text_19">
      <!-- 0.5 -->
      <g transform="translate(34.4275 96.752534) scale(0.1 -0.1)">
       <use xlink:href="#DejaVuSans-30"/>
       <use xlink:href="#DejaVuSans-2e" x="63.623047"/>
       <use xlink:href="#DejaVuSans-35" x="95.410156"/>
      </g>
     </g>
    </g>
    <g id="ytick_7">
     <g id="line2d_21">
      <g>
       <use xlink:href="#me3d42019c0" x="57.330625" y="31.459364" style="stroke: #000000; stroke-width: 0.8"/>
      </g>
     </g>
     <g id="text_20">
      <!-- 0.6 -->
      <g transform="translate(34.4275 35.258583) scale(0.1 -0.1)">
       <use xlink:href="#DejaVuSans-30"/>
       <use xlink:href="#DejaVuSans-2e" x="63.623047"/>
       <use xlink:href="#DejaVuSans-36" x="95.410156"/>
      </g>
     </g>
    </g>
    <g id="text_21">
     <!-- PV [kW] -->
     <g transform="translate(25.43625 260.609615) rotate(-90) scale(0.24 -0.24)">
      <defs>
       <path id="DejaVuSans-50" d="M 1259 4147 
L 1259 2394 
L 2053 2394 
Q 2494 2394 2734 2622 
Q 2975 2850 2975 3272 
Q 2975 3691 2734 3919 
Q 2494 4147 2053 4147 
L 1259 4147 
z
M 628 4666 
L 2053 4666 
Q 2838 4666 3239 4311 
Q 3641 3956 3641 3272 
Q 3641 2581 3239 2228 
Q 2838 1875 2053 1875 
L 1259 1875 
L 1259 0 
L 628 0 
L 628 4666 
z
" transform="scale(0.015625)"/>
       <path id="DejaVuSans-56" d="M 1831 0 
L 50 4666 
L 709 4666 
L 2188 738 
L 3669 4666 
L 4325 4666 
L 2547 0 
L 1831 0 
z
" transform="scale(0.015625)"/>
       <path id="DejaVuSans-6b" d="M 581 4863 
L 1159 4863 
L 1159 1991 
L 2875 3500 
L 3609 3500 
L 1753 1863 
L 3688 0 
L 2938 0 
L 1159 1709 
L 1159 0 
L 581 0 
L 581 4863 
z
" transform="scale(0.015625)"/>
       <path id="DejaVuSans-57" d="M 213 4666 
L 850 4666 
L 1831 722 
L 2809 4666 
L 3519 4666 
L 4500 722 
L 5478 4666 
L 6119 4666 
L 4947 0 
L 4153 0 
L 3169 4050 
L 2175 0 
L 1381 0 
L 213 4666 
z
" transform="scale(0.015625)"/>
      </defs>
      <use xlink:href="#DejaVuSans-50"/>
      <use xlink:href="#DejaVuSans-56" x="60.302734"/>
      <use xlink:href="#DejaVuSans-20" x="128.710938"/>
      <use xlink:href="#DejaVuSans-5b" x="160.498047"/>
      <use xlink:href="#DejaVuSans-6b" x="199.511719"/>
      <use xlink:href="#DejaVuSans-57" x="257.421875"/>
      <use xlink:href="#DejaVuSans-5d" x="356.298828"/>
     </g>
    </g>
   </g>
   <g id="line2d_22">
    <path d="M 57.330625 400.423072 
L 64.305019 400.423072 
L 67.792217 392.428858 
L 71.279414 381.359947 
L 74.766611 357.992246 
L 78.253808 365.986459 
L 81.741006 357.992246 
L 85.228203 342.618758 
L 88.7154 361.681883 
L 92.202597 377.05537 
L 99.176992 400.423072 
L 147.997753 400.423072 
L 151.48495 388.739221 
L 154.972147 346.308395 
L 158.459345 292.808657 
L 161.946542 246.688194 
L 165.433739 219.630855 
L 168.920936 212.251581 
L 172.408134 223.320492 
L 175.895331 250.377831 
L 179.382528 304.492508 
L 182.869725 400.423072 
L 231.690487 400.423072 
L 235.177684 392.428858 
L 238.664881 346.308395 
L 242.152078 292.808657 
L 245.639276 254.067468 
L 249.126473 250.377831 
L 252.61367 292.808657 
L 256.100867 223.320492 
L 259.588064 254.067468 
L 263.075262 308.182145 
L 266.562459 400.423072 
L 315.38322 400.423072 
L 318.870417 388.739221 
L 322.357615 369.676096 
L 325.844812 373.365733 
L 329.332009 381.359947 
L 332.819206 346.308395 
L 336.306404 369.676096 
L 339.793601 373.365733 
L 343.280798 388.739221 
L 346.767995 388.739221 
L 350.255192 400.423072 
L 371.178376 400.423072 
L 374.665573 396.733435 
L 378.15277 400.423072 
L 399.075954 400.423072 
L 402.563151 396.733435 
L 406.050348 346.308395 
L 409.537545 346.308395 
L 413.024743 304.492508 
L 416.51194 258.372044 
L 419.999137 215.941218 
L 423.486334 342.618758 
L 426.973532 369.676096 
L 430.460729 392.428858 
L 433.947926 400.423072 
L 482.768687 400.423072 
L 486.255885 396.733435 
L 489.743082 388.739221 
L 493.230279 381.359947 
L 496.717476 388.739221 
L 500.204673 388.739221 
L 503.691871 377.05537 
L 507.179068 250.377831 
L 510.666265 262.061681 
L 514.153462 330.934907 
L 517.64066 396.733435 
L 521.127857 400.423072 
L 566.461421 400.423072 
L 569.948618 392.428858 
L 573.435815 357.992246 
L 576.923013 330.934907 
L 580.41021 335.239484 
L 583.897407 277.435169 
L 587.384604 342.618758 
L 590.871801 357.992246 
L 594.358999 357.992246 
L 597.846196 385.049584 
L 601.333393 396.733435 
L 604.82059 400.423072 
L 650.154154 400.423072 
L 653.641352 392.428858 
L 657.128549 373.365733 
L 660.615746 315.561419 
L 664.102943 246.688194 
L 667.590141 242.998556 
L 671.077338 258.372044 
L 674.564535 323.555633 
L 678.051732 365.986459 
L 681.538929 365.986459 
L 685.026127 400.423072 
L 733.846888 400.423072 
L 737.334085 388.739221 
L 740.821282 346.308395 
L 744.30848 335.239484 
L 747.795677 284.814443 
L 751.282874 300.187931 
L 754.770071 311.871782 
L 758.257269 246.688194 
L 761.744466 377.05537 
L 765.231663 373.365733 
L 768.71886 400.423072 
L 789.642044 400.423072 
L 793.129241 396.733435 
L 796.616438 400.423072 
L 814.052424 400.423072 
L 817.539622 396.733435 
L 821.026819 396.733435 
L 828.001213 357.992246 
L 831.48841 361.681883 
L 834.975608 238.69398 
L 838.462805 354.302608 
L 841.950002 381.359947 
L 845.437199 357.992246 
L 848.924397 392.428858 
L 852.411594 400.423072 
L 901.232355 400.423072 
L 904.719552 392.428858 
L 908.20675 377.05537 
L 911.693947 327.24527 
L 915.181144 296.498294 
L 918.668341 361.681883 
L 922.155538 369.676096 
L 925.642736 373.365733 
L 929.129933 361.681883 
L 932.61713 365.986459 
L 936.104327 396.733435 
L 939.591525 400.423072 
L 984.925089 400.423072 
L 988.412286 396.733435 
L 991.899483 373.365733 
L 995.38668 373.365733 
L 998.873878 369.676096 
L 1002.361075 381.359947 
L 1005.848272 377.05537 
L 1009.335469 369.676096 
L 1012.822667 388.739221 
L 1016.309864 396.733435 
L 1019.797061 400.423072 
L 1065.130625 400.423072 
L 1065.130625 400.423072 
" clip-path="url(#p84508c4a43)" style="fill: none; stroke: #a0a7bc; stroke-width: 2; stroke-linecap: square"/>
   </g>
   <g id="line2d_23">
    <path d="M 57.330625 400.423072 
L 64.305019 400.423072 
L 67.792217 389.354161 
L 71.279414 322.940693 
L 74.766611 341.388879 
L 78.253808 330.934907 
L 81.741006 306.337326 
L 85.228203 268.211077 
L 88.7154 292.808657 
L 92.202597 346.308395 
L 95.689795 381.974887 
L 99.176992 399.193193 
L 102.664189 400.423072 
L 147.997753 400.423072 
L 151.48495 370.905975 
L 154.972147 214.711339 
L 158.459345 113.246319 
L 161.946542 61.5914 
L 165.433739 28.999606 
L 168.920936 25.924908 
L 172.408134 84.959101 
L 175.895331 172.280512 
L 179.382528 298.343113 
L 182.869725 396.733435 
L 186.356923 400.423072 
L 231.690487 400.423072 
L 235.177684 370.291036 
L 238.664881 217.786036 
L 242.152078 118.165835 
L 245.639276 74.50513 
L 249.126473 98.487771 
L 252.61367 35.76394 
L 256.100867 112.01644 
L 259.588064 254.682407 
L 263.075262 304.492508 
L 266.562459 397.348374 
L 270.049656 400.423072 
L 315.38322 400.423072 
L 318.870417 388.124282 
L 322.357615 383.819705 
L 325.844812 368.446217 
L 329.332009 272.515653 
L 332.819206 290.963839 
L 336.306404 350.612971 
L 339.793601 349.998032 
L 343.280798 380.745008 
L 346.767995 386.279463 
L 350.255192 399.193193 
L 353.74239 400.423072 
L 399.075954 400.423072 
L 402.563151 389.9691 
L 406.050348 337.084302 
L 409.537545 276.82023 
L 413.024743 289.73396 
L 416.51194 123.085351 
L 419.999137 75.735009 
L 423.486334 335.239484 
L 426.973532 250.99277 
L 430.460729 380.130068 
L 433.947926 400.423072 
L 482.768687 400.423072 
L 486.255885 398.578253 
L 489.743082 381.974887 
L 493.230279 340.159 
L 496.717476 353.072729 
L 500.204673 375.210552 
L 503.691871 362.296822 
L 507.179068 369.061157 
L 510.666265 305.722387 
L 514.153462 313.101661 
L 517.64066 394.273677 
L 521.127857 400.423072 
L 566.461421 400.423072 
L 569.948618 396.733435 
L 573.435815 342.003818 
L 576.923013 298.343113 
L 580.41021 342.618758 
L 583.897407 375.210552 
L 587.384604 237.464101 
L 590.871801 345.078516 
L 594.358999 375.210552 
L 597.846196 396.118495 
L 601.333393 400.423072 
L 650.154154 400.423072 
L 653.641352 366.601399 
L 657.128549 384.434645 
L 660.615746 196.878093 
L 664.102943 220.860734 
L 667.590141 364.141641 
L 671.077338 375.825491 
L 674.564535 343.233697 
L 678.051732 361.066943 
L 681.538929 341.388879 
L 685.026127 399.808132 
L 688.513324 400.423072 
L 716.410902 400.423072 
L 719.898099 399.808132 
L 723.385296 400.423072 
L 733.846888 400.423072 
L 737.334085 367.216338 
L 740.821282 306.337326 
L 744.30848 250.99277 
L 747.795677 227.010129 
L 751.282874 206.717125 
L 754.770071 309.412024 
L 758.257269 177.200029 
L 761.744466 356.762367 
L 765.231663 353.687669 
L 768.71886 399.193193 
L 772.206058 400.423072 
L 817.539622 400.423072 
L 821.026819 396.733435 
L 824.514016 380.130068 
L 828.001213 342.003818 
L 831.48841 334.009605 
L 834.975608 330.934907 
L 838.462805 338.314181 
L 841.950002 349.383092 
L 845.437199 346.308395 
L 848.924397 375.210552 
L 852.411594 398.578253 
L 855.898791 400.423072 
L 901.232355 400.423072 
L 904.719552 367.831278 
L 908.20675 352.45779 
L 911.693947 300.187931 
L 915.181144 224.550371 
L 918.668341 339.54406 
L 922.155538 362.911762 
L 925.642736 281.124806 
L 929.129933 348.153213 
L 932.61713 370.905975 
L 936.104327 396.733435 
L 939.591525 400.423072 
L 984.925089 400.423072 
L 988.412286 385.049584 
L 991.899483 360.452004 
L 995.38668 242.383617 
L 1002.361075 346.923334 
L 1005.848272 358.607185 
L 1009.335469 340.773939 
L 1012.822667 362.911762 
L 1016.309864 390.58404 
L 1019.797061 400.423072 
L 1065.130625 400.423072 
L 1065.130625 400.423072 
" clip-path="url(#p84508c4a43)" style="fill: none; stroke: #13748b; stroke-width: 2; stroke-linecap: square"/>
   </g>
   <g id="patch_3">
    <path d="M 57.330625 419.14798 
L 57.330625 7.2 
" style="fill: none; stroke: #000000; stroke-width: 0.8; stroke-linejoin: miter; stroke-linecap: square"/>
   </g>
   <g id="patch_4">
    <path d="M 1065.130625 419.14798 
L 1065.130625 7.2 
" style="fill: none; stroke: #000000; stroke-width: 0.8; stroke-linejoin: miter; stroke-linecap: square"/>
   </g>
   <g id="patch_5">
    <path d="M 57.330625 419.14798 
L 1065.130625 419.14798 
" style="fill: none; stroke: #000000; stroke-width: 0.8; stroke-linejoin: miter; stroke-linecap: square"/>
   </g>
   <g id="patch_6">
    <path d="M 57.330625 7.2 
L 1065.130625 7.2 
" style="fill: none; stroke: #000000; stroke-width: 0.8; stroke-linejoin: miter; stroke-linecap: square"/>
   </g>
   <g id="legend_1">
    <g id="patch_7">
     <path d="M 773.812813 104.32625 
L 1046.930625 104.32625 
Q 1052.130625 104.32625 1052.130625 99.12625 
L 1052.130625 25.4 
Q 1052.130625 20.2 1046.930625 20.2 
L 773.812813 20.2 
Q 768.612813 20.2 768.612813 25.4 
L 768.612813 99.12625 
Q 768.612813 104.32625 773.812813 104.32625 
z
" style="fill: #ffffff; opacity: 0.8; stroke: #cccccc; stroke-linejoin: miter"/>
    </g>
    <g id="line2d_24">
     <path d="M 779.012812 41.255937 
L 805.012812 41.255937 
L 831.012812 41.255937 
" style="fill: none; stroke: #a0a7bc; stroke-width: 2; stroke-linecap: square"/>
    </g>
    <g id="text_22">
     <!-- Smart meter 1 -->
     <g transform="translate(851.812812 50.355937) scale(0.26 -0.26)">
      <defs>
       <path id="DejaVuSans-53" d="M 3425 4513 
L 3425 3897 
Q 3066 4069 2747 4153 
Q 2428 4238 2131 4238 
Q 1616 4238 1336 4038 
Q 1056 3838 1056 3469 
Q 1056 3159 1242 3001 
Q 1428 2844 1947 2747 
L 2328 2669 
Q 3034 2534 3370 2195 
Q 3706 1856 3706 1288 
Q 3706 609 3251 259 
Q 2797 -91 1919 -91 
Q 1588 -91 1214 -16 
Q 841 59 441 206 
L 441 856 
Q 825 641 1194 531 
Q 1563 422 1919 422 
Q 2459 422 2753 634 
Q 3047 847 3047 1241 
Q 3047 1584 2836 1778 
Q 2625 1972 2144 2069 
L 1759 2144 
Q 1053 2284 737 2584 
Q 422 2884 422 3419 
Q 422 4038 858 4394 
Q 1294 4750 2059 4750 
Q 2388 4750 2728 4690 
Q 3069 4631 3425 4513 
z
" transform="scale(0.015625)"/>
       <path id="DejaVuSans-61" d="M 2194 1759 
Q 1497 1759 1228 1600 
Q 959 1441 959 1056 
Q 959 750 1161 570 
Q 1363 391 1709 391 
Q 2188 391 2477 730 
Q 2766 1069 2766 1631 
L 2766 1759 
L 2194 1759 
z
M 3341 1997 
L 3341 0 
L 2766 0 
L 2766 531 
Q 2569 213 2275 61 
Q 1981 -91 1556 -91 
Q 1019 -91 701 211 
Q 384 513 384 1019 
Q 384 1609 779 1909 
Q 1175 2209 1959 2209 
L 2766 2209 
L 2766 2266 
Q 2766 2663 2505 2880 
Q 2244 3097 1772 3097 
Q 1472 3097 1187 3025 
Q 903 2953 641 2809 
L 641 3341 
Q 956 3463 1253 3523 
Q 1550 3584 1831 3584 
Q 2591 3584 2966 3190 
Q 3341 2797 3341 1997 
z
" transform="scale(0.015625)"/>
       <path id="DejaVuSans-74" d="M 1172 4494 
L 1172 3500 
L 2356 3500 
L 2356 3053 
L 1172 3053 
L 1172 1153 
Q 1172 725 1289 603 
Q 1406 481 1766 481 
L 2356 481 
L 2356 0 
L 1766 0 
Q 1100 0 847 248 
Q 594 497 594 1153 
L 594 3053 
L 172 3053 
L 172 3500 
L 594 3500 
L 594 4494 
L 1172 4494 
z
" transform="scale(0.015625)"/>
      </defs>
      <use xlink:href="#DejaVuSans-53"/>
      <use xlink:href="#DejaVuSans-6d" x="63.476562"/>
      <use xlink:href="#DejaVuSans-61" x="160.888672"/>
      <use xlink:href="#DejaVuSans-72" x="222.167969"/>
      <use xlink:href="#DejaVuSans-74" x="263.28125"/>
      <use xlink:href="#DejaVuSans-20" x="302.490234"/>
      <use xlink:href="#DejaVuSans-6d" x="334.277344"/>
      <use xlink:href="#DejaVuSans-65" x="431.689453"/>
      <use xlink:href="#DejaVuSans-74" x="493.212891"/>
      <use xlink:href="#DejaVuSans-65" x="532.421875"/>
      <use xlink:href="#DejaVuSans-72" x="593.945312"/>
      <use xlink:href="#DejaVuSans-20" x="635.058594"/>
      <use xlink:href="#DejaVuSans-31" x="666.845703"/>
     </g>
    </g>
    <g id="line2d_25">
     <path d="M 779.012812 79.419062 
L 805.012812 79.419062 
L 831.012812 79.419062 
" style="fill: none; stroke: #13748b; stroke-width: 2; stroke-linecap: square"/>
    </g>
    <g id="text_23">
     <!-- Smart meter 2 -->
     <g transform="translate(851.812812 88.519062) scale(0.26 -0.26)">
      <use xlink:href="#DejaVuSans-53"/>
      <use xlink:href="#DejaVuSans-6d" x="63.476562"/>
      <use xlink:href="#DejaVuSans-61" x="160.888672"/>
      <use xlink:href="#DejaVuSans-72" x="222.167969"/>
      <use xlink:href="#DejaVuSans-74" x="263.28125"/>
      <use xlink:href="#DejaVuSans-20" x="302.490234"/>
      <use xlink:href="#DejaVuSans-6d" x="334.277344"/>
      <use xlink:href="#DejaVuSans-65" x="431.689453"/>
      <use xlink:href="#DejaVuSans-74" x="493.212891"/>
      <use xlink:href="#DejaVuSans-65" x="532.421875"/>
      <use xlink:href="#DejaVuSans-72" x="593.945312"/>
      <use xlink:href="#DejaVuSans-20" x="635.058594"/>
      <use xlink:href="#DejaVuSans-32" x="666.845703"/>
     </g>
    </g>
   </g>
  </g>
 </g>
 <defs>
  <clipPath id="p84508c4a43">
   <rect x="57.330625" y="7.2" width="1007.8" height="411.94798"/>
  </clipPath>
 </defs>
</svg>
