<svg width="3374" height="1990" xmlns="http://www.w3.org/2000/svg" xmlns:xlink="http://www.w3.org/1999/xlink" xml:space="preserve" overflow="hidden"><g transform="translate(-6 -229)"><rect x="226.5" y="1731.5" width="89" height="102" stroke="#000000" stroke-width="6.875" stroke-miterlimit="8" fill="none"/><rect x="315.5" y="1731.5" width="90.0001" height="102" stroke="#000000" stroke-width="6.875" stroke-miterlimit="8" fill="none"/><rect x="405.5" y="1731.5" width="89.9997" height="102" stroke="#000000" stroke-width="6.875" stroke-miterlimit="8" fill="none"/><rect x="495.5" y="1731.5" width="89" height="102" stroke="#000000" stroke-width="6.875" stroke-miterlimit="8" fill="none"/><rect x="584.5" y="1731.5" width="90.0001" height="102" stroke="#000000" stroke-width="6.875" stroke-miterlimit="8" fill="none"/><rect x="674.5" y="1731.5" width="90.0001" height="102" stroke="#000000" stroke-width="6.875" stroke-miterlimit="8" fill="none"/><rect x="764.5" y="1731.5" width="89" height="102" stroke="#000000" stroke-width="6.875" stroke-miterlimit="8" fill="none"/><rect x="853.5" y="1731.5" width="90.0001" height="102" stroke="#000000" stroke-width="6.875" stroke-miterlimit="8" fill="none"/><text font-family="Cambria,Cambria_MSFontService,sans-serif" font-weight="400" font-size="110" transform="matrix(1 0 0 1 225.099 1957)">Input sequence</text><path d="M61.5 1529.83C61.5 1517.5 71.4994 1507.5 83.8342 1507.5L1087.17 1507.5C1099.5 1507.5 1109.5 1517.5 1109.5 1529.83L1109.5 1619.17C1109.5 1631.5 1099.5 1641.5 1087.17 1641.5L83.8342 1641.5C71.4994 1641.5 61.5 1631.5 61.5 1619.17Z" stroke="#13748B" stroke-width="4.58333" stroke-miterlimit="8" fill="#13748B" fill-rule="evenodd" fill-opacity="0.8"/><text font-family="Cambria,Cambria_MSFontService,sans-serif" font-weight="400" font-size="110" transform="matrix(1 0 0 1 451.883 1615)">LSTM</text><path d="M61.5 1240.83C61.5 1228.5 71.4994 1218.5 83.8342 1218.5L1087.17 1218.5C1099.5 1218.5 1109.5 1228.5 1109.5 1240.83L1109.5 1330.17C1109.5 1342.5 1099.5 1352.5 1087.17 1352.5L83.8342 1352.5C71.4994 1352.5 61.5 1342.5 61.5 1330.17Z" stroke="#13748B" stroke-width="4.58333" stroke-miterlimit="8" fill="#13748B" fill-rule="evenodd" fill-opacity="0.8"/><text font-family="Cambria,Cambria_MSFontService,sans-serif" font-weight="400" font-size="110" transform="matrix(1 0 0 1 451.883 1326)">LSTM</text><path d="M61.5 841.667C61.5 829.424 71.4245 819.5 83.6669 819.5L1087.33 819.5C1099.58 819.5 1109.5 829.424 1109.5 841.667L1109.5 930.333C1109.5 942.576 1099.58 952.5 1087.33 952.5L83.6669 952.5C71.4245 952.5 61.5 942.576 61.5 930.333Z" stroke="#13748B" stroke-width="4.58333" stroke-miterlimit="8" fill="#13748B" fill-rule="evenodd" fill-opacity="0.8"/><text font-family="Cambria,Cambria_MSFontService,sans-serif" font-weight="400" font-size="110" transform="matrix(1 0 0 1 451.883 927)">LSTM</text><path d="M61.5 609.667C61.5 597.424 71.4245 587.5 83.6669 587.5L1087.33 587.5C1099.58 587.5 1109.5 597.424 1109.5 609.667L1109.5 698.333C1109.5 710.576 1099.58 720.5 1087.33 720.5L83.6669 720.5C71.4245 720.5 61.5 710.576 61.5 698.333Z" stroke="#FFC000" stroke-width="4.58333" stroke-miterlimit="8" fill="#FFE9BB" fill-rule="evenodd"/><text font-family="Cambria,Cambria_MSFontService,sans-serif" font-weight="400" font-size="110" transform="matrix(1 0 0 1 290.125 694)">Dense</text><text font-family="Cambria,Cambria_MSFontService,sans-serif" font-weight="400" font-size="110" transform="matrix(1 0 0 1 603.511 694)">(FFN)</text><rect x="540.5" y="405.5" width="89" height="102" stroke="#000000" stroke-width="6.875" stroke-miterlimit="8" fill="none"/><text font-family="Cambria,Cambria_MSFontService,sans-serif" font-weight="400" font-size="110" transform="matrix(1 0 0 1 419.906 370)">Output</text><path d="M3.43729-0.0376035 4.17978 67.8321-2.69481 67.9073-3.43729 0.0376035ZM14.4415 63.1362 0.993176 90.785-13.0568 63.4371Z" transform="matrix(1 0 0 -1 584.5 1732.28)"/><path d="M3.4375-7.95738e-06 3.43781 132.985-3.43719 132.985-3.4375 7.95738e-06ZM13.7503 128.402 0.000360892 155.902-13.7497 128.402Z" transform="matrix(1 0 0 -1 585.5 1508.4)"/><path d="M3.4375-4.66427e-06 3.43783 243.056-3.43717 243.056-3.4375 4.66427e-06ZM13.7503 238.473 0.000360892 265.973-13.7497 238.473Z" transform="matrix(1 0 0 -1 585.5 1218.47)"/><path d="M3.4375-1.25525e-05 3.43778 75.9137-3.43722 75.9137-3.4375 1.25525e-05ZM13.7503 71.3303 0.000360892 98.8304-13.7497 71.3304Z" transform="matrix(1 0 0 -1 585.5 819.33)"/><path d="M581.907 587.137 581.306 530.452 588.18 530.379 588.781 587.064ZM571.042 535.144 584.5 507.5 598.541 534.853Z"/><rect x="2192.5" y="1731.5" width="90" height="102" stroke="#000000" stroke-width="6.875" stroke-miterlimit="8" fill="none"/><rect x="2282.5" y="1731.5" width="89" height="102" stroke="#000000" stroke-width="6.875" stroke-miterlimit="8" fill="none"/><rect x="2371.5" y="1731.5" width="90" height="102" stroke="#000000" stroke-width="6.875" stroke-miterlimit="8" fill="none"/><rect x="2461.5" y="1731.5" width="90" height="102" stroke="#000000" stroke-width="6.875" stroke-miterlimit="8" fill="none"/><rect x="2551.5" y="1731.5" width="88.9998" height="102" stroke="#000000" stroke-width="6.875" stroke-miterlimit="8" fill="none"/><rect x="2640.5" y="1731.5" width="90" height="102" stroke="#000000" stroke-width="6.875" stroke-miterlimit="8" fill="none"/><rect x="2730.5" y="1731.5" width="89" height="102" stroke="#000000" stroke-width="6.875" stroke-miterlimit="8" fill="none"/><rect x="2819.5" y="1731.5" width="90" height="102" stroke="#000000" stroke-width="6.875" stroke-miterlimit="8" fill="none"/><text font-family="Cambria,Cambria_MSFontService,sans-serif" font-weight="400" font-size="110" transform="matrix(1 0 0 1 2192.35 1957)">Input sequence</text><path d="M2031.5 1529.83C2031.5 1517.5 2041.5 1507.5 2053.83 1507.5L3056.17 1507.5C3068.5 1507.5 3078.5 1517.5 3078.5 1529.83L3078.5 1619.17C3078.5 1631.5 3068.5 1641.5 3056.17 1641.5L2053.83 1641.5C2041.5 1641.5 2031.5 1631.5 2031.5 1619.17Z" stroke="#13748B" stroke-width="4.58333" stroke-miterlimit="8" fill="#13748B" fill-rule="evenodd" fill-opacity="0.8"/><text font-family="Cambria,Cambria_MSFontService,sans-serif" font-weight="400" font-size="110" transform="matrix(1 0 0 1 2421.25 1615)">LSTM</text><path d="M2027.5 841.668C2027.5 829.425 2037.42 819.5 2049.67 819.5L3052.33 819.5C3064.58 819.5 3074.5 829.425 3074.5 841.668L3074.5 930.332C3074.5 942.575 3064.58 952.5 3052.33 952.5L2049.67 952.5C2037.42 952.5 2027.5 942.575 2027.5 930.332Z" stroke="#13748B" stroke-width="4.58333" stroke-miterlimit="8" fill="#13748B" fill-rule="evenodd" fill-opacity="0.8"/><text font-family="Cambria,Cambria_MSFontService,sans-serif" font-weight="400" font-size="110" transform="matrix(1 0 0 1 2417.41 927)">LSTM</text><path d="M2027.5 609.668C2027.5 597.425 2037.42 587.5 2049.67 587.5L3052.33 587.5C3064.58 587.5 3074.5 597.425 3074.5 609.668L3074.5 698.332C3074.5 710.575 3064.58 720.5 3052.33 720.5L2049.67 720.5C2037.42 720.5 2027.5 710.575 2027.5 698.332Z" stroke="#FFC000" stroke-width="4.58333" stroke-miterlimit="8" fill="#FFE9BB" fill-rule="evenodd"/><text font-family="Cambria,Cambria_MSFontService,sans-serif" font-weight="400" font-size="110" transform="matrix(1 0 0 1 2255.66 694)">Dense</text><text font-family="Cambria,Cambria_MSFontService,sans-serif" font-weight="400" font-size="110" transform="matrix(1 0 0 1 2569.04 694)">(FFN)</text><rect x="2507.5" y="405.5" width="89.9998" height="102" stroke="#000000" stroke-width="6.875" stroke-miterlimit="8" fill="none"/><text font-family="Cambria,Cambria_MSFontService,sans-serif" font-weight="400" font-size="110" transform="matrix(1 0 0 1 2391.11 370)">Output</text><path d="M3.43724-0.0420424 4.15014 58.2416-2.72435 58.3257-3.43724 0.0420424ZM14.4058 53.5325 0.993176 81.1986-13.0921 53.8689Z" transform="matrix(1 0 0 -1 2554.5 1722.7)"/><path d="M3.4375-1.25525e-05 3.43778 75.9137-3.43722 75.9137-3.4375 1.25525e-05ZM13.7503 71.3303 0.000360892 98.8304-13.7497 71.3304Z" transform="matrix(1 0 0 -1 2551.5 819.33)"/><path d="M3.43723-0.0427151 4.14167 56.6426-2.7328 56.7281-3.43723 0.0427151ZM14.3964 51.9315 0.989206 79.6002-13.1015 52.2732Z" transform="matrix(1 0 0 -1 2551.5 587.1)"/><path d="M1792.5 1243.17C1792.5 1227.89 1804.89 1215.5 1820.17 1215.5L2074.83 1215.5C2090.11 1215.5 2102.5 1227.89 2102.5 1243.17L2102.5 1353.83C2102.5 1369.11 2090.11 1381.5 2074.83 1381.5L1820.17 1381.5C1804.89 1381.5 1792.5 1369.11 1792.5 1353.83Z" stroke="#FFC000" stroke-width="4.58333" stroke-miterlimit="8" fill="#FFE9BB" fill-rule="evenodd"/><text font-family="Cambria,Cambria_MSFontService,sans-serif" font-weight="400" font-size="110" transform="matrix(1 0 0 1 1850.35 1339)">FFN</text><path d="M2151.5 1244.33C2151.5 1228.96 2163.96 1216.5 2179.33 1216.5L2433.67 1216.5C2449.04 1216.5 2461.5 1228.96 2461.5 1244.33L2461.5 1355.67C2461.5 1371.04 2449.04 1383.5 2433.67 1383.5L2179.33 1383.5C2163.96 1383.5 2151.5 1371.04 2151.5 1355.67Z" stroke="#FFC000" stroke-width="4.58333" stroke-miterlimit="8" fill="#FFE9BB" fill-rule="evenodd"/><text font-family="Cambria,Cambria_MSFontService,sans-serif" font-weight="400" font-size="110" transform="matrix(1 0 0 1 2209.8 1340)">FFN</text><path d="M2624.5 1248.17C2624.5 1232.89 2636.89 1220.5 2652.17 1220.5L2906.83 1220.5C2922.11 1220.5 2934.5 1232.89 2934.5 1248.17L2934.5 1358.83C2934.5 1374.11 2922.11 1386.5 2906.83 1386.5L2652.17 1386.5C2636.89 1386.5 2624.5 1374.11 2624.5 1358.83Z" stroke="#FFC000" stroke-width="4.58333" stroke-miterlimit="8" fill="#FFE9BB" fill-rule="evenodd"/><text font-family="Cambria,Cambria_MSFontService,sans-serif" font-weight="400" font-size="110" transform="matrix(1 0 0 1 2682.59 1344)">FFN</text><path d="M2981.5 1247.67C2981.5 1232.66 2993.66 1220.5 3008.67 1220.5L3264.33 1220.5C3279.34 1220.5 3291.5 1232.66 3291.5 1247.67L3291.5 1356.33C3291.5 1371.34 3279.34 1383.5 3264.33 1383.5L3008.67 1383.5C2993.66 1383.5 2981.5 1371.34 2981.5 1356.33Z" stroke="#B03A3A" stroke-width="4.58333" stroke-miterlimit="8" fill="#B03A3A" fill-rule="evenodd" fill-opacity="0.8"/><text font-family="Cambria,Cambria_MSFontService,sans-serif" font-weight="400" font-size="110" transform="matrix(1 0 0 1 3030.77 1342)">Gate</text><path d="M0-3.4375 66.4007-3.4375 66.4007 607.653 62.9632 604.216 103.009 604.216 103.009 611.091 59.5257 611.091 59.5257 0 62.9632 3.4375 0 3.4375ZM98.4258 593.903 125.926 607.653 98.4258 621.403Z" transform="matrix(-1.83697e-16 -1 -1 1.83697e-16 2555.15 1507.43)"/><path d="M2552.06 1507.45 2552.06 1443.54 2780.09 1443.54 2776.65 1446.98 2776.65 1409.42 2783.52 1409.42 2783.52 1450.41 2555.5 1450.41 2558.94 1446.98 2558.94 1507.45ZM2766.34 1414 2780.09 1386.5 2793.84 1414Z"/><path d="M2552.06 1508.27 2552.06 1442.45 3137.23 1442.45 3133.79 1445.89 3133.79 1406.42 3140.67 1406.42 3140.67 1449.32 2555.5 1449.32 2558.94 1445.89 2558.94 1508.27ZM3123.48 1411 3137.23 1383.5 3150.98 1411Z"/><path d="M0-3.4375 65.7459-3.4375 65.7459 248.205 62.3084 244.768 101.7 244.768 101.7 251.643 58.8709 251.643 58.8709 0 62.3084 3.4375 0 3.4375ZM97.1169 234.455 124.617 248.205 97.1169 261.955Z" transform="matrix(-1.83697e-16 -1 -1 1.83697e-16 2554.71 1508.12)"/><path d="M2514.5 1073C2514.5 1050.63 2531.51 1032.5 2552.5 1032.5 2573.49 1032.5 2590.5 1050.63 2590.5 1073 2590.5 1095.37 2573.49 1113.5 2552.5 1113.5 2531.51 1113.5 2514.5 1095.37 2514.5 1073Z" stroke="#000000" stroke-width="4.58333" stroke-miterlimit="8" fill="none" fill-rule="evenodd"/><text font-family="Cambria,Cambria_MSFontService,sans-serif" font-weight="400" font-size="92" transform="matrix(1 0 0 1 2526.1 1106)">X</text><path d="M1944.06 1215.42 1944.06 1161.02 2552.77 1161.02 2549.33 1164.46 2549.33 1136.42 2556.21 1136.42 2556.21 1167.9 1947.5 1167.9 1950.94 1164.46 1950.94 1215.42ZM2539.02 1141 2552.77 1113.5 2566.52 1141Z"/><path d="M2303.06 1216.73 2303.06 1161.68 2552.32 1161.68 2548.89 1165.11 2548.89 1136.42 2555.76 1136.42 2555.76 1168.55 2306.5 1168.55 2309.94 1165.11 2309.94 1216.73ZM2538.57 1141 2552.32 1113.5 2566.07 1141Z"/><path d="M0-3.4375 56.8849-3.4375 56.8849 226.967 53.4474 223.53 83.9779 223.53 83.9779 230.405 50.0099 230.405 50.0099 0 53.4474 3.4375 0 3.4375ZM79.3945 213.217 106.895 226.967 79.3945 240.717Z" transform="matrix(-1.83697e-16 -1 -1 1.83697e-16 2779.47 1220.39)"/><path d="M0-3.4375 150.904-3.4375 150.904 523.087 144.029 523.087 144.029 0 147.466 3.4375 0 3.4375ZM161.216 518.504 147.466 546.004 133.716 518.504Z" transform="matrix(-1.83697e-16 -1 -1 1.83697e-16 3136.5 1219.97)"/><path d="M2549.52 1032.13 2548.48 975.476 2555.36 975.35 2556.39 1032ZM2538.26 980.247 2551.5 952.5 2565.75 979.744Z"/><text font-family="Cambria,Cambria_MSFontService,sans-serif" font-weight="700" font-size="110" transform="matrix(1 0 0 1 72.1915 2128)">Normal LSTM model</text><text font-family="Cambria,Cambria_MSFontService,sans-serif" font-weight="700" font-size="110" transform="matrix(1 0 0 1 1709.22 2128)">Mixture</text><text font-family="Cambria,Cambria_MSFontService,sans-serif" font-weight="700" font-size="110" transform="matrix(1 0 0 1 2108.09 2128)">-</text><text font-family="Cambria,Cambria_MSFontService,sans-serif" font-weight="700" font-size="110" transform="matrix(1 0 0 1 2145.33 2128)">of</text><text font-family="Cambria,Cambria_MSFontService,sans-serif" font-weight="700" font-size="110" transform="matrix(1 0 0 1 2243.87 2128)">-</text><text font-family="Cambria,Cambria_MSFontService,sans-serif" font-weight="700" font-size="110" transform="matrix(1 0 0 1 2281.11 2128)">Experts </text><text font-family="Cambria,Cambria_MSFontService,sans-serif" font-weight="700" font-size="110" transform="matrix(1 0 0 1 2692.46 2128)">LSTM model</text><path d="M1532.5 302.5 1532.5 2173.47" stroke="#000000" stroke-width="6.875" stroke-miterlimit="8" stroke-dasharray="27.5 20.625" fill="none" fill-rule="evenodd"/><text font-family="Cambria,Cambria_MSFontService,sans-serif" font-weight="400" font-size="147" transform="matrix(1 0 0 1 2483.83 1354)">…</text></g></svg>