<?xml version="1.0" encoding="utf-8" standalone="no"?>
<!DOCTYPE svg PUBLIC "-//W3C//DTD SVG 1.1//EN"
  "http://www.w3.org/Graphics/SVG/1.1/DTD/svg11.dtd">
<svg xmlns:xlink="http://www.w3.org/1999/xlink" width="937.351373pt" height="267.802188pt" viewBox="0 0 937.351373 267.802188" xmlns="http://www.w3.org/2000/svg" version="1.1">
 <metadata>
  <rdf:RDF xmlns:dc="http://purl.org/dc/elements/1.1/" xmlns:cc="http://creativecommons.org/ns#" xmlns:rdf="http://www.w3.org/1999/02/22-rdf-syntax-ns#">
   <cc:Work>
    <dc:type rdf:resource="http://purl.org/dc/dcmitype/StillImage"/>
    <dc:date>2024-01-24T17:10:54.941982</dc:date>
    <dc:format>image/svg+xml</dc:format>
    <dc:creator>
     <cc:Agent>
      <dc:title>Matplotlib v3.8.2, https://matplotlib.org/</dc:title>
     </cc:Agent>
    </dc:creator>
   </cc:Work>
  </rdf:RDF>
 </metadata>
 <defs>
  <style type="text/css">*{stroke-linejoin: round; stroke-linecap: butt}</style>
 </defs>
 <g id="figure_1">
  <g id="patch_1">
   <path d="M 0 267.802188 
L 937.351373 267.802188 
L 937.351373 0 
L 0 0 
z
" style="fill: #ffffff"/>
  </g>
  <g id="axes_1">
   <g id="patch_2">
    <path d="M 81.692813 199.275937 
L 918.692813 199.275937 
L 918.692813 32.955938 
L 81.692813 32.955938 
z
" style="fill: #ffffff"/>
   </g>
   <g id="PolyCollection_1">
    <path d="M 121.982837 113.973878 
L 121.982837 118.257997 
L 128.716545 118.964409 
L 133.205685 119.296732 
L 137.694824 119.474395 
L 142.183963 119.556569 
L 146.673102 119.581772 
L 151.162241 119.584595 
L 155.65138 119.585734 
L 160.14052 119.597306 
L 164.629659 119.621366 
L 169.118798 119.655452 
L 173.607937 119.694802 
L 178.097076 119.741225 
L 182.586216 119.782992 
L 187.075355 119.817725 
L 191.564494 119.838691 
L 196.053633 119.84871 
L 200.542772 119.849931 
L 205.031911 119.851824 
L 209.521051 119.868665 
L 214.01019 119.918755 
L 218.499329 120.012954 
L 222.988468 120.158029 
L 227.477607 120.354001 
L 231.966747 120.563735 
L 236.455886 120.73424 
L 240.945025 120.850226 
L 245.434164 120.918801 
L 249.923303 120.954457 
L 254.412442 120.964893 
L 258.901582 120.965211 
L 263.390721 120.96717 
L 267.87986 120.978882 
L 272.368999 121.000839 
L 276.858138 121.032455 
L 281.347278 121.071348 
L 285.836417 121.112928 
L 290.325556 121.153163 
L 294.814695 121.182898 
L 299.303834 121.202351 
L 303.792973 121.211292 
L 308.282113 121.213189 
L 312.771252 121.21353 
L 317.260391 121.221644 
L 321.74953 121.249501 
L 326.238669 121.306997 
L 330.727808 121.393843 
L 335.216948 121.50862 
L 339.706087 121.634577 
L 344.195226 121.745374 
L 348.684365 121.826321 
L 353.173504 121.875727 
L 357.662644 121.90023 
L 362.151783 121.907725 
L 366.640922 121.908262 
L 371.130061 121.909458 
L 375.6192 121.917523 
L 380.108339 121.935188 
L 384.597479 121.958523 
L 389.086618 121.992139 
L 393.575757 122.029772 
L 398.064896 122.063979 
L 402.554035 122.092119 
L 407.043175 122.110606 
L 411.532314 122.118612 
L 416.021453 122.119825 
L 420.510592 122.120525 
L 424.999731 122.129083 
L 429.48887 122.15519 
L 433.97801 122.204183 
L 438.467149 122.277865 
L 442.956288 122.375093 
L 447.445427 122.481399 
L 451.934566 122.579435 
L 456.423706 122.651528 
L 460.912845 122.695266 
L 465.401984 122.719112 
L 469.891123 122.725642 
L 474.380262 122.726014 
L 478.869401 122.727118 
L 483.358541 122.734543 
L 487.84768 122.751925 
L 492.336819 122.775575 
L 496.825958 122.805911 
L 501.315097 122.838161 
L 505.804236 122.868023 
L 510.293376 122.891054 
L 514.782515 122.906303 
L 519.271654 122.913076 
L 523.760793 122.914237 
L 528.249932 122.91491 
L 532.739072 122.921606 
L 537.228211 122.942236 
L 541.71735 122.983549 
L 546.206489 123.044287 
L 550.695628 123.125607 
L 555.184767 123.214151 
L 559.673907 123.29519 
L 564.163046 123.357602 
L 568.652185 123.399163 
L 573.141324 123.420793 
L 577.630463 123.42785 
L 582.119603 123.428202 
L 586.608742 123.429187 
L 591.097881 123.435182 
L 595.58702 123.450794 
L 600.076159 123.473797 
L 604.565298 123.502551 
L 609.054438 123.531268 
L 613.543577 123.558734 
L 618.032716 123.580833 
L 622.521855 123.595866 
L 627.010994 123.604197 
L 631.500133 123.605311 
L 635.989273 123.60586 
L 640.478412 123.612465 
L 644.967551 123.63095 
L 649.45669 123.668147 
L 653.945829 123.723738 
L 658.434969 123.801673 
L 662.924108 123.885273 
L 667.413247 123.960618 
L 671.902386 124.01639 
L 676.391525 124.053463 
L 680.880664 124.073019 
L 685.369804 124.078239 
L 689.858943 124.078315 
L 694.348082 124.079694 
L 698.837221 124.08552 
L 703.32636 124.097992 
L 707.8155 124.116516 
L 712.304639 124.140607 
L 716.793778 124.16466 
L 721.282917 124.189231 
L 725.772056 124.207945 
L 730.261195 124.222349 
L 734.750335 124.2308 
L 739.239474 124.232742 
L 743.728613 124.232936 
L 748.217752 124.239057 
L 752.706891 124.259002 
L 757.196031 124.295544 
L 761.68517 124.354161 
L 766.174309 124.431122 
L 770.663448 124.517883 
L 775.152587 124.592083 
L 779.641726 124.64726 
L 784.130866 124.681211 
L 788.620005 124.698432 
L 793.109144 124.703657 
L 797.598283 124.70404 
L 802.087422 124.705049 
L 806.576561 124.711102 
L 811.065701 124.724331 
L 815.55484 124.742664 
L 820.043979 124.764464 
L 824.533118 124.787873 
L 829.022257 124.808547 
L 833.511397 124.8244 
L 838.000536 124.838315 
L 842.489675 124.845306 
L 846.978814 124.84657 
L 851.467953 124.846792 
L 855.957092 124.852238 
L 860.446232 124.868661 
L 864.935371 124.901512 
L 869.42451 124.955783 
L 873.913649 125.032659 
L 880.647358 125.12472 
L 880.647358 107.107155 
L 880.647358 107.107155 
L 873.913649 107.199216 
L 869.42451 107.276092 
L 864.935371 107.330363 
L 860.446232 107.363214 
L 855.957092 107.379637 
L 851.467953 107.385083 
L 846.978814 107.385305 
L 842.489675 107.386569 
L 838.000536 107.39356 
L 833.511397 107.407475 
L 829.022257 107.423328 
L 824.533118 107.444002 
L 820.043979 107.467411 
L 815.55484 107.489211 
L 811.065701 107.507544 
L 806.576561 107.520773 
L 802.087422 107.526826 
L 797.598283 107.527835 
L 793.109144 107.528218 
L 788.620005 107.533443 
L 784.130866 107.550664 
L 779.641726 107.584615 
L 775.152587 107.639792 
L 770.663448 107.713992 
L 766.174309 107.800753 
L 761.68517 107.877714 
L 757.196031 107.936331 
L 752.706891 107.972873 
L 748.217752 107.992818 
L 743.728613 107.998939 
L 739.239474 107.999133 
L 734.750335 108.001075 
L 730.261195 108.009526 
L 725.772056 108.02393 
L 721.282917 108.042644 
L 716.793778 108.067215 
L 712.304639 108.091268 
L 707.8155 108.115359 
L 703.32636 108.133883 
L 698.837221 108.146355 
L 694.348082 108.152181 
L 689.858943 108.15356 
L 685.369804 108.153636 
L 680.880664 108.158856 
L 676.391525 108.178412 
L 671.902386 108.215485 
L 667.413247 108.271257 
L 662.924108 108.346602 
L 658.434969 108.430202 
L 653.945829 108.508137 
L 649.45669 108.563728 
L 644.967551 108.600925 
L 640.478412 108.61941 
L 635.989273 108.626015 
L 631.500133 108.626564 
L 627.010994 108.627678 
L 622.521855 108.636009 
L 618.032716 108.651042 
L 613.543577 108.673141 
L 609.054438 108.700607 
L 604.565298 108.729324 
L 600.076159 108.758078 
L 595.58702 108.781081 
L 591.097881 108.796693 
L 586.608742 108.802688 
L 582.119603 108.803673 
L 577.630463 108.804025 
L 573.141324 108.811082 
L 568.652185 108.832712 
L 564.163046 108.874273 
L 559.673907 108.936685 
L 555.184767 109.017724 
L 550.695628 109.106268 
L 546.206489 109.187588 
L 541.71735 109.248326 
L 537.228211 109.289639 
L 532.739072 109.310269 
L 528.249932 109.316965 
L 523.760793 109.317638 
L 519.271654 109.318799 
L 514.782515 109.325572 
L 510.293376 109.340821 
L 505.804236 109.363852 
L 501.315097 109.393714 
L 496.825958 109.425964 
L 492.336819 109.4563 
L 487.84768 109.47995 
L 483.358541 109.497332 
L 478.869401 109.504757 
L 474.380262 109.505861 
L 469.891123 109.506233 
L 465.401984 109.512763 
L 460.912845 109.536609 
L 456.423706 109.580347 
L 451.934566 109.65244 
L 447.445427 109.750476 
L 442.956288 109.856782 
L 438.467149 109.95401 
L 433.97801 110.027692 
L 429.48887 110.076685 
L 424.999731 110.102792 
L 420.510592 110.11135 
L 416.021453 110.11205 
L 411.532314 110.113263 
L 407.043175 110.121269 
L 402.554035 110.139756 
L 398.064896 110.167896 
L 393.575757 110.202103 
L 389.086618 110.239736 
L 384.597479 110.273352 
L 380.108339 110.296687 
L 375.6192 110.314352 
L 371.130061 110.322417 
L 366.640922 110.323613 
L 362.151783 110.32415 
L 357.662644 110.331645 
L 353.173504 110.356148 
L 348.684365 110.405554 
L 344.195226 110.486501 
L 339.706087 110.597298 
L 335.216948 110.723255 
L 330.727808 110.838032 
L 326.238669 110.924878 
L 321.74953 110.982374 
L 317.260391 111.010231 
L 312.771252 111.018345 
L 308.282113 111.018686 
L 303.792973 111.020583 
L 299.303834 111.029524 
L 294.814695 111.048977 
L 290.325556 111.078712 
L 285.836417 111.118947 
L 281.347278 111.160527 
L 276.858138 111.19942 
L 272.368999 111.231036 
L 267.87986 111.252993 
L 263.390721 111.264705 
L 258.901582 111.266664 
L 254.412442 111.266982 
L 249.923303 111.277418 
L 245.434164 111.313074 
L 240.945025 111.381649 
L 236.455886 111.497635 
L 231.966747 111.66814 
L 227.477607 111.877874 
L 222.988468 112.073846 
L 218.499329 112.218921 
L 214.01019 112.31312 
L 209.521051 112.36321 
L 205.031911 112.380051 
L 200.542772 112.381944 
L 196.053633 112.383165 
L 191.564494 112.393184 
L 187.075355 112.41415 
L 182.586216 112.448883 
L 178.097076 112.49065 
L 173.607937 112.537073 
L 169.118798 112.576423 
L 164.629659 112.610509 
L 160.14052 112.634569 
L 155.65138 112.646141 
L 151.162241 112.64728 
L 146.673102 112.650103 
L 142.183963 112.675306 
L 137.694824 112.75748 
L 133.205685 112.935143 
L 128.716545 113.267466 
L 121.982837 113.973878 
z
" clip-path="url(#pd640e0be20)" style="fill: #c0c0c0; fill-opacity: 0.25"/>
   </g>
   <g id="matplotlib.axis_1">
    <g id="xtick_1">
     <g id="line2d_1">
      <defs>
       <path id="mcdb7994267" d="M 0 0 
L 0 3.5 
" style="stroke: #000000; stroke-width: 0.8"/>
      </defs>
      <g>
       <use xlink:href="#mcdb7994267" x="119.738267" y="199.275937" style="stroke: #000000; stroke-width: 0.8"/>
      </g>
     </g>
     <g id="text_1">
      <!-- 0 -->
      <g transform="translate(111.467017 226.031875) scale(0.26 -0.26)">
       <defs>
        <path id="DejaVuSans-30" d="M 2034 4250 
Q 1547 4250 1301 3770 
Q 1056 3291 1056 2328 
Q 1056 1369 1301 889 
Q 1547 409 2034 409 
Q 2525 409 2770 889 
Q 3016 1369 3016 2328 
Q 3016 3291 2770 3770 
Q 2525 4250 2034 4250 
z
M 2034 4750 
Q 2819 4750 3233 4129 
Q 3647 3509 3647 2328 
Q 3647 1150 3233 529 
Q 2819 -91 2034 -91 
Q 1250 -91 836 529 
Q 422 1150 422 2328 
Q 422 3509 836 4129 
Q 1250 4750 2034 4750 
z
" transform="scale(0.015625)"/>
       </defs>
       <use xlink:href="#DejaVuSans-30"/>
      </g>
     </g>
    </g>
    <g id="xtick_2">
     <g id="line2d_2">
      <g>
       <use xlink:href="#mcdb7994267" x="231.966747" y="199.275937" style="stroke: #000000; stroke-width: 0.8"/>
      </g>
     </g>
     <g id="text_2">
      <!-- 25 -->
      <g transform="translate(215.424247 226.031875) scale(0.26 -0.26)">
       <defs>
        <path id="DejaVuSans-32" d="M 1228 531 
L 3431 531 
L 3431 0 
L 469 0 
L 469 531 
Q 828 903 1448 1529 
Q 2069 2156 2228 2338 
Q 2531 2678 2651 2914 
Q 2772 3150 2772 3378 
Q 2772 3750 2511 3984 
Q 2250 4219 1831 4219 
Q 1534 4219 1204 4116 
Q 875 4013 500 3803 
L 500 4441 
Q 881 4594 1212 4672 
Q 1544 4750 1819 4750 
Q 2544 4750 2975 4387 
Q 3406 4025 3406 3419 
Q 3406 3131 3298 2873 
Q 3191 2616 2906 2266 
Q 2828 2175 2409 1742 
Q 1991 1309 1228 531 
z
" transform="scale(0.015625)"/>
        <path id="DejaVuSans-35" d="M 691 4666 
L 3169 4666 
L 3169 4134 
L 1269 4134 
L 1269 2991 
Q 1406 3038 1543 3061 
Q 1681 3084 1819 3084 
Q 2600 3084 3056 2656 
Q 3513 2228 3513 1497 
Q 3513 744 3044 326 
Q 2575 -91 1722 -91 
Q 1428 -91 1123 -41 
Q 819 9 494 109 
L 494 744 
Q 775 591 1075 516 
Q 1375 441 1709 441 
Q 2250 441 2565 725 
Q 2881 1009 2881 1497 
Q 2881 1984 2565 2268 
Q 2250 2553 1709 2553 
Q 1456 2553 1204 2497 
Q 953 2441 691 2322 
L 691 4666 
z
" transform="scale(0.015625)"/>
       </defs>
       <use xlink:href="#DejaVuSans-32"/>
       <use xlink:href="#DejaVuSans-35" x="63.623047"/>
      </g>
     </g>
    </g>
    <g id="xtick_3">
     <g id="line2d_3">
      <g>
       <use xlink:href="#mcdb7994267" x="344.195226" y="199.275937" style="stroke: #000000; stroke-width: 0.8"/>
      </g>
     </g>
     <g id="text_3">
      <!-- 50 -->
      <g transform="translate(327.652726 226.031875) scale(0.26 -0.26)">
       <use xlink:href="#DejaVuSans-35"/>
       <use xlink:href="#DejaVuSans-30" x="63.623047"/>
      </g>
     </g>
    </g>
    <g id="xtick_4">
     <g id="line2d_4">
      <g>
       <use xlink:href="#mcdb7994267" x="456.423706" y="199.275937" style="stroke: #000000; stroke-width: 0.8"/>
      </g>
     </g>
     <g id="text_4">
      <!-- 75 -->
      <g transform="translate(439.881206 226.031875) scale(0.26 -0.26)">
       <defs>
        <path id="DejaVuSans-37" d="M 525 4666 
L 3525 4666 
L 3525 4397 
L 1831 0 
L 1172 0 
L 2766 4134 
L 525 4134 
L 525 4666 
z
" transform="scale(0.015625)"/>
       </defs>
       <use xlink:href="#DejaVuSans-37"/>
       <use xlink:href="#DejaVuSans-35" x="63.623047"/>
      </g>
     </g>
    </g>
    <g id="xtick_5">
     <g id="line2d_5">
      <g>
       <use xlink:href="#mcdb7994267" x="568.652185" y="199.275937" style="stroke: #000000; stroke-width: 0.8"/>
      </g>
     </g>
     <g id="text_5">
      <!-- 100 -->
      <g transform="translate(543.838435 226.031875) scale(0.26 -0.26)">
       <defs>
        <path id="DejaVuSans-31" d="M 794 531 
L 1825 531 
L 1825 4091 
L 703 3866 
L 703 4441 
L 1819 4666 
L 2450 4666 
L 2450 531 
L 3481 531 
L 3481 0 
L 794 0 
L 794 531 
z
" transform="scale(0.015625)"/>
       </defs>
       <use xlink:href="#DejaVuSans-31"/>
       <use xlink:href="#DejaVuSans-30" x="63.623047"/>
       <use xlink:href="#DejaVuSans-30" x="127.246094"/>
      </g>
     </g>
    </g>
    <g id="xtick_6">
     <g id="line2d_6">
      <g>
       <use xlink:href="#mcdb7994267" x="680.880664" y="199.275937" style="stroke: #000000; stroke-width: 0.8"/>
      </g>
     </g>
     <g id="text_6">
      <!-- 125 -->
      <g transform="translate(656.066914 226.031875) scale(0.26 -0.26)">
       <use xlink:href="#DejaVuSans-31"/>
       <use xlink:href="#DejaVuSans-32" x="63.623047"/>
       <use xlink:href="#DejaVuSans-35" x="127.246094"/>
      </g>
     </g>
    </g>
    <g id="xtick_7">
     <g id="line2d_7">
      <g>
       <use xlink:href="#mcdb7994267" x="793.109144" y="199.275937" style="stroke: #000000; stroke-width: 0.8"/>
      </g>
     </g>
     <g id="text_7">
      <!-- 150 -->
      <g transform="translate(768.295394 226.031875) scale(0.26 -0.26)">
       <use xlink:href="#DejaVuSans-31"/>
       <use xlink:href="#DejaVuSans-35" x="63.623047"/>
       <use xlink:href="#DejaVuSans-30" x="127.246094"/>
      </g>
     </g>
    </g>
    <g id="xtick_8">
     <g id="line2d_8">
      <g>
       <use xlink:href="#mcdb7994267" x="905.337623" y="199.275937" style="stroke: #000000; stroke-width: 0.8"/>
      </g>
     </g>
     <g id="text_8">
      <!-- 175 -->
      <g transform="translate(880.523873 226.031875) scale(0.26 -0.26)">
       <use xlink:href="#DejaVuSans-31"/>
       <use xlink:href="#DejaVuSans-37" x="63.623047"/>
       <use xlink:href="#DejaVuSans-35" x="127.246094"/>
      </g>
     </g>
    </g>
    <g id="text_9">
     <!-- Lags -->
     <g transform="translate(469.957656 255.195) scale(0.26 -0.26)">
      <defs>
       <path id="DejaVuSans-4c" d="M 628 4666 
L 1259 4666 
L 1259 531 
L 3531 531 
L 3531 0 
L 628 0 
L 628 4666 
z
" transform="scale(0.015625)"/>
       <path id="DejaVuSans-61" d="M 2194 1759 
Q 1497 1759 1228 1600 
Q 959 1441 959 1056 
Q 959 750 1161 570 
Q 1363 391 1709 391 
Q 2188 391 2477 730 
Q 2766 1069 2766 1631 
L 2766 1759 
L 2194 1759 
z
M 3341 1997 
L 3341 0 
L 2766 0 
L 2766 531 
Q 2569 213 2275 61 
Q 1981 -91 1556 -91 
Q 1019 -91 701 211 
Q 384 513 384 1019 
Q 384 1609 779 1909 
Q 1175 2209 1959 2209 
L 2766 2209 
L 2766 2266 
Q 2766 2663 2505 2880 
Q 2244 3097 1772 3097 
Q 1472 3097 1187 3025 
Q 903 2953 641 2809 
L 641 3341 
Q 956 3463 1253 3523 
Q 1550 3584 1831 3584 
Q 2591 3584 2966 3190 
Q 3341 2797 3341 1997 
z
" transform="scale(0.015625)"/>
       <path id="DejaVuSans-67" d="M 2906 1791 
Q 2906 2416 2648 2759 
Q 2391 3103 1925 3103 
Q 1463 3103 1205 2759 
Q 947 2416 947 1791 
Q 947 1169 1205 825 
Q 1463 481 1925 481 
Q 2391 481 2648 825 
Q 2906 1169 2906 1791 
z
M 3481 434 
Q 3481 -459 3084 -895 
Q 2688 -1331 1869 -1331 
Q 1566 -1331 1297 -1286 
Q 1028 -1241 775 -1147 
L 775 -588 
Q 1028 -725 1275 -790 
Q 1522 -856 1778 -856 
Q 2344 -856 2625 -561 
Q 2906 -266 2906 331 
L 2906 616 
Q 2728 306 2450 153 
Q 2172 0 1784 0 
Q 1141 0 747 490 
Q 353 981 353 1791 
Q 353 2603 747 3093 
Q 1141 3584 1784 3584 
Q 2172 3584 2450 3431 
Q 2728 3278 2906 2969 
L 2906 3500 
L 3481 3500 
L 3481 434 
z
" transform="scale(0.015625)"/>
       <path id="DejaVuSans-73" d="M 2834 3397 
L 2834 2853 
Q 2591 2978 2328 3040 
Q 2066 3103 1784 3103 
Q 1356 3103 1142 2972 
Q 928 2841 928 2578 
Q 928 2378 1081 2264 
Q 1234 2150 1697 2047 
L 1894 2003 
Q 2506 1872 2764 1633 
Q 3022 1394 3022 966 
Q 3022 478 2636 193 
Q 2250 -91 1575 -91 
Q 1294 -91 989 -36 
Q 684 19 347 128 
L 347 722 
Q 666 556 975 473 
Q 1284 391 1588 391 
Q 1994 391 2212 530 
Q 2431 669 2431 922 
Q 2431 1156 2273 1281 
Q 2116 1406 1581 1522 
L 1381 1569 
Q 847 1681 609 1914 
Q 372 2147 372 2553 
Q 372 3047 722 3315 
Q 1072 3584 1716 3584 
Q 2034 3584 2315 3537 
Q 2597 3491 2834 3397 
z
" transform="scale(0.015625)"/>
      </defs>
      <use xlink:href="#DejaVuSans-4c"/>
      <use xlink:href="#DejaVuSans-61" x="55.712891"/>
      <use xlink:href="#DejaVuSans-67" x="116.992188"/>
      <use xlink:href="#DejaVuSans-73" x="180.46875"/>
     </g>
    </g>
   </g>
   <g id="matplotlib.axis_2">
    <g id="ytick_1">
     <g id="line2d_9">
      <defs>
       <path id="m2faa72e9fd" d="M 0 0 
L -3.5 0 
" style="stroke: #000000; stroke-width: 0.8"/>
      </defs>
      <g>
       <use xlink:href="#m2faa72e9fd" x="81.692813" y="199.275937" style="stroke: #000000; stroke-width: 0.8"/>
      </g>
     </g>
     <g id="text_10">
      <!-- −1 -->
      <g transform="translate(36.363125 209.153906) scale(0.26 -0.26)">
       <defs>
        <path id="DejaVuSans-2212" d="M 678 2272 
L 4684 2272 
L 4684 1741 
L 678 1741 
L 678 2272 
z
" transform="scale(0.015625)"/>
       </defs>
       <use xlink:href="#DejaVuSans-2212"/>
       <use xlink:href="#DejaVuSans-31" x="83.789062"/>
      </g>
     </g>
    </g>
    <g id="ytick_2">
     <g id="line2d_10">
      <g>
       <use xlink:href="#m2faa72e9fd" x="81.692813" y="116.115938" style="stroke: #000000; stroke-width: 0.8"/>
      </g>
     </g>
     <g id="text_11">
      <!-- 0 -->
      <g transform="translate(58.150313 125.993906) scale(0.26 -0.26)">
       <use xlink:href="#DejaVuSans-30"/>
      </g>
     </g>
    </g>
    <g id="ytick_3">
     <g id="line2d_11">
      <g>
       <use xlink:href="#m2faa72e9fd" x="81.692813" y="32.955938" style="stroke: #000000; stroke-width: 0.8"/>
      </g>
     </g>
     <g id="text_12">
      <!-- 1 -->
      <g transform="translate(58.150313 42.833906) scale(0.26 -0.26)">
       <use xlink:href="#DejaVuSans-31"/>
      </g>
     </g>
    </g>
    <g id="text_13">
     <!-- Autocorrelation -->
     <g transform="translate(26.955938 216.047344) rotate(-90) scale(0.26 -0.26)">
      <defs>
       <path id="DejaVuSans-41" d="M 2188 4044 
L 1331 1722 
L 3047 1722 
L 2188 4044 
z
M 1831 4666 
L 2547 4666 
L 4325 0 
L 3669 0 
L 3244 1197 
L 1141 1197 
L 716 0 
L 50 0 
L 1831 4666 
z
" transform="scale(0.015625)"/>
       <path id="DejaVuSans-75" d="M 544 1381 
L 544 3500 
L 1119 3500 
L 1119 1403 
Q 1119 906 1312 657 
Q 1506 409 1894 409 
Q 2359 409 2629 706 
Q 2900 1003 2900 1516 
L 2900 3500 
L 3475 3500 
L 3475 0 
L 2900 0 
L 2900 538 
Q 2691 219 2414 64 
Q 2138 -91 1772 -91 
Q 1169 -91 856 284 
Q 544 659 544 1381 
z
M 1991 3584 
L 1991 3584 
z
" transform="scale(0.015625)"/>
       <path id="DejaVuSans-74" d="M 1172 4494 
L 1172 3500 
L 2356 3500 
L 2356 3053 
L 1172 3053 
L 1172 1153 
Q 1172 725 1289 603 
Q 1406 481 1766 481 
L 2356 481 
L 2356 0 
L 1766 0 
Q 1100 0 847 248 
Q 594 497 594 1153 
L 594 3053 
L 172 3053 
L 172 3500 
L 594 3500 
L 594 4494 
L 1172 4494 
z
" transform="scale(0.015625)"/>
       <path id="DejaVuSans-6f" d="M 1959 3097 
Q 1497 3097 1228 2736 
Q 959 2375 959 1747 
Q 959 1119 1226 758 
Q 1494 397 1959 397 
Q 2419 397 2687 759 
Q 2956 1122 2956 1747 
Q 2956 2369 2687 2733 
Q 2419 3097 1959 3097 
z
M 1959 3584 
Q 2709 3584 3137 3096 
Q 3566 2609 3566 1747 
Q 3566 888 3137 398 
Q 2709 -91 1959 -91 
Q 1206 -91 779 398 
Q 353 888 353 1747 
Q 353 2609 779 3096 
Q 1206 3584 1959 3584 
z
" transform="scale(0.015625)"/>
       <path id="DejaVuSans-63" d="M 3122 3366 
L 3122 2828 
Q 2878 2963 2633 3030 
Q 2388 3097 2138 3097 
Q 1578 3097 1268 2742 
Q 959 2388 959 1747 
Q 959 1106 1268 751 
Q 1578 397 2138 397 
Q 2388 397 2633 464 
Q 2878 531 3122 666 
L 3122 134 
Q 2881 22 2623 -34 
Q 2366 -91 2075 -91 
Q 1284 -91 818 406 
Q 353 903 353 1747 
Q 353 2603 823 3093 
Q 1294 3584 2113 3584 
Q 2378 3584 2631 3529 
Q 2884 3475 3122 3366 
z
" transform="scale(0.015625)"/>
       <path id="DejaVuSans-72" d="M 2631 2963 
Q 2534 3019 2420 3045 
Q 2306 3072 2169 3072 
Q 1681 3072 1420 2755 
Q 1159 2438 1159 1844 
L 1159 0 
L 581 0 
L 581 3500 
L 1159 3500 
L 1159 2956 
Q 1341 3275 1631 3429 
Q 1922 3584 2338 3584 
Q 2397 3584 2469 3576 
Q 2541 3569 2628 3553 
L 2631 2963 
z
" transform="scale(0.015625)"/>
       <path id="DejaVuSans-65" d="M 3597 1894 
L 3597 1613 
L 953 1613 
Q 991 1019 1311 708 
Q 1631 397 2203 397 
Q 2534 397 2845 478 
Q 3156 559 3463 722 
L 3463 178 
Q 3153 47 2828 -22 
Q 2503 -91 2169 -91 
Q 1331 -91 842 396 
Q 353 884 353 1716 
Q 353 2575 817 3079 
Q 1281 3584 2069 3584 
Q 2775 3584 3186 3129 
Q 3597 2675 3597 1894 
z
M 3022 2063 
Q 3016 2534 2758 2815 
Q 2500 3097 2075 3097 
Q 1594 3097 1305 2825 
Q 1016 2553 972 2059 
L 3022 2063 
z
" transform="scale(0.015625)"/>
       <path id="DejaVuSans-6c" d="M 603 4863 
L 1178 4863 
L 1178 0 
L 603 0 
L 603 4863 
z
" transform="scale(0.015625)"/>
       <path id="DejaVuSans-69" d="M 603 3500 
L 1178 3500 
L 1178 0 
L 603 0 
L 603 3500 
z
M 603 4863 
L 1178 4863 
L 1178 4134 
L 603 4134 
L 603 4863 
z
" transform="scale(0.015625)"/>
       <path id="DejaVuSans-6e" d="M 3513 2113 
L 3513 0 
L 2938 0 
L 2938 2094 
Q 2938 2591 2744 2837 
Q 2550 3084 2163 3084 
Q 1697 3084 1428 2787 
Q 1159 2491 1159 1978 
L 1159 0 
L 581 0 
L 581 3500 
L 1159 3500 
L 1159 2956 
Q 1366 3272 1645 3428 
Q 1925 3584 2291 3584 
Q 2894 3584 3203 3211 
Q 3513 2838 3513 2113 
z
" transform="scale(0.015625)"/>
      </defs>
      <use xlink:href="#DejaVuSans-41"/>
      <use xlink:href="#DejaVuSans-75" x="68.408203"/>
      <use xlink:href="#DejaVuSans-74" x="131.787109"/>
      <use xlink:href="#DejaVuSans-6f" x="170.996094"/>
      <use xlink:href="#DejaVuSans-63" x="232.177734"/>
      <use xlink:href="#DejaVuSans-6f" x="287.158203"/>
      <use xlink:href="#DejaVuSans-72" x="348.339844"/>
      <use xlink:href="#DejaVuSans-72" x="387.703125"/>
      <use xlink:href="#DejaVuSans-65" x="426.566406"/>
      <use xlink:href="#DejaVuSans-6c" x="488.089844"/>
      <use xlink:href="#DejaVuSans-61" x="515.873047"/>
      <use xlink:href="#DejaVuSans-74" x="577.152344"/>
      <use xlink:href="#DejaVuSans-69" x="616.361328"/>
      <use xlink:href="#DejaVuSans-6f" x="644.144531"/>
      <use xlink:href="#DejaVuSans-6e" x="705.326172"/>
     </g>
    </g>
   </g>
   <g id="LineCollection_1">
    <path d="M 119.738267 116.115938 
L 119.738267 32.955938 
" clip-path="url(#pd640e0be20)" style="fill: none; stroke: #13748b; stroke-width: 1.5"/>
    <path d="M 124.227406 116.115938 
L 124.227406 64.572854 
" clip-path="url(#pd640e0be20)" style="fill: none; stroke: #13748b; stroke-width: 1.5"/>
    <path d="M 128.716545 116.115938 
L 128.716545 77.257971 
" clip-path="url(#pd640e0be20)" style="fill: none; stroke: #13748b; stroke-width: 1.5"/>
    <path d="M 133.205685 116.115938 
L 133.205685 86.526922 
" clip-path="url(#pd640e0be20)" style="fill: none; stroke: #13748b; stroke-width: 1.5"/>
    <path d="M 137.694824 116.115938 
L 137.694824 95.596722 
" clip-path="url(#pd640e0be20)" style="fill: none; stroke: #13748b; stroke-width: 1.5"/>
    <path d="M 142.183963 116.115938 
L 142.183963 104.662763 
" clip-path="url(#pd640e0be20)" style="fill: none; stroke: #13748b; stroke-width: 1.5"/>
    <path d="M 146.673102 116.115938 
L 146.673102 112.27547 
" clip-path="url(#pd640e0be20)" style="fill: none; stroke: #13748b; stroke-width: 1.5"/>
    <path d="M 151.162241 116.115938 
L 151.162241 118.556703 
" clip-path="url(#pd640e0be20)" style="fill: none; stroke: #13748b; stroke-width: 1.5"/>
    <path d="M 155.65138 116.115938 
L 155.65138 123.901779 
" clip-path="url(#pd640e0be20)" style="fill: none; stroke: #13748b; stroke-width: 1.5"/>
    <path d="M 160.14052 116.115938 
L 160.14052 127.371131 
" clip-path="url(#pd640e0be20)" style="fill: none; stroke: #13748b; stroke-width: 1.5"/>
    <path d="M 164.629659 116.115938 
L 164.629659 129.568069 
" clip-path="url(#pd640e0be20)" style="fill: none; stroke: #13748b; stroke-width: 1.5"/>
    <path d="M 169.118798 116.115938 
L 169.118798 130.644897 
" clip-path="url(#pd640e0be20)" style="fill: none; stroke: #13748b; stroke-width: 1.5"/>
    <path d="M 173.607937 116.115938 
L 173.607937 131.991358 
" clip-path="url(#pd640e0be20)" style="fill: none; stroke: #13748b; stroke-width: 1.5"/>
    <path d="M 178.097076 116.115938 
L 178.097076 131.266116 
" clip-path="url(#pd640e0be20)" style="fill: none; stroke: #13748b; stroke-width: 1.5"/>
    <path d="M 182.586216 116.115938 
L 182.586216 130.00383 
" clip-path="url(#pd640e0be20)" style="fill: none; stroke: #13748b; stroke-width: 1.5"/>
    <path d="M 187.075355 116.115938 
L 187.075355 126.946675 
" clip-path="url(#pd640e0be20)" style="fill: none; stroke: #13748b; stroke-width: 1.5"/>
    <path d="M 191.564494 116.115938 
L 191.564494 123.61891 
" clip-path="url(#pd640e0be20)" style="fill: none; stroke: #13748b; stroke-width: 1.5"/>
    <path d="M 196.053633 116.115938 
L 196.053633 118.736816 
" clip-path="url(#pd640e0be20)" style="fill: none; stroke: #13748b; stroke-width: 1.5"/>
    <path d="M 200.542772 116.115938 
L 200.542772 112.851474 
" clip-path="url(#pd640e0be20)" style="fill: none; stroke: #13748b; stroke-width: 1.5"/>
    <path d="M 205.031911 116.115938 
L 205.031911 106.36716 
" clip-path="url(#pd640e0be20)" style="fill: none; stroke: #13748b; stroke-width: 1.5"/>
    <path d="M 209.521051 116.115938 
L 209.521051 99.22806 
" clip-path="url(#pd640e0be20)" style="fill: none; stroke: #13748b; stroke-width: 1.5"/>
    <path d="M 214.01019 116.115938 
L 214.01019 92.736543 
" clip-path="url(#pd640e0be20)" style="fill: none; stroke: #13748b; stroke-width: 1.5"/>
    <path d="M 218.499329 116.115938 
L 218.499329 86.654809 
" clip-path="url(#pd640e0be20)" style="fill: none; stroke: #13748b; stroke-width: 1.5"/>
    <path d="M 222.988468 116.115938 
L 222.988468 81.146791 
" clip-path="url(#pd640e0be20)" style="fill: none; stroke: #13748b; stroke-width: 1.5"/>
    <path d="M 227.477607 116.115938 
L 227.477607 79.064223 
" clip-path="url(#pd640e0be20)" style="fill: none; stroke: #13748b; stroke-width: 1.5"/>
    <path d="M 231.966747 116.115938 
L 231.966747 81.985143 
" clip-path="url(#pd640e0be20)" style="fill: none; stroke: #13748b; stroke-width: 1.5"/>
    <path d="M 236.455886 116.115938 
L 236.455886 87.524482 
" clip-path="url(#pd640e0be20)" style="fill: none; stroke: #13748b; stroke-width: 1.5"/>
    <path d="M 240.945025 116.115938 
L 240.945025 93.915429 
" clip-path="url(#pd640e0be20)" style="fill: none; stroke: #13748b; stroke-width: 1.5"/>
    <path d="M 245.434164 116.115938 
L 245.434164 100.020522 
" clip-path="url(#pd640e0be20)" style="fill: none; stroke: #13748b; stroke-width: 1.5"/>
    <path d="M 249.923303 116.115938 
L 249.923303 107.387661 
" clip-path="url(#pd640e0be20)" style="fill: none; stroke: #13748b; stroke-width: 1.5"/>
    <path d="M 254.412442 116.115938 
L 254.412442 114.58974 
" clip-path="url(#pd640e0be20)" style="fill: none; stroke: #13748b; stroke-width: 1.5"/>
    <path d="M 258.901582 116.115938 
L 258.901582 119.900196 
" clip-path="url(#pd640e0be20)" style="fill: none; stroke: #13748b; stroke-width: 1.5"/>
    <path d="M 263.390721 116.115938 
L 263.390721 125.375207 
" clip-path="url(#pd640e0be20)" style="fill: none; stroke: #13748b; stroke-width: 1.5"/>
    <path d="M 267.87986 116.115938 
L 267.87986 128.816143 
" clip-path="url(#pd640e0be20)" style="fill: none; stroke: #13748b; stroke-width: 1.5"/>
    <path d="M 272.368999 116.115938 
L 272.368999 131.397565 
" clip-path="url(#pd640e0be20)" style="fill: none; stroke: #13748b; stroke-width: 1.5"/>
    <path d="M 276.858138 116.115938 
L 276.858138 133.125756 
" clip-path="url(#pd640e0be20)" style="fill: none; stroke: #13748b; stroke-width: 1.5"/>
    <path d="M 281.347278 116.115938 
L 281.347278 133.775422 
" clip-path="url(#pd640e0be20)" style="fill: none; stroke: #13748b; stroke-width: 1.5"/>
    <path d="M 285.836417 116.115938 
L 285.836417 133.55851 
" clip-path="url(#pd640e0be20)" style="fill: none; stroke: #13748b; stroke-width: 1.5"/>
    <path d="M 290.325556 116.115938 
L 290.325556 131.163028 
" clip-path="url(#pd640e0be20)" style="fill: none; stroke: #13748b; stroke-width: 1.5"/>
    <path d="M 294.814695 116.115938 
L 294.814695 128.316084 
" clip-path="url(#pd640e0be20)" style="fill: none; stroke: #13748b; stroke-width: 1.5"/>
    <path d="M 299.303834 116.115938 
L 299.303834 124.398444 
" clip-path="url(#pd640e0be20)" style="fill: none; stroke: #13748b; stroke-width: 1.5"/>
    <path d="M 303.792973 116.115938 
L 303.792973 119.933545 
" clip-path="url(#pd640e0be20)" style="fill: none; stroke: #13748b; stroke-width: 1.5"/>
    <path d="M 308.282113 116.115938 
L 308.282113 114.496284 
" clip-path="url(#pd640e0be20)" style="fill: none; stroke: #13748b; stroke-width: 1.5"/>
    <path d="M 312.771252 116.115938 
L 312.771252 108.217267 
" clip-path="url(#pd640e0be20)" style="fill: none; stroke: #13748b; stroke-width: 1.5"/>
    <path d="M 317.260391 116.115938 
L 317.260391 101.454715 
" clip-path="url(#pd640e0be20)" style="fill: none; stroke: #13748b; stroke-width: 1.5"/>
    <path d="M 321.74953 116.115938 
L 321.74953 94.965348 
" clip-path="url(#pd640e0be20)" style="fill: none; stroke: #13748b; stroke-width: 1.5"/>
    <path d="M 326.238669 116.115938 
L 326.238669 89.940415 
" clip-path="url(#pd640e0be20)" style="fill: none; stroke: #13748b; stroke-width: 1.5"/>
    <path d="M 330.727808 116.115938 
L 330.727808 85.735841 
" clip-path="url(#pd640e0be20)" style="fill: none; stroke: #13748b; stroke-width: 1.5"/>
    <path d="M 335.216948 116.115938 
L 335.216948 83.933554 
" clip-path="url(#pd640e0be20)" style="fill: none; stroke: #13748b; stroke-width: 1.5"/>
    <path d="M 339.706087 116.115938 
L 339.706087 85.606706 
" clip-path="url(#pd640e0be20)" style="fill: none; stroke: #13748b; stroke-width: 1.5"/>
    <path d="M 344.195226 116.115938 
L 344.195226 89.815058 
" clip-path="url(#pd640e0be20)" style="fill: none; stroke: #13748b; stroke-width: 1.5"/>
    <path d="M 348.684365 116.115938 
L 348.684365 95.450615 
" clip-path="url(#pd640e0be20)" style="fill: none; stroke: #13748b; stroke-width: 1.5"/>
    <path d="M 353.173504 116.115938 
L 353.173504 101.515521 
" clip-path="url(#pd640e0be20)" style="fill: none; stroke: #13748b; stroke-width: 1.5"/>
    <path d="M 357.662644 116.115938 
L 357.662644 108.030302 
" clip-path="url(#pd640e0be20)" style="fill: none; stroke: #13748b; stroke-width: 1.5"/>
    <path d="M 362.151783 116.115938 
L 362.151783 113.95059 
" clip-path="url(#pd640e0be20)" style="fill: none; stroke: #13748b; stroke-width: 1.5"/>
    <path d="M 366.640922 116.115938 
L 366.640922 119.34746 
" clip-path="url(#pd640e0be20)" style="fill: none; stroke: #13748b; stroke-width: 1.5"/>
    <path d="M 371.130061 116.115938 
L 371.130061 124.510575 
" clip-path="url(#pd640e0be20)" style="fill: none; stroke: #13748b; stroke-width: 1.5"/>
    <path d="M 375.6192 116.115938 
L 375.6192 128.553867 
" clip-path="url(#pd640e0be20)" style="fill: none; stroke: #13748b; stroke-width: 1.5"/>
    <path d="M 380.108339 116.115938 
L 380.108339 130.43637 
" clip-path="url(#pd640e0be20)" style="fill: none; stroke: #13748b; stroke-width: 1.5"/>
    <path d="M 384.597479 116.115938 
L 384.597479 133.345696 
" clip-path="url(#pd640e0be20)" style="fill: none; stroke: #13748b; stroke-width: 1.5"/>
    <path d="M 389.086618 116.115938 
L 389.086618 134.401636 
" clip-path="url(#pd640e0be20)" style="fill: none; stroke: #13748b; stroke-width: 1.5"/>
    <path d="M 393.575757 116.115938 
L 393.575757 133.602473 
" clip-path="url(#pd640e0be20)" style="fill: none; stroke: #13748b; stroke-width: 1.5"/>
    <path d="M 398.064896 116.115938 
L 398.064896 132.017701 
" clip-path="url(#pd640e0be20)" style="fill: none; stroke: #13748b; stroke-width: 1.5"/>
    <path d="M 402.554035 116.115938 
L 402.554035 129.029899 
" clip-path="url(#pd640e0be20)" style="fill: none; stroke: #13748b; stroke-width: 1.5"/>
    <path d="M 407.043175 116.115938 
L 407.043175 124.62367 
" clip-path="url(#pd640e0be20)" style="fill: none; stroke: #13748b; stroke-width: 1.5"/>
    <path d="M 411.532314 116.115938 
L 411.532314 119.429407 
" clip-path="url(#pd640e0be20)" style="fill: none; stroke: #13748b; stroke-width: 1.5"/>
    <path d="M 416.021453 116.115938 
L 416.021453 113.600196 
" clip-path="url(#pd640e0be20)" style="fill: none; stroke: #13748b; stroke-width: 1.5"/>
    <path d="M 420.510592 116.115938 
L 420.510592 107.312168 
" clip-path="url(#pd640e0be20)" style="fill: none; stroke: #13748b; stroke-width: 1.5"/>
    <path d="M 424.999731 116.115938 
L 424.999731 100.717035 
" clip-path="url(#pd640e0be20)" style="fill: none; stroke: #13748b; stroke-width: 1.5"/>
    <path d="M 429.48887 116.115938 
L 429.48887 94.95571 
" clip-path="url(#pd640e0be20)" style="fill: none; stroke: #13748b; stroke-width: 1.5"/>
    <path d="M 433.97801 116.115938 
L 433.97801 90.035363 
" clip-path="url(#pd640e0be20)" style="fill: none; stroke: #13748b; stroke-width: 1.5"/>
    <path d="M 438.467149 116.115938 
L 438.467149 85.948063 
" clip-path="url(#pd640e0be20)" style="fill: none; stroke: #13748b; stroke-width: 1.5"/>
    <path d="M 442.956288 116.115938 
L 442.956288 84.313918 
" clip-path="url(#pd640e0be20)" style="fill: none; stroke: #13748b; stroke-width: 1.5"/>
    <path d="M 447.445427 116.115938 
L 447.445427 85.3296 
" clip-path="url(#pd640e0be20)" style="fill: none; stroke: #13748b; stroke-width: 1.5"/>
    <path d="M 451.934566 116.115938 
L 451.934566 89.541065 
" clip-path="url(#pd640e0be20)" style="fill: none; stroke: #13748b; stroke-width: 1.5"/>
    <path d="M 456.423706 116.115938 
L 456.423706 95.324874 
" clip-path="url(#pd640e0be20)" style="fill: none; stroke: #13748b; stroke-width: 1.5"/>
    <path d="M 460.912845 116.115938 
L 460.912845 100.724474 
" clip-path="url(#pd640e0be20)" style="fill: none; stroke: #13748b; stroke-width: 1.5"/>
    <path d="M 465.401984 116.115938 
L 465.401984 108.052366 
" clip-path="url(#pd640e0be20)" style="fill: none; stroke: #13748b; stroke-width: 1.5"/>
    <path d="M 469.891123 116.115938 
L 469.891123 114.191624 
" clip-path="url(#pd640e0be20)" style="fill: none; stroke: #13748b; stroke-width: 1.5"/>
    <path d="M 474.380262 116.115938 
L 474.380262 119.432412 
" clip-path="url(#pd640e0be20)" style="fill: none; stroke: #13748b; stroke-width: 1.5"/>
    <path d="M 478.869401 116.115938 
L 478.869401 124.719913 
" clip-path="url(#pd640e0be20)" style="fill: none; stroke: #13748b; stroke-width: 1.5"/>
    <path d="M 483.358541 116.115938 
L 483.358541 129.292434 
" clip-path="url(#pd640e0be20)" style="fill: none; stroke: #13748b; stroke-width: 1.5"/>
    <path d="M 487.84768 116.115938 
L 487.84768 131.509557 
" clip-path="url(#pd640e0be20)" style="fill: none; stroke: #13748b; stroke-width: 1.5"/>
    <path d="M 492.336819 116.115938 
L 492.336819 133.585215 
" clip-path="url(#pd640e0be20)" style="fill: none; stroke: #13748b; stroke-width: 1.5"/>
    <path d="M 496.825958 116.115938 
L 496.825958 134.17058 
" clip-path="url(#pd640e0be20)" style="fill: none; stroke: #13748b; stroke-width: 1.5"/>
    <path d="M 501.315097 116.115938 
L 501.315097 133.52922 
" clip-path="url(#pd640e0be20)" style="fill: none; stroke: #13748b; stroke-width: 1.5"/>
    <path d="M 505.804236 116.115938 
L 505.804236 131.438385 
" clip-path="url(#pd640e0be20)" style="fill: none; stroke: #13748b; stroke-width: 1.5"/>
    <path d="M 510.293376 116.115938 
L 510.293376 128.60139 
" clip-path="url(#pd640e0be20)" style="fill: none; stroke: #13748b; stroke-width: 1.5"/>
    <path d="M 514.782515 116.115938 
L 514.782515 124.443797 
" clip-path="url(#pd640e0be20)" style="fill: none; stroke: #13748b; stroke-width: 1.5"/>
    <path d="M 519.271654 116.115938 
L 519.271654 119.563924 
" clip-path="url(#pd640e0be20)" style="fill: none; stroke: #13748b; stroke-width: 1.5"/>
    <path d="M 523.760793 116.115938 
L 523.760793 113.489027 
" clip-path="url(#pd640e0be20)" style="fill: none; stroke: #13748b; stroke-width: 1.5"/>
    <path d="M 528.249932 116.115938 
L 528.249932 107.830345 
" clip-path="url(#pd640e0be20)" style="fill: none; stroke: #13748b; stroke-width: 1.5"/>
    <path d="M 532.739072 116.115938 
L 532.739072 101.558197 
" clip-path="url(#pd640e0be20)" style="fill: none; stroke: #13748b; stroke-width: 1.5"/>
    <path d="M 537.228211 116.115938 
L 537.228211 95.468203 
" clip-path="url(#pd640e0be20)" style="fill: none; stroke: #13748b; stroke-width: 1.5"/>
    <path d="M 541.71735 116.115938 
L 541.71735 90.986958 
" clip-path="url(#pd640e0be20)" style="fill: none; stroke: #13748b; stroke-width: 1.5"/>
    <path d="M 546.206489 116.115938 
L 546.206489 86.890013 
" clip-path="url(#pd640e0be20)" style="fill: none; stroke: #13748b; stroke-width: 1.5"/>
    <path d="M 550.695628 116.115938 
L 550.695628 85.434321 
" clip-path="url(#pd640e0be20)" style="fill: none; stroke: #13748b; stroke-width: 1.5"/>
    <path d="M 555.184767 116.115938 
L 555.184767 86.587558 
" clip-path="url(#pd640e0be20)" style="fill: none; stroke: #13748b; stroke-width: 1.5"/>
    <path d="M 559.673907 116.115938 
L 559.673907 90.072569 
" clip-path="url(#pd640e0be20)" style="fill: none; stroke: #13748b; stroke-width: 1.5"/>
    <path d="M 564.163046 116.115938 
L 564.163046 94.786842 
" clip-path="url(#pd640e0be20)" style="fill: none; stroke: #13748b; stroke-width: 1.5"/>
    <path d="M 568.652185 116.115938 
L 568.652185 100.695795 
" clip-path="url(#pd640e0be20)" style="fill: none; stroke: #13748b; stroke-width: 1.5"/>
    <path d="M 573.141324 116.115938 
L 573.141324 107.29903 
" clip-path="url(#pd640e0be20)" style="fill: none; stroke: #13748b; stroke-width: 1.5"/>
    <path d="M 577.630463 116.115938 
L 577.630463 114.146284 
" clip-path="url(#pd640e0be20)" style="fill: none; stroke: #13748b; stroke-width: 1.5"/>
    <path d="M 582.119603 116.115938 
L 582.119603 119.411002 
" clip-path="url(#pd640e0be20)" style="fill: none; stroke: #13748b; stroke-width: 1.5"/>
    <path d="M 586.608742 116.115938 
L 586.608742 124.245987 
" clip-path="url(#pd640e0be20)" style="fill: none; stroke: #13748b; stroke-width: 1.5"/>
    <path d="M 591.097881 116.115938 
L 591.097881 129.246455 
" clip-path="url(#pd640e0be20)" style="fill: none; stroke: #13748b; stroke-width: 1.5"/>
    <path d="M 595.58702 116.115938 
L 595.58702 132.075032 
" clip-path="url(#pd640e0be20)" style="fill: none; stroke: #13748b; stroke-width: 1.5"/>
    <path d="M 600.076159 116.115938 
L 600.076159 133.990452 
" clip-path="url(#pd640e0be20)" style="fill: none; stroke: #13748b; stroke-width: 1.5"/>
    <path d="M 604.565298 116.115938 
L 604.565298 134.01368 
" clip-path="url(#pd640e0be20)" style="fill: none; stroke: #13748b; stroke-width: 1.5"/>
    <path d="M 609.054438 116.115938 
L 609.054438 133.652442 
" clip-path="url(#pd640e0be20)" style="fill: none; stroke: #13748b; stroke-width: 1.5"/>
    <path d="M 613.543577 116.115938 
L 613.543577 131.872677 
" clip-path="url(#pd640e0be20)" style="fill: none; stroke: #13748b; stroke-width: 1.5"/>
    <path d="M 618.032716 116.115938 
L 618.032716 129.127809 
" clip-path="url(#pd640e0be20)" style="fill: none; stroke: #13748b; stroke-width: 1.5"/>
    <path d="M 622.521855 116.115938 
L 622.521855 125.809351 
" clip-path="url(#pd640e0be20)" style="fill: none; stroke: #13748b; stroke-width: 1.5"/>
    <path d="M 627.010994 116.115938 
L 627.010994 119.662922 
" clip-path="url(#pd640e0be20)" style="fill: none; stroke: #13748b; stroke-width: 1.5"/>
    <path d="M 631.500133 116.115938 
L 631.500133 113.626749 
" clip-path="url(#pd640e0be20)" style="fill: none; stroke: #13748b; stroke-width: 1.5"/>
    <path d="M 635.989273 116.115938 
L 635.989273 107.479073 
" clip-path="url(#pd640e0be20)" style="fill: none; stroke: #13748b; stroke-width: 1.5"/>
    <path d="M 640.478412 116.115938 
L 640.478412 101.655179 
" clip-path="url(#pd640e0be20)" style="fill: none; stroke: #13748b; stroke-width: 1.5"/>
    <path d="M 644.967551 116.115938 
L 644.967551 95.564613 
" clip-path="url(#pd640e0be20)" style="fill: none; stroke: #13748b; stroke-width: 1.5"/>
    <path d="M 649.45669 116.115938 
L 649.45669 90.915013 
" clip-path="url(#pd640e0be20)" style="fill: none; stroke: #13748b; stroke-width: 1.5"/>
    <path d="M 653.945829 116.115938 
L 653.945829 86.145728 
" clip-path="url(#pd640e0be20)" style="fill: none; stroke: #13748b; stroke-width: 1.5"/>
    <path d="M 658.434969 116.115938 
L 658.434969 84.912304 
" clip-path="url(#pd640e0be20)" style="fill: none; stroke: #13748b; stroke-width: 1.5"/>
    <path d="M 662.924108 116.115938 
L 662.924108 86.340804 
" clip-path="url(#pd640e0be20)" style="fill: none; stroke: #13748b; stroke-width: 1.5"/>
    <path d="M 667.413247 116.115938 
L 667.413247 90.391436 
" clip-path="url(#pd640e0be20)" style="fill: none; stroke: #13748b; stroke-width: 1.5"/>
    <path d="M 671.902386 116.115938 
L 671.902386 95.080714 
" clip-path="url(#pd640e0be20)" style="fill: none; stroke: #13748b; stroke-width: 1.5"/>
    <path d="M 676.391525 116.115938 
L 676.391525 100.810755 
" clip-path="url(#pd640e0be20)" style="fill: none; stroke: #13748b; stroke-width: 1.5"/>
    <path d="M 680.880664 116.115938 
L 680.880664 108.202618 
" clip-path="url(#pd640e0be20)" style="fill: none; stroke: #13748b; stroke-width: 1.5"/>
    <path d="M 685.369804 116.115938 
L 685.369804 115.159498 
" clip-path="url(#pd640e0be20)" style="fill: none; stroke: #13748b; stroke-width: 1.5"/>
    <path d="M 689.858943 116.115938 
L 689.858943 120.183876 
" clip-path="url(#pd640e0be20)" style="fill: none; stroke: #13748b; stroke-width: 1.5"/>
    <path d="M 694.348082 116.115938 
L 694.348082 124.479662 
" clip-path="url(#pd640e0be20)" style="fill: none; stroke: #13748b; stroke-width: 1.5"/>
    <path d="M 698.837221 116.115938 
L 698.837221 128.360679 
" clip-path="url(#pd640e0be20)" style="fill: none; stroke: #13748b; stroke-width: 1.5"/>
    <path d="M 703.32636 116.115938 
L 703.32636 131.052778 
" clip-path="url(#pd640e0be20)" style="fill: none; stroke: #13748b; stroke-width: 1.5"/>
    <path d="M 707.8155 116.115938 
L 707.8155 133.172684 
" clip-path="url(#pd640e0be20)" style="fill: none; stroke: #13748b; stroke-width: 1.5"/>
    <path d="M 712.304639 116.115938 
L 712.304639 133.184928 
" clip-path="url(#pd640e0be20)" style="fill: none; stroke: #13748b; stroke-width: 1.5"/>
    <path d="M 716.793778 116.115938 
L 716.793778 133.39376 
" clip-path="url(#pd640e0be20)" style="fill: none; stroke: #13748b; stroke-width: 1.5"/>
    <path d="M 721.282917 116.115938 
L 721.282917 131.214552 
" clip-path="url(#pd640e0be20)" style="fill: none; stroke: #13748b; stroke-width: 1.5"/>
    <path d="M 725.772056 116.115938 
L 725.772056 129.376126 
" clip-path="url(#pd640e0be20)" style="fill: none; stroke: #13748b; stroke-width: 1.5"/>
    <path d="M 730.261195 116.115938 
L 730.261195 126.279954 
" clip-path="url(#pd640e0be20)" style="fill: none; stroke: #13748b; stroke-width: 1.5"/>
    <path d="M 734.750335 116.115938 
L 734.750335 120.989172 
" clip-path="url(#pd640e0be20)" style="fill: none; stroke: #13748b; stroke-width: 1.5"/>
    <path d="M 739.239474 116.115938 
L 739.239474 114.573361 
" clip-path="url(#pd640e0be20)" style="fill: none; stroke: #13748b; stroke-width: 1.5"/>
    <path d="M 743.728613 116.115938 
L 743.728613 107.460663 
" clip-path="url(#pd640e0be20)" style="fill: none; stroke: #13748b; stroke-width: 1.5"/>
    <path d="M 748.217752 116.115938 
L 748.217752 100.480123 
" clip-path="url(#pd640e0be20)" style="fill: none; stroke: #13748b; stroke-width: 1.5"/>
    <path d="M 752.706891 116.115938 
L 752.706891 94.914761 
" clip-path="url(#pd640e0be20)" style="fill: none; stroke: #13748b; stroke-width: 1.5"/>
    <path d="M 757.196031 116.115938 
L 757.196031 89.185881 
" clip-path="url(#pd640e0be20)" style="fill: none; stroke: #13748b; stroke-width: 1.5"/>
    <path d="M 761.68517 116.115938 
L 761.68517 85.131238 
" clip-path="url(#pd640e0be20)" style="fill: none; stroke: #13748b; stroke-width: 1.5"/>
    <path d="M 766.174309 116.115938 
L 766.174309 83.055324 
" clip-path="url(#pd640e0be20)" style="fill: none; stroke: #13748b; stroke-width: 1.5"/>
    <path d="M 770.663448 116.115938 
L 770.663448 85.395111 
" clip-path="url(#pd640e0be20)" style="fill: none; stroke: #13748b; stroke-width: 1.5"/>
    <path d="M 775.152587 116.115938 
L 775.152587 89.523074 
" clip-path="url(#pd640e0be20)" style="fill: none; stroke: #13748b; stroke-width: 1.5"/>
    <path d="M 779.641726 116.115938 
L 779.641726 95.201413 
" clip-path="url(#pd640e0be20)" style="fill: none; stroke: #13748b; stroke-width: 1.5"/>
    <path d="M 784.130866 116.115938 
L 784.130866 101.198079 
" clip-path="url(#pd640e0be20)" style="fill: none; stroke: #13748b; stroke-width: 1.5"/>
    <path d="M 788.620005 116.115938 
L 788.620005 107.893243 
" clip-path="url(#pd640e0be20)" style="fill: none; stroke: #13748b; stroke-width: 1.5"/>
    <path d="M 793.109144 116.115938 
L 793.109144 113.891624 
" clip-path="url(#pd640e0be20)" style="fill: none; stroke: #13748b; stroke-width: 1.5"/>
    <path d="M 797.598283 116.115938 
L 797.598283 119.731221 
" clip-path="url(#pd640e0be20)" style="fill: none; stroke: #13748b; stroke-width: 1.5"/>
    <path d="M 802.087422 116.115938 
L 802.087422 124.969401 
" clip-path="url(#pd640e0be20)" style="fill: none; stroke: #13748b; stroke-width: 1.5"/>
    <path d="M 806.576561 116.115938 
L 806.576561 129.212004 
" clip-path="url(#pd640e0be20)" style="fill: none; stroke: #13748b; stroke-width: 1.5"/>
    <path d="M 811.065701 116.115938 
L 811.065701 131.546861 
" clip-path="url(#pd640e0be20)" style="fill: none; stroke: #13748b; stroke-width: 1.5"/>
    <path d="M 815.55484 116.115938 
L 815.55484 132.962158 
" clip-path="url(#pd640e0be20)" style="fill: none; stroke: #13748b; stroke-width: 1.5"/>
    <path d="M 820.043979 116.115938 
L 820.043979 133.595889 
" clip-path="url(#pd640e0be20)" style="fill: none; stroke: #13748b; stroke-width: 1.5"/>
    <path d="M 824.533118 116.115938 
L 824.533118 132.564201 
" clip-path="url(#pd640e0be20)" style="fill: none; stroke: #13748b; stroke-width: 1.5"/>
    <path d="M 829.022257 116.115938 
L 829.022257 130.533929 
" clip-path="url(#pd640e0be20)" style="fill: none; stroke: #13748b; stroke-width: 1.5"/>
    <path d="M 833.511397 116.115938 
L 833.511397 129.635709 
" clip-path="url(#pd640e0be20)" style="fill: none; stroke: #13748b; stroke-width: 1.5"/>
    <path d="M 838.000536 116.115938 
L 838.000536 125.704514 
" clip-path="url(#pd640e0be20)" style="fill: none; stroke: #13748b; stroke-width: 1.5"/>
    <path d="M 842.489675 116.115938 
L 842.489675 120.19415 
" clip-path="url(#pd640e0be20)" style="fill: none; stroke: #13748b; stroke-width: 1.5"/>
    <path d="M 846.978814 116.115938 
L 846.978814 114.408422 
" clip-path="url(#pd640e0be20)" style="fill: none; stroke: #13748b; stroke-width: 1.5"/>
    <path d="M 851.467953 116.115938 
L 851.467953 107.648742 
" clip-path="url(#pd640e0be20)" style="fill: none; stroke: #13748b; stroke-width: 1.5"/>
    <path d="M 855.957092 116.115938 
L 855.957092 101.403964 
" clip-path="url(#pd640e0be20)" style="fill: none; stroke: #13748b; stroke-width: 1.5"/>
    <path d="M 860.446232 116.115938 
L 860.446232 95.278728 
" clip-path="url(#pd640e0be20)" style="fill: none; stroke: #13748b; stroke-width: 1.5"/>
    <path d="M 864.935371 116.115938 
L 864.935371 89.267461 
" clip-path="url(#pd640e0be20)" style="fill: none; stroke: #13748b; stroke-width: 1.5"/>
    <path d="M 869.42451 116.115938 
L 869.42451 84.042596 
" clip-path="url(#pd640e0be20)" style="fill: none; stroke: #13748b; stroke-width: 1.5"/>
    <path d="M 873.913649 116.115938 
L 873.913649 80.851073 
" clip-path="url(#pd640e0be20)" style="fill: none; stroke: #13748b; stroke-width: 1.5"/>
    <path d="M 878.402788 116.115938 
L 878.402788 84.500195 
" clip-path="url(#pd640e0be20)" style="fill: none; stroke: #13748b; stroke-width: 1.5"/>
   </g>
   <g id="line2d_12">
    <path d="M 81.692813 116.115938 
L 918.692813 116.115938 
" clip-path="url(#pd640e0be20)" style="fill: none; stroke: #000000; stroke-linecap: square"/>
   </g>
   <g id="line2d_13">
    <defs>
     <path id="m9461d4cb4e" d="M 0 2.5 
C 0.663008 2.5 1.29895 2.236584 1.767767 1.767767 
C 2.236584 1.29895 2.5 0.663008 2.5 0 
C 2.5 -0.663008 2.236584 -1.29895 1.767767 -1.767767 
C 1.29895 -2.236584 0.663008 -2.5 0 -2.5 
C -0.663008 -2.5 -1.29895 -2.236584 -1.767767 -1.767767 
C -2.236584 -1.29895 -2.5 -0.663008 -2.5 0 
C -2.5 0.663008 -2.236584 1.29895 -1.767767 1.767767 
C -1.29895 2.236584 -0.663008 2.5 0 2.5 
z
" style="stroke: #13748b"/>
    </defs>
    <g clip-path="url(#pd640e0be20)">
     <use xlink:href="#m9461d4cb4e" x="119.738267" y="32.955938" style="fill: #13748b; stroke: #13748b"/>
     <use xlink:href="#m9461d4cb4e" x="124.227406" y="64.572854" style="fill: #13748b; stroke: #13748b"/>
     <use xlink:href="#m9461d4cb4e" x="128.716545" y="77.257971" style="fill: #13748b; stroke: #13748b"/>
     <use xlink:href="#m9461d4cb4e" x="133.205685" y="86.526922" style="fill: #13748b; stroke: #13748b"/>
     <use xlink:href="#m9461d4cb4e" x="137.694824" y="95.596722" style="fill: #13748b; stroke: #13748b"/>
     <use xlink:href="#m9461d4cb4e" x="142.183963" y="104.662763" style="fill: #13748b; stroke: #13748b"/>
     <use xlink:href="#m9461d4cb4e" x="146.673102" y="112.27547" style="fill: #13748b; stroke: #13748b"/>
     <use xlink:href="#m9461d4cb4e" x="151.162241" y="118.556703" style="fill: #13748b; stroke: #13748b"/>
     <use xlink:href="#m9461d4cb4e" x="155.65138" y="123.901779" style="fill: #13748b; stroke: #13748b"/>
     <use xlink:href="#m9461d4cb4e" x="160.14052" y="127.371131" style="fill: #13748b; stroke: #13748b"/>
     <use xlink:href="#m9461d4cb4e" x="164.629659" y="129.568069" style="fill: #13748b; stroke: #13748b"/>
     <use xlink:href="#m9461d4cb4e" x="169.118798" y="130.644897" style="fill: #13748b; stroke: #13748b"/>
     <use xlink:href="#m9461d4cb4e" x="173.607937" y="131.991358" style="fill: #13748b; stroke: #13748b"/>
     <use xlink:href="#m9461d4cb4e" x="178.097076" y="131.266116" style="fill: #13748b; stroke: #13748b"/>
     <use xlink:href="#m9461d4cb4e" x="182.586216" y="130.00383" style="fill: #13748b; stroke: #13748b"/>
     <use xlink:href="#m9461d4cb4e" x="187.075355" y="126.946675" style="fill: #13748b; stroke: #13748b"/>
     <use xlink:href="#m9461d4cb4e" x="191.564494" y="123.61891" style="fill: #13748b; stroke: #13748b"/>
     <use xlink:href="#m9461d4cb4e" x="196.053633" y="118.736816" style="fill: #13748b; stroke: #13748b"/>
     <use xlink:href="#m9461d4cb4e" x="200.542772" y="112.851474" style="fill: #13748b; stroke: #13748b"/>
     <use xlink:href="#m9461d4cb4e" x="205.031911" y="106.36716" style="fill: #13748b; stroke: #13748b"/>
     <use xlink:href="#m9461d4cb4e" x="209.521051" y="99.22806" style="fill: #13748b; stroke: #13748b"/>
     <use xlink:href="#m9461d4cb4e" x="214.01019" y="92.736543" style="fill: #13748b; stroke: #13748b"/>
     <use xlink:href="#m9461d4cb4e" x="218.499329" y="86.654809" style="fill: #13748b; stroke: #13748b"/>
     <use xlink:href="#m9461d4cb4e" x="222.988468" y="81.146791" style="fill: #13748b; stroke: #13748b"/>
     <use xlink:href="#m9461d4cb4e" x="227.477607" y="79.064223" style="fill: #13748b; stroke: #13748b"/>
     <use xlink:href="#m9461d4cb4e" x="231.966747" y="81.985143" style="fill: #13748b; stroke: #13748b"/>
     <use xlink:href="#m9461d4cb4e" x="236.455886" y="87.524482" style="fill: #13748b; stroke: #13748b"/>
     <use xlink:href="#m9461d4cb4e" x="240.945025" y="93.915429" style="fill: #13748b; stroke: #13748b"/>
     <use xlink:href="#m9461d4cb4e" x="245.434164" y="100.020522" style="fill: #13748b; stroke: #13748b"/>
     <use xlink:href="#m9461d4cb4e" x="249.923303" y="107.387661" style="fill: #13748b; stroke: #13748b"/>
     <use xlink:href="#m9461d4cb4e" x="254.412442" y="114.58974" style="fill: #13748b; stroke: #13748b"/>
     <use xlink:href="#m9461d4cb4e" x="258.901582" y="119.900196" style="fill: #13748b; stroke: #13748b"/>
     <use xlink:href="#m9461d4cb4e" x="263.390721" y="125.375207" style="fill: #13748b; stroke: #13748b"/>
     <use xlink:href="#m9461d4cb4e" x="267.87986" y="128.816143" style="fill: #13748b; stroke: #13748b"/>
     <use xlink:href="#m9461d4cb4e" x="272.368999" y="131.397565" style="fill: #13748b; stroke: #13748b"/>
     <use xlink:href="#m9461d4cb4e" x="276.858138" y="133.125756" style="fill: #13748b; stroke: #13748b"/>
     <use xlink:href="#m9461d4cb4e" x="281.347278" y="133.775422" style="fill: #13748b; stroke: #13748b"/>
     <use xlink:href="#m9461d4cb4e" x="285.836417" y="133.55851" style="fill: #13748b; stroke: #13748b"/>
     <use xlink:href="#m9461d4cb4e" x="290.325556" y="131.163028" style="fill: #13748b; stroke: #13748b"/>
     <use xlink:href="#m9461d4cb4e" x="294.814695" y="128.316084" style="fill: #13748b; stroke: #13748b"/>
     <use xlink:href="#m9461d4cb4e" x="299.303834" y="124.398444" style="fill: #13748b; stroke: #13748b"/>
     <use xlink:href="#m9461d4cb4e" x="303.792973" y="119.933545" style="fill: #13748b; stroke: #13748b"/>
     <use xlink:href="#m9461d4cb4e" x="308.282113" y="114.496284" style="fill: #13748b; stroke: #13748b"/>
     <use xlink:href="#m9461d4cb4e" x="312.771252" y="108.217267" style="fill: #13748b; stroke: #13748b"/>
     <use xlink:href="#m9461d4cb4e" x="317.260391" y="101.454715" style="fill: #13748b; stroke: #13748b"/>
     <use xlink:href="#m9461d4cb4e" x="321.74953" y="94.965348" style="fill: #13748b; stroke: #13748b"/>
     <use xlink:href="#m9461d4cb4e" x="326.238669" y="89.940415" style="fill: #13748b; stroke: #13748b"/>
     <use xlink:href="#m9461d4cb4e" x="330.727808" y="85.735841" style="fill: #13748b; stroke: #13748b"/>
     <use xlink:href="#m9461d4cb4e" x="335.216948" y="83.933554" style="fill: #13748b; stroke: #13748b"/>
     <use xlink:href="#m9461d4cb4e" x="339.706087" y="85.606706" style="fill: #13748b; stroke: #13748b"/>
     <use xlink:href="#m9461d4cb4e" x="344.195226" y="89.815058" style="fill: #13748b; stroke: #13748b"/>
     <use xlink:href="#m9461d4cb4e" x="348.684365" y="95.450615" style="fill: #13748b; stroke: #13748b"/>
     <use xlink:href="#m9461d4cb4e" x="353.173504" y="101.515521" style="fill: #13748b; stroke: #13748b"/>
     <use xlink:href="#m9461d4cb4e" x="357.662644" y="108.030302" style="fill: #13748b; stroke: #13748b"/>
     <use xlink:href="#m9461d4cb4e" x="362.151783" y="113.95059" style="fill: #13748b; stroke: #13748b"/>
     <use xlink:href="#m9461d4cb4e" x="366.640922" y="119.34746" style="fill: #13748b; stroke: #13748b"/>
     <use xlink:href="#m9461d4cb4e" x="371.130061" y="124.510575" style="fill: #13748b; stroke: #13748b"/>
     <use xlink:href="#m9461d4cb4e" x="375.6192" y="128.553867" style="fill: #13748b; stroke: #13748b"/>
     <use xlink:href="#m9461d4cb4e" x="380.108339" y="130.43637" style="fill: #13748b; stroke: #13748b"/>
     <use xlink:href="#m9461d4cb4e" x="384.597479" y="133.345696" style="fill: #13748b; stroke: #13748b"/>
     <use xlink:href="#m9461d4cb4e" x="389.086618" y="134.401636" style="fill: #13748b; stroke: #13748b"/>
     <use xlink:href="#m9461d4cb4e" x="393.575757" y="133.602473" style="fill: #13748b; stroke: #13748b"/>
     <use xlink:href="#m9461d4cb4e" x="398.064896" y="132.017701" style="fill: #13748b; stroke: #13748b"/>
     <use xlink:href="#m9461d4cb4e" x="402.554035" y="129.029899" style="fill: #13748b; stroke: #13748b"/>
     <use xlink:href="#m9461d4cb4e" x="407.043175" y="124.62367" style="fill: #13748b; stroke: #13748b"/>
     <use xlink:href="#m9461d4cb4e" x="411.532314" y="119.429407" style="fill: #13748b; stroke: #13748b"/>
     <use xlink:href="#m9461d4cb4e" x="416.021453" y="113.600196" style="fill: #13748b; stroke: #13748b"/>
     <use xlink:href="#m9461d4cb4e" x="420.510592" y="107.312168" style="fill: #13748b; stroke: #13748b"/>
     <use xlink:href="#m9461d4cb4e" x="424.999731" y="100.717035" style="fill: #13748b; stroke: #13748b"/>
     <use xlink:href="#m9461d4cb4e" x="429.48887" y="94.95571" style="fill: #13748b; stroke: #13748b"/>
     <use xlink:href="#m9461d4cb4e" x="433.97801" y="90.035363" style="fill: #13748b; stroke: #13748b"/>
     <use xlink:href="#m9461d4cb4e" x="438.467149" y="85.948063" style="fill: #13748b; stroke: #13748b"/>
     <use xlink:href="#m9461d4cb4e" x="442.956288" y="84.313918" style="fill: #13748b; stroke: #13748b"/>
     <use xlink:href="#m9461d4cb4e" x="447.445427" y="85.3296" style="fill: #13748b; stroke: #13748b"/>
     <use xlink:href="#m9461d4cb4e" x="451.934566" y="89.541065" style="fill: #13748b; stroke: #13748b"/>
     <use xlink:href="#m9461d4cb4e" x="456.423706" y="95.324874" style="fill: #13748b; stroke: #13748b"/>
     <use xlink:href="#m9461d4cb4e" x="460.912845" y="100.724474" style="fill: #13748b; stroke: #13748b"/>
     <use xlink:href="#m9461d4cb4e" x="465.401984" y="108.052366" style="fill: #13748b; stroke: #13748b"/>
     <use xlink:href="#m9461d4cb4e" x="469.891123" y="114.191624" style="fill: #13748b; stroke: #13748b"/>
     <use xlink:href="#m9461d4cb4e" x="474.380262" y="119.432412" style="fill: #13748b; stroke: #13748b"/>
     <use xlink:href="#m9461d4cb4e" x="478.869401" y="124.719913" style="fill: #13748b; stroke: #13748b"/>
     <use xlink:href="#m9461d4cb4e" x="483.358541" y="129.292434" style="fill: #13748b; stroke: #13748b"/>
     <use xlink:href="#m9461d4cb4e" x="487.84768" y="131.509557" style="fill: #13748b; stroke: #13748b"/>
     <use xlink:href="#m9461d4cb4e" x="492.336819" y="133.585215" style="fill: #13748b; stroke: #13748b"/>
     <use xlink:href="#m9461d4cb4e" x="496.825958" y="134.17058" style="fill: #13748b; stroke: #13748b"/>
     <use xlink:href="#m9461d4cb4e" x="501.315097" y="133.52922" style="fill: #13748b; stroke: #13748b"/>
     <use xlink:href="#m9461d4cb4e" x="505.804236" y="131.438385" style="fill: #13748b; stroke: #13748b"/>
     <use xlink:href="#m9461d4cb4e" x="510.293376" y="128.60139" style="fill: #13748b; stroke: #13748b"/>
     <use xlink:href="#m9461d4cb4e" x="514.782515" y="124.443797" style="fill: #13748b; stroke: #13748b"/>
     <use xlink:href="#m9461d4cb4e" x="519.271654" y="119.563924" style="fill: #13748b; stroke: #13748b"/>
     <use xlink:href="#m9461d4cb4e" x="523.760793" y="113.489027" style="fill: #13748b; stroke: #13748b"/>
     <use xlink:href="#m9461d4cb4e" x="528.249932" y="107.830345" style="fill: #13748b; stroke: #13748b"/>
     <use xlink:href="#m9461d4cb4e" x="532.739072" y="101.558197" style="fill: #13748b; stroke: #13748b"/>
     <use xlink:href="#m9461d4cb4e" x="537.228211" y="95.468203" style="fill: #13748b; stroke: #13748b"/>
     <use xlink:href="#m9461d4cb4e" x="541.71735" y="90.986958" style="fill: #13748b; stroke: #13748b"/>
     <use xlink:href="#m9461d4cb4e" x="546.206489" y="86.890013" style="fill: #13748b; stroke: #13748b"/>
     <use xlink:href="#m9461d4cb4e" x="550.695628" y="85.434321" style="fill: #13748b; stroke: #13748b"/>
     <use xlink:href="#m9461d4cb4e" x="555.184767" y="86.587558" style="fill: #13748b; stroke: #13748b"/>
     <use xlink:href="#m9461d4cb4e" x="559.673907" y="90.072569" style="fill: #13748b; stroke: #13748b"/>
     <use xlink:href="#m9461d4cb4e" x="564.163046" y="94.786842" style="fill: #13748b; stroke: #13748b"/>
     <use xlink:href="#m9461d4cb4e" x="568.652185" y="100.695795" style="fill: #13748b; stroke: #13748b"/>
     <use xlink:href="#m9461d4cb4e" x="573.141324" y="107.29903" style="fill: #13748b; stroke: #13748b"/>
     <use xlink:href="#m9461d4cb4e" x="577.630463" y="114.146284" style="fill: #13748b; stroke: #13748b"/>
     <use xlink:href="#m9461d4cb4e" x="582.119603" y="119.411002" style="fill: #13748b; stroke: #13748b"/>
     <use xlink:href="#m9461d4cb4e" x="586.608742" y="124.245987" style="fill: #13748b; stroke: #13748b"/>
     <use xlink:href="#m9461d4cb4e" x="591.097881" y="129.246455" style="fill: #13748b; stroke: #13748b"/>
     <use xlink:href="#m9461d4cb4e" x="595.58702" y="132.075032" style="fill: #13748b; stroke: #13748b"/>
     <use xlink:href="#m9461d4cb4e" x="600.076159" y="133.990452" style="fill: #13748b; stroke: #13748b"/>
     <use xlink:href="#m9461d4cb4e" x="604.565298" y="134.01368" style="fill: #13748b; stroke: #13748b"/>
     <use xlink:href="#m9461d4cb4e" x="609.054438" y="133.652442" style="fill: #13748b; stroke: #13748b"/>
     <use xlink:href="#m9461d4cb4e" x="613.543577" y="131.872677" style="fill: #13748b; stroke: #13748b"/>
     <use xlink:href="#m9461d4cb4e" x="618.032716" y="129.127809" style="fill: #13748b; stroke: #13748b"/>
     <use xlink:href="#m9461d4cb4e" x="622.521855" y="125.809351" style="fill: #13748b; stroke: #13748b"/>
     <use xlink:href="#m9461d4cb4e" x="627.010994" y="119.662922" style="fill: #13748b; stroke: #13748b"/>
     <use xlink:href="#m9461d4cb4e" x="631.500133" y="113.626749" style="fill: #13748b; stroke: #13748b"/>
     <use xlink:href="#m9461d4cb4e" x="635.989273" y="107.479073" style="fill: #13748b; stroke: #13748b"/>
     <use xlink:href="#m9461d4cb4e" x="640.478412" y="101.655179" style="fill: #13748b; stroke: #13748b"/>
     <use xlink:href="#m9461d4cb4e" x="644.967551" y="95.564613" style="fill: #13748b; stroke: #13748b"/>
     <use xlink:href="#m9461d4cb4e" x="649.45669" y="90.915013" style="fill: #13748b; stroke: #13748b"/>
     <use xlink:href="#m9461d4cb4e" x="653.945829" y="86.145728" style="fill: #13748b; stroke: #13748b"/>
     <use xlink:href="#m9461d4cb4e" x="658.434969" y="84.912304" style="fill: #13748b; stroke: #13748b"/>
     <use xlink:href="#m9461d4cb4e" x="662.924108" y="86.340804" style="fill: #13748b; stroke: #13748b"/>
     <use xlink:href="#m9461d4cb4e" x="667.413247" y="90.391436" style="fill: #13748b; stroke: #13748b"/>
     <use xlink:href="#m9461d4cb4e" x="671.902386" y="95.080714" style="fill: #13748b; stroke: #13748b"/>
     <use xlink:href="#m9461d4cb4e" x="676.391525" y="100.810755" style="fill: #13748b; stroke: #13748b"/>
     <use xlink:href="#m9461d4cb4e" x="680.880664" y="108.202618" style="fill: #13748b; stroke: #13748b"/>
     <use xlink:href="#m9461d4cb4e" x="685.369804" y="115.159498" style="fill: #13748b; stroke: #13748b"/>
     <use xlink:href="#m9461d4cb4e" x="689.858943" y="120.183876" style="fill: #13748b; stroke: #13748b"/>
     <use xlink:href="#m9461d4cb4e" x="694.348082" y="124.479662" style="fill: #13748b; stroke: #13748b"/>
     <use xlink:href="#m9461d4cb4e" x="698.837221" y="128.360679" style="fill: #13748b; stroke: #13748b"/>
     <use xlink:href="#m9461d4cb4e" x="703.32636" y="131.052778" style="fill: #13748b; stroke: #13748b"/>
     <use xlink:href="#m9461d4cb4e" x="707.8155" y="133.172684" style="fill: #13748b; stroke: #13748b"/>
     <use xlink:href="#m9461d4cb4e" x="712.304639" y="133.184928" style="fill: #13748b; stroke: #13748b"/>
     <use xlink:href="#m9461d4cb4e" x="716.793778" y="133.39376" style="fill: #13748b; stroke: #13748b"/>
     <use xlink:href="#m9461d4cb4e" x="721.282917" y="131.214552" style="fill: #13748b; stroke: #13748b"/>
     <use xlink:href="#m9461d4cb4e" x="725.772056" y="129.376126" style="fill: #13748b; stroke: #13748b"/>
     <use xlink:href="#m9461d4cb4e" x="730.261195" y="126.279954" style="fill: #13748b; stroke: #13748b"/>
     <use xlink:href="#m9461d4cb4e" x="734.750335" y="120.989172" style="fill: #13748b; stroke: #13748b"/>
     <use xlink:href="#m9461d4cb4e" x="739.239474" y="114.573361" style="fill: #13748b; stroke: #13748b"/>
     <use xlink:href="#m9461d4cb4e" x="743.728613" y="107.460663" style="fill: #13748b; stroke: #13748b"/>
     <use xlink:href="#m9461d4cb4e" x="748.217752" y="100.480123" style="fill: #13748b; stroke: #13748b"/>
     <use xlink:href="#m9461d4cb4e" x="752.706891" y="94.914761" style="fill: #13748b; stroke: #13748b"/>
     <use xlink:href="#m9461d4cb4e" x="757.196031" y="89.185881" style="fill: #13748b; stroke: #13748b"/>
     <use xlink:href="#m9461d4cb4e" x="761.68517" y="85.131238" style="fill: #13748b; stroke: #13748b"/>
     <use xlink:href="#m9461d4cb4e" x="766.174309" y="83.055324" style="fill: #13748b; stroke: #13748b"/>
     <use xlink:href="#m9461d4cb4e" x="770.663448" y="85.395111" style="fill: #13748b; stroke: #13748b"/>
     <use xlink:href="#m9461d4cb4e" x="775.152587" y="89.523074" style="fill: #13748b; stroke: #13748b"/>
     <use xlink:href="#m9461d4cb4e" x="779.641726" y="95.201413" style="fill: #13748b; stroke: #13748b"/>
     <use xlink:href="#m9461d4cb4e" x="784.130866" y="101.198079" style="fill: #13748b; stroke: #13748b"/>
     <use xlink:href="#m9461d4cb4e" x="788.620005" y="107.893243" style="fill: #13748b; stroke: #13748b"/>
     <use xlink:href="#m9461d4cb4e" x="793.109144" y="113.891624" style="fill: #13748b; stroke: #13748b"/>
     <use xlink:href="#m9461d4cb4e" x="797.598283" y="119.731221" style="fill: #13748b; stroke: #13748b"/>
     <use xlink:href="#m9461d4cb4e" x="802.087422" y="124.969401" style="fill: #13748b; stroke: #13748b"/>
     <use xlink:href="#m9461d4cb4e" x="806.576561" y="129.212004" style="fill: #13748b; stroke: #13748b"/>
     <use xlink:href="#m9461d4cb4e" x="811.065701" y="131.546861" style="fill: #13748b; stroke: #13748b"/>
     <use xlink:href="#m9461d4cb4e" x="815.55484" y="132.962158" style="fill: #13748b; stroke: #13748b"/>
     <use xlink:href="#m9461d4cb4e" x="820.043979" y="133.595889" style="fill: #13748b; stroke: #13748b"/>
     <use xlink:href="#m9461d4cb4e" x="824.533118" y="132.564201" style="fill: #13748b; stroke: #13748b"/>
     <use xlink:href="#m9461d4cb4e" x="829.022257" y="130.533929" style="fill: #13748b; stroke: #13748b"/>
     <use xlink:href="#m9461d4cb4e" x="833.511397" y="129.635709" style="fill: #13748b; stroke: #13748b"/>
     <use xlink:href="#m9461d4cb4e" x="838.000536" y="125.704514" style="fill: #13748b; stroke: #13748b"/>
     <use xlink:href="#m9461d4cb4e" x="842.489675" y="120.19415" style="fill: #13748b; stroke: #13748b"/>
     <use xlink:href="#m9461d4cb4e" x="846.978814" y="114.408422" style="fill: #13748b; stroke: #13748b"/>
     <use xlink:href="#m9461d4cb4e" x="851.467953" y="107.648742" style="fill: #13748b; stroke: #13748b"/>
     <use xlink:href="#m9461d4cb4e" x="855.957092" y="101.403964" style="fill: #13748b; stroke: #13748b"/>
     <use xlink:href="#m9461d4cb4e" x="860.446232" y="95.278728" style="fill: #13748b; stroke: #13748b"/>
     <use xlink:href="#m9461d4cb4e" x="864.935371" y="89.267461" style="fill: #13748b; stroke: #13748b"/>
     <use xlink:href="#m9461d4cb4e" x="869.42451" y="84.042596" style="fill: #13748b; stroke: #13748b"/>
     <use xlink:href="#m9461d4cb4e" x="873.913649" y="80.851073" style="fill: #13748b; stroke: #13748b"/>
     <use xlink:href="#m9461d4cb4e" x="878.402788" y="84.500195" style="fill: #13748b; stroke: #13748b"/>
    </g>
   </g>
   <g id="patch_3">
    <path d="M 81.692813 199.275937 
L 81.692813 32.955938 
" style="fill: none; stroke: #000000; stroke-width: 0.8; stroke-linejoin: miter; stroke-linecap: square"/>
   </g>
   <g id="patch_4">
    <path d="M 918.692813 199.275937 
L 918.692813 32.955938 
" style="fill: none; stroke: #000000; stroke-width: 0.8; stroke-linejoin: miter; stroke-linecap: square"/>
   </g>
   <g id="patch_5">
    <path d="M 81.692813 199.275937 
L 918.692812 199.275937 
" style="fill: none; stroke: #000000; stroke-width: 0.8; stroke-linejoin: miter; stroke-linecap: square"/>
   </g>
   <g id="patch_6">
    <path d="M 81.692813 32.955938 
L 918.692812 32.955938 
" style="fill: none; stroke: #000000; stroke-width: 0.8; stroke-linejoin: miter; stroke-linecap: square"/>
   </g>
   <g id="text_14">
    <!-- Autocorrelation Plot -->
    <g transform="translate(371.628906 26.955938) scale(0.26 -0.26)">
     <defs>
      <path id="DejaVuSans-20" transform="scale(0.015625)"/>
      <path id="DejaVuSans-50" d="M 1259 4147 
L 1259 2394 
L 2053 2394 
Q 2494 2394 2734 2622 
Q 2975 2850 2975 3272 
Q 2975 3691 2734 3919 
Q 2494 4147 2053 4147 
L 1259 4147 
z
M 628 4666 
L 2053 4666 
Q 2838 4666 3239 4311 
Q 3641 3956 3641 3272 
Q 3641 2581 3239 2228 
Q 2838 1875 2053 1875 
L 1259 1875 
L 1259 0 
L 628 0 
L 628 4666 
z
" transform="scale(0.015625)"/>
     </defs>
     <use xlink:href="#DejaVuSans-41"/>
     <use xlink:href="#DejaVuSans-75" x="68.408203"/>
     <use xlink:href="#DejaVuSans-74" x="131.787109"/>
     <use xlink:href="#DejaVuSans-6f" x="170.996094"/>
     <use xlink:href="#DejaVuSans-63" x="232.177734"/>
     <use xlink:href="#DejaVuSans-6f" x="287.158203"/>
     <use xlink:href="#DejaVuSans-72" x="348.339844"/>
     <use xlink:href="#DejaVuSans-72" x="387.703125"/>
     <use xlink:href="#DejaVuSans-65" x="426.566406"/>
     <use xlink:href="#DejaVuSans-6c" x="488.089844"/>
     <use xlink:href="#DejaVuSans-61" x="515.873047"/>
     <use xlink:href="#DejaVuSans-74" x="577.152344"/>
     <use xlink:href="#DejaVuSans-69" x="616.361328"/>
     <use xlink:href="#DejaVuSans-6f" x="644.144531"/>
     <use xlink:href="#DejaVuSans-6e" x="705.326172"/>
     <use xlink:href="#DejaVuSans-20" x="768.705078"/>
     <use xlink:href="#DejaVuSans-50" x="800.492188"/>
     <use xlink:href="#DejaVuSans-6c" x="860.794922"/>
     <use xlink:href="#DejaVuSans-6f" x="888.578125"/>
     <use xlink:href="#DejaVuSans-74" x="949.759766"/>
    </g>
   </g>
  </g>
 </g>
 <defs>
  <clipPath id="pd640e0be20">
   <rect x="81.692813" y="32.955938" width="837" height="166.32"/>
  </clipPath>
 </defs>
</svg>
