<?xml version="1.0" encoding="utf-8" standalone="no"?>
<!DOCTYPE svg PUBLIC "-//W3C//DTD SVG 1.1//EN"
  "http://www.w3.org/Graphics/SVG/1.1/DTD/svg11.dtd">
<svg xmlns:xlink="http://www.w3.org/1999/xlink" width="1072.24pt" height="494.981304pt" viewBox="0 0 1072.24 494.981304" xmlns="http://www.w3.org/2000/svg" version="1.1">
 <metadata>
  <rdf:RDF xmlns:dc="http://purl.org/dc/elements/1.1/" xmlns:cc="http://creativecommons.org/ns#" xmlns:rdf="http://www.w3.org/1999/02/22-rdf-syntax-ns#">
   <cc:Work>
    <dc:type rdf:resource="http://purl.org/dc/dcmitype/StillImage"/>
    <dc:date>2024-01-24T17:29:40.377709</dc:date>
    <dc:format>image/svg+xml</dc:format>
    <dc:creator>
     <cc:Agent>
      <dc:title>Matplotlib v3.8.2, https://matplotlib.org/</dc:title>
     </cc:Agent>
    </dc:creator>
   </cc:Work>
  </rdf:RDF>
 </metadata>
 <defs>
  <style type="text/css">*{stroke-linejoin: round; stroke-linecap: butt}</style>
 </defs>
 <g id="figure_1">
  <g id="patch_1">
   <path d="M 0 494.981304 
L 1072.24 494.981304 
L 1072.24 0 
L 0 0 
z
" style="fill: #ffffff"/>
  </g>
  <g id="axes_1">
   <g id="patch_2">
    <path d="M 47.79 419.14798 
L 1065.04 419.14798 
L 1065.04 7.2 
L 47.79 7.2 
z
" style="fill: #ffffff"/>
   </g>
   <g id="matplotlib.axis_1">
    <g id="xtick_1">
     <g id="line2d_1">
      <defs>
       <path id="m071a898269" d="M 0 0 
L 0 3.5 
" style="stroke: #000000; stroke-width: 0.8"/>
      </defs>
      <g>
       <use xlink:href="#m071a898269" x="47.79" y="419.14798" style="stroke: #000000; stroke-width: 0.8"/>
      </g>
     </g>
    </g>
    <g id="xtick_2">
     <g id="line2d_2">
      <g>
       <use xlink:href="#m071a898269" x="1065.04" y="419.14798" style="stroke: #000000; stroke-width: 0.8"/>
      </g>
     </g>
    </g>
    <g id="xtick_3">
     <g id="line2d_3">
      <defs>
       <path id="mb7170c2bb6" d="M 0 0 
L 0 2 
" style="stroke: #000000; stroke-width: 0.6"/>
      </defs>
      <g>
       <use xlink:href="#mb7170c2bb6" x="114.668028" y="419.14798" style="stroke: #000000; stroke-width: 0.6"/>
      </g>
     </g>
     <g id="text_1">
      <!-- 03 -->
      <g transform="translate(106.936869 435.34549) rotate(-10) scale(0.1 -0.1)">
       <defs>
        <path id="DejaVuSans-30" d="M 2034 4250 
Q 1547 4250 1301 3770 
Q 1056 3291 1056 2328 
Q 1056 1369 1301 889 
Q 1547 409 2034 409 
Q 2525 409 2770 889 
Q 3016 1369 3016 2328 
Q 3016 3291 2770 3770 
Q 2525 4250 2034 4250 
z
M 2034 4750 
Q 2819 4750 3233 4129 
Q 3647 3509 3647 2328 
Q 3647 1150 3233 529 
Q 2819 -91 2034 -91 
Q 1250 -91 836 529 
Q 422 1150 422 2328 
Q 422 3509 836 4129 
Q 1250 4750 2034 4750 
z
" transform="scale(0.015625)"/>
        <path id="DejaVuSans-33" d="M 2597 2516 
Q 3050 2419 3304 2112 
Q 3559 1806 3559 1356 
Q 3559 666 3084 287 
Q 2609 -91 1734 -91 
Q 1441 -91 1130 -33 
Q 819 25 488 141 
L 488 750 
Q 750 597 1062 519 
Q 1375 441 1716 441 
Q 2309 441 2620 675 
Q 2931 909 2931 1356 
Q 2931 1769 2642 2001 
Q 2353 2234 1838 2234 
L 1294 2234 
L 1294 2753 
L 1863 2753 
Q 2328 2753 2575 2939 
Q 2822 3125 2822 3475 
Q 2822 3834 2567 4026 
Q 2313 4219 1838 4219 
Q 1578 4219 1281 4162 
Q 984 4106 628 3988 
L 628 4550 
Q 988 4650 1302 4700 
Q 1616 4750 1894 4750 
Q 2613 4750 3031 4423 
Q 3450 4097 3450 3541 
Q 3450 3153 3228 2886 
Q 3006 2619 2597 2516 
z
" transform="scale(0.015625)"/>
       </defs>
       <use xlink:href="#DejaVuSans-30"/>
       <use xlink:href="#DejaVuSans-33" x="63.623047"/>
      </g>
      <!-- Jul -->
      <g transform="translate(109.206028 446.315933) rotate(-10) scale(0.1 -0.1)">
       <defs>
        <path id="DejaVuSans-4a" d="M 628 4666 
L 1259 4666 
L 1259 325 
Q 1259 -519 939 -900 
Q 619 -1281 -91 -1281 
L -331 -1281 
L -331 -750 
L -134 -750 
Q 284 -750 456 -515 
Q 628 -281 628 325 
L 628 4666 
z
" transform="scale(0.015625)"/>
        <path id="DejaVuSans-75" d="M 544 1381 
L 544 3500 
L 1119 3500 
L 1119 1403 
Q 1119 906 1312 657 
Q 1506 409 1894 409 
Q 2359 409 2629 706 
Q 2900 1003 2900 1516 
L 2900 3500 
L 3475 3500 
L 3475 0 
L 2900 0 
L 2900 538 
Q 2691 219 2414 64 
Q 2138 -91 1772 -91 
Q 1169 -91 856 284 
Q 544 659 544 1381 
z
M 1991 3584 
L 1991 3584 
z
" transform="scale(0.015625)"/>
        <path id="DejaVuSans-6c" d="M 603 4863 
L 1178 4863 
L 1178 0 
L 603 0 
L 603 4863 
z
" transform="scale(0.015625)"/>
       </defs>
       <use xlink:href="#DejaVuSans-4a"/>
       <use xlink:href="#DejaVuSans-75" x="29.492188"/>
       <use xlink:href="#DejaVuSans-6c" x="92.871094"/>
      </g>
      <!-- 2010 -->
      <g transform="translate(104.559989 458.505712) rotate(-10) scale(0.1 -0.1)">
       <defs>
        <path id="DejaVuSans-32" d="M 1228 531 
L 3431 531 
L 3431 0 
L 469 0 
L 469 531 
Q 828 903 1448 1529 
Q 2069 2156 2228 2338 
Q 2531 2678 2651 2914 
Q 2772 3150 2772 3378 
Q 2772 3750 2511 3984 
Q 2250 4219 1831 4219 
Q 1534 4219 1204 4116 
Q 875 4013 500 3803 
L 500 4441 
Q 881 4594 1212 4672 
Q 1544 4750 1819 4750 
Q 2544 4750 2975 4387 
Q 3406 4025 3406 3419 
Q 3406 3131 3298 2873 
Q 3191 2616 2906 2266 
Q 2828 2175 2409 1742 
Q 1991 1309 1228 531 
z
" transform="scale(0.015625)"/>
        <path id="DejaVuSans-31" d="M 794 531 
L 1825 531 
L 1825 4091 
L 703 3866 
L 703 4441 
L 1819 4666 
L 2450 4666 
L 2450 531 
L 3481 531 
L 3481 0 
L 794 0 
L 794 531 
z
" transform="scale(0.015625)"/>
       </defs>
       <use xlink:href="#DejaVuSans-32"/>
       <use xlink:href="#DejaVuSans-30" x="63.623047"/>
       <use xlink:href="#DejaVuSans-31" x="127.246094"/>
       <use xlink:href="#DejaVuSans-30" x="190.869141"/>
      </g>
     </g>
    </g>
    <g id="xtick_4">
     <g id="line2d_4">
      <g>
       <use xlink:href="#mb7170c2bb6" x="199.145536" y="419.14798" style="stroke: #000000; stroke-width: 0.6"/>
      </g>
     </g>
     <g id="text_2">
      <!-- 04 -->
      <g transform="translate(193.358857 434.240653) rotate(-10) scale(0.1 -0.1)">
       <defs>
        <path id="DejaVuSans-34" d="M 2419 4116 
L 825 1625 
L 2419 1625 
L 2419 4116 
z
M 2253 4666 
L 3047 4666 
L 3047 1625 
L 3713 1625 
L 3713 1100 
L 3047 1100 
L 3047 0 
L 2419 0 
L 2419 1100 
L 313 1100 
L 313 1709 
L 2253 4666 
z
" transform="scale(0.015625)"/>
       </defs>
       <use xlink:href="#DejaVuSans-30"/>
       <use xlink:href="#DejaVuSans-34" x="63.623047"/>
      </g>
     </g>
    </g>
    <g id="xtick_5">
     <g id="line2d_5">
      <g>
       <use xlink:href="#mb7170c2bb6" x="283.623045" y="419.14798" style="stroke: #000000; stroke-width: 0.6"/>
      </g>
     </g>
     <g id="text_3">
      <!-- 05 -->
      <g transform="translate(277.836366 434.240653) rotate(-10) scale(0.1 -0.1)">
       <defs>
        <path id="DejaVuSans-35" d="M 691 4666 
L 3169 4666 
L 3169 4134 
L 1269 4134 
L 1269 2991 
Q 1406 3038 1543 3061 
Q 1681 3084 1819 3084 
Q 2600 3084 3056 2656 
Q 3513 2228 3513 1497 
Q 3513 744 3044 326 
Q 2575 -91 1722 -91 
Q 1428 -91 1123 -41 
Q 819 9 494 109 
L 494 744 
Q 775 591 1075 516 
Q 1375 441 1709 441 
Q 2250 441 2565 725 
Q 2881 1009 2881 1497 
Q 2881 1984 2565 2268 
Q 2250 2553 1709 2553 
Q 1456 2553 1204 2497 
Q 953 2441 691 2322 
L 691 4666 
z
" transform="scale(0.015625)"/>
       </defs>
       <use xlink:href="#DejaVuSans-30"/>
       <use xlink:href="#DejaVuSans-35" x="63.623047"/>
      </g>
     </g>
    </g>
    <g id="xtick_6">
     <g id="line2d_6">
      <g>
       <use xlink:href="#mb7170c2bb6" x="368.100554" y="419.14798" style="stroke: #000000; stroke-width: 0.6"/>
      </g>
     </g>
     <g id="text_4">
      <!-- 06 -->
      <g transform="translate(362.313875 434.240653) rotate(-10) scale(0.1 -0.1)">
       <defs>
        <path id="DejaVuSans-36" d="M 2113 2584 
Q 1688 2584 1439 2293 
Q 1191 2003 1191 1497 
Q 1191 994 1439 701 
Q 1688 409 2113 409 
Q 2538 409 2786 701 
Q 3034 994 3034 1497 
Q 3034 2003 2786 2293 
Q 2538 2584 2113 2584 
z
M 3366 4563 
L 3366 3988 
Q 3128 4100 2886 4159 
Q 2644 4219 2406 4219 
Q 1781 4219 1451 3797 
Q 1122 3375 1075 2522 
Q 1259 2794 1537 2939 
Q 1816 3084 2150 3084 
Q 2853 3084 3261 2657 
Q 3669 2231 3669 1497 
Q 3669 778 3244 343 
Q 2819 -91 2113 -91 
Q 1303 -91 875 529 
Q 447 1150 447 2328 
Q 447 3434 972 4092 
Q 1497 4750 2381 4750 
Q 2619 4750 2861 4703 
Q 3103 4656 3366 4563 
z
" transform="scale(0.015625)"/>
       </defs>
       <use xlink:href="#DejaVuSans-30"/>
       <use xlink:href="#DejaVuSans-36" x="63.623047"/>
      </g>
     </g>
    </g>
    <g id="xtick_7">
     <g id="line2d_7">
      <g>
       <use xlink:href="#mb7170c2bb6" x="452.578062" y="419.14798" style="stroke: #000000; stroke-width: 0.6"/>
      </g>
     </g>
     <g id="text_5">
      <!-- 07 -->
      <g transform="translate(446.791383 434.240653) rotate(-10) scale(0.1 -0.1)">
       <defs>
        <path id="DejaVuSans-37" d="M 525 4666 
L 3525 4666 
L 3525 4397 
L 1831 0 
L 1172 0 
L 2766 4134 
L 525 4134 
L 525 4666 
z
" transform="scale(0.015625)"/>
       </defs>
       <use xlink:href="#DejaVuSans-30"/>
       <use xlink:href="#DejaVuSans-37" x="63.623047"/>
      </g>
     </g>
    </g>
    <g id="xtick_8">
     <g id="line2d_8">
      <g>
       <use xlink:href="#mb7170c2bb6" x="537.055571" y="419.14798" style="stroke: #000000; stroke-width: 0.6"/>
      </g>
     </g>
     <g id="text_6">
      <!-- 08 -->
      <g transform="translate(531.268892 434.240653) rotate(-10) scale(0.1 -0.1)">
       <defs>
        <path id="DejaVuSans-38" d="M 2034 2216 
Q 1584 2216 1326 1975 
Q 1069 1734 1069 1313 
Q 1069 891 1326 650 
Q 1584 409 2034 409 
Q 2484 409 2743 651 
Q 3003 894 3003 1313 
Q 3003 1734 2745 1975 
Q 2488 2216 2034 2216 
z
M 1403 2484 
Q 997 2584 770 2862 
Q 544 3141 544 3541 
Q 544 4100 942 4425 
Q 1341 4750 2034 4750 
Q 2731 4750 3128 4425 
Q 3525 4100 3525 3541 
Q 3525 3141 3298 2862 
Q 3072 2584 2669 2484 
Q 3125 2378 3379 2068 
Q 3634 1759 3634 1313 
Q 3634 634 3220 271 
Q 2806 -91 2034 -91 
Q 1263 -91 848 271 
Q 434 634 434 1313 
Q 434 1759 690 2068 
Q 947 2378 1403 2484 
z
M 1172 3481 
Q 1172 3119 1398 2916 
Q 1625 2713 2034 2713 
Q 2441 2713 2670 2916 
Q 2900 3119 2900 3481 
Q 2900 3844 2670 4047 
Q 2441 4250 2034 4250 
Q 1625 4250 1398 4047 
Q 1172 3844 1172 3481 
z
" transform="scale(0.015625)"/>
       </defs>
       <use xlink:href="#DejaVuSans-30"/>
       <use xlink:href="#DejaVuSans-38" x="63.623047"/>
      </g>
     </g>
    </g>
    <g id="xtick_9">
     <g id="line2d_9">
      <g>
       <use xlink:href="#mb7170c2bb6" x="621.53308" y="419.14798" style="stroke: #000000; stroke-width: 0.6"/>
      </g>
     </g>
     <g id="text_7">
      <!-- 09 -->
      <g transform="translate(615.746401 434.240653) rotate(-10) scale(0.1 -0.1)">
       <defs>
        <path id="DejaVuSans-39" d="M 703 97 
L 703 672 
Q 941 559 1184 500 
Q 1428 441 1663 441 
Q 2288 441 2617 861 
Q 2947 1281 2994 2138 
Q 2813 1869 2534 1725 
Q 2256 1581 1919 1581 
Q 1219 1581 811 2004 
Q 403 2428 403 3163 
Q 403 3881 828 4315 
Q 1253 4750 1959 4750 
Q 2769 4750 3195 4129 
Q 3622 3509 3622 2328 
Q 3622 1225 3098 567 
Q 2575 -91 1691 -91 
Q 1453 -91 1209 -44 
Q 966 3 703 97 
z
M 1959 2075 
Q 2384 2075 2632 2365 
Q 2881 2656 2881 3163 
Q 2881 3666 2632 3958 
Q 2384 4250 1959 4250 
Q 1534 4250 1286 3958 
Q 1038 3666 1038 3163 
Q 1038 2656 1286 2365 
Q 1534 2075 1959 2075 
z
" transform="scale(0.015625)"/>
       </defs>
       <use xlink:href="#DejaVuSans-30"/>
       <use xlink:href="#DejaVuSans-39" x="63.623047"/>
      </g>
     </g>
    </g>
    <g id="xtick_10">
     <g id="line2d_10">
      <g>
       <use xlink:href="#mb7170c2bb6" x="706.010588" y="419.14798" style="stroke: #000000; stroke-width: 0.6"/>
      </g>
     </g>
     <g id="text_8">
      <!-- 10 -->
      <g transform="translate(700.223909 434.240653) rotate(-10) scale(0.1 -0.1)">
       <use xlink:href="#DejaVuSans-31"/>
       <use xlink:href="#DejaVuSans-30" x="63.623047"/>
      </g>
     </g>
    </g>
    <g id="xtick_11">
     <g id="line2d_11">
      <g>
       <use xlink:href="#mb7170c2bb6" x="790.488097" y="419.14798" style="stroke: #000000; stroke-width: 0.6"/>
      </g>
     </g>
     <g id="text_9">
      <!-- 11 -->
      <g transform="translate(784.701418 434.240653) rotate(-10) scale(0.1 -0.1)">
       <use xlink:href="#DejaVuSans-31"/>
       <use xlink:href="#DejaVuSans-31" x="63.623047"/>
      </g>
     </g>
    </g>
    <g id="xtick_12">
     <g id="line2d_12">
      <g>
       <use xlink:href="#mb7170c2bb6" x="874.965606" y="419.14798" style="stroke: #000000; stroke-width: 0.6"/>
      </g>
     </g>
     <g id="text_10">
      <!-- 12 -->
      <g transform="translate(869.178927 434.240653) rotate(-10) scale(0.1 -0.1)">
       <use xlink:href="#DejaVuSans-31"/>
       <use xlink:href="#DejaVuSans-32" x="63.623047"/>
      </g>
     </g>
    </g>
    <g id="xtick_13">
     <g id="line2d_13">
      <g>
       <use xlink:href="#mb7170c2bb6" x="959.443114" y="419.14798" style="stroke: #000000; stroke-width: 0.6"/>
      </g>
     </g>
     <g id="text_11">
      <!-- 13 -->
      <g transform="translate(953.656435 434.240653) rotate(-10) scale(0.1 -0.1)">
       <use xlink:href="#DejaVuSans-31"/>
       <use xlink:href="#DejaVuSans-33" x="63.623047"/>
      </g>
     </g>
    </g>
    <g id="xtick_14">
     <g id="line2d_14">
      <g>
       <use xlink:href="#mb7170c2bb6" x="1043.920623" y="419.14798" style="stroke: #000000; stroke-width: 0.6"/>
      </g>
     </g>
     <g id="text_12">
      <!-- 14 -->
      <g transform="translate(1038.133944 434.240653) rotate(-10) scale(0.1 -0.1)">
       <use xlink:href="#DejaVuSans-31"/>
       <use xlink:href="#DejaVuSans-34" x="63.623047"/>
      </g>
     </g>
    </g>
    <g id="text_13">
     <!-- Time [hours] -->
     <g transform="translate(480.14 482.790054) scale(0.24 -0.24)">
      <defs>
       <path id="DejaVuSans-54" d="M -19 4666 
L 3928 4666 
L 3928 4134 
L 2272 4134 
L 2272 0 
L 1638 0 
L 1638 4134 
L -19 4134 
L -19 4666 
z
" transform="scale(0.015625)"/>
       <path id="DejaVuSans-69" d="M 603 3500 
L 1178 3500 
L 1178 0 
L 603 0 
L 603 3500 
z
M 603 4863 
L 1178 4863 
L 1178 4134 
L 603 4134 
L 603 4863 
z
" transform="scale(0.015625)"/>
       <path id="DejaVuSans-6d" d="M 3328 2828 
Q 3544 3216 3844 3400 
Q 4144 3584 4550 3584 
Q 5097 3584 5394 3201 
Q 5691 2819 5691 2113 
L 5691 0 
L 5113 0 
L 5113 2094 
Q 5113 2597 4934 2840 
Q 4756 3084 4391 3084 
Q 3944 3084 3684 2787 
Q 3425 2491 3425 1978 
L 3425 0 
L 2847 0 
L 2847 2094 
Q 2847 2600 2669 2842 
Q 2491 3084 2119 3084 
Q 1678 3084 1418 2786 
Q 1159 2488 1159 1978 
L 1159 0 
L 581 0 
L 581 3500 
L 1159 3500 
L 1159 2956 
Q 1356 3278 1631 3431 
Q 1906 3584 2284 3584 
Q 2666 3584 2933 3390 
Q 3200 3197 3328 2828 
z
" transform="scale(0.015625)"/>
       <path id="DejaVuSans-65" d="M 3597 1894 
L 3597 1613 
L 953 1613 
Q 991 1019 1311 708 
Q 1631 397 2203 397 
Q 2534 397 2845 478 
Q 3156 559 3463 722 
L 3463 178 
Q 3153 47 2828 -22 
Q 2503 -91 2169 -91 
Q 1331 -91 842 396 
Q 353 884 353 1716 
Q 353 2575 817 3079 
Q 1281 3584 2069 3584 
Q 2775 3584 3186 3129 
Q 3597 2675 3597 1894 
z
M 3022 2063 
Q 3016 2534 2758 2815 
Q 2500 3097 2075 3097 
Q 1594 3097 1305 2825 
Q 1016 2553 972 2059 
L 3022 2063 
z
" transform="scale(0.015625)"/>
       <path id="DejaVuSans-20" transform="scale(0.015625)"/>
       <path id="DejaVuSans-5b" d="M 550 4863 
L 1875 4863 
L 1875 4416 
L 1125 4416 
L 1125 -397 
L 1875 -397 
L 1875 -844 
L 550 -844 
L 550 4863 
z
" transform="scale(0.015625)"/>
       <path id="DejaVuSans-68" d="M 3513 2113 
L 3513 0 
L 2938 0 
L 2938 2094 
Q 2938 2591 2744 2837 
Q 2550 3084 2163 3084 
Q 1697 3084 1428 2787 
Q 1159 2491 1159 1978 
L 1159 0 
L 581 0 
L 581 4863 
L 1159 4863 
L 1159 2956 
Q 1366 3272 1645 3428 
Q 1925 3584 2291 3584 
Q 2894 3584 3203 3211 
Q 3513 2838 3513 2113 
z
" transform="scale(0.015625)"/>
       <path id="DejaVuSans-6f" d="M 1959 3097 
Q 1497 3097 1228 2736 
Q 959 2375 959 1747 
Q 959 1119 1226 758 
Q 1494 397 1959 397 
Q 2419 397 2687 759 
Q 2956 1122 2956 1747 
Q 2956 2369 2687 2733 
Q 2419 3097 1959 3097 
z
M 1959 3584 
Q 2709 3584 3137 3096 
Q 3566 2609 3566 1747 
Q 3566 888 3137 398 
Q 2709 -91 1959 -91 
Q 1206 -91 779 398 
Q 353 888 353 1747 
Q 353 2609 779 3096 
Q 1206 3584 1959 3584 
z
" transform="scale(0.015625)"/>
       <path id="DejaVuSans-72" d="M 2631 2963 
Q 2534 3019 2420 3045 
Q 2306 3072 2169 3072 
Q 1681 3072 1420 2755 
Q 1159 2438 1159 1844 
L 1159 0 
L 581 0 
L 581 3500 
L 1159 3500 
L 1159 2956 
Q 1341 3275 1631 3429 
Q 1922 3584 2338 3584 
Q 2397 3584 2469 3576 
Q 2541 3569 2628 3553 
L 2631 2963 
z
" transform="scale(0.015625)"/>
       <path id="DejaVuSans-73" d="M 2834 3397 
L 2834 2853 
Q 2591 2978 2328 3040 
Q 2066 3103 1784 3103 
Q 1356 3103 1142 2972 
Q 928 2841 928 2578 
Q 928 2378 1081 2264 
Q 1234 2150 1697 2047 
L 1894 2003 
Q 2506 1872 2764 1633 
Q 3022 1394 3022 966 
Q 3022 478 2636 193 
Q 2250 -91 1575 -91 
Q 1294 -91 989 -36 
Q 684 19 347 128 
L 347 722 
Q 666 556 975 473 
Q 1284 391 1588 391 
Q 1994 391 2212 530 
Q 2431 669 2431 922 
Q 2431 1156 2273 1281 
Q 2116 1406 1581 1522 
L 1381 1569 
Q 847 1681 609 1914 
Q 372 2147 372 2553 
Q 372 3047 722 3315 
Q 1072 3584 1716 3584 
Q 2034 3584 2315 3537 
Q 2597 3491 2834 3397 
z
" transform="scale(0.015625)"/>
       <path id="DejaVuSans-5d" d="M 1947 4863 
L 1947 -844 
L 622 -844 
L 622 -397 
L 1369 -397 
L 1369 4416 
L 622 4416 
L 622 4863 
L 1947 4863 
z
" transform="scale(0.015625)"/>
      </defs>
      <use xlink:href="#DejaVuSans-54"/>
      <use xlink:href="#DejaVuSans-69" x="57.958984"/>
      <use xlink:href="#DejaVuSans-6d" x="85.742188"/>
      <use xlink:href="#DejaVuSans-65" x="183.154297"/>
      <use xlink:href="#DejaVuSans-20" x="244.677734"/>
      <use xlink:href="#DejaVuSans-5b" x="276.464844"/>
      <use xlink:href="#DejaVuSans-68" x="315.478516"/>
      <use xlink:href="#DejaVuSans-6f" x="378.857422"/>
      <use xlink:href="#DejaVuSans-75" x="440.039062"/>
      <use xlink:href="#DejaVuSans-72" x="503.417969"/>
      <use xlink:href="#DejaVuSans-73" x="544.53125"/>
      <use xlink:href="#DejaVuSans-5d" x="596.630859"/>
     </g>
    </g>
   </g>
   <g id="matplotlib.axis_2">
    <g id="ytick_1">
     <g id="line2d_15">
      <defs>
       <path id="m0898ba0c05" d="M 0 0 
L -3.5 0 
" style="stroke: #000000; stroke-width: 0.8"/>
      </defs>
      <g>
       <use xlink:href="#m0898ba0c05" x="47.79" y="400.423072" style="stroke: #000000; stroke-width: 0.8"/>
      </g>
     </g>
     <g id="text_14">
      <!-- 0 -->
      <g transform="translate(34.4275 404.222291) scale(0.1 -0.1)">
       <use xlink:href="#DejaVuSans-30"/>
      </g>
     </g>
    </g>
    <g id="ytick_2">
     <g id="line2d_16">
      <g>
       <use xlink:href="#m0898ba0c05" x="47.79" y="318.007103" style="stroke: #000000; stroke-width: 0.8"/>
      </g>
     </g>
     <g id="text_15">
      <!-- 1 -->
      <g transform="translate(34.4275 321.806322) scale(0.1 -0.1)">
       <use xlink:href="#DejaVuSans-31"/>
      </g>
     </g>
    </g>
    <g id="ytick_3">
     <g id="line2d_17">
      <g>
       <use xlink:href="#m0898ba0c05" x="47.79" y="235.591134" style="stroke: #000000; stroke-width: 0.8"/>
      </g>
     </g>
     <g id="text_16">
      <!-- 2 -->
      <g transform="translate(34.4275 239.390352) scale(0.1 -0.1)">
       <use xlink:href="#DejaVuSans-32"/>
      </g>
     </g>
    </g>
    <g id="ytick_4">
     <g id="line2d_18">
      <g>
       <use xlink:href="#m0898ba0c05" x="47.79" y="153.175165" style="stroke: #000000; stroke-width: 0.8"/>
      </g>
     </g>
     <g id="text_17">
      <!-- 3 -->
      <g transform="translate(34.4275 156.974383) scale(0.1 -0.1)">
       <use xlink:href="#DejaVuSans-33"/>
      </g>
     </g>
    </g>
    <g id="ytick_5">
     <g id="line2d_19">
      <g>
       <use xlink:href="#m0898ba0c05" x="47.79" y="70.759195" style="stroke: #000000; stroke-width: 0.8"/>
      </g>
     </g>
     <g id="text_18">
      <!-- 4 -->
      <g transform="translate(34.4275 74.558414) scale(0.1 -0.1)">
       <use xlink:href="#DejaVuSans-34"/>
      </g>
     </g>
    </g>
    <g id="text_19">
     <!-- Load [kW] -->
     <g transform="translate(25.43625 273.955865) rotate(-90) scale(0.24 -0.24)">
      <defs>
       <path id="DejaVuSans-4c" d="M 628 4666 
L 1259 4666 
L 1259 531 
L 3531 531 
L 3531 0 
L 628 0 
L 628 4666 
z
" transform="scale(0.015625)"/>
       <path id="DejaVuSans-61" d="M 2194 1759 
Q 1497 1759 1228 1600 
Q 959 1441 959 1056 
Q 959 750 1161 570 
Q 1363 391 1709 391 
Q 2188 391 2477 730 
Q 2766 1069 2766 1631 
L 2766 1759 
L 2194 1759 
z
M 3341 1997 
L 3341 0 
L 2766 0 
L 2766 531 
Q 2569 213 2275 61 
Q 1981 -91 1556 -91 
Q 1019 -91 701 211 
Q 384 513 384 1019 
Q 384 1609 779 1909 
Q 1175 2209 1959 2209 
L 2766 2209 
L 2766 2266 
Q 2766 2663 2505 2880 
Q 2244 3097 1772 3097 
Q 1472 3097 1187 3025 
Q 903 2953 641 2809 
L 641 3341 
Q 956 3463 1253 3523 
Q 1550 3584 1831 3584 
Q 2591 3584 2966 3190 
Q 3341 2797 3341 1997 
z
" transform="scale(0.015625)"/>
       <path id="DejaVuSans-64" d="M 2906 2969 
L 2906 4863 
L 3481 4863 
L 3481 0 
L 2906 0 
L 2906 525 
Q 2725 213 2448 61 
Q 2172 -91 1784 -91 
Q 1150 -91 751 415 
Q 353 922 353 1747 
Q 353 2572 751 3078 
Q 1150 3584 1784 3584 
Q 2172 3584 2448 3432 
Q 2725 3281 2906 2969 
z
M 947 1747 
Q 947 1113 1208 752 
Q 1469 391 1925 391 
Q 2381 391 2643 752 
Q 2906 1113 2906 1747 
Q 2906 2381 2643 2742 
Q 2381 3103 1925 3103 
Q 1469 3103 1208 2742 
Q 947 2381 947 1747 
z
" transform="scale(0.015625)"/>
       <path id="DejaVuSans-6b" d="M 581 4863 
L 1159 4863 
L 1159 1991 
L 2875 3500 
L 3609 3500 
L 1753 1863 
L 3688 0 
L 2938 0 
L 1159 1709 
L 1159 0 
L 581 0 
L 581 4863 
z
" transform="scale(0.015625)"/>
       <path id="DejaVuSans-57" d="M 213 4666 
L 850 4666 
L 1831 722 
L 2809 4666 
L 3519 4666 
L 4500 722 
L 5478 4666 
L 6119 4666 
L 4947 0 
L 4153 0 
L 3169 4050 
L 2175 0 
L 1381 0 
L 213 4666 
z
" transform="scale(0.015625)"/>
      </defs>
      <use xlink:href="#DejaVuSans-4c"/>
      <use xlink:href="#DejaVuSans-6f" x="53.962891"/>
      <use xlink:href="#DejaVuSans-61" x="115.144531"/>
      <use xlink:href="#DejaVuSans-64" x="176.423828"/>
      <use xlink:href="#DejaVuSans-20" x="239.900391"/>
      <use xlink:href="#DejaVuSans-5b" x="271.6875"/>
      <use xlink:href="#DejaVuSans-6b" x="310.701172"/>
      <use xlink:href="#DejaVuSans-57" x="368.611328"/>
      <use xlink:href="#DejaVuSans-5d" x="467.488281"/>
     </g>
    </g>
   </g>
   <g id="line2d_20">
    <path d="M 47.79 352.786642 
L 51.309896 393.500131 
L 54.829792 393.829794 
L 58.349689 313.062145 
L 61.869585 374.956538 
L 65.389481 348.418595 
L 68.909377 287.842858 
L 72.429273 302.265653 
L 75.94917 266.249874 
L 79.469066 304.408468 
L 82.988962 309.435842 
L 86.508858 390.697988 
L 90.028754 363.747966 
L 93.548651 302.348069 
L 97.068547 367.044604 
L 100.588443 309.765506 
L 104.108339 333.089225 
L 107.628235 372.813722 
L 111.148131 388.720004 
L 114.668028 301.111829 
L 118.187924 183.421825 
L 121.70782 244.904138 
L 125.227716 262.45874 
L 128.747612 389.62658 
L 132.267509 313.886304 
L 135.787405 371.577483 
L 139.307301 392.346307 
L 142.827197 318.089519 
L 146.347093 383.198134 
L 149.86699 387.895845 
L 153.386886 383.527798 
L 156.906782 393.005635 
L 160.426678 355.671201 
L 163.946574 349.654835 
L 167.466471 331.77057 
L 170.986367 311.001745 
L 174.506263 331.440906 
L 178.026159 318.748847 
L 181.546055 309.435842 
L 185.065952 368.528092 
L 188.585848 335.973784 
L 192.105744 381.879479 
L 195.62564 387.483765 
L 199.145536 292.210904 
L 202.665433 290.562585 
L 206.185329 291.551577 
L 209.705225 293.282312 
L 213.225121 388.225509 
L 216.745017 305.232628 
L 220.264913 392.593555 
L 223.78481 389.461748 
L 227.304706 267.321282 
L 230.824602 322.704813 
L 234.344498 390.697988 
L 237.864394 320.809246 
L 241.384291 331.276074 
L 244.904187 330.53433 
L 248.424083 363.171054 
L 251.943979 246.140378 
L 255.463875 249.189769 
L 258.983772 277.458446 
L 262.503668 240.206428 
L 266.023564 289.491178 
L 269.54346 318.666431 
L 273.063356 369.18742 
L 276.583253 352.127314 
L 280.103149 379.654248 
L 283.623045 280.672669 
L 287.142941 258.255525 
L 290.662837 291.963657 
L 294.182734 301.276661 
L 297.70263 389.2145 
L 301.222526 321.468574 
L 304.742422 371.412651 
L 308.262318 392.346307 
L 311.782215 330.616746 
L 315.302111 388.307925 
L 318.822007 387.318933 
L 322.341903 362.758974 
L 325.861799 297.155863 
L 329.381696 355.918449 
L 332.901592 243.667899 
L 336.421488 241.772331 
L 339.941384 242.184411 
L 343.46128 319.737838 
L 346.981176 330.12225 
L 350.501073 337.210024 
L 354.020969 322.539981 
L 357.540865 376.110361 
L 361.060761 386.494773 
L 364.580657 389.296916 
L 368.100554 298.886598 
L 371.62045 289.326346 
L 375.140346 269.876177 
L 378.660242 288.00769 
L 382.180138 343.473637 
L 385.700035 339.188007 
L 389.219931 391.934227 
L 392.739827 392.263891 
L 396.259723 335.314456 
L 399.779619 382.786055 
L 403.299516 360.863407 
L 406.819412 336.88036 
L 410.339308 280.919917 
L 413.859204 303.584308 
L 417.3791 351.962482 
L 420.898997 308.364434 
L 424.418893 242.761323 
L 427.938789 298.886598 
L 431.458685 242.514075 
L 434.978581 346.110948 
L 438.498478 368.445676 
L 442.018374 361.193071 
L 445.53827 355.176705 
L 449.058166 385.588198 
L 452.578062 302.677733 
L 456.097958 290.232921 
L 459.617855 269.628929 
L 463.137751 320.974078 
L 466.657647 298.392102 
L 470.177543 392.428723 
L 473.697439 400.423072 
L 484.257128 400.423072 
L 487.777024 392.511139 
L 491.29692 393.582547 
L 494.816817 380.066328 
L 498.336713 325.259708 
L 501.856609 231.305503 
L 505.376505 272.018992 
L 508.896401 343.968133 
L 512.416298 368.692924 
L 515.936194 326.001452 
L 519.45609 354.682209 
L 522.975986 350.561411 
L 526.495882 348.253764 
L 533.535675 393.582547 
L 537.055571 305.067796 
L 540.575467 288.00769 
L 544.095363 338.693511 
L 547.61526 372.813722 
L 551.135156 342.81431 
L 554.655052 390.533156 
L 558.174948 384.351958 
L 561.694844 389.544164 
L 565.21474 323.528973 
L 568.734637 356.248113 
L 572.254533 227.019873 
L 575.774429 235.096638 
L 579.294325 249.601848 
L 582.814221 242.761323 
L 586.334118 367.209436 
L 589.854014 294.600968 
L 593.37391 286.029707 
L 596.893806 386.165109 
L 600.413702 306.221619 
L 603.933599 380.313576 
L 607.453495 377.429017 
L 610.973391 376.440025 
L 614.493287 376.357609 
L 618.013183 369.269836 
L 621.53308 224.21773 
L 628.572872 356.577776 
L 632.092768 318.831263 
L 635.612664 371.000571 
L 639.132561 356.49536 
L 642.652457 391.522147 
L 646.172353 387.236517 
L 649.692249 260.233508 
L 653.212145 318.419183 
L 656.732042 325.919036 
L 660.251938 391.934227 
L 663.771834 389.296916 
L 667.29173 389.62658 
L 670.811626 391.686979 
L 674.331522 391.769395 
L 677.851419 255.865462 
L 681.371315 261.63458 
L 684.891211 325.506956 
L 688.411107 368.528092 
L 691.931003 380.313576 
L 695.4509 381.137735 
L 698.970796 357.814016 
L 702.490692 389.296916 
L 706.010588 300.782165 
L 709.530484 242.266827 
L 713.050381 257.761029 
L 716.570277 286.689035 
L 720.090173 390.03866 
L 723.610069 379.242168 
L 727.129965 391.110067 
L 730.649862 393.500131 
L 734.169758 312.814897 
L 737.689654 384.10471 
L 741.20955 388.39034 
L 744.729446 299.216262 
L 748.249343 391.192483 
L 751.769239 372.484058 
L 755.289135 390.615572 
L 758.809031 376.192777 
L 762.328927 377.429017 
L 765.848824 380.643239 
L 769.36872 287.842858 
L 772.888616 381.797063 
L 776.408512 326.743196 
L 779.928408 360.945823 
L 783.448304 361.687566 
L 786.968201 391.027652 
L 790.488097 282.48582 
L 794.007993 229.080272 
L 797.527889 279.106765 
L 801.047785 343.638469 
L 804.567682 356.083281 
L 808.087578 369.5995 
L 811.607474 389.791412 
L 815.12737 386.659605 
L 818.647266 330.616746 
L 822.167163 386.824437 
L 825.687059 388.967252 
L 829.206955 380.478407 
L 832.726851 376.110361 
L 836.246747 345.286789 
L 839.766644 372.978554 
L 843.28654 355.918449 
L 846.806436 260.645588 
L 850.326332 264.107059 
L 853.846228 266.414706 
L 857.366125 324.847628 
L 860.886021 373.720298 
L 864.405917 376.027945 
L 867.925813 348.501011 
L 871.445709 393.252883 
L 874.965606 177.982371 
L 878.485502 286.112123 
L 882.005398 351.220738 
L 885.525294 302.018405 
L 889.04519 393.664963 
L 892.565087 308.282018 
L 896.084983 390.203492 
L 899.604879 388.637588 
L 903.124775 306.963363 
L 906.644671 336.633112 
L 910.164567 317.430191 
L 913.684464 365.890781 
L 917.20436 300.946997 
L 920.724256 282.650652 
L 924.244152 293.694392 
L 927.764048 380.148744 
L 931.283945 380.313576 
L 934.803841 390.368324 
L 938.323737 319.90267 
L 941.843633 363.830382 
L 945.363529 299.381094 
L 948.883426 243.255819 
L 952.403322 330.12225 
L 955.923218 316.02912 
L 959.443114 279.189181 
L 962.96301 210.701511 
L 966.482907 340.424246 
L 970.002803 275.645295 
L 973.522699 347.841684 
L 977.042595 357.566768 
L 980.562491 389.873828 
L 984.082388 387.978261 
L 987.602284 323.941053 
L 991.12218 386.412357 
L 994.642076 382.868471 
L 998.161972 324.105885 
L 1001.681869 376.357609 
L 1005.201765 309.600674 
L 1008.721661 320.232334 
L 1012.241557 322.292733 
L 1015.761453 300.205254 
L 1019.281349 295.013047 
L 1022.801246 249.437017 
L 1026.321142 375.698281 
L 1029.841038 381.137735 
L 1033.360934 329.050843 
L 1036.88083 297.897606 
L 1040.400727 349.490003 
L 1043.920623 284.216555 
L 1047.440519 286.936282 
L 1050.960415 383.775046 
L 1054.480311 357.072272 
L 1058.000208 388.637588 
L 1061.520104 368.77534 
L 1065.04 389.2145 
L 1065.04 389.2145 
" clip-path="url(#pb8fc1395cb)" style="fill: none; stroke: #a0a7bc; stroke-width: 2; stroke-linecap: square"/>
   </g>
   <g id="line2d_21">
    <path d="M 47.79 388.967252 
L 51.309896 387.895845 
L 54.829792 299.545926 
L 58.349689 393.417715 
L 61.869585 277.458446 
L 65.389481 266.249874 
L 68.909377 274.491471 
L 72.429273 270.370673 
L 75.94917 234.84939 
L 79.469066 385.670614 
L 82.988962 385.670614 
L 86.508858 96.22573 
L 90.028754 282.156156 
L 93.548651 241.525083 
L 97.068547 259.409349 
L 100.588443 247.211785 
L 104.108339 276.96395 
L 107.628235 281.908908 
L 111.148131 273.914559 
L 114.668028 315.122544 
L 118.187924 395.478114 
L 121.70782 395.97261 
L 125.227716 395.890194 
L 128.747612 393.582547 
L 132.267509 390.533156 
L 135.787405 341.825318 
L 139.307301 392.923219 
L 142.827197 280.260589 
L 146.347093 253.887479 
L 149.86699 264.848803 
L 153.386886 385.34095 
L 156.906782 386.329941 
L 160.426678 137.186467 
L 163.946574 388.472756 
L 167.466471 387.731013 
L 170.986367 223.558402 
L 174.506263 383.033302 
L 178.026159 390.86282 
L 181.546055 392.593555 
L 185.065952 392.923219 
L 188.585848 392.099059 
L 192.105744 266.002626 
L 195.62564 274.656303 
L 199.145536 356.49536 
L 202.665433 255.041302 
L 206.185329 383.939878 
L 209.705225 389.379332 
L 213.225121 387.895845 
L 216.745017 389.132084 
L 220.264913 391.274899 
L 223.78481 392.099059 
L 227.304706 389.049668 
L 230.824602 169.246279 
L 234.344498 257.266534 
L 237.864394 273.50248 
L 241.384291 270.617921 
L 244.904187 374.626874 
L 248.424083 377.923512 
L 251.943979 301.688741 
L 255.463875 259.739013 
L 258.983772 378.58284 
L 262.503668 257.431366 
L 266.023564 346.523028 
L 269.54346 370.670907 
L 273.063356 266.002626 
L 276.583253 293.199896 
L 280.103149 287.678026 
L 283.623045 375.698281 
L 287.142941 376.110361 
L 290.662837 380.395991 
L 294.182734 379.159752 
L 297.70263 378.418008 
L 301.222526 382.538807 
L 304.742422 383.362966 
L 308.262318 379.901496 
L 311.782215 355.506369 
L 315.302111 241.937163 
L 318.822007 266.497122 
L 322.341903 263.777395 
L 325.861799 257.34895 
L 329.381696 271.194832 
L 332.901592 367.868764 
L 336.421488 372.484058 
L 339.941384 387.401349 
L 343.46128 372.566474 
L 346.981176 218.943108 
L 350.501073 364.07763 
L 354.020969 380.313576 
L 357.540865 217.047541 
L 361.060761 378.17076 
L 364.580657 373.555466 
L 368.100554 390.86282 
L 371.62045 394.489122 
L 375.140346 394.818786 
L 378.660242 391.934227 
L 382.180138 388.472756 
L 385.700035 390.86282 
L 389.219931 394.983618 
L 392.739827 392.099059 
L 396.259723 238.558109 
L 399.779619 270.617921 
L 403.299516 273.584895 
L 406.819412 212.844326 
L 410.339308 336.303448 
L 413.859204 386.577189 
L 417.3791 387.071685 
L 420.898997 387.236517 
L 424.418893 385.670614 
L 427.938789 380.066328 
L 431.458685 261.057668 
L 434.978581 257.925861 
L 438.498478 300.122838 
L 442.018374 392.346307 
L 445.53827 391.604563 
L 449.058166 386.000277 
L 452.578062 375.780697 
L 456.097958 392.758387 
L 459.617855 395.395698 
L 463.137751 391.851811 
L 466.657647 390.203492 
L 470.177543 393.664963 
L 473.697439 393.829794 
L 477.217336 390.780404 
L 480.737232 293.447144 
L 484.257128 280.013341 
L 487.777024 276.139791 
L 491.29692 380.395991 
L 494.816817 374.214794 
L 498.336713 351.715234 
L 501.856609 381.467399 
L 505.376505 364.242462 
L 508.896401 379.571832 
L 512.416298 376.769689 
L 515.936194 366.879773 
L 519.45609 370.423659 
L 522.975986 370.176411 
L 526.495882 265.343299 
L 530.015779 378.500424 
L 537.055571 379.407 
L 540.575467 380.066328 
L 544.095363 388.555172 
L 547.61526 386.082693 
L 551.135156 388.472756 
L 554.655052 392.511139 
L 558.174948 391.192483 
L 561.694844 386.906853 
L 565.21474 389.873828 
L 568.734637 379.324584 
L 572.254533 362.511726 
L 575.774429 283.30998 
L 579.294325 353.940465 
L 582.814221 382.126727 
L 586.334118 184.740481 
L 589.854014 307.293027 
L 593.37391 322.045485 
L 596.893806 332.594729 
L 600.413702 317.842271 
L 603.933599 333.089225 
L 607.453495 363.500718 
L 610.973391 212.102582 
L 614.493287 361.028239 
L 618.013183 366.550109 
L 621.53308 378.253176 
L 625.052976 380.313576 
L 628.572872 380.643239 
L 632.092768 376.852105 
L 635.612664 379.983912 
L 639.132561 380.148744 
L 646.172353 396.137442 
L 649.692249 395.97261 
L 653.212145 359.544751 
L 656.732042 381.467399 
L 660.251938 380.560823 
L 663.771834 356.412944 
L 667.29173 383.939878 
L 670.811626 382.621223 
L 674.331522 380.643239 
L 677.851419 388.555172 
L 681.371315 387.483765 
L 684.891211 310.424834 
L 688.411107 288.83185 
L 691.931003 359.627167 
L 695.4509 373.967546 
L 698.970796 371.824731 
L 702.490692 375.945529 
L 706.010588 386.247525 
L 709.530484 386.577189 
L 713.050381 394.818786 
L 716.570277 396.302274 
L 720.090173 394.653954 
L 723.610069 390.945236 
L 727.129965 393.088051 
L 730.649862 396.796769 
L 734.169758 220.591427 
L 737.689654 228.585776 
L 741.20955 276.057375 
L 744.729446 274.985967 
L 748.249343 275.892543 
L 751.769239 290.562585 
L 755.289135 285.782459 
L 758.809031 375.698281 
L 762.328927 377.346601 
L 765.848824 380.395991 
L 769.36872 381.302567 
L 772.888616 349.490003 
L 776.408512 379.901496 
L 779.928408 294.930631 
L 783.448304 381.549815 
L 786.968201 386.494773 
L 790.488097 392.840803 
L 794.007993 390.945236 
L 797.527889 391.110067 
L 801.047785 394.901202 
L 804.567682 392.099059 
L 808.087578 390.203492 
L 811.607474 394.983618 
L 815.12737 391.769395 
L 818.647266 273.255232 
L 822.167163 25.924908 
L 825.687059 177.652707 
L 829.206955 265.50813 
L 832.726851 251.744664 
L 836.246747 280.590253 
L 839.766644 279.930925 
L 843.28654 381.797063 
L 846.806436 198.091868 
L 850.326332 380.808071 
L 853.846228 365.396285 
L 857.366125 338.363847 
L 860.886021 344.297797 
L 864.405917 334.490297 
L 867.925813 370.506075 
L 871.445709 382.868471 
L 874.965606 392.016643 
L 878.485502 393.252883 
L 882.005398 388.637588 
L 885.525294 391.439731 
L 889.04519 392.016643 
L 892.565087 389.132084 
L 896.084983 393.335299 
L 899.604879 385.423366 
L 903.124775 212.184998 
L 906.644671 390.945236 
L 910.164567 386.000277 
L 913.684464 393.747378 
L 917.20436 393.170467 
L 920.724256 389.2145 
L 924.244152 392.428723 
L 927.764048 391.934227 
L 931.283945 389.708996 
L 934.803841 393.91221 
L 938.323737 389.956244 
L 941.843633 221.415587 
L 945.363529 281.66166 
L 948.883426 162.900249 
L 952.403322 262.04666 
L 955.923218 275.562879 
L 959.443114 390.121076 
L 962.96301 393.994626 
L 966.482907 390.615572 
L 970.002803 390.780404 
L 973.522699 393.252883 
L 977.042595 390.45074 
L 980.562491 394.32429 
L 984.082388 391.110067 
L 987.602284 330.781578 
L 991.12218 217.542036 
L 994.642076 274.326639 
L 998.161972 140.647937 
L 1001.681869 376.357609 
L 1005.201765 356.825024 
L 1008.721661 390.285908 
L 1012.241557 387.318933 
L 1015.761453 387.401349 
L 1019.281349 281.331997 
L 1022.801246 326.166284 
L 1026.321142 369.269836 
L 1029.841038 376.440025 
L 1033.360934 375.863113 
L 1036.88083 378.747672 
L 1040.400727 376.934521 
L 1043.920623 380.560823 
L 1047.440519 393.335299 
L 1050.960415 390.121076 
L 1054.480311 389.708996 
L 1058.000208 393.417715 
L 1061.520104 389.708996 
L 1065.04 393.088051 
L 1065.04 393.088051 
" clip-path="url(#pb8fc1395cb)" style="fill: none; stroke: #13748b; stroke-width: 2; stroke-linecap: square"/>
   </g>
   <g id="patch_3">
    <path d="M 47.79 419.14798 
L 47.79 7.2 
" style="fill: none; stroke: #000000; stroke-width: 0.8; stroke-linejoin: miter; stroke-linecap: square"/>
   </g>
   <g id="patch_4">
    <path d="M 1065.04 419.14798 
L 1065.04 7.2 
" style="fill: none; stroke: #000000; stroke-width: 0.8; stroke-linejoin: miter; stroke-linecap: square"/>
   </g>
   <g id="patch_5">
    <path d="M 47.79 419.14798 
L 1065.04 419.14798 
" style="fill: none; stroke: #000000; stroke-width: 0.8; stroke-linejoin: miter; stroke-linecap: square"/>
   </g>
   <g id="patch_6">
    <path d="M 47.79 7.2 
L 1065.04 7.2 
" style="fill: none; stroke: #000000; stroke-width: 0.8; stroke-linejoin: miter; stroke-linecap: square"/>
   </g>
   <g id="legend_1">
    <g id="patch_7">
     <path d="M 419.856094 104.32625 
L 692.973906 104.32625 
Q 698.173906 104.32625 698.173906 99.12625 
L 698.173906 25.4 
Q 698.173906 20.2 692.973906 20.2 
L 419.856094 20.2 
Q 414.656094 20.2 414.656094 25.4 
L 414.656094 99.12625 
Q 414.656094 104.32625 419.856094 104.32625 
z
" style="fill: #ffffff; opacity: 0.8; stroke: #cccccc; stroke-linejoin: miter"/>
    </g>
    <g id="line2d_22">
     <path d="M 425.056094 41.255937 
L 451.056094 41.255937 
L 477.056094 41.255937 
" style="fill: none; stroke: #a0a7bc; stroke-width: 2; stroke-linecap: square"/>
    </g>
    <g id="text_20">
     <!-- Smart meter 1 -->
     <g transform="translate(497.856094 50.355937) scale(0.26 -0.26)">
      <defs>
       <path id="DejaVuSans-53" d="M 3425 4513 
L 3425 3897 
Q 3066 4069 2747 4153 
Q 2428 4238 2131 4238 
Q 1616 4238 1336 4038 
Q 1056 3838 1056 3469 
Q 1056 3159 1242 3001 
Q 1428 2844 1947 2747 
L 2328 2669 
Q 3034 2534 3370 2195 
Q 3706 1856 3706 1288 
Q 3706 609 3251 259 
Q 2797 -91 1919 -91 
Q 1588 -91 1214 -16 
Q 841 59 441 206 
L 441 856 
Q 825 641 1194 531 
Q 1563 422 1919 422 
Q 2459 422 2753 634 
Q 3047 847 3047 1241 
Q 3047 1584 2836 1778 
Q 2625 1972 2144 2069 
L 1759 2144 
Q 1053 2284 737 2584 
Q 422 2884 422 3419 
Q 422 4038 858 4394 
Q 1294 4750 2059 4750 
Q 2388 4750 2728 4690 
Q 3069 4631 3425 4513 
z
" transform="scale(0.015625)"/>
       <path id="DejaVuSans-74" d="M 1172 4494 
L 1172 3500 
L 2356 3500 
L 2356 3053 
L 1172 3053 
L 1172 1153 
Q 1172 725 1289 603 
Q 1406 481 1766 481 
L 2356 481 
L 2356 0 
L 1766 0 
Q 1100 0 847 248 
Q 594 497 594 1153 
L 594 3053 
L 172 3053 
L 172 3500 
L 594 3500 
L 594 4494 
L 1172 4494 
z
" transform="scale(0.015625)"/>
      </defs>
      <use xlink:href="#DejaVuSans-53"/>
      <use xlink:href="#DejaVuSans-6d" x="63.476562"/>
      <use xlink:href="#DejaVuSans-61" x="160.888672"/>
      <use xlink:href="#DejaVuSans-72" x="222.167969"/>
      <use xlink:href="#DejaVuSans-74" x="263.28125"/>
      <use xlink:href="#DejaVuSans-20" x="302.490234"/>
      <use xlink:href="#DejaVuSans-6d" x="334.277344"/>
      <use xlink:href="#DejaVuSans-65" x="431.689453"/>
      <use xlink:href="#DejaVuSans-74" x="493.212891"/>
      <use xlink:href="#DejaVuSans-65" x="532.421875"/>
      <use xlink:href="#DejaVuSans-72" x="593.945312"/>
      <use xlink:href="#DejaVuSans-20" x="635.058594"/>
      <use xlink:href="#DejaVuSans-31" x="666.845703"/>
     </g>
    </g>
    <g id="line2d_23">
     <path d="M 425.056094 79.419062 
L 451.056094 79.419062 
L 477.056094 79.419062 
" style="fill: none; stroke: #13748b; stroke-width: 2; stroke-linecap: square"/>
    </g>
    <g id="text_21">
     <!-- Smart meter 2 -->
     <g transform="translate(497.856094 88.519062) scale(0.26 -0.26)">
      <use xlink:href="#DejaVuSans-53"/>
      <use xlink:href="#DejaVuSans-6d" x="63.476562"/>
      <use xlink:href="#DejaVuSans-61" x="160.888672"/>
      <use xlink:href="#DejaVuSans-72" x="222.167969"/>
      <use xlink:href="#DejaVuSans-74" x="263.28125"/>
      <use xlink:href="#DejaVuSans-20" x="302.490234"/>
      <use xlink:href="#DejaVuSans-6d" x="334.277344"/>
      <use xlink:href="#DejaVuSans-65" x="431.689453"/>
      <use xlink:href="#DejaVuSans-74" x="493.212891"/>
      <use xlink:href="#DejaVuSans-65" x="532.421875"/>
      <use xlink:href="#DejaVuSans-72" x="593.945312"/>
      <use xlink:href="#DejaVuSans-20" x="635.058594"/>
      <use xlink:href="#DejaVuSans-32" x="666.845703"/>
     </g>
    </g>
   </g>
  </g>
 </g>
 <defs>
  <clipPath id="pb8fc1395cb">
   <rect x="47.79" y="7.2" width="1017.25" height="411.94798"/>
  </clipPath>
 </defs>
</svg>
