<?xml version="1.0" encoding="utf-8" standalone="no"?>
<!DOCTYPE svg PUBLIC "-//W3C//DTD SVG 1.1//EN"
  "http://www.w3.org/Graphics/SVG/1.1/DTD/svg11.dtd">
<svg xmlns:xlink="http://www.w3.org/1999/xlink" width="1072.330625pt" height="494.981304pt" viewBox="0 0 1072.330625 494.981304" xmlns="http://www.w3.org/2000/svg" version="1.1">
 <metadata>
  <rdf:RDF xmlns:dc="http://purl.org/dc/elements/1.1/" xmlns:cc="http://creativecommons.org/ns#" xmlns:rdf="http://www.w3.org/1999/02/22-rdf-syntax-ns#">
   <cc:Work>
    <dc:type rdf:resource="http://purl.org/dc/dcmitype/StillImage"/>
    <dc:date>2024-01-24T17:25:10.979995</dc:date>
    <dc:format>image/svg+xml</dc:format>
    <dc:creator>
     <cc:Agent>
      <dc:title>Matplotlib v3.8.2, https://matplotlib.org/</dc:title>
     </cc:Agent>
    </dc:creator>
   </cc:Work>
  </rdf:RDF>
 </metadata>
 <defs>
  <style type="text/css">*{stroke-linejoin: round; stroke-linecap: butt}</style>
 </defs>
 <g id="figure_1">
  <g id="patch_1">
   <path d="M 0 494.981304 
L 1072.330625 494.981304 
L 1072.330625 0 
L 0 0 
z
" style="fill: #ffffff"/>
  </g>
  <g id="axes_1">
   <g id="patch_2">
    <path d="M 57.330625 419.14798 
L 1065.130625 419.14798 
L 1065.130625 7.2 
L 57.330625 7.2 
z
" style="fill: #ffffff"/>
   </g>
   <g id="matplotlib.axis_1">
    <g id="xtick_1">
     <g id="line2d_1">
      <defs>
       <path id="m4297c64120" d="M 0 0 
L 0 3.5 
" style="stroke: #000000; stroke-width: 0.8"/>
      </defs>
      <g>
       <use xlink:href="#m4297c64120" x="57.330625" y="419.14798" style="stroke: #000000; stroke-width: 0.8"/>
      </g>
     </g>
    </g>
    <g id="xtick_2">
     <g id="line2d_2">
      <g>
       <use xlink:href="#m4297c64120" x="1065.130625" y="419.14798" style="stroke: #000000; stroke-width: 0.8"/>
      </g>
     </g>
    </g>
    <g id="xtick_3">
     <g id="line2d_3">
      <defs>
       <path id="m1abadb7bd0" d="M 0 0 
L 0 2 
" style="stroke: #000000; stroke-width: 0.6"/>
      </defs>
      <g>
       <use xlink:href="#m1abadb7bd0" x="123.587372" y="419.14798" style="stroke: #000000; stroke-width: 0.6"/>
      </g>
     </g>
     <g id="text_1">
      <!-- 03 -->
      <g transform="translate(115.856214 435.34549) rotate(-10) scale(0.1 -0.1)">
       <defs>
        <path id="DejaVuSans-30" d="M 2034 4250 
Q 1547 4250 1301 3770 
Q 1056 3291 1056 2328 
Q 1056 1369 1301 889 
Q 1547 409 2034 409 
Q 2525 409 2770 889 
Q 3016 1369 3016 2328 
Q 3016 3291 2770 3770 
Q 2525 4250 2034 4250 
z
M 2034 4750 
Q 2819 4750 3233 4129 
Q 3647 3509 3647 2328 
Q 3647 1150 3233 529 
Q 2819 -91 2034 -91 
Q 1250 -91 836 529 
Q 422 1150 422 2328 
Q 422 3509 836 4129 
Q 1250 4750 2034 4750 
z
" transform="scale(0.015625)"/>
        <path id="DejaVuSans-33" d="M 2597 2516 
Q 3050 2419 3304 2112 
Q 3559 1806 3559 1356 
Q 3559 666 3084 287 
Q 2609 -91 1734 -91 
Q 1441 -91 1130 -33 
Q 819 25 488 141 
L 488 750 
Q 750 597 1062 519 
Q 1375 441 1716 441 
Q 2309 441 2620 675 
Q 2931 909 2931 1356 
Q 2931 1769 2642 2001 
Q 2353 2234 1838 2234 
L 1294 2234 
L 1294 2753 
L 1863 2753 
Q 2328 2753 2575 2939 
Q 2822 3125 2822 3475 
Q 2822 3834 2567 4026 
Q 2313 4219 1838 4219 
Q 1578 4219 1281 4162 
Q 984 4106 628 3988 
L 628 4550 
Q 988 4650 1302 4700 
Q 1616 4750 1894 4750 
Q 2613 4750 3031 4423 
Q 3450 4097 3450 3541 
Q 3450 3153 3228 2886 
Q 3006 2619 2597 2516 
z
" transform="scale(0.015625)"/>
       </defs>
       <use xlink:href="#DejaVuSans-30"/>
       <use xlink:href="#DejaVuSans-33" x="63.623047"/>
      </g>
      <!-- Jul -->
      <g transform="translate(118.125372 446.315933) rotate(-10) scale(0.1 -0.1)">
       <defs>
        <path id="DejaVuSans-4a" d="M 628 4666 
L 1259 4666 
L 1259 325 
Q 1259 -519 939 -900 
Q 619 -1281 -91 -1281 
L -331 -1281 
L -331 -750 
L -134 -750 
Q 284 -750 456 -515 
Q 628 -281 628 325 
L 628 4666 
z
" transform="scale(0.015625)"/>
        <path id="DejaVuSans-75" d="M 544 1381 
L 544 3500 
L 1119 3500 
L 1119 1403 
Q 1119 906 1312 657 
Q 1506 409 1894 409 
Q 2359 409 2629 706 
Q 2900 1003 2900 1516 
L 2900 3500 
L 3475 3500 
L 3475 0 
L 2900 0 
L 2900 538 
Q 2691 219 2414 64 
Q 2138 -91 1772 -91 
Q 1169 -91 856 284 
Q 544 659 544 1381 
z
M 1991 3584 
L 1991 3584 
z
" transform="scale(0.015625)"/>
        <path id="DejaVuSans-6c" d="M 603 4863 
L 1178 4863 
L 1178 0 
L 603 0 
L 603 4863 
z
" transform="scale(0.015625)"/>
       </defs>
       <use xlink:href="#DejaVuSans-4a"/>
       <use xlink:href="#DejaVuSans-75" x="29.492188"/>
       <use xlink:href="#DejaVuSans-6c" x="92.871094"/>
      </g>
      <!-- 2010 -->
      <g transform="translate(113.479334 458.505712) rotate(-10) scale(0.1 -0.1)">
       <defs>
        <path id="DejaVuSans-32" d="M 1228 531 
L 3431 531 
L 3431 0 
L 469 0 
L 469 531 
Q 828 903 1448 1529 
Q 2069 2156 2228 2338 
Q 2531 2678 2651 2914 
Q 2772 3150 2772 3378 
Q 2772 3750 2511 3984 
Q 2250 4219 1831 4219 
Q 1534 4219 1204 4116 
Q 875 4013 500 3803 
L 500 4441 
Q 881 4594 1212 4672 
Q 1544 4750 1819 4750 
Q 2544 4750 2975 4387 
Q 3406 4025 3406 3419 
Q 3406 3131 3298 2873 
Q 3191 2616 2906 2266 
Q 2828 2175 2409 1742 
Q 1991 1309 1228 531 
z
" transform="scale(0.015625)"/>
        <path id="DejaVuSans-31" d="M 794 531 
L 1825 531 
L 1825 4091 
L 703 3866 
L 703 4441 
L 1819 4666 
L 2450 4666 
L 2450 531 
L 3481 531 
L 3481 0 
L 794 0 
L 794 531 
z
" transform="scale(0.015625)"/>
       </defs>
       <use xlink:href="#DejaVuSans-32"/>
       <use xlink:href="#DejaVuSans-30" x="63.623047"/>
       <use xlink:href="#DejaVuSans-31" x="127.246094"/>
       <use xlink:href="#DejaVuSans-30" x="190.869141"/>
      </g>
     </g>
    </g>
    <g id="xtick_4">
     <g id="line2d_4">
      <g>
       <use xlink:href="#m1abadb7bd0" x="207.280106" y="419.14798" style="stroke: #000000; stroke-width: 0.6"/>
      </g>
     </g>
     <g id="text_2">
      <!-- 04 -->
      <g transform="translate(201.493427 434.240653) rotate(-10) scale(0.1 -0.1)">
       <defs>
        <path id="DejaVuSans-34" d="M 2419 4116 
L 825 1625 
L 2419 1625 
L 2419 4116 
z
M 2253 4666 
L 3047 4666 
L 3047 1625 
L 3713 1625 
L 3713 1100 
L 3047 1100 
L 3047 0 
L 2419 0 
L 2419 1100 
L 313 1100 
L 313 1709 
L 2253 4666 
z
" transform="scale(0.015625)"/>
       </defs>
       <use xlink:href="#DejaVuSans-30"/>
       <use xlink:href="#DejaVuSans-34" x="63.623047"/>
      </g>
     </g>
    </g>
    <g id="xtick_5">
     <g id="line2d_5">
      <g>
       <use xlink:href="#m1abadb7bd0" x="290.97284" y="419.14798" style="stroke: #000000; stroke-width: 0.6"/>
      </g>
     </g>
     <g id="text_3">
      <!-- 05 -->
      <g transform="translate(285.186161 434.240653) rotate(-10) scale(0.1 -0.1)">
       <defs>
        <path id="DejaVuSans-35" d="M 691 4666 
L 3169 4666 
L 3169 4134 
L 1269 4134 
L 1269 2991 
Q 1406 3038 1543 3061 
Q 1681 3084 1819 3084 
Q 2600 3084 3056 2656 
Q 3513 2228 3513 1497 
Q 3513 744 3044 326 
Q 2575 -91 1722 -91 
Q 1428 -91 1123 -41 
Q 819 9 494 109 
L 494 744 
Q 775 591 1075 516 
Q 1375 441 1709 441 
Q 2250 441 2565 725 
Q 2881 1009 2881 1497 
Q 2881 1984 2565 2268 
Q 2250 2553 1709 2553 
Q 1456 2553 1204 2497 
Q 953 2441 691 2322 
L 691 4666 
z
" transform="scale(0.015625)"/>
       </defs>
       <use xlink:href="#DejaVuSans-30"/>
       <use xlink:href="#DejaVuSans-35" x="63.623047"/>
      </g>
     </g>
    </g>
    <g id="xtick_6">
     <g id="line2d_6">
      <g>
       <use xlink:href="#m1abadb7bd0" x="374.665573" y="419.14798" style="stroke: #000000; stroke-width: 0.6"/>
      </g>
     </g>
     <g id="text_4">
      <!-- 06 -->
      <g transform="translate(368.878894 434.240653) rotate(-10) scale(0.1 -0.1)">
       <defs>
        <path id="DejaVuSans-36" d="M 2113 2584 
Q 1688 2584 1439 2293 
Q 1191 2003 1191 1497 
Q 1191 994 1439 701 
Q 1688 409 2113 409 
Q 2538 409 2786 701 
Q 3034 994 3034 1497 
Q 3034 2003 2786 2293 
Q 2538 2584 2113 2584 
z
M 3366 4563 
L 3366 3988 
Q 3128 4100 2886 4159 
Q 2644 4219 2406 4219 
Q 1781 4219 1451 3797 
Q 1122 3375 1075 2522 
Q 1259 2794 1537 2939 
Q 1816 3084 2150 3084 
Q 2853 3084 3261 2657 
Q 3669 2231 3669 1497 
Q 3669 778 3244 343 
Q 2819 -91 2113 -91 
Q 1303 -91 875 529 
Q 447 1150 447 2328 
Q 447 3434 972 4092 
Q 1497 4750 2381 4750 
Q 2619 4750 2861 4703 
Q 3103 4656 3366 4563 
z
" transform="scale(0.015625)"/>
       </defs>
       <use xlink:href="#DejaVuSans-30"/>
       <use xlink:href="#DejaVuSans-36" x="63.623047"/>
      </g>
     </g>
    </g>
    <g id="xtick_7">
     <g id="line2d_7">
      <g>
       <use xlink:href="#m1abadb7bd0" x="458.358307" y="419.14798" style="stroke: #000000; stroke-width: 0.6"/>
      </g>
     </g>
     <g id="text_5">
      <!-- 07 -->
      <g transform="translate(452.571628 434.240653) rotate(-10) scale(0.1 -0.1)">
       <defs>
        <path id="DejaVuSans-37" d="M 525 4666 
L 3525 4666 
L 3525 4397 
L 1831 0 
L 1172 0 
L 2766 4134 
L 525 4134 
L 525 4666 
z
" transform="scale(0.015625)"/>
       </defs>
       <use xlink:href="#DejaVuSans-30"/>
       <use xlink:href="#DejaVuSans-37" x="63.623047"/>
      </g>
     </g>
    </g>
    <g id="xtick_8">
     <g id="line2d_8">
      <g>
       <use xlink:href="#m1abadb7bd0" x="542.05104" y="419.14798" style="stroke: #000000; stroke-width: 0.6"/>
      </g>
     </g>
     <g id="text_6">
      <!-- 08 -->
      <g transform="translate(536.264361 434.240653) rotate(-10) scale(0.1 -0.1)">
       <defs>
        <path id="DejaVuSans-38" d="M 2034 2216 
Q 1584 2216 1326 1975 
Q 1069 1734 1069 1313 
Q 1069 891 1326 650 
Q 1584 409 2034 409 
Q 2484 409 2743 651 
Q 3003 894 3003 1313 
Q 3003 1734 2745 1975 
Q 2488 2216 2034 2216 
z
M 1403 2484 
Q 997 2584 770 2862 
Q 544 3141 544 3541 
Q 544 4100 942 4425 
Q 1341 4750 2034 4750 
Q 2731 4750 3128 4425 
Q 3525 4100 3525 3541 
Q 3525 3141 3298 2862 
Q 3072 2584 2669 2484 
Q 3125 2378 3379 2068 
Q 3634 1759 3634 1313 
Q 3634 634 3220 271 
Q 2806 -91 2034 -91 
Q 1263 -91 848 271 
Q 434 634 434 1313 
Q 434 1759 690 2068 
Q 947 2378 1403 2484 
z
M 1172 3481 
Q 1172 3119 1398 2916 
Q 1625 2713 2034 2713 
Q 2441 2713 2670 2916 
Q 2900 3119 2900 3481 
Q 2900 3844 2670 4047 
Q 2441 4250 2034 4250 
Q 1625 4250 1398 4047 
Q 1172 3844 1172 3481 
z
" transform="scale(0.015625)"/>
       </defs>
       <use xlink:href="#DejaVuSans-30"/>
       <use xlink:href="#DejaVuSans-38" x="63.623047"/>
      </g>
     </g>
    </g>
    <g id="xtick_9">
     <g id="line2d_9">
      <g>
       <use xlink:href="#m1abadb7bd0" x="625.743774" y="419.14798" style="stroke: #000000; stroke-width: 0.6"/>
      </g>
     </g>
     <g id="text_7">
      <!-- 09 -->
      <g transform="translate(619.957095 434.240653) rotate(-10) scale(0.1 -0.1)">
       <defs>
        <path id="DejaVuSans-39" d="M 703 97 
L 703 672 
Q 941 559 1184 500 
Q 1428 441 1663 441 
Q 2288 441 2617 861 
Q 2947 1281 2994 2138 
Q 2813 1869 2534 1725 
Q 2256 1581 1919 1581 
Q 1219 1581 811 2004 
Q 403 2428 403 3163 
Q 403 3881 828 4315 
Q 1253 4750 1959 4750 
Q 2769 4750 3195 4129 
Q 3622 3509 3622 2328 
Q 3622 1225 3098 567 
Q 2575 -91 1691 -91 
Q 1453 -91 1209 -44 
Q 966 3 703 97 
z
M 1959 2075 
Q 2384 2075 2632 2365 
Q 2881 2656 2881 3163 
Q 2881 3666 2632 3958 
Q 2384 4250 1959 4250 
Q 1534 4250 1286 3958 
Q 1038 3666 1038 3163 
Q 1038 2656 1286 2365 
Q 1534 2075 1959 2075 
z
" transform="scale(0.015625)"/>
       </defs>
       <use xlink:href="#DejaVuSans-30"/>
       <use xlink:href="#DejaVuSans-39" x="63.623047"/>
      </g>
     </g>
    </g>
    <g id="xtick_10">
     <g id="line2d_10">
      <g>
       <use xlink:href="#m1abadb7bd0" x="709.436507" y="419.14798" style="stroke: #000000; stroke-width: 0.6"/>
      </g>
     </g>
     <g id="text_8">
      <!-- 10 -->
      <g transform="translate(703.649828 434.240653) rotate(-10) scale(0.1 -0.1)">
       <use xlink:href="#DejaVuSans-31"/>
       <use xlink:href="#DejaVuSans-30" x="63.623047"/>
      </g>
     </g>
    </g>
    <g id="xtick_11">
     <g id="line2d_11">
      <g>
       <use xlink:href="#m1abadb7bd0" x="793.129241" y="419.14798" style="stroke: #000000; stroke-width: 0.6"/>
      </g>
     </g>
     <g id="text_9">
      <!-- 11 -->
      <g transform="translate(787.342562 434.240653) rotate(-10) scale(0.1 -0.1)">
       <use xlink:href="#DejaVuSans-31"/>
       <use xlink:href="#DejaVuSans-31" x="63.623047"/>
      </g>
     </g>
    </g>
    <g id="xtick_12">
     <g id="line2d_12">
      <g>
       <use xlink:href="#m1abadb7bd0" x="876.821974" y="419.14798" style="stroke: #000000; stroke-width: 0.6"/>
      </g>
     </g>
     <g id="text_10">
      <!-- 12 -->
      <g transform="translate(871.035296 434.240653) rotate(-10) scale(0.1 -0.1)">
       <use xlink:href="#DejaVuSans-31"/>
       <use xlink:href="#DejaVuSans-32" x="63.623047"/>
      </g>
     </g>
    </g>
    <g id="xtick_13">
     <g id="line2d_13">
      <g>
       <use xlink:href="#m1abadb7bd0" x="960.514708" y="419.14798" style="stroke: #000000; stroke-width: 0.6"/>
      </g>
     </g>
     <g id="text_11">
      <!-- 13 -->
      <g transform="translate(954.728029 434.240653) rotate(-10) scale(0.1 -0.1)">
       <use xlink:href="#DejaVuSans-31"/>
       <use xlink:href="#DejaVuSans-33" x="63.623047"/>
      </g>
     </g>
    </g>
    <g id="xtick_14">
     <g id="line2d_14">
      <g>
       <use xlink:href="#m1abadb7bd0" x="1044.207442" y="419.14798" style="stroke: #000000; stroke-width: 0.6"/>
      </g>
     </g>
     <g id="text_12">
      <!-- 14 -->
      <g transform="translate(1038.420763 434.240653) rotate(-10) scale(0.1 -0.1)">
       <use xlink:href="#DejaVuSans-31"/>
       <use xlink:href="#DejaVuSans-34" x="63.623047"/>
      </g>
     </g>
    </g>
    <g id="text_13">
     <!-- Time [hours] -->
     <g transform="translate(484.955625 482.790054) scale(0.24 -0.24)">
      <defs>
       <path id="DejaVuSans-54" d="M -19 4666 
L 3928 4666 
L 3928 4134 
L 2272 4134 
L 2272 0 
L 1638 0 
L 1638 4134 
L -19 4134 
L -19 4666 
z
" transform="scale(0.015625)"/>
       <path id="DejaVuSans-69" d="M 603 3500 
L 1178 3500 
L 1178 0 
L 603 0 
L 603 3500 
z
M 603 4863 
L 1178 4863 
L 1178 4134 
L 603 4134 
L 603 4863 
z
" transform="scale(0.015625)"/>
       <path id="DejaVuSans-6d" d="M 3328 2828 
Q 3544 3216 3844 3400 
Q 4144 3584 4550 3584 
Q 5097 3584 5394 3201 
Q 5691 2819 5691 2113 
L 5691 0 
L 5113 0 
L 5113 2094 
Q 5113 2597 4934 2840 
Q 4756 3084 4391 3084 
Q 3944 3084 3684 2787 
Q 3425 2491 3425 1978 
L 3425 0 
L 2847 0 
L 2847 2094 
Q 2847 2600 2669 2842 
Q 2491 3084 2119 3084 
Q 1678 3084 1418 2786 
Q 1159 2488 1159 1978 
L 1159 0 
L 581 0 
L 581 3500 
L 1159 3500 
L 1159 2956 
Q 1356 3278 1631 3431 
Q 1906 3584 2284 3584 
Q 2666 3584 2933 3390 
Q 3200 3197 3328 2828 
z
" transform="scale(0.015625)"/>
       <path id="DejaVuSans-65" d="M 3597 1894 
L 3597 1613 
L 953 1613 
Q 991 1019 1311 708 
Q 1631 397 2203 397 
Q 2534 397 2845 478 
Q 3156 559 3463 722 
L 3463 178 
Q 3153 47 2828 -22 
Q 2503 -91 2169 -91 
Q 1331 -91 842 396 
Q 353 884 353 1716 
Q 353 2575 817 3079 
Q 1281 3584 2069 3584 
Q 2775 3584 3186 3129 
Q 3597 2675 3597 1894 
z
M 3022 2063 
Q 3016 2534 2758 2815 
Q 2500 3097 2075 3097 
Q 1594 3097 1305 2825 
Q 1016 2553 972 2059 
L 3022 2063 
z
" transform="scale(0.015625)"/>
       <path id="DejaVuSans-20" transform="scale(0.015625)"/>
       <path id="DejaVuSans-5b" d="M 550 4863 
L 1875 4863 
L 1875 4416 
L 1125 4416 
L 1125 -397 
L 1875 -397 
L 1875 -844 
L 550 -844 
L 550 4863 
z
" transform="scale(0.015625)"/>
       <path id="DejaVuSans-68" d="M 3513 2113 
L 3513 0 
L 2938 0 
L 2938 2094 
Q 2938 2591 2744 2837 
Q 2550 3084 2163 3084 
Q 1697 3084 1428 2787 
Q 1159 2491 1159 1978 
L 1159 0 
L 581 0 
L 581 4863 
L 1159 4863 
L 1159 2956 
Q 1366 3272 1645 3428 
Q 1925 3584 2291 3584 
Q 2894 3584 3203 3211 
Q 3513 2838 3513 2113 
z
" transform="scale(0.015625)"/>
       <path id="DejaVuSans-6f" d="M 1959 3097 
Q 1497 3097 1228 2736 
Q 959 2375 959 1747 
Q 959 1119 1226 758 
Q 1494 397 1959 397 
Q 2419 397 2687 759 
Q 2956 1122 2956 1747 
Q 2956 2369 2687 2733 
Q 2419 3097 1959 3097 
z
M 1959 3584 
Q 2709 3584 3137 3096 
Q 3566 2609 3566 1747 
Q 3566 888 3137 398 
Q 2709 -91 1959 -91 
Q 1206 -91 779 398 
Q 353 888 353 1747 
Q 353 2609 779 3096 
Q 1206 3584 1959 3584 
z
" transform="scale(0.015625)"/>
       <path id="DejaVuSans-72" d="M 2631 2963 
Q 2534 3019 2420 3045 
Q 2306 3072 2169 3072 
Q 1681 3072 1420 2755 
Q 1159 2438 1159 1844 
L 1159 0 
L 581 0 
L 581 3500 
L 1159 3500 
L 1159 2956 
Q 1341 3275 1631 3429 
Q 1922 3584 2338 3584 
Q 2397 3584 2469 3576 
Q 2541 3569 2628 3553 
L 2631 2963 
z
" transform="scale(0.015625)"/>
       <path id="DejaVuSans-73" d="M 2834 3397 
L 2834 2853 
Q 2591 2978 2328 3040 
Q 2066 3103 1784 3103 
Q 1356 3103 1142 2972 
Q 928 2841 928 2578 
Q 928 2378 1081 2264 
Q 1234 2150 1697 2047 
L 1894 2003 
Q 2506 1872 2764 1633 
Q 3022 1394 3022 966 
Q 3022 478 2636 193 
Q 2250 -91 1575 -91 
Q 1294 -91 989 -36 
Q 684 19 347 128 
L 347 722 
Q 666 556 975 473 
Q 1284 391 1588 391 
Q 1994 391 2212 530 
Q 2431 669 2431 922 
Q 2431 1156 2273 1281 
Q 2116 1406 1581 1522 
L 1381 1569 
Q 847 1681 609 1914 
Q 372 2147 372 2553 
Q 372 3047 722 3315 
Q 1072 3584 1716 3584 
Q 2034 3584 2315 3537 
Q 2597 3491 2834 3397 
z
" transform="scale(0.015625)"/>
       <path id="DejaVuSans-5d" d="M 1947 4863 
L 1947 -844 
L 622 -844 
L 622 -397 
L 1369 -397 
L 1369 4416 
L 622 4416 
L 622 4863 
L 1947 4863 
z
" transform="scale(0.015625)"/>
      </defs>
      <use xlink:href="#DejaVuSans-54"/>
      <use xlink:href="#DejaVuSans-69" x="57.958984"/>
      <use xlink:href="#DejaVuSans-6d" x="85.742188"/>
      <use xlink:href="#DejaVuSans-65" x="183.154297"/>
      <use xlink:href="#DejaVuSans-20" x="244.677734"/>
      <use xlink:href="#DejaVuSans-5b" x="276.464844"/>
      <use xlink:href="#DejaVuSans-68" x="315.478516"/>
      <use xlink:href="#DejaVuSans-6f" x="378.857422"/>
      <use xlink:href="#DejaVuSans-75" x="440.039062"/>
      <use xlink:href="#DejaVuSans-72" x="503.417969"/>
      <use xlink:href="#DejaVuSans-73" x="544.53125"/>
      <use xlink:href="#DejaVuSans-5d" x="596.630859"/>
     </g>
    </g>
   </g>
   <g id="matplotlib.axis_2">
    <g id="ytick_1">
     <g id="line2d_15">
      <defs>
       <path id="m5f06b276de" d="M 0 0 
L -3.5 0 
" style="stroke: #000000; stroke-width: 0.8"/>
      </defs>
      <g>
       <use xlink:href="#m5f06b276de" x="57.330625" y="400.423072" style="stroke: #000000; stroke-width: 0.8"/>
      </g>
     </g>
     <g id="text_14">
      <!-- 0.0 -->
      <g transform="translate(34.4275 404.222291) scale(0.1 -0.1)">
       <defs>
        <path id="DejaVuSans-2e" d="M 684 794 
L 1344 794 
L 1344 0 
L 684 0 
L 684 794 
z
" transform="scale(0.015625)"/>
       </defs>
       <use xlink:href="#DejaVuSans-30"/>
       <use xlink:href="#DejaVuSans-2e" x="63.623047"/>
       <use xlink:href="#DejaVuSans-30" x="95.410156"/>
      </g>
     </g>
    </g>
    <g id="ytick_2">
     <g id="line2d_16">
      <g>
       <use xlink:href="#m5f06b276de" x="57.330625" y="324.766877" style="stroke: #000000; stroke-width: 0.8"/>
      </g>
     </g>
     <g id="text_15">
      <!-- 0.5 -->
      <g transform="translate(34.4275 328.566096) scale(0.1 -0.1)">
       <use xlink:href="#DejaVuSans-30"/>
       <use xlink:href="#DejaVuSans-2e" x="63.623047"/>
       <use xlink:href="#DejaVuSans-35" x="95.410156"/>
      </g>
     </g>
    </g>
    <g id="ytick_3">
     <g id="line2d_17">
      <g>
       <use xlink:href="#m5f06b276de" x="57.330625" y="249.110683" style="stroke: #000000; stroke-width: 0.8"/>
      </g>
     </g>
     <g id="text_16">
      <!-- 1.0 -->
      <g transform="translate(34.4275 252.909901) scale(0.1 -0.1)">
       <use xlink:href="#DejaVuSans-31"/>
       <use xlink:href="#DejaVuSans-2e" x="63.623047"/>
       <use xlink:href="#DejaVuSans-30" x="95.410156"/>
      </g>
     </g>
    </g>
    <g id="ytick_4">
     <g id="line2d_18">
      <g>
       <use xlink:href="#m5f06b276de" x="57.330625" y="173.454488" style="stroke: #000000; stroke-width: 0.8"/>
      </g>
     </g>
     <g id="text_17">
      <!-- 1.5 -->
      <g transform="translate(34.4275 177.253707) scale(0.1 -0.1)">
       <use xlink:href="#DejaVuSans-31"/>
       <use xlink:href="#DejaVuSans-2e" x="63.623047"/>
       <use xlink:href="#DejaVuSans-35" x="95.410156"/>
      </g>
     </g>
    </g>
    <g id="ytick_5">
     <g id="line2d_19">
      <g>
       <use xlink:href="#m5f06b276de" x="57.330625" y="97.798293" style="stroke: #000000; stroke-width: 0.8"/>
      </g>
     </g>
     <g id="text_18">
      <!-- 2.0 -->
      <g transform="translate(34.4275 101.597512) scale(0.1 -0.1)">
       <use xlink:href="#DejaVuSans-32"/>
       <use xlink:href="#DejaVuSans-2e" x="63.623047"/>
       <use xlink:href="#DejaVuSans-30" x="95.410156"/>
      </g>
     </g>
    </g>
    <g id="ytick_6">
     <g id="line2d_20">
      <g>
       <use xlink:href="#m5f06b276de" x="57.330625" y="22.142098" style="stroke: #000000; stroke-width: 0.8"/>
      </g>
     </g>
     <g id="text_19">
      <!-- 2.5 -->
      <g transform="translate(34.4275 25.941317) scale(0.1 -0.1)">
       <use xlink:href="#DejaVuSans-32"/>
       <use xlink:href="#DejaVuSans-2e" x="63.623047"/>
       <use xlink:href="#DejaVuSans-35" x="95.410156"/>
      </g>
     </g>
    </g>
    <g id="text_20">
     <!-- Grossload [kW] -->
     <g transform="translate(25.43625 304.619615) rotate(-90) scale(0.24 -0.24)">
      <defs>
       <path id="DejaVuSans-47" d="M 3809 666 
L 3809 1919 
L 2778 1919 
L 2778 2438 
L 4434 2438 
L 4434 434 
Q 4069 175 3628 42 
Q 3188 -91 2688 -91 
Q 1594 -91 976 548 
Q 359 1188 359 2328 
Q 359 3472 976 4111 
Q 1594 4750 2688 4750 
Q 3144 4750 3555 4637 
Q 3966 4525 4313 4306 
L 4313 3634 
Q 3963 3931 3569 4081 
Q 3175 4231 2741 4231 
Q 1884 4231 1454 3753 
Q 1025 3275 1025 2328 
Q 1025 1384 1454 906 
Q 1884 428 2741 428 
Q 3075 428 3337 486 
Q 3600 544 3809 666 
z
" transform="scale(0.015625)"/>
       <path id="DejaVuSans-61" d="M 2194 1759 
Q 1497 1759 1228 1600 
Q 959 1441 959 1056 
Q 959 750 1161 570 
Q 1363 391 1709 391 
Q 2188 391 2477 730 
Q 2766 1069 2766 1631 
L 2766 1759 
L 2194 1759 
z
M 3341 1997 
L 3341 0 
L 2766 0 
L 2766 531 
Q 2569 213 2275 61 
Q 1981 -91 1556 -91 
Q 1019 -91 701 211 
Q 384 513 384 1019 
Q 384 1609 779 1909 
Q 1175 2209 1959 2209 
L 2766 2209 
L 2766 2266 
Q 2766 2663 2505 2880 
Q 2244 3097 1772 3097 
Q 1472 3097 1187 3025 
Q 903 2953 641 2809 
L 641 3341 
Q 956 3463 1253 3523 
Q 1550 3584 1831 3584 
Q 2591 3584 2966 3190 
Q 3341 2797 3341 1997 
z
" transform="scale(0.015625)"/>
       <path id="DejaVuSans-64" d="M 2906 2969 
L 2906 4863 
L 3481 4863 
L 3481 0 
L 2906 0 
L 2906 525 
Q 2725 213 2448 61 
Q 2172 -91 1784 -91 
Q 1150 -91 751 415 
Q 353 922 353 1747 
Q 353 2572 751 3078 
Q 1150 3584 1784 3584 
Q 2172 3584 2448 3432 
Q 2725 3281 2906 2969 
z
M 947 1747 
Q 947 1113 1208 752 
Q 1469 391 1925 391 
Q 2381 391 2643 752 
Q 2906 1113 2906 1747 
Q 2906 2381 2643 2742 
Q 2381 3103 1925 3103 
Q 1469 3103 1208 2742 
Q 947 2381 947 1747 
z
" transform="scale(0.015625)"/>
       <path id="DejaVuSans-6b" d="M 581 4863 
L 1159 4863 
L 1159 1991 
L 2875 3500 
L 3609 3500 
L 1753 1863 
L 3688 0 
L 2938 0 
L 1159 1709 
L 1159 0 
L 581 0 
L 581 4863 
z
" transform="scale(0.015625)"/>
       <path id="DejaVuSans-57" d="M 213 4666 
L 850 4666 
L 1831 722 
L 2809 4666 
L 3519 4666 
L 4500 722 
L 5478 4666 
L 6119 4666 
L 4947 0 
L 4153 0 
L 3169 4050 
L 2175 0 
L 1381 0 
L 213 4666 
z
" transform="scale(0.015625)"/>
      </defs>
      <use xlink:href="#DejaVuSans-47"/>
      <use xlink:href="#DejaVuSans-72" x="77.490234"/>
      <use xlink:href="#DejaVuSans-6f" x="116.353516"/>
      <use xlink:href="#DejaVuSans-73" x="177.535156"/>
      <use xlink:href="#DejaVuSans-73" x="229.634766"/>
      <use xlink:href="#DejaVuSans-6c" x="281.734375"/>
      <use xlink:href="#DejaVuSans-6f" x="309.517578"/>
      <use xlink:href="#DejaVuSans-61" x="370.699219"/>
      <use xlink:href="#DejaVuSans-64" x="431.978516"/>
      <use xlink:href="#DejaVuSans-20" x="495.455078"/>
      <use xlink:href="#DejaVuSans-5b" x="527.242188"/>
      <use xlink:href="#DejaVuSans-6b" x="566.255859"/>
      <use xlink:href="#DejaVuSans-57" x="624.166016"/>
      <use xlink:href="#DejaVuSans-5d" x="723.042969"/>
     </g>
    </g>
   </g>
   <g id="line2d_21">
    <path d="M 57.330625 381.96296 
L 60.817822 387.712831 
L 64.305019 388.318081 
L 67.792217 240.031939 
L 71.279414 353.667544 
L 74.766611 304.944954 
L 78.253808 193.730348 
L 81.741006 220.210016 
L 85.228203 154.086502 
L 88.7154 224.144138 
L 92.202597 233.374194 
L 95.689795 382.56821 
L 99.176992 333.089059 
L 102.664189 220.361329 
L 106.151386 339.141554 
L 109.638583 233.979444 
L 113.125781 276.80085 
L 116.612978 349.733422 
L 120.100175 378.936713 
L 123.587372 381.660336 
L 127.07457 190.250163 
L 130.561767 294.655712 
L 134.048964 290.872902 
L 137.536161 380.601149 
L 141.023359 381.509023 
L 144.510556 347.463736 
L 147.997753 385.594458 
L 151.48495 249.261995 
L 154.972147 368.798783 
L 158.459345 377.423589 
L 161.946542 369.404032 
L 165.433739 386.804957 
L 168.920936 318.260445 
L 172.408134 307.21464 
L 175.895331 274.379852 
L 179.382528 236.249129 
L 182.869725 273.774602 
L 186.356923 250.472494 
L 189.84412 233.374194 
L 193.331317 341.865177 
L 196.818514 282.096783 
L 200.305712 366.377784 
L 203.792909 376.667027 
L 207.280106 365.318598 
L 210.767303 386.048395 
L 214.2545 343.378301 
L 217.741698 377.726214 
L 221.228895 378.028838 
L 224.716092 382.719522 
L 228.203289 386.048395 
L 231.690487 380.298524 
L 235.177684 156.053563 
L 238.664881 257.735489 
L 242.152078 382.56821 
L 245.639276 254.255304 
L 249.126473 273.471977 
L 252.61367 272.110166 
L 256.100867 332.029872 
L 259.588064 117.166279 
L 263.075262 122.764837 
L 266.562459 174.664987 
L 270.049656 106.271787 
L 273.536853 196.756596 
L 277.024051 250.321182 
L 280.511248 343.075676 
L 283.998445 311.754012 
L 287.485642 362.29235 
L 290.97284 343.226989 
L 294.460037 327.641813 
L 297.947234 357.299041 
L 301.434431 381.055086 
L 304.921628 379.844587 
L 308.408826 380.298524 
L 311.896023 347.161111 
L 315.38322 385.594458 
L 318.870417 272.261478 
L 322.357615 378.180151 
L 325.844812 376.364402 
L 329.332009 331.27331 
L 332.819206 210.828648 
L 336.306404 318.714382 
L 339.793601 112.626907 
L 343.280798 109.146722 
L 346.767995 109.903284 
L 350.255192 252.288243 
L 353.74239 271.353604 
L 357.229587 284.366469 
L 360.716784 257.432864 
L 364.203981 355.785917 
L 367.691179 374.851278 
L 371.178376 379.995899 
L 374.665573 376.667027 
L 378.15277 384.686583 
L 381.639968 336.720556 
L 385.127165 299.043771 
L 388.614362 295.866211 
L 392.101559 287.997967 
L 395.588756 384.837896 
L 399.075954 385.443145 
L 402.563151 280.886284 
L 406.050348 368.042221 
L 409.537545 327.793125 
L 413.024743 283.76122 
L 416.51194 181.020107 
L 419.999137 222.631014 
L 423.486334 311.451387 
L 426.973532 231.407133 
L 430.460729 110.962471 
L 433.947926 214.006208 
L 437.435123 110.508534 
L 440.922321 300.708207 
L 444.409518 341.713865 
L 447.896715 328.398375 
L 451.383912 317.35257 
L 454.871109 373.186842 
L 458.358307 381.811648 
L 461.845504 385.443145 
L 465.332701 349.430797 
L 468.819898 381.357711 
L 472.307096 381.509023 
L 475.794293 385.74577 
L 479.28149 400.423072 
L 489.743082 400.423072 
L 493.230279 385.897083 
L 496.717476 387.864144 
L 500.204673 363.048912 
L 503.691871 262.426173 
L 507.179068 89.930049 
L 510.666265 164.678369 
L 514.153462 296.774085 
L 517.64066 342.167802 
L 521.127857 263.787984 
L 524.615054 316.444696 
L 528.102251 308.879076 
L 531.589449 304.642329 
L 538.563843 387.864144 
L 542.05104 388.015456 
L 545.538237 381.357711 
L 549.025435 382.56821 
L 552.512632 349.733422 
L 555.999829 385.443145 
L 559.487026 382.265585 
L 562.974224 370.917156 
L 566.461421 380.449837 
L 569.948618 259.248613 
L 573.435815 319.319631 
L 576.923013 82.061805 
L 580.41021 96.890419 
L 583.897407 123.521399 
L 587.384604 110.962471 
L 590.871801 339.444179 
L 594.358999 206.137964 
L 597.846196 190.401475 
L 601.333393 374.246029 
L 604.82059 227.473011 
L 608.307788 363.502849 
L 611.794985 358.206915 
L 615.282182 356.391167 
L 618.769379 356.239854 
L 622.256577 343.226989 
L 625.743774 240.485876 
L 629.230971 385.443145 
L 632.718168 381.357711 
L 636.205365 381.206399 
L 639.692563 346.404549 
L 643.17976 387.864144 
L 646.666957 384.081334 
L 650.154154 376.21309 
L 653.641352 143.040698 
L 657.128549 249.867245 
L 660.615746 263.636672 
L 664.102943 384.837896 
L 667.590141 379.995899 
L 671.077338 380.601149 
L 674.564535 384.383959 
L 678.051732 384.535271 
L 681.538929 135.021141 
L 685.026127 145.613008 
L 688.513324 262.88011 
L 692.000521 341.865177 
L 695.487718 363.502849 
L 698.974916 365.015973 
L 702.462113 322.194567 
L 705.94931 379.995899 
L 709.436507 379.239337 
L 712.923705 298.287209 
L 716.410902 303.129206 
L 719.898099 265.452421 
L 723.385296 381.357711 
L 726.872494 381.357711 
L 730.359691 383.324772 
L 733.846888 387.712831 
L 737.334085 239.578002 
L 740.821282 370.463219 
L 744.30848 378.331463 
L 747.795677 214.611458 
L 751.282874 383.476084 
L 754.770071 349.128172 
L 758.257269 382.416898 
L 761.744466 355.937229 
L 765.231663 358.206915 
L 768.71886 364.108099 
L 772.206058 193.730348 
L 775.693255 366.226472 
L 779.180452 265.149796 
L 782.667649 327.944437 
L 786.154846 329.306249 
L 789.642044 383.17346 
L 793.129241 347.463736 
L 796.616438 274.985101 
L 800.103635 289.359778 
L 803.590833 296.168836 
L 807.07803 388.015456 
L 810.565227 343.832238 
L 814.052424 380.903774 
L 817.539622 375.153903 
L 821.026819 272.261478 
L 824.514016 375.456528 
L 828.001213 379.39065 
L 831.48841 363.805474 
L 834.975608 355.785917 
L 838.462805 299.195083 
L 841.950002 350.036046 
L 845.437199 318.714382 
L 848.924397 143.79726 
L 852.411594 150.15238 
L 855.898791 154.389127 
L 859.385988 261.669611 
L 862.873186 351.397858 
L 866.360383 355.634605 
L 869.84758 305.096267 
L 873.334777 387.258894 
L 876.821974 155.599626 
L 880.309172 380.601149 
L 883.796369 381.055086 
L 887.283566 384.383959 
L 890.770763 388.015456 
L 894.257961 382.56821 
L 897.745158 381.660336 
L 901.232355 378.7854 
L 904.719552 228.834822 
L 908.20675 283.307283 
L 911.693947 248.051496 
L 915.181144 337.023181 
L 918.668341 217.789018 
L 922.155538 184.197668 
L 925.642736 204.473528 
L 929.129933 363.200224 
L 932.61713 363.502849 
L 936.104327 381.96296 
L 939.591525 252.590868 
L 943.078722 333.240371 
L 946.565919 214.914083 
L 950.053116 111.870345 
L 953.540314 271.353604 
L 957.027511 245.479185 
L 960.514708 340.503366 
L 964.001905 242.150313 
L 967.489103 371.673718 
L 970.9763 307.517265 
L 974.463497 303.885768 
L 977.950694 348.220298 
L 981.437891 381.055086 
L 984.925089 377.574901 
L 988.412286 260.005175 
L 991.899483 374.699966 
L 995.38668 368.193533 
L 998.873878 260.307799 
L 1002.361075 356.239854 
L 1005.848272 233.676819 
L 1009.335469 253.196117 
L 1012.822667 256.978927 
L 1016.309864 216.427206 
L 1019.797061 206.894526 
L 1023.284258 123.218775 
L 1026.771455 355.029355 
L 1030.258653 365.015973 
L 1033.74585 269.386543 
L 1037.233047 212.19046 
L 1040.720244 306.912015 
L 1044.207442 349.733422 
L 1047.694639 381.206399 
L 1051.181836 385.897083 
L 1054.669033 388.015456 
L 1058.156231 384.535271 
L 1061.643428 342.319114 
L 1065.130625 379.844587 
L 1065.130625 379.844587 
" clip-path="url(#p6f33d782a1)" style="fill: none; stroke: #a0a7bc; stroke-width: 2; stroke-linecap: square"/>
   </g>
   <g id="line2d_22">
    <path d="M 57.330625 379.39065 
L 60.817822 377.423589 
L 64.305019 382.265585 
L 67.792217 387.561519 
L 71.279414 174.664987 
L 74.766611 176.632048 
L 81.741006 161.652121 
L 85.228203 336.720556 
L 88.7154 373.338154 
L 92.202597 373.338154 
L 95.689795 176.329423 
L 99.176992 183.289793 
L 102.664189 108.692785 
L 106.151386 141.527574 
L 109.638583 119.13334 
L 113.125781 173.757113 
L 116.612978 182.835856 
L 120.100175 168.158554 
L 123.587372 243.814749 
L 127.07457 391.344329 
L 130.561767 392.252203 
L 134.048964 392.100891 
L 137.536161 387.864144 
L 141.023359 382.265585 
L 144.510556 381.660336 
L 147.997753 386.653645 
L 151.48495 179.809608 
L 154.972147 131.389644 
L 158.459345 151.514191 
L 161.946542 372.732905 
L 165.433739 374.548653 
L 168.920936 261.366986 
L 172.408134 378.482776 
L 175.895331 377.120964 
L 179.382528 368.64747 
L 182.869725 381.96296 
L 186.356923 382.870835 
L 189.84412 386.048395 
L 193.331317 386.653645 
L 196.818514 385.140521 
L 200.305712 153.632565 
L 203.792909 169.520366 
L 207.280106 319.773568 
L 210.767303 343.226989 
L 214.2545 370.160594 
L 217.741698 380.147212 
L 221.228895 377.423589 
L 224.716092 379.693275 
L 228.203289 383.627397 
L 231.690487 385.140521 
L 235.177684 379.541962 
L 238.664881 165.132306 
L 242.152078 137.593452 
L 245.639276 167.401992 
L 249.126473 162.106059 
L 252.61367 353.062294 
L 256.100867 359.11479 
L 259.588064 345.042737 
L 263.075262 358.358228 
L 266.562459 360.325289 
L 270.049656 137.896076 
L 273.536853 301.464769 
L 277.024051 345.799299 
L 280.511248 153.632565 
L 283.998445 203.565653 
L 287.485642 193.427723 
L 290.97284 355.029355 
L 294.460037 355.785917 
L 297.947234 363.654161 
L 301.434431 361.384476 
L 304.921628 360.022664 
L 308.408826 367.588283 
L 311.896023 369.101407 
L 315.38322 362.746287 
L 318.870417 361.081851 
L 322.357615 109.449347 
L 325.844812 154.540439 
L 329.332009 149.54713 
L 332.819206 137.744764 
L 336.306404 163.165245 
L 339.793601 340.654678 
L 343.280798 349.128172 
L 346.767995 376.515714 
L 350.255192 349.279484 
L 353.74239 67.23319 
L 357.229587 333.694308 
L 360.716784 363.502849 
L 364.203981 359.871352 
L 367.691179 359.568727 
L 371.178376 351.095233 
L 374.665573 382.870835 
L 378.15277 389.52858 
L 381.639968 390.13383 
L 385.127165 384.837896 
L 388.614362 378.482776 
L 392.101559 382.870835 
L 395.588756 390.436454 
L 399.075954 385.140521 
L 402.563151 312.056637 
L 406.050348 162.106059 
L 409.537545 167.553305 
L 413.024743 175.875486 
L 416.51194 282.702033 
L 419.999137 375.002591 
L 423.486334 375.910465 
L 426.973532 376.21309 
L 430.460729 373.338154 
L 433.947926 363.048912 
L 437.435123 144.553821 
L 440.922321 138.803951 
L 444.409518 216.275894 
L 447.896715 385.594458 
L 451.383912 384.232646 
L 454.871109 373.943404 
L 458.358307 355.180668 
L 461.845504 386.35102 
L 465.332701 391.193016 
L 468.819898 384.686583 
L 472.307096 381.660336 
L 475.794293 388.015456 
L 479.28149 388.318081 
L 482.768687 382.719522 
L 486.255885 204.019591 
L 489.743082 179.355671 
L 493.230279 172.243989 
L 496.717476 363.654161 
L 500.204673 352.305732 
L 503.691871 371.068468 
L 507.179068 365.621222 
L 510.666265 333.996933 
L 514.153462 362.141037 
L 517.64066 356.996416 
L 521.127857 338.838929 
L 524.615054 345.345362 
L 528.102251 344.891425 
L 531.589449 353.667544 
L 535.076646 360.173976 
L 538.563843 360.930538 
L 542.05104 361.838413 
L 545.538237 363.048912 
L 549.025435 378.634088 
L 552.512632 374.094716 
L 555.999829 378.482776 
L 559.487026 385.897083 
L 562.974224 383.476084 
L 566.461421 375.60784 
L 569.948618 381.055086 
L 573.435815 361.6871 
L 576.923013 362.594975 
L 580.41021 350.943921 
L 583.897407 366.07516 
L 587.384604 366.831722 
L 590.871801 223.538889 
L 594.358999 229.440072 
L 597.846196 256.52499 
L 601.333393 275.892975 
L 604.82059 248.808058 
L 608.307788 276.80085 
L 611.794985 332.635122 
L 615.282182 331.727247 
L 618.769379 328.09575 
L 622.256577 338.23368 
L 625.743774 359.720039 
L 629.230971 363.502849 
L 632.718168 364.108099 
L 636.205365 357.147729 
L 639.692563 362.897599 
L 643.17976 363.200224 
L 650.154154 392.554828 
L 653.641352 392.252203 
L 657.128549 343.680926 
L 660.615746 365.621222 
L 664.102943 363.956786 
L 667.590141 319.622256 
L 671.077338 370.160594 
L 674.564535 367.739596 
L 678.051732 364.108099 
L 681.538929 378.634088 
L 685.026127 376.667027 
L 688.513324 235.189943 
L 692.000521 195.546097 
L 695.487718 325.523439 
L 698.974916 351.851795 
L 702.462113 347.917673 
L 705.94931 355.483292 
L 709.436507 374.397341 
L 712.923705 375.002591 
L 716.410902 390.13383 
L 719.898099 392.857453 
L 723.385296 389.831205 
L 726.872494 383.022147 
L 730.359691 386.956269 
L 733.846888 393.765327 
L 737.334085 119.73859 
L 740.821282 171.03349 
L 744.30848 172.092676 
L 747.795677 170.125615 
L 751.282874 171.790052 
L 754.770071 198.723657 
L 758.257269 343.983551 
L 761.744466 355.029355 
L 765.231663 358.055603 
L 768.71886 363.654161 
L 772.206058 365.318598 
L 775.693255 306.912015 
L 779.180452 362.746287 
L 782.667649 292.688651 
L 786.154846 365.772535 
L 789.642044 374.851278 
L 793.129241 386.502332 
L 796.616438 383.022147 
L 800.103635 383.324772 
L 803.590833 390.285142 
L 807.07803 385.140521 
L 810.565227 381.660336 
L 814.052424 390.436454 
L 817.539622 384.535271 
L 821.026819 383.778709 
L 824.514016 28.497219 
L 828.001213 25.924908 
L 831.48841 152.724691 
L 834.975608 127.455521 
L 838.462805 180.414858 
L 841.950002 179.204359 
L 845.437199 366.226472 
L 848.924397 361.384476 
L 852.411594 364.410723 
L 855.898791 336.115306 
L 859.385988 286.484843 
L 862.873186 297.379335 
L 866.360383 279.37316 
L 869.84758 345.496675 
L 873.334777 368.193533 
L 876.821974 384.989208 
L 880.309172 387.258894 
L 883.796369 378.7854 
L 887.283566 383.930022 
L 890.770763 384.989208 
L 894.257961 379.693275 
L 897.745158 387.410206 
L 901.232355 372.884217 
L 904.719552 365.167285 
L 908.20675 383.022147 
L 911.693947 373.943404 
L 915.181144 388.166768 
L 918.668341 387.107582 
L 922.155538 379.844587 
L 925.642736 385.74577 
L 929.129933 384.837896 
L 932.61713 380.752461 
L 936.104327 388.469393 
L 939.591525 381.206399 
L 943.078722 71.772562 
L 946.565919 182.381919 
L 950.053116 185.559479 
L 953.540314 146.36957 
L 957.027511 171.184802 
L 960.514708 381.509023 
L 964.001905 388.620706 
L 967.489103 382.416898 
L 970.9763 382.719522 
L 974.463497 387.258894 
L 977.950694 382.114273 
L 981.437891 389.225955 
L 984.925089 383.324772 
L 988.412286 272.564103 
L 991.899483 151.362879 
L 995.38668 168.915116 
L 1002.361075 356.239854 
L 1005.848272 320.378818 
L 1009.335469 381.811648 
L 1012.822667 376.364402 
L 1016.309864 376.515714 
L 1019.797061 181.776669 
L 1023.284258 264.090609 
L 1026.771455 343.226989 
L 1030.258653 356.391167 
L 1033.74585 355.33198 
L 1037.233047 360.627914 
L 1040.720244 357.299041 
L 1044.207442 363.956786 
L 1047.694639 387.410206 
L 1051.181836 381.509023 
L 1054.669033 380.752461 
L 1058.156231 387.561519 
L 1061.643428 380.752461 
L 1065.130625 386.956269 
L 1065.130625 386.956269 
" clip-path="url(#p6f33d782a1)" style="fill: none; stroke: #13748b; stroke-width: 2; stroke-linecap: square"/>
   </g>
   <g id="patch_3">
    <path d="M 57.330625 419.14798 
L 57.330625 7.2 
" style="fill: none; stroke: #000000; stroke-width: 0.8; stroke-linejoin: miter; stroke-linecap: square"/>
   </g>
   <g id="patch_4">
    <path d="M 1065.130625 419.14798 
L 1065.130625 7.2 
" style="fill: none; stroke: #000000; stroke-width: 0.8; stroke-linejoin: miter; stroke-linecap: square"/>
   </g>
   <g id="patch_5">
    <path d="M 57.330625 419.14798 
L 1065.130625 419.14798 
" style="fill: none; stroke: #000000; stroke-width: 0.8; stroke-linejoin: miter; stroke-linecap: square"/>
   </g>
   <g id="patch_6">
    <path d="M 57.330625 7.2 
L 1065.130625 7.2 
" style="fill: none; stroke: #000000; stroke-width: 0.8; stroke-linejoin: miter; stroke-linecap: square"/>
   </g>
   <g id="legend_1">
    <g id="patch_7">
     <path d="M 75.530625 104.32625 
L 348.648438 104.32625 
Q 353.848437 104.32625 353.848437 99.12625 
L 353.848437 25.4 
Q 353.848437 20.2 348.648438 20.2 
L 75.530625 20.2 
Q 70.330625 20.2 70.330625 25.4 
L 70.330625 99.12625 
Q 70.330625 104.32625 75.530625 104.32625 
z
" style="fill: #ffffff; opacity: 0.8; stroke: #cccccc; stroke-linejoin: miter"/>
    </g>
    <g id="line2d_23">
     <path d="M 80.730625 41.255938 
L 106.730625 41.255938 
L 132.730625 41.255938 
" style="fill: none; stroke: #a0a7bc; stroke-width: 2; stroke-linecap: square"/>
    </g>
    <g id="text_21">
     <!-- Smart meter 1 -->
     <g transform="translate(153.530625 50.355938) scale(0.26 -0.26)">
      <defs>
       <path id="DejaVuSans-53" d="M 3425 4513 
L 3425 3897 
Q 3066 4069 2747 4153 
Q 2428 4238 2131 4238 
Q 1616 4238 1336 4038 
Q 1056 3838 1056 3469 
Q 1056 3159 1242 3001 
Q 1428 2844 1947 2747 
L 2328 2669 
Q 3034 2534 3370 2195 
Q 3706 1856 3706 1288 
Q 3706 609 3251 259 
Q 2797 -91 1919 -91 
Q 1588 -91 1214 -16 
Q 841 59 441 206 
L 441 856 
Q 825 641 1194 531 
Q 1563 422 1919 422 
Q 2459 422 2753 634 
Q 3047 847 3047 1241 
Q 3047 1584 2836 1778 
Q 2625 1972 2144 2069 
L 1759 2144 
Q 1053 2284 737 2584 
Q 422 2884 422 3419 
Q 422 4038 858 4394 
Q 1294 4750 2059 4750 
Q 2388 4750 2728 4690 
Q 3069 4631 3425 4513 
z
" transform="scale(0.015625)"/>
       <path id="DejaVuSans-74" d="M 1172 4494 
L 1172 3500 
L 2356 3500 
L 2356 3053 
L 1172 3053 
L 1172 1153 
Q 1172 725 1289 603 
Q 1406 481 1766 481 
L 2356 481 
L 2356 0 
L 1766 0 
Q 1100 0 847 248 
Q 594 497 594 1153 
L 594 3053 
L 172 3053 
L 172 3500 
L 594 3500 
L 594 4494 
L 1172 4494 
z
" transform="scale(0.015625)"/>
      </defs>
      <use xlink:href="#DejaVuSans-53"/>
      <use xlink:href="#DejaVuSans-6d" x="63.476562"/>
      <use xlink:href="#DejaVuSans-61" x="160.888672"/>
      <use xlink:href="#DejaVuSans-72" x="222.167969"/>
      <use xlink:href="#DejaVuSans-74" x="263.28125"/>
      <use xlink:href="#DejaVuSans-20" x="302.490234"/>
      <use xlink:href="#DejaVuSans-6d" x="334.277344"/>
      <use xlink:href="#DejaVuSans-65" x="431.689453"/>
      <use xlink:href="#DejaVuSans-74" x="493.212891"/>
      <use xlink:href="#DejaVuSans-65" x="532.421875"/>
      <use xlink:href="#DejaVuSans-72" x="593.945312"/>
      <use xlink:href="#DejaVuSans-20" x="635.058594"/>
      <use xlink:href="#DejaVuSans-31" x="666.845703"/>
     </g>
    </g>
    <g id="line2d_24">
     <path d="M 80.730625 79.419063 
L 106.730625 79.419063 
L 132.730625 79.419063 
" style="fill: none; stroke: #13748b; stroke-width: 2; stroke-linecap: square"/>
    </g>
    <g id="text_22">
     <!-- Smart meter 2 -->
     <g transform="translate(153.530625 88.519063) scale(0.26 -0.26)">
      <use xlink:href="#DejaVuSans-53"/>
      <use xlink:href="#DejaVuSans-6d" x="63.476562"/>
      <use xlink:href="#DejaVuSans-61" x="160.888672"/>
      <use xlink:href="#DejaVuSans-72" x="222.167969"/>
      <use xlink:href="#DejaVuSans-74" x="263.28125"/>
      <use xlink:href="#DejaVuSans-20" x="302.490234"/>
      <use xlink:href="#DejaVuSans-6d" x="334.277344"/>
      <use xlink:href="#DejaVuSans-65" x="431.689453"/>
      <use xlink:href="#DejaVuSans-74" x="493.212891"/>
      <use xlink:href="#DejaVuSans-65" x="532.421875"/>
      <use xlink:href="#DejaVuSans-72" x="593.945312"/>
      <use xlink:href="#DejaVuSans-20" x="635.058594"/>
      <use xlink:href="#DejaVuSans-32" x="666.845703"/>
     </g>
    </g>
   </g>
  </g>
 </g>
 <defs>
  <clipPath id="p6f33d782a1">
   <rect x="57.330625" y="7.2" width="1007.8" height="411.94798"/>
  </clipPath>
 </defs>
</svg>
